<?xml version="1.0" encoding="UTF-8"?>
<svg width="60px" height="60px" viewBox="0 0 60 60" version="1.1" xmlns="http://www.w3.org/2000/svg" xmlns:xlink="http://www.w3.org/1999/xlink">
    <!-- Generator: Sketch 49.2 (51160) - http://www.bohemiancoding.com/sketch -->
    <title>icone blanc</title>
    <desc>Created with Sketch.</desc>
    <defs></defs>
    <g id="icone-blanc" stroke="none" stroke-width="1" fill="none" fill-rule="evenodd">
        <g id="spelunking" transform="translate(-16.000000, -29.000000)" fill="#FFFFFF">
            <g id="danse-classique" transform="translate(25.000000, 41.000000)">
                <path d="M26.6289529,4.82982118 C26.9872119,4.91962824 27.3479139,4.85325176 27.6397857,4.67388235 C28.1300253,5.42078588 28.7118146,6.17980235 28.7118146,6.17980235 C28.7118146,6.17980235 29.1335294,6.25315294 29.6032482,6.33451765 C30.0199549,6.40713412 30.3618461,6.51088941 30.4709851,6.20971765 C30.7268844,5.50355765 31.2260408,4.12635294 31.3678542,3.73549647 C31.8104562,2.51533176 31.1172072,1.20181176 30.0365059,0.808691765 C28.9542166,0.415082353 27.5645428,0.890729412 27.1165663,2.12704471 C27.1039851,2.16173176 27.0932361,2.19666353 27.0819985,2.23153412 C26.4396851,2.16570824 25.829924,2.58030118 25.6687502,3.22608 C25.4917582,3.93456471 25.9214737,4.65271529 26.6289529,4.82982118 M37.9026924,2.44161412 C36.7399079,4.46900235 35.6545039,6.41245647 35.6545039,6.41245647 L32.0862656,9.67267294 L31.9053649,8.27570824 L31.658077,8.44602353 L31.6479998,8.45293647 C31.6479998,8.45293647 31.703577,10.25232 31.703577,10.7668753 C31.703577,11.4228094 31.6371898,11.5452235 31.3009784,11.9809835 C31.065722,12.2860094 27.6311743,16.6299671 27.6311743,16.6299671 L27.6268992,36.3774259 C26.0571797,36.4658259 25.8050059,34.9084565 25.751322,34.1055765 C25.697577,33.3028188 25.2180253,25.6842682 25.2180253,25.6842682 L23.148722,17.5829741 L24.8766226,17.3140424 L24.4888649,16.98736 L22.7284119,17.0456612 L14.3898193,16.3150918 C14.3898193,16.3150918 8.31773741,15.6115624 6.1736797,15.3656329 C4.02968305,15.1197035 4.20337701,13.3893882 4.20337701,13.3893882 L14.5827515,13.73736 L20.780218,12.9930259 C21.6418475,12.4968847 23.101573,12.0502353 24.5027287,12.1218118 L25.1561575,11.2222729 L25.3057884,9.27416941 L20.8557663,9.23880941 C20.8557663,9.23880941 16.0570737,8.56984471 15.3620535,8.47294118 C14.6669112,8.37603765 13.7035938,7.93740235 13.649971,6.63312 L21.1502032,7.29290824 C21.1502032,7.29290824 25.5637032,6.69392941 26.0783112,6.62412706 C26.598477,6.55352941 27.0082824,6.54606588 27.4319515,6.62015059 C27.8486582,6.69301176 31.0644394,7.26005647 31.0644394,7.26005647 L34.2829079,5.11716706 L37.5079112,0 C37.5079112,0 38.6123703,1.20419765 37.9026924,2.44161412" id="Fill-1"></path>
            </g>
        </g>
    </g>
</svg>