<?xml version="1.0" encoding="UTF-8"?>
<svg width="60px" height="60px" viewBox="0 0 60 60" version="1.1" xmlns="http://www.w3.org/2000/svg" xmlns:xlink="http://www.w3.org/1999/xlink">
    <!-- Generator: Sketch 49.2 (51160) - http://www.bohemiancoding.com/sketch -->
    <title>icone blanc</title>
    <desc>Created with Sketch.</desc>
    <defs></defs>
    <g id="icone-blanc" stroke="none" stroke-width="1" fill="none" fill-rule="evenodd">
        <g id="spelunking" transform="translate(-16.000000, -29.000000)" fill="#FFFFFF">
            <g id="gymnastique-artistique" transform="translate(25.000000, 41.000000)">
                <path d="M20.1484819,20.5765202 L21.3575087,19.9538415 L21.4175787,20.3205268 C21.4175787,20.3205268 21.3495232,20.3540028 21.3149592,20.3709497 C20.8966745,20.5762815 20.524515,20.7054717 20.6216519,21.0447674 C20.8497747,21.8404953 21.2942803,23.3924481 21.4204987,23.8328284 C21.5575035,24.3111005 21.8245406,24.7101877 22.1656521,25.0129045 C22.256055,25.9174146 22.5336401,28.6289759 22.8093183,30.667734 C22.9244523,31.519315 23.5074526,31.9358861 23.9585135,32.1333412 L20.88708,32.1333412 L20.1484819,20.5765202 Z M24.5077245,32.1333412 L24.4912767,25.5825346 C25.7109112,25.2321995 26.6526029,23.904793 26.2533881,22.5116874 C26.2273458,22.4207471 26.1965361,22.3326113 26.1634023,22.2459674 C26.4417622,22.0073982 26.6002801,21.6388035 26.5542741,21.2469963 C26.4809149,20.622229 25.9156734,20.1752251 25.2917326,20.2486218 C24.9596197,20.2877071 24.6789357,20.4670218 24.4990834,20.7196736 C24.4851982,20.7140645 24.4710746,20.7084553 24.4571298,20.7027864 C24.4116006,19.7510756 24.3044521,18.8820107 24.0698336,18.4784481 C23.5840895,17.6430382 22.2224444,14.6395609 22.2224444,14.6395609 L23.3447632,10.0448068 C23.3447632,10.0448068 24.6956814,9.22926774 25.2653924,7.49985003 L28.4101851,5.56939692 C28.4101851,5.56939692 29.7894698,7.81306905 31.1735218,10.2271051 C32.0972164,11.8382527 33.4968223,11.9581936 34.2503187,11.6559543 C34.2503187,11.6559543 32.7991647,8.72676872 30.7047021,4.28877331 C29.536735,1.8142297 28.8725688,1.65317462 27.0668948,2.55720741 C25.3804073,3.40150839 19.7791232,6.20591954 19.7791232,6.20591954 L13.0252471,8.75189069 C13.0252471,8.75189069 14.2571578,6.38260872 15.7732088,3.58106184 C16.6911824,1.88470249 16.0433447,0.265379869 15.3294778,1.79016393e-05 C15.3294778,1.79016393e-05 11.997324,5.16995167 9.82634377,9.00609397 C8.47554471,11.3929792 10.5223327,12.6902513 13.2263742,12.0896513 C16.5443448,11.3527005 17.3086276,11.2305517 17.3086276,11.2305517 C17.126034,12.2844212 16.8560768,13.0457779 16.3388674,15.4760448 C16.25645,15.8634959 16.4536439,17.454355 16.7200255,18.339233 C17.0229973,19.3459615 17.4152398,20.5172658 17.4152398,20.5172658 C17.4152398,20.5172658 18.5929802,28.4778861 19.0540528,30.4526756 C19.2492205,31.2887418 19.5898552,31.8662487 20.1604601,32.1333412 L6.93386863,32.1333412 L5.59999404,34.1856448 L11.2344119,34.1856448 L11.2344119,36.3580684 L13.6491879,36.3580684 L13.6491879,34.1856448 L27.5629486,34.1856448 L27.5629486,36.3580684 L29.9777247,36.3580684 L29.9777247,34.1856448 L34.2782679,34.1856448 L35.6121425,32.1333412 L24.5077245,32.1333412 Z" id="Fill-1"></path>
            </g>
        </g>
    </g>
</svg>