<?xml version="1.0" encoding="UTF-8"?>
<svg width="60px" height="60px" viewBox="0 0 60 60" version="1.1" xmlns="http://www.w3.org/2000/svg" xmlns:xlink="http://www.w3.org/1999/xlink">
    <!-- Generator: Sketch 49.2 (51160) - http://www.bohemiancoding.com/sketch -->
    <title>icone blanc</title>
    <desc>Created with Sketch.</desc>
    <defs></defs>
    <g id="icone-blanc" stroke="none" stroke-width="1" fill="none" fill-rule="evenodd">
        <g id="spelunking" transform="translate(-16.000000, -29.000000)">
            <g id="track_n_fiekd" transform="translate(25.000000, 41.000000)">
                <path d="M25.0231201,4.65561523 C28.7509847,9.24082031 30.614917,11.8567627 30.614917,12.5034424 C30.614917,13.4734619 30.764624,15.5213379 30.2420166,16.0263428 C29.8936117,16.3630127 29.8936117,16.7448568 30.2420166,17.171875 L35.2795898,17.171875 C35.2795898,20.3467122 35.2795898,22.0233398 35.2795898,22.2017578 C35.2795898,22.4693848 33.8765137,22.8445068 33.8765137,22.2017578 C33.8765137,21.5590088 33.4656738,19.9378662 32.8854736,19.473877 C32.4986735,19.1645508 30.4050537,18.9428955 26.6046143,18.8089111 C22.2404378,18.4934326 20.0583496,18.201766 20.0583496,17.9339111 C20.0583496,17.5321289 14.4175049,18.8089111 14.4175049,18.8089111 C14.4175049,18.8089111 8.58422852,19.7806396 7.42382812,19.7806396 C6.26342773,19.7806396 5.98400879,20.5303711 5.73039551,20.5303711 C5.47678223,20.5303711 3.38925781,17.6855957 3.38925781,17.171875 C3.38925781,16.6581543 4.0026123,16.1444336 4.37192383,16.6581543 C4.74123535,17.171875 4.90615234,17.5895508 5.73039551,17.5895508 C6.27989095,17.5895508 8.30344238,17.2790853 11.8010498,16.6581543 C14.1126221,16.0469076 15.5832601,15.6819255 16.2129639,15.563208 C17.1575195,15.3851318 21.0517822,13.3210205 21.9460937,13.3210205 C22.8404053,13.3210205 23.9857666,13.3076904 24.2498047,12.9055664 C24.5138428,12.5034424 24.4784668,11.3309082 23.3454102,11.1275391 C22.2123535,10.9241699 19.1062744,9.24064941 19.1062744,9.71916504 C19.1062744,10.1976807 17.1310303,14.124585 17.1310303,14.124585 C17.1310303,14.124585 16.2129639,15.1262207 15.2133789,14.124585 C14.2137939,13.1229492 10.5346924,10.9320312 10.5346924,10.590918 C10.5346924,10.3635091 10.8453288,9.80182292 11.4666016,8.90585937 L15.7349609,12.2792236 C16.2223633,11.681193 16.5332845,10.969458 16.6677246,10.1440186 C16.8021647,9.3185791 16.8693848,8.25103353 16.8693848,6.94138184 L18.2273437,5.31870117 C18.9971842,4.1012207 19.8577718,3.37837728 20.8091064,3.1501709 C22.2361084,2.80786133 25.9799805,1.38256836 26.84729,1.05888672 C27.7145996,0.735205078 29.1345947,0.489111328 30.614917,2.36472168 C32.0952393,4.24033203 33.8765137,6.06313477 33.8765137,6.36972656 C33.8765137,6.57412109 33.6264893,7.16007487 33.1264404,8.12758789 L28.7593018,3.1501709 L25.0231201,4.65561523 Z" id="Path-30" fill="#FFFFFF" fill-rule="evenodd"></path>
                <polygon id="Rectangle-2" fill="#FFFFFF" fill-rule="evenodd" points="18.2587891 22.2359372 31.7724121 21 31.8312012 25.2748535 18.2 24.0389163"></polygon>
                <path d="M16.9672643,6.99765567 C17.3579244,6.99810285 17.6856838,7.04242979 17.7378366,6.72470681 C17.8604649,5.97919814 18.0993239,4.52596768 18.1670868,4.11372156 C18.3785643,2.82583673 17.5417133,1.64002124 16.4953296,1.43493229 C15.4479224,1.22978744 14.2568005,1.94041591 14.0420475,3.24507007 C13.9680406,3.69717131 13.9902529,4.14262071 14.1204047,4.55168065 C14.3162722,5.16812136 16.1307715,6.9968172 16.1307715,6.9968172 C16.1307715,6.9968172 16.526345,6.99720849 16.9672643,6.99765567 Z" id="Path" fill="#FFFFFF" fill-rule="evenodd" transform="translate(16.100000, 4.200000) scale(-1, 1) translate(-16.100000, -4.200000) "></path>
                <path d="M30.1,24.5 L30.1,32.9" id="Line-2" stroke="#FFFFFF" stroke-width="1.4" stroke-linecap="square"></path>
                <path d="M20.3,23.1 L20.3,28.7" id="Line-2" stroke="#FFFFFF" stroke-width="1.4" stroke-linecap="square"></path>
            </g>
        </g>
    </g>
</svg>