<?xml version="1.0" encoding="UTF-8"?>
<svg width="60px" height="60px" viewBox="0 0 60 60" version="1.1" xmlns="http://www.w3.org/2000/svg" xmlns:xlink="http://www.w3.org/1999/xlink">
    <!-- Generator: Sketch 49.2 (51160) - http://www.bohemiancoding.com/sketch -->
    <title>icone blanc</title>
    <desc>Created with Sketch.</desc>
    <defs></defs>
    <g id="icone-blanc" stroke="none" stroke-width="1" fill="none" fill-rule="evenodd">
        <g id="spelunking" transform="translate(-16.000000, -29.000000)" fill="#FFFFFF">
            <g id="boxe" transform="translate(25.000000, 41.000000)">
                <path d="M30.9176544,6.34769032 L30.8838371,6.92261256 C30.8373148,7.71321562 30.1474528,8.32225127 29.3507826,8.27608693 L28.6184465,8.23369236 C28.0242446,8.88258879 27.4097399,9.54433956 27.2272631,9.70749066 C26.6686225,10.2070791 26.5091888,10.2556537 25.6391543,10.0752604 C24.74863,9.89054126 22.9721901,9.32729915 22.9721901,9.32729915 L23.3659788,15.5681379 L24.8708832,17.3650248 L27.0231133,22.573253 L25.2076869,23.3651538 L25.2994858,23.6787871 L26.5251322,23.3524849 L26.8956909,24.6937229 L26.7812225,36.2333881 C25.403865,36.3578526 24.8191919,35.2801284 24.6423201,33.9638574 C24.4654484,32.6475246 23.5531888,25.731092 23.5531888,25.731092 L22.0865859,22.423327 L20.9960222,25.5591036 L18.1286449,25.4602241 L17.9705814,25.7125521 L19.4991517,25.9192102 L19.0819462,27.1086065 L12.0935199,36.3578526 C10.8479443,35.6324482 11.0794345,34.2298431 11.7310574,33.0314859 C12.3826802,31.8331905 16.1978159,25.4002784 16.1978159,25.4002784 L16.8445811,21.0533521 C16.8445811,21.0533521 16.3715737,19.4908713 16.3715737,18.3939273 C16.3715737,17.2969834 16.8059682,16.1037555 16.8059682,16.1037555 C16.8059682,16.1037555 14.9732283,9.56108727 14.9632014,9.52351307 C15.5047154,10.0904014 16.4398936,10.885145 17.9612396,12.2287932 C18.2108529,12.4491708 18.4566673,12.5660958 18.6971879,12.5660958 C18.9091849,12.5660958 19.114082,12.4785874 19.3027245,12.3030764 C20.0150691,11.6404604 21.0392437,10.1818649 21.0772337,10.1297677 L20.7266042,10.1306329 C20.7174492,10.1431783 19.8039441,11.3289902 19.1110304,11.9735606 C18.9245054,12.1471559 18.6220174,12.3281671 18.1511276,11.8976706 C15.6974682,9.65440475 14.7348874,8.68779626 14.6002407,7.97679117 C14.4696421,7.28760136 14.7239264,6.43266486 15.7966161,5.63458404 C16.8692435,4.83656503 18.3303036,4.66476197 18.3309887,4.66420577 L19.2114861,5.80379151 L19.5551404,5.80379151 L19.4287144,5.59447606 C19.4285899,5.59429066 19.2289241,5.29202852 18.8378134,4.61618744 C18.5159567,4.05999049 18.0854857,3.1481365 18.0623803,2.81837351 C18.0287498,2.34053854 18.1328799,1.85769779 18.3524126,1.39914431 C18.9856632,0.0742831919 20.5928916,-0.306711715 21.7627985,0.243428862 C22.8267069,0.743882513 23.4490587,2.0562601 23.0821122,3.27321902 C22.3818496,3.31932156 21.3004409,3.51701868 20.8331009,4.28246927 C20.3207957,5.12164686 20.6392271,6.08238438 21.0307115,6.62622139 L21.4068753,6.62622139 L21.2587764,6.46461528 C20.9167413,5.98949949 20.6741655,5.17800815 21.1159088,4.45445772 C21.4685936,3.8766927 22.3901949,3.69568149 22.9911851,3.639691 L23.7844299,3.639691 C24.5824702,3.639691 25.2354009,4.28759864 25.2354009,5.07943769 L25.2354009,5.65541053 C25.2354009,6.06446248 25.0608958,6.43476604 24.7824474,6.6975382 L26.2567729,7.87408014 L26.7765516,7.34797963 C26.6838808,7.14373175 26.6376699,6.9155056 26.6516826,6.67751511 L26.6855,6.10259287 C26.7320223,5.31205161 27.4218843,4.70301596 28.2185544,4.74911851 L29.5536869,4.82642988 C30.350357,4.87259423 30.9641767,5.55714907 30.9176544,6.34769032" id="Fill-1"></path>
            </g>
        </g>
    </g>
</svg>