<?xml version="1.0" encoding="UTF-8"?>
<svg width="60px" height="60px" viewBox="0 0 60 60" version="1.1" xmlns="http://www.w3.org/2000/svg" xmlns:xlink="http://www.w3.org/1999/xlink">
    <!-- Generator: Sketch 49.2 (51160) - http://www.bohemiancoding.com/sketch -->
    <title>icone blanc</title>
    <desc>Created with Sketch.</desc>
    <defs></defs>
    <g id="icone-blanc" stroke="none" stroke-width="1" fill="none" fill-rule="evenodd">
        <g id="spelunking" transform="translate(-16.000000, -29.000000)" fill="#FFFFFF">
            <g id="tennis-de-table" transform="translate(25.000000, 41.000000)">
                <path d="M39.663399,33.9103257 C38.3518716,35.0256095 36.8819758,33.8091829 36.1487425,32.902999 C35.4155092,31.9967521 30.9455295,26.3610859 30.9455295,26.3610859 L22.7798296,21.1923927 L15.57787,25.0584071 C15.57787,25.0584071 12.7489363,33.5906817 12.3784539,34.7324027 C12.0079092,35.8741868 10.892846,36.6317798 10.0475078,36.2394492 C10.0475078,36.2394492 11.7242801,25.7900045 11.8820251,24.8069067 C12.0865947,23.5319271 12.1319229,23.3794873 13.2179936,22.1086089 C13.9590206,21.2413552 17.9885615,16.8589636 17.9885615,16.8589636 L17.340311,15.0578901 L15.0937864,13.5113455 C15.0937864,13.5113455 15.2050807,14.6097196 15.2928692,15.4762792 C15.4291658,16.8216739 15.3620151,16.9008593 14.4888066,17.4444939 C12.9288777,18.4157297 9.8946885,20.3233093 8.98344662,21.0288481 C8.39118616,21.4873032 7.76506977,21.4421896 7.29969109,21.2930939 L6.57599731,21.820639 L6.53734045,21.7960316 C6.88780851,22.7936415 6.28550973,24.0706402 5.07816879,24.7761159 C3.75616662,25.5484733 2.21001703,25.3430329 1.62473975,24.317156 C1.03946246,23.2913422 1.6367109,21.8336368 2.95871307,21.0612163 C4.12926765,20.3773194 5.47502508,20.460606 6.17440244,21.2007214 L7.38822776,20.2079068 L7.38829011,20.2079068 L12.4725397,15.6976198 C12.4725397,15.6976198 11.9562213,13.1909443 11.6922324,12.0268242 C11.3042297,10.3161671 11.4982622,9.4681577 12.7206918,8.77334522 C13.5327352,8.31179843 18.9973808,5.32319617 18.9973808,5.32319617 C19.7850454,4.9591957 20.980727,4.91944526 22.226413,5.8463246 C23.2018752,6.57236957 26.128324,9.25647083 27.3518758,10.3865191 C27.6755958,10.6855938 27.7624491,11.1661956 27.5644262,11.5619964 L24.9823975,16.7046941 L25.3205827,16.8976414 L26.3471716,15.4451729 L26.9418637,16.3835357 L33.3480532,24.2677519 L39.663399,33.9103257 Z M7.48100422,14.8330792 C7.90392271,14.8084718 8.22689451,14.4414427 8.20239105,14.013463 C8.17801229,13.585357 7.81526133,13.2585201 7.39234285,13.2833799 C6.96936201,13.3080504 6.6462655,13.6750794 6.67089366,14.1031223 C6.69533477,14.531039 7.05808573,14.8580021 7.48100422,14.8330792 Z M11.6248323,5.09239122 C12.2138505,5.65407128 15.1573208,6.61893438 15.1573208,6.61893438 C15.1573208,6.61893438 16.0149419,6.23001101 16.5449773,5.95100076 C17.014284,5.70391707 17.2348151,5.28167904 17.1152906,4.89502713 C16.8351531,3.9880861 16.3874818,2.54041287 16.2321061,2.03848467 C15.7477731,0.472191078 14.0628953,-0.316508161 12.6890805,0.118727627 C11.3141434,0.554468183 10.291046,2.10076036 10.781801,3.68806491 C10.9517042,4.2381984 11.2340863,4.7198728 11.6248323,5.09239122 Z M24.5169565,12.5569563 C24.8088158,11.8352019 24.9939946,11.3393309 24.9939946,11.3393309 L23.0325332,10.2144565 L24.5169565,12.5569563 Z" id="Fill-1"></path>
            </g>
        </g>
    </g>
</svg>