<?xml version="1.0" encoding="UTF-8"?>
<svg width="60px" height="60px" viewBox="0 0 60 60" version="1.1" xmlns="http://www.w3.org/2000/svg" xmlns:xlink="http://www.w3.org/1999/xlink">
    <!-- Generator: Sketch 49.2 (51160) - http://www.bohemiancoding.com/sketch -->
    <title>icone blanc</title>
    <desc>Created with Sketch.</desc>
    <defs></defs>
    <g id="icone-blanc" stroke="none" stroke-width="1" fill="none" fill-rule="evenodd">
        <g id="spelunking" transform="translate(-16.000000, -29.000000)" fill="#FFFFFF">
            <g id="padel" transform="translate(25.000000, 41.000000)">
                <path d="M33.9583297,14.1007853 C33.4322767,14.1007853 33.0057985,14.5320233 33.0057985,15.0638094 C33.0057985,15.595719 33.4322767,16.0268953 33.9583297,16.0268953 C34.4843826,16.0268953 34.9108608,15.595719 34.9108608,15.0638094 C34.9108608,14.5320233 34.4843826,14.1007853 33.9583297,14.1007853 Z M25.7832985,12.3695296 L27.4722181,9.26737202 L26.8421282,9.53799273 L25.5241841,11.9125211 L21.964433,12.2458067 L21.964433,9.21261752 L21.6154018,9.59008985 L21.3649674,11.6141523 L19.557585,12.0545367 C19.6360712,12.0912457 19.7097283,12.1359269 19.7772118,12.1885802 L21.2278611,12.9002651 L25.7832985,12.3695296 Z M14.4650308,11.1514583 C14.6585567,10.976627 14.8343559,10.7768905 14.9860102,10.55126 C15.1347305,10.3302026 15.2519708,10.0965999 15.3410318,9.85564299 L15.6332155,11.0035099 L14.4650308,11.1514583 Z M31.4894996,24.0283445 C32.1574878,25.2487642 32.0348073,26.0454854 32.0348073,26.3352022 L32.0348073,36.3694277 C32.0348073,36.3694277 30.1875094,36.6033394 29.9812082,34.2539635 C29.7502119,31.6244498 29.2702482,27.1714752 29.2702482,27.1714752 L28.2669211,26.0978297 L29.9502783,25.3625374 L30.0343269,25.0328362 L26.7040439,26.1595058 L24.5486695,22.2762005 C24.5486695,22.2762005 21.9684062,28.0197374 21.7541585,28.5466413 C21.3980367,29.4225897 21.1652066,29.8922053 20.5500927,30.3731303 C20.0838824,30.7375011 12.3092285,35.6896314 12.3092285,35.6896314 C12.3092285,35.6896314 11.324545,34.5814399 12.8103419,32.9349116 C13.5209351,32.1472749 18.7309741,28.080919 18.7309741,28.080919 L19.0821446,25.5241435 L20.5485645,25.7841347 L20.9434404,25.6261747 L18.4271763,24.7915703 L19.9674368,19.0788715 L20.8722283,17.0710623 L20.6888494,14.3871031 L19.075054,14.3871031 L19.0763988,14.375114 C19.0452244,14.3843221 19.0138666,14.3896987 18.9822643,14.3871031 C18.5156872,14.3490345 18.1370709,13.9721184 17.9897566,13.5203011 C17.9373713,13.5232674 17.8844971,13.524009 17.8307671,13.5196831 C17.2394312,13.4714175 16.7895417,12.9799248 16.7726708,12.3940022 L15.6064422,11.592337 L12.9432916,11.9297632 C12.736318,11.9753713 12.5244542,12.0020688 12.3102065,12.0099174 L12.2408893,12.0187547 L12.2401558,12.0126983 C11.4956986,12.0256763 10.7274633,11.8085741 10.0499394,11.3429136 C8.38663168,10.1995581 7.89994409,7.99145623 8.96286929,6.41099171 C10.0257334,4.8304654 12.2356936,4.47604435 13.8989402,5.61933806 C14.8197467,6.25235199 15.3791746,7.21172992 15.5154251,8.21028883 L16.1604909,10.7439513 L17.1971318,11.4565014 C17.4182868,11.2745014 17.7056415,11.1742623 18.0123122,11.1982406 C18.6501651,10.2341041 20.2137758,7.90197032 20.7702085,7.35473433 C21.6034822,6.53508543 22.1089356,6.30698289 22.7096237,6.41068272 C23.6152709,6.56691226 28.4341627,7.39855029 28.8947493,7.47938424 C29.5538131,7.59501141 30.697425,8.11635334 30.2821329,9.41939919 C29.8668409,10.7223832 27.3860912,14.4489028 27.3860912,14.4489028 L25.5151374,14.3879065 L26.0040867,14.7907785 L27.6030895,14.9352661 L27.1192137,18.037918 C27.1192137,18.037918 30.0284588,21.718335 31.1242088,23.4284552 C31.2855823,23.6804124 31.4120526,23.8866997 31.4894996,24.0283445 Z M26.0513984,6.20637304 C26.0513984,6.20637304 26.5221321,6.28974078 27.0470236,6.38312007 C27.5119502,6.46580801 27.8935617,6.58347457 28.0162422,6.24431803 C28.3039637,5.4488328 28.8651031,3.89753772 29.0243371,3.45733874 C29.5215384,2.0829143 28.7510414,0.600216842 27.5445917,0.154146893 C26.3371028,-0.292355654 24.7833945,0.240357419 24.2797749,1.63288917 C24.1053205,2.11535912 24.0468837,2.61099239 24.1238417,3.08907457 C24.2399206,3.80965861 26.0513984,6.20637304 26.0513984,6.20637304 Z M13.6282118,9.58601107 C13.5237469,9.74798798 13.3091936,9.79365793 13.1490427,9.68804231 C12.9888918,9.58242669 12.9437195,9.36550988 13.0481843,9.20359477 C13.1526492,9.04161786 13.3672025,8.99594791 13.5273534,9.10156353 C13.6875043,9.20717915 13.7326766,9.42409596 13.6282118,9.58601107 Z M14.3273744,8.50223042 C14.2229095,8.66414553 14.0083562,8.70981548 13.8481442,8.60419986 C13.6879933,8.49858424 13.6427598,8.28172924 13.7472247,8.11975233 C13.8516895,7.95783722 14.0662428,7.91210547 14.2263937,8.01772109 C14.3866058,8.12333671 14.4317781,8.34025351 14.3273744,8.50223042 Z M15.3410318,9.85564299 L15.6332155,11.0035099 L14.4650308,11.1514583 C14.6585567,10.976627 14.8343559,10.7768905 14.9860102,10.55126 C15.1347305,10.3302026 15.2519708,10.0965999 15.3410318,9.85564299 Z M12.9291714,10.6698535 C12.8247066,10.8318304 12.6101533,10.8774386 12.4500024,10.771823 C12.2897903,10.6662691 12.2445569,10.4493523 12.3490217,10.2873754 C12.4534866,10.1254603 12.6680399,10.0797904 12.8282519,10.185406 C12.9884028,10.2910216 13.0336363,10.5078766 12.9291714,10.6698535 Z M27.4722181,9.26737202 L26.8421282,9.53799273 L25.5241841,11.9125211 L21.964433,12.2458067 L21.964433,9.21261752 L21.6154018,9.59008985 L21.3649674,11.6141523 L19.557585,12.0545367 C19.6360712,12.0912457 19.7097283,12.1359269 19.7772118,12.1885802 L21.2278611,12.9002651 L25.7832985,12.3695296 L27.4722181,9.26737202 Z M12.8335699,7.51732924 C12.9380347,7.35541413 13.152588,7.30974418 13.312739,7.4153598 C13.472951,7.52097542 13.5180622,7.73783042 13.4135973,7.89980733 C13.3091325,8.06172244 13.0946403,8.10745419 12.9344894,8.00183857 C12.7742774,7.89622295 12.7291051,7.67930615 12.8335699,7.51732924 Z M11.0061992,6.31254486 C11.110664,6.15056795 11.3251562,6.104898 11.4854294,6.21051362 C11.6455803,6.31612924 11.6907526,6.53304604 11.5862878,6.69496115 C11.4818229,6.85693806 11.2672696,6.90260801 11.1071187,6.79699239 C10.9469067,6.69137677 10.9017344,6.47445997 11.0061992,6.31254486 Z M10.1880848,8.86264604 C10.08362,9.02456115 9.86906667,9.0702311 9.70891577,8.96461548 C9.54870374,8.85899986 9.50359253,8.64208306 9.60805738,8.48016795 C9.71252222,8.31825284 9.9270144,8.27252109 10.0872264,8.37813671 C10.2473773,8.48375233 10.2925497,8.70066913 10.1880848,8.86264604 Z M11.9199151,6.91496795 C12.02438,6.75299104 12.2388721,6.70732109 12.3990842,6.81293671 C12.5592351,6.91855233 12.6044074,7.13546913 12.4999426,7.29738424 C12.3954777,7.45936115 12.1809244,7.5049693 12.0207735,7.39935368 C11.8605615,7.29379986 11.8154503,7.07688306 11.9199151,6.91496795 Z M11.321672,8.48319613 C11.1615211,8.37764231 11.1162877,8.1607255 11.2207525,7.99874859 C11.3252174,7.83683348 11.5397707,7.79110173 11.6999216,7.89677915 C11.8601336,8.00239477 11.9053671,8.21924978 11.8009022,8.38122669 C11.6964374,8.5431418 11.4818841,8.58881175 11.321672,8.48319613 Z M12.0154555,10.0674304 C11.9109907,10.2293455 11.6964985,10.2750773 11.5362865,10.1694617 C11.3760744,10.063846 11.3309021,9.84692924 11.4353669,9.68495233 C11.5398318,9.52303722 11.7543851,9.47736727 11.914536,9.58298289 C12.074748,9.68859851 12.1199204,9.90551531 12.0154555,10.0674304 Z M10.4080172,7.88083484 C10.2478052,7.77521922 10.2026329,7.55830241 10.3070977,7.3963255 C10.4115626,7.23441039 10.6261159,7.18874044 10.7862668,7.29435606 C10.9464788,7.39997168 10.99159,7.61688849 10.8871252,7.7788036 C10.7826603,7.94071871 10.5682293,7.98645046 10.4080172,7.88083484 Z M11.1017396,9.46500733 C10.9972748,9.62698424 10.7827826,9.67265419 10.6225706,9.56703857 C10.4624197,9.46142295 10.4172473,9.24450615 10.5217122,9.08259104 C10.626177,8.92061413 10.8407303,8.87494418 11.0008812,8.9805598 C11.1610932,9.08617542 11.2062045,9.30309222 11.1017396,9.46500733 Z M12.2353879,9.08561922 C12.0751759,8.9800036 12.0300647,8.76308679 12.1345295,8.60117168 C12.2389333,8.43919477 12.4534254,8.39352482 12.6136986,8.49914044 C12.7738495,8.60475606 12.8190218,8.82167287 12.714557,8.98358798 C12.6100921,9.14556489 12.3955388,9.19123484 12.2353879,9.08561922 Z M15.6332155,11.0035099 L14.4650308,11.1514583 C14.6585567,10.976627 14.8343559,10.7768905 14.9860102,10.55126 C15.1347305,10.3302026 15.2519708,10.0965999 15.3410318,9.85564299 L15.6332155,11.0035099 Z M21.2278611,12.9002651 L19.7772118,12.1885802 C19.7097283,12.1359269 19.6360712,12.0912457 19.557585,12.0545367 L21.3649674,11.6141523 L21.6154018,9.59008985 L21.964433,9.21261752 L21.964433,12.2458067 L25.5241841,11.9125211 L26.8421282,9.53799273 L27.4722181,9.26737202 L25.7832985,12.3695296 L21.2278611,12.9002651 Z" id="Fill-1"></path>
            </g>
        </g>
    </g>
</svg>