<?xml version="1.0" encoding="UTF-8"?>
<svg width="60px" height="60px" viewBox="0 0 60 60" version="1.1" xmlns="http://www.w3.org/2000/svg" xmlns:xlink="http://www.w3.org/1999/xlink">
    <!-- Generator: Sketch 49.2 (51160) - http://www.bohemiancoding.com/sketch -->
    <title>icone blanc</title>
    <desc>Created with Sketch.</desc>
    <defs></defs>
    <g id="icone-blanc" stroke="none" stroke-width="1" fill="none" fill-rule="evenodd">
        <g id="spelunking" transform="translate(-16.000000, -29.000000)" fill="#FFFFFF">
            <g id="randonnee" transform="translate(25.000000, 41.000000)">
                <path d="M30.0892119,27.127052 L25.9331972,10.3513115 C26.0953418,10.2330618 26.179974,10.0243602 26.1300738,9.81794939 L26.0515708,9.49223631 C26.3489287,9.2796963 26.5857378,9.02573791 26.6930912,8.71005439 C26.8458253,8.26089104 26.76757,7.90638941 26.76757,7.90638941 L25.7293867,8.15434244 L25.697874,8.02352477 C25.6318151,7.75049784 25.3543306,7.58117161 25.0813037,7.64723051 L24.9577915,7.67713346 C24.6847646,7.74325427 24.5154383,8.02067687 24.5814972,8.2937038 L24.612205,8.42111637 L21.9176583,9.06455603 L22.2271507,10.8034466 C22.2271507,10.8034466 24.0827433,10.3773141 25.001191,10.0364328 L25.013697,10.0881903 C25.0653926,10.3017209 25.2464819,10.4512357 25.4535737,10.4748856 L29.608474,27.2461685 L30.0892119,27.127052 Z M22.2678262,20.9578816 L23.5127299,16.9700787 C23.3679823,16.8426661 23.3006852,16.6383602 23.358448,16.4421028 L23.4160251,16.2462787 C22.700645,15.9202561 21.9924466,15.5959669 21.3277096,15.2906225 L21.1115788,17.7656953 L22.2678262,20.9578816 Z M26.5428955,16.0802338 C26.5428955,16.0802338 25.7792868,17.3184511 24.5720249,16.7715924 C24.5380977,16.7562385 24.5039848,16.7406989 24.4699958,16.7252831 L24.4581708,16.7655871 C24.4009651,16.9599872 24.2364061,17.0945195 24.0480732,17.1249797 L22.5812809,21.8234574 C23.0071658,22.9992067 23.3878557,24.0503295 23.4984904,24.3557977 C23.8968249,25.4554585 23.9485205,25.7709563 23.8318185,27.005521 C23.7448338,27.9253926 22.9329346,36.4 22.9329346,36.4 C21.5487314,36.2837933 21.3615749,34.8800263 21.351731,34.1788238 C21.3425063,33.52294 21.155907,27.2713662 21.1318855,26.4665249 L18.5238283,34.8208395 C18.4866198,34.9400798 18.3766042,35.0164778 18.2579211,35.0164778 C18.2304327,35.0164778 18.2025109,35.0123917 18.1748367,35.0037861 C18.0279841,34.9579101 17.9460761,34.8016471 17.991952,34.6547945 L20.7568914,25.7977018 L19.3692212,23.624878 C19.3692212,23.624878 19.1389128,25.1028761 19.0065473,25.9522313 C18.8439075,26.9958629 18.7723385,27.3912876 18.1113162,27.9227924 C16.349209,29.3394988 15.4100211,30.0404537 11.4985544,33.0851064 C10.7246685,31.9294162 11.6045458,30.8485762 12.4426951,29.8863575 C13.519387,28.6502451 16.1831022,25.8208565 16.1831022,25.8208565 C16.1831022,25.8208565 15.7552981,22.566264 15.7023643,20.236558 C15.3752891,19.3929605 15.2525818,18.5324614 15.2775938,17.9521089 C15.2986435,17.4646846 15.3806754,16.3350589 15.6988353,15.8753088 L15.3679837,15.7474628 C15.2081298,15.9580836 14.9483518,16.6287641 14.8765971,17.6693 C14.4544888,17.5103129 14.0045206,17.3417915 13.2740343,17.0779274 C12.7635172,16.8934949 12.7245753,16.6183011 12.6947343,16.1620799 C12.6649551,15.7058587 12.1295499,7.57683785 12.1187774,7.35866395 C12.1018758,7.01635876 12.1159915,6.85749547 12.2650109,6.66390018 C12.8028306,5.96492647 13.7919187,4.59582952 14.2974209,4.60907845 C14.8160483,4.62257502 16.1478749,5.58739399 16.3944659,5.76922622 L16.2183913,8.42093064 L16.4901182,8.4731215 C16.5658971,7.77099034 16.6356706,7.14909566 16.6758508,6.84888986 C16.768098,6.15951233 17.2679044,5.83448027 18.033618,6.00176344 C18.5658038,6.11803205 19.7977682,6.3655517 20.4628767,6.4760626 C21.1280471,6.58657351 21.3447351,7.3914148 21.4259622,8.05119893 C21.4836012,8.51949274 21.7391073,10.5785863 21.7391073,10.5785863 L21.5542415,12.6956904 L19.929205,11.7378673 L19.5687599,9.97285038 L19.2796362,9.91614003 L19.5591637,12.0198094 C19.5591637,12.0198094 23.4996667,14.3454293 23.9422675,14.6066313 C24.0689372,14.4550735 24.2782578,14.3837521 24.4789728,14.4427532 L24.5987085,14.4779805 C24.8682065,14.5572883 25.0238504,14.8426355 24.9445426,15.1121335 L24.9256598,15.1763351 C25.5313338,15.5162877 26.5428955,16.0802338 26.5428955,16.0802338 Z M16.4833699,2.94670971 C16.387408,2.51624344 16.4150822,2.06237486 16.550667,1.61482119 C16.9405816,0.322246072 18.3405721,-0.243866912 19.4731695,0.09763344 C20.6052717,0.43894806 21.3901777,1.7458865 21.0057731,3.02081702 C20.8825086,3.42930493 20.4758161,4.77660926 20.2525655,5.51471063 C20.1569751,5.83274677 19.9171324,5.89403853 19.40061,5.79566216 C18.801189,5.6814366 18.3287471,5.58881794 18.3287471,5.58881794 C18.3287471,5.58881794 16.6276841,3.59491651 16.4833699,2.94670971 Z" id="Page-1"></path>
            </g>
        </g>
    </g>
</svg>