<?xml version="1.0" encoding="UTF-8"?>
<svg width="60px" height="60px" viewBox="0 0 60 60" version="1.1" xmlns="http://www.w3.org/2000/svg" xmlns:xlink="http://www.w3.org/1999/xlink">
    <!-- Generator: Sketch 49.2 (51160) - http://www.bohemiancoding.com/sketch -->
    <title>icone blanc</title>
    <desc>Created with Sketch.</desc>
    <defs></defs>
    <g id="icone-blanc" stroke="none" stroke-width="1" fill="none" fill-rule="evenodd">
        <g id="spelunking" transform="translate(-16.000000, -29.000000)" fill="#FFFFFF">
            <g id="camping" transform="translate(25.000000, 41.000000)">
                <g id="Page-1">
                    <path d="M20.6331551,4.47700535 C21.4117647,3.30909091 21.9957219,2.14117647 22.7743316,1.16791444 C22.968984,0.778609626 23.1636364,0.583957219 23.3563422,0.389304813 C23.3563422,0.194652406 23.5529412,0 23.7475936,0.194652406 C23.942246,0.389304813 24.5262032,0.389304813 24.1368984,0.973262032 C23.5529412,1.94652406 22.968984,2.9197861 22.3830802,3.89304813 C21.9957219,4.47700535 21.8010695,4.86631016 21.4117647,5.45026738 C21.4117647,5.64491979 21.2171123,5.64491979 21.4117647,5.83957219 C22.5796791,7.59144385 23.7475936,9.34331551 24.915508,11.0951872 C26.4727273,13.431016 28.0299465,15.7668449 29.3925134,18.1026738 C31.3390374,21.2171123 33.2855615,24.1368984 35.2320856,27.2513369 C37.1786096,30.171123 38.9285348,33.0909091 40.8750588,36.0106952 C40.8750588,36.2053476 41.0716578,36.4 41.2663102,36.4 L40.6823529,36.4 L26.8620321,36.4 C26.4727273,36.4 26.2761283,36.2053476 26.2761283,35.8160428 L26.2761283,26.6673797 C26.2761283,26.2780749 26.2761283,26.0834225 25.6941176,26.0834225 L15.1828877,26.0834225 C14.7935829,26.0834225 14.7935829,26.0834225 14.7935829,26.4727273 L14.7935829,35.8160428 C14.7935829,36.2053476 14.5989305,36.4 14.2096257,36.4 L0.583957219,36.4 L0,36.4 C0.778609626,35.2320856 1.36256684,34.2588235 1.94652406,33.0909091 C3.50374332,30.5604278 5.06096257,28.2245989 6.61818182,25.6941176 C9.1486631,21.6064171 11.6791444,17.713369 14.4042781,13.6256684 C16.1561497,10.9005348 17.713369,8.37005348 19.4652406,5.64491979 C19.659893,5.45026738 19.659893,5.25561497 19.4652406,5.06096257 C18.4919786,3.69839572 17.713369,2.14117647 16.740107,0.778609626 C16.740107,0.583957219 16.5454545,0.583957219 16.5454545,0.389304813 C16.740107,0.194652406 16.9347594,0 17.1294118,0 C17.3240642,0 17.1294118,0.194652406 17.3240642,0.194652406 C18.2973262,1.36256684 19.0759358,2.9197861 20.0491979,4.08770053 C20.4385027,4.28235294 20.6331551,4.28235294 20.6331551,4.47700535" id="Fill-6"></path>
                </g>
            </g>
        </g>
    </g>
</svg>