<?xml version="1.0" encoding="UTF-8"?>
<svg width="60px" height="60px" viewBox="0 0 60 60" version="1.1" xmlns="http://www.w3.org/2000/svg" xmlns:xlink="http://www.w3.org/1999/xlink">
    <!-- Generator: Sketch 49.2 (51160) - http://www.bohemiancoding.com/sketch -->
    <title>icone blanc</title>
    <desc>Created with Sketch.</desc>
    <defs></defs>
    <g id="icone-blanc" stroke="none" stroke-width="1" fill="none" fill-rule="evenodd">
        <g id="spelunking" transform="translate(-16.000000, -29.000000)" fill="#FFFFFF">
            <g id="patinage-sur-glace" transform="translate(25.000000, 41.000000)">
                <path d="M12.3669269,34.0926386 C11.9417592,34.1323715 11.6479452,33.7888261 11.5710282,33.6796914 C11.3641298,33.3860735 9.33834233,30.5053108 9.33834233,30.5053108 C8.98610535,30.0044024 9.15294413,29.661053 9.18045652,29.6117137 C9.18052187,29.6116483 9.18052187,29.611583 9.18058722,29.6115176 L9.19058578,29.5961604 C9.29390427,29.4375557 9.27096639,29.2194171 9.12203354,29.1025711 C8.95369171,28.9704986 8.71228847,29.0132376 8.59812187,29.1886372 L8.57250463,29.227978 C8.55283425,29.2586271 8.09806298,29.9912017 8.75025688,30.9187808 C8.75025688,30.9187808 10.7783969,33.8174494 10.9933987,34.1076692 C11.1300457,34.2920871 11.2913951,34.4439607 11.4682978,34.5591729 C11.7651179,34.7524131 12.1058533,34.8420081 12.4468501,34.8071112 C12.6868809,34.7825395 12.8475115,34.5269553 12.7306655,34.2835916 C12.6655768,34.1478595 12.5167746,34.0786537 12.3669269,34.0926386 M27.5844141,35.2292074 C27.3720264,35.5996771 26.9219603,35.6419586 26.7884501,35.6419586 C26.429286,35.6419586 22.9075043,35.638495 22.9075043,35.638495 C22.2951739,35.6379069 22.1106253,35.3037065 22.086119,35.2527988 C22.086119,35.2527334 22.0860536,35.2526681 22.0860536,35.2526027 L22.0792572,35.2356117 C22.0090712,35.05982 21.8175955,34.9528419 21.636249,35.0073438 C21.4313111,35.0688383 21.3272738,35.2907672 21.4048443,35.4851837 L21.4222274,35.5287069 C21.435951,35.5624929 21.7728307,36.3561697 22.9067201,36.3574113 C22.9067201,36.3574113 26.4444472,36.3692397 26.8055718,36.3606789 C27.0350159,36.3551894 27.2520436,36.3108167 27.4481592,36.2325273 C27.7771316,36.1011736 28.0466353,35.8742781 28.2145197,35.5754322 C28.3326727,35.3650049 28.2163495,35.0865482 27.9501132,35.0418487 C27.8016378,35.0169503 27.6593054,35.0986379 27.5844141,35.2292074 M33.1579273,14.2408498 C32.9657326,14.1666121 29.0006159,12.6872821 29.0006159,12.6872821 C29.0006159,12.6872821 26.9610396,7.55801889 26.8084472,7.18964043 C26.6337664,6.768067 26.1518748,6.51137185 25.7239624,6.45497472 C25.3199028,6.4017144 22.6406145,6.0408512 22.2409987,5.98798298 C21.8413176,5.93511476 21.0196055,5.78650865 20.2675567,6.20220057 C20.2675567,6.20220057 15.7595768,8.69759375 15.5554885,8.81365551 C15.3210124,8.94690434 15.1526705,9.1294925 15.0453657,9.36050506 C14.9542676,9.55662068 12.4199912,15.0132878 12.4199912,15.0132878 C12.5835624,15.270179 13.4638935,15.2759298 13.9336953,14.6179851 C14.4035624,13.9600404 16.6129836,10.7983377 16.6129836,10.7983377 L19.1783014,9.66340273 L19.5212587,15.4945912 C19.5212587,15.4945912 18.5375438,16.623318 18.123747,18.3366666 C17.6500896,20.2980189 16.5823344,24.7739119 16.5823344,24.7739119 C16.5823344,24.7739119 12.5028551,28.6199607 12.008547,29.0893051 C10.6258698,30.4020577 11.168929,31.8096332 11.4494116,32.0901158 L18.6366799,26.5545058 L21.8901994,21.226709 L23.2226878,26.5276469 C23.2226878,26.5276469 23.5299639,31.9015155 23.6313219,33.1228433 C23.7326145,34.3439097 24.9764881,35.057206 25.5963337,34.9845367 C25.5980982,34.9843406 25.7929721,23.2049869 25.7929721,22.6170322 C25.7929721,22.0290774 25.7889858,19.5134257 25.7889858,18.3205252 C25.7889858,17.1373618 25.3487876,15.6464648 25.3487876,15.6464648 L26.1542274,11.526207 C26.1542274,11.526207 27.0816106,13.691909 27.1238267,13.7911758 C27.2894892,14.1810544 27.3986892,14.2879672 27.9318806,14.4008268 C28.3461348,14.488592 33.6710562,15.6160117 33.8155452,15.6465955 C33.817375,15.6469876 33.8187474,15.645942 33.8190088,15.6441122 C33.8556048,15.404016 33.7890784,14.4844096 33.1579273,14.2408498 M21.5413606,2.90456969 C21.4526806,2.47280165 21.488035,2.01986018 21.6308903,1.57508747 C22.0424651,0.290174004 23.3852788,-0.25099009 24.5111955,0.109284955 C25.636328,0.46949465 26.3987675,1.78832481 25.9930088,3.05572445 C25.8629621,3.46180991 25.4507337,4.73679016 25.215212,5.47047562 C25.1152264,5.7835679 24.7480242,5.72900057 24.3178246,5.67096969 C23.8403768,5.60692661 23.20537,5.48629034 23.20537,5.48629034 C23.20537,5.48629034 21.6733678,3.54879088 21.5413606,2.90456969" id="Fill-1"></path>
            </g>
        </g>
    </g>
</svg>