<?xml version="1.0" encoding="UTF-8"?>
<svg width="60px" height="60px" viewBox="0 0 60 60" version="1.1" xmlns="http://www.w3.org/2000/svg" xmlns:xlink="http://www.w3.org/1999/xlink">
    <!-- Generator: Sketch 49.2 (51160) - http://www.bohemiancoding.com/sketch -->
    <title>icone blanc</title>
    <desc>Created with Sketch.</desc>
    <defs></defs>
    <g id="icone-blanc" stroke="none" stroke-width="1" fill="none" fill-rule="evenodd">
        <g id="spelunking" transform="translate(-16.000000, -29.000000)" fill="#FFFFFF">
            <g id="trottinette-ville" transform="translate(25.000000, 41.000000)">
                <path d="M32.123622,34.4786124 C32.123622,35.5181171 31.2886805,36.3608886 30.2587579,36.3608886 C29.2287739,36.3608886 28.3937711,35.5181171 28.3937711,34.4786124 C28.3937711,33.4391076 29.2287739,32.5963362 30.2587579,32.5963362 C31.2886805,32.5963362 32.123622,33.4391076 32.123622,34.4786124 Z M30.2587579,33.3391933 C29.6362165,33.3391933 29.1297806,33.850341 29.1297806,34.4786124 C29.1297806,35.1068838 29.6362165,35.6180314 30.2587579,35.6180314 C30.8811766,35.6180314 31.3876125,35.1068838 31.3876125,34.4786124 C31.3876125,33.850341 30.8811766,33.3391933 30.2587579,33.3391933 Z M16.5435272,34.475641 C16.5435272,35.5151457 15.7085858,36.3578552 14.6786018,36.3578552 C13.6486791,36.3578552 12.8137377,35.5151457 12.8137377,34.475641 C12.8137377,33.4360743 13.6486791,32.5933648 14.6786018,32.5933648 C15.7085858,32.5933648 16.5435272,33.4360743 16.5435272,34.475641 Z M14.6786018,33.3362219 C14.0561217,33.3362219 13.5497472,33.8473695 13.5497472,34.475641 C13.5497472,35.1039124 14.0561217,35.6149981 14.6786018,35.6149981 C15.3011432,35.6149981 15.8074564,35.1039124 15.8074564,34.475641 C15.8074564,33.8473695 15.3011432,33.3362219 14.6786018,33.3362219 Z M27.6315719,34.3824743 L27.6315719,34.8514648 L17.8591442,34.8514648 L17.4119571,34.8514648 C17.4217706,34.7565029 17.426984,34.660179 17.426984,34.5625552 C17.426984,33.0445886 16.2077229,31.8139838 14.7036874,31.8139838 C13.1997133,31.8139838 11.9804522,33.0445886 11.9804522,34.5625552 C11.9804522,34.660179 11.9856656,34.7565029 11.9954791,34.8514648 L11.2126716,34.8514648 C11.2049435,34.7560695 11.1999755,34.6599314 11.1999755,34.5625552 C11.1999755,32.6235124 12.7574329,31.0516267 14.6786018,31.0516267 C16.4520167,31.0516267 17.9144676,32.3913695 18.1290757,34.12266 L23.7563591,34.12266 L23.7563591,32.7741267 L23.7566045,32.7741267 C23.7529858,32.7194648 23.7506551,32.6632552 23.7506551,32.6041362 C23.7507164,31.4195886 23.7506551,24.4449648 23.7506551,24.4449648 L23.5193641,22.1650743 L22.7277858,24.4855743 C22.7277858,24.4855743 16.2593662,26.9086505 13.3197442,27.9274171 C13.0457033,26.5733743 14.4650977,25.8509457 14.4650977,25.8509457 L20.3037998,22.5515457 C20.3037998,22.5515457 20.3063759,21.5222552 20.3227521,20.310779 L22.096167,20.914041 L22.2035017,20.5762267 L19.9446885,19.6570648 L16.3767597,18.0174552 L18.5644867,13.4158267 L19.3576596,13.7754314 L22.6278725,6.45568857 C22.6794545,6.27622667 22.7258231,6.11001238 22.7644023,5.96391714 C23.0854251,4.74916 24.4264958,4.42199333 24.8506826,4.66831238 C25.2748081,4.91450762 27.4816713,6.28625524 27.4816713,6.28625524 C27.4816713,6.28625524 27.922909,8.50473619 27.7287865,9.41157905 C27.5883927,10.0672124 27.1423709,12.158541 27.1423709,12.158541 L30.6676111,15.6289219 L30.6676111,31.7705886 L30.3197853,31.7705886 L30.3197853,31.7783267 C28.8731586,31.7783267 27.6900233,32.9366267 27.6315719,34.3824743 Z M27.021052,5.32685524 C27.1747553,5.43933619 27.6843192,5.65148381 27.8667883,5.32314095 C28.2091554,4.70694095 28.9176259,3.59847429 29.1202738,3.26505524 C29.752506,2.2246219 29.3645063,0.883517143 28.4495238,0.317274286 C27.5336213,-0.24946381 26.1734144,-0.0737780952 25.5326568,0.980645714 C25.3103819,1.34576 25.1815802,1.74145524 25.1661854,2.1451981 C25.1430624,2.75409333 26.0484768,4.6192219 26.0484768,4.6192219 C26.0484768,4.6192219 26.8672874,5.21443619 27.021052,5.32685524 Z M29.9454631,15.8384076 C29.7954399,15.8475076 29.6649209,15.8383457 29.5741463,15.827141 C29.2222111,15.7792267 28.7561944,15.5330933 28.2439318,15.2129219 C27.9183703,15.009441 27.3480856,14.6522505 26.7279362,14.2637981 L26.5734356,15.0486886 L26.1176617,24.6880648 L25.3639879,33.03326 L25.2731521,34.12266 L26.9127973,34.12266 C27.0839808,32.5138171 28.3524319,31.232079 29.9454631,31.0565171 L29.9454631,15.8384076 Z M20.0346657,14.08056 L21.4141929,14.7022076 L21.8880603,13.6552743 L21.6832043,10.3568648 L20.0346657,14.08056 Z" id="Fill-1"></path>
            </g>
        </g>
    </g>
</svg>