<?xml version="1.0" encoding="UTF-8"?>
<svg width="60px" height="60px" viewBox="0 0 60 60" version="1.1" xmlns="http://www.w3.org/2000/svg" xmlns:xlink="http://www.w3.org/1999/xlink">
    <!-- Generator: Sketch 49.2 (51160) - http://www.bohemiancoding.com/sketch -->
    <title>icone blanc</title>
    <desc>Created with Sketch.</desc>
    <defs></defs>
    <g id="icone-blanc" stroke="none" stroke-width="1" fill="none" fill-rule="evenodd">
        <g id="spelunking" transform="translate(-16.000000, -29.000000)" fill="#FFFFFF">
            <g id="roller" transform="translate(25.000000, 41.000000)">
                <path d="M20.7146062,3.71346531 C21.1929879,4.42675178 22.0537935,5.43411698 22.0537935,5.43411698 C22.0537935,5.43411698 22.7157106,5.52732401 23.2114927,5.58656197 C23.6200811,5.63537251 23.986448,5.58413104 24.059248,5.28128815 C24.2315243,4.57126425 24.5445387,3.27724105 24.6395369,2.88432576 C24.6786877,2.72222102 24.6980072,2.56075599 24.7003742,2.40184984 L25.4279264,2.33276021 C25.3230765,1.50330081 24.648429,0.213051951 23.0800944,0.0283011599 C21.5117598,-0.156513603 20.0948466,0.588566889 19.8999883,1.56068359 C19.7402505,2.35738938 20.0331777,3.19004738 20.3582828,3.7171117 L20.7146062,3.71346531 Z M10.0971292,26.8863834 C10.106725,26.4420987 9.7543039,26.0743244 9.31014714,26.0649205 C8.86586243,26.0553247 8.49808808,26.4078098 8.48855627,26.8519665 C8.482351,27.1453416 8.63454011,27.4046836 8.86631023,27.5502196 C8.62852675,27.6855841 8.46539845,27.9382091 8.45912921,28.2316481 C8.45285996,28.5250871 8.60504907,28.7844291 8.83681919,28.9299651 C8.59903571,29.0653936 8.43597139,29.3180186 8.42970214,29.6114576 C8.42336893,29.9048326 8.57555803,30.1641746 8.80726418,30.3097107 C8.56954467,30.4451391 8.40648035,30.6977001 8.40021111,30.9911391 C8.3906793,31.4353599 8.74316436,31.8030702 9.18744907,31.812602 C9.63154186,31.8220699 9.99938018,31.4697128 10.0087201,31.025428 C10.0150533,30.732053 9.86292815,30.472775 9.631222,30.3273029 C9.86894151,30.1917465 10.0320698,29.9391855 10.0382111,29.6458105 C10.0444804,29.3523715 9.89235522,29.0930295 9.66064907,28.9475574 C9.89836858,28.812065 10.0614969,28.559504 10.0677021,28.266065 C10.0739714,27.9726259 9.92178228,27.7133479 9.69014011,27.5678759 C9.92779564,27.4323834 10.0909239,27.1797585 10.0971292,26.8863834 Z M26.1146645,34.7735405 C25.8210976,34.7735405 25.5650821,34.9312312 25.4246638,35.166008 C25.2841176,34.9312312 25.0281021,34.7735405 24.7345352,34.7735405 C24.4410962,34.7735405 24.1850807,34.9312312 24.0445985,35.166008 C23.9040522,34.9312312 23.6480368,34.7735405 23.3546617,34.7735405 C23.0611587,34.7735405 22.8050793,34.9312312 22.6645331,35.166008 C22.5240508,34.9312312 22.2679714,34.7735405 21.9745324,34.7735405 C21.5302477,34.7735405 21.170086,35.1337022 21.170086,35.5780509 C21.170086,36.0223356 21.5302477,36.3825613 21.9745324,36.3825613 C22.2679714,36.3825613 22.5240508,36.2248706 22.6645331,35.9900298 C22.8050793,36.2248706 23.0611587,36.3825613 23.3546617,36.3825613 C23.6480368,36.3825613 23.9040522,36.2248706 24.0445985,35.9900938 C24.1850807,36.2248706 24.4410962,36.3825613 24.7345352,36.3825613 C25.0281021,36.3825613 25.2841176,36.2248706 25.4246638,35.9900938 C25.5650821,36.2248706 25.8210976,36.3825613 26.1146645,36.3825613 C26.5589492,36.3825613 26.9191109,36.0223356 26.9191109,35.5780509 C26.9191109,35.1337022 26.5589492,34.7735405 26.1146645,34.7735405 Z M32.3885788,15.5661753 C31.8679756,16.056072 31.0032677,16.2030794 30.4236825,15.8896172 C30.249551,15.7954505 28.6377795,14.8999722 27.4638955,14.247459 C27.3172079,14.3029866 27.1522884,14.3335012 27.0254322,14.3082323 C26.718751,14.2470112 26.4056086,14.0121064 26.0508846,13.7821275 C25.6197781,13.5026344 25.4130849,13.3500614 25.3648501,13.0610365 C25.3358709,12.8874808 25.3517999,12.6468186 25.4112937,12.4571419 L24.3757169,11.0587806 L22.4266856,15.364536 L21.9706301,17.5659363 L24.6891791,22.9569107 C24.8917141,22.9915194 25.1767728,23.1352003 25.2903229,23.3091398 C25.4611918,23.5710407 25.5126252,23.9591581 25.5965563,24.37344 C25.6986554,24.8770266 25.7342877,25.1314428 25.5616276,25.3681388 C25.4473099,25.5248699 25.2365865,25.6995771 25.0436473,25.7829964 L24.3203812,33.8887454 C22.8494118,34.0293556 22.6164262,32.7398744 22.6040157,32.2955897 C22.5916051,31.851305 22.327977,24.7591265 22.327977,24.7591265 L20.5727805,22.662704 L19.5702132,21.4300298 L18.9201949,22.9485303 C19.0650273,23.0730196 19.2167046,23.4643996 19.1626484,23.7088361 C19.095286,24.0141739 18.853984,24.3225184 18.6168403,24.6724446 C18.328583,25.0977936 18.1717879,25.3012882 17.8819313,25.3436375 C17.6650666,25.3753036 17.3452712,25.3353212 17.1513724,25.2306632 L11.2955784,29.417047 C10.6188839,28.488943 11.0087285,27.5776636 11.4668311,27.1196249 C11.9249338,26.6615222 15.2878716,23.2649992 15.2878716,23.2649992 L16.984022,18.265149 C15.7309408,16.3852073 17.013577,14.9103996 17.013577,14.9103996 L18.7163166,9.64903227 L16.0721668,11.6748298 L14.8464016,18.0427187 C13.9486202,17.532607 13.8668002,16.6757676 13.8947559,15.8462442 C13.9116445,15.3426576 14.0127201,13.5278393 14.0895503,12.1791201 C13.974145,12.0568059 13.8739011,11.899691 13.8509992,11.7613838 C13.7997577,11.4528474 13.9397282,11.07842 14.0293528,10.6652896 C14.1382969,10.1632382 14.1769999,9.91432366 14.4302006,9.76699641 C14.6127123,9.66073912 14.9085823,9.58096619 15.1258308,9.5975349 C16.0914863,8.54641293 17.4869689,7.02676091 17.768829,6.71611346 C18.5499897,5.85517989 19.1503018,5.71949554 19.6493464,5.77080098 C20.2084607,5.8283117 22.8283651,6.15034615 23.6727299,6.23376548 C24.3098259,6.29671381 24.7443869,6.57153701 24.987416,7.06264914 C25.2304452,7.55388921 27.4960733,12.0978119 27.4960733,12.0978119 L32.3885788,15.5661753 Z" id="Fill-1"></path>
            </g>
        </g>
    </g>
</svg>