<?xml version="1.0" encoding="UTF-8"?>
<svg width="60px" height="60px" viewBox="0 0 60 60" version="1.1" xmlns="http://www.w3.org/2000/svg" xmlns:xlink="http://www.w3.org/1999/xlink">
    <!-- Generator: Sketch 49.2 (51160) - http://www.bohemiancoding.com/sketch -->
    <title>icone blanc</title>
    <desc>Created with Sketch.</desc>
    <defs></defs>
    <g id="icone-blanc" stroke="none" stroke-width="1" fill="none" fill-rule="evenodd">
        <g id="spelunking" transform="translate(-16.000000, -29.000000)" fill="#FFFFFF">
            <g id="skateboard" transform="translate(25.000000, 41.000000)">
                <path d="M19.5141533,3.89336674 C19.9468242,4.71049275 21.0409205,6.09693254 21.0409205,6.09693254 C21.0409205,6.09693254 21.6952312,6.21686832 22.1733226,6.26953079 C22.5966552,6.31622189 22.9470608,6.39867774 23.0380926,6.08937303 C23.2516647,5.36423167 23.6677554,3.95028542 23.7857219,3.54893254 C23.8580137,3.30315313 23.8855837,3.05661142 23.8756737,2.81642224 C24.0801617,2.70086971 24.2655921,2.54491509 24.387243,2.33413812 C24.2800123,1.51631334 23.5206308,0.204769886 21.9152828,0.0225793103 C20.3098713,-0.159611266 19.1183907,0.792442487 18.855777,1.73668263 C18.5972291,2.66624842 18.9107264,3.3477479 19.2167914,3.88237687 L19.5141533,3.89336674 Z M32.832043,9.89129903 C32.2249952,9.89129903 24.6900046,9.96409903 24.6900046,9.96409903 L22.9718992,12.5751161 L22.3440151,15.2316174 L25.0205903,14.8322338 C27.2169142,14.561616 26.4063313,16.9504851 26.4063313,16.9504851 L23.9200779,25.6228962 L24.719925,25.8292264 C24.318191,27.3870575 22.7327264,28.3647119 22.5366873,28.4803915 C22.0909303,28.7851224 15.3385079,33.3999818 14.0944284,34.1375741 C12.9301366,34.8276495 11.9879292,35.3861004 10.1653882,35.1185318 C9.98199066,35.0915971 9.78976309,35.0563406 9.58756204,35.0119999 L9.78341056,34.1183894 C10.4400716,34.2622107 10.9577394,34.2997542 11.407562,34.2564934 L13.454538,24.5431566 L16.4688137,15.7873367 L17.1867767,9.28393359 L13.7788982,8.44698769 L7.11871457,10.4202107 C6.71240672,9.56611299 7.40171981,8.83296744 8.38610794,8.41058769 C9.37043255,7.98827146 12.8748695,6.484691 12.8748695,6.484691 C13.0815809,6.39600968 13.3042371,6.35027146 13.5292437,6.35027146 L17.837657,6.35027146 L24.9448046,7.18728088 L29.2615397,8.35265261 L34.7895118,8.39921666 C34.8647257,9.49197896 33.4391544,9.89129903 32.832043,9.89129903 Z M22.697851,29.3528481 C22.2898915,29.2487301 21.8747537,29.4947636 21.7705722,29.9029772 C21.666073,30.3106191 21.9124242,30.7258205 22.3203837,30.8300655 C22.7282161,30.9343105 23.1434811,30.6880865 23.247472,30.2803811 C23.3517805,29.872231 23.10562,29.4570931 22.697851,29.3528481 Z M14.2853219,34.8383217 C13.877553,34.7340132 13.4622245,34.9801737 13.358043,35.3881332 C13.253798,35.7959022 13.499895,36.2111036 13.907791,36.3152851 C14.3158776,36.4196571 14.7309519,36.1734966 14.835324,35.7655371 C14.9393784,35.3577681 14.6931544,34.9425667 14.2853219,34.8383217 Z M16.0624423,25.3208969 C16.0624423,25.3208969 14.0965882,32.0745898 13.7528528,32.983764 C13.6962517,33.1334296 13.6324088,33.2669598 13.563865,33.3886107 C13.5852095,33.3759692 13.6062999,33.3634547 13.6278985,33.3506226 C14.8619411,32.6190016 21.9622915,27.764906 22.033821,27.7159915 L22.0648214,27.6966163 C22.0735879,27.6915978 22.660117,27.3476083 23.1674301,26.7753088 C22.2549526,26.2521144 22.3128877,25.1961968 22.4033477,24.356964 C22.4938713,23.5176676 23.0347257,18.4755371 23.0347257,18.4755371 L19.6027711,19.940113 L16.0624423,25.3208969 Z" id="Fill-1"></path>
            </g>
        </g>
    </g>
</svg>