<?xml version="1.0" encoding="UTF-8"?>
<svg width="60px" height="60px" viewBox="0 0 60 60" version="1.1" xmlns="http://www.w3.org/2000/svg" xmlns:xlink="http://www.w3.org/1999/xlink">
    <!-- Generator: Sketch 49.2 (51160) - http://www.bohemiancoding.com/sketch -->
    <title>icone blanc</title>
    <desc>Created with Sketch.</desc>
    <defs></defs>
    <g id="icone-blanc" stroke="none" stroke-width="1" fill="none" fill-rule="evenodd">
        <g id="spelunking" transform="translate(-16.000000, -29.000000)" fill="#FFFFFF">
            <g id="hockey-sur-glace" transform="translate(25.000000, 41.000000)">
                <path d="M6.88575526,34.4689669 C6.89323168,34.6676612 6.73793189,34.8348 6.53888845,34.8423288 C6.19510402,34.8552259 5.8596486,34.7436036 5.57488859,34.5312921 C5.4051606,34.4047432 5.25340227,34.2424489 5.12846726,34.0493194 C4.93191596,33.7452878 3.08818998,30.716559 3.08818998,30.716559 C2.4950602,29.7471144 2.99781705,29.044123 3.0195905,29.0146626 L3.04772547,28.9770842 C3.1668892,28.8178014 3.39295271,28.7850676 3.55251538,28.9040878 C3.71207805,29.0230424 3.74486939,29.2487094 3.62564007,29.4080576 L3.60360429,29.437518 C3.57304276,29.4847201 3.38331206,29.8172957 3.70381463,30.3411022 C3.70381463,30.3411022 5.54636012,33.3518273 5.73458242,33.6587396 C5.80495264,33.7733734 6.07948175,34.1389446 6.51173722,34.1226432 C6.71071508,34.1152453 6.87841,34.2702072 6.88575526,34.4689669 Z M20.6592992,35.4542547 C20.7863985,35.607318 20.7651497,35.8342942 20.6117518,35.961236 C20.3469289,36.1804216 20.0127196,36.2957101 19.6572614,36.3002928 C19.4454293,36.3030424 19.2261208,36.266446 19.0092389,36.1891288 C18.667881,36.0674245 15.3581198,34.7849137 15.3581198,34.7849137 C14.2963361,34.3761993 14.2665616,33.5129432 14.2658402,33.4764122 L14.2652499,33.4294719 C14.2626922,33.2306468 14.4220581,33.0673705 14.6212327,33.0648173 C14.8204074,33.0621986 14.9839706,33.2212849 14.9865939,33.4201755 L14.987053,33.4569683 C14.9917093,33.5129432 15.0439131,33.8921317 15.617696,34.112954 C15.617696,34.112954 18.9154557,35.3818475 19.2519604,35.5109496 C19.3776824,35.5591993 19.8183325,35.6824094 20.1513613,35.4067906 C20.3046937,35.2799799 20.5322656,35.3010604 20.6592992,35.4542547 Z M40.0853491,34.965277 L40.0853491,35.9444108 L40.0785941,35.9444108 C40.0063875,36.1647748 39.3267542,36.3376094 38.4985105,36.3376094 C37.6702668,36.3376094 36.9906334,36.1647748 36.9184925,35.9444108 L36.911803,35.9444108 L36.911803,34.965277 C36.911803,34.7266475 37.6221947,34.5332561 38.4985105,34.5332561 C39.3748919,34.5332561 40.0853491,34.7266475 40.0853491,34.965277 Z M18.3061926,4.27267914 C18.7585163,5.20048633 19.3997182,6.32731511 19.3997182,6.32731511 L21.0603373,6.32731511 C21.5508958,6.32731511 21.5746367,6.2221741 21.6708465,5.94085971 C21.9150109,5.22791727 22.2850939,3.59070288 22.4247851,3.16843669 L22.7054134,3.02218201 C22.7054134,3.02218201 23.1701323,0.977889928 21.7469224,0.402364029 C21.1173943,0.0624561151 19.9656312,-0.24072446 18.8709906,0.279939568 C17.7623809,0.807281295 17.0141481,2.19820647 17.7558227,3.95090576 C17.9271902,4.08459065 18.1188228,4.19005899 18.3061926,4.27267914 Z M38.4128595,31.9072842 C38.4128595,31.9072842 36.3917324,32.7929302 35.7618763,32.9700856 C35.4510144,33.0574849 35.1911758,32.8750921 35.1911758,32.8750921 L35.066044,32.7316525 L35.0613876,32.7357115 L25.7085756,22.0020324 C25.5155658,22.0024906 25.3280649,21.960264 25.1552545,21.8697878 C24.7076527,21.6354791 24.4588976,21.1322295 24.4371897,20.5429554 L22.1974099,17.9725 C22.434229,20.0028475 22.6539965,21.2235568 22.6539965,21.2235568 L22.8240524,23.0882058 C22.8240524,23.0882058 22.1435665,24.7548806 21.2705298,26.9302388 L21.2993862,26.9327921 L21.517711,27.6296295 L19.461825,32.5457245 L19.0866921,32.5457245 L19.0546221,32.5359043 C18.7720264,33.2667849 18.5102203,33.9538022 18.2861898,34.5566281 C18.2861898,34.5566281 16.9002966,34.1623165 17.163152,32.692241 C17.219094,32.3793058 17.284152,32.0172698 17.3553748,31.6224345 L17.1299671,31.2492691 L17.922665,27.0726964 L18.2153605,26.8849353 C18.5491764,25.0528892 18.8185245,23.5803914 18.8185245,23.5803914 L16.2659809,18.6745748 L12.2055602,23.5011755 L10.5232332,25.5452058 L10.6242305,25.8397446 L7.74154369,29.6348374 L7.25924864,29.8787043 L5.75032226,32.3074878 C5.75032226,32.3074878 4.60721609,31.3170935 5.05239135,29.9852201 C5.29740825,29.2519827 5.45520019,28.784282 5.54583546,28.5163885 L5.34934974,28.1094417 L7.071551,24.1819079 L7.58873604,23.9992532 L11.4232244,15.8755719 L12.2169716,14.8792856 L17.1062262,16.7789597 L17.6896497,16.7789597 L12.7908201,14.0194993 L11.8699736,11.5293727 C11.8699736,11.5293727 12.6855599,9.44265755 13.3651276,7.82894604 L13.1959243,7.29479568 C13.1959243,7.29479568 13.4303824,6.09837482 14.4707205,5.47734892 C15.1141522,5.09325036 15.9437076,5.0120705 16.9397773,5.36068561 L17.0950771,5.7603 C17.9700157,6.23310719 19.2978027,6.88509928 19.2978027,6.88509928 L22.3844517,6.89144964 L22.7779478,6.55186906 C24.7656934,6.39291367 25.8937811,8.3744223 25.7082477,9.42904029 L25.4742487,9.75808058 L25.4464416,14.7321799 C25.4464416,14.7321799 26.0788554,16.4351892 26.6804454,17.9180309 C26.8217761,17.9343324 26.9589094,17.9745295 27.0877138,18.0420266 C27.8508995,18.4415101 28.036892,19.6222187 27.5032457,20.679259 C27.2892494,21.1030964 26.9919631,21.4424806 26.6634595,21.6714863 L35.3921211,31.6888187 L38.2684464,30.3295799 C38.2684464,30.3295799 38.5682905,30.1871223 38.7029317,30.3122964 C38.9777887,30.5674892 38.9422429,31.4207942 38.8362613,31.6058058 C38.7533648,31.7505547 38.4128595,31.9072842 38.4128595,31.9072842 Z M37.3565192,34.965277 C37.5733356,35.0368986 37.9634214,35.1092403 38.4985105,35.1092403 C39.0335996,35.1092403 39.4238166,35.0368986 39.6405673,34.965277 C39.4238166,34.8935899 39.0335996,34.8212482 38.4985105,34.8212482 C37.9634214,34.8212482 37.5733356,34.8935899 37.3565192,34.965277 Z M22.738467,13.0351935 L21.9473431,15.5178568 C21.9722645,15.8029683 21.9979074,16.0789799 22.0238781,16.3469388 L24.6694836,19.3831309 C24.6914538,19.3327209 24.7146044,19.2825072 24.7397226,19.2325554 C24.7531015,19.206041 24.7670706,19.1801158 24.7810397,19.1543216 L23.1587209,15.8755719 L22.738467,13.0351935 Z" id="Fill-1"></path>
            </g>
        </g>
    </g>
</svg>