<?xml version="1.0" encoding="UTF-8"?>
<svg width="60px" height="60px" viewBox="0 0 60 60" version="1.1" xmlns="http://www.w3.org/2000/svg" xmlns:xlink="http://www.w3.org/1999/xlink">
    <!-- Generator: Sketch 49.2 (51160) - http://www.bohemiancoding.com/sketch -->
    <title>icone blanc</title>
    <desc>Created with Sketch.</desc>
    <defs></defs>
    <g id="icone-blanc" stroke="none" stroke-width="1" fill="none" fill-rule="evenodd">
        <g id="spelunking" transform="translate(-16.000000, -29.000000)" fill="#FFFFFF">
            <g id="golf" transform="translate(25.000000, 41.000000)">
                <path d="M12.2722366,7.77194506 C12.1837113,7.26917398 12.0205692,6.28969446 11.9317306,5.74532337 L11.2415716,5.86686554 C10.8102222,5.94279807 10.5081836,6.67173783 10.3439137,8.03344867 C10.3101451,8.28417639 10.3370848,8.44005108 10.4281161,8.52757398 C10.5334945,8.62787759 10.7648005,8.64786313 11.1145161,8.58640289 L11.3977595,8.53653301 C11.7670222,8.48014747 12.0859764,8.43134265 12.2167282,8.24921735 C12.2922222,8.14427759 12.3103282,7.98821494 12.2722366,7.77194506 Z M12.7933017,7.68016193 C12.8574559,8.04428723 12.8093402,8.33141494 12.6463234,8.55795952 C12.3864487,8.9199547 11.9465788,8.98786795 11.4807089,9.05910169 L11.2064246,9.10746795 C11.0770511,9.13021012 10.9261258,9.15075952 10.7713788,9.15075952 C10.5200246,9.15075952 10.258521,9.0966294 10.0623619,8.9098053 C9.73457398,8.59479807 9.79816434,8.12191133 9.81908964,7.96647518 C9.90680048,7.23941494 10.1132342,5.52830169 11.1498511,5.34573783 L12.1498173,5.16962699 L19.7684439,3.81649928 C19.8124872,3.92037398 19.8603523,4.02249446 19.9152969,4.12116916 C19.9445547,4.17360771 19.9830222,4.23381494 20.0392198,4.30573783 L12.452733,5.65322699 C12.5409451,6.19383904 12.7046511,7.17676434 12.7933017,7.68016193 Z M10.6239619,7.47886554 L10.7383619,8.37401735 C10.7903619,8.41342458 10.8469981,8.43416193 10.9244342,8.43879807 L10.7241402,6.87196916 C10.6714511,7.08097157 10.6433836,7.30181494 10.6239619,7.47886554 Z M10.8743137,6.47507759 L11.1236631,8.42551614 C11.1482222,8.42194506 11.1739716,8.41787277 11.2017258,8.41292337 C11.2341788,8.40722217 11.2661933,8.40158361 11.2976439,8.39607036 L11.0279957,6.28631133 C10.968227,6.33511614 10.91748,6.39977157 10.8743137,6.47507759 Z M11.2235282,6.19427759 C11.2198945,6.19496675 11.2165113,6.19615711 11.2128776,6.19678361 L11.4899812,8.36411855 C11.5508149,8.35403181 11.6089547,8.34288 11.6633354,8.32909687 L11.3866704,6.16564627 L11.2235282,6.19427759 Z M11.7085065,6.10901012 L11.5786945,6.13181494 L11.8504728,8.25748723 C11.9048535,8.22710169 11.9523427,8.18926072 11.9889933,8.13826313 C11.9960101,8.12848964 12.0023378,8.11595952 12.0084149,8.10217639 L11.7526125,6.10124145 L11.7085065,6.10901012 Z M20.4289065,3.83510651 C20.4824101,3.93127518 20.5870366,4.05074988 20.7254318,4.18388241 C21.4811234,4.91094265 23.2471812,6.04698602 23.2471812,6.04698602 C23.2471812,6.04698602 23.7109836,5.96566554 24.228227,5.87544867 C24.6863908,5.79556916 25.0790222,5.77577157 25.0804005,5.42386313 C25.0824053,4.90261012 25.0913017,2.61279325 25.0916149,2.53209928 C25.0972535,1.10610892 23.8923571,0.00502457831 22.6267523,1.25301205e-05 L22.6176053,1.25301205e-05 C21.3540053,1.25301205e-05 20.0968583,1.00687036 20.0912824,2.44827277 C20.0895282,2.89929446 20.1795571,3.32826313 20.3651908,3.71049446 C20.3855523,3.75247036 20.4061643,3.79432096 20.4289065,3.83510651 Z M31.4584824,8.12729928 C29.931186,8.44368482 24.8163908,9.47741976 24.8163908,9.47741976 L24.99388,9.8253812 L29.2424053,9.2273812 L30.4912198,14.9294631 L30.4912198,20.6586101 L28.1900631,36.380027 C28.1900631,36.380027 26.549933,36.3847258 26.549933,34.7775499 L26.549933,25.6728511 L27.3791137,21.2093716 L27.3791137,19.6835788 L25.3039378,28.0465571 L19.661374,36.2715788 C18.7598318,35.8723692 18.4493981,34.9896222 18.8986655,34.0629571 C19.5859427,32.6453619 22.7132101,26.6372318 22.7132101,26.6372318 L22.7132101,20.3029427 C22.7132101,17.385492 23.9062655,16.0992125 23.9062655,16.0992125 C23.9062655,16.0992125 22.3542222,12.5512463 21.2885354,10.277468 C20.7126511,9.04926554 21.2650414,7.06092337 23.2987427,6.70387759 L30.9916728,5.35789205 L30.6925788,2.6849041 L29.7375957,2.85418602 L28.8028487,5.07013783 L26.3668053,5.50205108 L27.8637161,3.18635952 L27.5263427,3.24612819 C27.4951427,3.25164145 27.464068,3.25433542 27.4333692,3.25433542 C27.2748005,3.25433542 27.1276969,3.18266313 27.0290848,3.06556916 L25.6764583,3.30533301 L25.6785258,2.76766554 L26.9371764,2.54456675 C26.9997017,2.3730294 27.1489981,2.23839325 27.3416487,2.20418602 L30.5746077,1.63112096 L30.5135234,1.08518361 C31.8102655,1.08518361 32.0862414,2.04912578 32.2904198,2.88839325 C32.4945981,3.72753542 32.7048535,4.59205108 32.8553402,5.21066313 C33.2596872,6.87309687 33.1149017,7.78447518 31.4584824,8.12729928 Z" id="Fill-1"></path>
            </g>
        </g>
    </g>
</svg>