<?xml version="1.0" encoding="UTF-8"?>
<svg width="60px" height="60px" viewBox="0 0 60 60" version="1.1" xmlns="http://www.w3.org/2000/svg" xmlns:xlink="http://www.w3.org/1999/xlink">
    <!-- Generator: Sketch 49.2 (51160) - http://www.bohemiancoding.com/sketch -->
    <title>icone blanc</title>
    <desc>Created with Sketch.</desc>
    <defs></defs>
    <g id="icone-blanc" stroke="none" stroke-width="1" fill="none" fill-rule="evenodd">
        <g id="spelunking" transform="translate(-16.000000, -29.000000)" fill="#FFFFFF">
            <g id="tir-a-l-arc" transform="translate(25.000000, 41.000000)">
                <path d="M11.8607035,11.4801085 C11.8614839,11.4801085 11.8622086,11.4801085 11.862989,11.4800527 C12.1844573,11.4712454 17.3540934,11.1839474 18.0833755,11.1356742 C18.5836107,11.1026187 19.6145167,10.6853844 19.5252726,9.69650848 C19.5252726,9.69650848 15.1012511,9.65157985 13.8001044,9.65157985 C11.8880732,9.65157985 11.5433044,11.4801085 11.8607035,11.4801085 M32.6466086,10.4650892 L31.0549308,10.4650892 C30.8389277,7.76875779 29.549264,5.15481415 27.2970907,2.86858199 C25.4715721,1.01552655 23.6868573,0.040530536 23.6117718,5.57427259e-06 L23.3585326,0.497676631 C23.3649988,0.501244165 23.606755,0.633410168 23.9965081,0.886928086 L20.575577,6.50100098 L20.575577,7.34628368 L24.3622919,1.13191737 C25.039343,1.5987627 25.9771587,2.3175094 26.9145841,3.26903773 C28.4348554,4.81238658 30.2396377,7.27900221 30.5087636,10.4650892 L19.8790159,10.4650892 C19.6819096,10.9879002 18.9315568,11.5699658 18.1096303,11.6251511 C17.4751666,11.6676828 12.7470686,11.930008 11.9620995,11.9665195 C11.9701822,11.9735431 11.9781534,11.9805667 11.9874067,11.9872558 C12.4323452,12.3107866 15.1770055,14.1930512 15.1770055,14.1930512 C15.1770055,14.1930512 15.9496554,17.0592307 15.9496554,18.0379615 C15.9496554,19.0166923 15.8979819,20.129763 15.8979819,20.129763 C14.7709198,21.5151927 13.0322484,27.8720932 13.0322484,27.8720932 L8.40002787,35.7006016 C8.5530974,36.0447014 9.85903798,36.3324454 10.7766747,35.1577232 C11.6943115,33.9829452 19.1888095,24.3542255 19.1888095,24.3542255 L22.6173773,27.9581599 C22.6173773,27.9581599 23.2578613,33.2990377 23.4224138,34.5837403 C23.5869106,35.8684987 24.478404,36.5424282 25.2339966,36.3022886 C25.2339966,36.3022886 25.1519991,28.9696674 25.1519991,28.1633489 C25.1519991,26.8484338 25.0496554,26.6120289 24.587381,25.8145177 C24.2960695,25.3120527 21.4194104,20.0651014 21.4194104,20.0651014 L21.4194104,14.3054285 L21.7898766,13.0046163 L30.5346282,11.5622175 C30.4097087,14.5384331 28.5700873,17.0833115 27.0052217,18.7241544 C26.0801712,19.6941336 25.1451427,20.4660031 24.451759,20.9893158 L22.0749449,17.4509906 L22.0749449,18.2408092 L24.0971237,21.2511952 C23.6425975,21.5792411 23.3549093,21.7576178 23.3477185,21.7620215 L23.6267666,22.2449207 C23.7038588,22.1975952 25.5364567,21.0633422 27.3848855,19.1277318 C29.8515011,16.5448368 31.1315213,13.7708558 31.0868156,11.1055731 C31.0857565,11.0419149 31.0833038,10.9783125 31.0810184,10.9146543 L32.6466086,10.9146543 C32.7670129,10.9146543 32.8646741,10.8140944 32.8646741,10.6898996 C32.8646741,10.5657606 32.7670129,10.4650892 32.6466086,10.4650892 M16.0577963,7.52616545 C15.9330441,7.15781752 15.9110815,6.75635841 15.9814845,6.34899057 C16.1843323,5.17309776 17.3208708,4.53060711 18.320728,4.7137777 C19.3200836,4.89672533 20.1208279,5.96386407 19.9204885,7.12442763 C19.8641884,7.45108 19.6830802,8.50082701 19.5612824,9.20664141 L19.5298992,9.20630695 C19.5095531,9.20608398 18.567947,9.19660772 17.4316315,9.1864068 C16.9062564,8.65562456 16.1760824,7.87550511 16.0577963,7.52616545" id="Fill-1"></path>
            </g>
        </g>
    </g>
</svg>