<?xml version="1.0" encoding="UTF-8"?>
<svg width="60px" height="60px" viewBox="0 0 60 60" version="1.1" xmlns="http://www.w3.org/2000/svg" xmlns:xlink="http://www.w3.org/1999/xlink">
    <!-- Generator: Sketch 49.2 (51160) - http://www.bohemiancoding.com/sketch -->
    <title>icone blanc</title>
    <desc>Created with Sketch.</desc>
    <defs></defs>
    <g id="icone-blanc" stroke="none" stroke-width="1" fill="none" fill-rule="evenodd">
        <g id="spelunking" transform="translate(-16.000000, -29.000000)" fill="#FFFFFF">
            <g id="petanque" transform="translate(25.000000, 41.000000)">
                <path d="M26.1826812,8.71915394 L22.109147,7.19960703 C22.109147,7.19960703 17.6007178,6.17557637 16.6281234,5.96003394 C15.655529,5.74449151 14.7317175,5.5056803 12.8106819,6.22449525 C11.4317003,6.74049077 9.22504381,7.73472105 8.04643222,8.2564317 C7.38953129,8.54715544 7.23624307,8.71384703 6.94463484,9.32557114 C6.69888381,9.84109039 4.2000068,15.0833708 4.2000068,15.0833708 C4.2000068,15.0833708 5.74561204,15.7168668 6.95069017,13.5849835 C8.13889503,11.4829005 8.94649877,10.3293267 8.94649877,10.3293267 L11.6337713,9.19997413 L13.8085862,8.77589712 L13.7014274,9.18384927 L12.1403776,9.64160479 L10.0665302,13.6631584 C10.0665302,13.6631584 8.18604493,16.0588908 10.1594692,19.3085603 C12.1329616,22.5581618 13.6725115,25.0934388 13.6725115,25.0934388 C13.6725115,25.0934388 13.1988352,32.5209439 13.1137885,33.9610231 C13.0287418,35.4011024 13.6155642,36.4811958 15.1694019,36.365056 L15.5986498,34.3905431 C15.6579104,35.5000287 16.3613489,36.4016601 17.6212651,36.365056 C17.6212651,36.365056 19.2192591,25.6120197 19.3384606,24.8254396 C19.4903201,23.823385 19.4895036,23.7043876 19.1241429,22.8134381 C18.8200158,22.0717625 16.3487619,16.0446029 16.3487619,16.0446029 L17.4922662,13.4491128 L21.4427889,10.1932519 L26.5001436,10.9417992 C26.5001436,10.9417992 31.569609,9.94954198 32.632353,9.73971469 C33.6950969,9.5298874 34.6136016,9.16343806 34.7153175,7.89345226 L26.1826812,8.71915394 Z M37.6437145,10.1503883 C37.6437145,9.51342236 37.1273788,8.99701862 36.4903447,8.99701862 C35.8533107,8.99701862 35.336907,9.51342236 35.336907,10.1503883 C35.336907,10.7874224 35.8533107,11.3038941 36.4903447,11.3038941 C37.1273788,11.3038941 37.6437145,10.7874224 37.6437145,10.1503883 Z M17.7876846,3.57389488 C17.6224218,3.11539095 17.5898319,2.61395544 17.6760352,2.10449151 C17.9238954,0.632978991 19.3797593,-0.182244935 20.6690677,0.0345902056 C21.9576277,0.251221234 23.0003006,1.57461637 22.7560464,3.02598983 C22.6775993,3.49102535 22.3879642,5.09167282 22.2229055,5.92669563 C22.1524188,6.28327955 21.9396659,6.43677189 21.4742221,6.3194074 C20.8821608,6.16999731 19.8990887,5.93860217 19.8990887,5.93860217 C19.8990887,5.93860217 18.036089,4.26461039 17.7876846,3.57389488 Z" id="Fill-1"></path>
            </g>
        </g>
    </g>
</svg>