<?xml version="1.0" encoding="UTF-8"?>
<svg width="60px" height="60px" viewBox="0 0 60 60" version="1.1" xmlns="http://www.w3.org/2000/svg" xmlns:xlink="http://www.w3.org/1999/xlink">
    <!-- Generator: Sketch 49.2 (51160) - http://www.bohemiancoding.com/sketch -->
    <title>icone blanc</title>
    <desc>Created with Sketch.</desc>
    <defs></defs>
    <g id="icone-blanc" stroke="none" stroke-width="1" fill="none" fill-rule="evenodd">
        <g id="spelunking" transform="translate(-16.000000, -29.000000)" fill="#FFFFFF">
            <g id="flechettes" transform="translate(25.000000, 41.000000)">
                <path d="M29.5467143,4.10354905 L29.9480429,4.10447762 L30.0140952,4.28802524 L31.2311429,3.90068714 L29.7354619,3.51322524 L29.8074571,3.71342524 L27.321981,3.70773 L26.9281429,3.2969919 L26.1400952,3.41188714 L26.3912429,3.90068714 L26.391181,3.90068714 L26.137619,4.38843476 L26.9250476,4.50747762 L27.3210524,4.09847286 L27.9852286,4.09995857 L28.8731286,7.64115857 C28.8731286,7.64115857 22.3081905,5.53045381 21.2497429,5.18750143 C20.1912952,4.84461095 18.5158429,4.46272048 17.5793476,6.4871919 C16.6427905,8.51166333 16.0441095,9.78999667 15.7810143,10.4126967 C15.517919,11.0353967 15.6059476,11.6805681 16.2808333,12.1743205 C16.955719,12.6680729 18.6767333,13.9270919 18.6767333,13.9270919 L18.5627048,14.5050348 L16.4337381,13.1884443 L16.3432952,16.8581586 C15.352819,18.381449 13.8068095,26.9189824 13.8068095,26.9189824 C13.8068095,26.9189824 11.5002381,33.2866919 11.3578571,33.7369252 C11.0194857,34.8068252 11.136919,36.3608205 12.5930429,36.3998824 L16.3440381,27.9667824 L19.2123333,21.680849 L20.5955952,26.2590157 C20.5955952,26.2590157 20.8736714,33.4423205 20.8859905,34.271411 C20.8982476,35.1006252 21.1738476,36.5933967 22.7504381,36.3434252 L23.427119,25.7496014 L22.7834333,17.7352252 L24.799981,9.52368238 C24.799981,9.52368238 29.2462286,9.89981571 29.8493667,9.94141571 C30.4524429,9.98301571 31.5107048,9.45787762 31.0374429,8.16772048 C30.5642429,6.87756333 29.5467143,4.10354905 29.5467143,4.10354905 M27.6217238,2.65014905 L27.8182095,3.43380143 L29.2942667,3.43788714 C29.1414238,3.13814429 28.7019619,2.55500143 27.6217238,2.65014905 M21.2135905,2.87870143 C21.1056905,2.47576333 21.1138,2.04583476 21.2238667,1.61751571 C21.540819,0.380596667 22.840881,-0.210036667 23.9247714,0.0674204762 C25.007919,0.344691905 25.8019095,1.54818238 25.4894762,2.76820143 C25.3893143,3.15900619 25.0537286,4.46835381 24.8721619,5.17462524 C24.7952762,5.47603952 24.3108714,5.54159667 23.9218,5.41004905 C23.4247667,5.24197762 22.8442857,5.04654429 22.8442857,5.04654429 C22.8442857,5.04654429 21.375781,3.48543 21.2135905,2.87870143" id="Fill-1"></path>
            </g>
        </g>
    </g>
</svg>