<?xml version="1.0" encoding="UTF-8"?>
<svg width="60px" height="60px" viewBox="0 0 60 60" version="1.1" xmlns="http://www.w3.org/2000/svg" xmlns:xlink="http://www.w3.org/1999/xlink">
    <!-- Generator: Sketch 49.2 (51160) - http://www.bohemiancoding.com/sketch -->
    <title>icone blanc</title>
    <desc>Created with Sketch.</desc>
    <defs></defs>
    <g id="icone-blanc" stroke="none" stroke-width="1" fill="none" fill-rule="evenodd">
        <g id="spelunking" transform="translate(-16.000000, -29.000000)" fill="#FFFFFF">
            <g id="plongee" transform="translate(25.000000, 41.000000)">
                <path d="M34.3229786,14.0094786 L36.4038341,11.1340132 L37.146569,6.40901057 C37.146569,6.40901057 36.0675546,5.81100096 34.7601823,5.13151187 C33.8238748,4.6448553 33.0464219,4.60475475 32.3640396,4.93612259 C31.8768448,5.18850041 31.1315531,6.02327823 30.5993461,6.98797915 L30.4860418,6.93132702 C30.7771746,5.95438063 31.5686895,4.76959763 32.1151605,4.32479098 C32.0542023,4.02632444 31.9211169,3.7528871 31.6730452,3.47171224 L32.3410289,2.23781279 L31.0772559,1.55374847 L30.3970267,2.81025494 C29.5928626,2.72278728 28.7831139,3.13449079 28.4010149,3.900842 L22.8221934,15.1425884 C22.697182,15.3943607 22.799721,15.6998246 23.0512914,15.8252398 L25.8339738,17.2126786 L23.6776943,22.6454963 C22.4096825,22.6510808 15.5135309,22.6796087 14.2893202,22.6446889 C14.0199199,21.1435422 13.4040803,21.297418 13.4040803,21.297418 C13.4040803,21.297418 12.3263443,21.9133248 9.32405072,24.22274 C6.32182447,26.5322224 2.97315904,26.5322224 2.97315904,26.5322224 L2.79997309,27.0326047 C4.97482262,27.8023873 10.1708722,24.8770653 10.1708722,24.8770653 L21.3797173,25.5169248 L19.8226585,27.6100257 C19.8226585,27.6100257 18.2913017,28.0711148 18.9353328,28.8496442 C19.5794311,29.6282409 20.8689735,31.1166712 21.4616004,31.8466897 C22.0542947,32.5768427 23.2778326,34.0943392 23.8954888,36.3533596 L24.4677291,36.2777337 C24.4677291,36.2777337 24.284989,34.6437034 21.9796781,31.1480923 L21.459111,28.6251888 L23.9439324,26.0397795 L22.6379058,25.826493 L22.5042149,25.5796324 L22.4869905,25.5478076 C22.4869905,25.5478076 23.5649284,25.549086 24.0694821,25.549086 C24.6456248,25.549086 25.2268138,25.1990135 25.6764648,24.6846365 C26.0378407,24.2713182 31.0265919,18.5647267 31.0265919,18.5647267 L32.7136411,16.2335119 L30.528901,15.1441359 L30.7692352,14.7397662 C30.7692352,14.7397662 34.2739295,16.4613987 35.0509113,16.8395281 C35.827826,17.217523 37.511982,17.8727902 38.2706629,16.5743666 C37.2334311,15.9265677 35.6007465,14.8550889 34.3229786,14.0094786 M37.8331901,2.51111556 C37.8334592,2.87841242 38.2103775,3.20365752 38.6090282,3.10192591 C38.7402969,3.06835179 38.6158237,3.12211076 39.3240426,2.93883238 C39.3240426,2.93883238 39.2364404,2.4276176 39.1396877,1.91519172 C39.1363908,1.89736177 39.1329594,1.87953183 39.1295953,1.86170189 C39.1283842,1.8616346 39.1272404,1.8616346 39.1260293,1.86143275 C38.5844027,1.82052481 37.8328537,2.024459 37.8331901,2.51111556 M38.8881845,5.52134847 C38.2996618,5.65046418 37.4922681,5.70920207 37.4922681,5.70920207 C37.4922681,5.70920207 35.240447,4.7693285 34.7897868,4.21363978 C34.4907147,3.84506455 34.2992278,3.3947407 34.2143169,2.89852998 C33.9689365,1.46587712 35.0453942,0.24752 36.3008914,0.0321477264 C37.325945,-0.143527689 38.437457,0.412901146 38.9421454,1.39307712 C38.1025905,1.48451445 37.3482829,1.77335956 37.272186,2.315659 C37.1643317,3.08301945 38.0164012,3.73021279 38.732223,3.5967237 C38.9586296,3.55453738 39.2095945,3.48705272 39.4080115,3.42885309 C39.5024766,3.98070669 39.6040736,4.57434292 39.6732404,4.97830891 C39.7330548,5.32723756 39.3451694,5.42109708 38.8881845,5.52134847" id="Fill-1"></path>
            </g>
        </g>
    </g>
</svg>