<?xml version="1.0" encoding="UTF-8"?>
<svg width="60px" height="60px" viewBox="0 0 60 60" version="1.1" xmlns="http://www.w3.org/2000/svg" xmlns:xlink="http://www.w3.org/1999/xlink">
    <!-- Generator: Sketch 49.2 (51160) - http://www.bohemiancoding.com/sketch -->
    <title>icone blanc</title>
    <desc>Created with Sketch.</desc>
    <defs></defs>
    <g id="icone-blanc" stroke="none" stroke-width="1" fill="none" fill-rule="evenodd">
        <g id="spelunking" transform="translate(-16.000000, -29.000000)" fill="#FFFFFF">
            <g id="aquagym" transform="translate(25.000000, 41.000000)">
                <path d="M24.0481331,17.2558067 C24.0189373,18.0129267 23.8632514,20.1436159 23.8632514,21.5124834 C23.8632514,22.2708168 23.1193264,22.7268784 22.3480256,22.7268784 L20.2242373,22.7268784 C20.2242373,22.7268784 16.9259423,20.2604751 16.2454898,19.1495926 C15.8368998,18.4823351 15.7333114,17.6614392 15.7656923,16.8320501 C15.7664506,16.8121059 15.7684981,16.7927684 15.7695598,16.7729759 C15.6618006,16.7474959 15.5551789,16.7126884 15.4505289,16.6679467 C14.3575431,16.2001309 13.8935948,14.8347517 14.4141906,13.6183092 C14.9347864,12.4018667 16.2429114,11.7949726 17.3358973,12.2627126 C17.7915039,12.4577559 18.1374556,12.8090917 18.3486514,13.2402801 C18.9069364,13.0104292 19.5098114,12.8962242 20.1085156,12.9190501 C22.2056106,12.9998126 24.1390573,14.8935226 24.0481331,17.2558067 Z M17.4252289,23.5713584 L11.9906331,17.5507226 C11.9906331,17.5507226 10.2425231,10.6843934 9.34746225,7.65720258 C10.7130689,6.25072175 12.2813023,5.11746842 14.0451098,4.26745258 C18.8224581,1.96492508 22.6802514,1.90213508 27.5875781,4.26745258 C29.5435473,5.21006092 31.2589731,6.50119925 32.7243006,8.12699008 C31.7154139,11.1916426 29.7285048,17.3977667 29.7285048,17.3977667 L24.2180756,23.5713584 L17.4252289,23.5713584 Z M26.7215614,34.3487159 C26.8849064,33.4075484 27.5239539,31.9300876 27.6640181,30.5140518 C27.8248606,28.8871234 27.7462214,27.5318301 27.7462214,27.5318301 C27.7462214,27.5318301 32.3067623,20.5357501 32.7957356,19.7462492 C33.2939606,18.9418093 33.5784873,18.2677268 33.7623073,17.3743343 C33.8457239,16.9682467 34.4131089,14.1053109 34.9821623,11.2292559 C35.4310198,11.9941868 35.8430223,12.8063617 36.2164256,13.6665392 L38.7432681,12.6925359 C37.9066748,10.7656867 36.8940723,9.04571092 35.7123614,7.53670342 C36.0125856,6.01798925 36.2250706,4.94236925 36.2250706,4.94236925 C36.2250706,4.94236925 35.0799114,4.85470592 34.0805798,5.69395342 C32.5501873,4.16773175 30.7980581,2.92535425 28.8308656,1.97728592 C23.4264514,-0.62751325 18.3370489,-0.69053075 12.8018981,1.97728592 C10.9358673,2.87659342 9.26359058,4.04101425 7.79022475,5.46099342 C6.89523975,4.93660592 5.99433975,5.01168092 5.99433975,5.01168092 C5.99433975,5.01168092 6.12651725,5.82203592 6.32482142,7.03582425 C4.96808725,8.66146342 3.82004642,10.5492584 2.88949558,12.6925359 L5.41633808,13.6665392 C5.86686392,12.6286842 6.37350642,11.6605959 6.93376308,10.7614401 C7.46649225,14.0181026 8.03903392,17.5103792 8.09954892,17.8482167 C8.21815225,18.5097109 8.52906892,19.1825043 8.89162808,19.7156126 C10.2204556,21.6693826 14.9237148,28.0760101 14.9237148,28.0760101 C14.9237148,28.0760101 15.6352589,29.5741734 15.4988348,32.1693418 C11.9349714,31.6059759 7.61042392,31.1924567 1.40005308,31.1924567 L1.40005308,32.1024567 C11.3617473,32.1024567 16.4265039,33.1768634 21.3246548,34.2158559 C26.2684573,35.2646309 31.3807614,36.3491234 41.4379298,36.3491234 L41.4379298,35.4391234 C34.8441456,35.4391234 30.3961414,34.9682742 26.7215614,34.3487159 Z" id="Fill-1"></path>
            </g>
        </g>
    </g>
</svg>