<?xml version="1.0" encoding="UTF-8"?>
<svg width="60px" height="60px" viewBox="0 0 60 60" version="1.1" xmlns="http://www.w3.org/2000/svg" xmlns:xlink="http://www.w3.org/1999/xlink">
    <!-- Generator: Sketch 49.2 (51160) - http://www.bohemiancoding.com/sketch -->
    <title>icone blanc</title>
    <desc>Created with Sketch.</desc>
    <defs></defs>
    <g id="icone-blanc" stroke="none" stroke-width="1" fill="none" fill-rule="evenodd">
        <g id="spelunking" transform="translate(-16.000000, -29.000000)" fill="#FFFFFF">
            <g id="nataton-sportive" transform="translate(25.000000, 41.000000)">
                <path d="M41.6359997,28.484896 L41.6359997,29.3993956 C31.5290266,29.3993956 26.3915205,28.3095407 21.4231205,27.2556562 C16.5009028,26.2114501 11.411103,25.1317309 1.4,25.1317309 L1.4,24.2172313 C6.62857509,24.2172313 10.5270105,24.5089567 13.7603,24.9364091 L15.0247481,24.5322765 L17.8647265,21.6667683 L11.8880907,13.8626575 L5.12071771,23.6278364 C3.32212568,21.9289248 4.37997306,19.6973934 4.73152193,18.943922 C5.99597001,16.2339549 7.77596721,12.6025533 8.55237735,11.0033222 C10.2890882,7.42610474 12.1942195,7.95765761 14.6733516,10.0671033 C17.8559625,12.7751651 24.8104269,18.8395928 24.8104269,18.8395928 C25.6177776,19.5023764 26.1821001,21.0354587 26.1821001,22.2966298 L26.238799,26.4751308 L26.2434477,27.2849202 C26.59111,27.3464203 26.9454024,27.4066248 27.3073156,27.4653052 C27.0139898,27.1788382 27.0629156,26.5712295 27.0552947,25.876667 C27.0440921,24.871632 27.0335754,23.9704689 27.0335754,23.9704689 C27.0335754,23.9704689 30.7987987,19.7892244 32.0796316,19.3266401 C32.9294303,19.0198255 33.8586381,18.9577157 34.8037734,19.1155431 C37.5318018,19.5708114 39.0480421,22.2679755 38.6489392,24.6595443 C38.3730652,26.3124261 37.1150948,27.7482666 35.4747112,28.3282118 C37.3085877,28.4281208 39.3428158,28.484896 41.6359997,28.484896" id="Fill-1"></path>
            </g>
        </g>
    </g>
</svg>