<?xml version="1.0" encoding="UTF-8"?>
<svg width="60px" height="60px" viewBox="0 0 60 60" version="1.1" xmlns="http://www.w3.org/2000/svg" xmlns:xlink="http://www.w3.org/1999/xlink">
    <!-- Generator: Sketch 49.2 (51160) - http://www.bohemiancoding.com/sketch -->
    <title>icone blanc</title>
    <desc>Created with Sketch.</desc>
    <defs></defs>
    <g id="icone-blanc" stroke="none" stroke-width="1" fill="none" fill-rule="evenodd">
        <g id="spelunking" transform="translate(-16.000000, -29.000000)" fill="#FFFFFF">
            <g id="luge" transform="translate(25.000000, 41.000000)">
                <path d="M31.6732614,31.6531475 L30.0375588,27.2273609 L28.0690018,27.867101 L29.264632,31.6454545 L31.6732614,31.6531475 Z M24.6268273,31.895439 L23.7162459,29.2814934 L17.0011241,31.5085177 C17.0011241,31.5085177 18.2158278,32.1023422 19.2197481,32.5376084 C19.986263,32.8697874 20.7127639,33.0736944 22.307235,32.8427402 C23.0761037,32.731393 24.045448,32.2304522 24.6268273,31.895439 Z M38.4138687,31.5725727 C38.2017054,34.2066822 35.8904731,36.2924778 33.9194812,36.2924778 C31.9484081,36.2924778 27.0043708,36.4078739 23.6382471,36.3991281 C21.8829085,36.3945123 20.1585746,36.4973566 17.668781,35.4285857 C13.991636,33.8500473 4.71156255,29.183184 3.9258929,28.7894604 C3.14022325,28.3958178 2.80826159,27.883297 2.80022633,26.9082197 C2.79551881,26.3406326 2.86580702,25.1833509 2.86580702,25.1833509 L10.242336,28.5695194 L10.3278831,28.6066081 L14.8546552,31.8879888 C14.8546552,31.8879888 15.4535659,31.0981123 15.6070475,30.4375604 C15.7474616,29.8325607 15.8144221,28.8296264 15.064627,27.739072 C13.8303627,25.9440747 11.8493876,22.9929295 11.5223769,22.4715818 L12.6651691,19.3283526 L12.3985447,18.1704231 L10.7201498,22.6339462 C10.7201498,22.6339462 13.0490759,26.0801207 14.4684758,28.0532735 C15.4292167,29.3888726 15.00976,30.4559428 14.7551478,30.8888606 L10.1287873,27.4536994 C10.1287873,27.4536994 9.01846073,26.5768506 8.47214437,26.1447426 C6.28525562,24.4146911 6.73644752,22.1093594 7.51132233,19.5045645 C8.30210533,16.8461611 8.74940134,15.2926455 9.40861714,13.394399 C10.3606734,10.6528294 12.3918892,10.3739351 14.9301379,11.0910918 C16.2549003,11.4654612 21.1758058,12.9313568 21.1758058,12.9313568 C22.6241001,13.4016062 23.4165876,14.0233688 23.9108777,15.7684015 C24.4024082,17.5036357 25.0197433,20.5377852 25.0197433,20.5377852 C24.3140204,20.238889 23.3969458,20.3413284 22.888939,20.5057982 L22.2781782,18.326714 L21.8440308,18.1849184 L22.3974085,21.4111519 L22.4017102,21.4094513 L22.4031711,21.418602 L22.4140471,21.4043496 L22.7375677,21.2713809 C22.7375677,21.2713809 25.4413914,20.2944411 26.4742872,22.6039027 L30.2807268,21.7595268 C30.2807268,21.7595268 32.9806546,21.2441717 33.8551991,24.1438948 L36.1006073,31.6182453 C36.1006073,31.6182453 37.6274686,31.5916029 38.4138687,31.5725727 Z M14.0929289,6.78013448 C13.0759413,3.24763556 14.7922399,0.86059529 17.0002313,0.212676261 C19.1803023,-0.427225771 21.2880559,0.502583788 22.4019537,1.33894271 C24.0090052,2.5910517 24.0883838,5.33772306 24.0883838,5.33772306 L23.3140772,5.35586253 C23.2569376,5.79874082 23.1297532,6.24170008 22.9222163,6.66984005 C22.5782424,7.37946565 21.3661359,9.87866289 20.743931,11.1604914 C20.4789298,11.7069428 19.8517739,11.4457831 19.0775484,11.2284335 C18.2033286,10.9831458 17.0216587,10.558326 17.0216587,10.558326 C17.0216587,10.558326 16.3029495,9.25673836 15.6609405,7.90016549 C15.1556121,7.64143517 14.5667657,7.2716816 14.0929289,6.78013448 Z" id="Fill-1"></path>
            </g>
        </g>
    </g>
</svg>