<?xml version="1.0" encoding="UTF-8"?>
<svg width="60px" height="60px" viewBox="0 0 60 60" version="1.1" xmlns="http://www.w3.org/2000/svg" xmlns:xlink="http://www.w3.org/1999/xlink">
    <!-- Generator: Sketch 49.2 (51160) - http://www.bohemiancoding.com/sketch -->
    <title>icone blanc</title>
    <desc>Created with Sketch.</desc>
    <defs></defs>
    <g id="icone-blanc" stroke="none" stroke-width="1" fill="none" fill-rule="evenodd">
        <g id="spelunking" transform="translate(-16.000000, -29.000000)" fill="#FFFFFF">
            <g id="trail_running" transform="translate(25.000000, 41.000000)">
                <path d="M27.1923026,14.2051416 L26.7342069,15.6695826 C26.7342069,15.6695826 28.5055338,16.0811609 29.3043595,16.2197531 C30.167874,16.3695792 31.2692843,16.3089747 31.4334089,15.3241074 L27.1923026,14.2051416 Z M10.9208807,27.9038256 C11.6841978,27.505728 18.1793366,24.0753957 18.1793366,24.0753957 L19.6701106,20.4774993 C18.9287081,18.502266 20.3051633,16.8751093 20.3051633,16.8751093 L21.2829381,15.3983109 L21.3128215,9.85025079 L18.6356159,11.1188653 L19.794918,16.6213982 C19.794918,16.6213982 18.7649936,17.1909031 18.2058801,15.7504082 C17.9479449,15.0857692 17.0996065,12.7395181 16.620358,11.4965644 C16.1649576,10.3153385 16.2894134,9.8799322 17.2906262,9.27406469 C18.291839,8.66819717 21.7354673,6.58434876 21.7354673,6.58434876 C22.7502741,5.99225768 23.5879483,6.08833797 24.3836098,6.42293387 C24.4964052,6.47035319 25.7885422,6.96943855 26.3769532,7.19654279 C26.5546718,7.26507021 26.7326834,7.42837714 26.7611606,7.61817266 C26.95845,8.93361527 27.3725995,11.3612833 27.089527,12.563972 L25.3845882,18.8276382 L30.0857824,25.4017767 L32.4121212,36.2700241 C31.2791868,36.6749803 30.5754023,36.1156452 30.132717,34.8434831 C29.2391432,32.2756265 27.4093971,26.7990501 27.4093971,26.7990501 L21.7030056,21.4034768 L21.5532954,21.8784386 L22.8637726,23.4860244 C22.8637726,23.4860244 21.3526661,25.8821781 21.1729552,26.1625552 C20.8673237,26.639409 20.2864129,26.8481841 19.6218869,27.0572548 C18.9574196,27.2663255 9.86857304,30.1259705 9.86857304,30.1259705 C9.60302049,28.9723567 10.1413914,28.3103191 10.9208807,27.9038256 Z M27.492895,0.408485217 C26.9569851,0.0589894738 26.2834941,-0.072566613 25.6460391,0.0383543843 C25.0126271,0.148506739 24.4146651,0.498002483 24.02202,1.11078778 C23.7490845,1.53679299 23.5853701,2.00123033 23.5558968,2.47861632 C23.5117162,3.19806552 24.7403948,5.90628799 24.7403948,5.90628799 C24.7403948,5.90628799 25.1765174,6.09070302 25.6627973,6.29658091 C25.9647373,6.42447116 26.2234929,6.55987046 26.4172665,6.52610932 C26.4998855,6.51174162 26.5706097,6.46668736 26.6279742,6.37722922 C27.078101,5.67480841 27.9557955,4.30502869 28.2047657,3.91627307 C28.9823214,2.70264599 28.5603787,1.10463864 27.492895,0.408485217 Z" id="Fill-1"></path>
                <polygon id="Path-23" transform="translate(23.590406, 28.048769) rotate(2.000000) translate(-23.590406, -28.048769) " points="4.92880971 37.4692895 10.195216 31.1754418 20.6083996 37.4692895 24.3538097 31.1754418 33.7614269 35.1553246 38.1931652 19.6801293 42.0479503 31.1754418 42.4381115 30.9901879 38.1931652 18.6282494 33.4755138 34.5527368 24.166505 30.6923119 20.6083996 36.8948998 10.195216 30.6923119 4.74270132 37.2804467"></polygon>
            </g>
        </g>
    </g>
</svg>