<?xml version="1.0" encoding="UTF-8"?>
<svg width="60px" height="60px" viewBox="0 0 60 60" version="1.1" xmlns="http://www.w3.org/2000/svg" xmlns:xlink="http://www.w3.org/1999/xlink">
    <!-- Generator: Sketch 49.2 (51160) - http://www.bohemiancoding.com/sketch -->
    <title>icone blanc</title>
    <desc>Created with Sketch.</desc>
    <defs></defs>
    <g id="icone-blanc" stroke="none" stroke-width="1" fill="none" fill-rule="evenodd">
        <g id="spelunking" transform="translate(-16.000000, -29.000000)" fill="#FFFFFF">
            <g id="BMX" transform="translate(25.000000, 41.000000)">
                <path d="M15.9703254,1.58837493 L15.6269725,0.880035496 C15.8574729,0.683802551 17.5911778,-0.27524792 19.2904414,0.0770892956 C21.6217286,0.560434831 21.489756,2.70061009 21.5132358,2.84012867 L21.1404864,3.44025735 C21.1404864,3.44025735 20.9793043,3.47759068 20.7469354,3.52169495 C20.7322994,3.5590904 20.716667,3.59636162 20.6997267,3.63344648 C20.5366138,3.98994565 20.028591,5.10025513 19.7336301,5.74448808 C19.6079479,6.01917693 19.3356572,6.0386822 18.9617868,5.89655463 C18.468649,5.7090183 17.7737222,5.35823405 17.7737222,5.35823405 C17.7737222,5.35823405 16.6744075,3.66164836 16.5831664,3.006731 C16.5558252,2.81056018 16.5667866,2.61184248 16.6058365,2.41430505 C16.2834722,2.24813755 16.067234,2.13352856 16.067234,2.13352856 L15.9703254,1.58837493 Z M28.4775139,26.0445036 C26.2448169,26.0445036 24.4282166,24.2326256 24.4282166,22.0057327 C24.4282166,21.1179945 24.71751,20.2967232 25.2060389,19.6294443 L27.6262627,21.7203594 C27.5960567,21.8101209 27.5789918,21.9058458 27.5789918,22.0057327 C27.5789918,22.5004459 27.9812621,22.9017948 28.4775139,22.9017948 C28.9738279,22.9017948 29.3762228,22.5004459 29.3762228,22.0057327 C29.3762228,21.5107088 28.9738279,21.10936 28.4775139,21.10936 C28.3317773,21.10936 28.1945731,21.1447676 28.0728146,21.206203 L25.6517811,19.1165923 C26.3820211,18.4058303 27.3791334,17.9666511 28.4775139,17.9666511 C30.71046,17.9666511 32.526998,19.7785291 32.526998,22.0057327 C32.526998,24.2326256 30.71046,26.0445036 28.4775139,26.0445036 Z M19.8700246,22.6167321 C19.789745,21.4926944 19.7060398,20.3223161 19.6346663,19.3266156 L22.0055016,16.8642928 L22.458842,17.2559512 L19.8700246,22.6167321 Z M19.4568552,16.8588264 C19.3860422,15.9043727 19.252388,15.7036672 18.5772041,15.2065935 C17.9020825,14.7095197 13.0867962,11.1642196 13.0867962,11.1642196 L13.3267633,10.4873744 C14.3849106,11.1854021 15.5889813,11.9789063 16.1398531,12.3394432 C16.3400852,12.4705136 16.5435559,12.5531314 16.7424179,12.6012734 C16.6515505,12.7031481 16.6273233,12.8539101 16.6934653,12.9826201 C16.7794748,13.1499057 16.985063,13.2159379 17.152847,13.1302141 L18.7839134,12.2965191 L22.2503266,15.6741608 L21.8166668,16.0958846 C21.7919414,16.1108552 21.7682125,16.128 21.747224,16.1498037 L21.5408884,16.3641131 L21.4870779,16.4164171 L21.4889464,16.4180322 L19.5690848,18.4120422 C19.5132814,17.634751 19.4718648,17.0610849 19.4568552,16.8588264 Z M17.9079991,26.6797915 L15.1031927,24.0330383 L17.3903851,21.6575574 C17.7176074,23.2968075 18.0442691,24.9288519 18.1083558,25.234041 C18.1406172,25.3875363 18.2014653,25.6172512 18.302609,25.862558 L17.9079991,26.6797915 Z M14.3861562,16.6705446 L16.6565952,17.9763417 C16.6565952,17.9763417 16.9227202,19.3133222 17.2279574,20.843492 L14.6074392,23.5651603 L14.4290053,23.3968808 L15.0904252,19.2461719 L14.3861562,16.6705446 Z M16.4613455,27.8611026 C15.8834439,27.1379789 15.1194479,26.5699656 14.2418521,26.2292446 L14.7747871,24.6603128 L17.4657447,27.1995385 L16.4613455,27.8611026 Z M13.8473045,27.3908641 C14.4656885,27.640457 15.0086507,28.0376439 15.4317851,28.5391281 L12.888308,30.2142829 L13.8473045,27.3908641 Z M12.3335125,35.1747709 C10.1006287,35.1747709 8.28415292,33.362893 8.28415292,31.1359379 C8.28415292,28.9087965 10.1006287,27.0969806 12.3335125,27.0969806 C12.6291584,27.0969806 12.9172062,27.1295929 13.1949776,27.189848 L12.152961,30.2576417 C11.7431547,30.3410671 11.4349281,30.7025979 11.4349281,31.1359379 C11.4349281,31.6307133 11.8372607,32.0320621 12.3335125,32.0320621 C12.8298265,32.0320621 13.2321591,31.6307133 13.2321591,31.1359379 C13.2321591,31.0312679 13.2132258,30.9311947 13.1802171,30.8378303 L15.8259589,29.0952768 C16.1792767,29.6945979 16.3829343,30.3918181 16.3829343,31.1359379 C16.3829343,33.362893 14.566334,35.1747709 12.3335125,35.1747709 Z M28.4775139,16.7414221 C27.0085638,16.7414221 25.6783749,17.3436007 24.720624,18.3129007 L22.4922867,16.3895818 L23.2265126,15.6755896 L18.9105298,11.466924 L18.0036621,11.9305158 L14.3651677,8.37552524 L17.2103942,5.78175929 C17.2103942,5.78175929 16.7663336,4.98446589 16.0177209,3.75122352 C15.335873,2.6281797 13.0441963,3.35391237 10.8692335,5.47619745 C9.12930055,7.17396339 8.6737803,7.60444592 7.87970275,8.37515252 C7.0856252,9.14585912 6.09748133,10.8513899 8.58851817,13.3360133 L12.1981767,19.0554054 L11.881044,25.8923128 C9.18198994,26.122152 7.05560596,28.3852601 7.05560596,31.1359379 C7.05560596,34.0386201 9.42332723,36.4 12.3335125,36.4 C15.24376,36.4 17.6114812,34.0386201 17.6114812,31.1359379 C17.6114812,30.1425979 17.3339589,29.2127432 16.8525299,28.4191148 L18.279316,27.4794454 L18.7215705,26.5636916 C19.0424401,26.9314964 19.5105411,27.1790394 20.1844171,27.0195186 C20.1844171,27.0195186 20.0893769,25.6867621 19.9676806,23.9832191 L22.9933341,17.7177415 L24.2752555,18.8253178 C23.6009435,19.7095153 23.1996074,20.811563 23.1996074,22.0057327 C23.1996074,24.9082285 25.5673909,27.2697948 28.4775139,27.2697948 C31.3878237,27.2697948 33.7554827,24.9082285 33.7554827,22.0057327 C33.7554827,19.1028641 31.3878237,16.7414221 28.4775139,16.7414221 Z" id="Page-1"></path>
            </g>
        </g>
    </g>
</svg>