<?xml version="1.0" encoding="UTF-8"?>
<svg width="60px" height="60px" viewBox="0 0 60 60" version="1.1" xmlns="http://www.w3.org/2000/svg" xmlns:xlink="http://www.w3.org/1999/xlink">
    <!-- Generator: Sketch 49.2 (51160) - http://www.bohemiancoding.com/sketch -->
    <title>icone blanc</title>
    <desc>Created with Sketch.</desc>
    <defs></defs>
    <g id="icone-blanc" stroke="none" stroke-width="1" fill="none" fill-rule="evenodd">
        <g id="spelunking" transform="translate(-16.000000, -29.000000)" fill="#FFFFFF">
            <g id="velo-de-route" transform="translate(25.000000, 41.000000)">
                <path d="M40.5741467,28.0016216 C40.5741467,24.3306041 37.5875029,21.3439604 33.9164226,21.3439604 C33.3264062,21.3439604 32.7542311,21.4215445 32.2091319,21.5662845 L34.2683468,27.8093889 C34.3335551,28.0070871 34.2261309,28.2201764 34.0284327,28.2853848 C33.9892323,28.298326 33.9494665,28.3044824 33.910329,28.3044824 C33.7520824,28.3044824 33.604704,28.2040314 33.5524368,28.0455336 L31.4926565,21.8008587 C29.016686,22.7720739 27.258887,25.1853489 27.258887,28.0016216 C27.258887,31.6727648 30.2454679,34.6593457 33.9164226,34.6593457 C37.5875029,34.6593457 40.5741467,31.6727648 40.5741467,28.0016216 Z M30.6306245,19.1874355 L30.3638858,18.378613 L24.0183829,18.378613 C24.0071379,18.3969568 23.9963327,18.4153006 23.984648,18.4335815 C23.6322212,18.9847116 19.8955556,24.8261375 18.4827705,27.0347411 L18.9644832,28.4864125 L30.6306245,19.1874355 Z M16.2229676,28.0016216 C16.2229676,28.1507591 16.2180047,28.2987657 16.2092726,28.4457672 L18.2312345,28.6703529 L17.9597843,27.8522957 C17.9506124,27.8665561 17.9454611,27.87466 17.9454611,27.87466 C17.2823837,27.8066875 16.6237038,27.0914686 17.1439259,25.3937895 L15.0460131,19.0716561 L13.1513896,21.9975518 C15.0109589,23.3453798 16.2229676,25.5344461 16.2229676,28.0016216 Z M15.4691136,28.0016216 C15.4691136,25.7992373 14.3939294,23.8436145 12.7411046,22.6310404 L9.46114886,27.6962479 L15.4592507,28.3624036 C15.4656585,28.2429177 15.4691136,28.122678 15.4691136,28.0016216 Z M15.3760755,29.1116716 L8.77156095,28.3781089 C8.64164678,28.36366 8.52856869,28.2830604 8.47253221,28.1649566 C8.41655856,28.0469157 8.42573044,27.9082694 8.49678118,27.7986464 L12.1093122,22.219813 C11.1364636,21.6627778 10.0105199,21.3439604 8.81145239,21.3439604 C5.14043489,21.3439604 2.15385396,24.3306041 2.15385396,28.0016216 C2.15385396,31.6727648 5.14043489,34.6593457 8.81145239,34.6593457 C12.1043493,34.6593457 14.8460533,32.2561849 15.3760755,29.1116716 Z M17.567529,24.2767036 C18.2902236,22.5021942 19.4858988,19.757035 20.0901128,18.378613 L15.6103356,18.378613 L17.567529,24.2767036 Z M14.6791375,15.5726429 L15.3601189,17.624759 L20.4213688,17.624759 L15.4358812,15.5726429 L14.6791375,15.5726429 Z M17.9586535,11.4356808 C17.9586535,11.4356808 23.0856771,15.0057447 23.8024038,15.5142192 C24.351021,15.9033335 24.6482279,16.6771018 24.3616378,17.624759 L30.1152397,17.624759 L29.7760682,16.5965651 L28.9481481,16.5965651 C28.6418321,16.5965651 28.3493368,16.468724 28.1413359,16.243887 L22.7603891,10.4169729 L22.5238046,10.4037176 L23.0046378,11.7190671 L17.9586535,11.4356808 Z M41.3280006,28.0016216 C41.3280006,32.0883896 38.0031906,35.4131996 33.9164226,35.4131996 C29.8297803,35.4131996 26.505033,32.0883896 26.505033,28.0016216 C26.505033,24.8520826 28.479942,22.155547 31.2562604,21.0841949 L30.8824117,19.9507754 L19.0118503,29.4126478 C18.9442548,29.4665483 18.8612052,29.4948178 18.7768364,29.4948178 C18.7409655,29.4948178 18.7048433,29.4897293 18.6695378,29.4792382 C18.6672134,29.4785472 18.6650775,29.4774792 18.6626903,29.4767254 L16.1264115,29.1950353 C15.5539222,32.7163499 12.4919559,35.4131996 8.81145239,35.4131996 C4.72474725,35.4131996 1.4,32.0883896 1.4,28.0016216 C1.4,23.9149165 4.72474725,20.5901064 8.81145239,20.5901064 C10.1614164,20.5901064 11.4281423,20.9531499 12.5194716,21.5863872 L14.7416446,18.1547184 L13.8848267,15.5726429 L11.5878965,15.5726429 C11.37977,15.5726429 11.2109695,15.4038424 11.2109695,15.1957159 C11.2109695,14.9875266 11.37977,14.818789 11.5878965,14.818789 L13.4957753,14.818789 C13.4957753,14.818789 12.3419389,14.3709997 11.7136017,14.1277562 C11.046064,13.8693099 10.7181375,13.5171973 10.5828207,12.7247083 C10.4782235,12.1124532 10.2485493,10.6092684 10.2485493,10.6092684 C10.4958762,10.0112738 12.6062276,5.63043996 20.4035276,5.46635108 C24.620084,5.37758478 24.8158348,5.38261047 25.6786206,6.92549824 C25.948626,7.40840453 29.9576842,14.4978356 29.9576842,14.4978356 L34.6268671,15.0765442 C35.0679974,15.1312614 35.3991905,15.5060525 35.3991905,15.9505122 L35.3991905,16.5965651 L35.3938507,16.5965651 C35.385684,17.0596199 35.2960382,17.7473859 34.8865698,18.2078651 C34.6168786,18.5112285 34.2430927,18.6715481 33.8057317,18.6715481 C33.5975424,18.6715481 33.4288047,18.5028104 33.4288047,18.2946211 C33.4288047,18.0864946 33.5975424,17.9176941 33.8057317,17.9176941 C34.0309456,17.9176941 34.1953486,17.8507896 34.3231896,17.7069291 C34.55946,17.4412584 34.6281864,16.9596086 34.6379865,16.5965651 L30.5698764,16.5965651 L31.9726102,20.8493065 C32.5924038,20.6806945 33.2439849,20.5901064 33.9164226,20.5901064 C38.0031906,20.5901064 41.3280006,23.9149165 41.3280006,28.0016216 Z M24.7747497,3.47561124 L24.3196732,2.63148327 C24.5890504,2.38019861 26.6431768,1.11925222 28.7259496,1.45716726 C31.5833702,1.9206618 31.5382647,4.53383373 31.5742612,4.70250856 L31.1537991,5.4533471 C31.1537991,5.4533471 30.9222403,5.51799008 30.5995908,5.59237034 C30.3474895,6.13828625 29.7734925,7.39602876 29.439598,8.11262977 C29.2835503,8.44790632 28.8792333,8.39099034 28.4070066,8.26566212 C27.8737806,8.12425168 27.3580816,7.99710165 27.3580816,7.99710165 C27.3580816,7.99710165 25.7321443,5.3289612 25.6421215,4.648608 C25.6340176,4.5871689 25.6289291,4.52547852 25.6266675,4.46372532 C25.2066452,4.26985921 24.9217513,4.13422831 24.9217513,4.13422831 L24.7747497,3.47561124 Z" id="Page-1"></path>
            </g>
        </g>
    </g>
</svg>