<?xml version="1.0" encoding="UTF-8"?>
<svg width="60px" height="60px" viewBox="0 0 60 60" version="1.1" xmlns="http://www.w3.org/2000/svg" xmlns:xlink="http://www.w3.org/1999/xlink">
    <!-- Generator: Sketch 49.2 (51160) - http://www.bohemiancoding.com/sketch -->
    <title>icone blanc</title>
    <desc>Created with Sketch.</desc>
    <defs></defs>
    <g id="icone-blanc" stroke="none" stroke-width="1" fill="none" fill-rule="evenodd">
        <g id="spelunking" transform="translate(-16.000000, -29.000000)" fill="#FFFFFF">
            <g id="velo-de-ville" transform="translate(25.000000, 41.000000)">
                <path d="M13.8738755,2.73199424 C13.6318868,0.691986004 14.9930418,0 16.2526547,0 C18.5498477,0 19.2737364,1.61446612 19.499987,2.18601092 C19.580503,2.38943252 19.641252,2.81698933 19.5762852,2.98641289 C19.5424168,3.07461891 19.4677554,3.1213977 19.2606423,3.1213977 C19.1504757,3.1213977 19.0092737,3.11925708 18.783149,3.1173683 C18.7616193,3.41793614 18.6796553,3.72032981 18.5274366,4.00692068 C18.3340471,4.37095153 17.6924371,5.57882629 17.3428,6.23681426 C17.1938548,6.51736104 16.8919984,6.47782258 16.4967208,6.33704551 C16.0573766,6.18059158 15.3917818,5.92718027 15.3917818,5.92718027 C15.3917818,5.92718027 14.2705381,3.72989963 14.2553036,3.08809221 L13.8738755,2.73199424 Z M32.9982856,35.5358832 C29.439717,35.5358832 26.5446659,32.6404465 26.5446659,29.0814815 C26.5446659,26.5458574 28.0144766,24.3474435 30.1465456,23.2926229 L32.5988531,29.2460572 C32.6675341,29.4128994 32.8286291,29.5136973 32.9984115,29.5136973 C33.0533059,29.5136973 33.1090187,29.5031831 33.1628429,29.4810214 C33.3834908,29.3901081 33.4886211,29.1375782 33.397718,28.9169058 L30.9449069,22.9622123 C31.5902311,22.7450026 32.2807551,22.6271427 32.9982856,22.6271427 C36.5568541,22.6271427 39.4519052,25.5225794 39.4519052,29.0814815 C39.4519052,32.6404465 36.5568541,35.5358832 32.9982856,35.5358832 Z M19.2053701,18.2042498 L17.3832153,16.2288378 L17.8211746,12.1811195 L18.5069771,10.1297786 C20.4929968,10.692635 23.0741047,11.3879578 24.7974244,11.7171722 C25.7135694,11.9396704 26.321374,11.7152204 26.7011024,11.4334774 L29.1019779,11.4334774 L29.6584763,14.4583585 L27.5198602,16.0662768 C27.3625424,16.1845144 27.3050669,16.394232 27.3799802,16.5761844 L28.0506112,18.2042498 L19.2053701,18.2042498 Z M21.6356443,27.1724287 C21.6356443,27.1724287 22.5250976,24.1078203 22.6883329,23.5585631 C22.9801169,22.5767753 22.8248765,22.0506241 22.3777262,21.6004649 C22.0907266,21.3134333 21.0673108,20.2150449 20.0209174,19.0856804 L28.3590776,19.0856804 L21.6356443,27.1724287 Z M16.0266559,28.718458 C15.923477,26.5638638 14.8842602,24.6508445 13.3078083,23.377492 L15.3117064,20.51832 L19.4398046,23.9582289 L18.532221,28.718458 L16.0266559,28.718458 Z M15.1615022,28.718458 L9.56466359,28.718458 L12.8110516,24.0864141 C14.1659113,25.2009202 15.0602749,26.8558691 15.1615022,28.718458 Z M8.71764018,35.5270059 C5.15907165,35.5270059 2.26402054,32.6315693 2.26402054,29.0726042 C2.26402054,25.5136392 5.15907165,22.6182655 8.71764018,22.6182655 C9.95446433,22.6182655 11.1109613,22.9683193 12.0938358,23.574114 L8.3567975,28.9062027 C8.26243198,29.0408098 8.25084875,29.2167811 8.32670629,29.3625949 C8.40256384,29.5084087 8.55327168,29.5998886 8.71764018,29.5998886 L15.1496672,29.5998886 C14.880546,32.9131234 12.0986832,35.5270059 8.71764018,35.5270059 Z M32.9982856,21.7630259 C32.1642933,21.7630259 31.3625955,21.9036141 30.6152256,22.1618103 L28.3061976,16.5561634 L29.9290454,15.3360115 L30.4282572,18.2504619 L35.5000106,18.2504619 L36.8396359,10.5861707 L26.5821225,10.5692976 C26.5821225,10.5692976 15.8603359,6.69005848 15.6809847,6.62508445 C15.1236679,6.42317388 14.5070499,6.63043599 13.7817133,7.32015546 C13.1800781,7.89232986 12.7069285,8.62568014 12.6490753,9.45466565 C12.4378073,12.4801133 12.3343137,14.0792174 12.2069612,15.7487729 C12.0704176,17.5387067 12.2060798,17.9684041 14.2366068,19.6184422 C14.3647147,19.7258509 14.6332693,19.9507416 14.6332693,19.9507416 L12.5902778,22.8657586 C11.4663272,22.1618103 10.1387887,21.7540857 8.71764018,21.7540857 C4.68271148,21.7540857 1.4,25.037163 1.4,29.0726042 C1.4,33.1080455 4.68271148,36.3911227 8.71764018,36.3911227 C12.5753581,36.3911227 15.7450702,33.3901033 16.0162058,29.5998886 L18.3652085,29.5998886 C18.1377618,30.8022859 17.9424837,31.8434444 17.8643599,32.2838449 C17.6920594,33.2548037 18.0270916,34.5602024 19.4074471,34.8812321 L21.0233071,29.2875474 L28.7753183,19.9636483 L29.8166755,22.4917172 C27.370978,23.6775562 25.6805824,26.185793 25.6805824,29.0814815 C25.6805824,33.1169227 28.9632939,36.4 32.9982856,36.4 C37.0332772,36.4 40.3159887,33.1169227 40.3159887,29.0814815 C40.3159887,25.0461032 37.0332772,21.7630259 32.9982856,21.7630259 Z" id="Fill-1"></path>
            </g>
        </g>
    </g>
</svg>