<?xml version="1.0" encoding="UTF-8"?>
<svg width="60px" height="60px" viewBox="0 0 60 60" version="1.1" xmlns="http://www.w3.org/2000/svg" xmlns:xlink="http://www.w3.org/1999/xlink">
    <!-- Generator: Sketch 49.2 (51160) - http://www.bohemiancoding.com/sketch -->
    <title>icone blanc</title>
    <desc>Created with Sketch.</desc>
    <defs></defs>
    <g id="icone-blanc" stroke="none" stroke-width="1" fill="none" fill-rule="evenodd">
        <g id="spelunking" transform="translate(-16.000000, -29.000000)" fill="#FFFFFF">
            <g id="velo-tout-chemin" transform="translate(25.000000, 41.000000)">
                <path d="M21.4991121,12.4220347 C21.4991121,12.4220347 23.9714614,14.185174 25.3986563,15.1627353 C26.4607875,15.8902644 27.823075,15.0103889 27.823075,15.0103889 L23.2066146,11.2354846 L21.4991121,12.4220347 Z M39.232018,29.2622875 C39.1851724,27.741317 38.5498212,26.3297315 37.4430782,25.2874726 C36.3801812,24.2864488 35.0044271,23.7412495 33.5522139,23.7412495 C33.4922847,23.7412495 33.4324832,23.7421445 33.3722987,23.7440624 C32.6715296,23.7656709 32.004331,23.9148847 31.391126,24.1674741 C32.2014781,26.0248469 32.9697075,27.5036873 33.4427586,28.3696898 C33.4555868,28.3688587 33.4681598,28.3669408 33.4811158,28.3665572 C34.092789,28.3476338 34.603942,28.8290305 34.6228334,29.4417404 C34.6417248,30.0545143 34.1611427,30.5665336 33.5494695,30.5854571 C32.9377963,30.6043166 32.4265795,30.1229199 32.4076881,29.51021 C32.3999656,29.2580681 32.477765,29.0236989 32.6135151,28.8330581 C32.1340179,27.9553563 31.3611934,26.4676296 30.5451611,24.6031605 C28.8830362,25.6427983 27.7986949,27.5142997 27.8633469,29.6136495 C27.9101925,31.1346201 28.5454799,32.5461416 29.6522867,33.5884645 C30.7589659,34.6307234 32.2023716,35.1800782 33.7230662,35.1319385 C35.2413994,35.0850135 36.6505964,34.4485854 37.6911556,33.3400305 C38.731651,32.2314117 39.2788636,30.783258 39.232018,29.2622875 Z M28.7571786,20.0821234 L28.5211636,19.4546455 L24.6209812,19.9503626 C24.5627115,20.9460162 24.4501289,22.8335003 24.3550336,24.4241551 L28.7571786,20.0821234 Z M22.8172985,25.9408423 C22.8172985,25.9408423 22.3545228,21.3388691 22.2342815,20.2537128 L18.4559997,20.7338948 C18.5372456,21.1038606 18.5984512,21.3879678 18.6188105,21.4931974 C18.7687291,22.2683547 18.7285211,22.7232202 18.3404175,23.9087474 L20.0809162,28.6398601 L22.8172985,25.9408423 Z M19.2088479,29.0201827 L17.860346,25.3546635 L16.6865257,29.0201827 L19.2088479,29.0201827 Z M16.9025643,16.8916078 L16.9236257,17.2227039 L17.7958216,17.8053664 L18.2492792,19.8012767 L21.7149592,19.3607955 L16.9025643,16.8916078 Z M16.0686618,22.5505439 L15.8931504,22.1762948 L14.3393958,24.2162531 C14.7631761,24.5903744 15.1410043,25.0153843 15.4636899,25.4813738 L16.0686618,22.5505439 Z M15.2881785,30.7282778 C15.0828621,30.5519575 14.8918419,30.3053775 14.8137234,29.9715325 L10.7217549,29.9715325 C10.5333514,30.315031 10.1689897,30.5479938 9.75012376,30.5479938 C9.13813147,30.5479938 8.6419767,30.051062 8.6419767,29.4380324 C8.6419767,28.8250029 9.13813147,28.3280711 9.75012376,28.3280711 C9.83334808,28.3280711 9.91421097,28.3380442 9.99226567,28.3554333 L12.8181268,24.6452268 C11.9322729,24.0741995 10.8795237,23.7413134 9.75012376,23.7413134 C6.61427755,23.7413134 4.06304385,26.2968073 4.06304385,29.4380324 C4.06304385,32.5792576 6.61427755,35.1346875 9.75012376,35.1346875 C12.4428516,35.1346875 14.7029916,33.2498246 15.2881785,30.7282778 Z M13.5723153,25.2233503 L10.7401995,28.9418039 C10.7530916,28.967504 10.7654093,28.9933958 10.776323,29.0201827 L14.8331254,29.0201827 C14.8877573,28.606872 14.9775553,28.0649331 15.0846491,27.4698041 C14.7654099,26.6027787 14.2426412,25.8338226 13.5723153,25.2233503 Z M38.6113459,34.2065445 C37.3398137,35.5614236 35.6175682,36.3391382 33.7619978,36.3965478 C33.6886022,36.3988493 33.6152703,36.4 33.5421937,36.4 C31.767231,36.4 30.0861509,35.7336524 28.7871113,34.5102144 C27.4345885,33.2364631 26.6581261,31.5113625 26.6009413,29.6526471 C26.5196955,27.0167926 27.9196382,24.6732283 30.0458152,23.4258164 C29.8898334,23.045366 29.1249229,21.0545063 29.1249229,21.0545063 L24.2701499,25.8429647 C24.2238787,26.6152451 24.1926696,27.1353197 24.1926696,27.1353197 C24.1926696,27.1353197 23.7205758,27.0779102 23.3250051,26.7751992 C23.3250051,26.7751992 20.3058899,29.7518033 20.2230485,29.8347851 C20.1205499,29.9374575 20.0458777,29.9715325 19.8885557,29.9715325 L16.6777182,29.9715325 C16.4044949,33.5617415 13.4029308,36.4 9.75012376,36.4 C5.91784832,36.4 2.8,33.2768033 2.8,29.4380324 C2.8,25.5992616 5.91784832,22.4760649 9.75012376,22.4760649 C11.1672985,22.4760649 12.4861231,22.9040796 13.5863562,23.6365313 L15.4377781,21.2057019 L13.5456375,17.1717513 C13.1892537,16.7583766 12.09068,15.2850983 12.7904918,13.5222147 C13.6182674,11.4370575 18.939773,6.21131447 19.6039719,5.54598975 C20.254832,4.89396258 21.4451184,4.75350727 22.383179,5.57175374 C23.4782425,6.52681149 32.1556537,14.0912601 32.1556537,14.0912601 C32.1556537,14.0912601 30.6892081,14.9513171 29.7209596,14.2251945 C28.566669,13.3596394 25.2641188,10.7929577 24.2479397,9.99088565 L19.0067864,13.704033 C20.1494614,14.5183158 23.6597532,17.0222178 24.1046586,17.366995 C24.5614988,17.7210421 24.6955895,18.040311 24.6705712,18.9851399 L28.1793313,18.5392247 C27.8419664,17.6318591 27.5015381,16.6898431 27.5015381,16.6898431 L27.0646743,16.769117 C27.0360819,16.7742953 27.0075533,16.7767886 26.9794715,16.7767886 C26.7543063,16.7767886 26.554351,16.6158116 26.5128027,16.3859175 C26.4660209,16.1274465 26.63732,15.8798437 26.8953537,15.8331105 L32.006118,14.9057347 C32.2640878,14.8591933 32.5112079,15.0304631 32.5579896,15.2889341 C32.6047714,15.5473412 32.4334723,15.794944 32.1754386,15.8417411 L28.4491082,16.517934 C28.7241825,17.2807528 30.7544983,22.6482936 30.8991197,23.0024686 C31.6521594,22.6905517 32.4719571,22.5059843 33.3333671,22.4793893 C35.1877886,22.41987 36.9556671,23.0917795 38.3082537,24.3656587 C39.6608402,25.6394739 40.437175,27.3645745 40.4944236,29.2232899 C40.5517361,31.0820692 39.8829419,32.8517933 38.6113459,34.2065445 Z M22.9827897,1.06721069 L22.8717389,0.189636706 C23.1864468,0.062862524 25.3691066,-0.339771768 27.0462935,0.642840024 C29.3471522,1.99087856 28.4417687,4.22448238 28.4168141,4.38155962 L27.8066089,4.88795311 C27.8066089,4.88795311 27.4933051,4.85771399 27.1018827,4.79608498 C27.0512078,4.83597762 25.3709574,5.97099972 24.7056096,6.41288734 C24.4219194,6.60154624 24.1317193,6.36212652 23.8210322,6.0361449 C23.4703285,5.66809701 23.12639,5.31973971 23.12639,5.31973971 C23.12639,5.31973971 23.1307937,3.03217855 23.3130065,2.12404579 C23.0578448,1.85969317 22.8905665,1.68273354 22.8905665,1.68273354 L22.9827897,1.06721069 Z" id="Fill-1"></path>
            </g>
        </g>
    </g>
</svg>