<?xml version="1.0" encoding="UTF-8"?>
<svg width="60px" height="60px" viewBox="0 0 60 60" version="1.1" xmlns="http://www.w3.org/2000/svg" xmlns:xlink="http://www.w3.org/1999/xlink">
    <!-- Generator: Sketch 49.2 (51160) - http://www.bohemiancoding.com/sketch -->
    <title>icone blanc</title>
    <desc>Created with Sketch.</desc>
    <defs></defs>
    <g id="icone-blanc" stroke="none" stroke-width="1" fill="none" fill-rule="evenodd">
        <g id="spelunking" transform="translate(-16.000000, -29.000000)" fill="#FFFFFF">
            <g id="vtt" transform="translate(25.000000, 41.000000)">
                <path d="M35.6885073,34.209186 C34.4118694,35.561328 32.6819001,36.3381468 30.8176478,36.3964727 C30.7423987,36.3988662 30.6673396,36.4 30.5924072,36.4 C28.8106883,36.4 27.1229673,35.7365579 25.8180794,34.5181372 C24.4583382,33.2485082 23.6771537,31.528333 23.6184999,29.6744365 C23.5597828,27.820603 24.2306273,26.0549512 25.5074552,24.7028092 C26.6591845,23.4829398 28.1799386,22.7315678 29.8354823,22.5533146 L29.7892433,20.9509252 C29.7892433,20.9509252 21.9258384,25.5974136 21.7526641,25.6953584 C21.6062831,25.7781863 21.4603454,25.77995 21.3299263,25.736111 C21.1098163,25.6620383 18.9294291,24.8330663 18.9294291,24.8330663 C18.6181714,25.5037519 18.1968904,26.1275122 17.6735671,26.6816719 C16.3969293,28.033814 14.6669599,28.8106327 12.8026443,28.8690217 C12.7274585,28.8713522 12.6523361,28.872486 12.5774671,28.872486 C10.7957481,28.872486 9.10796385,28.2090438 7.80313927,26.9906232 C6.44339805,25.7210571 5.66221351,24.000819 5.60355975,22.1469854 C5.5447793,20.2930889 6.21562382,18.5274372 7.49251501,17.1752951 C8.76915284,15.8231531 10.4990589,15.0463973 12.3633745,14.9880084 C14.3964939,14.9244545 16.2565656,15.736105 17.5769721,17.0799958 L16.0684429,11.8952834 C16.0684429,11.8952834 15.1516452,9.30721033 16.3843878,8.00004101 C16.5204442,7.85573778 16.7817892,7.67943715 17.1345986,7.48096509 C17.1345352,7.48052418 17.1344085,7.48002029 17.1343452,7.47957938 L18.8449955,6.59832818 L18.7089391,6.44262431 L17.085826,7.11608137 C17.033253,6.66244896 17.0073465,6.15080551 17.0597295,5.6709705 C17.2123813,4.27404469 18.2506036,3.9691246 18.8694452,3.7548428 C20.4537302,3.20628897 23.5287457,2.5595384 24.3879664,2.74012214 C25.0396819,2.87711888 25.3594273,3.5881162 25.4744545,3.91766421 C25.6233059,3.85669279 25.7629728,3.79893371 25.8909216,3.74514281 C26.6027477,3.44582855 26.9382016,3.84642591 27.7528302,4.97452318 C28.7637526,6.37453535 29.0791907,7.81366246 29.0791907,7.81366246 L31.3115176,16.7370945 C31.3115176,16.7370945 29.8933759,16.7269536 29.5355626,15.9162479 C29.2881527,15.3556005 27.1166332,9.39041617 27.1166332,9.39041617 L22.840039,10.6607381 C23.8318957,12.1415626 25.4132671,14.5014337 25.6932977,14.912361 C26.0937395,15.4999038 26.266217,15.9363407 26.1624644,16.6155926 C26.1241431,16.7926491 26.0503509,17.1184179 25.9542626,17.5364626 L29.7186181,18.5015495 L29.6951186,17.6868756 C29.6906848,17.5350139 29.7599798,17.3903957 29.8812145,17.2981198 C30.0025758,17.2057808 30.1611817,17.1771847 30.3073094,17.2210867 L31.7821412,17.6640113 L31.7679528,16.9842555 C31.7623788,16.7205289 31.9727976,16.502342 32.237943,16.4967991 C32.5005548,16.4905634 32.7226283,16.700625 32.728139,16.9643516 L32.7868561,19.7667065 C32.7924301,20.0303701 32.5818846,20.2486201 32.3167392,20.2541 C32.3133821,20.2541629 32.3099617,20.2542259 32.3065413,20.2542259 C32.0458931,20.2542259 31.8320539,20.0468727 31.8265432,19.7865474 L31.802917,18.6571904 L30.6637292,18.315045 L30.7848372,22.5148296 C34.4518376,22.6100659 37.4606617,25.5461422 37.5773992,29.2375586 C37.6361796,31.0913922 36.9653351,32.8570439 35.6885073,34.209186 Z M25.7394099,18.4677255 C25.406933,19.9025065 24.9711469,21.7638985 24.7205699,22.83241 L29.7576995,19.8586675 L29.7472483,19.4952325 L25.7394099,18.4677255 Z M20.5553292,16.1522602 L23.67481,16.9520692 C23.688555,16.7758315 23.6962193,16.6759341 23.6962193,16.6759341 L20.0204145,12.7352781 L20.5553292,16.1522602 Z M30.8363334,24.3008261 L30.9546544,28.4005873 C31.3858166,28.5447646 31.7030283,28.9422126 31.7181034,29.4209138 C31.7376125,30.0361709 31.2519137,30.5505858 30.6331988,30.5699228 C30.0145473,30.5893228 29.4972413,30.1062754 29.4777957,29.4910813 C29.4646841,29.0790203 29.6789667,28.7130658 30.0073264,28.5098698 L29.8871052,24.3437832 C28.7127631,24.5030774 27.6370429,25.0521351 26.8144333,25.9232454 C25.8655852,26.9282661 25.3670282,28.2405373 25.4106068,29.6183781 C25.4541854,30.9962188 26.0348323,32.2747291 27.0453746,33.2183374 C28.0559169,34.1620087 29.3773368,34.6579684 30.7612743,34.6143814 C32.1468587,34.5710463 33.4324909,33.9937074 34.3814658,32.9887498 C35.3303773,31.9837921 35.8289343,30.6714578 35.7853557,29.2936171 C35.6995286,26.5835382 33.5163544,24.4215092 30.8363334,24.3008261 Z M19.9319271,18.3983138 C19.7666704,18.6330664 19.4824594,19.037128 19.1363641,19.5296864 C19.3893481,20.2116467 19.5382628,20.9445005 19.562459,21.7100446 C19.5867186,22.4760925 19.4861331,23.2269606 19.2699503,23.9399106 L20.898194,24.5525222 L19.934144,18.3942826 C19.9334473,18.3956684 19.9327505,18.3969281 19.9319271,18.3983138 Z M13.764414,21.8688348 L15.2163164,22.4149952 C15.5373286,21.7817868 16.2051961,20.3629415 16.7582897,19.1774001 L13.7214055,21.630618 C13.7448417,21.7070212 13.7597901,21.7865738 13.764414,21.8688348 Z M15.5769167,24.596928 C15.5769167,24.596928 15.0783597,24.0545469 15.0079245,23.3578476 L13.3738534,22.7431575 C13.1678685,22.9207808 12.9006962,23.0335905 12.6182587,23.0424087 C11.9996705,23.0618087 11.4823012,22.5787614 11.4628555,21.9635673 C11.4434098,21.3483732 11.9290453,20.8339583 12.5477601,20.8145583 C12.7317657,20.8088265 12.9120976,20.8483194 13.0755807,20.9217622 L16.2917832,18.3236112 C15.3463555,17.3626185 14.0303195,16.7675172 12.5851947,16.7675172 C12.5302147,16.7675172 12.475108,16.7683361 12.419748,16.7700997 C11.0341636,16.8134978 9.74853137,17.3908367 8.79949318,18.3957943 C7.85064502,19.400752 7.35208802,20.7130233 7.39560328,22.090864 C7.43924523,23.4687678 8.01982883,24.747215 9.03043446,25.6908233 C10.0411034,26.6344947 11.36227,27.1303914 12.7463342,27.0869303 C14.1319185,27.0435323 15.4175508,26.4661934 16.3665256,25.4612357 C16.7260491,25.0804793 17.0205214,24.6555059 17.245762,24.199732 L16.1464156,23.7860963 C15.7997503,24.2795995 15.5769167,24.596928 15.5769167,24.596928 Z M17.7545803,21.4963297 C17.3923331,22.0120043 17.0330629,22.5235218 16.7136976,22.9782879 L17.5864099,23.3066392 C17.7236065,22.8117503 17.7870742,22.2938711 17.7703522,21.766103 C17.7675018,21.6755277 17.7620545,21.5856453 17.7545803,21.4963297 Z M21.865031,24.5182572 L23.1008139,23.7886788 C23.2406708,22.3895484 23.4694585,19.555889 23.5988642,17.9189827 L20.7162153,17.1798932 L21.865031,24.5182572 Z M28.6526525,5.57397051 C28.8657316,5.94212956 29.0795075,6.2264529 29.3836709,6.11735941 C30.0968272,5.86188411 31.3919606,5.38582833 31.7865751,5.24435951 C31.8453555,5.22325886 31.9022357,5.19944978 31.9579758,5.17419199 C32.3050845,5.31843223 32.5872053,5.41637702 32.5872053,5.41637702 L33.2641305,5.08953745 C33.3224676,4.95128097 34.6604195,3.10910002 32.8415827,1.35881711 C31.515919,0.0829523273 29.4119844,-0.0377937624 29.0931891,0.00768285559 L28.9980509,0.836087953 L28.7744572,1.37909893 C28.7744572,1.37909893 28.8887244,1.5784528 29.064749,1.87789303 C28.6921772,2.66863189 28.1730978,4.76219398 28.1730978,4.76219398 C28.1730978,4.76219398 28.4118933,5.15838225 28.6526525,5.57397051 Z M29.9484193,9.44861616 L33.3397597,15.5381999 C33.3397597,15.5381999 31.8984986,15.8802823 31.452578,15.0559084 L29.9484193,9.44861616 Z" id="Fill-1"></path>
            </g>
        </g>
    </g>
</svg>