<?xml version="1.0" encoding="UTF-8"?>
<svg width="60px" height="60px" viewBox="0 0 60 60" version="1.1" xmlns="http://www.w3.org/2000/svg" xmlns:xlink="http://www.w3.org/1999/xlink">
    <!-- Generator: Sketch 49.2 (51160) - http://www.bohemiancoding.com/sketch -->
    <title>icone blanc</title>
    <desc>Created with Sketch.</desc>
    <defs></defs>
    <g id="icone-blanc" stroke="none" stroke-width="1" fill="none" fill-rule="evenodd">
        <g id="spelunking" transform="translate(-16.000000, -29.000000)" fill="#FFFFFF">
            <g id="equitation" transform="translate(25.000000, 41.000000)">
                <path d="M42.4436465,6.74147276 C42.1505652,6.89053632 41.7828588,7.16650975 41.429973,7.46097725 L41.591628,6.55940741 C41.2076647,6.81656001 40.8933645,7.12579664 40.5334275,7.5684128 C39.1732664,7.12187563 37.731429,6.53509718 36.2113104,6.68180813 C34.7351312,6.82427133 33.5987147,7.41980669 32.3293703,8.5175575 C31.6360688,9.11720993 28.2872768,12.1022713 28.2872768,12.1022713 C28.9060185,12.6555252 32.9621491,15.8257887 34.783249,16.5022929 L36.658408,13.0979453 L37.548751,14.3827281 L37.7556511,17.7981198 C36.4648267,17.5374383 35.4237319,17.2356516 34.5585903,16.9102081 C32.5429299,16.1520817 28.5783995,12.9800537 27.9422256,12.4102663 C27.3004369,11.8354469 26.9040688,11.4453069 26.8991068,11.4377263 L26.8990415,11.4377263 C27.1234391,11.246708 27.1560834,11.0142577 27.1560834,11.0142577 L23.6598694,9.72535786 C23.6513166,8.81712231 23.6425026,7.75413775 23.6425026,7.22545553 C23.6425026,6.19717186 23.1836531,5.13529826 22.5899169,4.95911441 C22.3617327,4.89141172 21.3244246,4.57217653 21.0126707,4.4768961 C20.9648793,4.46232303 20.9140193,4.45552662 20.8610048,4.45552662 C20.2851578,4.45539592 19.4470458,5.25684942 19.313922,5.55850544 C19.1904609,5.83846522 19.0894591,7.01862249 19.2960328,8.1896961 C19.6096801,9.96747994 20.2933189,10.9385823 20.2933189,10.9385823 C20.2933189,10.9385823 20.1087475,11.7261162 19.923001,12.5411625 C19.7024555,13.5088013 19.8195183,14.0060501 19.8195183,14.0060501 L17.1445718,14.0440185 C12.5056083,11.7516681 8.44092486,14.5485866 8.44092486,14.5485866 L8.44203477,14.5465607 C8.44203477,14.5465607 7.21382229,13.9977507 6.43636353,13.9977507 C3.00791926,13.9977507 1.08601352,15.7574979 1.08601352,18.806341 L1.08601352,25.3944796 C1.08601352,25.9862246 0,25.9862246 0,25.9862246 C0,25.9862246 0.280676454,26.6833141 1.10990921,26.6833141 C2.5027147,26.6833141 3.90635812,24.510685 3.90635812,22.0380336 C3.90635812,19.3070534 4.30305273,17.7817169 5.06529921,16.5976387 C5.82754568,15.4135604 7.25247325,14.8821988 7.25247325,14.8821988 L8.01060653,14.8957916 C5.31013212,17.3981772 5.55078656,20.7810246 5.55078656,21.9354993 L5.89773112,23.8188236 C5.89773112,23.8188236 3.98803438,27.3442649 3.7895565,27.6635654 C3.35009774,28.370588 3.33051111,28.6765571 3.47910836,29.2969255 C3.66955573,30.0920401 4.35541433,33.3599367 4.77979138,35.1407266 C5.15481012,36.7145528 6.31407765,36.3497033 6.31407765,36.3497033 L5.56325671,29.3572437 L10.5129948,24.2525521 L11.9374,25.9624372 C11.9374,25.9624372 11.9042986,28.6447316 11.9042986,28.7772616 C11.9042986,29.2437959 12.0467587,29.610802 12.3694812,30.0107446 C12.5408642,30.2231324 15.7889809,34.6996135 16.5724462,35.6798649 C17.3559115,36.6601162 18.4984651,36.2026656 18.4984651,36.2026656 L14.7226193,29.204978 L16.0618227,24.2917622 L15.1306741,23.0019474 L15.5115036,22.9856099 C17.2743006,24.9624501 21.9470836,24.501536 21.9470836,24.501536 C21.9372903,24.547281 21.9282152,24.5893011 21.92025,24.6266814 C21.6906946,25.696397 22.877057,26.3061133 22.877057,26.3061133 C22.877057,26.3061133 22.889723,26.271151 22.9130311,26.2067158 C22.9138799,26.2044939 22.914598,26.2024681 22.9154468,26.2001808 C23.0040437,25.9553794 23.2382345,25.3085442 23.5324257,24.4957198 C24.2654228,22.4707166 25.3713494,19.4150771 25.5293483,18.9749442 C25.7991215,18.2233528 25.7702639,17.7678627 25.4622314,17.0812293 C25.2077358,16.5141212 24.208948,13.9213564 24.208948,13.9213564 L24.2080993,13.9192652 L23.7329276,11.6552767 L21.693045,11.1633866 L21.6489098,10.946555 C21.6489098,10.946555 25.4359853,11.6102505 25.6533317,11.6441018 C25.9364891,11.6882132 26.3265895,11.6839001 26.5157964,11.6324695 C27.164114,12.3036803 26.6236535,11.7782656 27.6256403,12.6883309 L25.3282588,13.9323352 L24.7240765,13.9405694 C24.9589202,14.5482598 25.6842785,16.4189715 25.8942472,16.8870088 C26.258428,17.698657 26.2795816,18.2869385 25.9750748,19.135248 C25.8224296,19.5603503 24.0423964,24.4785981 24.0423964,24.4785981 L25.4992501,24.3972372 C25.4992501,24.3972372 23.2831532,33.1712056 22.8837164,34.5796308 C22.484345,35.9881212 23.7216326,36.3659101 23.7216326,36.3659101 L29.3846506,24.4931711 L30.2439162,24.0630369 L36.4855233,25.8773514 C36.4855233,25.8773514 35.8673691,30.9278024 35.7020579,32.0856099 C35.5367468,33.2434175 36.7466784,33.8173873 36.7466784,33.8173873 C36.7466784,33.8173873 38.7111524,26.0063525 38.8359193,25.583276 C38.983276,25.0834132 38.8432969,24.5587826 38.4688658,24.3756717 C38.221813,24.2549047 33.8568665,22.1448157 33.8568665,22.1448157 L33.4973212,20.0596904 L34.3409175,17.3330232 C35.8067159,17.8867345 37.7918864,18.3665349 40.6871172,18.6839403 L42.0318702,11.4730807 L42.0339594,11.4618404 L41.7151543,8.85567887 L42.4436465,6.74147276 Z M20.4130585,2.75394098 C20.2361259,2.34942393 20.0097698,1.83707922 20.228683,1.1664566 C20.4510566,0.485247268 21.2923678,-0.163156323 22.3522005,0.036814952 C23.4840467,0.250313695 23.9300344,1.26173703 23.8883149,2.2585873 C24.0496434,2.3253751 24.2970226,2.44156756 24.2088828,2.49404368 C24.0220263,2.60520418 23.7291408,2.67297222 23.389835,2.71152878 C23.3889863,2.71322788 23.3882681,2.71492698 23.3873541,2.71662608 C23.2493336,2.97665409 22.7629322,3.8930584 22.5134638,4.36299089 C22.4071737,4.56335427 22.1773572,4.45696432 21.8924369,4.3649514 C21.5703021,4.26091405 21.2815951,4.16824763 21.2815951,4.16824763 C21.2815951,4.16824763 20.8509504,3.40587348 20.5717103,2.77367671 L20.4130585,2.75394098 Z" id="Fill-1"></path>
            </g>
        </g>
    </g>
</svg>