<?xml version="1.0" encoding="UTF-8"?>
<svg width="60px" height="60px" viewBox="0 0 60 60" version="1.1" xmlns="http://www.w3.org/2000/svg" xmlns:xlink="http://www.w3.org/1999/xlink">
    <!-- Generator: Sketch 49.2 (51160) - http://www.bohemiancoding.com/sketch -->
    <title>icone blanc</title>
    <desc>Created with Sketch.</desc>
    <defs></defs>
    <g id="icone-blanc" stroke="none" stroke-width="1" fill="none" fill-rule="evenodd">
        <g id="spelunking" transform="translate(-16.000000, -29.000000)" fill="#FFFFFF">
            <g id="equitation-western" transform="translate(25.000000, 41.000000)">
                <path d="M27.6981706,28.765344 L32.9898872,36.3028922 L29.4578115,36.3127634 L22.833809,31.7964712 L15.4866809,32.2880676 C15.4866809,32.2880676 17.5955117,26.4694518 17.7763632,25.9665822 C18.1371124,24.9630303 18.1120861,24.2669994 17.6806348,23.3067461 C17.4318307,22.7530623 16.5724633,20.5398414 16.2942561,19.8208712 L17.0100309,19.8111683 L20.2142395,18.0786629 L20.9685637,17.3286771 L31.269918,20.7181397 L28.4994051,24.6266247 L27.6981706,28.765344 Z M21.7897744,32.4774709 L20.0974127,36.3390118 L16.2027362,36.3498925 C16.5740345,34.845434 16.9019015,33.5143942 17.0773101,32.7994062 L21.7897744,32.4774709 Z M16.2925727,6.33150237 C15.9750866,6.32578157 15.5691106,6.15096062 14.8964304,6.00524844 C14.8614161,6.18063026 14.8013754,6.35455384 14.7123244,6.52202749 C14.5488678,6.82960468 14.0072111,7.84863643 13.711665,8.40461978 C13.5857479,8.64169652 13.278867,8.58095507 12.9412364,8.47209159 C12.5596694,8.34909436 12.2176059,8.2393335 12.2176059,8.2393335 C12.2176059,8.2393335 11.3232802,6.6585976 11.1352463,5.9473674 C10.7484047,5.99963982 10.4340047,6.04619143 10.16399,6.0430506 C8.7310938,6.0262808 9.04857996,5.24802749 10.0611352,4.92996216 C10.4583016,4.80522626 10.8431792,4.8218278 11.2127941,4.89681516 C11.2597044,4.55440838 11.3294526,4.1473902 11.4218704,3.88047556 C11.6063692,3.34748758 12.5239817,3.64609097 13.0901036,3.64609097 C13.6561694,3.64609097 13.7896057,3.65237263 14.2275099,3.65237263 C14.6784322,3.65237263 14.7695033,3.87223088 15.008151,5.14550176 C15.3247955,5.1821261 15.6607989,5.25049529 16.006622,5.3657526 C17.0094136,5.69985861 16.7216111,6.33929837 16.2925727,6.33150237 Z M17.31405,10.4125649 C17.6575164,10.2891751 17.9018876,10.0933779 18.1035008,9.86577972 C18.5108797,9.40592826 19.1890027,8.54663026 19.7481667,7.89131809 C20.2111533,8.08274059 20.6114058,8.16782348 21.0308489,8.16782348 C21.2090631,8.16782348 21.3909808,8.15234367 21.5825499,8.12345923 C20.2982403,9.06503581 18.1533851,10.8308004 17.6053315,12.4707634 C17.4043916,12.4252213 17.2034517,12.4027868 17.0072813,12.406152 C16.4232033,12.4156306 15.9478158,12.6442944 15.6687108,13.0499665 C15.6074356,13.1390315 15.558898,13.2338734 15.5212463,13.3327535 L15.0808171,11.1900891 C15.0808171,11.1900891 16.998135,10.5260275 17.31405,10.4125649 Z M24.9673856,1.72115353 C26.2877195,0.904761541 27.5522773,0.477047519 28.7259324,0.450013929 C28.7644258,0.449060462 28.8026947,0.448667858 28.8409636,0.448667858 C29.7673858,0.448667858 30.6242281,0.708964314 31.325133,1.20448666 C32.5194376,2.04892179 32.963907,3.3187714 32.7855805,4.13673381 C32.7055637,4.50387464 32.4625953,4.96939082 31.7593898,5.10209097 C27.5286538,5.90070361 25.1100243,6.64962379 23.5095753,7.14520222 C21.7249641,7.6978204 21.0503762,7.9060127 20.0490434,7.52815938 C20.5291445,6.85142225 20.5913736,5.90333966 20.2385924,5.67389066 L19.1191423,6.62853535 C19.235408,5.69985861 21.1999168,4.05058527 24.9673856,1.72115353 Z M18.4238487,13.3180028 C18.8693843,13.624234 19.2021892,14.032486 19.3608762,14.4674913 C19.4890378,14.8188158 19.4880278,15.1494444 19.3614934,15.4150691 L18.7880207,15.2194962 C18.4461255,14.9106851 18.0419451,14.3472984 17.9315712,13.3653957 C17.9201242,13.2634309 17.9207415,13.1569791 17.9320201,13.0467696 C18.100134,13.1184478 18.2654423,13.2091394 18.4238487,13.3180028 Z M15.9047211,14.1714118 C15.8331212,13.8531221 15.8711096,13.5476201 16.0386063,13.3042056 C16.2331493,13.0214746 16.5797019,12.8618531 17.014576,12.8547862 C17.0247885,12.8545618 17.034945,12.8545058 17.0451575,12.8545058 C17.1937441,12.8545058 17.3458659,12.8723412 17.4986049,12.9063856 C17.4725686,13.0788509 17.4667329,13.2490167 17.4854745,13.4155369 C17.5579723,14.0603048 17.7438739,14.5507233 17.9668662,14.921005 L15.9047211,14.1714118 Z M32.5590532,18.8994857 L34.3299728,19.4366802 L35.6114206,20.7947535 L32.0511202,19.6161002 L32.5590532,18.8994857 Z M5.37953299,30.8430605 L5.6085854,30.8497347 C7.2499406,32.4903147 13.0042511,32.3152133 13.0042511,32.3152133 C12.9926357,32.3693366 12.9819743,32.419029 12.9724351,32.4632811 C12.7005686,33.728756 14.1060257,34.4500817 14.1060257,34.4500817 C14.1060257,34.4500817 17.0610935,26.2976035 17.2482858,25.7768984 C17.5679042,24.8877625 17.5337315,24.3488293 17.168774,23.5365316 C16.8672799,22.8656275 15.6839734,19.7982124 15.6839734,19.7982124 L15.6829634,19.7957446 L15.6276362,16.0259609 C15.6276362,16.0259609 17.4389009,16.3266956 18.0352115,16.4238931 C18.6315222,16.5211467 19.1069658,16.3773976 19.4764685,16.1621384 L21.4759917,16.8240688 C21.4703243,16.8296774 38.7907713,22.5432435 38.7907713,22.5432435 C39.6801029,21.4252756 40.1691819,20.3313686 39.7504122,19.5918149 C39.3295663,18.8486716 36.3938573,13.2930444 36.3938573,13.2930444 L36.3875727,13.281042 L32.3060967,9.24860622 L32.3996368,10.3142457 L31.1838409,9.39813227 L31.2914092,11.0018635 C28.6560159,11.0018635 26.5102067,11.8074309 25.1049741,13.2119998 C24.6520878,13.6646722 22.0108588,16.2921464 22.0108588,16.2921464 L19.7904757,15.5570796 C19.9468621,15.1929113 19.9457398,14.7610469 19.7826199,14.3138149 C19.5922292,13.7918759 19.1999447,13.3068978 18.678208,12.948282 C18.4714885,12.8061594 18.2534342,12.6905655 18.030947,12.6027905 C18.2952943,11.8099548 19.0432217,10.852001 20.2403319,9.78333288 C21.4039429,8.74461485 22.6120512,7.94706786 22.7834197,7.83545615 C23.0440636,7.75889837 23.3274893,7.67129159 23.6424504,7.57375753 C25.2331918,7.08120777 27.6370637,6.33683057 31.8427173,5.54304136 C32.5797027,5.40389128 33.0702968,4.9383751 33.2242142,4.23224875 C33.4687537,3.11029867 32.7791276,1.68290268 31.5843179,0.838131032 C30.7752837,0.266106995 29.7833218,-0.0228495532 28.7155516,0.00137972265 C27.4609257,0.0303763328 26.1204473,0.480580955 24.7312068,1.33954243 C19.2754164,4.71296431 18.6234419,6.01511963 18.6650215,6.77262102 C18.6690055,6.84620622 18.6812381,6.9170432 18.7007092,6.98541239 L16.4444701,8.90962071 L13.8025116,9.20833627 C13.8025116,9.20833627 12.2665923,8.73754798 11.8972579,8.62481455 C11.8406401,8.60753997 11.780375,8.59951963 11.7175848,8.59951963 C11.0353094,8.59940746 10.0424497,9.54754613 9.88471664,9.90447926 C9.73837448,10.2356688 9.61874201,11.6318808 9.863506,13.0172682 C10.2350849,15.1205039 11.0450169,16.2694315 11.0450169,16.2694315 C11.0450169,16.2694315 10.8262892,17.2010808 10.6062149,18.1653723 C10.3450098,19.3100934 10.4836646,19.8983825 10.4836646,19.8983825 L7.67370439,19.9382038 L6.23289629,24.2585865 C6.81854548,24.6048071 8.88714346,25.6818321 11.6157962,25.4543461 L11.659957,25.9841933 C11.3819742,26.0073008 11.1107811,26.0179572 10.8472193,26.0180133 C7.86673239,26.0180133 5.85463998,24.6549483 5.76323225,24.5919073 L5.598934,24.4785008 L7.1349655,19.8725828 C5.58765533,19.2707769 4.11705134,19.0560226 2.80002806,19.058939 L2.80002806,35.5767991 L5.79409428,31.7242882 L5.37953299,30.8430605 Z" id="Fill-1"></path>
            </g>
        </g>
    </g>
</svg>