<?xml version="1.0" encoding="UTF-8"?>
<svg width="60px" height="60px" viewBox="0 0 60 60" version="1.1" xmlns="http://www.w3.org/2000/svg" xmlns:xlink="http://www.w3.org/1999/xlink">
    <!-- Generator: Sketch 49.2 (51160) - http://www.bohemiancoding.com/sketch -->
    <title>icone blanc</title>
    <desc>Created with Sketch.</desc>
    <defs></defs>
    <g id="icone-blanc" stroke="none" stroke-width="1" fill="none" fill-rule="evenodd">
        <g id="spelunking" transform="translate(-16.000000, -29.000000)" fill="#FFFFFF">
            <g id="lacrosse" transform="translate(25.000000, 41.000000)">
                <path d="M23.1963867,22.8484375 C24.1675456,24.3480143 24.653125,25.3861654 24.653125,25.9628906 C24.653125,26.8279785 23.6123535,33.2286377 23.6123535,34.2735107 C23.6123535,35.3183838 23.4609375,36.5230469 24.0570312,36.1621094 C24.4544271,35.9214844 25.6893392,32.5217448 27.7617676,25.9628906 C27.0973145,23.4076172 26.6091146,22.1299805 26.297168,22.1299805 C25.9852214,22.1299805 26.2849772,21.1683919 27.1964355,19.2452148 C28.321403,19.5874674 28.8838867,19.4624837 28.8838867,18.8702637 C28.8838867,17.9819336 29.9410645,11.3719238 29.0978516,10.720459 C28.2546387,10.0689941 25.2943359,10.3174805 24.0570312,9.77197266 C22.8197266,9.22646484 22.5705566,8.92226562 21.2190918,10.3174805 C19.867627,11.7126953 19.1043945,12.1901855 18.6945801,11.7126953 C18.2847656,11.2352051 18.6945801,8.66694336 18.6945801,8.2902832 C18.6945801,7.91362305 17.0565186,8.89492187 17.0565186,9.44042969 C17.0565186,9.80410156 17.0565186,11.3335286 17.0565186,14.0287109 C17.4718018,14.4918457 18.2984375,14.3595703 19.5364258,13.6318848 C21.3934082,12.5403564 22.2964355,14.346582 21.2190918,17.3342285 C20.141748,20.321875 17.8358154,24.6021973 16.8056396,24.6021973 C16.1188558,24.6021973 13.7242839,24.7610758 9.62192383,25.078833 C9.3956543,25.6682048 9.3956543,26.0584798 9.62192383,26.2496582 C9.96132812,26.5364258 15.8145996,26.9664063 17.2545898,26.9664063 C18.2145833,26.9664063 20.1951823,25.59375 23.1963867,22.8484375 Z" id="Path-17"></path>
                <path d="M20.0180176,11.3861084 L15.5360352,5.75432129 C15.8066243,5.58513184 15.8066243,5.19320475 15.5360352,4.57854004 C15.1301514,3.65654297 14.2237061,2.60637207 14.2237061,2.14870605 C14.2237061,1.69104004 12.588208,-0.939257812 11.292627,0.0904052734 C10.4289062,0.776847331 9.9970459,1.26328125 9.9970459,1.54970703 C9.44401855,2.75066732 9.61975911,3.52141927 10.5242676,3.86196289 C11.428776,4.20250651 12.1099772,4.58469238 12.5678711,5.00852051 C13.6321428,5.8549235 14.3929048,6.278125 14.8501569,6.278125 C15.3074091,6.278125 18.0631673,9.69546712 23.1174316,16.5301514 L20.0180176,11.3861084 Z" id="Path-18"></path>
                <path d="M26.7672643,9.79765567 C27.1579244,9.79810285 27.4856838,9.84242979 27.5378366,9.52470681 C27.6604649,8.77919814 27.8993239,7.32596768 27.9670868,6.91372156 C28.1785643,5.62583673 27.3417133,4.44002124 26.2953296,4.23493229 C25.2479224,4.02978744 24.0568005,4.74041591 23.8420475,6.04507007 C23.7680406,6.49717131 23.7902529,6.94262071 23.9204047,7.35168065 C24.1162722,7.96812136 25.9307715,9.7968172 25.9307715,9.7968172 C25.9307715,9.7968172 26.326345,9.79720849 26.7672643,9.79765567 Z" id="Path"></path>
            </g>
        </g>
    </g>
</svg>