<?xml version="1.0" encoding="UTF-8"?>
<svg width="60px" height="60px" viewBox="0 0 60 60" version="1.1" xmlns="http://www.w3.org/2000/svg" xmlns:xlink="http://www.w3.org/1999/xlink">
    <!-- Generator: Sketch 49.2 (51160) - http://www.bohemiancoding.com/sketch -->
    <title>icone blanc</title>
    <desc>Created with Sketch.</desc>
    <defs></defs>
    <g id="icone-blanc" stroke="none" stroke-width="1" fill="none" fill-rule="evenodd">
        <g id="spelunking" transform="translate(-16.000000, -29.000000)" fill="#FFFFFF">
            <g id="chasse-avec-fusil" transform="translate(25.000000, 41.000000)">
                <path d="M13.4949259,5.89603648 C13.7817383,5.56002224 14.2819048,5.52433678 14.6119246,5.81644364 C14.9420014,6.1084934 14.9769896,6.61768202 14.6900631,6.95375336 C14.4032507,7.2897676 13.9031413,7.32539596 13.5730645,7.0333462 C13.2430447,6.74123934 13.2080565,6.23205072 13.4949259,5.89603648 Z M21.9974146,5.66833473 C21.7305221,6.53180854 20.919685,8.83018022 20.919685,8.83018022 L17.6387226,8.61475426 C17.6387226,8.61475426 20.0687797,6.69362067 20.2177509,6.57331786 C20.5662066,6.29205938 20.5557044,5.86708844 20.4736846,5.53758322 C20.8214553,5.40106495 21.0747634,5.33614597 21.0747634,5.33614597 L22.3987807,4.88805085 C22.2254946,5.09165778 22.0942744,5.3548166 21.9974146,5.66833473 Z M33.2364643,0.598202415 L33.0295598,0 C33.0295598,0 22.4262918,3.4686262 20.2235157,4.17959466 C19.6294003,4.36435967 19.0286068,4.97883465 19.0286068,4.97883465 L17.691576,6.5796556 L16.7651578,7.12555741 C16.773434,6.68756842 16.7806257,6.30639066 16.7841644,6.12202533 C16.791242,5.74096177 16.788274,5.40249237 16.7100784,5.10102165 C17.0664107,4.83192477 17.4644663,4.50647342 17.6041339,4.29961198 C17.5333012,3.96314096 16.6041433,3.98637933 15.9810898,4.15538564 C15.5398839,3.87053007 14.956499,3.67600152 14.5072452,3.66732282 C14.1608443,3.66069959 13.8135873,3.73680953 13.4945264,3.88143554 C13.4544583,4.14933339 13.4256914,4.83392315 13.6900154,5.33865823 C14.0693498,5.19328996 14.5130671,5.25895119 14.8404612,5.54871709 C15.3157422,5.96929158 15.3661412,6.70252776 14.9530743,7.18642253 C14.5400074,7.67031729 13.8198087,7.72164725 13.3445278,7.30107275 C12.9271801,6.93165693 12.8376832,6.32129291 13.1018931,5.850302 C12.7119995,5.22160993 12.8126835,4.5660824 12.8905366,4.26969329 C12.4244451,4.67656457 12.105955,5.26654506 12.0927131,5.97026223 C12.0834095,6.44839022 12.153386,6.9182392 12.3897993,7.30044469 C12.7290655,7.84891586 13.8389866,8.84810859 13.8389866,8.84810859 C13.8389866,8.84810859 13.3625071,9.12696901 13.2593117,9.18789122 C11.9407739,9.96651929 11.310072,10.6977571 11.4263381,12.0616837 C11.4838718,12.736567 11.9375205,18.1496794 11.9375205,18.1496794 C11.4075597,19.4864851 11.3077319,20.6973354 11.2702893,21.5468776 C11.2329038,22.3964198 11.0563073,27.704988 11.0563073,27.704988 C11.0563073,27.704988 10.0095705,33.21585 9.86430935,34.1044464 C9.61539616,35.6266451 10.1043185,36.277662 11.0666953,36.3558845 L13.2633071,28.7046947 L14.7745372,23.3977822 L16.4494073,28.2888592 C16.4494073,28.2888592 17.2267402,33.9001543 17.3388396,34.7431875 C17.4459733,35.5487652 18.1521881,36.6059682 19.293787,36.3651342 L18.9417355,27.9843623 L17.9596671,20.6413235 L17.5555613,18.4123814 C17.5555613,18.4123814 17.79226,15.8120823 18.1074968,12.2967509 C18.1176565,12.1832997 17.894428,11.0067646 17.894428,11.0067646 L21.3627744,11.0067646 C21.9763531,11.0067646 22.2096272,10.7133445 22.3530619,10.1248485 C22.4929008,9.55131189 23.7431174,4.43304703 23.7431174,4.43304703 L28.6756053,2.76371 L28.5475814,2.26856718 L33.2364643,0.598202415 Z" id="Fill-1"></path>
            </g>
        </g>
    </g>
</svg>