<?xml version="1.0" encoding="UTF-8"?>
<svg width="60px" height="60px" viewBox="0 0 60 60" version="1.1" xmlns="http://www.w3.org/2000/svg" xmlns:xlink="http://www.w3.org/1999/xlink">
    <!-- Generator: Sketch 49.2 (51160) - http://www.bohemiancoding.com/sketch -->
    <title>icone blanc</title>
    <desc>Created with Sketch.</desc>
    <defs></defs>
    <g id="icone-blanc" stroke="none" stroke-width="1" fill="none" fill-rule="evenodd">
        <g id="spelunking" transform="translate(-16.000000, -29.000000)" fill="#FFFFFF">
            <g id="netball" transform="translate(25.000000, 41.000000)">
                <path d="M15.8893548,20.305054 C15.4317762,20.2813905 14.9828709,20.3992541 14.5944781,20.6447696 L15.2103818,21.4818734 C15.5604216,21.1747016 15.7975082,20.765055 15.8893548,20.305054 M14.9349924,21.6869237 L14.3189885,20.849719 C13.9719066,21.1512903 13.7282023,21.5489285 13.6163519,21.9960129 C14.0654578,22.0405145 14.529604,21.9408653 14.9349924,21.6869237 M13.278946,21.9341547 C13.4072906,21.4006908 13.6977705,20.9269156 14.1146899,20.572013 L13.7863083,20.1256855 L12.2349931,21.2817677 C12.518755,21.6086171 12.8847376,21.828804 13.278946,21.9341547 M12.0311458,21.0047177 L13.5824108,19.8486354 L13.2281095,19.3670396 C12.8117416,19.6371268 12.332555,19.7792594 11.8406844,19.7792594 C11.7994236,19.7792594 11.7580124,19.7771403 11.7166514,19.775122 C11.6946423,20.1963229 11.7969169,20.6260002 12.0311458,21.0047177 M11.7627251,19.4329847 C12.2086724,19.448424 12.6452446,19.3291981 13.0236606,19.0891318 L12.4337267,18.2874476 C12.0831855,18.5956285 11.856176,19.0003305 11.7627251,19.4329847 M12.7090158,18.0822459 L13.2987492,18.8837787 C13.6362052,18.589473 13.8760993,18.2037422 13.9908073,17.7703312 C13.5532325,17.7346593 13.1033746,17.8352167 12.7090158,18.0822459 M14.3300181,17.8254284 C14.1991668,18.347893 13.9118955,18.8122836 13.5030979,19.1614847 L13.8577501,19.6434842 L15.4090652,18.4874019 C15.1169309,18.1508651 14.7376124,17.926894 14.3300181,17.8254284 M15.6130128,18.7644015 L14.0615974,19.9205342 L14.3901295,20.3670636 C14.8498638,20.0697305 15.3848502,19.9291621 15.9295627,19.9623112 C15.9457562,19.5390922 15.8365129,19.1250055 15.6130128,18.7644015 M16.4163698,20.2739231 C16.3129922,20.9713162 15.9460069,21.5864672 15.382895,22.0060535 C14.9146377,22.3550528 14.367619,22.5233717 13.825313,22.5233717 C13.0216051,22.5233717 12.2279743,22.1539884 11.7140444,21.4555357 C10.8533334,20.2856792 11.0987424,18.6292822 12.2611132,17.7631161 C13.423434,16.8968996 15.0694033,17.1438782 15.9300641,18.3137348 C16.3469835,18.8803478 16.5196972,19.57653 16.4163698,20.2739231 M18.3363748,11.7878465 C18.3363748,11.7878465 18.7222108,11.7183696 19.1525161,11.6411225 C19.5336895,11.5727556 19.8604669,11.5547935 19.8604669,11.2599832 L19.8604669,8.83717025 C19.8604669,7.64238879 18.8538643,6.72390054 17.8002855,6.72390054 C16.7457541,6.72390054 15.6974395,7.57281093 15.6974395,8.78333445 C15.6974395,9.20271888 15.7905395,9.59934798 15.9830564,9.94405858 C16.2731853,10.4636977 18.3363748,11.7878465 18.3363748,11.7878465 M19.1650999,12.2147488 C19.1650999,12.2147488 20.4053298,11.985934 21.2649378,11.8339122 C21.804687,11.7386022 22.1578853,11.8468288 22.6103501,12.1122741 C23.3504874,12.5460383 25.8544603,14.0631787 27.3519309,14.9357526 C27.8441525,15.2223891 28.0404796,15.7489911 27.9931526,16.197135 C27.8867168,17.2055851 27.5088523,20.1840118 27.4438277,20.9175814 C27.3400992,22.0856215 26.1555187,22.0720995 26.1555187,22.0720995 L26.1555187,16.6017865 L22.0134475,14.8639042 L22.0134475,15.2723903 L23.3687865,16.1326027 C23.3687865,16.1326027 24.0653567,18.5027403 24.819281,20.9859483 C25.3013753,22.5734233 25.0642888,24.0716934 24.2135045,25.3674864 C23.0223564,27.1835239 21.5973303,29.3614269 21.5973303,29.3614269 L22.08514,29.3614269 L23.0314808,28.1397527 C23.0314808,28.1397527 24.8060454,27.7782405 25.3671519,27.6829305 C26.6520518,27.464459 26.9278924,28.6500576 26.9278924,28.6500576 C26.9278924,28.6500576 21.6801526,31.2144481 20.7809383,31.7503843 C19.7693222,32.3532242 18.551703,31.3701532 18.8554184,30.3300677 C19.5413601,27.9831395 20.3797612,25.2785841 20.3797612,25.2785841 L20.0852204,25.2785841 L18.5888527,27.6403462 L15.3107011,27.6403462 L15.129264,27.8935813 L16.9464931,28.0987326 L15.7917928,29.377623 C15.7917928,29.377623 15.409717,32.5342074 15.172079,34.7770463 C14.9811162,36.5761813 13.6330969,36.3449447 13.6330969,36.3449447 L13.6330969,29.4862533 C13.6330969,28.4590843 13.741137,28.2120047 14.2933195,27.4099673 C15.4567433,25.7209257 18.1127745,21.9312788 18.1127745,21.9312788 L18.5016686,21.3774309 L18.5016686,18.8031007 L15.8735122,14.5816573 L15.8735122,15.227586 L16.5672248,16.4490583 L16.0046142,17.5828393 C16.0046142,17.5828393 15.4589492,16.9646106 14.458112,16.8804511 L14.458112,14.7233862 C14.458112,13.6440465 14.9483783,12.9896917 16.0222616,12.7822195 C17.1114861,12.5717705 19.1650999,12.2147488 19.1650999,12.2147488" id="Fill-1"></path>
                <path d="M30.0207031,6.82106934 L29.3770996,7.15124512 C28.9728678,4.16826986 28.664624,2.45598145 28.4523682,2.01437988 C28.2401123,1.57277832 30.6325195,1.45987142 35.6295898,1.67565918 C35.0011393,4.7544515 34.6869141,6.46958822 34.6869141,6.82106934 C34.6869141,7.17255046 34.4579671,7.28260905 34.0000732,7.15124512 L34.6869141,2.36506348 C31.2697428,2.14665527 29.4998047,2.14665527 29.3770996,2.36506348 C29.2543945,2.58347168 29.468929,4.06880697 30.0207031,6.82106934 Z" id="Path-22"></path>
            </g>
        </g>
    </g>
</svg>