<?xml version="1.0" encoding="UTF-8"?>
<svg width="60px" height="60px" viewBox="0 0 60 60" version="1.1" xmlns="http://www.w3.org/2000/svg" xmlns:xlink="http://www.w3.org/1999/xlink">
    <!-- Generator: Sketch 49.2 (51160) - http://www.bohemiancoding.com/sketch -->
    <title>icone blanc</title>
    <desc>Created with Sketch.</desc>
    <defs></defs>
    <g id="icone-blanc" stroke="none" stroke-width="1" fill="none" fill-rule="evenodd">
        <g id="spelunking" transform="translate(-16.000000, -29.000000)" fill="#FFFFFF">
            <g id="yoga" transform="translate(25.000000, 41.000000)">
                <path d="M18.304842,4.06125361 C17.7083346,4.40402474 17.3078048,5.03633402 17.3078048,5.76015258 C17.3078048,5.99131134 17.3509479,6.26074639 17.403205,6.41915876 C17.6031733,7.02541443 18.4225687,8.51331134 18.4225687,8.51331134 C18.5131153,8.67778144 18.6080841,8.75717526 18.771974,8.75717526 L19.8878705,8.75717526 C20.0424846,8.75717526 20.1582699,8.65505155 20.2221756,8.53630928 C20.2221756,8.53630928 21.0374186,7.02198351 21.244128,6.41915876 C21.2983805,6.26096082 21.3521476,5.99131134 21.3521476,5.76015258 C21.3521476,5.03633402 20.9516177,4.40407835 20.3551103,4.06130722 C20.3390395,3.52227629 19.8867919,3.08987216 19.3299762,3.08987216 C18.7731604,3.08987216 18.3209128,3.52227629 18.304842,4.06125361 M26.9471615,24.3737402 C25.6693166,24.8952948 20.8252624,27.028099 20.8252624,27.028099 C20.8252624,27.028099 20.4515891,25.9449443 21.4895584,25.2787546 C22.5275276,24.6125113 25.329295,22.8142763 25.329295,22.8142763 L20.3687004,19.7916825 L20.3139087,27.1379423 C20.3139087,27.1379423 20.9807933,32.5949402 21.1542825,34.0462227 C21.3169859,35.4075505 20.6383448,36.3830598 19.9331168,36.379468 C19.9331168,36.379468 16.5832163,21.9215381 16.3591417,20.5714144 C15.9636273,18.1883134 17.0062884,15.9805649 17.0062884,15.9805649 L16.6647028,13.147101 C16.6647028,13.147101 14.2603913,7.71449485 14.0042291,4.20562062 C13.9759165,3.81738969 14.0875492,3.51359175 14.4060532,3.27948454 L18.8685067,0 C18.8685067,0 19.1896532,0.930692784 18.5771829,1.48971959 C17.9647125,2.04874639 15.6532666,4.36333608 15.6532666,4.36333608 C15.6532666,4.36333608 15.9181652,5.95785979 17.7645285,9.49600412 L20.8716951,9.49600412 C22.7676729,5.92719588 23.0140201,4.36392577 23.0140201,4.36392577 C23.0140201,4.36392577 20.7250086,2.09769072 20.1129157,1.50108454 C19.5008768,0.904478351 19.8215919,0.0113113402 19.8215919,0.0113113402 L24.3510789,3.30049897 C24.5835663,3.47134845 24.7006999,3.74952165 24.6689358,4.03166186 C24.4394684,6.07177732 23.5249423,9.40326186 23.0951291,10.5124701 C22.2222362,12.7650887 21.4577403,14.4026598 21.4577403,14.4026598 L21.9772373,16.057868 C21.9772373,16.057868 26.4396368,19.9743258 27.3088625,20.6598144 C28.5619541,21.6480825 29.1691934,23.4668495 26.9471615,24.3737402" id="Fill-1"></path>
            </g>
        </g>
    </g>
</svg>