<?xml version="1.0" encoding="UTF-8"?>
<svg width="30px" height="26px" viewBox="0 0 30 26" version="1.1" xmlns="http://www.w3.org/2000/svg" xmlns:xlink="http://www.w3.org/1999/xlink">
    <!-- Generator: Sketch 49.2 (51160) - http://www.bohemiancoding.com/sketch -->
    <title>jujitsu</title>
    <desc>Created with Sketch.</desc>
    <defs></defs>
    <g id="jujitsu" stroke="none" stroke-width="1" fill="none" fill-rule="evenodd">
        <path d="M15.1194745,3.99832548 C15.3985174,3.99864489 15.6326313,4.03030699 15.6698833,3.80336201 C15.7574749,3.27085581 15.9280885,2.23283405 15.9764906,1.93837254 C16.1275459,1.0184548 15.5297952,0.171443745 14.7823783,0.0249516366 C14.0342303,-0.121580398 13.1834289,0.386011362 13.0300339,1.31790719 C12.9771719,1.64083665 12.9930378,1.95901479 13.0860034,2.25120047 C13.2259087,2.69151526 14.5219797,3.99772657 14.5219797,3.99772657 C14.5219797,3.99772657 14.8045321,3.99800606 15.1194745,3.99832548 Z" id="Path" fill="#FFFFFF"></path>
        <path d="M16.4255371,4.51049805 C16.7772624,6.3527832 17.2235514,7.46061198 17.7644043,7.83398438 C18.3052572,8.20735677 19.0471191,8.39404297 19.9899902,8.39404297 L18.8596191,10.1594238 C17.2368978,9.90828451 16.4255371,9.69677734 16.4255371,9.52490234 C16.4255371,9.26708984 15.2407227,11.3339844 15.6462402,12.2155762 C15.9165853,12.803304 17.0791016,14.4802246 19.1337891,17.2463379 L19.1337891,24.904541 L17.0725098,24.904541 L16.8024902,19.7333984 L14.5087891,15.7641602 C13.9254557,15.1472982 13.4793294,15.1472982 13.1704102,15.7641602 C12.7070312,16.6894531 11.6313477,18.0585937 11.6313477,18.5454102 C11.6313477,18.8699544 11.6313477,20.8456217 11.6313477,24.4724121 L8.99755859,24.4724121 C8.66373698,19.7935384 8.66373698,17.1724447 8.99755859,16.6091309 C9.33138021,16.0458171 10.0490723,14.2884928 11.1506348,11.3371582 L10.1801758,9.05639648 C10.3919271,6.38517253 10.6066081,4.86987305 10.8242187,4.51049805 C11.1506348,3.97143555 11.7658691,3.97143555 12.2888184,3.97143555 C12.6374512,3.97143555 14.0163574,4.15112305 16.4255371,4.51049805 Z" id="Path-11" fill="#FFFFFF"></path>
        <path d="M20,9.43132867 C21.2101237,9.43132867 21.8783366,9.43132867 22.0046387,9.43132867 C22.1940918,9.43132867 22.8283691,8.9904107 22.6287842,8.65508355 C22.4291992,8.3197564 22.4876709,8.0874566 22.0046387,8.0874566 C21.5216064,8.0874566 22.2064508,7.89067925 21.7700195,8.0874566 C21.4790653,8.21864149 21.1011356,8.28423394 20.6362305,8.28423394 L20,9.43132867 Z" id="Path-12" fill="#FFFFFF"></path>
        <path d="M17.3249512,25.2478027 C17.2977702,25.5670166 17.3599243,25.7685954 17.5114136,25.8525391 C17.7386475,25.9784546 19.7995605,25.8525391 20.0767212,25.8525391 C20.3538818,25.8525391 20.8788452,25.6953057 20.4777832,25.5781521 C20.2104085,25.5000497 19.70818,25.3515422 18.9710975,25.1326294 C18.2031751,25.1326294 17.78361,25.1326294 17.7124023,25.1326294 C17.6411947,25.1326294 17.5120443,25.1710205 17.3249512,25.2478027 Z" id="Path-13" fill="#FFFFFF"></path>
        <path d="M7.96500381,24.9124756 C7.93782282,25.2316895 7.99997695,25.4332682 8.15146621,25.5172119 C8.3787001,25.6431274 10.4396132,25.5172119 10.7167738,25.5172119 C10.9939345,25.5172119 11.5188979,25.3599786 11.1178358,25.242825 C10.8504612,25.1647226 10.3482326,25.016215 9.61115012,24.7973022 C8.84322771,24.7973022 8.42366266,24.7973022 8.35245498,24.7973022 C8.2812473,24.7973022 8.15209691,24.8356934 7.96500381,24.9124756 Z" id="Path-13" fill="#FFFFFF" transform="translate(9.611150, 25.297302) scale(-1, 1) rotate(9.000000) translate(-9.611150, -25.297302) "></path>
    </g>
</svg>