<?xml version="1.0" encoding="UTF-8"?>
<svg width="60px" height="60px" viewBox="0 0 60 60" version="1.1" xmlns="http://www.w3.org/2000/svg" xmlns:xlink="http://www.w3.org/1999/xlink">
    <!-- Generator: Sketch 49.2 (51160) - http://www.bohemiancoding.com/sketch -->
    <title>icone blanc</title>
    <desc>Created with Sketch.</desc>
    <defs>
        <polygon id="path-1" points="0 0.262865035 24.6177853 0.262865035 24.6177853 16.7081378 0 16.7081378"></polygon>
        <polygon id="path-3" points="0.0968818722 0.270911475 5.73665557 0.270911475 5.73665557 7.20608739 0.0968818722 7.20608739"></polygon>
    </defs>
    <g id="icone-blanc" stroke="none" stroke-width="1" fill="none" fill-rule="evenodd">
        <g id="spelunking" transform="translate(-16.000000, -29.000000)">
            <g id="aikido" transform="translate(25.000000, 41.000000)">
                <g id="Page-1" transform="translate(5.600000, 0.000000)">
                    <g id="Group-3" transform="translate(0.000000, 19.420892)">
                        <mask id="mask-2" fill="white">
                            <use xlink:href="#path-1"></use>
                        </mask>
                        <g id="Clip-2"></g>
                        <path d="M11.3052731,0.295287541 C11.5150207,0.971969508 11.7000043,1.52244492 11.8521682,2.08187115 C11.9213879,2.33517934 12.03566,2.43662197 12.3026928,2.41872033 C12.6380502,2.39604492 12.9763911,2.41334984 13.3678403,2.41334984 C13.1771879,1.78589738 13.0115977,1.20856951 12.8242272,0.638402295 C12.7365092,0.37226459 12.7457584,0.257395738 13.0835026,0.26306459 C14.2116043,0.282458033 15.340601,0.274103934 16.4692993,0.267241639 C16.6677092,0.266048197 16.8198731,0.325421967 16.971142,0.452523607 C18.7926338,1.9852023 20.6224797,3.50833344 22.4415846,5.0442941 C23.1254272,5.62132361 23.5514862,6.36633016 23.7284141,7.24291377 C24.0222993,8.69682525 24.2902272,10.1558089 24.5972403,11.6070351 C24.6643715,11.9253859 24.568001,12.0363761 24.2932108,12.1443826 C23.3050403,12.5334449 23.3127977,12.5420974 23.4199092,13.6093334 C23.5109092,14.5163498 23.5840075,15.424858 23.6797813,16.3315761 C23.7102141,16.6206875 23.6180207,16.7081072 23.3268207,16.697963 C22.559437,16.6711105 21.9603289,16.2560908 21.6664436,15.4385826 C21.4737026,14.9021302 21.3272075,14.3462843 21.2001059,13.7898416 C21.128201,13.4747728 21.0064698,13.3948121 20.7313813,13.556822 C20.4559944,13.7191302 4.20518459,13.3366318 3.91726656,13.1644777 C3.67798131,13.021563 3.23431902,14.6004875 3.03292557,15.2001925 C2.77305344,15.97414 2.31298131,16.5645957 1.43281738,16.6931892 C1.07150262,16.7462974 0.899348525,16.6720056 0.945892787,16.2393826 C1.07866328,15.0107334 1.16011574,13.7764154 1.28393541,12.5462744 C1.32093213,12.177799 1.24813213,11.9716318 0.864141967,11.8194679 C-0.132382623,11.4253334 -0.12671377,11.4002711 0.185669836,10.3852482 C0.539823934,9.2332777 0.915758361,8.08757279 1.25618787,6.93142525 C1.5259059,6.01486131 2.00537148,5.23494656 2.70860754,4.60212361 C4.26008295,3.2060941 5.82677475,1.82707115 7.38302393,0.436710492 C7.52026984,0.314084262 7.66020098,0.264556393 7.84190262,0.267241639 C8.39834525,0.275894098 8.95538459,0.283353115 9.51152885,0.265153115 C9.80302721,0.255903934 9.81287311,0.360031803 9.72038131,0.587680984 C9.39486984,1.38967443 9.09024361,2.20032033 8.75548295,2.99843508 C8.62151902,3.31768098 8.60958459,3.44687115 9.03385344,3.44000885 C10.1679223,3.42151049 10.1670272,3.44030721 10.5525092,2.36680557 C10.7858272,1.71757279 11.0236207,1.0698318 11.3052731,0.295287541" id="Fill-1" fill="#FFFFFF" mask="url(#mask-2)"></path>
                    </g>
                    <path d="M29.378082,7.80040066 C29.1913082,8.71547279 28.457341,9.40707279 27.5664361,9.50612852 C27.1060656,9.55744656 26.6418164,9.58579082 26.1784623,9.59772525 C25.9233639,9.60428918 25.8255016,9.6929023 25.8210262,9.95158098 C25.8144623,10.3221449 25.7428557,10.6921121 25.7503148,11.0614826 C25.7574754,11.418322 25.6074,11.4935089 25.2803967,11.4979843 C22.6676525,11.5331908 20.0549082,11.6027089 17.4421639,11.6164334 C16.9612066,11.6188203 16.849918,11.7835154 16.8099377,12.2033089 C16.6237607,14.1569744 16.4077475,16.1079548 16.220377,18.061322 C16.1875574,18.4011548 16.0908885,18.5306433 15.720623,18.527958 C13.3238918,18.5100564 10.9268623,18.5094597 8.53013115,18.527958 C8.12943279,18.5309416 8.10944262,18.4032433 8.19924918,18.07624 C8.42689836,17.2500793 8.41585902,17.2470957 9.24947869,17.5359089 C10.4969246,17.9679351 11.6286066,17.5475449 12.3190131,16.4182498 C12.4499934,16.2040269 12.3897246,16.1431613 12.1945967,16.052758 C10.4849902,15.2582236 8.77806885,14.4574236 7.07472787,13.649463 C6.87751148,13.5560761 6.78591475,13.5754695 6.68059344,13.776863 C6.56005574,14.0066007 6.67462623,14.0701515 6.84797377,14.1507089 C8.31859344,14.8357449 9.78294754,15.5336105 11.2595344,16.205817 C11.607423,16.3642466 11.6462098,16.4698662 11.3374066,16.7169089 C10.8021475,17.1456531 10.235859,17.3190007 9.56991803,17.0692728 C9.19398361,16.9281482 8.80432459,16.8216334 8.43226885,16.6718564 C8.20342623,16.579663 8.09810492,16.652463 8.0011377,16.853558 C7.80660656,17.2569416 7.58611803,17.6483908 7.39218361,18.0520728 C7.28745902,18.2698761 7.20003934,18.3205974 6.98939672,18.1460564 C5.97705902,17.3082597 4.94622295,16.4925416 3.93418361,15.6538498 C3.34790492,15.1681187 3.17575082,14.6501646 3.46366885,13.9600564 C4.0881377,12.463181 4.69380984,10.9534761 5.47402295,9.52999738 C6.11609508,8.35833508 7.09054098,7.77563672 8.5008918,7.7833941 C15.2733803,7.8212859 22.0464656,7.80040066 28.8195508,7.80040066 L29.378082,7.80040066 Z" id="Fill-4" fill="#FFFFFF"></path>
                    <g id="Group-8" transform="translate(9.249180, 0.027449)">
                        <mask id="mask-4" fill="white">
                            <use xlink:href="#path-3"></use>
                        </mask>
                        <g id="Clip-7"></g>
                        <path d="M3.71250164,7.16602623 C3.16918689,7.32027869 2.69807541,7.01266885 2.27291148,6.52484918 C1.77554426,5.95408525 1.21581967,5.43702623 0.727403279,4.8594 C-0.00328196721,3.99475082 -0.0993540984,2.72522623 0.44157377,1.73437049 C0.966390164,0.773052459 2.14342295,0.165888525 3.25004262,0.285829508 C4.33607541,0.403681967 5.29261967,1.22148852 5.61962295,2.30334426 C5.75716721,2.75834426 5.76402951,3.22199672 5.68914098,3.68117377 C5.53309836,4.64219344 5.32991475,5.59545574 5.19087869,6.55856393 C5.12225574,7.0320623 4.89162295,7.1988459 4.44646885,7.16841311 C4.24656721,7.15439016 4.04457705,7.16602623 3.71250164,7.16602623" id="Fill-6" fill="#FFFFFF" mask="url(#mask-4)"></path>
                    </g>
                </g>
            </g>
        </g>
    </g>
</svg>