<?xml version="1.0" encoding="UTF-8"?>
<svg width="60px" height="60px" viewBox="0 0 60 60" version="1.1" xmlns="http://www.w3.org/2000/svg" xmlns:xlink="http://www.w3.org/1999/xlink">
    <!-- Generator: Sketch 49.2 (51160) - http://www.bohemiancoding.com/sketch -->
    <title>icone blanc</title>
    <desc>Created with Sketch.</desc>
    <defs></defs>
    <g id="icone-blanc" stroke="none" stroke-width="1" fill="none" fill-rule="evenodd">
        <g id="spelunking" transform="translate(-16.000000, -29.000000)" fill="#FFFFFF">
            <g id="kendo" transform="translate(25.000000, 41.000000)">
                <path d="M14.0174316,7.6345459 C14.9727539,7.59580892 15.5512451,7.37751465 15.7529053,6.97966309 C15.9545654,6.58181152 16.157137,6.28627116 16.3606201,6.09304199 L13.1649902,6.09304199 L14.0174316,7.6345459 Z" id="Path-15" transform="translate(14.762805, 6.863794) scale(-1, 1) translate(-14.762805, -6.863794) "></path>
                <path d="M25.3045898,34.8815674 C26.3704264,35.3574626 27.1019857,35.5954102 27.4992676,35.5954102 C28.0951904,35.5954102 28.0951904,35.5954102 28.0951904,35.2384888 C28.0951904,35.0005412 27.6300903,34.7238851 26.6998901,34.4085205 L25.3045898,34.4085205 L25.3045898,34.8815674 Z" id="Path-16"></path>
                <path d="M12.7045898,34.8815674 C13.7704264,35.3574626 14.5019857,35.5954102 14.8992676,35.5954102 C15.4951904,35.5954102 15.4951904,35.5954102 15.4951904,35.2384888 C15.4951904,35.0005412 15.0300903,34.7238851 14.0998901,34.4085205 L12.7045898,34.4085205 L12.7045898,34.8815674 Z" id="Path-16" transform="translate(14.099890, 35.108521) scale(-1, 1) translate(-14.099890, -35.108521) "></path>
                <path d="M18.2673198,2.71255466 C18.168721,2.32889459 18.1805262,1.92113457 18.2889905,1.51547983 C18.6016358,0.344444028 19.8420191,-0.204369934 20.8689656,0.0692060144 C21.8950254,0.342837365 22.6379252,1.49282034 22.3294921,2.64812193 C22.2306715,3.01859629 21.9093247,4.22198697 21.7305277,4.89091285 C21.6543755,5.17606785 21.3849053,5.20554181 20.9964402,5.1671481 C20.5483947,5.12293716 19.8743312,5.04526331 19.8743312,5.04526331 C19.8743312,5.04526331 18.4155229,3.29051017 18.2673198,2.71255466 Z" id="Path"></path>
                <path d="M16.3542969,21.8136475 C16.3542969,22.7007813 15.4189697,32.9059814 14.678125,33.3048584 C13.9372803,33.7037354 16.8704102,34.835083 18.0976318,34.5500244 C18.9157796,34.3599854 19.6911458,33.6375977 20.4237305,32.3828613 L21.3624756,32.3828613 C21.3508545,33.8276367 21.6144368,34.5500244 22.1532227,34.5500244 C22.6920085,34.5500244 24.6129069,34.3382813 27.915918,33.9147949 C27.1386719,33.2559245 26.7500488,32.7452799 26.7500488,32.3828613 C26.7500488,32.0204427 26.2527913,28.4973714 25.2582764,21.8136475 L27.6916992,21.3944336 C25.4131673,18.9550293 24.2739014,17.1429932 24.2739014,15.9583252 C24.2739014,14.1813232 25.1553955,13.3883545 25.4959961,12.5543701 C25.8365967,11.7203857 26.0368896,8.78879395 25.1553955,8.30019531 C24.2739014,7.81159668 22.6031982,6.26000977 22.1532227,6.26000977 C21.8532389,6.26000977 20.8147461,6.26000977 19.0377441,6.26000977 C18.2020508,6.92138672 17.6922607,7.2520752 17.508374,7.2520752 C17.3244873,7.2520752 16.6596924,7.47242025 15.5139893,7.91311035 C14.984318,10.5131592 15.1470133,12.2788249 16.0020752,13.2101074 C17.284668,14.6070312 17.5010254,15.6783936 17.284668,15.9583252 C17.1404297,16.1449463 16.271582,17.9569824 14.678125,21.3944336 C15.7955729,21.082487 16.3542969,21.2222249 16.3542969,21.8136475 Z" id="Path-14"></path>
                <path d="M25.2174316,7.6345459 C26.1727539,7.59580892 26.7512451,7.37751465 26.9529053,6.97966309 C27.1545654,6.58181152 27.357137,6.28627116 27.5606201,6.09304199 L24.3649902,6.09304199 L25.2174316,7.6345459 Z" id="Path-15"></path>
            </g>
        </g>
    </g>
</svg>