<?xml version="1.0" encoding="UTF-8"?>
<svg width="60px" height="60px" viewBox="0 0 60 60" version="1.1" xmlns="http://www.w3.org/2000/svg" xmlns:xlink="http://www.w3.org/1999/xlink">
    <!-- Generator: Sketch 49.2 (51160) - http://www.bohemiancoding.com/sketch -->
    <title>icone blanc</title>
    <desc>Created with Sketch.</desc>
    <defs></defs>
    <g id="icone-blanc" stroke="none" stroke-width="1" fill="none" fill-rule="evenodd">
        <g id="spelunking" transform="translate(-16.000000, -29.000000)" fill="#FFFFFF">
            <g id="tai-chi" transform="translate(25.000000, 41.000000)">
                <g id="Group" transform="translate(7.000000, -1.400000)">
                    <path d="M12.1947428,8.25248047 C13.6529496,8.5199388 14.5256709,8.5199388 14.8129069,8.25248047 C15.2437609,7.85129297 17.6519097,8.25803125 17.6519097,9.62830859 C17.6519097,10.5418268 17.7372323,13.3845924 17.9078776,18.1566055 L10.8313531,18.8916055 L10.5546875,15.3458047 L5.42431641,13.4984872 L6.11645508,11.6822891 C6.8876501,11.6822891 7.27324761,11.6822891 7.27324761,11.6822891 C7.27324761,11.6822891 3.74913194,9.35995703 3.74913194,8.25248047 C3.74913194,7.51416276 4.00168186,6.8570651 4.50678168,6.2811875 L6.84296332,6.2811875 C6.91663954,7.77045573 7.28160265,8.51508984 7.93785265,8.51508984 C8.59410265,8.51508984 10.013066,8.42755339 12.1947428,8.25248047 Z" id="Path-24"></path>
                    <path d="M6.246148,6.05590234 L6.52452257,3.92459375 C7.20014106,3.8465 7.69941768,3.69618229 8.02235243,3.47364062 C8.34528718,3.25109896 8.57422779,2.9736237 8.70917426,2.64121484 C8.45409252,2.42798828 8.22515191,2.42798828 8.02235243,2.64121484 C7.71815321,2.96105469 8.02235243,1.56742578 8.02235243,0.966410156 C8.02235243,0.365394531 5.79953342,3.70658203 6.0008138,3.00814063 C5.63661024,3.61910937 5.63661024,4.14413672 6.0008138,4.58322266" id="Path-25"></path>
                    <polygon id="Path-26" points="5.95543077 3.19074219 4.97542318 5.89397266 4.97542318 6.47527344 6.35609266 6.47527344 6.63883464 3.96325781"></polygon>
                    <path d="M5.82421875,13.0259609 C4.67768012,12.3195443 3.828125,11.9663359 3.27555339,11.9663359 C2.72298177,11.9663359 2.07306134,11.552069 1.3257921,10.7235352 C1.07931858,10.1084831 1.3228805,9.91254688 2.05647786,10.1357266 C2.79007523,10.3589063 3.30770761,10.5548424 3.609375,10.7235352 L3.609375,10.1357266 C3.89433232,9.71629167 4.03681098,9.82009766 4.03681098,10.4471445 C4.03681098,11.3877148 7.33439128,12.3900638 7.64200846,12.7853633 C7.84708659,13.0488962 7.73119213,12.9716957 7.29432509,12.5537617 L5.82421875,13.0259609 Z" id="Path-27"></path>
                    <path d="M17.8106554,18.816 L25.0307346,32.5046094 L23.2315538,33.5891172 L16.8511556,24.1168047 C15.0660898,21.8617839 13.8010616,22.1325599 13.056071,24.9291328 C12.3110804,27.7257057 11.5397588,31.3037266 10.7421061,35.6631953 L8.26161024,34.8240703 C9.13445819,24.3586146 10.155608,19.2310326 11.3250597,19.4413242 C12.4945114,19.6516159 14.6563766,19.4431745 17.8106554,18.816 Z" id="Path-28"></path>
                    <path d="M24.0752224,33.5605977 C24.0752224,33.5605977 23.7740614,34.281625 24.2736545,34.7306641 C24.7732476,35.1797031 25.001492,35.6796563 25.9283312,36.2305234 C26.8551704,36.7813906 27.367296,36.4276719 27.367296,35.934418 C27.367296,35.4411641 25.6762678,34.0892617 25.6762678,34.0892617 C25.6762678,34.0892617 25.4513425,33.7617656 25.001492,33.1067734 C24.3839789,33.4093229 24.0752224,33.5605977 24.0752224,33.5605977 Z" id="Path-29"></path>
                    <path d="M6.8032533,34.650082 C6.8032533,34.650082 6.50209227,35.3711094 7.00168537,35.8201484 C7.50127847,36.2691875 7.72952283,36.7691406 8.65636202,37.3200078 C9.58320122,37.870875 10.0953269,37.5171563 10.0953269,37.0239023 C10.0953269,36.5306484 8.40429863,35.1787461 8.40429863,35.1787461 C8.40429863,35.1787461 8.17937337,34.85125 7.72952283,34.1962578 C7.11200981,34.4988073 6.8032533,34.650082 6.8032533,34.650082 Z" id="Path-29" transform="translate(8.404299, 35.897598) scale(-1, 1) rotate(-7.000000) translate(-8.404299, -35.897598) "></path>
                    <path d="M14.1858492,7.83737435 C14.619916,7.83787519 14.9840931,7.88752136 15.0420407,7.53167163 C15.1782943,6.69670191 15.4436932,5.0690838 15.5189853,4.60736814 C15.7539603,3.16493713 14.8241258,1.83682379 13.6614774,1.60712417 C12.4976915,1.37736194 11.1742228,2.17326582 10.9356083,3.63447848 C10.8533785,4.14083186 10.8780588,4.63973519 11.0226719,5.09788233 C11.2403024,5.78829592 13.2564128,7.83643527 13.2564128,7.83643527 C13.2564128,7.83643527 13.6959388,7.83687351 14.1858492,7.83737435 Z" id="Path" transform="translate(13.222222, 4.704000) scale(-1, 1) translate(-13.222222, -4.704000) "></path>
                </g>
            </g>
        </g>
    </g>
</svg>