<?xml version="1.0" encoding="UTF-8"?>
<svg width="60px" height="60px" viewBox="0 0 60 60" version="1.1" xmlns="http://www.w3.org/2000/svg" xmlns:xlink="http://www.w3.org/1999/xlink">
    <!-- Generator: Sketch 49.2 (51160) - http://www.bohemiancoding.com/sketch -->
    <title>icone blanc</title>
    <desc>Created with Sketch.</desc>
    <defs></defs>
    <g id="icone-blanc" stroke="none" stroke-width="1" fill="none" fill-rule="evenodd">
        <g id="spelunking" transform="translate(-16.000000, -29.000000)" fill="#FFFFFF">
            <g id="kungfu" transform="translate(25.000000, 41.000000)">
                <g id="Group" transform="translate(11.200000, -1.400000)">
                    <path d="M10.5307715,6.9968172 C10.5307715,6.9968172 10.926345,6.99720849 11.3672643,6.99765567 C11.7579244,6.99810285 12.0856838,7.04242979 12.1378366,6.72470681 C12.2604649,5.97919814 12.4993239,4.52596768 12.5670868,4.11372156 C12.7785643,2.82583673 11.9417133,1.64002124 10.8953296,1.43493229 C9.84792238,1.22978744 8.65680053,1.94041591 8.44204749,3.24507007 C8.36804061,3.69717131 8.39025291,4.14262071 8.52040471,4.55168065 C8.71627217,5.16812136 10.5307715,6.9968172 10.5307715,6.9968172 Z" id="Path" transform="translate(10.500000, 4.200000) scale(-1, 1) rotate(18.000000) translate(-10.500000, -4.200000) "></path>
                    <path d="M7.80429493,9.3174781 C11.7833566,8.50194201 14.0374177,8.23009665 14.5664783,8.50194201 C15.3600691,8.90971006 18.6641846,12.4259281 19.0221661,12.9397747 C19.2608204,13.282339 19.4534317,15.9521351 19.6,20.9491627 L18.1155774,19.354308 L17.508889,15.0661251 L15.4564989,12.1678098 L15.8064756,21.9069948 C14.750092,21.9069948 14.2219001,21.9069948 14.2219001,21.9069948 C14.2219001,21.9069948 14.0511003,26.6944392 13.7095007,36.269328 L11.1013363,39.2 L11.1013363,23.8305642 L6.61642178,19.9773584 L6.61642178,24.7312205 L4.56142544,26.9254097 L4.27679011,16.1169827 C4.31865605,15.4357124 4.48433653,15.0854266 4.77383153,15.0661251 C5.20006824,15.0377066 5.64457564,14.88595 6.15568114,15.3224049 C7.18749197,16.2035124 7.95148372,16.8231923 8.44765641,17.1814448 L8.44765641,12.1678098 L5.83660661,14.2333076 C4.63750194,15.1374569 3.41940917,14.8742523 2.1823283,13.4436936 C0.945247435,12.013135 0.217804667,11.006155 2.38182643e-16,10.4227538 L0,8.50194201 L4.27679011,12.9397747" id="Path-21"></path>
                </g>
            </g>
        </g>
    </g>
</svg>