<?xml version="1.0" encoding="UTF-8"?>
<svg width="60px" height="60px" viewBox="0 0 60 60" version="1.1" xmlns="http://www.w3.org/2000/svg" xmlns:xlink="http://www.w3.org/1999/xlink">
    <!-- Generator: Sketch 49.2 (51160) - http://www.bohemiancoding.com/sketch -->
    <title>icone blanc</title>
    <desc>Created with Sketch.</desc>
    <defs></defs>
    <g id="icone-blanc" stroke="none" stroke-width="1" fill="none" fill-rule="evenodd">
        <g id="spelunking" transform="translate(-16.000000, -29.000000)" fill="#FFFFFF">
            <g id="capoeira" transform="translate(25.000000, 41.000000)">
                <g id="Group" transform="translate(8.400000, 0.000000)">
                    <path d="M5.43444968,26.3580078 C11.7684015,25.3663015 15.2388193,24.5163963 15.8457031,23.8082923 C16.7560288,22.7461362 18.6660702,26.3580078 19.7784783,26.3580078 C20.8908864,26.3580078 25.1136058,21.6078635 25.1136058,20.032596 C25.1136058,18.9824176 24.8095272,17.6383336 24.2013701,16.0003439 L20.4477568,20.032596 C18.0645345,17.790567 16.8729234,15.6833843 16.8729234,13.7110479 C16.8729234,11.7387115 16.685612,8.35776579 16.3109892,3.56821077 L13.392446,4.55656844 C13.009419,13.2900235 13.009419,17.9371334 13.392446,18.4978983 C13.9669864,19.3390455 7.38765797,15.8129501 7.38765797,18.4978983 C7.38765797,20.2878637 6.73658854,21.1828465 5.43444968,21.1828465 C3.80658509,22.3528023 2.9926528,23.2279509 2.9926528,23.8082923 C2.9926528,24.6788043 2.01203757,33.1463018 2.01203757,34.3259171 C2.01203757,35.1123273 1.59844995,35.7895211 0.771274701,36.3574983 C2.30491058,36.3574983 3.24503294,36.3574983 3.59164177,36.3574983 C3.93825061,36.3574983 4.11155503,34.619694 4.11155503,31.1440854 L5.43444968,26.3580078 Z" id="Path-2"></path>
                    <path d="M23.7685547,18.1930452 C25.3251111,14.8475175 26.1033892,13.1747537 26.1033892,13.1747537 C26.1033892,13.1747537 25.6069695,11.3726817 24.935972,12.6998939 C24.2649744,14.027106 24.476416,14.4602369 23.7685547,14.4602369 C23.0606934,14.4602369 22.4265596,14.4517723 22.4265596,15.2529114 C22.4265596,15.7870042 22.8738913,16.7670488 23.7685547,18.1930452 Z" id="Path-3"></path>
                    <path d="M13.8596421,5.98088661 C15.4161985,2.63535898 16.1944767,0.962595169 16.1944767,0.962595169 C16.1944767,0.962595169 15.6980569,-0.839476842 15.0270594,0.487735285 C14.3560619,1.81494741 14.5675034,2.24807836 13.8596421,2.24807836 C13.1517808,2.24807836 12.5176471,2.2396137 12.5176471,3.04075287 C12.5176471,3.57484565 12.9649787,4.55489023 13.8596421,5.98088661 Z" id="Path-3" transform="translate(14.356062, 2.990443) scale(-1, 1) translate(-14.356062, -2.990443) "></path>
                    <path d="M3.9461564,20.0252578 C3.9461564,20.0252578 4.3882679,20.025662 4.88106005,20.026124 C5.3176802,20.0265859 5.68399952,20.0723778 5.74228799,19.7441548 C5.87934313,18.9740087 6.1463032,17.4727522 6.22203817,17.0468823 C6.45839536,15.7164357 5.5230913,14.4914317 4.3536037,14.279565 C3.18297208,14.0676406 1.85171823,14.8017537 1.61170014,16.1495238 C1.52898656,16.616566 1.55381208,17.0767365 1.69927586,17.4993149 C1.91818654,18.1361276 3.9461564,20.0252578 3.9461564,20.0252578 Z" id="Path"></path>
                </g>
            </g>
        </g>
    </g>
</svg>