<?xml version="1.0" encoding="UTF-8"?>
<svg width="60px" height="60px" viewBox="0 0 60 60" version="1.1" xmlns="http://www.w3.org/2000/svg" xmlns:xlink="http://www.w3.org/1999/xlink">
    <!-- Generator: Sketch 49.2 (51160) - http://www.bohemiancoding.com/sketch -->
    <title>icone blanc</title>
    <desc>Created with Sketch.</desc>
    <defs></defs>
    <g id="icone-blanc" stroke="none" stroke-width="1" fill="none" fill-rule="evenodd">
        <g id="spelunking" transform="translate(-16.000000, -29.000000)" fill="#FFFFFF">
            <g id="wrestling" transform="translate(25.000000, 41.000000)">
                <path d="M11.9799805,23.1324707 C9.98388672,26.6645996 8.60222982,28.8636068 7.83500977,29.7294922 C7.06778971,30.5953776 5.17651367,32.4695638 2.16118164,35.3520508 C1.90460612,33.9335937 1.77631836,32.9422689 1.77631836,32.3780762 C1.77631836,31.5317871 8.73222656,23.1317871 8.73222656,22.7664062 C8.73222656,22.4010254 14.8216797,9.40043945 15.3101074,9.00361328 C15.7985352,8.60678711 17.8732422,7.40263672 18.8364258,9.00361328 C19.4785482,10.070931 21.2064453,10.888623 24.0201172,11.4566895 L29.4751953,10.1370117 C30.2895833,10.5724609 30.6967773,11.0123535 30.6967773,11.4566895 C30.6967773,11.9010254 29.5182617,12.5909993 27.1612305,13.5266113 L22.8067383,14.5482422 L18.8364258,13.5266113 C17.7208008,17.8204915 16.8541748,19.9674316 16.2365479,19.9674316 C15.6189209,19.9674316 17.8089844,21.4568685 22.8067383,24.4357422 L22.4375977,34.0443359 L20.347168,34.8205566 L19.7596191,26.4393555 L11.9799805,23.1324707 Z" id="Path-31"></path>
                <path d="M32.4283203,10.1582031 C32.8537435,11.7459635 32.8537435,12.7254395 32.4283203,13.0966309 C31.7901855,13.653418 34.5071289,17.6746582 33.4677246,18.726709 C32.4283203,19.7787598 28.2532715,20.5491699 27.8280762,21.3018066 C27.4028809,22.0544434 27.1820801,27.9162598 27.8280762,30.9879883 C28.2587402,33.0358073 28.4740723,34.2706055 28.4740723,34.6923828 L29.6751465,34.6923828 L30.6783203,34.6923828 C30.6783203,29.4597005 30.6783203,26.4076823 30.6783203,25.5363281 C30.6783203,24.664974 31.6081217,23.6279622 33.4677246,22.425293 C33.1432454,23.2469727 33.2665202,24.5119629 33.8375488,26.2202637 C34.4085775,27.9285645 35.9579427,30.5417155 38.4856445,34.0597168 L40.8269531,32.5633301 C38.4298177,26.6789551 37.23125,23.7367676 37.23125,23.7367676 C37.23125,23.7367676 39.0236328,18.3691895 39.0236328,17.3954102 C39.0236328,16.746224 36.8251953,14.3338216 32.4283203,10.1582031 Z" id="Path-32"></path>
                <path d="M27.1222656,15.5746582 L31.0119141,14.2067871 L30.4564941,18.5790527 C25.2306478,20.9285645 22.2992839,22.1033203 21.6624023,22.1033203 C21.0255208,22.1033203 20.5147624,21.5891439 20.130127,20.560791 L21.6624023,19.2664062 L27.1222656,17.0994141 L27.1222656,15.5746582 Z" id="Path-33"></path>
                <path d="M25.504667,9.33059828 C25.7052168,9.73007377 26.2999289,9.62351462 26.6424797,9.58663142 L27.8824056,9.4531725 C27.8824056,9.4531725 29.601542,6.93263609 29.7798238,6.1201659 C29.8981697,5.58113052 29.8616115,5.01367011 29.6909604,4.4537666 C29.1978758,2.83783903 27.4429444,2.13421586 26.0257772,2.56641478 C24.60972,2.99792041 23.6307654,4.63651866 24.117676,6.23137012 C24.2737593,6.74218848 25.504667,9.33059828 25.504667,9.33059828 Z" id="Path" transform="translate(26.920018, 6.034489) rotate(-38.000000) translate(-26.920018, -6.034489) "></path>
                <path d="M18.504667,7.93059828 C18.7052168,8.33007377 19.2999289,8.22351462 19.6424797,8.18663142 L20.8824056,8.0531725 C20.8824056,8.0531725 22.601542,5.53263609 22.7798238,4.7201659 C22.8981697,4.18113052 22.8616115,3.61367011 22.6909604,3.0537666 C22.1978758,1.43783903 20.4429444,0.734215862 19.0257772,1.16641478 C17.60972,1.59792041 16.6307654,3.23651866 17.117676,4.83137012 C17.2737593,5.34218848 18.504667,7.93059828 18.504667,7.93059828 Z" id="Path" transform="translate(19.920018, 4.634489) scale(-1, 1) rotate(-38.000000) translate(-19.920018, -4.634489) "></path>
            </g>
        </g>
    </g>
</svg>