<?xml version="1.0" encoding="UTF-8"?>
<svg width="60px" height="60px" viewBox="0 0 60 60" version="1.1" xmlns="http://www.w3.org/2000/svg" xmlns:xlink="http://www.w3.org/1999/xlink">
    <!-- Generator: Sketch 49.2 (51160) - http://www.bohemiancoding.com/sketch -->
    <title>icone blanc</title>
    <desc>Created with Sketch.</desc>
    <defs></defs>
    <g id="icone-blanc" stroke="none" stroke-width="1" fill="none" fill-rule="evenodd">
        <g id="spelunking" transform="translate(-16.000000, -29.000000)" fill="#FFFFFF">
            <g id="taekwando" transform="translate(25.000000, 41.000000)">
                <path d="M14.9180664,6.21557617 L12.8019589,3.33217773 L14.1336426,2.08735352 L14.9180664,1.26806641 C14.3073893,0.990185547 13.2761882,1.26328125 11.8244629,2.08735352 C10.9586383,2.57883912 10.9099022,2.75848515 11.031665,3.08762207 C11.086596,3.23610597 11.2873447,3.498549 11.6339111,3.87495117 L13.3492188,7.38913574 L14.9180664,6.21557617 Z" id="Path-19"></path>
                <path d="M21.2121513,35.6680498 L19.0960437,32.7846513 L20.4277274,31.5398271 L21.2121513,30.72054 C20.6014742,30.4426592 19.570273,30.7157549 18.1185477,31.5398271 C17.2527231,32.0313127 17.2039871,32.2109588 17.3257499,32.5400957 C17.3806809,32.6885796 17.5814296,32.9510226 17.927996,33.3274248 L19.6433036,36.8416094 L21.2121513,35.6680498 Z" id="Path-19" transform="translate(19.244308, 33.728520) scale(-1, 1) rotate(209.000000) translate(-19.244308, -33.728520) "></path>
                <path d="M28.0673198,11.1125547 C27.968721,10.7288946 27.9805262,10.3211346 28.0889905,9.91547983 C28.4016358,8.74444403 29.6420191,8.19563007 30.6689656,8.46920601 C31.6950254,8.74283736 32.4379252,9.89282034 32.1294921,11.0481219 C32.0306715,11.4185963 31.7093247,12.621987 31.5305277,13.2909128 C31.4543755,13.5760678 31.1849053,13.6055418 30.7964402,13.5671481 C30.3483947,13.5229372 29.6743312,13.4452633 29.6743312,13.4452633 C29.6743312,13.4452633 28.2155229,11.6905102 28.0673198,11.1125547 Z" id="Path" transform="translate(30.100000, 10.990318) scale(-1, 1) translate(-30.100000, -10.990318) "></path>
                <path d="M18.6465576,8.46938477 L19.1748047,8.46938477 L21.8493652,12.5336914 L26.6594727,13.1017578 C28.1257813,14.2032552 28.8589355,14.7540039 28.8589355,14.7540039 C28.8589355,14.7540039 31.3448242,16.1181152 31.3448242,17.0867676 C31.3448242,18.0554199 30.4999023,22.2475586 29.3244629,22.9202148 C28.1490234,23.5928711 26.6594727,22.9044922 26.6594727,21.5270508 C26.6594727,20.6087565 25.2340658,20.3813477 22.383252,20.8448242 L24.560498,22.9202148 L24.160083,23.6909668 L22.4154721,22.3867344 L21.8493652,21.9635254 L21.8493652,16.0801758 L22.383252,14.7540039 L20.9767578,14.7540039 L20.7708967,14.4306787 C21.0277713,15.2459539 21.2581755,15.7693539 21.4621094,16.0008789 C21.8107422,16.3966797 21.8107422,18.1691243 21.4621094,21.3182129 L20.1841309,33.1556641 L17.303125,33.1556641 C17.303125,22.7010091 17.303125,17.2284993 17.303125,16.7381348 C17.303125,16.2477702 16.9854818,15.7787109 16.3501953,15.330957 L13.261377,7.37016602 C14.915446,5.99112956 15.7424805,5.64637044 15.7424805,6.33588867 C15.7424805,6.71253958 16.1842641,7.4721263 17.0678314,8.61464886 L16.9753418,8.46938477 L17.8228851,8.46938477 C16.6986408,7.6469046 16.3606413,7.23566451 16.8088867,7.23566451 C17.5017586,7.23566451 16.1160645,6.05800781 16.4460693,5.86096191 C16.7760742,5.66391602 16.8170898,5.52172852 17.5600723,6.09936523 C18.055394,6.48445638 18.4175557,7.22877604 18.6465576,8.33232422 L18.6465576,8.46938477 Z" id="Path-20"></path>
            </g>
        </g>
    </g>
</svg>