<?xml version="1.0" encoding="UTF-8"?>
<svg width="60px" height="60px" viewBox="0 0 60 60" version="1.1" xmlns="http://www.w3.org/2000/svg" xmlns:xlink="http://www.w3.org/1999/xlink">
    <!-- Generator: Sketch 49.2 (51160) - http://www.bohemiancoding.com/sketch -->
    <title>icone blanc</title>
    <desc>Created with Sketch.</desc>
    <defs></defs>
    <g id="icone-blanc" stroke="none" stroke-width="1" fill="none" fill-rule="evenodd">
        <g id="spelunking" transform="translate(-16.000000, -29.000000)" fill="#FFFFFF">
            <g id="karate" transform="translate(25.000000, 41.000000)">
                <path d="M16.8492187,19.5709473 L18.0092773,33.3986816 L21.9023437,33.3986816 C21.6334635,25.654248 21.7934245,20.8244303 22.3822266,18.9092285 C23.2654297,16.0364258 31.2562988,7.50141602 32.8726562,7.50141602 C33.9502279,7.50141602 33.9502279,6.22389323 32.8726562,3.66884766 C25.9312174,7.47919922 22.2744466,9.85673828 21.9023437,10.8014648 C21.5302409,11.7461914 19.8458659,14.6693522 16.8492187,19.5709473 Z" id="Path-6"></path>
                <path d="M21,11.5120605 L18.9311035,9.30097656 C23.2356934,7.98277995 25.3879883,7.13421224 25.3879883,6.75527344 C25.3879883,6.37633464 25.3879883,5.32177734 25.3879883,3.59160156 L14.9054199,6.10585938 L10.6657715,8.76879883 C10.033903,9.80262044 9.71796875,10.5072917 9.71796875,10.8828125 C9.71796875,11.4460937 9.67387695,16.2131348 11.2041016,16.7282227 C12.2242513,17.0716146 12.9577474,16.3802734 13.4045898,14.6541992 L16.9257812,18.2 L21,11.5120605 Z" id="Path-7"></path>
                <path d="M26.3545898,3.68046875 C27.0680339,3.23203125 27.5585124,3.0078125 27.8260254,3.0078125 C28.2272949,3.0078125 29.1966309,4.38422852 29.1966309,4.38422852 C29.1966309,4.38422852 27.7733887,5.11293945 26.8775391,5.11293945 C26.280306,5.11293945 26.1059896,4.63544922 26.3545898,3.68046875 Z" id="Path-8"></path>
                <path d="M34.3434082,4.62861328 C35.0415853,4.62861328 35.560319,4.62861328 35.8996094,4.62861328 C36.4085449,4.62861328 37.6352539,4.47583008 38.1503418,3.70473633 C38.6654297,2.93364258 37.6036716,1.46801758 36.9550781,2.00805664 C36.5226825,2.36808268 35.4648212,2.78538399 33.7814941,3.25996056 L34.3434082,4.62861328 Z" id="Path-9"></path>
                <path d="M21.4573242,34.2439453 C21.4573242,34.7163086 22.2566162,35.853125 21.9901855,35.853125 C21.7237549,35.853125 16.9199707,35.853125 16.9199707,35.853125 C16.9199707,35.853125 16.0812012,35.0485352 16.9199707,35.0485352 C17.7587402,35.0485352 18.79897,34.2439453 19.2958717,34.2439453 C19.7927734,34.2439453 21.4573242,33.771582 21.4573242,34.2439453 Z" id="Path-10"></path>
                <path d="M11.9307715,6.9968172 C11.9307715,6.9968172 12.326345,6.99720849 12.7672643,6.99765567 C13.1579244,6.99810285 13.4856838,7.04242979 13.5378366,6.72470681 C13.6604649,5.97919814 13.8993239,4.52596768 13.9670868,4.11372156 C14.1785643,2.82583673 13.3417133,1.64002124 12.2953296,1.43493229 C11.2479224,1.22978744 10.0568005,1.94041591 9.84204749,3.24507007 C9.76804061,3.69717131 9.79025291,4.14262071 9.92040471,4.55168065 C10.1162722,5.16812136 11.9307715,6.9968172 11.9307715,6.9968172 Z" id="Path"></path>
            </g>
        </g>
    </g>
</svg>