<?xml version="1.0" encoding="UTF-8"?>
<svg width="60px" height="60px" viewBox="0 0 60 60" version="1.1" xmlns="http://www.w3.org/2000/svg" xmlns:xlink="http://www.w3.org/1999/xlink">
    <!-- Generator: Sketch 49.2 (51160) - http://www.bohemiancoding.com/sketch -->
    <title>icone blanc</title>
    <desc>Created with Sketch.</desc>
    <defs></defs>
    <g id="icone-blanc" stroke="none" stroke-width="1" fill="none" fill-rule="evenodd">
        <g id="spelunking" transform="translate(-16.000000, -29.000000)" fill="#FFFFFF">
            <g id="judo-karate" transform="translate(25.000000, 41.000000)">
                <path d="M32.2,7.61384599 L13.88324,7.61384599 C12.38412,7.61384599 11.4625,8.92962564 11.00162,9.92521106 C10.54081,10.9207965 9.98662,12.2133109 9.38245,13.5275535 C8.79522,14.8048372 9.34549,15.2990667 10.16078,15.9175174 C10.58491,16.2392487 12.44782,17.7660924 13.10099,18.3022414 L14.03227,16.5152878 L14.25956,16.5917907 C14.26243,16.5927688 14.55741,16.6922575 15.59551,17.0502491 C16.53141,17.3729585 17.26081,16.7218107 17.5924,16.3371304 L12.4229,13.9220149 L12.66034,13.4157684 L18.43037,16.1114644 L18.26216,16.3790498 C17.8724,16.9993869 16.77522,18.0484894 15.4126,17.5785032 C14.84819,17.3838575 14.50407,17.2658544 14.30737,17.1986437 L13.98516,18.489621 L22.18874,18.489621 L22.92234,11.5048034 L31.92,11.3399903 L32.05993,9.45508514 C32.7012,9.42553198 33.29193,9.39171701 33.71235,9.35468821 C35.29904,9.21495693 35.69993,7.61384599 35.69993,7.61384599 L32.2,7.61384599 Z M18.17193,6.99532545 C18.17193,6.99532545 18.71296,6.99581451 19.31601,6.99637344 C19.85032,6.99693236 20.2986,7.05233582 20.36993,6.6552195 C20.53765,5.72342142 20.86434,3.90705443 20.95702,3.39179532 C21.24626,1.7820909 20.10169,0.299961152 18.67054,0.0436241075 C17.23799,-0.212782802 15.60888,0.675419117 15.31516,2.30608322 C15.21394,2.87115655 15.24432,3.42791585 15.42233,3.93919263 C15.69022,4.70967094 18.17193,6.99532545 18.17193,6.99532545 Z M30.84662,31.5728709 L29.49632,32.1090199 L29.86669,36.3286253 C28.45241,36.4760418 27.92055,35.5967826 27.67331,34.6984502 C27.42607,33.8001178 27.21348,33.0155965 27.21348,33.0155965 L26.50662,33.2962468 L25.15898,27.6652855 L20.43993,24.9638606 L20.37,24.9638606 L16.63662,24.9638606 L16.61331,24.9638606 L11.72493,27.6652855 L10.03331,32.8819435 L9.42662,32.6490114 C9.42662,32.6490114 9.03406,34.1133255 8.86662,34.6984502 C8.69918,35.283575 8.11811,36.5512172 6.67324,36.3286253 L7.07476,31.6075243 L5.6,30.972236 C5.6,30.972236 6.89094,26.8489754 7.10899,26.1528341 C7.3269,25.456623 7.76783,24.7870306 8.39944,24.1566329 C9.03105,23.5262352 13.45162,19.677337 13.45162,19.677337 L15.74986,19.677337 L14.47831,22.8868947 L16.09006,22.8868947 L17.24723,19.7003926 L17.90845,21.8556779 L19.355,21.8556779 L18.68818,19.677337 L22.785,19.677337 C22.785,19.677337 27.97662,24.0556072 28.5138,24.4606882 C29.05098,24.8659089 29.72662,25.8021784 29.88818,26.7200034 C30.04974,27.6377585 30.84662,31.5728709 30.84662,31.5728709 Z" id="Fill-1"></path>
            </g>
        </g>
    </g>
</svg>