<?xml version="1.0" encoding="UTF-8"?>
<svg width="60px" height="60px" viewBox="0 0 60 60" version="1.1" xmlns="http://www.w3.org/2000/svg" xmlns:xlink="http://www.w3.org/1999/xlink">
    <!-- Generator: Sketch 49.2 (51160) - http://www.bohemiancoding.com/sketch -->
    <title>icone blanc</title>
    <desc>Created with Sketch.</desc>
    <defs></defs>
    <g id="icone-blanc" stroke="none" stroke-width="1" fill="none" fill-rule="evenodd">
        <g id="spelunking" transform="translate(-16.000000, -29.000000)" fill="#FFFFFF">
            <g id="escrime" transform="translate(25.000000, 41.000000)">
                <path d="M31.6222011,11.1947991 C31.6222011,10.9389 31.4143503,10.7313952 31.1578211,10.7313952 C31.1576452,10.7313952 31.1574692,10.7314537 31.1572933,10.7314537 L30.0189817,10.7296397 L21.0050365,12.0160405 C21.0050365,12.0160405 20.8968297,11.954187 20.7201214,11.8531265 L21.1050911,11.758971 C24.2840823,8.68484576 20.9430449,5.6000117 20.9430449,5.6000117 L18.232539,5.89131423 C18.232539,5.89131423 17.7249936,5.9462041 17.488229,6.57796426 C17.2514644,7.20972441 16.5122569,9.14860079 16.5122569,9.14860079 L17.756136,9.03817735 L18.77803,10.7424551 C18.3267874,10.4843908 17.9452193,10.2661772 17.7998879,10.1829647 C17.4041855,9.95655859 16.933882,9.96615554 16.4786512,10.1544079 C16.1832966,10.2765935 10.8910186,12.4652246 10.689971,12.5585022 C10.3101624,12.7348169 10.1004935,12.948115 10.0134589,13.3400684 C9.93844728,13.6778928 9.36251756,16.2191533 9.16258433,17.2418721 C8.9621819,18.2668731 9.42650324,18.8291724 9.78121026,18.9230352 L11.9776607,14.1197621 L15.5107139,13.0314446 L15.4683109,13.3057184 L14.353752,13.7478803 L13.6546015,18.4274464 C12.2073875,18.9723074 11.5028413,20.8081921 11.5028413,20.8081921 L7.48804815,24.4154747 C7.48804815,24.4154747 1.68452991,27.7803759 0.611083715,28.4068109 C-0.462362476,29.0331874 0.205000482,29.9097868 0.205000482,29.9097868 L10.690147,25.9693028 L15.2771163,22.7865096 L21.5605565,21.6516118 C21.5605565,21.6516118 23.4483391,27.3657759 23.876181,28.6420532 C24.3040229,29.9183889 25.2967685,30.0370634 25.7486564,29.9097868 C25.7486564,29.9097868 24.2616199,19.6840031 24.2111821,19.3076154 C24.145261,18.8151281 23.889201,18.6011863 23.4923843,18.6011863 C23.199141,18.6011863 18.8539214,18.6106662 18.8539214,18.6106662 L18.0889084,19.6755765 L17.7842287,19.681955 L20.3089943,15.3392183 L30.7186014,11.6594905 L31.1578211,11.6594905 L31.1578211,11.6582031 C31.4143503,11.6582031 31.6222011,11.4506398 31.6222011,11.1947991 M45.5222824,11.1947991 C45.5222824,11.3240654 45.4172427,11.4288711 45.2876878,11.4288711 L32.8236186,11.4288711 C32.7173473,11.8835558 32.3096219,12.2225505 31.8215478,12.2225505 C31.5727016,12.2225505 31.3444411,12.1344809 31.1663838,11.9878934 C31.2501927,12.0159235 31.3396319,12.0317819 31.4328833,12.0317819 C31.9207227,12.0317819 32.3112641,11.6163627 32.2685678,11.1206569 C32.2369562,10.7543343 31.9591376,10.4464126 31.5977446,10.37426 C31.444613,10.3437136 31.2985192,10.3574068 31.1663838,10.4017049 C31.370833,10.2332901 31.6415552,10.1421776 31.9336841,10.1729581 C32.3698541,10.2188947 32.72591,10.5448984 32.8243224,10.9607272 L45.2876878,10.9607272 C45.4172427,10.9607272 45.5222824,11.0655329 45.5222824,11.1947991" id="Fill-1"></path>
            </g>
        </g>
    </g>
</svg>