<?xml version="1.0" encoding="UTF-8"?>
<svg width="60px" height="60px" viewBox="0 0 60 60" version="1.1" xmlns="http://www.w3.org/2000/svg" xmlns:xlink="http://www.w3.org/1999/xlink">
    <!-- Generator: Sketch 49.2 (51160) - http://www.bohemiancoding.com/sketch -->
    <title>icone blanc</title>
    <desc>Created with Sketch.</desc>
    <defs>
        <polygon id="path-1" points="0 0.00294141414 29.7749181 0.00294141414 29.7749181 36.0322311 0 36.0322311"></polygon>
        <polygon id="path-3" points="0.200788283 0.221160848 5.16990303 0.221160848 5.16990303 6.74670135 0.200788283 6.74670135"></polygon>
    </defs>
    <g id="icone-blanc" stroke="none" stroke-width="1" fill="none" fill-rule="evenodd">
        <g id="spelunking" transform="translate(-16.000000, -29.000000)">
            <g id="beach-tennis" transform="translate(25.000000, 41.000000)">
                <g id="Page-1" transform="translate(2.800000, 0.000000)">
                    <g id="Group-3" transform="translate(0.000000, 0.364809)">
                        <mask id="mask-2" fill="white">
                            <use xlink:href="#path-1"></use>
                        </mask>
                        <g id="Clip-2"></g>
                        <path d="M18.1611733,6.89154949 C17.8821067,5.72491111 17.49384,4.62776364 17.3088986,3.48134747 C17.1052057,2.21690707 17.8776945,0.781129293 19.0417592,0.260131313 C20.2587693,-0.284765657 21.7967612,0.0601151515 22.6082238,1.06019596 C23.46344,2.1135899 23.5196945,3.65599394 22.7085996,4.74725859 C22.214442,5.41238586 21.6857228,6.05251111 21.1489147,6.68381212 C20.9455895,6.92243434 20.9533107,7.0687697 21.2290683,7.19488283 C22.62624,7.8346404 23.0435531,9.03032525 23.1744461,10.4502929 C23.305339,11.870996 23.5972743,13.2725798 23.8686198,14.6741636 C23.9171531,14.9238162 24.0064986,15.1396424 24.1473188,15.3488505 C25.2297592,16.9581717 26.3118319,18.5678606 27.3777269,20.1882121 C27.5534764,20.4555131 28.2928743,20.5106646 28.3700865,20.5610364 C29.372741,21.2191778 30.3353188,21.5357475 29.385242,21.6398 C29.0877915,21.6725232 28.7932824,21.6592869 28.6061349,21.9751212 C28.5131127,22.1321192 28.3075814,22.138002 28.1270521,22.1490323 C27.4402319,22.1905798 26.7545147,22.2438929 26.0676945,22.281396 C25.2790279,22.3244141 24.8451693,21.7100263 25.2312299,21.0151172 C25.4025673,20.7066364 25.2922642,20.5926566 25.1216622,20.4102889 C24.0506198,19.262402 22.9895046,18.1049556 21.9092703,16.9658929 C21.6232178,16.6636626 21.4220986,16.3309152 21.2787046,15.9448545 C20.819844,14.7072545 20.3481147,13.4744343 19.8602077,12.1838889 C19.0531572,12.7673919 18.2641228,13.2972141 17.5258279,13.8899091 C17.1916097,14.1583131 17.2294804,14.6723253 17.0180663,15.0315455 C16.5492784,15.8275657 16.7511329,16.3746687 17.4269228,16.9971455 C18.8137996,18.2744545 20.0436784,19.723101 21.4419531,20.9868061 C22.5799127,22.015198 23.0711289,23.2406646 23.2788663,24.7146808 C23.7836865,28.2918081 24.3756461,31.8560667 24.9348824,35.4254727 C25.0249632,36.0027253 24.9635612,36.0861879 24.3789552,36.0067697 C23.2917349,35.8589636 22.6688905,35.1853798 22.3526885,34.172798 C21.3871693,31.0784303 20.4098844,27.9877394 19.4579693,24.8893273 C19.3296501,24.4712788 19.1149269,24.201404 18.7417349,23.9782242 C16.8504057,22.8472505 14.969739,21.6982606 13.0956905,20.5382404 C12.7577956,20.3290323 12.628741,20.2819697 12.5430723,20.7614202 C12.2706238,22.2876465 11.9419208,23.8032101 11.6385875,25.3239212 C11.4812218,26.1118525 11.1142804,26.7747737 10.5017309,27.3023899 C8.25669657,29.2363697 6.01791273,31.1780707 3.76773091,33.1061677 C3.20077333,33.5918687 2.5540299,33.9492505 1.82566222,34.1496343 C1.49695919,34.2400828 1.16715313,34.2650848 0.830728889,34.2378768 C0.525557172,34.2132424 0.16854303,34.1614 0.0321349495,33.9029232 C-0.107949899,33.6378283 0.245019798,33.4664909 0.399811717,33.2797111 C2.62830061,30.5905232 4.86377535,27.9075859 7.1102804,25.2334727 C7.34265212,24.9569798 7.43898343,24.6911495 7.41839354,24.3289879 C7.30331071,22.3041919 7.23602586,20.2764545 7.10439758,18.2527616 C6.96357737,16.0882485 7.63201374,14.2660424 9.24390869,12.7986444 C9.38472889,12.6703253 9.50826828,12.5136949 9.60717333,12.3504465 C10.7410885,10.4815455 11.8617673,8.60455556 13.004139,6.74080202 C13.1879774,6.44077778 13.1199572,6.34334343 12.8250804,6.21612727 C11.8386036,5.79035758 10.8741875,5.3120101 9.8814602,4.90131515 C9.15456323,4.60129091 8.35486626,4.67004646 7.5882602,4.57702424 C5.73333091,4.35163838 3.87325414,4.17037374 2.01758949,3.95123838 C1.21384808,3.85637778 0.632551111,3.31846667 0.478126869,2.62760202 C0.418563232,2.36066869 0.452389495,2.23749697 0.764547071,2.23823232 C3.72838949,2.24595354 6.69627636,2.14925455 9.65350061,2.28713333 C11.0216259,2.35037374 12.3698966,2.86070909 13.7247855,3.17801414 C14.5634562,3.37472121 15.4194077,3.51370303 16.1952057,3.92586869 C16.6496541,4.16706465 16.9868137,4.47775152 17.1357228,4.99948485 C17.2802198,5.50577576 17.4960461,5.9925798 17.6824582,6.48673737 C17.7567289,6.68454747 17.8166602,6.90037374 18.1611733,6.89154949" id="Fill-1" fill="#FFFFFF" mask="url(#mask-2)"></path>
                    </g>
                    <path d="M29.6051127,20.7952097 L27.9126966,20.8683774 C27.4505269,20.8882319 27.090939,21.280543 27.1107935,21.7430804 C27.1203531,21.9669956 27.2166844,22.1736299 27.3817713,22.3251127 C27.5468582,22.4765956 27.7612137,22.554543 27.9851289,22.5449834 L29.6775451,22.4718158 C29.8481471,23.0189188 30.1595693,23.5097673 30.5868097,23.9020784 L30.5871774,23.9020784 C30.6419612,23.9524501 30.6985834,24.0006158 30.755941,24.046943 L30.5437915,19.132943 C30.0819895,19.5715814 29.7474036,20.1451572 29.6051127,20.7952097" id="Fill-4" fill="#FFFFFF"></path>
                    <g id="Group-8" transform="translate(30.884848, 18.013294)">
                        <mask id="mask-4" fill="white">
                            <use xlink:href="#path-3"></use>
                        </mask>
                        <g id="Clip-7"></g>
                        <path d="M5.16699838,3.34295394 C5.12912768,2.47229535 4.75483273,1.66818626 4.11250141,1.07916808 C3.4701701,0.490149899 2.63701455,0.186448889 1.76598828,0.224319596 C1.19608929,0.248586263 0.661119596,0.420291313 0.200788283,0.703402424 L0.447131717,6.40312768 C0.937612525,6.64947111 1.48508323,6.76786303 2.04836404,6.74359636 C3.84556808,6.66601657 5.24457818,5.14052566 5.16699838,3.34295394" id="Fill-6" fill="#FFFFFF" mask="url(#mask-4)"></path>
                    </g>
                    <path d="M31.4456659,16.5942085 C31.6541386,16.3669842 32.008579,16.3515418 32.2358032,16.5600145 C32.4633952,16.7684873 32.4784699,17.1229277 32.2699972,17.3505196 C32.0615244,17.5777438 31.707084,17.5928186 31.4798598,17.3843459 C31.2526356,17.1762408 31.2371931,16.8214327 31.4456659,16.5942085 M32.6821628,17.7284913 C33.099476,17.2736752 33.0685911,16.5647943 32.6141426,16.1478489 C32.1593265,15.7309034 31.4504457,15.7614206 31.0335002,16.2162368 C30.6165547,16.6706853 30.6470719,17.3799337 31.1015204,17.7968792 C31.5563366,18.2138246 32.2652174,18.1829398 32.6821628,17.7284913" id="Fill-9" fill="#FFFFFF"></path>
                </g>
            </g>
        </g>
    </g>
</svg>