<?xml version="1.0" encoding="UTF-8"?>
<svg width="60px" height="60px" viewBox="0 0 60 60" version="1.1" xmlns="http://www.w3.org/2000/svg" xmlns:xlink="http://www.w3.org/1999/xlink">
    <!-- Generator: Sketch 49.2 (51160) - http://www.bohemiancoding.com/sketch -->
    <title>icone blanc</title>
    <desc>Created with Sketch.</desc>
    <defs>
        <circle id="path-1" cx="16.1" cy="3.5" r="2.1"></circle>
    </defs>
    <g id="icone-blanc" stroke="none" stroke-width="1" fill="none" fill-rule="evenodd">
        <g id="spelunking" transform="translate(-16.000000, -29.000000)">
            <g id="speedball" transform="translate(25.000000, 41.000000)">
                <path d="M36.2529203,17.5007515 C35.6503603,16.7771061 31.9001523,12.3845417 31.6686483,12.104619 C31.3897123,11.7671933 31.2946803,11.6985804 30.9969843,11.567384 C30.7598803,11.4629294 28.7733363,10.5128448 28.5154563,10.3901344 C27.2421843,9.78434233 26.8898323,9.66152025 26.1286803,9.63662086 C25.4775123,9.61535031 19.7097923,9.44485092 19.7097923,9.44485092 L15.2869683,8.68826687 L16.6132723,4.8069773 C16.0820563,4.8069773 15.4157123,4.63296074 15.0741683,4.34605951 C15.0728803,4.34494294 14.1884163,5.97099571 12.8880963,8.49080245 C12.3848803,9.46595399 12.4365123,10.2721135 13.3851523,10.6151221 C15.1157203,11.240789 18.2752963,12.3313933 18.2752963,12.3313933 L19.3646083,18.863016 L16.1436563,24.4690626 C16.1436563,24.4690626 7.86702432,32.4628264 6.36286432,33.9060975 C4.85870432,35.3493129 6.04299232,36.3869362 6.04299232,36.3869362 L21.4687523,25.1810399 L22.0612323,25.1810399 L19.6734483,26.9380656 L19.5879363,28.3245037 L17.1488003,28.8851307 L14.2169203,31.0426123 C14.2169203,31.0426123 20.5543843,31.043338 20.9839043,31.043338 C21.7238323,31.043338 22.3227523,30.690392 22.5490483,30.204519 C22.7387763,29.7971405 25.6219923,23.6218693 26.0022883,22.8323466 C26.5537203,21.687589 26.4777843,20.6909436 26.2958403,19.3501172 C26.1902803,18.5724859 26.1275043,18.2024006 26.1275043,18.2024006 L27.0345923,13.0673767 L30.4873283,14.2484785 L36.2894323,19.5711969 C36.6470483,19.3625669 36.9019043,18.280616 36.2529203,17.5007515 Z M19.8861363,6.10604417 C19.7482083,5.66394049 19.7379043,5.18683252 19.8408323,4.70665399 C20.1379123,3.32038344 21.5580723,2.6065638 22.7769123,2.86616503 C23.9949123,3.12559877 24.9328563,4.42527975 24.6398083,5.79329448 C24.5457843,6.23149018 24.2149363,7.77564294 24.0452563,8.56751043 C23.9729043,8.90510368 23.5908163,8.84525583 23.1334083,8.82967975 C22.6169203,8.81214969 22.1540243,8.7967411 22.1540243,8.7967411 C22.1540243,8.7967411 20.0940083,6.77246564 19.8861363,6.10604417 Z" id="Fill-1" fill="#FFFFFF"></path>
                <g id="Oval-2">
                    <use fill="#D8D8D8" xlink:href="#path-1"></use>
                    <use fill="#FFFFFF" xlink:href="#path-1"></use>
                </g>
            </g>
        </g>
    </g>
</svg>