<?xml version="1.0" encoding="UTF-8"?>
<svg width="60px" height="60px" viewBox="0 0 60 60" version="1.1" xmlns="http://www.w3.org/2000/svg" xmlns:xlink="http://www.w3.org/1999/xlink">
    <!-- Generator: Sketch 49.2 (51160) - http://www.bohemiancoding.com/sketch -->
    <title>icone blanc</title>
    <desc>Created with Sketch.</desc>
    <defs></defs>
    <g id="icone-blanc" stroke="none" stroke-width="1" fill="none" fill-rule="evenodd">
        <g id="spelunking" transform="translate(-16.000000, -29.000000)" fill="#FFFFFF">
            <g id="badminton" transform="translate(25.000000, 41.000000)">
                <path d="M17.8058966,1.2609985 L17.9690493,1.2137351 L17.9908649,1.20741499 L18.1672491,1.82227885 L18.1454881,1.82859896 L17.9822808,1.87586236 C17.9528652,1.88438076 17.9233403,1.88844761 17.8941981,1.88844761 C17.7560322,1.88844761 17.6284735,1.79705338 17.5883415,1.65707678 C17.5396253,1.48758803 17.637331,1.30985566 17.8058966,1.2609985 Z M19.129981,0.213509661 C19.1339724,0.209827512 19.1391119,0.207849044 19.1443608,0.207849044 C19.1463291,0.207849044 19.1482428,0.208123832 19.1502111,0.208673406 C19.1572643,0.210706831 19.1627319,0.216202575 19.1648095,0.223292085 C19.217189,0.405695834 19.1320587,0.623217388 19.1051582,0.684989553 L19.3386787,0.847059048 C19.3392801,0.84744375 19.3396082,0.847938367 19.3400456,0.848323069 C19.3408657,0.848927601 19.3414125,0.849642048 19.3421232,0.850356495 C19.3433808,0.851675473 19.3443649,0.853104367 19.3451851,0.854698133 C19.3454585,0.85519275 19.3458412,0.855467537 19.3461146,0.856017111 C19.3461692,0.856291898 19.3461692,0.856566686 19.3462786,0.856841473 C19.3470987,0.859204643 19.3477548,0.861567813 19.3478095,0.864095855 C19.3478095,0.86420577 19.3478095,0.864315685 19.3479189,0.864370642 C19.3479189,0.866678855 19.3475361,0.86915194 19.3468254,0.871405195 L19.2444175,1.17707849 L19.4930285,1.38097059 C19.4970198,1.38426804 19.4994256,1.38877455 19.5003004,1.39355585 C19.5003551,1.39388559 19.5005191,1.39405046 19.5005738,1.39438021 C19.5006285,1.39487483 19.5004098,1.39547936 19.5004644,1.39602893 C19.5006285,1.39778757 19.5005738,1.39949125 19.5001364,1.40130485 C19.4999723,1.40223912 19.499863,1.4031734 19.4995349,1.40410768 C19.4993162,1.40471221 19.4993162,1.40531674 19.4990975,1.40586631 L19.3872855,1.66806827 C19.4427268,1.70587899 19.6299368,1.84459157 19.6823162,2.02694036 C19.6843939,2.03413979 19.6824802,2.04177887 19.6776141,2.04727462 C19.6735681,2.05167121 19.6678818,2.05419925 19.6619221,2.05419925 C19.6606646,2.05419925 19.6593524,2.05408934 19.6580402,2.05386951 L18.3808676,1.81645336 L18.1747397,1.09804968 L19.129981,0.213509661 Z M17.8941981,2.09635161 C17.9432969,2.09635161 17.9922318,2.08937202 18.0396357,2.07563266 L18.2027337,2.02836926 L18.2734296,2.00787013 L19.6204779,2.25825623 C19.6330533,2.26067436 19.6475971,2.26210326 19.6619221,2.26210326 C19.7256741,2.26210326 19.7869657,2.23500924 19.830105,2.18769088 C19.8308704,2.18686652 19.8316359,2.18609711 19.8323467,2.18521779 C19.8848355,2.1258088 19.9029332,2.04480153 19.8808441,1.96863052 C19.8367207,1.81496951 19.732618,1.69054586 19.6393957,1.60448251 L19.6892054,1.4877529 C19.6899162,1.48615914 19.6905723,1.48456537 19.6911737,1.48291665 C19.6943996,1.4748379 19.697188,1.46620959 19.6994298,1.45752631 C19.70107,1.45126116 19.7024916,1.44494106 19.7036945,1.43840112 C19.7062096,1.42449689 19.7074124,1.41037283 19.7073031,1.39619381 C19.7073577,1.38965387 19.707139,1.38316889 19.7065923,1.37668391 L19.706647,1.37668391 C19.7061549,1.3710233 19.7053894,1.36536268 19.7045146,1.35975702 C19.7039132,1.3562947 19.7032024,1.35288734 19.7024916,1.34947998 C19.7018355,1.34662219 19.7011247,1.34376441 19.7004139,1.34090662 C19.6883852,1.2935333 19.6616488,1.25110616 19.6240865,1.22016512 L19.4860847,1.10700775 L19.5428382,0.937793784 C19.5507115,0.914217042 19.5547028,0.889541151 19.5547028,0.864370642 C19.5547028,0.856841473 19.5543201,0.849257346 19.5535,0.841838091 C19.5519144,0.826285135 19.5487432,0.810952009 19.5440411,0.79589367 C19.5429475,0.792156564 19.54169,0.788474415 19.5404325,0.784847224 C19.5386282,0.780065927 19.5367145,0.775229672 19.5345821,0.770558289 C19.5311376,0.762699375 19.5269822,0.754895419 19.5224441,0.747366249 C19.5144614,0.733956633 19.5042917,0.720327188 19.4928645,0.708071678 C19.488053,0.702795764 19.4829135,0.697794637 19.4775553,0.693013339 C19.4711035,0.687132893 19.4642144,0.681637149 19.4573252,0.676800894 L19.3522383,0.603817411 C19.3855905,0.480987529 19.4077342,0.319742396 19.3635015,0.165641729 C19.3417405,0.0893058427 19.2830733,0.0305013801 19.2066912,0.00868327578 C19.1859144,0.00285778697 19.1651923,0 19.1443608,0 C19.0869512,0 19.0321113,0.0214883597 18.9898469,0.0605631007 L17.9823902,0.993465673 L17.911749,1.01401976 L17.748651,1.06128316 C17.6139845,1.10024798 17.5024458,1.18977365 17.4345931,1.31326303 C17.3666857,1.43680735 17.3507204,1.57936696 17.3895949,1.71472714 C17.4540577,1.93939316 17.6615524,2.09635161 17.8941981,2.09635161 Z M16.546767,10.7227464 C15.9823485,9.73631532 16.4419535,8.55016886 17.3022229,8.05285897 C18.1620002,7.55598874 19.4113428,7.82984167 19.9683255,8.80341275 C20.1467327,9.11529623 20.7753953,10.2141703 21.0978186,10.7777039 C21.2352737,11.0179778 20.9770944,11.1866422 20.6979743,11.4221348 C20.3828776,11.6880189 20.1004769,11.9265892 20.1004769,11.9265892 C20.1004769,11.9265892 17.7998276,11.8205213 17.3208674,11.5339183 C17.0030915,11.3437106 16.7422331,11.0644718 16.546767,10.7227464 Z M26.9095854,23.3781812 L26.9233054,23.3781812 L26.9332454,23.3927412 L26.9095854,23.3781812 Z M11.6487973,8.03477797 C11.5090459,8.06555414 11.3721376,8.08528386 11.2383459,8.0947915 L11.1801161,7.89535094 L11.7180716,7.73784291 L11.7933055,7.99553836 L11.6487973,8.03477797 Z M10.6192515,8.05961873 L11.0410755,7.93601945 L11.0893543,8.10122152 C10.9272405,8.10319998 10.7703208,8.08918584 10.6192515,8.05961873 Z M9.23103235,7.11643912 C9.20779513,7.08291508 9.18548739,7.04845676 9.16356238,7.0136687 L9.29133979,6.97624269 L9.39423969,7.32890459 C9.33743151,7.26224121 9.28291971,7.19145603 9.23103235,7.11643912 Z M9.57215482,2.90230249 L9.61529405,3.05008305 L9.32846467,3.13405803 C9.40408134,3.04975331 9.48549364,2.97248315 9.57215482,2.90230249 Z M11.6592404,7.01899958 L12.1971958,6.86149155 L12.3544982,7.40051414 L11.8165427,7.55802216 L11.6592404,7.01899958 Z M10.9822443,7.21723107 L11.5201998,7.05972304 L11.6775021,7.59869067 L11.1395467,7.75625366 L10.9822443,7.21723107 Z M10.3051936,7.4154076 L10.8432037,7.25795453 L11.0005061,7.79697712 L10.4625506,7.95448515 L10.3051936,7.4154076 Z M10.1662077,7.45613107 L10.3183158,7.97729249 C10.0829911,7.89364726 9.86516257,7.76806951 9.66827492,7.60193316 L10.1662077,7.45613107 Z M9.96833585,6.77806615 L10.1256382,7.31703378 L9.58762808,7.47459677 L9.43032573,6.93551922 L9.96833585,6.77806615 Z M9.23245392,6.25745431 L9.77046404,6.09989132 L9.92776638,6.63891391 L9.38975627,6.79642194 L9.23245392,6.25745431 Z M9.0934133,6.29812281 L9.25077032,6.8371454 L9.0868522,6.88512325 C8.99647306,6.72404299 8.91943483,6.55109192 8.85579217,6.36769893 L9.0934133,6.29812281 Z M9.17679393,4.06547675 L9.33409628,4.60455429 L8.79614084,4.76211728 L8.7105185,4.46886437 C8.7283975,4.37076533 8.75004912,4.27546913 8.77552806,4.18297576 L9.17679393,4.06547675 Z M10.2922901,2.85185156 L9.75427999,3.00935959 L9.69594089,2.80947937 C9.85127491,2.70203758 10.0215901,2.61624901 10.2053555,2.55403719 L10.2922901,2.85185156 Z M11.1082721,2.61295156 L11.0614149,2.45231096 C11.1843809,2.46385202 11.3062533,2.48610979 11.4264854,2.51974374 L11.1082721,2.61295156 Z M11.98314,3.09283994 L11.8671726,2.69533277 C12.0216318,2.77639499 12.1711155,2.87746173 12.3146395,2.99573014 L11.98314,3.09283994 Z M12.7190219,3.61345179 L12.1810118,3.77090486 L12.0237641,3.23193723 L12.4440572,3.10888752 C12.5052941,3.16565855 12.5656562,3.22484772 12.624214,3.28854339 L12.7190219,3.61345179 Z M12.8584345,3.57391892 L12.8577345,3.57195892 C12.8582945,3.57251892 12.8587145,3.57321892 12.8591345,3.57377892 L12.8584345,3.57391892 Z M13.451678,5.60708794 L13.2943756,5.06812031 L13.5140631,5.00382011 C13.5562181,5.19386294 13.5816424,5.38181739 13.5901171,5.56658431 L13.451678,5.60708794 Z M12.5341083,7.49894291 L12.930836,7.38276288 C12.8256944,7.48448911 12.7091803,7.5770924 12.5809108,7.65925377 L12.5341083,7.49894291 Z M12.8741919,6.66331501 L13.0314942,7.20228264 L12.4935388,7.35984563 L12.3362365,6.82076808 L12.8741919,6.66331501 Z M12.13831,6.14270317 L12.6763201,5.98514018 L12.8336224,6.52421773 L12.295667,6.6816708 L12.13831,6.14270317 Z M11.4613139,6.3408797 L11.999324,6.18337168 L12.1566264,6.72239426 L11.6186709,6.87990229 L11.4613139,6.3408797 Z M10.7843179,6.5391112 L11.322328,6.38154821 L11.4796303,6.92062575 L10.9416749,7.07813378 L10.7843179,6.5391112 Z M10.6453319,6.5797797 L10.8026343,7.11885725 L10.2646241,7.27636527 L10.1073218,6.73734269 L10.6453319,6.5797797 Z M10.4474601,5.90165983 L10.6047624,6.44073737 L10.0667523,6.5982454 L9.90944998,6.05922281 L10.4474601,5.90165983 Z M9.71157817,5.38110294 L10.2495883,5.22359491 L10.4068906,5.76256254 L9.86888052,5.92007057 L9.71157817,5.38110294 Z M9.57253755,5.42177145 L9.72989458,5.96079404 L9.19188446,6.11830206 L9.03458211,5.57927948 L9.57253755,5.42177145 Z M9.53196809,5.28272912 L8.99401265,5.44018219 L8.83671031,4.9011596 L9.37466574,4.74365158 L9.53196809,5.28272912 Z M10.0110923,4.4063228 L9.4731369,4.56383083 L9.31577988,4.02480824 L9.85378999,3.86730021 L10.0110923,4.4063228 Z M10.4901619,3.52997143 L9.9521518,3.68747946 L9.79484946,3.14845687 L10.3328596,2.9910038 L10.4901619,3.52997143 Z M11.167158,3.33173994 L10.6291479,3.48924797 L10.4718455,2.95028034 L11.0098556,2.79277231 L11.167158,3.33173994 Z M11.5040704,3.96919131 L11.3467134,3.43011376 L11.8847235,3.27266069 L12.0420258,3.81162832 L11.5040704,3.96919131 Z M12.2398977,4.48980315 L11.7019422,4.64731118 L11.5446399,4.10828859 L12.0825953,3.95072561 L12.2398977,4.48980315 Z M12.3788836,4.44907969 L12.2216359,3.9100571 L12.7595914,3.75254907 L12.9168937,4.29157166 L12.3788836,4.44907969 Z M12.5768101,5.12719956 L12.4195077,4.58823193 L12.9574632,4.43066895 L13.1148202,4.96969153 L12.5768101,5.12719956 Z M11.9404382,5.46452834 L12.4783936,5.30702031 L12.6356959,5.8460429 L12.0977405,6.00355093 L11.9404382,5.46452834 Z M11.2634421,5.66275983 L11.8014522,5.5052518 L11.9587546,6.04427439 L11.4207445,6.20178242 L11.2634421,5.66275983 Z M11.1244562,5.70348329 L11.2817585,6.24245092 L10.7437484,6.40001391 L10.586446,5.86093637 L11.1244562,5.70348329 Z M10.9265297,5.02530846 L11.0838867,5.56438601 L10.5458766,5.72183908 L10.3885742,5.18287145 L10.9265297,5.02530846 Z M10.1907024,4.50469662 L10.7286579,4.34724355 L10.8859602,4.88621118 L10.3480048,5.04377417 L10.1907024,4.50469662 Z M10.2089642,5.08444267 L9.67100871,5.24200566 L9.51370637,4.70292811 L10.0516618,4.54542008 L10.2089642,5.08444267 Z M10.6880337,4.20809131 L10.150133,4.36559934 L9.99277594,3.8266317 L10.5307314,3.66906872 L10.6880337,4.20809131 Z M10.8270743,4.1674228 L10.669772,3.62840021 L11.2077274,3.47083723 L11.3650298,4.00991477 L10.8270743,4.1674228 Z M11.0249462,4.84554267 L10.8676985,4.30652009 L11.4055992,4.1489571 L11.5629016,4.68803465 L11.0249462,4.84554267 Z M11.7425664,4.78640847 L12.2804671,4.62890044 L12.4378241,5.16786807 L11.899814,5.32543105 L11.7425664,4.78640847 Z M11.7608281,5.36615452 L11.2228726,5.52366255 L11.0655703,4.984585 L11.6035257,4.82713193 L11.7608281,5.36615452 Z M13.3532615,5.78690869 L13.5105638,6.32598624 L12.9726631,6.48349426 L12.815306,5.94441672 L13.3532615,5.78690869 Z M12.7746819,5.80531943 L12.6173795,5.26629685 L13.1553897,5.10878882 L13.312692,5.64781141 L12.7746819,5.80531943 Z M11.6923739,2.61333627 L11.844154,3.13356341 L11.3061439,3.29101648 L11.1488416,2.75204885 L11.6629584,2.60146546 C11.6727453,2.60547735 11.6826417,2.60921446 11.6923739,2.61333627 Z M13.1589983,7.12215469 L13.0132325,6.62259155 L13.4795079,6.48602231 C13.4065157,6.72030588 13.298695,6.93288126 13.1589983,7.12215469 Z M13.6209473,5.93304053 C13.6173828,5.96508072 13.6110882,5.9959668 13.6061586,6.02740246 L13.4922474,5.74618523 L13.6322474,5.71667308 C13.6317924,5.78932682 13.6287588,5.86159585 13.6209473,5.93304053 Z M13.4582391,4.78217674 C13.466003,4.80916085 13.4726188,4.83592512 13.4797267,4.86285427 L13.2538061,4.92902303 L13.0965038,4.38994548 L13.2956332,4.33169059 C13.3594398,4.47914141 13.414389,4.63005454 13.4582391,4.78217674 Z M12.9539639,3.70676952 C13.0589415,3.86152968 13.1529839,4.02700654 13.2349977,4.1984188 L13.055825,4.2508482 L12.898632,3.71188057 L12.9474028,3.69759163 C12.9495352,3.70072421 12.9518316,3.70363695 12.9539639,3.70676952 Z M10.9080492,2.44368264 L10.9692862,2.65362007 L10.4312761,2.81118306 L10.3440134,2.51226953 C10.5202336,2.46572058 10.6969459,2.44241862 10.8724553,2.44241862 C10.8843746,2.44241862 10.8961846,2.44346281 10.9080492,2.44368264 Z M9.17056089,3.33124533 L9.65586351,3.18912538 L9.81316586,3.72820293 L9.27521042,3.88571095 L9.13048351,3.38982996 C9.14366038,3.37010024 9.15689193,3.35048043 9.17056089,3.33124533 Z M9.02840375,3.55684562 L9.13622447,3.92643442 L8.82582982,4.01727907 C8.88116175,3.85301128 8.94895977,3.69924036 9.02840375,3.55684562 Z M8.65584268,4.95413858 L8.69766968,4.94188307 L8.85497203,5.48090566 L8.6725188,5.53432429 C8.65234343,5.34103897 8.64665714,5.14610492 8.65584268,4.95413858 Z M8.7634447,6.05812367 C8.73266221,5.93452438 8.7087142,5.80790243 8.69045247,5.68001647 L8.89554149,5.61994798 L9.05284384,6.15902553 L8.8111767,6.22981071 C8.79417251,6.17336942 8.77804315,6.1163236 8.7634447,6.05812367 Z M11.9330569,7.95750781 L11.8571122,7.69711945 L12.3950676,7.53961142 L12.4526413,7.73674376 C12.301408,7.82099352 12.1365603,7.89271298 11.9581531,7.95069308 L11.9330569,7.95750781 Z M33.2867002,27.9671276 C33.1517056,26.6001162 33.0742846,26.4352988 32.4393343,25.2963059 C31.9236866,24.3714271 27.8375435,17.0415333 27.8375435,17.0415333 L25.7267833,12.9692967 L26.4494884,11.5280378 C26.4494884,11.5280378 28.4787816,9.90981596 28.7476773,9.69833973 C28.8652303,9.60590131 29.1156456,9.34655714 29.394547,8.95718367 C29.557973,8.72900037 32.2994188,4.90110465 32.8151759,4.18171174 C33.3308783,3.46226387 32.7989372,2.67159115 32.5996438,2.63619856 L27.2655797,8.44476048 L22.7283611,10.6403103 C22.7283611,10.6403103 22.3781624,10.814965 22.1761353,10.993192 C21.577763,11.5210582 19.9464005,12.921209 19.6796918,13.1591197 C19.3509807,13.4521528 19.1064704,14.0206876 19.1064704,14.0206876 L17.7594768,16.6806277 C17.7594768,16.6806277 15.561454,15.1780913 14.5165443,14.4633148 C14.1229877,13.6824245 13.859833,13.2932159 13.5359881,13.2217712 L13.3276185,12.6817594 L13.2379502,12.7060506 L12.1704594,8.73784852 L12.2290172,8.72185591 L12.0869694,8.19393472 C13.1343395,7.83874478 13.7573705,7.05274344 13.8430475,5.97623708 C13.8753062,5.57065116 13.8287224,5.14698424 13.7045536,4.71694226 C13.585579,4.30487136 13.3956352,3.8997251 13.1550616,3.54519465 C12.4041438,2.43813194 11.3210157,1.94983507 10.2576256,2.2388013 C9.19418085,2.52782249 8.50340648,3.49837091 8.40980147,4.83493589 C8.37983912,5.26343906 8.41887765,5.70963853 8.52270704,6.1252267 C8.63118388,6.55977519 8.80335805,6.94925858 9.03447276,7.28318 C9.64826357,8.16953362 10.5805411,8.53274735 11.6632317,8.30918048 L11.8052248,8.83726653 L11.8637827,8.82127392 L12.9313281,12.789421 L12.8417691,12.8137672 L12.9329137,13.388622 C12.6014142,13.6593424 12.6634166,14.142748 12.8042068,14.4139081 C12.9682343,14.7299133 13.4573642,15.0075034 13.4573642,15.0075034 C13.4573642,15.0075034 17.519942,19.0603949 17.7656005,19.3073187 C18.2650095,19.8093549 18.7218807,19.8162795 19.0708218,19.3935469 C19.4990429,18.8748036 20.3803625,17.8197306 20.3803625,17.8197306 L19.481984,16.9523373 L19.6005759,16.7238792 L22.2558526,18.5662725 L23.6618961,20.8378284 L21.0803771,28.0164244 L16.7620258,35.979428 C16.7620258,35.979428 17.8553235,37.0011967 19.0773829,35.3203234 C20.2993876,33.63945 27.3239188,23.977602 27.3239188,23.977602 L30.3255669,27.4949882 C30.3255669,27.4949882 31.7814201,33.2354579 32.1526689,34.809439 C32.5239178,36.3833652 33.7102192,36.5054806 34.1376747,36.3488519 C34.1376747,36.3488519 33.4114704,29.2314785 33.2867002,27.9671276 Z" id="Fill-1"></path>
            </g>
        </g>
    </g>
</svg>