<?xml version="1.0" encoding="UTF-8"?>
<svg width="60px" height="60px" viewBox="0 0 60 60" version="1.1" xmlns="http://www.w3.org/2000/svg" xmlns:xlink="http://www.w3.org/1999/xlink">
    <!-- Generator: Sketch 49.2 (51160) - http://www.bohemiancoding.com/sketch -->
    <title>icone blanc</title>
    <desc>Created with Sketch.</desc>
    <defs>
        <polygon id="path-1" points="0.159076895 0.181088062 32.3672894 0.181088062 32.3672894 31.2525253 0.159076895 31.2525253"></polygon>
        <polygon id="path-3" points="0.0707822814 0.0349292929 6.51233805 0.0349292929 6.51233805 6.4766998 0.0707822814 6.4766998"></polygon>
        <polygon id="path-5" points="0 0.0174510641 14.7778502 0.0174510641 14.7778502 10.4376883 0 10.4376883"></polygon>
    </defs>
    <g id="icone-blanc" stroke="none" stroke-width="1" fill="none" fill-rule="evenodd">
        <g id="spelunking" transform="translate(-16.000000, -29.000000)">
            <g id="basque" transform="translate(25.000000, 41.000000)">
                <g id="Page-1" transform="translate(-1.400000, 0.000000)">
                    <g id="Group-3" transform="translate(11.397980, 5.112582)">
                        <mask id="mask-2" fill="white">
                            <use xlink:href="#path-1"></use>
                        </mask>
                        <g id="Clip-2"></g>
                        <path d="M7.72257253,8.57528848 C7.80640283,9.52315919 7.87479071,10.3530057 7.9556796,11.1828521 C8.01193414,11.6461248 7.77257657,12.0946905 7.35599879,12.30684 C5.35546949,13.5459107 3.3328796,14.7596117 1.40662101,16.116339 C1.07093212,16.3457693 0.659501818,16.4376885 0.257263434,16.3729774 C-0.457132525,16.2865733 2.89497657,12.5825976 4.87050384,10.8949612 C5.10066949,10.6997248 5.0072796,10.4890461 4.96389374,10.2754259 C4.68409172,8.92862586 4.37965535,7.5906501 4.13441495,6.24973293 C3.93550182,5.15037939 4.28332404,4.4348804 5.2620796,3.89586626 C7.33724727,2.75018545 9.41866545,1.61075515 11.5188352,0.508460202 C12.6185564,-0.0676892929 13.6932756,0.167623838 14.6874735,0.817676364 C15.4540796,1.36220566 16.1809766,1.96041576 16.8622816,2.60826222 C17.8811139,3.50612889 18.8940634,4.41612889 19.9037038,5.32686424 C20.4408796,5.81293293 20.5063261,6.16296121 20.1801968,6.81007232 C19.4128554,8.33078343 18.6267624,9.84818545 17.8627301,11.371838 C17.7972836,11.5019956 17.5733685,11.650537 17.8127261,11.8115794 C18.0520836,11.9726218 18.1234129,11.7218663 18.2384958,11.5858259 C18.4495422,11.3097006 18.6484554,11.0218097 18.8598695,10.7401693 C18.9591422,10.6008198 19.0337806,10.4827956 19.1984998,10.7092844 C21.3420554,13.6573168 23.8584352,16.3174582 26.0328756,19.2158541 C27.3377604,20.9314339 28.4499826,22.7959228 29.6460352,24.5949653 C30.5034574,25.8833046 31.3483786,27.1870865 32.2308028,28.4599834 C32.4822937,28.8221451 32.3672109,28.9556117 32.0410816,29.1041531 C31.5601604,29.3302743 31.0027624,29.3302743 30.5218412,29.1041531 C29.8673766,28.8059673 29.2978453,28.3493127 28.8661927,27.775737 C27.2796675,25.8079309 25.6931422,23.8408602 24.1069846,21.8730541 C23.8260796,21.5197168 23.4867139,21.2171188 23.1035947,20.9777612 C20.6802372,19.4647713 18.2590857,17.9451632 15.8401402,16.4196723 C15.6048271,16.2424521 15.2831099,16.2336279 15.0386048,16.3976117 C12.9031382,17.5454986 10.7658331,18.6790461 8.62632202,19.7978865 C8.34615232,19.9350299 8.13731192,20.1835794 8.05201091,20.4828683 C7.04751798,23.5033329 6.03677455,26.5204885 5.01978061,29.5347026 C4.74953818,30.3366057 4.28663313,30.9623915 3.4229604,31.1881451 C2.80158667,31.355438 2.61848364,31.2102057 2.71775636,30.5936117 C3.32037859,26.8775026 3.9325604,23.1397006 4.52893212,19.4140319 C4.66717859,18.6378663 5.0388998,17.9219996 5.59445939,17.3612925 C7.16333616,15.6549046 8.72596242,13.9547673 10.3073402,12.2450703 C10.5327261,12.0340238 10.6029523,11.7060562 10.4841927,11.4214743 C10.2838089,10.4952966 9.66942101,9.7114097 8.81604323,9.29372889 C8.43623313,9.07790263 8.0711301,8.83817737 7.72257253,8.57528848" id="Fill-1" fill="#FFFFFF" mask="url(#mask-2)"></path>
                    </g>
                    <g id="Group-6" transform="translate(14.707071, 0.332784)">
                        <mask id="mask-4" fill="white">
                            <use xlink:href="#path-3"></use>
                        </mask>
                        <g id="Clip-5"></g>
                        <path d="M0.0725426263,3.0407604 C0.0243769697,1.64836848 0.969306263,0.415180606 2.33154869,0.0930957576 C3.68790828,-0.185235556 5.04794465,0.553794747 5.54541131,1.84029576 C5.90720525,2.79956444 6.18369818,3.79192404 6.46570626,4.77545939 C6.60873253,5.18468364 6.41276081,5.63508768 6.01456687,5.81083717 C5.60975475,6.03070788 5.17994061,6.21417859 4.76556889,6.42154828 C4.61004162,6.49508364 4.42988,6.49508364 4.27435273,6.42154828 C3.39229616,6.13145131 2.52641737,5.79392404 1.68076081,5.41043717 C0.746861818,4.97584323 0.129164848,4.06510788 0.0725426263,3.0407604" id="Fill-4" fill="#FFFFFF" mask="url(#mask-4)"></path>
                    </g>
                    <path d="M28.5756545,12.8721063 L27.2821677,10.7006073 L27.3292303,10.5983931 C27.8583172,10.9237871 28.3866687,11.250284 28.9135495,11.5775164 C29.0312061,11.6477426 28.9815697,11.7595164 28.9459051,11.8580537 C28.834499,12.1639608 28.7227253,12.4827366 28.5756545,12.8721063" id="Fill-7" fill="#FFFFFF"></path>
                    <g id="Group-11" transform="translate(0.000000, 18.348946)">
                        <mask id="mask-6" fill="white">
                            <use xlink:href="#path-5"></use>
                        </mask>
                        <g id="Clip-10"></g>
                        <path d="M0.0135672727,5.79903475 C-0.169168081,6.00125697 1.54310263,7.16421859 2.04792283,7.58704687 C2.55237535,8.01024283 2.66709051,8.52021051 4.11279556,9.50926101 C5.55886828,10.4983115 7.37004404,10.8402509 9.43528444,9.82031556 C11.5005248,8.80001253 11.1971915,7.03994384 11.0795349,6.66638424 C10.9618784,6.29356 11.3891188,5.25156404 11.4663309,5.11184687 C11.5439107,4.97176202 11.9185733,4.87506303 11.9185733,4.87506303 L12.8936521,3.46024283 C13.1447754,3.12455394 14.7515228,1.18358828 14.7732158,0.897535758 C14.7949087,0.611483232 14.7548319,0.222481212 14.3367834,0.119899394 C13.9187349,0.0173175758 14.3864198,-0.570229899 11.8009168,2.83482465 C8.63963192,6.82522061 7.4134299,7.50027515 5.76954707,8.01649333 C4.12529657,8.53271152 0.462500606,5.69645293 0.462500606,5.69645293 C0.306973333,5.62291758 0.122031919,5.66556808 0.0135672727,5.79903475" id="Fill-9" fill="#FFFFFF" mask="url(#mask-6)"></path>
                    </g>
                    <path d="M3.03138465,22.9135426 C3.34538061,22.9135426 3.59981293,23.1676073 3.59981293,23.4819709 C3.59981293,23.7955992 3.34538061,24.0503992 3.03138465,24.0503992 C2.71738869,24.0503992 2.46295636,23.7955992 2.46295636,23.4819709 C2.46295636,23.1676073 2.71738869,22.9135426 3.03138465,22.9135426" id="Fill-12" fill="#FFFFFF"></path>
                </g>
            </g>
        </g>
    </g>
</svg>