<?xml version="1.0" encoding="UTF-8"?>
<svg width="60px" height="60px" viewBox="0 0 60 60" version="1.1" xmlns="http://www.w3.org/2000/svg" xmlns:xlink="http://www.w3.org/1999/xlink">
    <!-- Generator: Sketch 49.2 (51160) - http://www.bohemiancoding.com/sketch -->
    <title>icone blanc</title>
    <desc>Created with Sketch.</desc>
    <defs></defs>
    <g id="icone-blanc" stroke="none" stroke-width="1" fill="none" fill-rule="evenodd">
        <g id="spelunking" transform="translate(-16.000000, -29.000000)" fill="#FFFFFF">
            <g id="squash" transform="translate(25.000000, 41.000000)">
                <path d="M40.1987025,20.7301872 L39.8305935,20.7590562 L39.8785419,21.37343 L40.1381743,21.353017 C40.1867154,21.1568798 40.2075282,20.9471338 40.1987025,20.7301872 Z M40.0923994,21.5113669 L39.8905289,21.5272217 L39.9185866,21.8865313 C39.9888626,21.7708573 40.0474149,21.6452079 40.0923994,21.5113669 Z M39.8186064,20.6052645 L40.1870447,20.5762634 C40.162873,20.3486148 40.1086676,20.1469945 40.0323981,19.9703455 L39.7705922,19.9908906 L39.8186064,20.6052645 Z M39.7795496,22.0835934 L39.7370679,21.539311 L39.1247384,21.5874039 L39.1726867,22.2017117 L39.7126326,22.1593001 C39.735553,22.1347912 39.7580782,22.1096877 39.7795496,22.0835934 Z M39.52624,22.3287484 L39.1846738,22.3555694 L39.1976489,22.5217807 C39.2305804,22.5059919 39.2633803,22.4909298 39.2965094,22.4742162 C39.3779162,22.4330598 39.4543175,22.3839099 39.52624,22.3287484 Z M39.1126854,21.4334801 L39.7250808,21.3854533 L39.6770666,20.7711455 L39.0647371,20.8192384 L39.1126854,21.4334801 Z M39.0528159,20.6653807 L39.6650795,20.6173538 L39.6171311,20.0029799 L39.0047358,20.0510068 L39.0528159,20.6653807 Z M39.0486006,22.5898903 L39.0311469,22.3676587 L38.4188174,22.4156856 L38.4489827,22.8027411 C38.6462428,22.7489669 38.8460715,22.6783469 39.0486006,22.5898903 Z M38.4068303,22.2618279 L39.0191598,22.213801 L38.9712114,21.5994271 L38.3588161,21.64752 L38.4068303,22.2618279 Z M38.346829,21.4936623 L38.9592244,21.4456355 L38.911276,20.8313277 L38.2988807,20.8793545 L38.346829,21.4936623 Z M38.2975634,22.8407266 L38.2653563,22.4277088 L37.652961,22.4758678 L37.6887247,22.9342039 C37.8894096,22.9188115 38.0923339,22.8883571 38.2975634,22.8407266 Z M37.640908,22.3220101 L38.2533692,22.2739171 L38.2052892,21.6596093 L37.5929597,21.7076362 L37.640908,22.3220101 Z M37.5809726,21.5537785 L38.1933679,21.5057516 L38.1454196,20.8913778 L37.5329584,20.9395367 L37.5809726,21.5537785 Z M37.535066,22.9432543 L37.4994999,22.487891 L36.8871046,22.5359839 L36.9174016,22.9242946 C37.1215773,22.9446416 37.3273337,22.951446 37.535066,22.9432543 Z M36.8750516,22.3821262 L37.4874469,22.3340994 L37.4394986,21.7197255 L36.8271691,21.7678184 L36.8750516,22.3821262 Z M36.8151162,21.6139607 L37.4274456,21.5658678 L37.3794973,20.951626 L36.7671678,20.9996529 L36.8151162,21.6139607 Z M36.7615036,22.9061277 L36.7335776,22.5480732 L36.1212481,22.5961661 L36.1360673,22.786622 C36.343602,22.8375556 36.5518612,22.8785139 36.7615036,22.9061277 Z M36.109261,22.4422424 L36.7215905,22.3942155 L36.6736422,21.7798416 L36.0612468,21.8280006 L36.109261,22.4422424 Z M36.0492597,21.6741429 L36.6615892,21.62605 L36.6136409,21.0117422 L36.0013114,21.059769 L36.0492597,21.6741429 Z M35.9892584,20.9059113 L36.6017196,20.8578845 L36.5537054,20.2435767 L35.9413101,20.2916035 L35.9892584,20.9059113 Z M35.9785886,22.7481894 L35.967787,22.6081894 L35.6081085,22.6369142 C35.7314702,22.6771156 35.8548977,22.7142296 35.9785886,22.7481894 Z M35.3433388,22.5024906 L35.9557341,22.4543317 L35.9077857,21.8400239 L35.2954563,21.8881168 L35.3433388,22.5024906 Z M35.2833374,21.7342591 L35.8957987,21.6862322 L35.8477844,21.0718583 L35.235455,21.1199513 L35.2833374,21.7342591 Z M35.2234679,20.9661596 L35.8357973,20.9180006 L35.787849,20.3036268 L35.1753878,20.3517857 L35.2234679,20.9661596 Z M35.1880335,22.4915244 L35.1419293,21.90014 L34.5295998,21.9482329 L34.5525861,22.2439251 C34.7650605,22.3306641 34.9766787,22.4141661 35.1880335,22.4915244 Z M34.517481,21.7943752 L35.1298764,21.7463484 L35.081928,21.1320406 L34.4695985,21.1800674 L34.517481,21.7943752 Z M34.4576114,21.0262097 L35.0699409,20.9781828 L35.0219267,20.363875 L34.4095972,20.4119019 L34.4576114,21.0262097 Z M34.3976101,20.2580442 L35.0100055,20.2100173 L34.9619913,19.5957095 L34.9183899,19.5990787 C34.735488,19.705438 34.5538375,19.8175447 34.372187,19.9327563 L34.3976101,20.2580442 Z M34.3930656,22.1782598 L34.3760729,21.9603883 L33.9512557,21.9936834 C33.9696974,22.0014126 33.9882049,22.0091418 34.0065808,22.016871 C34.1359359,22.0711738 34.2646325,22.1250801 34.3930656,22.1782598 Z M33.7516905,21.8545574 L34.3640199,21.8064645 L34.3161374,21.1921567 L33.7037421,21.2402496 L33.7516905,21.8545574 Z M34.3040845,21.038299 L34.2560703,20.4239912 L33.6438067,20.4720841 L33.6916892,21.0863919 L34.3040845,21.038299 Z M33.5965828,21.8457712 L33.550281,21.2522729 L32.9378857,21.3003658 L32.9606085,21.5926228 C33.1742684,21.6736805 33.3860842,21.758768 33.5965828,21.8457712 Z M32.9258327,21.1465081 L33.5382281,21.0984812 L33.4913994,20.4985088 C33.298157,20.6208551 33.1024118,20.7408892 32.9031758,20.8564972 L32.9258327,21.1465081 Z M32.801549,21.5328369 L32.7843587,21.3124551 L32.2716802,21.3527527 C32.4496423,21.4083767 32.6262872,21.4686249 32.801549,21.5328369 Z M32.2666087,21.1983004 L32.7723716,21.1585974 L32.755379,20.9411883 C32.5953974,21.0310983 32.4326496,21.1171767 32.2666087,21.1983004 Z M33.7926573,20.3055426 L34.2441491,20.2701335 L34.2251805,20.026564 C34.1323793,20.0860856 34.0393806,20.1461357 33.9461184,20.20645 C33.8951403,20.2394808 33.8438988,20.2725117 33.7926573,20.3055426 Z M35.1155182,19.5836202 L35.1634666,20.197928 L35.7758619,20.1498351 L35.7278477,19.5355273 L35.1155182,19.5836202 Z M35.2416461,19.4188623 L35.7158606,19.3816696 L35.701239,19.1939222 C35.5459996,19.2629567 35.3930654,19.3382671 35.2416461,19.4188623 Z M35.8505507,19.1298424 L35.8693875,19.3696464 L36.481717,19.3214874 L36.4506955,18.9237959 C36.2456636,18.979552 36.0460983,19.049181 35.8505507,19.1298424 Z M36.49377,19.4753451 L35.8813088,19.523438 L35.9293888,20.1377458 L36.5417183,20.089719 L36.49377,19.4753451 Z M36.6021148,18.8854801 L36.635244,19.3095302 L37.2475076,19.2613712 L37.2106901,18.7886337 C37.0015088,18.8058097 36.7992431,18.8392369 36.6021148,18.8854801 Z M37.2596264,19.4152289 L36.6472311,19.4633219 L36.6952453,20.0776297 L37.3075747,20.0296028 L37.2596264,19.4152289 Z M37.319496,20.1834605 L36.7071665,20.2314874 L36.7551807,20.8457952 L37.3675761,20.7977023 L37.319496,20.1834605 Z M37.3644146,18.7792529 L37.4010345,19.2492819 L38.0134299,19.2012551 L37.982079,18.7992696 C37.769407,18.7770068 37.5637164,18.7705328 37.3644146,18.7792529 Z M38.025417,19.3551128 L37.4130875,19.4031396 L37.4610358,20.0174475 L38.0734312,19.9694206 L38.025417,19.3551128 Z M38.0854183,20.1232122 L37.4730229,20.1713712 L37.5210371,20.785679 L38.1333666,20.7375861 L38.0854183,20.1232122 Z M38.137977,18.8183614 L38.1669568,19.1891658 L38.7792863,19.1410729 L38.7644671,18.950617 C38.5485019,18.8905669 38.3399134,18.846834 38.137977,18.8183614 Z M38.7913392,19.2948645 L38.1789439,19.3430235 L38.2269581,19.9573313 L38.8392876,19.9092384 L38.7913392,19.2948645 Z M38.8512747,20.0630961 L38.2389452,20.111189 L38.2868936,20.7254968 L38.8992889,20.67747 L38.8512747,20.0630961 Z M38.9224727,18.9971244 L38.9327474,19.1371244 L39.218264,19.1133468 C39.1623462,19.08494 39.1063626,19.0600402 39.0511034,19.0402607 C39.0077655,19.0248298 38.9652179,19.0111525 38.9224727,18.9971244 Z M38.9448662,19.2828413 L38.9927487,19.8972151 L39.6050782,19.8491222 L39.5647699,19.3324536 L39.5571957,19.2348144 L39.4504974,19.2432043 L38.9448662,19.2828413 Z M39.7319305,19.4956921 L39.7586051,19.8370329 L39.9601463,19.8212442 C39.8935587,19.6988979 39.8164329,19.5904906 39.7319305,19.4956921 Z M39.6521703,23.1821995 C38.8523285,23.5864311 38.0960222,23.743658 37.3706716,23.743658 C36.0732339,23.743658 34.8745909,23.240532 33.7015686,22.7481741 C32.4391042,22.2182932 31.2470475,21.7178758 29.9679198,21.8381081 C29.6583631,21.8673073 29.3546682,21.8932696 29.0661218,21.9162591 C29.006384,22.1551382 28.7991127,22.3407055 28.5417855,22.3592689 L26.0464951,22.5385603 C25.7263345,22.5615498 25.44556,22.3175839 25.4225737,21.9963919 L25.3896422,21.5358097 C25.3725836,21.2956754 25.504244,21.0778039 25.7055217,20.9734264 L21.7351608,16.6883999 L20.0772542,12.302299 L17.6164102,14.0835868 L16.8098504,16.3044493 C16.8098504,16.3044493 21.276951,20.8546475 21.9245173,21.5041001 C23.0736971,22.6568108 23.1293514,22.7286199 23.4165146,24.5013857 C23.6283963,25.8090112 25.2542276,36.3267614 25.2542276,36.3267614 C24.7974668,36.502948 23.1825688,36.3857545 22.6343242,34.6479353 C22.0862112,32.91005 19.4780973,24.554103 19.4780973,24.554103 L12.8103779,20.471952 C12.8103779,20.471952 12.2270282,23.4276188 11.9274827,24.9796725 C11.5631279,26.8677161 11.2738571,27.0406656 9.82717352,28.3095788 C8.63643408,29.3540144 4.62471109,32.8304456 3.85753741,33.4610046 C3.09036372,34.0916297 1.18553626,35.225711 0,34.1993763 L7.57425945,25.0852391 C7.57425945,25.0852391 7.35671354,20.2827513 7.23802819,18.0239694 C7.12540225,15.8813901 8.02601463,14.0842475 9.58532413,12.7624848 C10.1197375,11.9266721 11.9617316,8.83802313 13.3780522,6.45312949 L9.79891824,4.83329645 C9.79891824,4.83329645 3.31377144,4.14519772 2.10906901,3.99893711 C0.904366578,3.85274255 0.422841267,2.71562241 0.559836568,2.26091968 L9.82460486,2.26091968 C9.82460486,2.26091968 13.7969417,3.17897921 15.0064521,3.46852767 C16.4560995,3.81561587 16.8973166,4.31669391 17.1076834,4.48911497 L18.0017095,6.87750988 L18.402289,7.04742059 C18.402289,7.04742059 18.0354314,5.71944818 17.8311899,4.95736034 C17.5769582,4.00917667 17.3960322,3.25653566 17.5012815,2.63060099 C17.5953999,2.06967105 17.8478532,1.54078103 18.2257759,1.07121442 C19.3158764,-0.2841736 21.2583776,-0.281663255 22.4431894,0.676429667 C23.6269473,1.63392803 23.9306422,3.57713311 22.8550974,4.91461841 C22.5834778,5.2525901 21.7713855,6.26240934 21.1344891,7.05402676 L22.1958733,7.78532985 C23.1576726,8.44799482 23.132908,8.80908811 23.4582719,11.0471266 C23.7479379,13.0394155 24.1717671,15.1759832 24.1717671,15.1759832 L27.8973807,20.7687012 L28.4254712,20.7307157 C28.6813495,20.7122845 28.9116728,20.8646888 29.0057254,21.0904877 C29.2944693,21.0719905 29.5985593,21.054352 29.9089723,21.0388936 C31.3077733,20.9694627 32.3813423,20.2752202 33.5178105,19.5402177 C35.1182186,18.5051629 36.7730296,17.4350293 39.302503,18.2861683 C40.2608114,18.6086816 40.9052163,19.4958242 40.9841861,20.6014329 C41.0640781,21.7197916 40.5411908,22.7328478 39.6521703,23.1821995 Z M37.2422385,28.024985 C37.2422385,28.5357741 36.8294743,28.9498489 36.3202206,28.9498489 C35.8109669,28.9498489 35.3981369,28.5357741 35.3981369,28.024985 C35.3981369,27.514262 35.8109669,27.1001211 36.3202206,27.1001211 C36.8294743,27.1001211 37.2422385,27.514262 37.2422385,28.024985 Z" id="Fill-1"></path>
            </g>
        </g>
    </g>
</svg>