<?xml version="1.0" encoding="UTF-8"?>
<svg width="60px" height="60px" viewBox="0 0 60 60" version="1.1" xmlns="http://www.w3.org/2000/svg" xmlns:xlink="http://www.w3.org/1999/xlink">
    <!-- Generator: Sketch 49.2 (51160) - http://www.bohemiancoding.com/sketch -->
    <title>icone blanc</title>
    <desc>Created with Sketch.</desc>
    <defs></defs>
    <g id="icone-blanc" stroke="none" stroke-width="1" fill="none" fill-rule="evenodd">
        <g id="spelunking" transform="translate(-16.000000, -29.000000)" fill="#FFFFFF">
            <g id="tennis" transform="translate(25.000000, 41.000000)">
                <path d="M27.7144925,8.84724941 L26.7612,7.65375765 C27.0264123,7.67302824 27.2938321,7.65124941 27.5576953,7.58273176 C27.7373651,7.53611529 27.9074075,7.46967765 28.0681906,7.38745647 L27.7144925,8.84724941 Z M26.2646245,6.60354118 L27.118516,6.38679294 L27.2946906,7.07784235 C26.9894358,7.13938588 26.678233,7.12152235 26.3750019,7.03654824 L26.2646245,6.60354118 Z M26.0003934,5.56727294 L26.8542849,5.35052471 L27.071483,6.20246824 L26.2175915,6.41921647 L26.0003934,5.56727294 Z M25.7210774,6.74149412 L26.0798651,6.65040235 L26.1600113,6.96503294 C26.010266,6.90648706 25.8634028,6.83142353 25.7210774,6.74149412 Z M25.5146104,6.59760706 C25.3493509,6.47188941 25.1918792,6.32586118 25.0457519,6.16099059 L24.9616198,5.83088235 L25.8155726,5.61413412 L26.0327708,6.46607765 L25.5146104,6.59760706 Z M24.6973887,4.79461412 L25.5513415,4.57786588 L25.7685396,5.42980941 L24.9146481,5.64655765 L24.6973887,4.79461412 Z M24.6985538,5.70137176 C24.5415726,5.45703294 24.4067283,5.18669412 24.2993557,4.89567765 L24.5126292,4.84153647 L24.729766,5.69341882 L24.6985538,5.70137176 Z M24.1719311,4.49393176 C24.115516,4.27938588 24.0768226,4.06545176 24.0541953,3.85457647 L24.2483981,3.80526824 L24.4655962,4.65715059 L24.2371151,4.71514588 C24.2138745,4.64240706 24.1916764,4.56893412 24.1719311,4.49393176 Z M24.0495962,3.02606353 L24.2013038,3.62094353 L24.0380066,3.66242118 C24.024884,3.44530588 24.0291151,3.23241176 24.0495962,3.02606353 Z M24.5732755,1.51622824 L24.7585868,1.46912235 L24.9757849,2.32106588 L24.1320113,2.53524471 C24.2230113,2.15423765 24.3730019,1.80791765 24.5732755,1.51622824 Z M25.662516,0.676948235 L25.750266,1.02118824 L24.8962519,1.23793647 L24.8750962,1.15492 C25.1003887,0.935357647 25.365417,0.771282353 25.662516,0.676948235 Z M26.0144358,2.05745647 L25.1606057,2.27420471 L24.9433462,1.42226118 L25.7972991,1.20551294 L26.0144358,2.05745647 Z M26.7648179,0.662755294 L26.788917,0.757578824 L25.9350255,0.974327059 L25.8467236,0.628068235 C26.1513038,0.564567059 26.4618934,0.579922353 26.7648179,0.662755294 Z M27.0531481,1.79384706 L26.1993179,2.01059529 L25.9820585,1.15865176 L26.8360113,0.941903529 L27.0531481,1.79384706 Z M27.2255208,0.843042353 C27.5366623,1.00314118 27.83045,1.23420471 28.0900208,1.52277412 L28.0919217,1.53017647 L27.2379689,1.74692471 L27.0207708,0.895042353 L27.2255208,0.843042353 Z M28.3560915,2.56644471 L27.5022,2.78313176 L27.2849406,1.93124941 L28.1388934,1.71450118 L28.3560915,2.56644471 Z M28.7152472,2.47523059 L28.5409123,2.51952235 L28.3804358,1.89038353 C28.5052236,2.07048706 28.6174406,2.26643529 28.7152472,2.47523059 Z M28.9811953,3.20922588 C29.0083604,3.30411059 29.0312943,3.39881176 29.0514689,3.49326824 L28.8051434,3.55572941 L28.587884,2.70384706 L28.7929406,2.65184706 C28.8665255,2.82956471 28.9301764,3.01548 28.9811953,3.20922588 Z M29.1356009,4.57523529 L29.0694358,4.59199765 L28.8522377,3.74011529 L29.0872802,3.68040706 C29.1382991,3.98610588 29.1531387,4.28660471 29.1356009,4.57523529 Z M29.1193475,4.78807412 L29.1164075,4.77687412 L29.1206075,4.77589412 C29.1200475,4.77995412 29.1197675,4.78401412 29.1193475,4.78807412 Z M28.8554264,5.74964 L28.2949547,5.89187529 L28.0777566,5.03999294 L28.9316481,4.82330588 L29.0355255,5.23074118 C28.9894736,5.41286353 28.9290113,5.58648235 28.8554264,5.74964 Z M28.4285726,6.41566824 L28.3419877,6.07626118 L28.7416151,5.97476941 C28.6510443,6.13572471 28.5463085,6.28346588 28.4285726,6.41566824 Z M27.8929358,5.08691529 L28.110134,5.93879765 L27.2562425,6.15554588 L27.0390443,5.30360235 L27.8929358,5.08691529 Z M26.7748132,4.26733412 L27.628766,4.05064706 L27.8459642,4.90259059 L26.9920726,5.11927765 L26.7748132,4.26733412 Z M26.5899925,4.31425647 L26.8071906,5.1662 L25.9532991,5.38294824 L25.7360396,4.53100471 L26.5899925,4.31425647 Z M25.4718085,3.49473647 L26.3258226,3.27798824 L26.5430208,4.12993176 L25.6890679,4.34668 L25.4718085,3.49473647 Z M25.2870491,3.54159765 L25.5042472,4.39354118 L24.6503557,4.61028941 L24.4330962,3.75834588 L25.2870491,3.54159765 Z M25.2399547,3.35733412 L24.3861245,3.57408235 L24.1688651,2.72213882 L25.0228179,2.50539059 L25.2399547,3.35733412 Z M26.2787283,3.09366353 L25.4248368,3.31041176 L25.2075774,2.45852941 L26.0615302,2.24178118 L26.2787283,3.09366353 Z M26.4635491,3.04680235 L26.2462896,2.19485882 L27.1001811,1.97817176 L27.3173792,2.83005412 L26.4635491,3.04680235 Z M27.5816717,3.86632235 L26.7277802,4.08307059 L26.5105208,3.23112706 L27.3644736,3.01437882 L27.5816717,3.86632235 Z M28.667417,3.78697647 L28.8846151,4.63892 L28.0307236,4.85560706 L27.8135255,4.00372471 L28.667417,3.78697647 Z M27.7664925,3.81933882 L27.549233,2.96751765 L28.4031245,2.75076941 L28.6203226,3.60265176 L27.7664925,3.81933882 Z M27.4793887,7.03030824 L27.3033368,6.33987059 L28.1572283,6.12318353 L28.2723887,6.57472706 C28.0450726,6.78419529 27.7785726,6.94074588 27.4793887,7.03030824 Z M28.9148462,11.8776871 L28.2217991,9.43436 C28.2217991,9.43436 28.4225019,7.97811529 28.9791717,6.84690118 C29.5357802,5.71562588 29.926884,4.52097176 29.556384,3.06803059 C29.0232,0.977569412 27.2407283,-0.346778824 25.5969028,0.0798658824 C23.953016,0.506571765 23.0636198,2.54466588 23.5983368,4.59450588 C23.9343132,5.88294353 24.8387943,6.97335294 25.6251717,7.48741882 C26.4114264,8.00148471 27.5625396,9.65373882 27.5625396,9.65373882 L28.0886104,12.3444635 C27.8856387,12.5468353 27.6948085,12.7371553 27.5423651,12.8891176 L23.9842283,13.5809624 C23.9842283,13.5809624 19.5929877,9.61250588 19.3909972,9.42659059 C19.0080491,9.07409176 18.7311858,8.93742353 18.2991811,8.90065647 C17.9876104,8.87410588 17.6498557,8.84119294 16.2692802,8.72728235 C14.5724123,8.58724941 13.972634,9.88614824 13.6654783,10.9390565 C13.3379642,12.0615224 11.6753132,17.9049153 11.6753132,17.9049153 L10.9962472,19.4774565 C10.3171811,21.0499976 10.6545679,22.97932 11.0513745,23.7350329 C11.4481198,24.4908071 13.4883226,28.3764306 13.4883226,28.3764306 C13.4883226,28.3764306 10.1167236,32.5054141 8.96186981,33.9362706 C7.80701604,35.3672494 8.79023302,36.34748 8.79023302,36.34748 C8.79023302,36.34748 17.0346858,29.0469247 17.5208368,28.6035788 C18.064384,28.1078047 18.2548462,27.5035035 17.9697047,26.8894753 C17.3284736,26.4780635 13.9929311,24.3157812 13.9929311,24.3157812 L13.8003226,23.9322659 L21.3382377,28.0518282 C21.3382377,28.0518282 24.9007283,33.2606376 26.2163038,35.1602282 C27.5318179,37.0597576 28.8903792,36.1714753 28.8903792,36.1714753 C28.8903792,36.1714753 23.9158557,26.7734235 23.590917,26.17524 C23.174733,25.4088824 23.1316858,25.3365106 22.479417,24.7782753 C21.9888509,24.35836 16.349917,19.5321482 16.349917,19.5321482 L16.4426953,19.3371788 C17.2802142,17.5875929 18.8932566,15.3421718 19.4780113,14.5495694 L18.2435632,13.8331318 L18.3183745,13.5925247 C18.3183745,13.5925247 22.8596057,15.7480776 23.018733,15.8235694 C23.1960113,15.9077482 23.4478557,15.9200447 23.5905491,15.8716541 C23.7130066,15.8301153 27.9928887,14.3438329 28.6994264,14.1037765 C29.4420208,13.8514847 29.7309028,12.87468 29.5668085,12.4955082 C29.5188557,12.3232353 29.2292991,11.9723271 28.9148462,11.8776871 Z M17.0306387,8.28473176 C17.0306387,8.28473176 17.4862519,8.32333412 17.9942943,8.36670824 C18.44445,8.40512706 18.8179547,8.48355529 18.9065019,8.15424235 C19.11395,7.38170588 19.5187896,5.87523529 19.6335208,5.44773412 C19.9921245,4.11298588 19.13345,2.78362118 17.9462802,2.46611529 C16.757884,2.14848706 15.3216906,2.78086824 14.9584877,4.13317412 C14.8325962,4.60166353 14.8183698,5.07290588 14.9319358,5.51588471 C15.1028981,6.18380941 17.0306387,8.28473176 17.0306387,8.28473176 Z M33.7003179,19.5916118 C33.5740585,19.4389153 33.5029264,19.2459035 33.5029264,19.0416353 C33.5029264,18.8365718 33.5746104,18.6436212 33.7002566,18.4915976 C33.8304406,18.6409906 33.9089925,18.8327176 33.9089925,19.0416353 C33.9089925,19.2505529 33.8305019,19.4422188 33.7003179,19.5916118 Z M32.5182377,19.7678 C32.7045302,19.5576588 32.8120255,19.2845059 32.8120255,18.9928165 C32.8120255,18.7318376 32.7258698,18.4846847 32.5726292,18.2839647 C32.7009123,18.2174047 32.8479594,18.1794753 33.0040821,18.1794753 C33.1711198,18.1794753 33.3271811,18.2235835 33.4617189,18.2991365 C33.2927189,18.5045671 33.1963226,18.7648729 33.1963226,19.0416353 C33.1963226,19.3172965 33.2919217,19.5777859 33.4618415,19.7840729 C33.3273038,19.8596871 33.1711811,19.9038565 33.0040821,19.9038565 C32.8252094,19.9038565 32.6587849,19.8535082 32.5182377,19.7678 Z M32.3288792,18.4695741 C32.4418934,18.6178047 32.5054217,18.8001718 32.5054217,18.9928165 C32.5054217,19.2087694 32.4257047,19.4108965 32.2876104,19.5662847 C32.1699358,19.4207459 32.0991717,19.2391129 32.0991717,19.0416353 C32.0991717,18.8220729 32.1865538,18.6219647 32.3288792,18.4695741 Z M33.0040821,17.7126376 C32.2470774,17.7126376 31.631233,18.3088635 31.631233,19.0416353 C31.631233,19.7744682 32.2470774,20.3706329 33.0040821,20.3706329 C33.7610255,20.3706329 34.3768698,19.7744682 34.3768698,19.0416353 C34.3768698,18.3088635 33.7610255,17.7126376 33.0040821,17.7126376 Z" id="Fill-1"></path>
            </g>
        </g>
    </g>
</svg>