<?xml version="1.0" encoding="UTF-8"?>
<svg width="60px" height="60px" viewBox="0 0 60 60" version="1.1" xmlns="http://www.w3.org/2000/svg" xmlns:xlink="http://www.w3.org/1999/xlink">
    <!-- Generator: Sketch 49.2 (51160) - http://www.bohemiancoding.com/sketch -->
    <title>icone blanc</title>
    <desc>Created with Sketch.</desc>
    <defs></defs>
    <g id="icone-blanc" stroke="none" stroke-width="1" fill="none" fill-rule="evenodd">
        <g id="spelunking" transform="translate(-16.000000, -29.000000)">
            <g id="pool" transform="translate(25.000000, 41.000000)">
                <circle id="Oval" fill="#FFFFFF" fill-rule="evenodd" cx="5.6" cy="28" r="1.4"></circle>
                <path d="M34.5043945,19.4383301 C31.4302734,15.3019043 29.4005697,13.2336914 28.4152832,13.2336914 C27.4299967,13.2336914 26.7795573,11.9397624 26.4639648,9.3519043 C25.6598307,7.82749023 24.8059082,7.65511068 23.9021973,8.83476562 C22.9984863,10.0144206 22.0335937,11.2380534 21.0075195,12.5056641 C20.1534831,15.9329753 19.5204753,18.0248861 19.1084961,18.7813965 C18.4905273,19.9161621 17.6165527,22.4423828 16.8628906,22.4423828 C16.3604492,22.4423828 14.0022786,22.8330566 9.78837891,23.6144043 L10.6305664,25.8647949 L18.4519043,25.2451172 C21.0135579,22.2411784 22.4681315,20.5223958 22.815625,20.0887695 C23.1631185,19.6551432 27.059375,19.4383301 34.5043945,19.4383301 Z" id="Path-4" fill="#FFFFFF" fill-rule="evenodd"></path>
                <path d="M9.1,24.5 L37.1,6.3" id="Line" stroke="#FFFFFF" stroke-width="1.4" stroke-linecap="square"></path>
                <path d="M15.704667,14.9305983 C15.9052168,15.3300738 16.4999289,15.2235146 16.8424797,15.1866314 L18.0824056,15.0531725 C18.0824056,15.0531725 19.801542,12.5326361 19.9798238,11.7201659 C20.0981697,11.1811305 20.0616115,10.6136701 19.8909604,10.0537666 C19.3978758,8.43783903 17.6429444,7.73421586 16.2257772,8.16641478 C14.80972,8.59792041 13.8307654,10.2365187 14.317676,11.8313701 C14.4737593,12.3421885 15.704667,14.9305983 15.704667,14.9305983 Z" id="Path" fill="#FFFFFF" fill-rule="evenodd" transform="translate(17.120018, 11.634489) rotate(-38.000000) translate(-17.120018, -11.634489) "></path>
            </g>
        </g>
    </g>
</svg>