<?xml version="1.0" encoding="UTF-8"?>
<svg width="60px" height="60px" viewBox="0 0 60 60" version="1.1" xmlns="http://www.w3.org/2000/svg" xmlns:xlink="http://www.w3.org/1999/xlink">
    <!-- Generator: Sketch 49.2 (51160) - http://www.bohemiancoding.com/sketch -->
    <title>icone blanc</title>
    <desc>Created with Sketch.</desc>
    <defs></defs>
    <g id="icone-blanc" stroke="none" stroke-width="1" fill="none" fill-rule="evenodd">
        <g id="spelunking" transform="translate(-16.000000, -29.000000)" fill="#FFFFFF">
            <g id="canoe" transform="translate(25.000000, 41.000000)">
                <path d="M29.6812748,24.372472 C29.6026342,24.4475662 29.599707,24.5723103 29.6748574,24.6510072 L33.0158162,28.1510485 C33.0545454,28.1915791 33.1063908,28.2120133 33.158405,28.2120133 C33.2072669,28.2120133 33.2562413,28.1939434 33.2944077,28.1574658 C33.3730482,28.0823717 33.3759755,27.9576275 33.300825,27.8789306 L29.95981,24.3788894 C29.8847158,24.3003051 29.7599717,24.2971527 29.6812748,24.372472 Z M14.8285037,8.95885899 C14.8672892,8.99933329 14.9191346,9.01982375 14.9711489,9.01982375 C15.0200108,9.01982375 15.0689852,9.00169757 15.1071515,8.96533263 C15.1857921,8.89018217 15.1887193,8.76543803 15.1136251,8.68674114 L11.7726664,5.18658727 C11.6974597,5.10794668 11.5727718,5.10496318 11.4940749,5.18011364 C11.4154343,5.2552641 11.4125071,5.37995194 11.4876013,5.45870512 L14.8285037,8.95885899 Z M11.3392143,25.6917989 L11.6970093,23.6358286 C11.8219223,22.9184372 11.9409809,20.220789 11.9409809,20.220789 C11.9409809,20.220789 11.1162961,17.6030198 10.9277163,17.0496084 C10.6048226,16.1019808 10.5847825,15.7560072 11.63171,14.9862638 C12.0866659,14.6517739 14.8963925,12.5761575 16.5777363,11.3340076 L15.3984088,10.0985566 L15.1383375,10.3321704 C14.9502081,10.5009352 14.7143426,10.5840229 14.4794904,10.5840229 C14.2128892,10.5840229 13.9474701,10.4770109 13.7538803,10.2668148 L9.4983939,6.22287555 L9.49101958,6.21465685 C9.30362192,6.00716276 9.21209034,5.75626718 9.22627605,5.48915936 L9.22633234,5.48893419 C9.24040546,5.22610459 9.35603022,4.9842721 9.55170288,4.80802034 L11.5062341,3.05253933 C11.7016816,2.87656903 11.953703,2.78723287 12.2179399,2.80147486 C12.4808821,2.8154354 12.7228272,2.93100386 12.8990227,3.12701428 L12.9134898,3.14446495 L16.4970129,7.82636686 C16.6518172,8.00357559 16.7324843,8.25238836 16.7185801,8.51133377 C16.7042255,8.77844159 16.5891637,9.02798616 16.4029481,9.19590663 L16.059958,9.50410796 L17.2984489,10.8014808 C17.6374422,10.5510355 17.8451052,10.3975259 17.8451052,10.3975259 C17.8451052,10.3975259 18.164171,11.0287898 18.0859244,11.6264471 L27.0435217,21.0105725 L27.669663,20.8644935 C27.669663,20.8644935 27.8796902,21.3119624 27.7484724,21.7491298 L29.237296,23.3088256 L29.5836636,22.9976408 C29.9917841,22.6318522 30.619389,22.6623065 30.9892306,23.0635593 L35.2447169,27.1074422 L35.2525416,27.1160549 C35.4426976,27.3267014 35.5356365,27.5814249 35.5211693,27.8526984 L35.521113,27.8528672 C35.5068147,28.1197499 35.3894449,28.3652977 35.1906762,28.5442515 L34.537233,29.1312695 L33.8584583,28.9243383 L34.7844696,28.0925606 C34.8637294,28.0211817 34.9087634,27.9270044 34.9145615,27.8203302 C34.9200219,27.7155699 34.8843888,27.6182402 34.8085065,27.5309305 L30.5542023,23.4881171 L30.5461524,23.4792229 C30.4010867,23.3178324 30.1513733,23.3044911 29.9894761,23.4497257 L28.7254847,24.5852576 C28.6551191,24.6487555 28.6110421,24.7495754 28.6050751,24.8615411 C28.5993333,24.967371 28.6286617,25.0668398 28.683378,25.1274668 L28.6991962,25.1464373 L30.9007388,28.0227579 L29.9028983,27.7185534 L28.2234121,25.5243288 C28.0661872,25.3442491 27.9842817,25.0916085 27.9984111,24.8288915 C28.0129908,24.5577306 28.129854,24.3043581 28.3191093,24.1337919 L28.5756905,23.9032742 L27.1271723,22.3857415 C27.0985758,22.3979007 27.0695288,22.4098347 27.038568,22.4209243 C26.7714039,22.5172407 26.4472155,22.6351172 26.1257854,22.7523181 L26.1311332,22.7586229 C26.1311332,22.7586229 23.976257,23.6157885 23.5045823,23.7857355 C22.8915572,24.0067398 22.7539784,24.0404027 22.0430606,23.8985456 C21.4518207,23.7805566 18.6252064,23.0574797 18.6252064,23.0574797 L17.984035,23.8169778 L17.2537527,26.0299478 C17.2537527,26.0299478 16.5487456,26.6431981 14.4096877,26.6431981 C12.3832147,26.6431981 11.3392143,25.6917989 11.3392143,25.6917989 Z M39.2928781,31.2527642 L23.2230636,26.3249767 C23.2230636,26.3249767 23.1163331,26.280956 23.0040296,26.2829262 L18.0885702,26.0667631 C17.868354,26.3598218 17.5132047,26.6154459 17.0379273,26.814665 C17.0216025,26.8214764 17.004771,26.8278374 16.9882773,26.8345363 C16.8582417,26.8871134 16.7216762,26.9347932 16.5794251,26.9773503 L16.5793688,26.9774066 C16.4374554,27.0199074 16.2898565,27.0574545 16.1375291,27.0898789 C15.6755367,27.1881656 15.1700865,27.2395607 14.6455532,27.2395607 C14.5284648,27.2395607 14.4106446,27.2370838 14.2919801,27.2318486 C13.2684702,27.1876027 12.3095841,26.9559591 11.5923053,26.579475 C11.1330712,26.3383743 10.8001012,26.0509449 10.6065114,25.737621 L1.92722412,25.3559017 C0.941824241,25.3095167 1.43106219,25.8596068 2.62328064,26.9015243 C3.85068189,27.9740649 7.18893858,30.1013015 10.3138468,31.2052533 C13.4385861,32.3093178 18.3596748,33.5630639 21.0541706,33.993251 C23.7486665,34.4237196 26.6302786,34.7417721 29.0629582,34.7417721 C31.4953563,34.7417721 34.9233432,34.7993031 38.7181882,33.993251 C42.6639533,33.1552249 42.7884723,32.249704 39.2928781,31.2527642 Z M11.4876013,5.45870512 L14.8285037,8.95885899 C14.8672892,8.99933329 14.9191346,9.01982375 14.9711489,9.01982375 C15.0200108,9.01982375 15.0689852,9.00169757 15.1071515,8.96533263 C15.1857921,8.89018217 15.1887193,8.76543803 15.1136251,8.68674114 L11.7726664,5.18658727 C11.6974597,5.10794668 11.5727718,5.10496318 11.4940749,5.18011364 C11.4154343,5.2552641 11.4125071,5.37995194 11.4876013,5.45870512 Z M14.1670671,9.86353545 L14.1746666,9.87197932 C14.3255304,10.0398435 14.5848699,10.0535226 14.7530155,9.90271502 L16.0169506,8.76707051 C16.0902434,8.70092685 16.1361781,8.59627912 16.1423702,8.48037291 C16.1483372,8.37048998 16.1175452,8.26696811 16.0601269,8.20335761 L16.0452094,8.18534401 L12.46315,3.50546863 C12.3907016,3.42851681 12.2930341,3.38325765 12.1871479,3.3776284 C12.0773213,3.37137994 11.9730114,3.40870185 11.8920065,3.48154432 L9.93758783,5.23702533 C9.85641408,5.31009297 9.80839659,5.41057505 9.80248588,5.51972617 C9.79668775,5.628821 9.8337845,5.73003488 9.91270656,5.82060948 L14.1670671,9.86353545 Z M16.7417163,13.2962509 C17.6087894,13.3998854 18.3203263,13.9251505 18.7094199,14.3596159 C19.3932047,15.1513133 19.074927,16.4173875 19.074927,16.4173875 L18.7149929,16.3400979 C18.6787405,16.5170252 18.6185076,16.6926578 18.5309165,16.8625485 C18.3593933,17.1957437 17.7546432,18.3696108 17.4445842,18.9716588 C17.3121843,19.2283525 17.0178872,19.0964593 16.6531119,18.9839306 C16.2415576,18.8569348 15.8724478,18.7432802 15.8724478,18.7432802 C15.8724478,18.7432802 15.5251795,18.146974 15.1989083,17.5031006 L14.8533287,17.5031006 C14.8533287,17.5031006 14.3511435,16.4657428 14.0701877,15.9515109 C13.6813193,16.3378462 13.4255825,16.5918379 13.4255825,16.5918379 L14.3463023,18.8984223 L19.095136,20.3536392 L22.5480605,22.0594703 L26.0383632,21.245087 L17.6180776,12.4238864 C17.4109776,12.6303672 17.1012563,12.9386248 16.7417163,13.2962509 Z" id="Fill-1"></path>
            </g>
        </g>
    </g>
</svg>