<?xml version="1.0" encoding="UTF-8"?>
<svg width="60px" height="60px" viewBox="0 0 60 60" version="1.1" xmlns="http://www.w3.org/2000/svg" xmlns:xlink="http://www.w3.org/1999/xlink">
    <!-- Generator: Sketch 49.2 (51160) - http://www.bohemiancoding.com/sketch -->
    <title>icone blanc</title>
    <desc>Created with Sketch.</desc>
    <defs></defs>
    <g id="icone-blanc" stroke="none" stroke-width="1" fill="none" fill-rule="evenodd">
        <g id="spelunking" transform="translate(-16.000000, -29.000000)" fill="#FFFFFF">
            <g id="paddleboard" transform="translate(25.000000, 41.000000)">
                <path d="M34.8907124,35.3298848 L32.878349,29.9675698 C32.8246126,29.8256802 32.6663462,29.7544155 32.5242646,29.8078321 C32.382375,29.8616324 32.3109184,30.0201547 32.3648467,30.1620444 L34.2678182,35.2465294 C33.7570027,35.1744971 33.2707525,35.1189695 32.8102189,35.0786672 L31.2488572,29.1955572 L31.2394534,29.1645308 C31.2287061,29.1326089 31.231265,29.0717716 31.2625472,29.0077357 C31.2928059,28.945811 31.3412966,28.8982799 31.3915785,28.8808795 L32.8605008,28.374606 C32.9832628,28.3322567 33.1199708,28.4014103 33.1611686,28.5209097 L33.1663504,28.5360071 L36.2327785,35.4374855 C35.8139546,35.4208528 35.3665353,35.3866278 34.8907124,35.3298848 Z M30.4739019,29.4103748 L30.8884396,30.9820999 C27.5016404,30.5843227 23.4862534,30.2406018 19.4318435,30.0300704 L20.0274857,24.9772514 C20.054098,24.7515586 20.042647,24.5229871 19.9936446,24.3011326 L18.6317472,18.1396169 L19.5571005,15.1608943 L21.146034,12.5896725 C21.146034,12.5896725 22.6445753,14.6378602 22.9986597,15.1204001 C23.3076439,15.541527 23.4185071,15.607354 23.9357198,15.6797702 C24.7442604,15.7928725 26.4261451,16.0267537 27.25215,16.0885505 C27.3282126,16.09418 27.3993493,16.0854799 27.4658161,16.0794025 L31.4782604,28.0004345 L31.1285901,28.1208936 C30.8776284,28.2077674 30.6630667,28.4025618 30.5399208,28.6551227 C30.4208692,28.8989196 30.3971356,29.1729751 30.4739019,29.4103748 Z M16.2879454,29.8948978 C16.7409303,27.8950089 17.24682,25.699366 17.4922161,24.5902855 L17.7019159,24.8718897 C17.7019159,24.8718897 17.7633289,27.7270827 17.7770829,29.9518328 C17.2797015,29.9306581 16.7829599,29.9115944 16.2879454,29.8948978 Z M19.3924368,6.11763733 C19.6912495,6.67611185 20.0324115,7.20752626 20.0324115,7.20752626 L21.0060636,7.75090341 C21.0060636,7.75090341 21.6319644,8.02751782 21.7657296,7.70759445 C22.0163715,7.10683452 22.5746541,5.9655122 22.7263954,5.63874383 C23.1998512,4.61884014 22.6992073,3.43280148 21.7938133,3.01263417 C21.7652179,2.99939199 21.735343,2.9889006 21.7061078,2.97719374 C22.1549985,2.4588296 22.5503447,1.99746439 22.6731708,1.83983768 L27.0316389,14.7894096 L24.3358639,14.0020437 L23.1016544,10.8536676 C22.7571658,9.71778285 22.4738344,8.99669181 21.362259,8.47372169 L18.816498,7.22371114 L19.3924368,6.11763733 Z M41.2147806,34.8875832 C41.1321289,34.7327712 40.9394456,34.674173 40.7843778,34.7564408 C40.7682569,34.7650131 39.5232361,35.4049878 37.0902576,35.4469533 L36.4142027,33.9126517 L36.395459,33.8701104 L40.6872685,33.8701104 C40.6872685,33.8701104 40.8357472,33.1178011 39.3521753,32.5142904 C38.6353704,32.2227705 37.2470527,31.9102039 35.3973697,31.6048662 L33.9157809,28.2421843 C33.7663426,27.8319326 33.3755384,27.5575572 32.9368832,27.5575572 C32.8221177,27.5575572 32.7085676,27.5765568 32.5989198,27.6141083 L32.145615,27.7703277 L28.1287567,15.8354138 C28.4523904,15.5540654 28.3844523,15.1390159 28.3844523,15.1390159 L27.8475363,15.0002609 L23.1584614,1.06776105 C23.4130695,0.327158594 22.750065,7.03690685e-05 22.750065,7.03690685e-05 L18.6554168,3.8445245 L15.7441845,7.4117245 L15.2556952,11.8474707 C14.9959693,14.1090686 12.7729465,16.3320915 13.6127693,18.7910426 C14.2364952,20.6175038 15.1821275,23.7202679 15.1821275,23.7202679 L14.4515686,29.8437203 C13.6797479,29.8267677 12.91522,29.8158925 12.1630386,29.8119902 C5.60035529,29.7781491 3.71305687,30.8583143 2.4262625,32.1282841 C1.74361856,32.801908 1.40002559,33.8701104 1.40002559,33.8701104 L31.6500889,33.8701104 L31.6628832,33.9185372 L31.9529317,35.0182778 C28.028065,34.8118405 26.1749275,35.6968915 26.0841514,35.7416718 C25.9264607,35.8195256 25.8617212,36.0105456 25.939575,36.1681723 C25.9950386,36.2805709 26.107949,36.3457582 26.2253374,36.3457582 C26.2726126,36.3457582 26.3207194,36.3351389 26.3660115,36.3128127 C26.3907047,36.3005941 28.8934126,35.1052795 34.3100396,35.8953962 C38.7442505,36.5421519 40.9916467,35.368076 41.0851736,35.3177941 C41.2397296,35.2346946 41.2974323,35.0423951 41.2147806,34.8875832 Z" id="Fill-1"></path>
            </g>
        </g>
    </g>
</svg>