<?xml version="1.0" encoding="UTF-8"?>
<svg width="60px" height="60px" viewBox="0 0 60 60" version="1.1" xmlns="http://www.w3.org/2000/svg" xmlns:xlink="http://www.w3.org/1999/xlink">
    <!-- Generator: Sketch 49.2 (51160) - http://www.bohemiancoding.com/sketch -->
    <title>icone blanc</title>
    <desc>Created with Sketch.</desc>
    <defs></defs>
    <g id="icone-blanc" stroke="none" stroke-width="1" fill="none" fill-rule="evenodd">
        <g id="spelunking" transform="translate(-16.000000, -29.000000)" fill="#FFFFFF">
            <g id="planche-a-voile" transform="translate(25.000000, 41.000000)">
                <path d="M35.4884023,35.7145988 L35.4884023,36.3939145 C27.9806617,36.3939145 24.1643793,35.58434 20.4737137,34.801372 C16.8172402,34.0257633 13.0364521,33.2237745 5.59998302,33.2237745 L5.59998302,32.5444588 C9.7747177,32.5444588 12.8077491,32.7947866 15.3127824,33.1516538 C15.2826661,32.9539163 15.2767221,32.7295157 15.3014605,32.4735269 C15.427983,31.1657876 16.8156552,29.6370442 18.1171109,28.7653123 C16.1625497,27.4504401 11.6743109,24.2373334 9.4664782,21.0732507 L9.37561972,20.9430485 L9.39984865,20.7861266 C9.75784802,18.4632631 17.858235,4.26652722 18.5287196,3.14356174 C18.9756527,2.39495583 20.0431407,1.66423857 21.701407,0.971619596 C22.900286,0.470907309 23.9617734,0.177159876 24.0063818,0.164932193 L24.6063874,-2.83048212e-05 L22.1889292,14.2117092 L24.5078866,15.0838939 L26.8121255,15.0838939 C27.2811364,15.0838939 27.2916658,15.0849129 27.7101242,15.6172134 C27.980039,15.9604942 28.2427644,16.4439406 28.1958916,16.9908463 C28.1036179,18.0673919 27.334406,21.1342193 27.334406,21.1342193 C27.334406,21.1342193 27.2908166,21.7287337 27.2554356,22.4145596 C27.1564819,24.3318149 25.9184291,24.9007984 25.9184291,24.9007984 L23.5313137,28.060126 L23.4668353,30.5107008 C23.9530555,31.1499935 24.2967326,31.8378572 24.3582673,32.4735269 C24.4269914,33.1839213 24.262597,33.6552532 23.9857759,33.970116 C22.6285597,33.7694348 20.3755525,33.3021222 19.7170126,32.35459 C19.3514275,32.8639636 18.4202555,33.2353229 17.4396633,33.4974255 C18.5582698,33.7007673 19.5913958,33.9198467 20.6146717,34.136888 C24.2710885,34.9124967 28.0519333,35.7145988 35.4884023,35.7145988 Z M25.5586748,14.5133253 C25.5972259,14.728442 25.8395152,14.6984389 26.1284508,14.6980992 C26.4545224,14.6978162 26.7470244,14.6975331 26.7470244,14.6975331 C26.7470244,14.6975331 28.0888427,13.4594236 28.2337068,13.0419841 C28.3299432,12.7650498 28.34636,12.463377 28.2916185,12.1572886 C28.1327718,11.2738952 27.252039,10.792883 26.4775059,10.9316899 C25.7036521,11.0705533 25.0848521,11.8735045 25.2411513,12.7454628 C25.291364,13.0246616 25.4679861,14.0085938 25.5586748,14.5133253 Z M20.5800266,18.9438224 C20.5800266,18.9438224 18.9971644,18.8572096 18.93863,18.844982 L10.455392,21.0812893 C12.8106362,24.1435879 18.9212508,28.3074535 18.9212508,28.3074535 L20.5800266,18.9438224 Z M20.7280042,28.2780165 C21.048528,28.4142759 21.3892614,28.6088998 21.7288626,28.8465471 C21.7250132,28.4844152 21.7226356,28.2275207 21.7226356,28.1572681 C21.7226356,27.6996358 21.7263718,27.6884271 21.8778026,27.3433347 C22.0479712,26.9554454 22.4240291,26.0608432 22.4240291,26.0608432 L20.8861149,27.41421 L20.7280042,28.2780165 Z M17.9072023,17.8468974 L22.3597205,17.5156177 L23.9923426,16.6497166 L21.9682082,15.5091456 L21.7246735,16.9407468 L20.9138536,16.9812793 L23.6135675,1.11053966 C22.2211967,1.55866159 19.8330623,2.50494837 19.2091675,3.54984914 C17.920449,5.70837481 11.5528832,17.0399835 10.3647034,20.2855841 L18.1091855,18.244014 C17.9673217,18.0316146 17.9072023,17.8468974 17.9072023,17.8468974 Z M23.5135382,18.8046759 C22.9017012,19.0373415 22.8283351,19.0570417 22.1759656,19.0242647 C21.9436396,19.0126597 21.3770903,18.9841285 21.3770903,18.9841285 L20.3293591,25.1433708 L23.1929578,21.970004 L23.6625914,20.1830075 L23.8276651,18.6850031 C23.8276651,18.6850031 23.5691855,18.7835605 23.5135382,18.8046759 Z" id="Fill-1"></path>
            </g>
        </g>
    </g>
</svg>