<?xml version="1.0" encoding="UTF-8"?>
<svg width="60px" height="60px" viewBox="0 0 60 60" version="1.1" xmlns="http://www.w3.org/2000/svg" xmlns:xlink="http://www.w3.org/1999/xlink">
    <!-- Generator: Sketch 49.2 (51160) - http://www.bohemiancoding.com/sketch -->
    <title>icone blanc</title>
    <desc>Created with Sketch.</desc>
    <defs></defs>
    <g id="icone-blanc" stroke="none" stroke-width="1" fill="none" fill-rule="evenodd">
        <g id="spelunking" transform="translate(-16.000000, -29.000000)" fill="#FFFFFF">
            <g id="landkite" transform="translate(25.000000, 41.000000)">
                <path d="M17.230302,15.7572235 L15.3568984,15.4145434 C15.431022,15.6084845 15.4563748,15.8607097 15.3615311,16.179109 C15.242353,16.5794625 14.844753,17.8841108 14.844753,17.8841108 L17.0222366,18.7782759 L17.230302,15.7572235 Z M14.5043239,27.1919594 L12.5994075,27.6166954 L13.0528548,32.5353671 L16.1733275,31.208576 L14.5043239,27.1919594 Z M31.7168402,10.1682589 C30.617153,10.3633707 29.1616111,10.6117782 28.2657639,10.7295681 C26.2370875,10.9963517 25.4014657,10.8756093 24.9890002,9.44869162 C24.9066802,9.16399018 24.8150439,8.84085684 24.7121566,8.49120295 L18.2823384,15.4839244 L19.455233,15.6984813 C19.5796548,15.721235 19.6621275,15.8406029 19.6393711,15.9650103 C19.6191093,16.0755211 19.5227384,16.1528939 19.4142511,16.1528939 C19.4005566,16.1528939 19.3867093,16.1516722 19.3727602,16.149127 L17.8252766,15.8660545 C17.9374293,15.9915817 18.0237202,16.149127 18.0326293,16.3410829 C18.0607311,16.9458126 18.1220257,18.6009801 18.1402511,19.5232947 C18.150942,20.0641918 17.9283675,20.7035866 17.184993,20.5247637 C16.6388402,20.3934335 16.2958148,20.3109195 16.1518439,20.2763053 C16.4897275,21.0310976 17.5855457,23.4774022 17.761233,23.8474174 C18.2829493,24.9461623 18.4574148,26.1000354 17.0913202,26.4424102 C16.7653493,26.5241098 16.3866366,26.6266287 16.3866366,26.6266287 C16.3866366,26.6266287 16.952593,29.1546839 17.0322657,29.5127368 C17.1119893,29.8708406 17.2574875,30.4150973 17.168193,30.7855197 L18.434302,30.2471678 C18.418622,30.2168804 18.403553,30.1859821 18.3899602,30.1540149 C18.1008475,29.474254 18.4176548,28.6887671 19.0974948,28.399688 C19.7773857,28.1106598 20.562913,28.4273794 20.8520257,29.1071912 C21.0230293,29.5092754 20.9819966,29.9483152 20.7792257,30.2997507 C20.805953,30.3462762 20.830542,30.3944815 20.8520257,30.4450793 C21.1411384,31.1248402 20.824382,31.9102762 20.1444911,32.1993553 C19.4646511,32.4884344 18.679073,32.1717149 18.3899602,31.491903 C18.3764184,31.4599358 18.3645566,31.427765 18.353662,31.3953397 L10.9727093,34.5337748 C11.255102,35.2114996 10.9383966,35.9911835 10.2615093,36.27899 C9.58166932,36.5680691 8.79614205,36.2512987 8.50702932,35.5715377 C8.33602569,35.1694027 8.37705841,34.7303119 8.57982932,34.3788764 C8.55305114,34.3324527 8.52851296,34.2841965 8.50702932,34.2336497 C8.2179166,33.5538378 8.53467296,32.7684019 9.21456387,32.4793227 C9.89440387,32.1902436 10.679982,32.5069632 10.9690439,33.186775 C10.9978584,33.2544762 11.0204111,33.3232464 11.0374148,33.3923729 L11.7191384,33.1024794 C11.7191384,33.1024794 10.8235457,28.4754319 10.7185711,27.8885184 C10.5307675,26.8385386 10.6629275,26.4202164 11.4685639,25.9463078 C12.1408184,25.5509429 13.3839166,24.9027419 13.3839166,24.9027419 C13.3839166,24.9027419 11.0068184,21.0058496 10.522673,20.167118 C9.97814932,19.2239332 10.0220839,18.5060457 10.5980693,18.3532344 C10.9886439,18.2495446 12.5326657,17.8451698 13.1153202,17.6924603 C13.3067893,17.6422698 13.5188766,17.6403355 13.729742,17.6767821 L14.7233857,15.2986368 L13.7356984,15.1179815 C13.6112766,15.0952278 13.5288039,14.9758598 13.5515602,14.8514525 C13.5743675,14.7270451 13.6938511,14.6446838 13.8181711,14.6673357 L14.8192475,14.8504853 L16.1923166,6.81521601 C16.1557639,6.81989911 16.1208911,6.82422588 16.0891748,6.82794181 C15.2104839,6.93188608 14.9853639,6.71468225 15.0383602,5.69280107 C15.1731675,3.09460137 16.4973639,0.925464501 18.3042802,0.925464501 C18.3082511,0.925464501 18.312273,0.925057275 18.3163457,0.925057275 C19.8462148,0.928213272 21.1858366,2.07180393 22.1170657,3.56708461 C22.1739311,3.6584049 22.0833639,3.77217349 21.9825639,3.73450514 C20.6157057,3.22318278 19.9375966,5.13118638 19.869073,5.84678317 C19.832062,6.23298553 19.744193,6.27503155 19.3215457,6.34100206 C18.6319311,6.44866227 17.5070948,6.62799415 16.721262,6.74206816 L15.3200911,14.9420601 L16.1569348,15.095126 L21.3465057,4.2762167 C21.407342,4.1494678 21.5593566,4.09596857 21.6860693,4.15679786 C21.8128839,4.21757625 21.8663384,4.36962402 21.805553,4.49632201 L16.675953,15.1900604 L17.6904184,15.3756533 L24.541713,7.92444703 C23.735313,5.30720954 22.3103166,1.65470334 19.4652111,0.711925694 C19.3461348,0.672424833 19.3679748,0.497928759 19.4931093,0.488664382 L23.4512911,0.194291338 C24.4849493,0.117223936 25.411342,0.0478429127 25.9039893,0.0102763718 C30.082913,-0.307868453 31.9679748,6.85308797 32.406302,8.70957756 C32.6662948,9.81000233 32.6081566,10.0100518 31.7168402,10.1682589 Z M9.14273114,15.6453893 C9.03969114,14.9449107 9.62504387,14.2001973 10.6893493,13.9088784 C11.7537057,13.6176614 12.5384693,14.2940628 12.8302293,14.8156676 L12.4432693,15.1601293 C12.4856257,15.2654989 12.5170366,15.3773841 12.534753,15.4954285 C12.575582,15.7676078 12.708862,16.6725644 12.7823748,17.1645944 C12.8138366,17.3744682 12.581793,17.4223172 12.3162002,17.5118559 C12.0162439,17.6128478 11.6418075,17.7022337 11.6418075,17.7022337 C11.6418075,17.7022337 10.6640984,17.269455 10.1482366,16.9245351 L9.95854932,16.9933053 C9.61873114,16.7130833 9.22724023,16.2194243 9.14273114,15.6453893 Z" id="Fill-1"></path>
            </g>
        </g>
    </g>
</svg>