<?xml version="1.0" encoding="UTF-8"?>
<svg width="60px" height="60px" viewBox="0 0 60 60" version="1.1" xmlns="http://www.w3.org/2000/svg" xmlns:xlink="http://www.w3.org/1999/xlink">
    <!-- Generator: Sketch 49.2 (51160) - http://www.bohemiancoding.com/sketch -->
    <title>icone blanc</title>
    <desc>Created with Sketch.</desc>
    <defs></defs>
    <g id="icone-blanc" stroke="none" stroke-width="1" fill="none" fill-rule="evenodd">
        <g id="spelunking" transform="translate(-16.000000, -29.000000)" fill="#FFFFFF">
            <g id="ski-nautique" transform="translate(25.000000, 41.000000)">
                <path d="M19.1166396,33.5349472 L16.5922724,25.3722472 L14.2201604,23.2847479 C14.2201604,23.2847479 15.140347,25.4438927 15.2201418,25.6326158 C15.2999366,25.821271 15.3086291,25.9062949 15.3086291,26.0793307 C15.3086291,26.2523666 15.2236052,33.555524 15.2236052,33.555524 C15.9998896,33.5754897 16.8146791,33.6157606 17.6687888,33.6820412 L19.1166396,33.5349472 Z M14.0116075,9.93932626 L14.0911985,10.5183307 L20.6633679,11.944586 L21.2234933,11.5856792 L14.0116075,9.93932626 Z M39.4065836,34.0737487 C39.343359,34.1070248 37.8259,34.8950576 35.014747,35.4504292 C32.4436575,35.9583994 28.2451619,36.3587994 22.8443799,35.3815681 C16.2043,34.1803681 11.2298597,34.5139442 8.22611269,35.0054121 C4.97415299,35.5375584 3.26837836,36.3638927 3.25153657,36.3721778 L2.8,35.4590539 C2.8728,35.4230613 4.62101866,34.5697666 8.0026194,34.0098449 C9.24768955,33.8036688 10.8215142,33.623774 12.7016149,33.5625867 L12.5122127,26.3685613 L9.02521493,21.6243375 C9.02521493,21.6243375 7.22558806,19.9637912 6.88508507,18.2085098 C6.54458209,16.4532285 7.60303433,14.4871531 7.60303433,14.4871531 L6.08686567,14.1219987 C6.08686567,14.1219987 7.17934104,9.42850387 7.40792761,8.42648522 C7.63658209,7.42453447 8.55418806,6.52275164 9.54968731,6.2885285 C10.5451866,6.05430537 11.970559,6.21538895 13.1079231,6.72410611 C14.1455948,7.18827402 16.6998425,8.67863671 16.6998425,8.67863671 L22.751003,10.6070897 L23.3310261,10.2354158 C23.5298679,10.1079479 23.7937679,10.1660113 23.9208963,10.3645136 C24.0481604,10.5630837 23.9903007,10.8272554 23.7917306,10.9544516 L22.3829963,11.8570494 L38.9870328,11.8570494 L38.6568522,12.4264106 L21.4943881,12.4264106 L18.1643313,14.5599531 C18.0929575,14.6057248 18.0131627,14.627524 17.9343187,14.627524 C17.7936082,14.627524 17.6559537,14.5581875 17.5744612,14.4309233 C17.447197,14.2322852 17.5049888,13.9681815 17.703559,13.8409173 L18.8276806,13.120727 C18.7230306,13.1167882 18.6145097,13.108571 18.5015067,13.0950569 C17.4131739,12.9644651 15.5365366,12.7050472 14.1419276,12.5087181 L13.6630231,15.2670367 L11.9586067,15.0938651 L11.9829866,15.351721 L12.998859,15.6372166 L13.0341045,16.9749166 C13.0341045,16.9749166 18.3156358,22.9924613 18.5163112,23.2210479 C18.7635052,23.5026725 18.8586478,23.7301046 18.9248604,24.0214404 C18.9755216,24.2443225 21.0431231,33.3392972 21.0431231,33.3392972 L27.8965776,32.643283 C28.2784381,32.5668837 30.5555433,32.6119084 34.1895672,29.6623539 C34.4488493,29.4518994 34.8298269,29.4912875 35.0404172,29.7508412 C35.2510075,30.0102591 35.2113478,30.3911009 34.9519299,30.6016912 C30.9482694,33.8514098 28.3241418,33.7940255 28.0973209,33.8366733 L28.0723299,33.841427 L23.0257687,34.3792778 C28.2440075,35.3233688 32.2910627,34.944836 34.7671455,34.460974 C37.449744,33.9367733 38.9183075,33.1795718 38.9328403,33.1719658 L39.4065836,34.0737487 Z M9.86336567,3.29143671 C9.71491343,2.86421208 9.68958284,2.39902552 9.77399552,1.92691208 C10.0190164,0.564288949 11.3775649,-0.177768514 12.5721776,0.0364889491 C13.7658396,0.250610591 14.720253,1.48902552 14.479103,2.83405984 C14.401753,3.26467999 14.1292963,4.78234268 13.9894007,5.56086805 C13.9299791,5.8926785 13.5562,5.84636358 13.1105716,5.8458882 C12.6076269,5.84534492 12.1564299,5.84500537 12.1564299,5.84500537 C12.1564299,5.84500537 10.086791,3.93529567 9.86336567,3.29143671 Z" id="Fill-1"></path>
            </g>
        </g>
    </g>
</svg>