<?xml version="1.0" encoding="UTF-8"?>
<svg width="60px" height="60px" viewBox="0 0 60 60" version="1.1" xmlns="http://www.w3.org/2000/svg" xmlns:xlink="http://www.w3.org/1999/xlink">
    <!-- Generator: Sketch 49.2 (51160) - http://www.bohemiancoding.com/sketch -->
    <title>icone blanc</title>
    <desc>Created with Sketch.</desc>
    <defs></defs>
    <g id="icone-blanc" stroke="none" stroke-width="1" fill="none" fill-rule="evenodd">
        <g id="spelunking" transform="translate(-16.000000, -29.000000)" fill="#FFFFFF">
            <g id="wakeboard" transform="translate(25.000000, 41.000000)">
                <path d="M38.7441768,34.2116743 C38.6845141,34.2430757 37.2524817,34.9867764 34.5997035,35.5107954 C32.1734,35.9901475 28.2114394,36.3678616 23.1150549,35.4458778 C16.8490641,34.312287 12.1548739,34.6270701 9.32035211,35.0909137 C6.25160141,35.5930799 4.64192676,36.3728602 4.6260338,36.3806785 L4.2,35.5189342 C4.26863451,35.4849694 5.91829789,34.6798116 9.10945,34.1514349 C9.69742535,34.0540264 10.3643528,33.9631546 11.1049775,33.8890729 L16.9920366,30.4679215 C16.9920366,30.4679215 15.5922387,23.1561356 15.4394613,22.3584116 C15.2143324,21.182525 15.190557,20.4064616 16.3069092,19.7497877 C17.2390824,19.2014165 19.8079739,17.809437 19.8079739,17.809437 L19.0923423,16.4860919 L19.6712176,16.1337553 L19.6127085,15.956113 L17.9191472,16.3348525 L17.0813704,13.8825306 C17.0813704,13.8825306 15.6741387,14.4518574 14.8286077,14.7938764 C13.9864732,15.1345496 13.2116915,14.8032327 13.0805746,13.9607778 C12.8884493,12.7265102 12.7654711,10.8343511 12.7654711,10.1016729 C12.7654711,9.74799049 12.7871958,9.42154401 12.834362,9.12143627 L12.5498908,8.7175757 C12.5498908,8.7175757 12.4289634,7.56616937 13.2137423,6.70480951 C13.6991824,6.17220317 14.4416014,5.86049613 15.4588789,5.89042359 L15.7900035,6.30120528 C16.4214923,6.24083768 17.953112,5.92496514 18.6290113,5.67298486 L18.6974535,5.18908275 C19.5557373,4.64212148 20.3531408,4.52939683 21.0428183,4.73818415 C22.1581451,5.07578134 22.644162,6.12651092 22.644162,6.12651092 L22.6126965,6.54030458 C23.3697268,7.33283768 24.2489662,8.54102289 25.0692479,9.73145669 L38.3274352,6.26486937 L38.3180148,6.936475 L20.9324648,11.6580933 L21.0162873,11.9674292 L25.7718704,10.8212778 C26.0394232,11.4230954 26.3508099,12.1958264 25.6935592,12.6974158 L26.3263937,13.4147137 L24.5526627,14.2287151 L24.7126817,14.4767222 L25.9204183,14.1234884 C26.260707,14.815537 26.7038514,15.6797165 26.9084732,16.1183109 C27.3570648,17.0795785 27.9353634,19.6489827 25.8228817,20.3243053 C25.1076986,20.5528947 24.7023,20.6940088 24.7023,20.6940088 L26.0874866,25.2979039 L30.2284352,22.9513215 C30.2284352,22.9513215 32.0442056,21.859706 33.7601965,22.3034912 C35.2119028,22.6788982 36.1654162,23.2198356 36.1654162,23.2198356 C36.1654162,23.2198356 36.9075148,24.1522651 35.3630782,25.7637342 C33.5748641,27.6296827 28.2068894,31.0089229 20.5280275,34.0767123 C21.4116887,34.187963 22.3307887,34.3271546 23.2861606,34.4999905 C28.2105423,35.3908933 32.0294662,35.0336863 34.3661155,34.5770842 C36.8975817,34.0824158 38.2834092,33.3678736 38.2970592,33.3607602 L38.7441768,34.2116743 Z M15.3750563,12.5213757 L16.4753873,12.2886208 L15.6903521,10.1363426 L15.3750563,12.5213757 Z M21.1376634,20.381725 L21.1312549,20.3683313 C21.1284993,20.3631405 20.859793,19.8413644 21.3364535,19.4188553 C21.4344387,19.3320208 21.5585704,19.2505694 21.705388,19.1768722 L21.7076951,18.6987377 C21.5360768,18.7848673 21.2288556,18.9816067 21.0987,19.0725426 C20.5181585,19.4782616 20.4897049,19.9867081 20.7264972,20.5543046 C20.9632254,21.121837 21.1854704,21.6547637 21.1854704,21.6547637 L18.5432662,22.2276151 L19.3239437,29.1304778 L20.3210345,28.5655729 L23.7438521,26.6259912 L21.1376634,20.381725 Z M12.8241725,2.81673838 C12.5844965,1.4255919 13.6292021,0.241758803 14.8481535,0.0315616197 C16.0662718,-0.178379225 17.4115979,0.676636268 17.6478775,2.04874965 C17.7236254,2.48836937 17.9733627,3.93898627 18.1099908,4.73369824 C18.1683077,5.07251303 17.7791225,5.30430669 17.3453986,5.38569401 C16.7426838,5.49886725 16.1469542,5.59787782 16.1469542,5.59787782 C16.1469542,5.59787782 13.8220324,4.63238063 13.3839507,4.09336585 C13.0930711,3.73571021 12.9069697,3.29839754 12.8241725,2.81673838 Z" id="Fill-1"></path>
            </g>
        </g>
    </g>
</svg>