<?xml version="1.0" encoding="UTF-8"?>
<svg width="60px" height="60px" viewBox="0 0 60 60" version="1.1" xmlns="http://www.w3.org/2000/svg" xmlns:xlink="http://www.w3.org/1999/xlink">
    <!-- Generator: Sketch 49.2 (51160) - http://www.bohemiancoding.com/sketch -->
    <title>icone blanc</title>
    <desc>Created with Sketch.</desc>
    <defs></defs>
    <g id="icone-blanc" stroke="none" stroke-width="1" fill="none" fill-rule="evenodd">
        <g id="spelunking" transform="translate(-16.000000, -29.000000)" fill="#FFFFFF" fill-rule="nonzero">
            <g id="bateau" transform="translate(25.000000, 41.000000)">
                <path d="M25.2793521,32.2688954 C24.9178625,32.1258057 24.7496694,32.2688954 24.7069935,32.5952402 C24.6561455,32.8275786 24.6358911,33.0655678 24.6467452,33.3031575 C24.7120142,33.7399575 24.5011452,33.9558471 24.157228,34.1616954 C22.6133659,35.0779712 21.0017246,35.8009506 19.1942763,35.9992678 C18.6383964,36.0903528 18.0686639,36.0438089 17.5349384,35.8637092 C16.7083794,35.5879095 16.1591509,34.8043162 16.1818625,33.933254 C16.1818625,33.722385 16.1818625,33.5115161 16.1818625,33.3031575 C16.1270888,32.1828932 16.9761291,31.2235445 18.0947452,31.1417506 C18.3315029,31.1161469 18.5695553,31.1044119 18.8076832,31.1066057 C20.7841613,31.1066057 22.7598027,31.1066057 24.7346073,31.1066057 C24.9680694,31.1066057 25.1161797,31.1066057 25.1287315,30.7852816 C25.2525751,27.7209873 25.3889705,24.6558563 25.5379177,21.5898885 C25.5379177,21.3011988 25.5077935,21.1957644 25.183959,21.2384402 C22.6861659,21.5748264 20.1783315,21.848454 17.6880694,22.2425781 C16.6839315,22.4032402 15.6797935,22.3630747 14.6756556,22.4208126 C14.5072378,22.4243936 14.3406256,22.3855461 14.191159,22.3078471 L12.5669659,21.5547437 C12.6104772,22.2019037 12.7164037,22.8433472 12.8832694,23.4701368 C12.9990053,24.1079746 13.4856364,24.6143875 14.118359,24.7554333 C14.8162349,24.9562609 15.4789659,25.2725644 16.1617797,25.5261092 C16.5891374,25.6723174 16.9469781,25.972009 17.1659177,26.3670747 C17.9190211,27.6958839 18.6796556,29.0196724 19.4478211,30.3384402 C19.5934211,30.5894747 19.5683177,30.664785 19.2620556,30.6597644 C18.6470211,30.6597644 18.0269659,30.5970057 17.4320142,30.8304678 C17.2437384,30.9032678 17.1809797,30.7325644 17.1106901,30.6346609 C16.5308004,29.9317644 15.9509108,29.2288678 15.3860832,28.5134195 C15.242484,28.3254213 15.0386414,28.1924805 14.8087039,28.1368678 C13.8899177,27.8858333 12.9761521,27.6222471 12.0598763,27.3611712 C11.0055315,27.0624402 10.3026349,26.4323437 10.0691728,25.3152402 C10.0032339,25.0142928 9.91940694,24.7175454 9.81813835,24.4265781 C9.63488318,23.8617506 9.46417973,23.304454 9.84826249,22.7471575 C9.90851077,22.6592954 9.91353145,22.5362885 9.80307628,22.3731161 C9.51438663,22.875185 9.22067628,23.3446195 8.97466249,23.8341368 C8.74375345,24.3113199 8.39888727,24.7242971 7.97052456,25.0365919 C7.59899352,25.3077092 7.25758663,25.6240126 6.89860732,25.917723 C6.70219037,26.0985844 6.47060511,26.2370228 6.21830387,26.3243988 C6.01496594,26.3846471 5.75137973,26.4373644 5.63088318,26.2490885 C5.51038663,26.0608126 5.77397283,25.9453368 5.88191766,25.8399023 C7.10947628,24.7353506 8.07595904,23.4626057 8.56296594,21.8584954 C8.65826183,21.6362199 8.7716064,21.4221246 8.90186249,21.2183575 C9.08940462,20.8044056 9.46183496,20.5036681 9.90600042,20.4075161 C10.4884004,20.2644264 11.0708004,20.101254 11.6481797,19.9330609 C11.9027096,19.8466945 12.1832949,19.8887823 12.4012832,20.0460264 C12.6799315,20.2368126 12.9937246,20.3748816 13.2548004,20.5832402 C14.1961797,21.3363437 15.2982211,21.5070471 16.4529797,21.6752402 C17.976759,21.8961506 19.4352694,21.5371712 20.9163728,21.3815299 C22.3974763,21.2258885 23.8032694,21.0074885 25.249228,20.8342747 C25.5153246,20.8016402 25.5981659,20.7112678 25.6107177,20.4476816 C25.778074,16.2202609 25.9604924,11.9920034 26.1579728,7.76290918 C26.2659177,5.27264711 26.3813935,2.77987469 26.486828,0.287102281 C26.486828,0.0561505571 26.486828,-0.0969804774 26.8006211,0.071212626 C28.0734171,0.724713909 29.2620061,1.53059413 30.3402073,2.47110228 C30.9931918,3.04846613 31.4729339,3.79589038 31.7259177,4.62999883 C33.2798211,9.65068849 34.8538073,14.6512954 36.096428,19.7548264 C36.3130034,20.5953765 36.4698727,21.4501886 36.5658625,22.3128678 C36.5987337,22.5639803 36.4954412,22.8136038 36.2947452,22.9680678 C34.713228,24.3537781 32.9133108,25.408123 31.0556556,26.3670747 C29.4993643,27.1695393 27.8994551,27.884428 26.2634073,28.5083988 C26.0565215,28.5546664 25.9132732,28.743542 25.9245108,28.9552402 C25.9094487,29.5853368 25.8793246,30.2104126 25.8341384,30.8455299 C25.8190763,31.0639299 25.904428,31.1191575 26.0851728,31.0965644 C26.1830763,31.0965644 26.2809797,31.0965644 26.3788832,31.0965644 L35.667159,31.0965644 C35.8403728,31.0965644 36.0788556,31.0162333 36.169228,31.2019988 C36.2596004,31.3877644 36.0813659,31.5710195 35.9658901,31.7191299 C35.2450045,32.5819537 34.3866447,33.3198717 33.4254211,33.9031299 C31.801228,34.9624954 30.0716004,35.760785 28.1185521,35.9867161 C27.4859452,36.0570057 26.8633797,36.0745781 26.2659177,35.7758471 C25.5128142,35.3992954 25.0735039,34.8194057 25.0885659,33.9483161 C25.1061384,33.3885092 25.023297,32.8111299 25.2793521,32.2688954 Z M9.56208318,19.5364264 C9.84826249,19.6468816 10.1495039,19.7196816 10.4432142,19.8075437 C10.8373384,19.9255299 11.1812556,19.729723 11.5327039,19.6117368 C11.6883452,19.5590195 11.7134487,19.4083988 11.6632418,19.2577781 C11.4950487,18.7557092 11.3544694,18.2687023 11.1461108,17.7967575 C10.8876554,17.2753495 10.3046959,16.9999765 9.73780732,17.1315161 C9.17634962,17.2752555 8.78242479,17.7795205 8.77885559,18.3590747 C8.76114615,18.8786778 9.0760006,19.3519686 9.56208318,19.5364264 Z M35.7223866,21.476923 C35.6822211,21.2434609 35.6546073,21.0049781 35.6018901,20.7740264 C34.2965108,15.2512678 32.6120694,9.81637125 30.8899728,4.40155745 C30.7941186,4.10797966 30.6404811,3.83655341 30.4381108,3.6032678 C29.7226388,2.81507791 28.8934433,2.13818364 27.9779728,1.59499194 C27.7269384,1.43181952 27.4759039,1.27868849 27.1646211,1.09292297 C27.1520694,1.28872987 27.1445384,1.39667469 27.1395177,1.50461952 C27.0073062,4.41661952 26.8750947,7.32778274 26.7428832,10.2381092 C26.6449797,12.4346609 26.559628,14.6312126 26.4541935,16.8302747 C26.4074914,17.0675616 26.5438617,17.3027198 26.7730073,17.3800402 C27.1821935,17.5582747 27.5738073,17.779185 27.9729521,17.982523 L35.6144418,21.8509644 C35.8805384,21.7882057 35.7274073,21.6099712 35.7223866,21.476923 Z M35.5918487,22.6392126 C34.1684832,21.9162333 32.8304694,21.2334195 31.4723728,20.5430747 C31.3330209,20.47773 31.1762642,20.4592362 31.0255315,20.4903575 C29.5394073,20.6811437 28.0532832,20.8794609 26.567159,21.0627161 C26.3387177,21.0903299 26.2533659,21.1756816 26.2433246,21.3991023 C26.1579728,23.5278747 26.0676004,25.6541368 25.9747177,27.8707712 C29.391297,26.4699988 32.6873797,24.9738333 35.5918487,22.6392126 Z M30.5084004,20.0535575 C29.253228,19.4134195 27.9980556,18.7757919 26.7278211,18.1306333 C26.5094211,18.0176678 26.3864142,17.9749919 26.3813935,18.3088678 C26.3813935,18.9967023 26.341228,19.6820264 26.2960418,20.3673506 C26.275959,20.6334471 26.341228,20.6962057 26.6148556,20.6585506 C27.7922073,20.4953781 28.9745797,20.3573092 30.1544418,20.2091988 C30.2523452,20.1138057 30.4707452,20.2895299 30.5084004,20.0535575 Z M30.5084004,20.0535575 C30.4330901,20.2016678 30.2573659,20.101254 30.1544418,20.2091988 C30.5234625,20.2368126 30.5284832,20.2368126 30.5084004,20.0535575 Z M35.7625521,21.9011712 C35.870497,21.7631023 35.8027177,21.622523 35.732428,21.4869644 C35.6972832,21.6074609 35.7675728,21.7605919 35.6244832,21.848454 C35.652097,21.8810885 35.7173659,21.9363161 35.7625521,21.9011712 Z" id="Shape"></path>
            </g>
        </g>
    </g>
</svg>