<?xml version="1.0" encoding="UTF-8"?>
<svg width="60px" height="60px" viewBox="0 0 60 60" version="1.1" xmlns="http://www.w3.org/2000/svg" xmlns:xlink="http://www.w3.org/1999/xlink">
    <!-- Generator: Sketch 49.2 (51160) - http://www.bohemiancoding.com/sketch -->
    <title>icone blanc</title>
    <desc>Created with Sketch.</desc>
    <defs></defs>
    <g id="icone-blanc" stroke="none" stroke-width="1" fill="none" fill-rule="evenodd">
        <g id="spelunking" transform="translate(-16.000000, -29.000000)" fill="#FFFFFF">
            <g id="musculation" transform="translate(25.000000, 41.000000)">
                <path d="M28.4543948,8.82074007 L26.2359128,8.60666545 C26.7967658,9.06219878 26.8446538,9.588621 27.0747275,10.5275645 C27.3056462,11.4693943 27.4174083,11.9106372 27.4174083,11.9106372 L28.4543948,8.82074007 Z M16.9217677,7.70784773 L15.0482906,7.52700008 L14.5419455,10.3683285 L16.9217677,7.70784773 Z M37.4077602,13.8066864 C37.1626863,13.8066864 36.4228167,13.7615625 36.100277,13.7222111 C34.3977882,13.5147537 33.180588,11.6938875 32.9751626,9.25705525 L30.5202689,9.02017229 C30.4661132,9.2906342 30.3941404,9.57285227 30.3061109,9.86443302 C29.7682865,11.6465813 29.4918037,12.4371298 29.1265169,13.5545979 C28.0202337,16.9384692 26.2553497,15.5717989 25.916683,14.7771674 C25.3782951,13.5143313 24.9949799,12.3576526 24.9949799,12.3576526 L24.056023,17.5200116 C24.056023,17.5200116 26.9673316,20.598575 27.9908671,21.4854957 C29.6429326,22.9170713 30.0185717,23.7148706 29.2620822,25.8648387 C28.8823585,26.9440113 25.7028772,36.3720235 25.7028772,36.3720235 C24.3025053,35.9989944 24.1968701,33.9927049 24.6197633,32.0990491 C24.9744162,30.5109829 25.7813994,25.8267544 25.7813994,25.8267544 L22.0980377,22.3158884 L21.3569005,26.9141633 L15.6466089,36.1283121 C14.0206705,35.3654293 15.2203353,32.9478152 15.558157,32.0269635 C16.1895039,30.3061302 18.0348115,26.196334 18.0348115,26.196334 C18.0348115,26.196334 17.2197296,23.4173766 16.9197958,20.9928637 C16.8257804,20.2330783 16.8279636,19.6281644 17.0136704,18.9631322 C17.2953645,17.9541445 17.4538174,17.6784029 17.8718515,17.1779568 L17.224941,11.9352758 C17.224941,11.9352758 15.4473808,13.171291 14.0993336,14.1077706 C12.7513569,15.0442503 11.5353539,13.9947849 11.7319059,13.0498577 C12.1690248,10.9487445 12.6129747,8.91542286 12.988825,7.32827182 L10.1961801,7.05879545 C9.9800503,9.16934168 8.85094991,10.8801083 7.38705607,10.8801083 C7.20620846,10.8801083 6.07957289,10.7965481 6.07957289,10.7965481 C6.07957289,10.7965481 6.57514324,10.8469517 6.07950246,10.7957034 C4.55553736,10.6382976 3.1703066,8.78279656 2.95664162,6.36011391 L1.4,6.20995898 L1.4,5.11318735 L2.94044421,5.26186397 C3.07438976,3.0048234 4.30757612,1.17374979 5.77358266,1.13615826 C5.93541593,1.13200489 6.82599184,1.19761408 7.16613747,1.22964432 C8.7105254,1.37494192 10.0666712,3.38249861 10.2193494,5.85558488 C10.2216734,5.89212047 10.2225889,5.92830408 10.2243495,5.96469888 L13.2458709,6.25627963 C13.5551006,4.98274333 13.7620753,4.18740791 13.7620753,4.18740791 C15.0367412,4.39697717 15.192518,5.79666333 15.1952645,6.44444847 L28.8109491,7.75832175 L29.38476,6.04875185 C30.2606878,6.29886928 30.6264676,6.98635784 30.6356226,7.93438246 L32.962768,8.15901649 C33.1050236,5.91591436 34.3123645,4.11405515 35.7942868,4.06266597 C36.0177406,4.0549224 37.0022615,4.13918656 37.1868416,4.15615203 C38.6799612,4.29335408 40.0874458,6.30900633 40.240124,8.78209259 C40.4047742,11.4504577 38.9767259,13.8066864 37.4077602,13.8066864 Z M19.3108154,3.44669988 C19.1855319,2.95920671 19.2005322,2.44109123 19.338351,1.92565081 C19.7356101,0.437687911 21.3116886,-0.259656104 22.6165661,0.0879599617 C23.9203169,0.435646423 24.8642738,1.89685879 24.4723669,3.36482919 C24.3468017,3.83556808 23.9384861,5.36464231 23.7112998,6.21460512 C23.6145379,6.57693398 23.2721387,6.61438472 22.7785402,6.5656002 C22.2092365,6.50942409 21.3527455,6.41072873 21.3527455,6.41072873 C21.3527455,6.41072873 19.4991279,4.18107226 19.3108154,3.44669988 Z" id="Fill-1"></path>
            </g>
        </g>
    </g>
</svg>