<?xml version="1.0" encoding="UTF-8"?>
<svg width="60px" height="60px" viewBox="0 0 60 60" version="1.1" xmlns="http://www.w3.org/2000/svg" xmlns:xlink="http://www.w3.org/1999/xlink">
    <!-- Generator: Sketch 49.2 (51160) - http://www.bohemiancoding.com/sketch -->
    <title>icone blanc</title>
    <desc>Created with Sketch.</desc>
    <defs></defs>
    <g id="icone-blanc" stroke="none" stroke-width="1" fill="none" fill-rule="evenodd">
        <g id="spelunking" transform="translate(-16.000000, -29.000000)" fill="#FFFFFF">
            <g id="escalade" transform="translate(25.000000, 41.000000)">
                <path d="M25.0467552,8.82410989 C25.1903345,9.87116011 24.391375,10.5531382 23.7949288,10.7498306 C23.5178237,10.8412137 20.8239066,11.7382989 20.8239066,11.7382989 L21.1665324,9.91397436 L25.0467552,8.82410989 Z M20.9089564,27.7617063 C21.1375854,26.6260927 22.8282965,18.2281112 22.9567378,17.5953925 C23.1706912,16.5415519 22.5251333,16.1067915 21.6757911,16.2254515 C20.9345522,16.3290343 18.3085825,16.8782538 18.3085825,16.8782538 L20.3026878,11.9718783 L20.8926051,8.64588981 C20.8926051,8.64588981 26.9457573,5.93052233 27.3050811,5.76893304 C27.7383034,5.57408215 28.1412498,5.10934032 28.1799614,4.47685179 L28.9535561,8.62586378 L25.8494125,13.6990652 L25.8859862,25.2609855 L20.9089564,27.7617063 Z M26.312044,13.827623 L29.4381434,8.71851291 L27.8152642,0.000690552489 L27.3451215,0 L28.0959516,4.02684175 L20.6297135,6.16807238 C20.6836207,5.51170224 20.7450391,4.77315635 20.7676882,4.49601462 C20.819631,3.86047615 20.5996687,3.27575083 20.2259003,2.83391232 L21.4098372,2.26915548 L21.0248598,1.79422801 L20.121957,1.85390325 C20.121957,1.85390325 18.9282557,0.559405062 17.0521916,1.27550799 C15.3381381,1.92969139 15.2772974,3.85500927 16.0073851,5.103931 L16.2880725,4.96369129 C16.3098549,5.07878338 16.3746823,5.24785364 16.4254117,5.35132142 C16.6021558,5.71184737 17.8788269,6.80689098 17.8788269,6.80689098 C17.8788269,6.80689098 17.733572,6.84343272 17.6569001,6.86271064 C16.507977,7.15130403 15.7555291,7.90561754 15.2210791,10.034706 C14.5092494,12.8707475 14.0371422,15.0670497 14.0371422,15.0670497 C14.0371422,15.0670497 13.5917287,15.8888071 13.2538407,16.5254965 C12.9158372,17.1622435 12.0852152,18.949681 13.0550253,20.84191 C14.0248355,22.7341389 16.1610178,26.8380348 16.1610178,26.8380348 C16.1610178,26.8380348 15.4642683,33.110956 15.3682984,34.2108335 C15.2722707,35.310711 15.6838261,36.3384833 16.6160803,36.4 C18.2342795,29.240582 18.2315639,29.2542204 18.6438127,27.3833986 C18.8671839,26.3697251 18.867935,26.1035171 18.6122079,25.1568847 C18.3918989,24.3414573 17.3956841,20.653907 17.3956841,20.653907 L19.9518575,19.8379617 C19.9518575,19.8379617 19.5282842,24.9870088 19.4848926,25.6013704 C19.4028473,26.7623617 19.8079893,27.6496641 20.716381,27.8584987 L19.4028473,28.5184367 L21.4894558,36.4 L21.9673408,36.4 L19.9427285,28.7536274 L26.3491378,25.5368612 L26.312044,13.827623 Z" id="Fill-1"></path>
            </g>
        </g>
    </g>
</svg>