<?xml version="1.0" encoding="UTF-8"?>
<svg width="60px" height="60px" viewBox="0 0 60 60" version="1.1" xmlns="http://www.w3.org/2000/svg" xmlns:xlink="http://www.w3.org/1999/xlink">
    <!-- Generator: Sketch 49.2 (51160) - http://www.bohemiancoding.com/sketch -->
    <title>icone blanc</title>
    <desc>Created with Sketch.</desc>
    <defs></defs>
    <g id="icone-blanc" stroke="none" stroke-width="1" fill="none" fill-rule="evenodd">
        <g id="spelunking" transform="translate(-16.000000, -29.000000)" fill="#FFFFFF">
            <g id="chasse" transform="translate(25.000000, 41.000000)">
                <path d="M13.490096,5.89603648 C13.7765334,5.56002224 14.2760461,5.52433678 14.6056345,5.81644364 C14.9352798,6.1084934 14.9702223,6.61768202 14.6836709,6.95375336 C14.3972334,7.2897676 13.8977777,7.32539596 13.5681324,7.0333462 C13.238544,6.74123934 13.2036015,6.23205072 13.490096,5.89603648 Z M21.9284579,30.254985 C21.1980282,30.0541187 20.5356594,29.6234952 19.5502575,29.4896605 L19.4658938,27.8694266 L19.240563,26.241085 C21.3634494,25.9953407 23.631521,25.6206149 24.2220097,25.1040037 C25.862541,23.6689346 26.2287819,22.8059746 26.4914494,22.3958488 C26.8872746,21.777948 27.0760668,21.2828623 27.6392513,21.2829194 C27.8799158,21.2829194 28.1464023,21.2845181 28.3939071,21.2866878 C28.8791122,21.290913 29.0480676,21.2937678 29.0480676,21.2937678 C29.082269,21.2937678 29.3611822,21.2829194 29.5450722,21.5704014 C29.7042231,21.8191719 29.7574634,21.9820117 29.8088226,21.9820117 L31.426382,22.3031237 C31.4435967,22.6522131 31.5533835,23.4601318 30.1984916,23.4676686 C29.7867627,23.4699525 29.4009699,23.5649614 29.0559339,23.7607461 L29.0559339,24.7964807 L28.2514009,24.5165355 C27.9146873,25.0057402 27.6675815,25.674971 27.5420051,26.5427842 C27.5420051,26.5427842 27.5072335,27.7460406 27.5071195,28.0169646 C27.5064925,29.3309316 26.4127859,30.3527917 26.4127859,30.3527917 L26.2114532,36.2738936 C26.0027671,36.2738936 25.3373772,36.1872779 25.2661241,35.4735688 C25.0679265,33.4882014 24.9055834,30.6258853 24.9055834,30.6258853 C24.7713426,30.6318805 24.550971,30.6326228 24.2711458,30.6192621 L24.1251055,36.2677843 C23.8872911,36.2980456 23.1958511,36.1897331 23.14757,35.4259501 C23.0602992,34.0459793 22.9019463,31.3403938 22.850701,30.4607045 C22.5534901,30.4085181 22.2424846,30.3413153 21.9284579,30.254985 Z M21.9814702,5.66833473 C21.7149266,6.53180854 20.9051494,8.83018022 20.9051494,8.83018022 L17.6284759,8.61475426 C17.6284759,8.61475426 20.0553565,6.69362067 20.2041329,6.57331786 C20.5521331,6.29205938 20.5416446,5.86708844 20.4597321,5.53758322 C20.8070482,5.40106495 21.0600252,5.33614597 21.0600252,5.33614597 L22.3823117,4.88805085 C22.2092521,5.09165778 22.0782034,5.3548166 21.9814702,5.66833473 Z M33.2058284,0.598202415 L32.9991944,0 C32.9991944,0 22.4097869,3.4686262 20.2098902,4.17959466 C19.6165514,4.36435967 19.0165433,4.97883465 19.0165433,4.97883465 L17.6812602,6.5796556 L16.756053,7.12555741 C16.7643184,6.68756842 16.7715007,6.30639066 16.7750348,6.12202533 C16.7821031,5.74096177 16.779139,5.40249237 16.7010456,5.10102165 C17.0569121,4.83192477 17.4544474,4.50647342 17.5939324,4.29961198 C17.5231924,3.96314096 16.595249,3.98637933 15.9730099,4.15538564 C15.5323808,3.87053007 14.9497584,3.67600152 14.5010919,3.66732282 C14.1551439,3.66069959 13.8083408,3.73680953 13.4896969,3.88143554 C13.4496812,4.14933339 13.420952,4.83392315 13.6849304,5.33865823 C14.0637689,5.19328996 14.5069062,5.25895119 14.8338724,5.54871709 C15.308532,5.96929158 15.3588652,6.70252776 14.9463383,7.18642253 C14.5338114,7.67031729 13.8145541,7.72164725 13.3398944,7.30107275 C12.9230923,6.93165693 12.8337124,6.32129291 13.0975769,5.850302 C12.708193,5.22160993 12.8087453,4.5660824 12.8864967,4.26969329 C12.4210145,4.67656457 12.1029406,5.26654506 12.0897161,5.97026223 C12.0804247,6.44839022 12.1503097,6.9182392 12.386414,7.30044469 C12.7252367,7.84891586 13.8337069,8.84810859 13.8337069,8.84810859 C13.8337069,8.84810859 13.3578502,9.12696901 13.2547897,9.18789122 C11.9379755,9.96651929 11.3080981,10.6977571 11.4242121,12.0616837 C11.4816706,12.736567 11.9347263,18.1496794 11.9347263,18.1496794 C11.4054583,19.4864851 11.305761,20.6973354 11.2683673,21.5468776 C11.2310307,22.3964198 11.0546651,27.704988 11.0546651,27.704988 C11.0546651,27.704988 10.0092966,33.21585 9.86422528,34.1044464 C9.61563747,35.6266451 10.1039207,36.277662 11.0650395,36.3558845 L13.2587799,28.7046947 L14.7680345,23.3977822 L16.4407153,28.2888592 C16.4407153,28.2888592 17.217032,33.9001543 17.3289849,34.7431875 C17.4359786,35.5487652 18.1412702,36.6059682 19.2813768,36.3651342 L18.9297855,27.9843623 L17.9490009,20.6413235 L17.5454233,18.4123814 C17.5454233,18.4123814 17.7818126,15.8120823 18.0966373,12.2967509 C18.1067267,12.1832997 17.883847,11.0067646 17.883847,11.0067646 L21.3476597,11.0067646 C21.9604363,11.0067646 22.1934055,10.7133445 22.3366527,10.1248485 C22.4763088,9.55131189 23.7248911,4.43304703 23.7248911,4.43304703 L28.6509313,2.76371 L28.5230747,2.26856718 L33.2058284,0.598202415 Z" id="Fill-1"></path>
            </g>
        </g>
    </g>
</svg>