<?xml version="1.0" encoding="UTF-8"?>
<svg width="60px" height="60px" viewBox="0 0 60 60" version="1.1" xmlns="http://www.w3.org/2000/svg" xmlns:xlink="http://www.w3.org/1999/xlink">
    <!-- Generator: Sketch 49.2 (51160) - http://www.bohemiancoding.com/sketch -->
    <title>icone blanc</title>
    <desc>Created with Sketch.</desc>
    <defs></defs>
    <g id="icone-blanc" stroke="none" stroke-width="1" fill="none" fill-rule="evenodd">
        <g id="spelunking" transform="translate(-16.000000, -29.000000)" fill="#FFFFFF">
            <g id="hockey-sur-gazon" transform="translate(25.000000, 41.000000)">
                <path d="M35.9421716,30.3648624 C35.9421716,31.1879351 35.5105672,31.5980079 35.2533259,31.7691897 C34.939281,31.9781715 34.6236424,32.0621079 34.3257907,32.0621079 C33.7151055,32.0621079 33.1792657,31.7091806 32.8857492,31.3585442 L24.2020209,22.2029897 C24.2430775,22.2055351 24.2841979,22.207317 24.3254457,22.207317 C24.3722401,22.207317 24.4191619,22.2055988 24.4661475,22.2022897 C24.9657121,22.166717 25.3628902,21.9483806 25.6300132,21.746526 C25.6300132,21.746526 33.7794318,30.3423351 33.9170097,30.4865351 C34.0546513,30.6306715 34.2560455,30.8116533 34.5037239,30.6468988 C34.5794619,30.5964351 34.5908099,30.4485442 34.5908099,30.3648624 C34.5908099,29.9923351 34.8933155,29.6903806 35.2664589,29.6903806 C35.639666,29.6903806 35.9421716,29.9923351 35.9421716,30.3648624 Z M25.2890648,21.3669988 C25.2890648,21.3669988 24.3925134,21.9656897 23.5950333,21.5520533 C22.5252663,20.9972079 19.2202729,18.2974351 19.2202729,18.2974351 L18.5167003,19.3709806 C18.5167003,19.3709806 22.1622596,23.4381079 22.3486081,23.6839351 C22.6801849,24.1210533 22.7842927,24.7719897 22.4484446,25.4462806 C22.2295185,25.8856897 16.795319,36.3474442 16.795319,36.3474442 C15.19647,36.0987533 15.3374267,34.0678624 15.7288033,33.095817 C16.1202437,32.1237079 18.9208911,25.1510079 18.9208911,25.1510079 C18.9113282,25.1461079 14.8796838,23.0612533 13.3201701,21.7141351 L13.1268725,22.0959533 L14.9951396,23.7780533 C14.9951396,23.7780533 13.0489669,26.3526533 12.7768712,26.7144897 C12.5960691,26.9550351 12.2490005,27.2777988 11.834163,27.5247715 C11.4192617,27.7717442 1.72849888,32.9785988 1.72849888,32.9785988 C1.05182982,32.2466533 1.48222297,30.9547079 2.45674371,30.2408988 L9.49572122,24.875526 L11.9622418,19.7981715 C11.5693989,17.7665806 13.4089135,15.7736806 13.6669199,15.5483442 L15.5522727,11.2361533 C15.8467455,12.4486806 16.470755,13.814826 16.954764,14.9270624 L17.1737538,14.4166351 C16.9995182,14.0381897 16.6349814,13.0060079 16.3266743,11.9337351 C15.9717004,10.6989988 15.7844593,9.88343514 15.8583484,9.45185332 C16.2719747,7.03494423 18.6282671,6.39043514 20.0132265,6.77161695 C21.5250533,7.1876715 23.4805338,7.70242604 23.9968653,7.86138968 C25.0941096,8.19923514 25.3421706,9.21258059 24.5944175,10.5573442 C24.2497715,11.1771624 23.6575745,12.2011351 23.6575745,12.2011351 L23.6484579,12.2143079 L24.0186687,19.1500351 L22.0722411,17.0085442 L21.7479958,14.9521988 L20.7412801,16.4024715 L25.2890648,21.3669988 Z M20.1330812,3.2515715 C20.0636547,2.73414423 20.1422616,2.20182604 20.3474171,1.68738968 C20.9391678,0.202498772 22.6509225,-0.323964864 23.9550437,0.193971499 C25.2580173,0.711526045 26.0539673,2.33259877 25.4698031,3.79820786 C25.2826896,4.26771695 24.5846634,6.02955332 24.2465839,6.87782604 C24.1024395,7.23953514 23.7302524,7.09698968 23.2321541,6.96398968 C22.6796749,6.81628968 21.930838,6.58528968 21.930838,6.58528968 C21.930838,6.58528968 20.2378266,4.03143514 20.1330812,3.2515715 Z M38.4004044,27.5750442 C38.3812149,27.5766351 38.3625991,27.5697624 38.3481911,27.5569715 C38.333783,27.5441806 38.3252402,27.5265533 38.3240926,27.5072715 C38.3229451,27.4880533 38.3293203,27.4695351 38.3421346,27.4550897 C38.3548851,27.4407079 38.3725445,27.4321806 38.391734,27.4309715 C38.3932003,27.4309079 38.3946666,27.4308442 38.3960692,27.4308442 C38.4339382,27.4308442 38.4658782,27.4604351 38.468237,27.4986806 C38.4705959,27.5383897 38.4401859,27.572626 38.4004044,27.5750442 Z M38.3836375,27.296317 C38.328364,27.2996897 38.2776808,27.324317 38.2409594,27.3656806 C38.2042379,27.4070442 38.1858772,27.4602442 38.1891923,27.5153533 C38.1924437,27.570526 38.2170522,27.621117 38.2584913,27.6578351 C38.2967428,27.6917533 38.3450672,27.7100806 38.3958779,27.7100806 C38.4000219,27.7100806 38.4042295,27.7099533 38.4084372,27.7096988 C38.5226179,27.702826 38.6099588,27.6045715 38.6031373,27.4906624 L38.6031373,27.4905988 C38.5961883,27.376626 38.4977544,27.2896988 38.3836375,27.296317 Z M37.9231531,27.4590351 C37.9246195,27.4589079 37.9260858,27.4589079 37.9275521,27.4589079 C37.9654848,27.4589079 37.9974248,27.4884988 37.9997199,27.5266806 C38.0021425,27.5663897 37.9716688,27.6006897 37.9318872,27.6030442 C37.8921057,27.6055897 37.8578068,27.5750442 37.8553842,27.5353988 C37.8530891,27.4956897 37.8834991,27.4614533 37.9231531,27.4590351 Z M37.9274883,27.7380806 C37.9316322,27.7380806 37.9357761,27.7379533 37.9399838,27.7376988 C38.0541008,27.730826 38.1415055,27.6326351 38.1346202,27.5186624 C38.1277987,27.4047533 38.0293011,27.3175079 37.9150566,27.3243806 C37.8010671,27.3312533 37.7137899,27.4294442 37.7205477,27.5434806 C37.727178,27.6531897 37.8187903,27.7380806 37.9274883,27.7380806 Z M37.5131608,27.606926 C37.5003466,27.6213079 37.4826871,27.6298988 37.4633701,27.6310442 C37.4235885,27.6335897 37.3892897,27.6030442 37.3868671,27.563526 C37.384572,27.5237533 37.4149819,27.4893897 37.454636,27.4870351 C37.4561023,27.4869715 37.4575686,27.4869079 37.4589712,27.4869079 C37.4969677,27.4869079 37.5289714,27.5164988 37.5312665,27.5547442 C37.5324141,27.5739624 37.5259751,27.5924806 37.5131608,27.606926 Z M37.4465394,27.3523806 C37.3326137,27.3591897 37.2453365,27.4574442 37.2519668,27.5715442 C37.2587246,27.6812533 37.3502732,27.7660806 37.4589712,27.7660806 C37.4630513,27.7660806 37.467259,27.7659533 37.4714029,27.7656988 C37.5267401,27.7624533 37.5774233,27.737826 37.6142723,27.6964624 C37.6509937,27.6550351 37.6694182,27.6018988 37.6661668,27.546726 C37.6593453,27.4327533 37.5608477,27.3456351 37.4465394,27.3523806 Z M37.6661668,27.5468024 L37.6661668,27.5466624 L37.6661668,27.5468024 Z M38.0417328,28.2255988 C38.0440916,28.2653079 38.0136817,28.2995442 37.9739001,28.3018988 C37.9545194,28.3031079 37.9360311,28.296617 37.9215593,28.283826 C37.9071513,28.2710988 37.8985447,28.2534715 37.8973971,28.2342533 C37.8950383,28.1945442 37.9254482,28.1603079 37.965166,28.1578897 C37.9666961,28.157826 37.9681624,28.1577624 37.9696287,28.1577624 C37.9872882,28.1577624 38.0041826,28.164126 38.0175068,28.176026 C38.0319787,28.1887533 38.0405853,28.2063806 38.0417328,28.2255351 L38.0417328,28.2255988 Z M37.9570695,28.0232351 C37.8430162,28.0301079 37.7557391,28.1283624 37.7625606,28.2422715 C37.765812,28.2974442 37.7904204,28.3480351 37.8319233,28.3847533 C37.8701748,28.4186715 37.9184992,28.4369351 37.96931,28.4369351 C37.9735176,28.4369351 37.9777253,28.4368079 37.981933,28.4365533 C38.0961137,28.4297442 38.1833909,28.3315533 38.1766331,28.2175806 C38.1733817,28.1624079 38.1486457,28.1117533 38.1071429,28.0750351 C38.0657037,28.038317 38.0124066,28.019926 37.9570695,28.0232351 Z M37.831222,26.7789533 C37.8441,26.7645079 37.8617595,26.7559806 37.8810765,26.7548351 C37.8825428,26.7547079 37.8840091,26.7546442 37.8854754,26.7546442 C37.9031986,26.7546442 37.9200293,26.7610079 37.9333535,26.7728442 C37.9477616,26.7856351 37.9563682,26.8031988 37.957452,26.822417 L37.957452,26.8224806 C37.9598108,26.862126 37.9294009,26.8963624 37.8896193,26.8987806 C37.8703661,26.8997988 37.8518141,26.8934988 37.837406,26.8807715 C37.8229342,26.867917 37.8143276,26.8502897 37.8131801,26.8310079 C37.8120325,26.8118533 37.8184715,26.7933351 37.831222,26.7789533 Z M37.8850291,27.033817 C37.8892368,27.033817 37.8934445,27.0336897 37.8977159,27.0334351 C38.0118329,27.0265624 38.0991738,26.9283715 38.092416,26.8144624 C38.0891009,26.7592897 38.0644924,26.7086351 38.0230533,26.6719806 C37.9816142,26.6352624 37.9283171,26.6169351 37.8729799,26.620117 C37.8176428,26.623426 37.7669595,26.6480533 37.7301743,26.6893533 C37.6933891,26.7307806 37.6749647,26.7839806 37.6782798,26.8390897 C37.6815949,26.8942624 37.7062671,26.944917 37.7477063,26.9815715 C37.7859578,27.0155533 37.8342822,27.033817 37.8850291,27.033817 Z M38.6813617,28.1982988 C38.6686749,28.2125533 38.6549044,28.2254715 38.6415163,28.2388988 C38.6445127,28.222926 38.6461703,28.2065079 38.6451502,28.1895806 L38.6451502,28.1894533 C38.638265,28.0755442 38.5396398,27.9886806 38.4255866,27.9952351 C38.3115334,28.0021079 38.2242562,28.1003624 38.2310777,28.2142079 C38.2343929,28.2693806 38.2589376,28.3200351 38.3003767,28.3566897 C38.3342293,28.386726 38.3761784,28.4036533 38.4204864,28.4073442 C38.2892838,28.4809715 38.1425893,28.525517 37.9879257,28.5348079 C37.8331346,28.5441624 37.6821049,28.5173715 37.5429332,28.4597806 C37.6421321,28.4392897 37.7142999,28.3493715 37.708116,28.2455806 C37.7048008,28.1904079 37.6801286,28.1397533 37.638562,28.1030351 C37.5971228,28.0663806 37.5438258,28.0483079 37.4885523,28.0512988 C37.4332789,28.0546079 37.3825957,28.0792351 37.3458742,28.1205988 C37.3091528,28.1619624 37.2907283,28.2151624 37.2941072,28.2702715 C37.2951272,28.2871351 37.2986974,28.3032988 37.3035426,28.319017 C37.2886882,28.3072442 37.2733876,28.2960442 37.2590433,28.283317 C37.1090337,28.1504442 37.0044796,27.980026 36.9542426,27.7907715 C36.9660368,27.7928715 36.9780861,27.7940806 36.990199,27.7940806 C36.9944067,27.7940806 36.9986781,27.7939533 37.0029495,27.7936988 C37.0582229,27.7903897 37.1089062,27.7657624 37.1456914,27.7244624 C37.1825403,27.6830351 37.2009648,27.6298988 37.1975859,27.574726 C37.1942708,27.5195533 37.1695986,27.4688988 37.1281594,27.4322442 C37.0867203,27.3954624 37.0333595,27.3770715 36.9781498,27.3804442 C36.9615104,27.3813988 36.9455723,27.3848988 36.9300167,27.3896079 C36.9571752,27.1955806 37.040691,27.0137079 37.17387,26.8637806 C37.1858555,26.8502897 37.1989247,26.8381351 37.2115477,26.8253442 C37.2096351,26.839026 37.2089339,26.853026 37.2098264,26.8671533 C37.2131415,26.922326 37.23775,26.972917 37.2791891,27.0095715 C37.3174406,27.0434897 37.365765,27.061817 37.416512,27.061817 C37.4207197,27.061817 37.4249273,27.0616897 37.429135,27.0614351 C37.5433157,27.054626 37.6307204,26.9563715 37.6238351,26.8423988 C37.6205838,26.787226 37.5959116,26.7365715 37.5544087,26.699917 C37.5230424,26.6721715 37.4848547,26.6548624 37.4442443,26.6495806 C37.5730244,26.5790715 37.7164038,26.5363079 37.8674335,26.5272715 C37.8880255,26.5260624 37.9085538,26.5254897 37.9290821,26.5254897 C38.0588822,26.5254897 38.1853034,26.5507533 38.3032456,26.5981624 C38.2630177,26.6081533 38.2267426,26.6297897 38.1986915,26.6613533 C38.1619063,26.7027806 38.1434818,26.7559806 38.1468607,26.8110897 C38.1501758,26.8662624 38.1747843,26.9168533 38.2161596,26.9535715 C38.2544111,26.9874897 38.3027993,27.0057533 38.3534825,27.0057533 C38.3576902,27.0057533 38.3619616,27.005626 38.3661693,27.0054351 C38.4215065,27.002126 38.4721897,26.9774988 38.5089749,26.9361351 C38.5457601,26.8947079 38.5641846,26.8415715 38.5608694,26.7863351 C38.5600406,26.7720806 38.557618,26.7581442 38.5539842,26.7446533 C38.5680735,26.755917 38.5825453,26.7667351 38.5961246,26.7787624 C38.7463255,26.9116988 38.8508796,27.0823079 38.9011165,27.2716897 C38.8851146,27.268826 38.868794,27.2672351 38.8521546,27.268317 C38.7380376,27.2751897 38.6508242,27.3734442 38.6576457,27.487417 C38.664276,27.597126 38.7558246,27.682017 38.8644588,27.682017 C38.8686027,27.682017 38.8728104,27.6818897 38.8769543,27.6816351 C38.8935937,27.680617 38.9096594,27.677117 38.925215,27.6723442 C38.8980564,27.8664351 38.8146044,28.0483715 38.6813617,28.1982988 Z M38.4422898,28.2738988 C38.4231003,28.2752351 38.4045483,28.2686806 38.3900765,28.255826 C38.3756684,28.2430988 38.3671256,28.2254715 38.3660418,28.2061897 C38.3636192,28.1665442 38.3939654,28.1322442 38.4336832,28.1298897 C38.4351495,28.1297624 38.4366158,28.1296988 38.4380184,28.1296988 C38.4759511,28.1296988 38.5078911,28.1592897 38.5102499,28.1975351 C38.5126088,28.2372442 38.4821351,28.2714806 38.4422898,28.2738988 Z M37.4290075,28.2621897 C37.42786,28.2429715 37.4342352,28.2244533 37.4469857,28.2100079 C37.4598,28.195626 37.4774594,28.1870988 37.4966489,28.1859533 C37.4981152,28.185826 37.4995815,28.1857624 37.5010478,28.1857624 C37.5187073,28.1857624 37.5356017,28.1921897 37.5489897,28.204026 C37.5634615,28.216817 37.5720681,28.2344442 37.5732157,28.2535988 L37.5732157,28.2536624 C37.5755745,28.2933079 37.5451008,28.3275442 37.5052555,28.3298988 C37.486066,28.3311715 37.467514,28.3246806 37.4531059,28.3118897 C37.4386979,28.2991624 37.430155,28.2815351 37.4290075,28.2621897 Z M36.9245977,27.6148806 C36.9238964,27.606926 36.9224939,27.5991624 36.9220476,27.5911442 C36.9215376,27.583126 36.9220476,27.5752351 36.9217288,27.5672806 C36.9246615,27.5570351 36.9292516,27.5473624 36.9365194,27.539217 C36.9492699,27.5247715 36.9669294,27.5162442 36.9861826,27.5150988 C36.9877127,27.5149715 36.989179,27.5149079 36.9906453,27.5149079 C37.0083047,27.5149079 37.0251354,27.5212715 37.0385234,27.5331079 C37.0529315,27.5458988 37.0615381,27.5635897 37.0626856,27.5827442 L37.0626856,27.5828079 C37.0638969,27.602026 37.0574579,27.6204806 37.0446437,27.6348624 C37.0318294,27.6493079 37.01417,27.6578351 36.994853,27.6590442 C36.9755997,27.660317 36.9570477,27.6537624 36.9426397,27.6410351 C36.9344156,27.6337806 36.9287416,27.6246806 36.9245977,27.6148806 Z M37.4169583,26.7827079 C37.4346177,26.7827079 37.4514484,26.7890715 37.4647727,26.8008442 C37.4792445,26.8136351 37.4878511,26.8312624 37.4889986,26.850417 C37.4913574,26.890126 37.4608838,26.924426 37.4211022,26.9267806 C37.4018489,26.9277988 37.383297,26.9214988 37.3688251,26.9087079 C37.3544171,26.895917 37.3458742,26.8782897 37.3447267,26.8590715 C37.3435154,26.8397897 37.3499544,26.8213351 37.3627049,26.8069533 C37.3755192,26.7925079 37.3931786,26.7839806 37.4124956,26.7828351 C37.4139619,26.7827079 37.4154282,26.7827079 37.4169583,26.7827079 Z M38.4259691,26.794417 C38.4271167,26.8136351 38.4206777,26.8321533 38.4078634,26.8465988 C38.3950492,26.8609806 38.3773897,26.8695715 38.3581365,26.870717 C38.3388195,26.871926 38.3203312,26.8654988 38.3059232,26.8527079 C38.2915151,26.839917 38.2829085,26.8222897 38.281761,26.8030079 C38.2806134,26.7837897 38.2869887,26.7652715 38.2998029,26.7508897 C38.3126172,26.7364442 38.3302129,26.727917 38.3494661,26.7267715 C38.3509324,26.7267079 38.3523987,26.7266442 38.353865,26.7266442 C38.3715245,26.7266442 38.3884189,26.7330079 38.4018069,26.7448442 C38.416215,26.7575715 38.4248216,26.7751988 38.4259691,26.794417 Z M38.9306339,27.447326 C38.9312715,27.455217 38.9327378,27.462917 38.9332478,27.4708715 L38.9332478,27.4709351 C38.9336941,27.478826 38.933184,27.4866533 38.933439,27.4946079 C38.9305702,27.5048533 38.92598,27.5145897 38.9186485,27.5227988 C38.9058342,27.5372442 38.8881748,27.5458351 38.8689215,27.5469806 C38.829395,27.5493988 38.7949686,27.5189806 38.7924823,27.4793351 C38.7901234,27.439626 38.8205334,27.405326 38.8601874,27.4029715 C38.8617175,27.4029079 38.8631838,27.4028442 38.8646501,27.4028442 C38.8823095,27.4028442 38.8991402,27.4092079 38.9125282,27.4210442 C38.920816,27.4283624 38.92649,27.4374624 38.9306339,27.447326 Z M39.3378849,27.4466897 C39.3153165,27.070726 39.1474562,26.7259442 38.8651601,26.4760442 C38.5828003,26.226017 38.219921,26.1007806 37.8431438,26.1233715 C37.4663665,26.1458351 37.1209554,26.3134533 36.8705993,26.5952988 C36.6201795,26.8770806 36.4947146,27.2393624 36.5173467,27.615326 C36.5398514,27.9913533 36.7077117,28.3361351 36.9900715,28.5860351 C37.2506918,28.8168442 37.5801647,28.941317 37.925767,28.941317 C37.9543919,28.941317 37.9832718,28.9404897 38.0121516,28.9387079 C38.3888652,28.9161806 38.7342762,28.748626 38.9846323,28.4667806 C39.2350521,28.1849988 39.3605171,27.822717 39.3378849,27.4466897 Z" id="Fill-1"></path>
            </g>
        </g>
    </g>
</svg>