<?xml version="1.0" encoding="UTF-8"?>
<svg width="60px" height="60px" viewBox="0 0 60 60" version="1.1" xmlns="http://www.w3.org/2000/svg" xmlns:xlink="http://www.w3.org/1999/xlink">
    <!-- Generator: Sketch 49.2 (51160) - http://www.bohemiancoding.com/sketch -->
    <title>icone blanc</title>
    <desc>Created with Sketch.</desc>
    <defs></defs>
    <g id="icone-blanc" stroke="none" stroke-width="1" fill="none" fill-rule="evenodd">
        <g id="spelunking" transform="translate(-16.000000, -29.000000)" fill="#FFFFFF">
            <g id="waterpolo" transform="translate(25.000000, 41.000000)">
                <path d="M41.0739713,33.3448493 L41.0739713,34.2465765 C31.1082317,34.2465765 26.042403,33.1719431 21.143469,32.1327775 C16.289922,31.1031553 11.2712085,30.0385159 1.4,30.0385159 L1.4,29.1367886 C7.3728912,29.1367886 11.5853102,29.5229533 15.0569602,30.0559493 L16.17405,28.3426675 L16.8587616,24.2474731 L14.0774589,19.7677671 C14.0774589,19.7677671 7.11897983,18.6696887 5.7547416,18.4553782 C4.39050337,18.2409925 4.05851745,17.7295629 4.26899562,16.4156711 C4.38629531,15.6839945 4.93717553,12.3286673 5.40246681,9.49829569 C6.228449,9.77692942 7.11582378,9.80751301 7.95157468,9.59568224 L7.9611931,15.4309097 L16.4665102,15.0418896 C16.4665102,15.0418896 26.0999633,16.6915245 26.8873966,16.8264078 C27.697298,16.9650484 28.0967632,17.1422378 28.5788867,17.9397405 C29.0956516,18.7945779 32.1350737,24.0143014 32.1350737,24.0143014 L40.8016497,24.8659828 C40.8016497,24.8659828 40.7515287,26.4411501 39.1234601,26.5441724 C38.0713698,26.61075 33.4192836,26.8397135 31.3961082,26.9322909 C30.3715957,26.9791807 30.2006432,26.9300366 29.6906413,26.295446 C29.151183,25.6243355 27.4256527,23.4329127 27.4256527,23.4329127 L27.5776689,21.9110977 L27.1979665,21.8499305 L26.3181062,26.5123114 L25.2733048,32.0490672 C29.1545645,32.7659404 33.7949282,33.3448493 41.0739713,33.3448493 Z M19.2850091,11.0147755 C19.1791313,10.3986704 19.2498417,9.75829373 19.4719672,9.13384759 C20.1135462,7.33129476 22.1342419,6.62636946 23.7144438,7.18852127 C25.2933682,7.75044765 26.3152507,9.65482052 25.6822381,11.4340787 C25.4793495,12.0038201 24.7649561,14.0119667 24.3985542,15.0417393 C24.24233,15.4805799 23.7431488,15.3332226 23.1354597,15.2317032 C22.4496961,15.1171838 21.8347933,15.0150632 21.8347933,15.0150632 C21.8347933,15.0150632 19.4446148,11.9429535 19.2850091,11.0147755 Z M9.12652532,7.27929515 C9.11480287,7.2923702 9.10240412,7.3046938 9.09053137,7.31754342 L7.55751986,4.58403232 L8.50343177,4.0535161 L9.73601782,6.25147634 C9.60451592,6.62606888 9.39922268,6.97458648 9.12652532,7.27929515 Z M7.01220029,8.29554179 C6.69719689,8.31252432 6.387153,8.28179045 6.08988357,8.20687194 L4.8953955,6.07676668 L5.76946981,5.58667791 L7.27377634,8.26931656 C7.18743596,8.28141473 7.10034413,8.29065744 7.01220029,8.29554179 Z M4.55897609,3.19153997 C5.10497195,2.58137118 5.8558102,2.22052998 6.67307569,2.17521818 C6.73116195,2.171987 6.78879735,2.17040897 6.84643276,2.17040897 C7.06337331,2.17040897 7.27708268,2.19377874 7.48538168,2.23811366 L7.56721343,2.38396805 L3.95917716,4.40721863 L3.91454166,4.32756605 C4.04303779,3.91202007 4.26027892,3.52525421 4.55897609,3.19153997 Z M3.88869214,6.05264548 C3.83120703,5.84336961 3.79491251,5.62672963 3.7825889,5.40497986 C3.77770454,5.315258 3.77717854,5.22606214 3.77995886,5.13731715 L4.19640658,5.88003985 L3.88869214,6.05264548 Z M4.58452502,7.30777471 C4.37246883,7.07753367 4.19941233,6.81903852 4.06843645,6.54047994 L4.44753762,6.32789773 L4.89832612,7.1317876 L4.58452502,7.30777471 Z M5.32950204,7.90066039 C5.21024861,7.83265512 5.09527838,7.75638403 4.98481679,7.67192224 L5.14945716,7.57957034 L5.32950204,7.90066039 Z M4.64418931,5.6289088 L4.21038335,4.85507651 L7.81826933,2.83182593 L8.25230073,3.60565822 L4.64418931,5.6289088 Z M7.10966198,4.83516337 L8.70121062,7.67289911 C8.42731096,7.88262584 8.12162541,8.04298301 7.79504985,8.14908626 L6.21740284,5.33554686 L7.10966198,4.83516337 Z M9.08008637,3.14141896 L8.70008346,3.35452718 L8.26612721,2.58077003 L8.32135801,2.54981072 C8.52199233,2.66079832 8.71165563,2.79508054 8.88681615,2.95175566 C8.95459599,3.01239682 9.01869377,3.07596859 9.08008637,3.14141896 Z M8.9513648,3.80238506 L9.40275444,3.54922512 C9.57378205,3.80787056 9.70348049,4.09056207 9.78861858,4.38933437 L9.40200301,4.60612464 L8.9513648,3.80238506 Z M9.90298765,5.06585526 C9.91080262,5.20817788 9.90832287,5.3492982 9.89705128,5.48899079 L9.65313405,5.05405766 L9.89134034,4.92045174 C9.89629984,4.96869415 9.90020733,5.01716199 9.90298765,5.06585526 Z M10.6719356,5.02332379 C10.6152019,4.00053963 10.163662,3.06101495 9.40042498,2.37780625 C8.6370377,1.69467269 7.6537041,1.3485597 6.63054422,1.40619511 C5.60776005,1.46285364 4.66823537,1.91439357 3.98510182,2.677856 C3.30196826,3.44116814 2.95698243,4.42480231 3.01356582,5.44751133 C3.07022435,6.4702955 3.52176428,7.40982018 4.28515157,8.09295373 L4.28507642,8.09287859 C4.99420978,8.72769459 5.89345731,9.07065153 6.83794149,9.07057639 C6.90992939,9.07057639 6.982293,9.06862265 7.05473176,9.06464002 C8.07759107,9.00798149 9.01719089,8.55629126 9.70032445,7.79297912 C10.3836083,7.02974213 10.7286693,6.04610796 10.6719356,5.02332379 Z" id="Fill-1"></path>
            </g>
        </g>
    </g>
</svg>