<?xml version="1.0" encoding="UTF-8"?>
<svg width="60px" height="60px" viewBox="0 0 60 60" version="1.1" xmlns="http://www.w3.org/2000/svg" xmlns:xlink="http://www.w3.org/1999/xlink">
    <!-- Generator: Sketch 49.2 (51160) - http://www.bohemiancoding.com/sketch -->
    <title>icone blanc</title>
    <desc>Created with Sketch.</desc>
    <defs>
        <polygon id="path-1" points="5.83806533e-06 0.025253739 36.3864 0.025253739 36.3864 12.0487805 5.83806533e-06 12.0487805"></polygon>
    </defs>
    <g id="icone-blanc" stroke="none" stroke-width="1" fill="none" fill-rule="evenodd">
        <g id="spelunking" transform="translate(-16.000000, -29.000000)">
            <g id="lackline" transform="translate(25.000000, 41.000000)">
                <g id="Page-1" transform="translate(1.400000, 0.000000)">
                    <g id="Group-3" transform="translate(0.000000, 24.313467)">
                        <mask id="mask-2" fill="white">
                            <use xlink:href="#path-1"></use>
                        </mask>
                        <g id="Clip-2"></g>
                        <path d="M26.4523867,10.2130959 L17.1938229,8.3928 L8.55253893,4.53782439 C0.101996009,0.767993496 -0.202632297,0.728126829 0.0556725754,0.0727577236 C0.201568167,-0.297541463 3.82277698,1.54866992 8.90121039,3.81172683 L17.5024628,7.64450732 L26.824241,9.46133659 C31.9511937,10.4606244 36.2134986,11.3458927 36.2960953,11.4285431 C36.515171,11.6478732 36.3060187,12.0656065 35.9858085,12.0482732 C35.8346345,12.0401138 31.5445863,11.2142862 26.4523867,10.2131382 L26.4523867,10.2130959 Z" id="Fill-1" fill="#FFFFFF" mask="url(#mask-2)"></path>
                    </g>
                    <path d="M16.1969908,27.3834156 C16.0005068,25.4237343 15.67202,22.765562 15.4598697,21.4126741 C15.452142,21.3636758 15.448426,21.3138319 15.448426,21.2642416 C15.449355,17.02324 15.1022882,16.8792465 14.8984567,16.0667359 C14.6934427,15.2494059 14.2734915,10.3437343 13.836227,9.21017659 C13.6713713,8.78288878 13.6349713,8.76906439 12.9354325,8.8682026 C10.9300543,9.15234244 9.22917777,9.15838797 8.07159865,8.88545138 C6.16748172,8.43651805 5.30443856,7.78465789 5.80871791,7.17625789 C6.06959865,6.8615522 6.58920654,6.89338634 8.14680561,7.32997496 C8.21474947,7.34899935 8.28455132,7.36032943 8.35498659,7.36400748 L11.1078738,7.50846602 C11.1764933,7.51210179 11.2454929,7.5081278 11.3133523,7.49709366 C13.2780232,7.17714569 14.3598887,7.20065138 15.4894288,7.58253431 C16.3281912,7.86612455 16.5642423,7.88481073 17.4868683,7.74090179 C19.4844344,7.42928228 20.1634929,7.14670667 21.0020019,6.27826439 C22.5085903,4.71784163 22.6490808,4.4064335 22.7348024,2.43694407 C22.8145699,0.604092033 23.0123629,4.22764227e-06 23.5327731,4.22764227e-06 C23.6901546,4.22764227e-06 23.8933527,0.0897570732 23.9842683,0.19946439 C24.2320585,0.498358699 24.4551458,3.13133431 24.3021982,3.95111642 C24.0799133,5.14246602 23.2538191,6.45586764 21.6905193,8.10371805 C20.1568209,9.7202839 19.2274808,10.9383099 19.2274808,11.3317766 C19.2274808,11.6709603 20.0876103,14.0513766 20.6820873,15.3574644 C22.2254135,18.7317571 29.1311945,25.9160433 28.1515193,26.7831327 C26.9572446,27.7572237 26.3367555,25.5345408 23.597381,22.8005246 C21.3345425,20.542118 19.2091963,18.6930319 19.1086952,18.6930319 C18.4249917,18.6930319 17.1112557,20.2545538 17.9924989,26.1856823 C18.8736998,32.116853 17.3248418,32.0637538 17.2125592,31.3610774 C17.2125592,31.3610774 16.8469123,30.2779132 16.1969908,27.3834579 L16.1969908,27.3834156 Z" id="Fill-4" fill="#FFFFFF"></path>
                    <path d="M15.6331075,6.31196293 C15.7551868,6.55555967 16.1172021,6.49058081 16.3257209,6.46808976 L17.0804931,6.38670764 C17.0804931,6.38670764 18.1270142,4.84974829 18.2354963,4.35426862 C18.3075362,4.02556943 18.2853246,3.67953691 18.1814031,3.3381548 C17.8812509,2.35277593 16.8129826,1.92371252 15.9503195,2.18722146 C15.0883743,2.4503922 14.4924193,3.44955317 14.7888133,4.42208 C14.8838249,4.73357268 15.6331075,6.31196293 15.6331075,6.31196293" id="Fill-6" fill="#FFFFFF"></path>
                </g>
            </g>
        </g>
    </g>
</svg>