<?xml version="1.0" encoding="UTF-8"?>
<svg width="60px" height="60px" viewBox="0 0 60 60" version="1.1" xmlns="http://www.w3.org/2000/svg" xmlns:xlink="http://www.w3.org/1999/xlink">
    <!-- Generator: Sketch 49.2 (51160) - http://www.bohemiancoding.com/sketch -->
    <title>icone blanc</title>
    <desc>Created with Sketch.</desc>
    <defs>
        <polygon id="path-1" points="0 1.39463602e-05 33.8410053 1.39463602e-05 33.8410053 36.3559992 0 36.3559992"></polygon>
    </defs>
    <g id="icone-blanc" stroke="none" stroke-width="1" fill="none" fill-rule="evenodd">
        <g id="spelunking" transform="translate(-16.000000, -29.000000)">
            <g id="gym-pilates" transform="translate(25.000000, 41.000000)">
                <g id="Page-1" stroke-width="1" transform="translate(4.200000, 0.000000)">
                    <mask id="mask-2" fill="white">
                        <use xlink:href="#path-1"></use>
                    </mask>
                    <g id="Clip-2"></g>
                </g>
                <path d="M35.0509385,21.3206388 C32.6788021,21.2651292 25.8836474,21.0872336 25.8836474,21.0872336 C25.2299117,20.3651211 24.110019,20.0508226 23.3546144,19.9564702 C22.374255,19.8339447 16.2305347,19.049628 16.2305347,19.049628 L16.4215998,19.3510952 C16.4215998,19.3510952 20.654878,19.9078645 23.301688,20.267003 C25.9495439,20.626281 26.0261094,22.6583775 26.0431937,23.0275579 C26.0603477,23.3967384 26.6006995,36.1442035 26.6006995,36.1442035 C25.7101546,36.5527846 24.634193,35.843364 24.364052,34.3662935 C24.0785002,32.8051915 23.4420581,28.7914872 22.7369998,24.3107634 C20.3378772,24.3086713 18.3643975,24.2125756 16.8952182,24.1039972 C18.8603998,25.3567282 20.1373983,27.3686013 20.1373983,29.6330569 C20.1373983,31.4796565 19.294829,33.1916664 17.7649133,34.4536722 C16.2764182,35.6817168 14.2889225,36.358013 12.168727,36.358013 C10.0484619,36.358013 8.06096613,35.6817168 6.57240138,34.4536722 C5.0425554,33.1916664 4.19998605,31.4796565 4.19998605,29.6330569 C4.19998605,26.1724957 7.18164812,23.3016887 11.0457661,22.8296482 C10.5982972,22.4706491 9.83452475,21.6522317 9.53244659,20.0920363 L8.81337226,16.7164828 C8.2380849,15.1997327 6.53049257,9.8613303 6.96359678,8.7230355 C7.34900444,7.71012538 8.05692169,7.25258987 9.13581211,7.25258987 C9.57484352,7.25258987 26.8101041,7.3009864 26.8101041,7.3009864 C26.8101041,7.3009864 26.5730159,8.93698444 25.132078,9.05281533 C23.6874443,9.16892516 17.7723048,9.59354545 17.7723048,9.59354545 L12.1691454,10.2676101 L12.2870619,10.5167058 L14.2404589,10.4516425 C14.450491,10.8936967 14.5967186,11.2895859 14.5967186,11.5356829 C14.5967186,12.3900142 14.0820282,13.2270511 14.0820282,13.2270511 L14.3393385,15.6194018 L15.2849715,17.8036614 L25.7866504,17.8036614 L38.0285562,19.5315013 C38.1431952,20.3446188 37.4905056,21.3777522 35.0509385,21.3206388 M12.168727,35.2614201 C14.2672359,35.2614201 16.1182665,34.528917 17.3707891,33.3524071 L6.96652552,33.3524071 C8.21904812,34.528917 10.0701485,35.2614201 12.168727,35.2614201 M11.7067539,3.33853781 C11.6197983,3.82933721 11.3132573,5.55961783 11.1560121,6.44714327 C11.089209,6.82524989 10.663078,6.77357579 10.1552213,6.77420341 C9.58209563,6.77483103 9.06810253,6.77573759 9.06810253,6.77573759 C9.06810253,6.77573759 6.70475234,4.60486723 6.4485577,3.87173648 C6.36292705,3.62731308 6.31285962,3.37173197 6.29619372,3.10966545 C5.522101,3.01761441 4.92177992,2.35944947 4.92177992,1.56055802 C4.92177992,0.698625552 5.62042284,1.39463602e-05 6.48230789,1.39463602e-05 C6.93563433,1.39463602e-05 7.3436351,0.193460602 7.62876843,0.50225 C8.2005692,0.171075463 8.88408031,0.0417855926 9.52665885,0.155594151 C10.887196,0.39646104 11.9780803,1.8051209 11.7067539,3.33853781" id="Fill-1" fill="#FFFFFF"></path>
            </g>
        </g>
    </g>
</svg>