<?xml version="1.0" encoding="UTF-8"?>
<svg width="60px" height="60px" viewBox="0 0 60 60" version="1.1" xmlns="http://www.w3.org/2000/svg" xmlns:xlink="http://www.w3.org/1999/xlink">
    <!-- Generator: Sketch 49.2 (51160) - http://www.bohemiancoding.com/sketch -->
    <title>icone blanc</title>
    <desc>Created with Sketch.</desc>
    <defs></defs>
    <g id="icone-blanc" stroke="none" stroke-width="1" fill="none" fill-rule="evenodd">
        <g id="spelunking" transform="translate(-16.000000, -29.000000)" fill="#FFFFFF">
            <g id="triathlon" transform="translate(25.000000, 41.000000)">
                <path d="M35.5857625,25.3241902 C35.5857625,22.8918656 33.6068706,20.9129117 31.174422,20.9129117 C30.783506,20.9129117 30.404498,20.9646989 30.0432899,21.0605828 L31.4075575,25.1969239 C31.4507238,25.3278494 31.3795862,25.4690703 31.2485986,25.5122987 C31.222674,25.5208576 31.1963152,25.5248889 31.1703286,25.5248889 C31.0655138,25.5248889 30.9678933,25.4583408 30.9332238,25.3533399 L29.5687702,21.2167507 C27.9283248,21.8602766 26.7632055,23.4582378 26.7632055,25.3241902 C26.7632055,27.7567629 28.7420353,29.7355927 31.174422,29.7355927 C33.6068706,29.7355927 35.5857625,27.7567629 35.5857625,25.3241902 Z M28.9973122,19.4840807 L28.8205534,18.9480365 L24.6151834,18.9480365 C24.6076789,18.9602545 24.6014768,18.9724106 24.5937242,18.9845046 C24.3601546,19.349682 21.8842915,23.2201407 20.9481523,24.6835792 L21.2673724,25.645519 L28.9973122,19.4840807 Z M20.7815649,25.7673895 L20.6017051,25.2251432 C20.5955651,25.2347564 20.5921539,25.2401522 20.5921539,25.2401522 C20.1527999,25.1951253 19.7163608,24.7210397 20.0610714,23.5961097 L18.6710033,19.4072991 L17.4150857,21.3466839 C18.6472494,22.2398428 19.4509125,23.6896368 19.4509125,25.3241902 C19.4509125,25.4231131 19.4470052,25.5209816 19.4412373,25.618416 L20.7815649,25.7673895 Z M18.9513365,25.3241902 C18.9513365,23.8650311 18.2385955,22.5696064 17.1435595,21.7661293 L14.9705431,25.1218789 L18.9446382,25.5632176 C18.9488556,25.4840793 18.9513365,25.4044449 18.9513365,25.3241902 Z M18.8888817,26.0596307 L14.5135752,25.5736991 C14.4276146,25.56421 14.3525696,25.5108102 14.3154813,25.4324782 C14.278393,25.3542702 14.284409,25.2624797 14.3314826,25.1897295 L16.7245482,21.4942309 C16.0799679,21.1251462 15.3344801,20.9129117 14.540058,20.9129117 C12.1076713,20.9129117 10.1287174,22.8918656 10.1287174,25.3241902 C10.1287174,27.7567629 12.1076713,29.7355927 14.540058,29.7355927 C16.7218193,29.7355927 18.5375969,28.1431513 18.8888817,26.0596307 Z M19.0449256,18.9480365 L20.3417147,22.8560797 C20.8206379,21.6802308 21.6128893,19.8613521 22.0131704,18.9480365 L19.0449256,18.9480365 Z M18.8790824,18.4485844 L22.2327233,18.4485844 C22.2511435,18.4069066 22.2610668,18.3843311 22.2610668,18.3843311 C22.2610668,18.3843311 20.5091083,17.7029105 18.9292571,17.0888444 L18.4279445,17.0888444 L18.8790824,18.4485844 Z M20.6008989,14.3477811 C20.6008989,14.3477811 24.0834186,16.7735936 24.5583725,17.1104276 C24.8706463,17.3319652 25.0210463,17.8575279 24.8423649,18.4485844 L28.6558267,18.4485844 L28.4310639,17.7672879 L27.8824296,17.7672879 C27.6794981,17.7672879 27.4857457,17.6826298 27.3478118,17.5336563 L23.7825566,13.6727487 L23.6257685,13.6639418 L23.9443063,14.5355175 L20.6008989,14.3477811 Z M36.0852765,25.3241902 C36.0852765,28.0320724 33.8822422,30.2351688 31.174422,30.2351688 C28.4666018,30.2351688 26.2636914,28.0320724 26.2636914,25.3241902 C26.2636914,23.2373824 27.5726366,21.4516848 29.4121681,20.7417348 L29.1641477,19.9896727 L21.2987548,26.259151 C21.2539139,26.2948129 21.1989637,26.3136671 21.1430831,26.3136671 C21.1193292,26.3136671 21.0953892,26.310194 21.0720075,26.3033097 C21.070705,26.3029376 21.0695887,26.3021933 21.0682862,26.3017592 L19.3863491,26.114891 C19.006969,28.4480447 16.9786467,30.2351688 14.540058,30.2351688 C11.8321757,30.2351688 9.62920337,28.0320724 9.62920337,25.3241902 C9.62920337,22.616432 11.8321757,20.4133976 14.540058,20.4133976 C15.4345193,20.4133976 16.2731621,20.6550299 16.9962605,21.0745374 L18.4694363,18.7995591 L17.9017615,17.0888444 L16.3797135,17.0888444 C16.2417797,17.0888444 16.1299565,16.9770212 16.1299565,16.8390873 C16.1299565,16.7012155 16.2417797,16.5893923 16.3797135,16.5893923 L17.6438798,16.5893923 C17.0081064,16.3424262 16.5422076,16.1617602 16.4629452,16.1314321 C16.0197459,15.962674 15.8033559,15.7269336 15.7137361,15.201805 C15.6443971,14.7961282 15.4922605,13.800077 15.4922605,13.800077 C15.656057,13.4040134 17.0544358,10.5012624 22.2208774,10.3924782 C25.0147822,10.3337447 25.1444053,10.3370938 25.7161114,11.3593797 C25.8949788,11.679282 28.551446,16.3766616 28.551446,16.3766616 L31.6451585,16.7601351 C31.9374616,16.7963551 32.1568906,17.0447477 32.1568906,17.3392836 L32.1568906,17.7672879 L32.1530453,17.7672879 C32.1477115,18.0741659 32.0887299,18.5295833 31.8172657,18.8349729 C31.6385222,19.0359817 31.3908739,19.142223 31.1010516,19.142223 C30.9631797,19.142223 30.8513566,19.0303998 30.8513566,18.892466 C30.8513566,18.7545321 30.9631797,18.642771 31.1010516,18.642771 C31.2502732,18.642771 31.3592434,18.5983022 31.4439015,18.5031005 C31.6006276,18.3268379 31.6457166,18.0079899 31.6521048,17.7672879 L28.9569988,17.7672879 L29.8866258,20.586001 C30.2973264,20.4742398 30.7288658,20.4133976 31.174422,20.4133976 C33.8822422,20.4133976 36.0852765,22.616432 36.0852765,25.3241902 Z M29.622542,9.88645198 C29.5986641,9.77462881 29.628558,8.04319921 27.7352546,7.73601108 C26.3552338,7.51217867 24.9941294,8.3475964 24.815696,8.51412176 L25.1171783,9.07348572 L25.2146127,9.50986279 C25.2146127,9.50986279 25.4035895,9.59985471 25.6816899,9.72823739 C25.6832404,9.76910897 25.6865275,9.80998056 25.6919233,9.85066609 C25.7515872,10.3014319 26.8288853,12.0693297 26.8288853,12.0693297 C26.8288853,12.0693297 27.1706189,12.1536157 27.5239504,12.2473288 C27.8367824,12.3303745 28.1047115,12.368083 28.2080998,12.1459251 C28.4296375,11.6705371 28.8100099,10.83698 28.9767213,10.47602 C29.1905684,10.4267756 29.3438834,10.3838573 29.3438834,10.3838573 L29.622542,9.88645198 Z M13.2689454,19.3755446 C13.9076957,19.1496655 14.3975346,18.5906116 14.5049543,17.9469617 C14.660378,17.01566 14.0699417,15.9654029 13.0076525,15.7880239 C12.6396222,15.7266235 12.2777319,15.7508116 11.9468519,15.8702633 C11.448082,16.0504332 9.98185261,17.6785984 9.98185261,17.6785984 C9.98185261,17.6785984 9.98600799,18.0295111 9.99034943,18.4208612 C9.99332642,18.6913951 9.97422407,18.9280038 10.0885281,19.0395169 C9.94755521,19.0166933 9.80962135,18.9932495 9.67416832,18.9692475 L9.67236972,18.6539347 L9.65029038,17.0268238 C9.65029038,16.5356825 9.43055133,15.938734 9.11616882,15.6806042 C9.11616882,15.6806042 6.40803852,13.3191072 5.16874252,12.2645706 C4.20332957,11.4431075 3.46150096,11.2361447 2.78516611,12.6291278 C2.4828156,13.2518768 1.78967317,14.6659469 1.29729148,15.7212277 C1.16041197,16.0146473 0.748471025,16.8836182 1.44880785,17.5451921 L4.08412594,13.7425839 L6.41151167,16.7815322 L5.30556,17.8974072 L4.81317831,18.0547535 C3.55409774,17.8882901 2.03601906,17.7746684 6.20206184e-06,17.7746684 L6.20206184e-06,18.1308528 C3.89837419,18.1308528 5.88036709,18.5512906 7.79711431,18.9578977 C9.7318475,19.3682882 11.7324466,19.7926953 15.668151,19.7926953 L15.668151,19.4365729 C14.7751781,19.4365729 13.9830508,19.4144315 13.2689454,19.3755446 Z M38.4664341,16.889324 C38.4664341,16.889324 39.582061,17.2022801 40.0945374,17.2347789 C40.5133006,17.2613237 40.9467627,17.2383761 41.2106604,16.988495 C41.4171891,16.792882 41.4748063,16.5830662 41.4748063,16.5830662 L38.7881351,15.8804967 L38.4664341,16.889324 Z M40.6210924,22.9095414 L37.6429864,18.7824414 L38.6029415,15.3213188 C38.799857,14.4922271 38.5215085,12.1258305 38.4545882,11.5505892 C38.4545882,11.5505892 37.1017325,11.0337094 37.0089496,10.9950705 C36.504908,10.7850067 35.9742596,10.7247227 35.3314159,11.0963502 L33.2212884,12.1750128 C32.1449206,12.7689222 31.7332898,12.948782 31.7659746,13.2673199 C31.8402133,13.9911006 32.5755297,15.6961094 32.8867492,16.173296 C33.5940323,17.2575405 34.1787007,16.988433 34.1787007,16.988433 L33.2413831,13.8518643 L35.0636729,13.1465658 L35.0447566,16.6296437 L34.4253567,17.5566659 C34.4253567,17.5566659 33.5534088,18.5782075 34.023029,19.8182478 L33.6579136,20.5180264 C34.4445211,20.9252538 35.118189,21.5194113 35.620308,22.2423856 C35.8556142,21.9466093 36.0461415,21.7068996 36.0461415,21.7068996 L35.2159956,20.6976381 L35.3107631,20.399505 L38.9256968,23.7867611 C38.9256968,23.7867611 40.060116,27.224812 40.6119134,28.8368519 C40.8861066,29.6377242 41.3894039,29.7901088 41.7328741,29.7901088 C41.9439922,29.7901088 42.0947644,29.7324297 42.0947644,29.7324297 L40.6210924,22.9095414 Z M37.2348907,10.7078531 C37.2348907,10.7078531 36.456656,9.00768184 36.4845653,8.5560477 C36.5032335,8.25636407 36.606932,7.96480514 36.7798454,7.69731022 C37.0286101,7.31259632 37.4073701,7.09322939 37.8086435,7.0240764 C38.2125217,6.95448927 38.6390995,7.03703871 38.9785384,7.25646766 C39.6548112,7.69346494 39.9220581,8.69664844 39.4295523,9.45857174 C39.2717719,9.70262287 38.715757,10.5625387 38.4306482,11.0035053 C38.3943662,11.059696 38.3495253,11.0879154 38.2971799,11.0969084 C38.1744411,11.1180574 38.0104586,11.0331512 37.819249,10.9528965 C37.5111926,10.8236455 37.2348907,10.7078531 37.2348907,10.7078531 Z" id="Fill-1"></path>
            </g>
        </g>
    </g>
</svg>