<?xml version="1.0" encoding="UTF-8"?>
<svg width="60px" height="60px" viewBox="0 0 60 60" version="1.1" xmlns="http://www.w3.org/2000/svg" xmlns:xlink="http://www.w3.org/1999/xlink">
    <!-- Generator: Sketch 49.2 (51160) - http://www.bohemiancoding.com/sketch -->
    <title>icone blanc</title>
    <desc>Created with Sketch.</desc>
    <defs>
        <polygon id="path-1" points="0 0 16.8 0 16.8 36.4 0 36.4"></polygon>
    </defs>
    <g id="icone-blanc" stroke="none" stroke-width="1" fill="none" fill-rule="evenodd">
        <g id="spelunking" transform="translate(-16.000000, -29.000000)">
            <g id="mountaineering" transform="translate(25.000000, 41.000000)">
                <g id="Group" transform="translate(9.800000, 0.000000)">
                    <g id="Page-1" transform="translate(2.800000, 0.000000)">
                        <mask id="mask-2" fill="white">
                            <use xlink:href="#path-1"></use>
                        </mask>
                        <g id="Clip-2"></g>
                        <path d="M12.4185596,8.82410989 C12.5618137,9.87116011 11.7646641,10.5531382 11.169569,10.7498306 C10.8930916,10.8412137 8.205277,11.7382989 8.205277,11.7382989 L8.54712666,9.91397436 L12.4185596,8.82410989 Z M8.29013412,27.7617063 C8.51824526,26.6260927 10.2051263,18.2281112 10.3332767,17.5953925 C10.5467454,16.5415519 9.90264991,16.1067915 9.0552317,16.2254515 C8.31567196,16.3290343 5.69565086,16.8782538 5.69565086,16.8782538 L7.68523893,11.9718783 L8.27381988,8.64588981 C8.27381988,8.64588981 14.3132599,5.93052233 14.6717697,5.76893304 C15.1040106,5.57408215 15.5060443,5.10934032 15.5446681,4.47685179 L16.3165104,8.62586378 L13.2193987,13.6990652 L13.2558895,25.2609855 L8.29013412,27.7617063 Z M13.6809822,13.827623 L16.8,8.71851291 L15.1807971,0.000690552489 L14.7117194,0 L15.4608486,4.02684175 L8.01152376,6.16807238 C8.06530888,5.51170224 8.12658817,4.77315635 8.14918599,4.49601462 C8.20101109,3.86047615 7.98154707,3.27575083 7.60862541,2.83391232 L8.78988027,2.26915548 L8.405775,1.79422801 L7.50491756,1.85390325 C7.50491756,1.85390325 6.31392027,0.559405062 4.44210604,1.27550799 C2.73193539,1.92969139 2.67123257,3.85500927 3.39966634,5.103931 L3.67971789,4.96369129 C3.70145099,5.07878338 3.76613148,5.24785364 3.81674599,5.35132142 C3.99308968,5.71184737 5.26686878,6.80689098 5.26686878,6.80689098 C5.26686878,6.80689098 5.12194297,6.84343272 5.04544474,6.86271064 C3.89912426,7.15130403 3.1483809,7.90561754 2.61514156,10.034706 C1.90492439,12.8707475 1.43388669,15.0670497 1.43388669,15.0670497 C1.43388669,15.0670497 0.989482136,15.8888071 0.652359573,16.5254965 C0.315121715,17.1622435 -0.513618704,18.949681 0.453994535,20.84191 C1.42160777,22.7341389 4.78482041,20.653907 4.78482041,20.653907 L7.33520333,19.8379617 C7.33520333,19.8379617 6.91258953,24.9870088 6.86929626,25.6013704 C6.78743681,26.7623617 7.19166106,27.6496641 8.09799501,27.8584987 L6.78743681,28.5184367 L8.86931852,36.4 L9.34612097,36.4 L7.32609502,28.7536274 L13.7179919,25.5368612 L13.6809822,13.827623 Z" id="Fill-1" fill="#FFFFFF" mask="url(#mask-2)"></path>
                    </g>
                    <path d="M8.07796151,21.6350782 L5.88404471,27.0115747 C5.88404471,27.0115747 3.93518291,30.8748684 1.92084198,35 C1.2777974,34.8201327 0.747444398,33.8844917 1.21125035,32.5796975 C1.67500009,31.2749033 3.43203327,26.439607 3.43203327,26.439607 L4.12976559,20.3425568 C3.77904465,19.6288529 3.61537489,18.8830116 3.66168803,18.3934712 C3.7050223,17.9347553 3.84654719,17.6683508 3.84654719,17.6683508 L7.43694032,17.6002513 L7.5464844,17.2969714 L3.66101357,17.3358446 L3.29759025,18.3119572 C3.29759025,18.3119572 1.97468663,17.9929225 1.56348882,17.899935 C0.205175881,17.5926593 -0.0795038493,17.0426684 0.017169228,15.8177898 C0.208716814,13.3912653 0.388910933,12.5123074 0.787181529,8.59187397 C0.832820214,8.14234845 1.24030848,8.03177944 1.24030848,8.03177944 C1.24030848,8.03177944 0.885540765,7.74277021 0.931123245,7.39496589 C1.00059297,6.86512514 1.07039992,6.46166528 1.08939731,6.32284038 C1.2895443,4.86466521 1.5057098,4.44927509 2.61733777,4.34281603 C3.52881876,4.25547964 4.52753033,4.2139235 5.83508991,4.20010951 C7.06587307,4.18703759 7.29176208,5.34649949 7.09740424,6.45458704 C7.04159239,6.77253715 6.96307362,7.15972847 6.88758993,7.51563852 C7.31104049,7.02255897 8.06183059,6.96393513 8.67840248,7.24289783 C9.13445211,7.44925145 9.76114095,7.73631987 10.2402909,7.96567778 C10.6887716,8.18038449 10.5275374,9.57350452 9.75658832,12.1450379 L8.07796151,21.6350782 Z" id="Page-1" fill="#FFFFFF"></path>
                </g>
            </g>
        </g>
    </g>
</svg>