<?xml version="1.0" encoding="UTF-8"?>
<svg width="60px" height="60px" viewBox="0 0 60 60" version="1.1" xmlns="http://www.w3.org/2000/svg" xmlns:xlink="http://www.w3.org/1999/xlink">
    <!-- Generator: Sketch 49.2 (51160) - http://www.bohemiancoding.com/sketch -->
    <title>icone blanc</title>
    <desc>Created with Sketch.</desc>
    <defs></defs>
    <g id="icone-blanc" stroke="none" stroke-width="1" fill="none" fill-rule="evenodd">
        <g id="spelunking" transform="translate(-16.000000, -29.000000)" fill="#FFFFFF">
            <g id="pickleball" transform="translate(25.000000, 41.000000)">
                <path d="M25.7832985,12.3695296 L27.4722181,9.26737202 L26.8421282,9.53799273 L25.5241841,11.9125211 L21.964433,12.2458067 L21.964433,9.21261752 L21.6154018,9.59008985 L21.3649674,11.6141523 L19.557585,12.0545367 C19.6360712,12.0912457 19.7097283,12.1359269 19.7772118,12.1885802 L21.2278611,12.9002651 L25.7832985,12.3695296 Z M14.4650308,11.1514583 C14.6585567,10.976627 14.8343559,10.7768905 14.9860102,10.55126 C15.1347305,10.3302026 15.2519708,10.0965999 15.3410318,9.85564299 L15.6332155,11.0035099 L14.4650308,11.1514583 Z M31.4894996,24.0283445 C32.1574878,25.2487642 32.0348073,26.0454854 32.0348073,26.3352022 L32.0348073,36.3694277 C32.0348073,36.3694277 30.1875094,36.6033394 29.9812082,34.2539635 C29.7502119,31.6244498 29.2702482,27.1714752 29.2702482,27.1714752 L28.2669211,26.0978297 L29.9502783,25.3625374 L30.0343269,25.0328362 L26.7040439,26.1595058 L24.5486695,22.2762005 C24.5486695,22.2762005 21.9684062,28.0197374 21.7541585,28.5466413 C21.3980367,29.4225897 21.1652066,29.8922053 20.5500927,30.3731303 C20.0838824,30.7375011 12.3092285,35.6896314 12.3092285,35.6896314 C12.3092285,35.6896314 11.324545,34.5814399 12.8103419,32.9349116 C13.5209351,32.1472749 18.7309741,28.080919 18.7309741,28.080919 L19.0821446,25.5241435 L20.5485645,25.7841347 L20.9434404,25.6261747 L18.4271763,24.7915703 L19.9674368,19.0788715 L20.8722283,17.0710623 L20.6888494,14.3871031 L19.075054,14.3871031 L19.0763988,14.375114 C19.0452244,14.3843221 19.0138666,14.3896987 18.9822643,14.3871031 C18.5156872,14.3490345 18.1370709,13.9721184 17.9897566,13.5203011 C17.9373713,13.5232674 17.8844971,13.524009 17.8307671,13.5196831 C17.2394312,13.4714175 16.7895417,12.9799248 16.7726708,12.3940022 L15.6064422,11.592337 L12.9432916,11.9297632 C12.736318,11.9753713 12.5244542,12.0020688 12.3102065,12.0099174 L12.2408893,12.0187547 L12.2401558,12.0126983 C11.4956986,12.0256763 10.7274633,11.8085741 10.0499394,11.3429136 C8.38663168,10.1995581 7.89994409,7.99145623 8.96286929,6.41099171 C10.0257334,4.8304654 12.2356936,4.47604435 13.8989402,5.61933806 C14.8197467,6.25235199 15.3791746,7.21172992 15.5154251,8.21028883 L16.1604909,10.7439513 L17.1971318,11.4565014 C17.4182868,11.2745014 17.7056415,11.1742623 18.0123122,11.1982406 C18.6501651,10.2341041 20.2137758,7.90197032 20.7702085,7.35473433 C21.6034822,6.53508543 22.1089356,6.30698289 22.7096237,6.41068272 C23.6152709,6.56691226 28.4341627,7.39855029 28.8947493,7.47938424 C29.5538131,7.59501141 30.697425,8.11635334 30.2821329,9.41939919 C29.8668409,10.7223832 27.3860912,14.4489028 27.3860912,14.4489028 L25.5151374,14.3879065 L26.0040867,14.7907785 L27.6030895,14.9352661 L27.1192137,18.037918 C27.1192137,18.037918 30.0284588,21.718335 31.1242088,23.4284552 C31.2855823,23.6804124 31.4120526,23.8866997 31.4894996,24.0283445 Z M26.0513984,6.20637304 C26.0513984,6.20637304 26.5221321,6.28974078 27.0470236,6.38312007 C27.5119502,6.46580801 27.8935617,6.58347457 28.0162422,6.24431803 C28.3039637,5.4488328 28.8651031,3.89753772 29.0243371,3.45733874 C29.5215384,2.0829143 28.7510414,0.600216842 27.5445917,0.154146893 C26.3371028,-0.292355654 24.7833945,0.240357419 24.2797749,1.63288917 C24.1053205,2.11535912 24.0468837,2.61099239 24.1238417,3.08907457 C24.2399206,3.80965861 26.0513984,6.20637304 26.0513984,6.20637304 Z M13.6282118,9.58601107 C13.5237469,9.74798798 13.3091936,9.79365793 13.1490427,9.68804231 C12.9888918,9.58242669 12.9437195,9.36550988 13.0481843,9.20359477 C13.1526492,9.04161786 13.3672025,8.99594791 13.5273534,9.10156353 C13.6875043,9.20717915 13.7326766,9.42409596 13.6282118,9.58601107 Z M14.3273744,8.50223042 C14.2229095,8.66414553 14.0083562,8.70981548 13.8481442,8.60419986 C13.6879933,8.49858424 13.6427598,8.28172924 13.7472247,8.11975233 C13.8516895,7.95783722 14.0662428,7.91210547 14.2263937,8.01772109 C14.3866058,8.12333671 14.4317781,8.34025351 14.3273744,8.50223042 Z M15.3410318,9.85564299 L15.6332155,11.0035099 L14.4650308,11.1514583 C14.6585567,10.976627 14.8343559,10.7768905 14.9860102,10.55126 C15.1347305,10.3302026 15.2519708,10.0965999 15.3410318,9.85564299 Z M12.9291714,10.6698535 C12.8247066,10.8318304 12.6101533,10.8774386 12.4500024,10.771823 C12.2897903,10.6662691 12.2445569,10.4493523 12.3490217,10.2873754 C12.4534866,10.1254603 12.6680399,10.0797904 12.8282519,10.185406 C12.9884028,10.2910216 13.0336363,10.5078766 12.9291714,10.6698535 Z M27.4722181,9.26737202 L26.8421282,9.53799273 L25.5241841,11.9125211 L21.964433,12.2458067 L21.964433,9.21261752 L21.6154018,9.59008985 L21.3649674,11.6141523 L19.557585,12.0545367 C19.6360712,12.0912457 19.7097283,12.1359269 19.7772118,12.1885802 L21.2278611,12.9002651 L25.7832985,12.3695296 L27.4722181,9.26737202 Z M12.8335699,7.51732924 C12.9380347,7.35541413 13.152588,7.30974418 13.312739,7.4153598 C13.472951,7.52097542 13.5180622,7.73783042 13.4135973,7.89980733 C13.3091325,8.06172244 13.0946403,8.10745419 12.9344894,8.00183857 C12.7742774,7.89622295 12.7291051,7.67930615 12.8335699,7.51732924 Z M11.0061992,6.31254486 C11.110664,6.15056795 11.3251562,6.104898 11.4854294,6.21051362 C11.6455803,6.31612924 11.6907526,6.53304604 11.5862878,6.69496115 C11.4818229,6.85693806 11.2672696,6.90260801 11.1071187,6.79699239 C10.9469067,6.69137677 10.9017344,6.47445997 11.0061992,6.31254486 Z M10.1880848,8.86264604 C10.08362,9.02456115 9.86906667,9.0702311 9.70891577,8.96461548 C9.54870374,8.85899986 9.50359253,8.64208306 9.60805738,8.48016795 C9.71252222,8.31825284 9.9270144,8.27252109 10.0872264,8.37813671 C10.2473773,8.48375233 10.2925497,8.70066913 10.1880848,8.86264604 Z M11.9199151,6.91496795 C12.02438,6.75299104 12.2388721,6.70732109 12.3990842,6.81293671 C12.5592351,6.91855233 12.6044074,7.13546913 12.4999426,7.29738424 C12.3954777,7.45936115 12.1809244,7.5049693 12.0207735,7.39935368 C11.8605615,7.29379986 11.8154503,7.07688306 11.9199151,6.91496795 Z M11.321672,8.48319613 C11.1615211,8.37764231 11.1162877,8.1607255 11.2207525,7.99874859 C11.3252174,7.83683348 11.5397707,7.79110173 11.6999216,7.89677915 C11.8601336,8.00239477 11.9053671,8.21924978 11.8009022,8.38122669 C11.6964374,8.5431418 11.4818841,8.58881175 11.321672,8.48319613 Z M12.0154555,10.0674304 C11.9109907,10.2293455 11.6964985,10.2750773 11.5362865,10.1694617 C11.3760744,10.063846 11.3309021,9.84692924 11.4353669,9.68495233 C11.5398318,9.52303722 11.7543851,9.47736727 11.914536,9.58298289 C12.074748,9.68859851 12.1199204,9.90551531 12.0154555,10.0674304 Z M10.4080172,7.88083484 C10.2478052,7.77521922 10.2026329,7.55830241 10.3070977,7.3963255 C10.4115626,7.23441039 10.6261159,7.18874044 10.7862668,7.29435606 C10.9464788,7.39997168 10.99159,7.61688849 10.8871252,7.7788036 C10.7826603,7.94071871 10.5682293,7.98645046 10.4080172,7.88083484 Z M11.1017396,9.46500733 C10.9972748,9.62698424 10.7827826,9.67265419 10.6225706,9.56703857 C10.4624197,9.46142295 10.4172473,9.24450615 10.5217122,9.08259104 C10.626177,8.92061413 10.8407303,8.87494418 11.0008812,8.9805598 C11.1610932,9.08617542 11.2062045,9.30309222 11.1017396,9.46500733 Z M12.2353879,9.08561922 C12.0751759,8.9800036 12.0300647,8.76308679 12.1345295,8.60117168 C12.2389333,8.43919477 12.4534254,8.39352482 12.6136986,8.49914044 C12.7738495,8.60475606 12.8190218,8.82167287 12.714557,8.98358798 C12.6100921,9.14556489 12.3955388,9.19123484 12.2353879,9.08561922 Z M15.6332155,11.0035099 L14.4650308,11.1514583 C14.6585567,10.976627 14.8343559,10.7768905 14.9860102,10.55126 C15.1347305,10.3302026 15.2519708,10.0965999 15.3410318,9.85564299 L15.6332155,11.0035099 Z M21.2278611,12.9002651 L19.7772118,12.1885802 C19.7097283,12.1359269 19.6360712,12.0912457 19.557585,12.0545367 L21.3649674,11.6141523 L21.6154018,9.59008985 L21.964433,9.21261752 L21.964433,12.2458067 L25.5241841,11.9125211 L26.8421282,9.53799273 L27.4722181,9.26737202 L25.7832985,12.3695296 L21.2278611,12.9002651 Z" id="Fill-1"></path>
                <path d="M38.4004044,13.5750442 C38.3812149,13.5766351 38.3625991,13.5697624 38.3481911,13.5569715 C38.333783,13.5441806 38.3252402,13.5265533 38.3240926,13.5072715 C38.3229451,13.4880533 38.3293203,13.4695351 38.3421346,13.4550897 C38.3548851,13.4407079 38.3725445,13.4321806 38.391734,13.4309715 C38.3932003,13.4309079 38.3946666,13.4308442 38.3960692,13.4308442 C38.4339382,13.4308442 38.4658782,13.4604351 38.468237,13.4986806 C38.4705959,13.5383897 38.4401859,13.572626 38.4004044,13.5750442 Z M38.3836375,13.296317 C38.328364,13.2996897 38.2776808,13.324317 38.2409594,13.3656806 C38.2042379,13.4070442 38.1858772,13.4602442 38.1891923,13.5153533 C38.1924437,13.570526 38.2170522,13.621117 38.2584913,13.6578351 C38.2967428,13.6917533 38.3450672,13.7100806 38.3958779,13.7100806 C38.4000219,13.7100806 38.4042295,13.7099533 38.4084372,13.7096988 C38.5226179,13.702826 38.6099588,13.6045715 38.6031373,13.4906624 L38.6031373,13.4905988 C38.5961883,13.376626 38.4977544,13.2896988 38.3836375,13.296317 Z M37.9231531,13.4590351 C37.9246195,13.4589079 37.9260858,13.4589079 37.9275521,13.4589079 C37.9654848,13.4589079 37.9974248,13.4884988 37.9997199,13.5266806 C38.0021425,13.5663897 37.9716688,13.6006897 37.9318872,13.6030442 C37.8921057,13.6055897 37.8578068,13.5750442 37.8553842,13.5353988 C37.8530891,13.4956897 37.8834991,13.4614533 37.9231531,13.4590351 Z M37.9274883,13.7380806 C37.9316322,13.7380806 37.9357761,13.7379533 37.9399838,13.7376988 C38.0541008,13.730826 38.1415055,13.6326351 38.1346202,13.5186624 C38.1277987,13.4047533 38.0293011,13.3175079 37.9150566,13.3243806 C37.8010671,13.3312533 37.7137899,13.4294442 37.7205477,13.5434806 C37.727178,13.6531897 37.8187903,13.7380806 37.9274883,13.7380806 Z M37.5131608,13.606926 C37.5003466,13.6213079 37.4826871,13.6298988 37.4633701,13.6310442 C37.4235885,13.6335897 37.3892897,13.6030442 37.3868671,13.563526 C37.384572,13.5237533 37.4149819,13.4893897 37.454636,13.4870351 C37.4561023,13.4869715 37.4575686,13.4869079 37.4589712,13.4869079 C37.4969677,13.4869079 37.5289714,13.5164988 37.5312665,13.5547442 C37.5324141,13.5739624 37.5259751,13.5924806 37.5131608,13.606926 Z M37.4465394,13.3523806 C37.3326137,13.3591897 37.2453365,13.4574442 37.2519668,13.5715442 C37.2587246,13.6812533 37.3502732,13.7660806 37.4589712,13.7660806 C37.4630513,13.7660806 37.467259,13.7659533 37.4714029,13.7656988 C37.5267401,13.7624533 37.5774233,13.737826 37.6142723,13.6964624 C37.6509937,13.6550351 37.6694182,13.6018988 37.6661668,13.546726 C37.6593453,13.4327533 37.5608477,13.3456351 37.4465394,13.3523806 Z M37.6661668,13.5468024 L37.6661668,13.5466624 L37.6661668,13.5468024 Z M38.0417328,14.2255988 C38.0440916,14.2653079 38.0136817,14.2995442 37.9739001,14.3018988 C37.9545194,14.3031079 37.9360311,14.296617 37.9215593,14.283826 C37.9071513,14.2710988 37.8985447,14.2534715 37.8973971,14.2342533 C37.8950383,14.1945442 37.9254482,14.1603079 37.965166,14.1578897 C37.9666961,14.157826 37.9681624,14.1577624 37.9696287,14.1577624 C37.9872882,14.1577624 38.0041826,14.164126 38.0175068,14.176026 C38.0319787,14.1887533 38.0405853,14.2063806 38.0417328,14.2255351 L38.0417328,14.2255988 Z M37.9570695,14.0232351 C37.8430162,14.0301079 37.7557391,14.1283624 37.7625606,14.2422715 C37.765812,14.2974442 37.7904204,14.3480351 37.8319233,14.3847533 C37.8701748,14.4186715 37.9184992,14.4369351 37.96931,14.4369351 C37.9735176,14.4369351 37.9777253,14.4368079 37.981933,14.4365533 C38.0961137,14.4297442 38.1833909,14.3315533 38.1766331,14.2175806 C38.1733817,14.1624079 38.1486457,14.1117533 38.1071429,14.0750351 C38.0657037,14.038317 38.0124066,14.019926 37.9570695,14.0232351 Z M37.831222,12.7789533 C37.8441,12.7645079 37.8617595,12.7559806 37.8810765,12.7548351 C37.8825428,12.7547079 37.8840091,12.7546442 37.8854754,12.7546442 C37.9031986,12.7546442 37.9200293,12.7610079 37.9333535,12.7728442 C37.9477616,12.7856351 37.9563682,12.8031988 37.957452,12.822417 L37.957452,12.8224806 C37.9598108,12.862126 37.9294009,12.8963624 37.8896193,12.8987806 C37.8703661,12.8997988 37.8518141,12.8934988 37.837406,12.8807715 C37.8229342,12.867917 37.8143276,12.8502897 37.8131801,12.8310079 C37.8120325,12.8118533 37.8184715,12.7933351 37.831222,12.7789533 Z M37.8850291,13.033817 C37.8892368,13.033817 37.8934445,13.0336897 37.8977159,13.0334351 C38.0118329,13.0265624 38.0991738,12.9283715 38.092416,12.8144624 C38.0891009,12.7592897 38.0644924,12.7086351 38.0230533,12.6719806 C37.9816142,12.6352624 37.9283171,12.6169351 37.8729799,12.620117 C37.8176428,12.623426 37.7669595,12.6480533 37.7301743,12.6893533 C37.6933891,12.7307806 37.6749647,12.7839806 37.6782798,12.8390897 C37.6815949,12.8942624 37.7062671,12.944917 37.7477063,12.9815715 C37.7859578,13.0155533 37.8342822,13.033817 37.8850291,13.033817 Z M38.6813617,14.1982988 C38.6686749,14.2125533 38.6549044,14.2254715 38.6415163,14.2388988 C38.6445127,14.222926 38.6461703,14.2065079 38.6451502,14.1895806 L38.6451502,14.1894533 C38.638265,14.0755442 38.5396398,13.9886806 38.4255866,13.9952351 C38.3115334,14.0021079 38.2242562,14.1003624 38.2310777,14.2142079 C38.2343929,14.2693806 38.2589376,14.3200351 38.3003767,14.3566897 C38.3342293,14.386726 38.3761784,14.4036533 38.4204864,14.4073442 C38.2892838,14.4809715 38.1425893,14.525517 37.9879257,14.5348079 C37.8331346,14.5441624 37.6821049,14.5173715 37.5429332,14.4597806 C37.6421321,14.4392897 37.7142999,14.3493715 37.708116,14.2455806 C37.7048008,14.1904079 37.6801286,14.1397533 37.638562,14.1030351 C37.5971228,14.0663806 37.5438258,14.0483079 37.4885523,14.0512988 C37.4332789,14.0546079 37.3825957,14.0792351 37.3458742,14.1205988 C37.3091528,14.1619624 37.2907283,14.2151624 37.2941072,14.2702715 C37.2951272,14.2871351 37.2986974,14.3032988 37.3035426,14.319017 C37.2886882,14.3072442 37.2733876,14.2960442 37.2590433,14.283317 C37.1090337,14.1504442 37.0044796,13.980026 36.9542426,13.7907715 C36.9660368,13.7928715 36.9780861,13.7940806 36.990199,13.7940806 C36.9944067,13.7940806 36.9986781,13.7939533 37.0029495,13.7936988 C37.0582229,13.7903897 37.1089062,13.7657624 37.1456914,13.7244624 C37.1825403,13.6830351 37.2009648,13.6298988 37.1975859,13.574726 C37.1942708,13.5195533 37.1695986,13.4688988 37.1281594,13.4322442 C37.0867203,13.3954624 37.0333595,13.3770715 36.9781498,13.3804442 C36.9615104,13.3813988 36.9455723,13.3848988 36.9300167,13.3896079 C36.9571752,13.1955806 37.040691,13.0137079 37.17387,12.8637806 C37.1858555,12.8502897 37.1989247,12.8381351 37.2115477,12.8253442 C37.2096351,12.839026 37.2089339,12.853026 37.2098264,12.8671533 C37.2131415,12.922326 37.23775,12.972917 37.2791891,13.0095715 C37.3174406,13.0434897 37.365765,13.061817 37.416512,13.061817 C37.4207197,13.061817 37.4249273,13.0616897 37.429135,13.0614351 C37.5433157,13.054626 37.6307204,12.9563715 37.6238351,12.8423988 C37.6205838,12.787226 37.5959116,12.7365715 37.5544087,12.699917 C37.5230424,12.6721715 37.4848547,12.6548624 37.4442443,12.6495806 C37.5730244,12.5790715 37.7164038,12.5363079 37.8674335,12.5272715 C37.8880255,12.5260624 37.9085538,12.5254897 37.9290821,12.5254897 C38.0588822,12.5254897 38.1853034,12.5507533 38.3032456,12.5981624 C38.2630177,12.6081533 38.2267426,12.6297897 38.1986915,12.6613533 C38.1619063,12.7027806 38.1434818,12.7559806 38.1468607,12.8110897 C38.1501758,12.8662624 38.1747843,12.9168533 38.2161596,12.9535715 C38.2544111,12.9874897 38.3027993,13.0057533 38.3534825,13.0057533 C38.3576902,13.0057533 38.3619616,13.005626 38.3661693,13.0054351 C38.4215065,13.002126 38.4721897,12.9774988 38.5089749,12.9361351 C38.5457601,12.8947079 38.5641846,12.8415715 38.5608694,12.7863351 C38.5600406,12.7720806 38.557618,12.7581442 38.5539842,12.7446533 C38.5680735,12.755917 38.5825453,12.7667351 38.5961246,12.7787624 C38.7463255,12.9116988 38.8508796,13.0823079 38.9011165,13.2716897 C38.8851146,13.268826 38.868794,13.2672351 38.8521546,13.268317 C38.7380376,13.2751897 38.6508242,13.3734442 38.6576457,13.487417 C38.664276,13.597126 38.7558246,13.682017 38.8644588,13.682017 C38.8686027,13.682017 38.8728104,13.6818897 38.8769543,13.6816351 C38.8935937,13.680617 38.9096594,13.677117 38.925215,13.6723442 C38.8980564,13.8664351 38.8146044,14.0483715 38.6813617,14.1982988 Z M38.4422898,14.2738988 C38.4231003,14.2752351 38.4045483,14.2686806 38.3900765,14.255826 C38.3756684,14.2430988 38.3671256,14.2254715 38.3660418,14.2061897 C38.3636192,14.1665442 38.3939654,14.1322442 38.4336832,14.1298897 C38.4351495,14.1297624 38.4366158,14.1296988 38.4380184,14.1296988 C38.4759511,14.1296988 38.5078911,14.1592897 38.5102499,14.1975351 C38.5126088,14.2372442 38.4821351,14.2714806 38.4422898,14.2738988 Z M37.4290075,14.2621897 C37.42786,14.2429715 37.4342352,14.2244533 37.4469857,14.2100079 C37.4598,14.195626 37.4774594,14.1870988 37.4966489,14.1859533 C37.4981152,14.185826 37.4995815,14.1857624 37.5010478,14.1857624 C37.5187073,14.1857624 37.5356017,14.1921897 37.5489897,14.204026 C37.5634615,14.216817 37.5720681,14.2344442 37.5732157,14.2535988 L37.5732157,14.2536624 C37.5755745,14.2933079 37.5451008,14.3275442 37.5052555,14.3298988 C37.486066,14.3311715 37.467514,14.3246806 37.4531059,14.3118897 C37.4386979,14.2991624 37.430155,14.2815351 37.4290075,14.2621897 Z M36.9245977,13.6148806 C36.9238964,13.606926 36.9224939,13.5991624 36.9220476,13.5911442 C36.9215376,13.583126 36.9220476,13.5752351 36.9217288,13.5672806 C36.9246615,13.5570351 36.9292516,13.5473624 36.9365194,13.539217 C36.9492699,13.5247715 36.9669294,13.5162442 36.9861826,13.5150988 C36.9877127,13.5149715 36.989179,13.5149079 36.9906453,13.5149079 C37.0083047,13.5149079 37.0251354,13.5212715 37.0385234,13.5331079 C37.0529315,13.5458988 37.0615381,13.5635897 37.0626856,13.5827442 L37.0626856,13.5828079 C37.0638969,13.602026 37.0574579,13.6204806 37.0446437,13.6348624 C37.0318294,13.6493079 37.01417,13.6578351 36.994853,13.6590442 C36.9755997,13.660317 36.9570477,13.6537624 36.9426397,13.6410351 C36.9344156,13.6337806 36.9287416,13.6246806 36.9245977,13.6148806 Z M37.4169583,12.7827079 C37.4346177,12.7827079 37.4514484,12.7890715 37.4647727,12.8008442 C37.4792445,12.8136351 37.4878511,12.8312624 37.4889986,12.850417 C37.4913574,12.890126 37.4608838,12.924426 37.4211022,12.9267806 C37.4018489,12.9277988 37.383297,12.9214988 37.3688251,12.9087079 C37.3544171,12.895917 37.3458742,12.8782897 37.3447267,12.8590715 C37.3435154,12.8397897 37.3499544,12.8213351 37.3627049,12.8069533 C37.3755192,12.7925079 37.3931786,12.7839806 37.4124956,12.7828351 C37.4139619,12.7827079 37.4154282,12.7827079 37.4169583,12.7827079 Z M38.4259691,12.794417 C38.4271167,12.8136351 38.4206777,12.8321533 38.4078634,12.8465988 C38.3950492,12.8609806 38.3773897,12.8695715 38.3581365,12.870717 C38.3388195,12.871926 38.3203312,12.8654988 38.3059232,12.8527079 C38.2915151,12.839917 38.2829085,12.8222897 38.281761,12.8030079 C38.2806134,12.7837897 38.2869887,12.7652715 38.2998029,12.7508897 C38.3126172,12.7364442 38.3302129,12.727917 38.3494661,12.7267715 C38.3509324,12.7267079 38.3523987,12.7266442 38.353865,12.7266442 C38.3715245,12.7266442 38.3884189,12.7330079 38.4018069,12.7448442 C38.416215,12.7575715 38.4248216,12.7751988 38.4259691,12.794417 Z M38.9306339,13.447326 C38.9312715,13.455217 38.9327378,13.462917 38.9332478,13.4708715 L38.9332478,13.4709351 C38.9336941,13.478826 38.933184,13.4866533 38.933439,13.4946079 C38.9305702,13.5048533 38.92598,13.5145897 38.9186485,13.5227988 C38.9058342,13.5372442 38.8881748,13.5458351 38.8689215,13.5469806 C38.829395,13.5493988 38.7949686,13.5189806 38.7924823,13.4793351 C38.7901234,13.439626 38.8205334,13.405326 38.8601874,13.4029715 C38.8617175,13.4029079 38.8631838,13.4028442 38.8646501,13.4028442 C38.8823095,13.4028442 38.8991402,13.4092079 38.9125282,13.4210442 C38.920816,13.4283624 38.92649,13.4374624 38.9306339,13.447326 Z M39.3378849,13.4466897 C39.3153165,13.070726 39.1474562,12.7259442 38.8651601,12.4760442 C38.5828003,12.226017 38.219921,12.1007806 37.8431438,12.1233715 C37.4663665,12.1458351 37.1209554,12.3134533 36.8705993,12.5952988 C36.6201795,12.8770806 36.4947146,13.2393624 36.5173467,13.615326 C36.5398514,13.9913533 36.7077117,14.3361351 36.9900715,14.5860351 C37.2506918,14.8168442 37.5801647,14.941317 37.925767,14.941317 C37.9543919,14.941317 37.9832718,14.9404897 38.0121516,14.9387079 C38.3888652,14.9161806 38.7342762,14.748626 38.9846323,14.4667806 C39.2350521,14.1849988 39.3605171,13.822717 39.3378849,13.4466897 Z" id="Fill-1"></path>
            </g>
        </g>
    </g>
</svg>