<?xml version="1.0" encoding="UTF-8"?>
<svg width="60px" height="60px" viewBox="0 0 60 60" version="1.1" xmlns="http://www.w3.org/2000/svg" xmlns:xlink="http://www.w3.org/1999/xlink">
    <!-- Generator: Sketch 49.2 (51160) - http://www.bohemiancoding.com/sketch -->
    <title>icone blanc</title>
    <desc>Created with Sketch.</desc>
    <defs></defs>
    <g id="icone-blanc" stroke="none" stroke-width="1" fill="none" fill-rule="evenodd">
        <g id="spelunking" transform="translate(-16.000000, -29.000000)" fill="#FFFFFF">
            <g id="surf" transform="translate(25.000000, 41.000000)">
                <path d="M18.1947608,2.7893619 C18.5205244,1.57371958 17.740109,0.362475331 16.6608073,0.0734846349 C15.5806503,-0.215567146 14.2749084,0.360459543 13.9448689,1.59302227 C13.8303966,2.0196974 13.8175688,2.44912132 13.9207405,2.85282868 C14.0763227,3.46110798 15.5267127,5.0373931 15.5267127,5.0373931 L16.654088,5.23823889 C16.654088,5.23823889 17.4978479,5.43432008 17.5921013,5.03843154 C17.7608777,4.32942393 18.0905507,3.17883658 18.1947608,2.7893619 Z M12.7827977,8.70130157 L10.1036322,8.44767879 C10.1036322,8.44767879 7.55702002,9.29785265 6.13558406,9.77302885 C4.71420919,10.248144 4.2,9.48971901 4.2,9.48971901 L9.8472606,6.68038248 L11.3685086,5.95836388 C12.8465088,5.34874072 13.1718448,5.26847571 14.3359318,5.43511418 C15.0738934,5.54072925 18.5085518,6.0889625 18.5085518,6.0889625 C19.560671,6.54001034 22.7193497,8.7243915 23.4917019,9.26217931 C23.866272,9.52294897 24.047082,9.68867118 24.3071187,10.2757542 C24.4845691,10.6760408 26.3771497,14.9584907 27.2077154,16.8401983 C26.1030025,17.0683488 25.511888,16.4102857 25.0785546,15.6886947 C24.6452824,14.9670426 22.220717,11.0646603 22.220717,11.0646603 L20.9708674,10.3105723 L21.1348182,11.0899493 L21.3963208,12.3335683 C22.1691617,13.6415093 22.8589888,14.6048116 22.9445682,15.5993892 C23.0436472,16.7513204 22.5649281,17.4780425 22.3955408,17.7642233 C22.2405695,18.0260925 19.6108214,21.6515788 19.6108214,21.6515788 L21.2773283,26.5490273 C27.2698384,29.4743633 32.9982192,32.900531 36.2566488,34.9295743 C36.4195611,35.0310356 36.5339724,35.1022601 36.5954234,35.1395827 L37.4537215,35.660328 L36.4740485,35.879438 C34.9227469,36.2263979 33.3065125,36.4 31.6400667,36.4 C30.4087868,36.4 29.1500188,36.3051969 27.8703599,36.1152852 C25.469251,35.7591016 22.9888544,35.0692745 20.4981346,34.0651677 C16.3341274,32.3863829 13.5954657,30.427098 13.3928484,30.2801898 C7.88168405,26.6614839 4.92238511,23.8478714 4.83448454,22.1434311 C4.80595809,21.5893337 5.08358707,21.3337562 5.13954046,21.2881261 L5.26189268,21.1883752 L5.41949065,21.1979654 C7.54633023,21.3278921 10.0779767,21.9683629 12.7832253,22.919204 C13.0317169,21.403698 13.3409877,19.5181421 13.3718964,19.3325674 C13.4463584,18.8861009 13.6407903,18.3998073 13.9285593,18.0536416 C14.1143173,17.8301945 16.6383282,14.8912367 16.6383282,14.8912367 L16.6357015,13.612433 L12.7827977,8.70130157 Z M17.868081,18.3203975 L16.0547881,19.6191758 L14.5722066,23.5819096 C15.815398,24.0652711 17.0370877,24.5829621 18.3094164,25.1564233 C18.3094164,25.1564233 17.1286533,22.4793957 16.9223099,22.0103891 C16.7985528,21.7290339 16.6749178,21.2982661 16.8125411,20.9387229 C16.9085659,20.6877878 17.868081,18.3203975 17.868081,18.3203975 Z M12.467052,24.8475801 C12.467052,24.8475801 12.5432854,24.3823607 12.6515882,23.7220374 C9.89961,22.7468236 7.55677568,22.1780049 5.64220468,22.0240109 C5.63884503,22.0709849 5.64073865,22.1316418 5.65374965,22.2081806 C5.70811484,22.5279579 5.98580491,23.2533362 7.23461611,24.5193121 C8.63033549,25.9341509 10.8541772,27.6468988 13.844446,29.6098487 L13.8607556,29.6212104 C13.8883658,29.6413072 16.6711916,31.6537356 20.8202941,33.3236021 C23.2497463,34.3014425 25.665882,34.9723334 28.0015694,35.3177662 C30.5409125,35.6932525 32.9911944,35.6826238 35.3004323,35.2873461 C31.0503571,32.6581477 26.935523,30.3223381 23.0619726,28.3403299 C22.582215,28.0948924 22.1094822,27.8565407 21.6434687,27.6251527 L22.5618128,30.3239263 C22.5618128,30.3239263 20.8152241,30.6240344 20.160765,28.8265013 L18.9194672,26.3162344 C17.2778216,25.5552439 15.7348276,24.8941265 14.2914623,24.3323936 L13.4423268,26.6019876 C13.4423268,26.6019876 12.2406729,26.2357861 12.467052,24.8475801 Z" id="Page-1"></path>
            </g>
        </g>
    </g>
</svg>