<?xml version="1.0" encoding="UTF-8"?>
<svg width="60px" height="60px" viewBox="0 0 60 60" version="1.1" xmlns="http://www.w3.org/2000/svg" xmlns:xlink="http://www.w3.org/1999/xlink">
    <!-- Generator: Sketch 49.2 (51160) - http://www.bohemiancoding.com/sketch -->
    <title>icone blanc</title>
    <desc>Created with Sketch.</desc>
    <defs></defs>
    <g id="icone-blanc" stroke="none" stroke-width="1" fill="none" fill-rule="evenodd">
        <g id="spelunking" transform="translate(-16.000000, -29.000000)" fill="#FFFFFF">
            <g id="kitesurf" transform="translate(25.000000, 41.000000)">
                <path d="M21.9021534,15.2771062 L19.2925204,13.6024175 C19.3543145,13.7898301 19.3719776,14.0292094 19.2704012,14.3157774 C19.1568525,14.6362204 18.3234643,16.5238219 17.8458619,17.600143 L18.6297504,17.6713823 L21.9021534,15.2771062 Z M15.9101121,25.8724451 L18.6642714,27.8533503 L20.100944,29.8209418 C20.632341,29.4781125 21.1326531,29.1737212 21.5604336,28.9430925 C21.7831823,28.8228928 22.136928,28.6673688 22.5597156,28.4954172 L19.4179876,25.8261153 L15.9101121,25.8724451 Z M35.8591912,10.7237996 C34.6994914,10.929626 33.1644637,11.1914992 32.2197817,11.3157788 C30.1060584,11.5937573 29.2208619,11.4718397 28.7803575,10.0175797 L23.0507935,15.2372186 L24.6396159,16.2567951 C24.6942696,16.2917437 24.7349646,16.3403282 24.7601976,16.3951401 C24.805295,16.4930607 24.8011074,16.6110056 24.738669,16.708443 C24.6412265,16.8605313 24.4389864,16.9048747 24.286944,16.807491 L22.4828891,15.6497305 C22.4168537,15.857758 22.2736159,16.1096458 21.9969115,16.4046423 C21.6898201,16.7320105 20.4895327,18.0297802 19.7205693,18.8210901 C19.1349481,19.4235915 19.0522696,19.4235915 18.254154,19.4235915 C17.8167097,19.4235915 16.3965192,19.3810734 15.396915,19.3492922 C14.9117428,21.267655 14.4160478,22.3695835 14.4160478,22.3695835 L15.2096537,23.4418245 C15.2096537,23.4418245 18.6487558,23.3121227 19.1860584,23.29183 C19.7859068,23.2692288 20.0293251,23.3122301 20.4694,23.7871771 C20.7097044,24.046527 22.8254678,26.2501694 24.3317729,27.8180259 C25.6999404,27.3168272 27.0154944,26.8703867 27.0154944,26.8703867 L29.5589847,27.7629993 C29.5589847,27.7629993 28.1137221,30.7385714 25.3774944,32.699345 C24.8291322,33.0923694 23.0932602,34.2381045 22.3458254,34.7299085 C25.1827705,35.2685253 28.549341,35.7137847 33.9454531,35.7137847 L33.9454531,36.357999 C26.8252802,36.357999 23.2060035,35.5902567 19.705859,34.8478534 C16.2381953,34.1123217 12.6525268,33.3516657 5.6,33.3516657 L5.6,32.7074514 C9.75029794,32.7074514 12.710885,32.9683582 15.1519398,33.3329834 C15.7501776,32.8810671 17.0519876,31.9082498 18.4233227,30.9517527 L16.7796319,29.3120662 C16.7796319,29.3120662 12.5584667,27.3740012 11.5291735,26.9668578 C10.9887569,26.2365335 10.6671162,25.0189685 10.4780832,23.7235072 C10.1102714,21.2031798 10.5864779,18.6537018 11.6262401,17.5468342 C11.8670814,17.2904369 12.2594283,17.0146059 12.7763835,17.0722094 C12.8812885,17.0838589 13.4121487,17.1488709 14.0273516,17.224566 L16.6827799,16.4544615 L18.8344065,13.308441 L17.7361788,12.6036706 C17.5838142,12.5061795 17.5397369,12.3040572 17.6371794,12.1520227 C17.7345681,11.9999344 17.9368083,11.9556447 18.0888507,12.0530284 L19.0907634,12.696008 L19.8814165,7.13391542 C19.6820755,7.16231453 19.5096855,7.18550624 19.3786885,7.20096739 C18.4519917,7.3105375 18.2145864,7.08151932 18.2705286,6.00385617 C18.4126389,3.26363698 19.8090997,0.975924648 21.7146236,0.975924648 C21.7188649,0.975924648 21.7231599,0.975548856 21.7273475,0.975548856 C23.340705,0.978823612 24.7534867,2.18490014 25.7355351,3.76193674 C25.7955038,3.85824678 25.6999404,3.978178 25.5936395,3.93845146 C24.1522425,3.39924409 23.4370737,5.41144744 23.3648643,6.16619817 C23.3258336,6.57339529 23.2331693,6.6177924 22.7874035,6.68736754 C22.1681204,6.78405337 21.2160832,6.93560478 20.4352549,7.05274441 L19.5876932,13.0148404 L20.6358844,13.6875074 L25.2173451,4.50385687 C25.2834879,4.37125609 25.4446572,4.31735683 25.5773723,4.38349616 C25.7100336,4.44968918 25.7639357,4.61085013 25.6977392,4.74355827 L21.0903475,13.9791218 L22.5830696,14.9370684 L28.6140342,9.44283314 C27.8340649,6.73326781 26.3598112,1.88437417 22.9389628,0.750718067 C22.8133882,0.70911256 22.8363664,0.52508201 22.9683298,0.515257742 L27.1425186,0.204800136 C28.2326395,0.123521766 29.2095339,0.0503497586 29.7291198,0.0108379485 C34.1360968,-0.324690331 36.1240307,7.22748754 36.5862785,9.18536216 C36.7916861,10.0549978 36.8526212,10.5474459 35.8591912,10.7237996 Z M11.4683457,15.1100937 C11.203023,14.6574794 10.9708254,13.9466426 11.1213646,13.2748882 C11.3050289,12.4552866 12.2886879,11.8740979 13.621046,11.9958544 C14.9534578,12.1175572 15.5534673,13.1953814 15.6605735,13.895535 L15.0699593,14.1171984 C15.0580407,14.2505507 15.0315729,14.3849768 14.9880324,14.5186513 C14.8841475,14.8371615 14.5182684,15.959705 14.3305239,16.5355252 C14.2505835,16.7809708 13.9719463,16.7066714 13.6339847,16.6595364 C13.2525363,16.6063887 12.910387,16.5587169 12.910387,16.5587169 C12.910387,16.5587169 12.2639381,15.7725607 11.8262254,15.1144958 L11.4683457,15.1100937 Z" id="Fill-1"></path>
            </g>
        </g>
    </g>
</svg>