<?xml version="1.0" encoding="UTF-8"?>
<svg width="60px" height="60px" viewBox="0 0 60 60" version="1.1" xmlns="http://www.w3.org/2000/svg" xmlns:xlink="http://www.w3.org/1999/xlink">
    <!-- Generator: Sketch 49.2 (51160) - http://www.bohemiancoding.com/sketch -->
    <title>icone blanc</title>
    <desc>Created with Sketch.</desc>
    <defs>
        <polygon id="path-1" points="0.058673988 0.0395758389 4.6862446 0.0395758389 4.6862446 5.83545398 0.058673988 5.83545398"></polygon>
        <polygon id="path-3" points="0.153939647 0.0498458265 8.23983624 0.0498458265 8.23983624 19.4902657 0.153939647 19.4902657"></polygon>
    </defs>
    <g id="icone-blanc" stroke="none" stroke-width="1" fill="none" fill-rule="evenodd">
        <g id="spelunking" transform="translate(-16.000000, -29.000000)">
            <g id="nordic-walk" transform="translate(25.000000, 41.000000)">
                <g id="Page-1" transform="translate(11.200000, 0.000000)">
                    <g id="Group-3" transform="translate(5.130201, 0.204719)">
                        <mask id="mask-2" fill="white">
                            <use xlink:href="#path-1"></use>
                        </mask>
                        <g id="Clip-2"></g>
                        <path d="M4.68577933,2.39204188 C4.69799409,2.94512644 4.46689074,3.44251168 4.32373369,3.95944054 C4.19108134,4.43752644 4.02642631,4.90681772 3.90012564,5.3863694 C3.81266792,5.71812242 3.62431624,5.86592107 3.28670013,5.83025396 C2.52034577,5.74939221 1.77866523,5.65558282 1.3384451,4.86968483 C1.09097396,4.42775463 0.726485369,4.05324993 0.446034362,3.62793181 C-0.109981745,2.78486872 -0.0594126174,1.69970899 0.546195436,0.92822443 C1.1510706,0.157961342 2.22768,-0.157668188 3.14916188,0.165045906 C4.08334711,0.492157315 4.69090953,1.37284188 4.68577933,2.39204188" id="Fill-1" fill="#FFFFFF" mask="url(#mask-2)"></path>
                    </g>
                    <g id="Group-6" transform="translate(10.504698, 7.777874)">
                        <mask id="mask-4" fill="white">
                            <use xlink:href="#path-3"></use>
                        </mask>
                        <g id="Clip-5"></g>
                        <path d="M3.31733477,0.05096 C3.52180993,0.0421653691 3.7106502,0.0839398658 3.76097503,0.229784161 C3.89949047,0.631894228 4.16235221,0.506326443 4.43009987,0.438412349 C5.00785826,0.291835168 5.06306899,0.348023087 4.91551463,0.941904966 C4.88180188,1.07797745 4.85639517,1.26999356 4.76112,1.32838013 C4.21023409,1.66477477 4.39418846,2.29701101 4.15844349,2.75628617 C4.12204349,2.82737611 4.17261262,2.94879087 4.19606497,3.04357745 C5.50402201,8.33134926 6.8151549,13.6181439 8.11114148,18.908603 C8.14900725,19.0629976 8.40356295,19.2879936 8.07083275,19.4428768 C7.76228779,19.5865224 7.71562738,19.3778942 7.66212671,19.1604714 C7.22899114,17.396415 6.79658846,15.632603 6.36003275,13.8695238 C5.48423409,10.3316392 4.60623678,6.79448752 3.72897235,3.25684725 C3.58508242,2.67664591 3.19005691,2.4531157 2.62720054,2.61288483 C2.0000945,2.79073181 1.3654153,2.94243919 0.740263624,3.12639356 C0.511358926,3.19381906 0.409732081,3.17769557 0.378950872,2.9109251 C0.333756242,2.51712107 0.263887785,2.12404993 0.17105557,1.73879624 C0.115111946,1.5072043 0.197439463,1.44148886 0.40142604,1.39507275 C1.07861262,1.24141101 1.75066899,1.0650298 2.42858846,0.913811007 C2.64088107,0.866417718 2.78232805,0.835880805 2.77817503,0.551521074 C2.77304483,0.205354631 3.04396832,0.082474094 3.31733477,0.05096" id="Fill-4" fill="#FFFFFF" mask="url(#mask-4)"></path>
                    </g>
                    <path d="M11.0256577,20.9125817 C11.3637624,19.8203374 11.6996685,18.7276046 12.0404604,17.6360932 C12.3187128,16.7453925 12.1714027,16.3972717 11.3481275,16.0247213 C11.0513087,15.8903589 10.7459396,15.7711428 10.4603584,15.6160153 C10.1723342,15.4599106 9.99131141,15.4332824 10.0181839,15.8480958 C10.0218483,15.9033066 9.9971745,15.9599831 9.99570872,16.0164153 C9.97763087,16.6806542 9.72625101,17.3615052 9.90263221,18.0003374 C10.176243,18.990222 10.5859262,19.9427294 10.9377114,20.9113603 C10.9670268,20.9118489 10.9963423,20.9120932 11.0256577,20.9125817 M9.78219463,26.7712717 C9.4147745,27.9468207 9.04711007,29.1221254 8.67968993,30.2976744 C8.23995839,31.7057925 7.80340268,33.1148878 7.35731946,34.5212958 C7.28989396,34.7333442 7.28232081,35.0868395 6.93639866,34.9817925 C6.56018389,34.867218 6.77027785,34.5596502 6.83941342,34.33612 C7.67905638,31.6246864 8.52163087,28.9144744 9.37593154,26.2076824 C9.45703758,25.9501952 9.43114228,25.7603777 9.28114497,25.5388019 C8.89418121,24.9669066 8.53335705,24.377422 8.11145906,23.7151374 C7.95291141,24.7047777 7.80022685,25.593524 7.67123893,26.4854462 C7.57449799,27.154571 7.26644161,27.668324 6.72557181,28.0853361 C4.66640671,29.6730113 2.61994497,31.2768099 0.578613423,32.8876932 C0.308422819,33.100963 0.218766443,33.0254757 0.111032215,32.7513764 C-0.080495302,32.2642515 -0.00745100671,31.8047321 0.203131544,31.3508314 C0.457442953,30.8021442 0.84294094,30.3445791 1.24505101,29.9033817 C2.39372752,28.6430623 3.54582416,27.3854301 4.70793691,26.1375697 C4.8804094,25.9521495 4.93952886,25.7762569 4.90899195,25.5307401 C4.7032953,23.8812583 4.52471544,22.2293334 4.48318523,20.5656824 C4.47390201,20.1902005 4.28579463,19.8586918 4.2044443,19.4993334 C3.95721745,18.4066005 4.00754228,17.3297468 4.33245503,16.2614435 C4.36494631,16.1541979 5.26248725,8.44716966 5.27738926,8.33919114 C5.33748591,7.90312403 5.37290872,7.46314819 5.43886846,7.02805826 C5.52828054,6.4380851 5.88592886,6.09704886 6.45757987,6.17864349 C7.42523356,6.31691463 8.38848993,6.50404483 9.34026443,6.72757503 C9.78708054,6.83237772 9.94245235,7.26820054 10.0379718,7.67690658 C10.2253463,8.48014953 10.2509973,9.30879919 10.388047,10.1201039 C10.5399987,11.0188663 10.3057195,11.8934435 10.2891074,12.8618301 C9.7367557,12.5354515 9.2379047,12.2457173 8.74540537,11.945967 C8.62741074,11.8741442 8.62276913,11.7282999 8.59711812,11.6039536 C8.51112617,11.1874301 8.42244698,10.7711509 8.3432953,10.3531616 C8.31984295,10.2290596 8.28222148,10.112775 8.14175168,10.1310972 C7.94631544,10.1562596 8.05820268,10.305524 8.06895168,10.3993334 C8.12782685,10.9069791 8.20526846,11.4126703 8.25388322,11.9210489 C8.27293826,12.1186838 8.36894631,12.222265 8.52627248,12.3148529 C9.82445772,13.0768099 11.1209329,13.8424314 12.4154537,14.6104958 C12.5449302,14.6874489 12.640694,14.7062596 12.7977758,14.6356583 C13.2309114,14.4409549 13.5922242,14.6547133 13.6415718,15.1327992 C13.6596497,15.3082032 13.7397785,15.3788046 13.8687664,15.4498945 C14.2418054,15.6558354 14.6065383,15.8774113 14.9856846,16.0711374 C15.2050617,16.1830247 15.2028631,16.2804985 15.0465141,16.4468636 C14.6419611,16.8780448 14.173647,17.1201415 13.5651074,17.0048341 C13.432455,16.9796717 13.2560738,16.8162381 13.1820523,16.9322784 C13.0486671,17.1416395 12.7674832,17.1792609 12.6883315,17.4377254 C12.2471342,18.8756475 11.7988523,20.311371 11.3454403,21.7453844 C11.2919396,21.9144368 11.3498376,22.0514864 11.4018725,22.1965979 C11.6319987,22.8381173 11.8301221,23.4938059 12.1027557,24.1170032 C12.5923235,25.2366086 12.6323879,26.3833307 12.5036443,27.5786677 C12.2029168,30.3741388 11.9442081,33.1742515 11.6908738,35.9746086 C11.6561839,36.357175 11.5482054,36.4321737 11.2066805,36.3002542 C10.5446403,36.0449656 10.272251,35.5067831 10.1395987,34.8679509 C10.0555611,34.4631536 10.0597141,34.0495616 10.0492094,33.6371911 C9.99057852,31.3503428 9.92486309,29.0637388 9.8615906,26.7768905 C9.83520671,26.7751804 9.80857852,26.773226 9.78219463,26.7712717" id="Fill-7" fill="#FFFFFF"></path>
                </g>
            </g>
        </g>
    </g>
</svg>