<?xml version="1.0" encoding="UTF-8"?>
<svg width="60px" height="60px" viewBox="0 0 60 60" version="1.1" xmlns="http://www.w3.org/2000/svg" xmlns:xlink="http://www.w3.org/1999/xlink">
    <!-- Generator: Sketch 49.2 (51160) - http://www.bohemiancoding.com/sketch -->
    <title>icone blanc</title>
    <desc>Created with Sketch.</desc>
    <defs>
        <polygon id="path-1" points="0.0536675146 0.0379567742 7.55873164 0.0379567742 7.55873164 4.20783988 0.0536675146 4.20783988"></polygon>
        <polygon id="path-3" points="0 0.0445398232 34.4246964 0.0445398232 34.4246964 15.6638519 0 15.6638519"></polygon>
    </defs>
    <g id="icone-blanc" stroke="none" stroke-width="1" fill="none" fill-rule="evenodd">
        <g id="spelunking" transform="translate(-16.000000, -29.000000)">
            <g id="speluking" transform="translate(25.000000, 41.000000)">
                <g id="Page-1" transform="translate(20.166143, 19.093369) rotate(11.000000) translate(-20.166143, -19.093369) translate(-0.133857, 9.293369)">
                    <g id="Group-6" transform="translate(27.773143, 0.015503)">
                        <path d="M0.603504952,6.51243621 C0.843007467,7.13385811 1.69117747,8.38135293 1.69117747,8.38135293 C1.69117747,8.38135293 2.1728509,8.4993397 2.55628365,8.58065273 C2.87932342,8.64918876 3.16108468,8.68874934 3.25044885,8.45951181 C3.46027222,7.92186212 3.85475977,6.9102339 3.97080794,6.61256725 C4.07781623,6.33826273 4.10689634,6.05647378 4.07400423,5.78730145 L5.15329035,5.93805934 L5.17899412,5.59511186 L4.65124994,5.15860896 C4.42242103,4.21172109 3.59129611,3.47728424 2.55012999,3.40206568 C1.26385227,3.30920523 0.144431235,4.25748306 0.0497847203,5.5201606 C0.0207046058,5.90849582 0.0918800919,6.28154141 0.242018436,6.6143849 L0.603504952,6.51243621 Z" id="Fill-1" fill="#FFFFFF"></path>
                        <g id="Group-5" transform="translate(4.683314, 0.000000)">
                            <mask id="mask-2" fill="white">
                                <use xlink:href="#path-1"></use>
                            </mask>
                            <g id="Clip-4"></g>
                            <path d="M0.0536675146,4.20783988 L6.26178183,0.0379407362 C6.26178183,0.0379407362 8.33115327,1.53482761 7.24201041,4.10091939 C3.97458182,4.20783988 0.0536675146,4.20783988 0.0536675146,4.20783988" id="Fill-3" fill="#FFFFFF" mask="url(#mask-2)"></path>
                        </g>
                    </g>
                    <g id="Group-9" transform="translate(0.000000, 2.688516)">
                        <mask id="mask-4" fill="white">
                            <use xlink:href="#path-3"></use>
                        </mask>
                        <g id="Clip-8"></g>
                        <path d="M26.0833324,11.6002959 C25.0919401,11.7290816 24.4496726,10.9872138 24.2659342,10.4345952 C24.1805454,10.1778257 23.3422321,7.68182028 23.3422321,7.68182028 L25.0672166,8.00584282 L26.0833324,11.6002959 Z M8.17869506,7.69839295 C9.252481,7.91431888 17.1929315,9.51122987 17.7910888,9.63253117 C18.7875456,9.83455744 19.2015288,9.23895684 19.09256,8.45261009 C18.9974779,7.76639438 18.4880313,5.33454128 18.4880313,5.33454128 L23.1232599,7.19859312 L26.2682689,7.75730614 C26.2682689,7.75730614 28.8141403,13.368547 28.9656401,13.7016578 C29.1482893,14.1032511 29.5865604,14.4778471 30.1848811,14.5161246 L26.2555804,15.2158657 L21.4669459,12.3240407 L10.5256346,12.3131348 L8.17869506,7.69839295 Z M21.3434916,12.7516692 L26.1660528,15.6638626 L34.4222458,14.1960581 L34.4246964,13.7610521 L30.6111171,14.4401576 L28.6141737,7.52368487 C29.235094,7.57612937 28.0204274,4.97598341 28.0204274,4.97598341 C28.0204274,4.97598341 27.9864462,4.84137052 27.9685298,4.77037531 C27.6999472,3.70619567 26.9890636,3.00709604 24.9763821,2.50435589 C22.295348,1.83471285 20.2188427,1.38938901 20.2188427,1.38938901 C20.2188427,1.38938901 19.4429373,0.974109824 18.8417304,0.658961677 C18.2405236,0.34376007 16.5522977,-0.43168079 14.7578259,0.458325376 C12.9634086,1.34833154 9.071411,3.30893258 9.071411,3.30893258 C9.071411,3.30893258 3.13797851,2.63998453 2.09757479,2.54691024 C1.05706216,2.4537825 0.0828783262,2.83062377 0.0210150115,3.69293752 C6.78971116,5.21794449 6.77685928,5.21537839 8.54557283,5.60403438 C9.50396409,5.81466774 9.75588283,5.81632501 10.6526831,5.58339872 C11.4251576,5.38276242 14.9186923,4.47527476 14.9186923,4.47527476 L15.68082,6.84356363 C15.68082,6.84356363 10.8098464,6.4317059 10.2286253,6.38915154 C9.13027917,6.30874733 8.28902523,6.68018912 8.08786054,7.51983573 L7.46846499,6.30195788 L0.00184609715,8.20204192 L-5.44571432e-06,8.64426507 L7.24382928,6.80058159 L10.262661,12.7406029 L21.3434916,12.7516692 Z" id="Fill-7" fill="#FFFFFF" mask="url(#mask-4)"></path>
                    </g>
                </g>
            </g>
        </g>
    </g>
</svg>