<?xml version="1.0" encoding="UTF-8"?>
<svg width="60px" height="60px" viewBox="0 0 60 60" version="1.1" xmlns="http://www.w3.org/2000/svg" xmlns:xlink="http://www.w3.org/1999/xlink">
    <!-- Generator: Sketch 49.2 (51160) - http://www.bohemiancoding.com/sketch -->
    <title>icone blanc</title>
    <desc>Created with Sketch.</desc>
    <defs></defs>
    <g id="icone-blanc" stroke="none" stroke-width="1" fill="none" fill-rule="evenodd">
        <g id="spelunking" transform="translate(-16.000000, -29.000000)" fill="#FFFFFF">
            <g id="orienteering" transform="translate(25.000000, 41.000000)">
                <path d="M20.3679384,6.13329905 C20.3299961,6.12531905 20.2947066,6.11831905 20.2628103,6.11187905 C20.209074,6.09941905 20.1789669,6.09241905 20.1789669,6.09241905 C20.1789669,6.09241905 20.2662652,6.11131905 20.3679384,6.13329905 Z M19.764192,2.94289048 C19.6702923,2.51104286 19.7000293,2.0565381 19.8367452,1.60822381 C20.2323947,0.314661905 21.6327459,-0.246690476 22.7631201,0.101028571 C23.8924456,0.44837619 24.6712822,1.76162381 24.2812469,3.03865714 C24.1563764,3.44747619 23.7159981,4.88843333 23.4900713,5.62757619 C23.3940123,5.94248571 23.0377859,5.8539619 22.6069086,5.80140476 C22.1204442,5.74197619 21.6841995,5.68898571 21.6841995,5.68898571 C21.6841995,5.68898571 19.9052266,3.59375714 19.764192,2.94289048 Z M20.0190537,16.4198048 L16.7389201,11.5986 L19.9162083,9.66184762 L19.8133628,10.1467476 L18.374514,11.1999333 L18.3358313,13.1602714 L20.1143723,15.9524238 L20.0190537,16.4198048 Z M26.5987547,12.9510333 C26.9951445,13.2713286 27.3978273,13.2171619 27.6245561,12.9666952 L27.6351059,12.966819 C27.6351059,12.966819 30.7115845,9.85560952 31.6814286,8.88240476 C32.6513344,7.9092619 31.7136951,6.71121905 31.7136951,6.71121905 L27.4250964,10.2639952 C27.4250964,10.2639952 25.1690367,7.44658571 24.9353981,7.15439524 C24.6208774,6.76111429 24.477992,6.53355238 23.8828828,6.47245238 C23.4973513,6.43289524 21.2176008,6.18837143 20.3679384,6.11049524 C20.610893,6.13370952 20.9366422,6.16497143 20.3535018,6.11037143 C20.3180273,6.10671905 20.2880435,6.10362381 20.2628103,6.10102381 C20.2318395,6.0983619 20.2027812,6.09588571 20.1779798,6.09390476 C19.0448293,6.0034619 18.6708347,6.42094762 17.3817812,7.66789524 C17.3817812,7.66789524 14.5892225,10.3402619 14.256872,10.6737429 C13.9245215,11.0072857 13.5882225,11.6544381 14.1991256,12.2928 C14.577192,12.6878762 17.4553832,15.4921619 18.1999174,16.2256095 C17.3501934,17.0782238 17.2777635,18.5375048 17.8601635,19.7573381 L16.22167,25.7151762 C16.22167,25.7151762 12.2033567,32.2626571 11.7566239,33.0091048 C11.309891,33.7556143 10.6047181,35.0435429 12.1380835,35.9718667 L18.7107513,27.4174952 L21.1399269,23.8404524 L19.4431934,21.8570857 L19.5478896,21.4569333 C19.5478896,21.4569333 20.1300428,22.0598238 21.5941249,23.5289476 C23.0582686,24.9980095 24.4075364,26.8037095 24.4075364,26.8037095 C24.4075364,26.8037095 27.8249412,33.8521857 28.2036862,34.6185667 C28.5824313,35.3850095 29.5714625,36.8483762 31.3569134,36.1691571 L27.4570544,25.4119048 L23.5462754,18.4435333 L25.1225188,11.8121714 L26.5987547,12.9510333 Z" id="Fill-1"></path>
                <g id="noun_1446069_cc" stroke-width="1" transform="translate(29.400000, 12.600000)">
                    <path d="M1.94198919,6.59059459 C0.811243243,6.01833514 0.0359459459,4.84558919 0.0359459459,3.49182703 C0.0359459459,1.57503784 1.5900973,0.0208864865 3.50688649,0.0208864865 C5.42367568,0.0208864865 6.97782703,1.57503784 6.97782703,3.49182703 C6.97782703,4.84558919 6.20252973,6.01833514 5.07170811,6.59059459 L3.50681081,11.1275784 L1.94198919,6.59059459 Z M3.50681081,5.74219459 C4.74978378,5.74219459 5.75717838,4.7348 5.75717838,3.49182703 C5.75717838,2.24877838 4.74978378,1.24145946 3.50681081,1.24145946 C2.26376216,1.24145946 1.25644324,2.24877838 1.25644324,3.49182703 C1.25651892,4.7348 2.26383784,5.74219459 3.50681081,5.74219459 Z" id="Shape"></path>
                </g>
            </g>
        </g>
    </g>
</svg>