<?xml version="1.0" encoding="UTF-8"?>
<svg width="60px" height="60px" viewBox="0 0 60 60" version="1.1" xmlns="http://www.w3.org/2000/svg" xmlns:xlink="http://www.w3.org/1999/xlink">
    <!-- Generator: Sketch 49.2 (51160) - http://www.bohemiancoding.com/sketch -->
    <title>icone blanc</title>
    <desc>Created with Sketch.</desc>
    <defs></defs>
    <g id="icone-blanc" stroke="none" stroke-width="1" fill="none" fill-rule="evenodd">
        <g id="spelunking" transform="translate(-16.000000, -29.000000)" fill="#FFFFFF">
            <g id="canoying" transform="translate(25.000000, 41.000000)">
                <path d="M31.2706793,30.7263649 C30.5347347,29.6193246 27.1904471,24.5927121 26.0036467,22.8707899 C25.6782803,22.3987906 25.3902336,22.0167801 24.7651778,21.7077593 C24.140122,21.3987385 20.7576967,19.7264871 20.7576967,19.7264871 L22.1231654,18.0850114 C22.1231654,18.0850114 27.5189601,21.1001447 28.2443319,21.4712857 C28.9228812,21.818476 30.0236515,22.4042253 31.0643832,21.5050947 L32.2368348,27.8019156 C32.2368348,27.8019156 31.8080058,29.0951899 31.2706793,30.7263649 Z M35.1483285,-3.79166667e-05 L34.6448603,-3.79166667e-05 L34.6448603,5.66193153 L30.3234039,17.5259301 L30.9847723,21.0777739 C28.4688158,19.2079767 23.1817703,15.4025336 23.1817703,15.4025336 C23.1817703,15.4025336 21.7199503,13.9345899 20.1573738,14.9975836 C18.5947344,16.060451 16.8305818,17.1233183 16.8305818,17.1233183 L16.4928805,16.7482593 L19.0797631,12.8712169 C19.0797631,12.8712169 18.332805,12.5664933 17.5787985,12.7603107 L22.5362611,0.0256190278 C22.5395337,0.0171509722 22.5419881,0.00855652778 22.5447571,-3.79166667e-05 L21.5938945,-3.79166667e-05 L16.1550533,13.9714322 L15.1264048,15.2305815 L13.5037268,13.4283392 C13.5037268,13.4283392 10.0125524,12.5970794 9.18145223,12.3966267 C8.35028915,12.1961107 6.95089926,12.0617593 7.00130902,13.6814961 C7.05171877,15.3010433 9.47119818,19.7553037 9.47119818,19.7553037 C9.47119818,19.7553037 12.9971119,22.7552704 13.460932,23.1239468 C13.6851012,23.3022183 14.0610032,23.5431787 14.4989576,23.6763294 L15.943282,36.3562947 C15.9433449,36.3568003 15.9434708,36.3573058 15.9435337,36.3578746 L16.8374415,36.3578746 L15.4003545,23.7527315 C15.6041332,23.7198704 15.8086672,23.6483975 16.0072854,23.524094 L15.2482441,22.2366968 L23.4437626,24.6919906 C23.4437626,24.6919906 27.5907673,29.3628815 28.1508127,29.9737822 C28.6688815,30.5389301 29.6762584,31.5411308 31.167783,31.0388614 C30.5515379,32.9108072 29.8242781,35.1318392 29.4364817,36.3578746 L29.9581377,36.3578746 C30.741786,33.9950975 32.7394849,27.9168662 32.7394849,27.9168662 L30.8262428,17.6149079 L35.1483285,5.74926625 L35.1483285,-3.79166667e-05 Z M8.69245873,9.83832597 C8.96930331,10.572835 9.94943004,12.0474774 9.94943004,12.0474774 C9.94943004,12.0474774 10.50614,12.1869475 10.949255,12.2831294 C11.3225137,12.3641447 11.6481318,12.4109086 11.7514686,12.1399308 C11.9938886,11.5043211 12.449779,10.3085558 12.5838904,9.95668917 C12.7075548,9.63243847 12.7411613,9.29934056 12.7031494,8.98109333 L13.950429,9.15930167 L13.9801336,8.75390931 L13.3702448,8.23798986 C13.1057981,7.11868986 12.1453696,6.25052458 10.9420805,6.16161 C9.45559066,6.05177806 8.16199204,7.17278431 8.05255064,8.66537389 C8.01894413,9.12441833 8.10126118,9.56538917 8.27476892,9.95883778 L8.69245873,9.83832597 Z" id="Fill-1"></path>
            </g>
        </g>
    </g>
</svg>