<?xml version="1.0" encoding="UTF-8"?>
<svg width="60px" height="60px" viewBox="0 0 60 60" version="1.1" xmlns="http://www.w3.org/2000/svg" xmlns:xlink="http://www.w3.org/1999/xlink">
    <!-- Generator: Sketch 49.2 (51160) - http://www.bohemiancoding.com/sketch -->
    <title>icone blanc</title>
    <desc>Created with Sketch.</desc>
    <defs></defs>
    <g id="icone-blanc" stroke="none" stroke-width="1" fill="none" fill-rule="evenodd">
        <g id="spelunking" transform="translate(-16.000000, -29.000000)" fill="#FFFFFF">
            <g id="ski" transform="translate(25.000000, 41.000000)">
                <path d="M37.9609152,22.8598885 C37.1027788,21.7192489 34.6403061,18.2451207 34.6403061,18.2451207 L33.7101466,13.2250443 L29.1378326,17.0532279 L29.073869,17.9699851 C29.073869,17.9699851 30.4550362,21.3579263 30.9398167,22.560465 C31.3990118,23.6994471 32.3370388,25.6563137 30.5290421,27.2289722 C28.7694659,28.7594934 27.521663,29.8105673 26.7118191,30.4805568 L28.0505784,30.8198864 L37.9609152,22.8598885 Z M23.0044857,29.5408503 L23.6911355,29.7148818 C24.1869178,29.3268489 24.7242125,28.9049659 25.082281,28.6198857 C25.9301193,27.9450513 27.3871474,26.7034352 27.3871474,26.7034352 C28.5221824,25.6273084 28.3462824,24.7109337 27.8406497,23.624671 L26.4917841,20.4212797 L25.860207,20.4071277 L27.2683029,23.7436244 C27.7226368,24.8065554 27.8425686,25.5954345 26.9366514,26.391326 L23.0044857,29.5408503 Z M40.6331249,23.8521232 C40.6331249,23.8521232 39.3462401,24.2735599 38.3724574,23.348133 L28.8254341,31.0162934 L34.6095395,32.4823655 C34.6095395,32.4823655 35.1637206,32.2942457 37.2427953,31.6202401 C38.4616227,31.2251312 38.3205829,32.250706 37.6725671,32.4710822 C36.3007386,32.9375887 33.4723937,33.852816 33.4723937,33.852816 C33.4723937,33.852816 32.9602367,34.0759971 31.6747591,33.7177981 C31.0035245,33.4967207 26.453278,32.076802 21.6898407,30.5937729 L19.6831729,32.2010464 L27.1516972,34.841672 C27.1516972,34.841672 29.4482482,34.2531522 30.5207908,33.9833077 C31.5933973,33.7134633 31.5684515,34.7129652 30.9338681,34.8907578 C29.5322965,35.2833806 25.9505237,36.327761 25.9505237,36.327761 C25.9505237,36.327761 25.4193055,36.5009638 24.174253,36.0217077 C23.0544413,35.5297659 10.8456345,30.4183389 5.69323413,28.2621967 L7.55291344,27.9121575 L17.0313677,31.2634436 L18.6813741,29.6575088 C15.4528086,28.6530983 12.4894364,27.7323887 10.98725,27.2656909 L12.7324983,26.9371985 L19.6698045,28.6955543 L23.4573483,25.0094009 C23.4573483,25.0094009 22.7969876,23.5947095 21.506201,21.1360839 C20.8789734,19.9413862 19.6465857,17.9063011 20.4937203,16.2460531 C20.7097895,15.8225764 22.7089096,13.0636349 22.7089096,13.0636349 L25.8904618,9.06161107 L22.1312538,10.0517421 L19.4662721,16.0711291 C19.4662721,16.0711291 18.4834066,15.440982 18.5574125,14.5069491 L1.56482794,19.0240552 L1.3999936,18.4081239 L18.7228865,13.803237 C19.5284448,10.7974002 20.0572323,8.72132525 20.1273365,8.46652525 C20.198528,8.20777289 20.3199311,8.05777429 20.5975973,7.95367412 C22.2996702,7.31555853 27.5569069,5.5895228 28.158677,5.46100722 C28.7233481,5.34046011 29.4242619,5.56039005 30.2137653,6.03333506 L35.3916871,9.04452665 C36.1708284,9.49312 36.2775198,10.2434317 36.433719,11.8475816 C36.8228099,15.8445694 37.0047865,17.6432139 37.0047865,17.6432139 L40.6331249,23.8521232 Z M38.2401166,5.80339671 L37.7855269,5.70210144 C37.7803458,5.70554382 37.7754846,5.70917744 37.7703035,5.71261982 C37.3267796,6.0001862 36.1279727,7.02187236 35.3257406,7.54014207 C34.9111921,7.80801037 34.5849135,7.72118585 34.1332022,7.45924609 C33.6815548,7.19717884 32.6011447,6.57882508 32.6011447,6.57882508 C32.6011447,6.57882508 32.7780042,4.81307447 33.0123031,3.46767692 C32.8817533,3.21376939 32.764316,2.92722298 32.6961308,2.62690704 C33.3396691,0.253193555 35.0407825,-0.129930788 36.5736075,0.0325623818 C38.0767534,0.191931909 39.0924963,1.27564469 39.3560265,1.9131228 C40.2936058,3.67160616 38.2401166,5.80339671 38.2401166,5.80339671 Z" id="Fill-1"></path>
            </g>
        </g>
    </g>
</svg>