<?xml version="1.0" encoding="UTF-8"?>
<svg width="60px" height="60px" viewBox="0 0 60 60" version="1.1" xmlns="http://www.w3.org/2000/svg" xmlns:xlink="http://www.w3.org/1999/xlink">
    <!-- Generator: Sketch 49.2 (51160) - http://www.bohemiancoding.com/sketch -->
    <title>icone blanc</title>
    <desc>Created with Sketch.</desc>
    <defs></defs>
    <g id="icone-blanc" stroke="none" stroke-width="1" fill="none" fill-rule="evenodd">
        <g id="spelunking" transform="translate(-16.000000, -29.000000)" fill="#FFFFFF">
            <g id="snowboard" transform="translate(25.000000, 41.000000)">
                <path d="M19.8305737,4.43959267 C18.8896479,2.47008838 19.6650964,0.907110825 20.8985669,0.314619736 C22.1164559,-0.270483234 23.4445625,0.0702111551 24.1800911,0.452170891 C25.8323884,1.09884152 25.4156754,3.39594581 25.4156754,3.39594581 L25.0277699,3.60059069 C24.9885144,4.2487029 24.9130229,5.49279003 24.8710496,6.18420983 C24.8498516,6.53457485 24.4556653,6.53235241 23.9924495,6.58617155 C23.4693841,6.64689828 23.000431,6.70167848 23.000431,6.70167848 C23.000431,6.70167848 21.5909748,5.6840402 20.7974687,4.92324416 C20.4895238,4.82023096 20.1356801,4.66598145 19.8305737,4.43959267 Z M21.8200461,22.6565313 L19.7015135,30.9006508 L13.6057874,28.8372032 L18.4766188,22.2817194 L22.5707335,21.4994197 L21.8200461,22.6565313 Z M32.3284609,9.66959993 C32.3284609,9.66959993 29.7232799,8.29288706 28.5831169,7.68646066 C27.3285088,7.01906726 26.7289856,6.86157419 25.8201889,6.97263624 C25.137444,7.05612799 22.2731158,7.40631281 21.6858525,7.47689036 C20.8356372,7.57906264 20.2760943,7.79662172 19.776401,8.37836099 C19.3937498,8.8238105 16.7470183,11.9048362 16.7470183,11.9048362 L10.9894941,16.0693326 C11.087935,16.5961716 12.6324304,17.1749676 13.6250529,16.5176052 C14.6177961,15.8602428 21.0839136,11.5784376 21.0839136,11.5784376 L23.3681651,16.6106475 C23.3681651,16.6106475 17.3167677,19.3402871 16.7888708,19.5816323 C15.8801345,19.9969286 15.5895829,20.293895 15.1481087,21.1731412 C14.8136512,21.8392131 12.141615,27.1608211 11.635822,28.168128 C10.1313069,27.6567861 9.01240235,27.2754871 8.76485067,27.1898329 C6.94466037,26.5601009 5.77091876,24.555398 5.61733888,26.2588098 C5.41906805,28.458427 6.97032748,29.1016739 7.89096124,29.4431491 C8.84487164,29.7968778 25.8123378,35.9689603 28.805545,36.3315187 C30.6910807,36.5600098 31.2785253,35.802097 31.3909774,35.1002257 C31.6188409,33.6786435 30.4161106,32.9188085 27.2728867,32.8824085 C25.3795602,32.8604844 23.9258358,32.2725583 21.8768157,31.6309933 L25.2826292,23.4775135 C25.2826292,23.4775135 27.0846411,22.2518666 28.735187,21.1450904 C30.0871489,20.2385742 29.9982501,17.6488884 29.0672287,15.2284085 L28.1815022,10.6233881 L30.9528248,11.8073491 C30.9528248,11.8073491 34.3684824,14.1938917 35.2921962,14.8134725 C36.0842528,15.3447564 37.2807023,15.2684125 37.4418313,14.7078765 L32.3284609,9.66959993 Z" id="Fill-1"></path>
            </g>
        </g>
    </g>
</svg>