<?xml version="1.0" encoding="UTF-8"?>
<svg width="60px" height="60px" viewBox="0 0 60 60" version="1.1" xmlns="http://www.w3.org/2000/svg" xmlns:xlink="http://www.w3.org/1999/xlink">
    <!-- Generator: Sketch 49.2 (51160) - http://www.bohemiancoding.com/sketch -->
    <title>icone blanc</title>
    <desc>Created with Sketch.</desc>
    <defs></defs>
    <g id="icone-blanc" stroke="none" stroke-width="1" fill="none" fill-rule="evenodd">
        <g id="spelunking" transform="translate(-16.000000, -29.000000)" fill="#FFFFFF">
            <g id="baseball" transform="translate(25.000000, 41.000000)">
                <path d="M31.5811725,17.565581 C32.0590835,17.565581 32.446457,17.1780859 32.446457,16.699967 C32.446457,16.2219638 32.0590835,15.8344109 31.5811725,15.8344109 C31.1032615,15.8344109 30.715888,16.2219638 30.715888,16.699967 C30.715888,17.1780859 31.1032615,17.565581 31.5811725,17.565581 Z M16.4001358,8.88964967 C16.1490604,9.98373297 17.0215763,10.970526 17.0215763,10.970526 L17.4322061,10.9544382 C17.8737864,11.5434932 18.3815488,12.1294811 18.3815488,12.1294811 C18.3815488,12.1294811 18.834063,12.1777444 19.2302878,12.2224776 C19.5810991,12.2620605 19.87134,12.3313304 19.9474146,12.0752573 C20.1259443,11.4744548 20.4739788,10.3027104 20.5727891,9.97019148 C20.6208058,9.80861946 20.6457398,9.64652661 20.6501943,9.48692216 L21.6150412,9.42992057 L21.6122065,9.21701819 L20.6202273,8.56557971 C20.6083677,7.68787097 19.429239,7.13284331 18.4987559,7.14545889 C17.5681571,7.15807447 16.6511534,7.79550849 16.4001358,8.88964967 Z M30.7160037,36.26407 C30.2677126,36.4219384 29.3365932,36.5813692 28.5925075,35.260842 C27.8615541,33.9636363 24.8445998,28.6115632 24.8445998,28.6115632 L20.7187483,23.9319352 L16.6272607,29.0653769 C16.6272607,29.0653769 13.6729016,35.0022226 13.4929835,35.3637921 C13.3130655,35.7254195 13.008246,36.5138354 11.8298694,36.35643 C12.1247962,34.7633368 14.1996972,27.9442684 14.1996972,27.9442684 L17.109742,20.6472548 L16.3565158,17.5004198 L15.6447691,17.7069565 L12.7251209,15.9858557 L12.8282701,16.2759562 L14.1187051,17.3416834 C14.1187051,17.3416834 13.7160588,17.7187619 13.6714553,17.7573031 C12.9868989,18.3359994 12.6071039,17.5298754 12.6071039,17.5298754 L11.355198,15.155195 L10.8997912,14.8718652 L10.7508237,15.1278226 C10.7508815,15.1278226 10.7509394,15.1278226 10.7509972,15.1278805 C10.750708,15.1283435 10.750303,15.1287486 10.7500138,15.1291536 L10.7479311,15.1326837 L10.7473526,15.1325679 C10.6639886,15.2502748 10.5330707,15.3336071 10.3784337,15.3502156 C10.0918375,15.3812916 9.83422493,15.1742341 9.80310084,14.8876058 C9.78672887,14.7370869 9.83659684,14.5950169 9.92834928,14.4892312 L10.0866309,14.2077533 C9.61276949,13.6192191 9.8074397,13.0983346 10.108788,12.8166831 C10.3500287,12.591223 10.6687903,12.5699269 10.973089,12.6315581 C10.973089,12.6315581 12.2011601,10.5753921 18.3510032,0.261345056 C18.5086485,-0.00311917329 18.8542532,-0.134020286 19.3695363,0.196762544 C19.8847615,0.527545374 19.959332,0.765042353 19.7097029,1.14848655 C14.237937,9.55347224 11.9496798,13.0685896 11.9496798,13.0685896 L12.5357731,13.8923059 L13.7486292,14.4925298 C13.7486292,14.4925298 14.5536325,13.2176039 14.7092529,12.9711371 C14.9951549,12.5183651 15.3836854,12.3023956 16.0924817,12.3765845 C16.6540459,12.4354379 20.5023838,12.8383263 21.5188921,12.9447486 C23.5777103,13.1603129 22.777393,15.7513101 22.6649876,16.2236999 L22.9662781,20.303567 L27.1178156,27.2362913 L30.7160037,36.26407 Z" id="Fill-1"></path>
            </g>
        </g>
    </g>
</svg>