<?xml version="1.0" encoding="UTF-8"?>
<svg width="60px" height="60px" viewBox="0 0 60 60" version="1.1" xmlns="http://www.w3.org/2000/svg" xmlns:xlink="http://www.w3.org/1999/xlink">
    <!-- Generator: Sketch 49.2 (51160) - http://www.bohemiancoding.com/sketch -->
    <title>icone blanc</title>
    <desc>Created with Sketch.</desc>
    <defs></defs>
    <g id="icone-blanc" stroke="none" stroke-width="1" fill="none" fill-rule="evenodd">
        <g id="spelunking" transform="translate(-16.000000, -29.000000)" fill="#FFFFFF">
            <g id="cricket" transform="translate(25.000000, 41.000000)">
                <path d="M34.3092931,22.9923436 C34.9480332,22.9923436 35.4658331,22.47168 35.4658331,21.8292845 C35.4658331,21.1870733 34.9480332,20.6662868 34.3092931,20.6662868 C33.6704918,20.6662868 33.1526919,21.1870733 33.1526919,21.8292845 C33.1526919,22.47168 33.6704918,22.9923436 34.3092931,22.9923436 Z M10.1108088,23.6621457 C10.1108088,23.6621457 7.23806721,33.4010071 7.12812715,33.7963747 C6.58123802,35.7619059 7.96205822,36.4 7.96205822,36.4 L13.0110506,25.9116976 L10.4203398,21.8554006 L10.1108088,23.6621457 Z M23.1556637,13.3462713 C22.6789309,12.960367 22.452634,12.5720661 22.3585219,12.0056224 L18.4605084,8.92305789 L18.3078512,9.19276079 L21.6061751,12.263527 L20.5826142,14.5343405 L22.8257824,13.7444656 L23.1556637,13.3462713 Z M31.7332491,28.723146 L28.6268162,29.887557 L23.6011684,16.3311922 L24.332004,15.6302966 L24.2528031,15.4190324 L23.6637469,15.4337189 C22.0665911,16.1160567 19.3128952,17.2922661 19.0802427,17.390217 C18.7508504,17.5289705 18.3910243,17.4995361 18.0913323,17.305908 C17.7916402,17.1122798 17.5804991,16.8955466 17.6253551,16.4148868 L17.8279406,14.2458955 L15.6878068,17.2091861 L15.0825559,19.3718481 L17.0067208,24.0616305 L19.8216506,36.2947366 C18.4800642,36.8034175 17.5258651,35.1876582 17.2896071,34.6473306 C17.0130153,34.0145827 13.3189928,25.2722517 13.3189928,25.2722517 C13.3189928,25.2722517 11.2763322,22.1442143 10.3856284,20.7856221 C9.56929747,19.5405276 8.82440625,18.3914175 8.52734199,17.5286632 C7.84887924,15.5579702 9.32668379,13.9391384 10.5816749,12.9780031 C10.5816749,12.9780031 13.8295204,6.72364895 14.6690126,5.47486742 C15.5085049,4.22602444 16.7998575,2.84881296 18.9681027,5.34109135 C19.4808914,5.93051721 21.9768179,8.85017851 23.4753393,10.6016189 C23.4753393,10.6016189 24.4247716,10.9420504 24.7759809,11.4301457 C25.1058011,11.8884378 25.2345024,12.4122968 25.1664239,12.8474838 C25.4731438,12.9509652 25.7155131,13.1483417 25.8349866,13.4263403 C26.0092162,13.831417 25.8805148,14.3102948 25.5430557,14.702467 L25.6988907,15.1179901 L26.7076014,15.1667812 L31.7332491,28.723146 Z M20.1643653,3.46048363 L19.7553443,3.04698836 C19.7553443,3.04698836 19.8046615,1.34648982 21.0011687,0.53774985 C22.1976758,-0.270928673 23.5787404,-0.123756556 24.4618053,0.686704009 C25.3449314,1.49710312 25.9262264,3.10051108 25.1662406,3.93764083 L25.5233166,5.42791982 L25.3390646,5.63094975 L24.3848045,4.83198029 C24.2403974,4.97841501 24.0746012,5.10905714 23.8876604,5.21880637 C23.5029618,5.44463415 22.1473808,6.24089983 21.4521734,6.64904897 C21.1559647,6.82301317 20.9448847,6.50132381 20.6509372,6.153887 C20.318917,5.76171479 20.0211805,5.4102223 20.0211805,5.4102223 C20.0211805,5.4102223 20.0602309,4.40668666 20.1643653,3.46048363 Z" id="Fill-1"></path>
            </g>
        </g>
    </g>
</svg>