<?xml version="1.0" encoding="UTF-8"?>
<svg width="60px" height="60px" viewBox="0 0 60 60" version="1.1" xmlns="http://www.w3.org/2000/svg" xmlns:xlink="http://www.w3.org/1999/xlink">
    <!-- Generator: Sketch 49.2 (51160) - http://www.bohemiancoding.com/sketch -->
    <title>icone blanc</title>
    <desc>Created with Sketch.</desc>
    <defs></defs>
    <g id="icone-blanc" stroke="none" stroke-width="1" fill="none" fill-rule="evenodd">
        <g id="spelunking" transform="translate(-16.000000, -29.000000)" fill="#FFFFFF">
            <g id="basketball" transform="translate(25.000000, 41.000000)">
                <path d="M16.9534778,16.663041 C16.3920642,16.6340076 15.841292,16.7786171 15.364764,17.0798457 L16.1204303,18.1069076 C16.5499022,17.7300314 16.8407891,17.2274267 16.9534778,16.663041 M15.7825487,18.3584886 L15.0267594,17.3313029 C14.6009167,17.7013076 14.3019103,18.189179 14.1646786,18.7377171 C14.7156968,18.7923171 15.2851684,18.6700552 15.7825487,18.3584886 M13.7507075,18.6618219 C13.9081764,18.0073029 14.2645729,17.4260171 14.7761009,16.990579 L14.3732019,16.4429695 L12.4698577,17.8613933 C12.8180117,18.2624124 13.2670442,18.5325648 13.7507075,18.6618219 M12.2197528,17.5214743 L14.1230354,16.1030505 L13.688335,15.5121695 C13.1774837,15.8435457 12.5895587,16.0179314 11.9860713,16.0179314 C11.9354475,16.0179314 11.8846392,16.0153314 11.8338924,16.0128552 C11.8068889,16.5296362 11.932372,17.0568171 12.2197528,17.5214743 M11.8904213,15.593079 C12.4375643,15.6120219 12.9732047,15.465741 13.437492,15.1711981 L12.7136885,14.1875933 C12.2836015,14.5657076 12.0050783,15.0622457 11.8904213,15.593079 M13.0514471,13.9358267 L13.7750045,14.9192457 C14.189037,14.5581552 14.4833686,14.0848933 14.6241064,13.5531314 C14.0872358,13.5093648 13.5352949,13.632741 13.0514471,13.9358267 M15.0402919,13.6207314 C14.8797474,14.2617552 14.5272877,14.8315267 14.0257245,15.2599695 L14.4608555,15.8513457 L16.3641996,14.4329219 C16.0057733,14.0200171 15.5403788,13.7452219 15.0402919,13.6207314 M16.6144276,14.772779 L14.7109604,16.1912648 L15.1140439,16.7391219 C15.6781026,16.3743171 16.3344896,16.2018505 17.0028099,16.2425219 C17.0226781,15.7232648 16.8886449,15.2152124 16.6144276,14.772779 M17.6000846,16.6248457 C17.4732483,17.4804933 17.0229856,18.2352362 16.3320907,18.7500362 C15.7575752,19.1782314 15.0864254,19.3847457 14.4210576,19.3847457 C13.43497,19.3847457 12.4612461,18.931541 11.8306938,18.0745933 C10.7746678,16.6392695 11.0757656,14.6069981 12.5019051,13.544279 C13.9279831,12.4814981 15.9474605,12.7845219 17.003425,14.2198457 C17.514953,14.9150362 17.7268594,15.7691981 17.6000846,16.6248457 M19.9557829,6.21308381 C19.9557829,6.21308381 20.4291738,6.12784095 20.9571253,6.03306476 C21.4247957,5.94918381 21.8257264,5.92714571 21.8257264,5.56543619 L21.8257264,2.59283143 C21.8257264,1.12692667 20.5907025,1.23809524e-05 19.2980425,1.23809524e-05 C18.0042139,1.23809524e-05 16.7180126,1.04156 16.7180126,2.52677905 C16.7180126,3.04133143 16.8322391,3.52796476 17.0684425,3.9508981 C17.4244084,4.58845524 19.9557829,6.21308381 19.9557829,6.21308381 M20.9725646,6.73686 C20.9725646,6.73686 22.4942312,6.4561219 23.5489039,6.26960286 C24.2111346,6.15266476 24.6444817,6.28545048 25.1996211,6.61113143 C26.1077125,7.14332667 29.1798943,9.00474095 31.0171753,10.0753219 C31.6210932,10.4270029 31.8619715,11.0731029 31.8039048,11.622941 C31.6733163,12.8602314 31.2097057,16.5145314 31.1299255,17.4145648 C31.0026586,18.84766 29.5492697,18.8310695 29.5492697,18.8310695 L29.5492697,12.1194171 L24.4672676,9.98716952 L24.4672676,10.4883505 L26.1301641,11.5437648 C26.1301641,11.5437648 26.9848021,14.451741 27.909809,17.4984457 C28.5013016,19.4461552 28.2104147,21.2844171 27.166568,22.8742552 C25.705121,25.1023933 23.9567238,27.7745124 23.9567238,27.7745124 L24.5552288,27.7745124 L25.7163161,26.2756124 C25.7163161,26.2756124 27.89357,25.8320648 28.5820045,25.7151267 C30.1584776,25.447079 30.4969127,26.9017171 30.4969127,26.9017171 C30.4969127,26.9017171 24.0583405,30.0480267 22.9550738,30.705579 C21.7138988,31.4452171 20.2199739,30.2390648 20.5926093,28.96296 C21.4342069,26.08346 22.4628604,22.765179 22.4628604,22.765179 L22.1014815,22.765179 L20.2655538,25.662879 L16.2435144,25.662879 L16.020905,25.973579 L18.2505051,26.2252838 L16.8337769,27.7943838 C16.8337769,27.7943838 16.3649992,31.6672695 16.0734357,34.41906 C15.8391391,36.62646 14.1852233,36.3427505 14.1852233,36.3427505 L14.1852233,27.9276648 C14.1852233,26.6674076 14.3177802,26.36426 14.9952656,25.3802219 C16.4226968,23.3078981 19.6814425,18.6582933 19.6814425,18.6582933 L20.1585856,17.9787648 L20.1585856,14.82026 L16.9340403,9.64087429 L16.9340403,10.433379 L17.7851721,11.9320314 L17.0948923,13.3230933 C17.0948923,13.3230933 16.4254033,12.5645743 15.1974533,12.4613171 L15.1974533,9.81476476 C15.1974533,8.4904981 15.7989723,7.68765524 17.1165443,7.43310286 C18.4529388,7.1748981 20.9725646,6.73686 20.9725646,6.73686" id="Fill-1"></path>
            </g>
        </g>
    </g>
</svg>