<?xml version="1.0" encoding="UTF-8"?>
<svg width="60px" height="60px" viewBox="0 0 60 60" version="1.1" xmlns="http://www.w3.org/2000/svg" xmlns:xlink="http://www.w3.org/1999/xlink">
    <!-- Generator: Sketch 49.2 (51160) - http://www.bohemiancoding.com/sketch -->
    <title>icone blanc</title>
    <desc>Created with Sketch.</desc>
    <defs></defs>
    <g id="icone-blanc" stroke="none" stroke-width="1" fill="none" fill-rule="evenodd">
        <g id="spelunking" transform="translate(-16.000000, -29.000000)" fill="#FFFFFF">
            <g id="football" transform="translate(25.000000, 41.000000)">
                <path d="M30.2116966,9.35265555 C26.9435887,8.04967151 25.8703586,6.58409256 24.355494,6.72184401 C23.1837588,6.76071599 19.8248753,7.16828475 18.6987752,7.26079885 C17.8043756,7.33421684 17.1292474,7.58741005 16.6668977,7.82676014 C13.9241506,9.24648374 7.68178066,12.7822277 7.68178066,12.7822277 C7.87637936,13.4288376 8.96370807,13.8187316 9.74909035,13.5145537 C10.5344108,13.210314 18.6205524,10.0783072 18.6205524,10.0783072 L19.4871875,9.99376523 L17.9757239,10.764098 L16.3695272,16.010333 L12.6045649,20.6471615 L14.9243521,23.3803133 L14.4948993,23.3798807 L13.3357168,22.4182162 C13.3357168,22.4182162 5.6382161,22.6866121 4.89166699,22.7090454 C3.08747057,22.7631201 2.79999382,23.4981652 2.79999382,24.0832844 L12.5778517,25.8588505 C12.5778517,25.8588505 13.2743134,26.0072314 14.2906541,25.4071567 C15.2267932,24.8544206 18.1443514,23.1988077 18.1443514,23.1988077 L18.2633862,23.2087574 L17.3586599,24.2455085 L16.8587756,25.976208 L16.8599505,25.976517 L19.8036036,26.7058148 L19.621063,26.9841605 L18.2410014,26.7749068 C18.2410014,26.7749068 16.4200474,31.1061978 15.737808,32.8084695 C15.0555686,34.5108029 15.2757675,35.738824 16.0615826,36.094172 C19.3614126,30.6398576 21.6624015,27.1327269 21.6624015,27.1327269 L22.6883886,18.98988 L23.652354,16.6455717 L26.4981203,10.987751 L28.8453009,11.6195289 C29.1723528,11.7075316 29.5112773,11.7413978 29.8492743,11.7196443 C31.4068677,11.6193435 36.0672808,11.3190589 37.2507649,11.239461 C38.6779456,11.1434861 38.7697107,9.58761786 38.7697107,9.58761786 L30.2116966,9.35265555 Z M25.1563354,32.6351214 C25.0435461,32.2316314 24.8315095,31.8694236 24.5480521,31.576246 L24.0498374,31.5680885 L23.4693187,32.539023 L23.780726,33.0927479 L24.8746094,33.0992369 L25.1563354,32.6351214 Z M25.1539856,33.9796966 L24.8952627,33.5320199 L23.7534563,33.5251601 L23.4441513,34.0478617 L24.005068,35.01206 L24.5678397,35.0097734 C24.8394864,34.7222814 25.0432987,34.3704559 25.1539856,33.9796966 Z M23.3467592,35.7202223 L23.6338649,35.2346623 L23.0647859,34.2563119 L22.4717762,34.2585367 L21.9125291,35.253882 L22.1836811,35.7230033 C22.3685715,35.766881 22.5611296,35.7908593 22.7592529,35.7908593 C22.9617048,35.7908593 23.1583441,35.7660158 23.3467592,35.7202223 Z M20.9457193,35.004335 L21.5578363,35.0017394 L22.0907412,34.0531764 L21.7939272,33.5394977 L20.6156992,33.5641557 L20.366499,33.9861238 C20.4768768,34.3718773 20.6780301,34.7194386 20.9457193,35.004335 Z M20.3861011,32.5538549 L20.7098758,33.1295187 L21.7411808,33.1079506 L22.0918542,32.5301238 L21.5548064,31.5467676 L21.0079884,31.5378067 C20.7251493,31.8181299 20.5091553,32.1655058 20.3861011,32.5538549 Z M22.1979653,30.8803819 L21.9274316,31.3262664 L22.4602128,32.3015887 L23.1007127,32.3120946 L23.6724508,31.3556831 L23.4188603,30.9051635 C23.2086788,30.847319 22.9876761,30.8158012 22.7592529,30.8158012 C22.5662002,30.8158012 22.3785271,30.8386053 22.1979653,30.8803819 Z M25.8081513,33.0243357 C25.9779537,34.9302372 24.3870305,36.5202189 22.4800004,36.3503934 C21.0181295,36.2201815 19.8409527,35.0437014 19.7106019,33.5826956 C19.5404904,31.6764851 21.1316609,30.0862562 23.0389383,30.2563289 C24.5008092,30.3866644 25.677986,31.5632681 25.8081513,33.0243357 Z M20.9082465,6.1408654 C21.0870151,6.49695504 21.6171373,6.40196896 21.9224847,6.36909154 L23.027746,6.2501272 C23.027746,6.2501272 24.560172,4.00333874 24.7190912,3.27910852 C24.8245839,2.79861616 24.7919962,2.29278594 24.639879,1.79369188 C24.2003469,0.353265399 22.6360133,-0.273939355 21.3727604,0.111319728 C20.110497,0.495960815 19.2378637,1.95659579 19.6718924,3.37823518 C19.811024,3.83357508 20.9082465,6.1408654 20.9082465,6.1408654 Z" id="Fill-1"></path>
            </g>
        </g>
    </g>
</svg>