<?xml version="1.0" encoding="UTF-8"?>
<svg width="60px" height="60px" viewBox="0 0 60 60" version="1.1" xmlns="http://www.w3.org/2000/svg" xmlns:xlink="http://www.w3.org/1999/xlink">
    <!-- Generator: Sketch 49.2 (51160) - http://www.bohemiancoding.com/sketch -->
    <title>icone blanc</title>
    <desc>Created with Sketch.</desc>
    <defs></defs>
    <g id="icone-blanc" stroke="none" stroke-width="1" fill="none" fill-rule="evenodd">
        <g id="spelunking" transform="translate(-16.000000, -29.000000)" fill="#FFFFFF">
            <g id="footus" transform="translate(25.000000, 41.000000)">
                <path d="M22.7935246,3.17358059 C22.7935246,3.17358059 22.8419147,1.60985333 21.8071027,0.653825849 C20.9196047,-0.166065089 17.8315234,-0.673382591 17.2939039,2.03220836 C17.0888281,3.21228367 17.3032144,3.98788108 17.5250123,4.20154665 C18.2569271,4.94212699 18.735131,5.4167619 18.735131,5.4167619 L18.9940484,5.42333528 C19.4555302,5.86731488 19.8359127,6.20722621 19.8359127,6.20722621 C19.8359127,6.20722621 20.3008859,6.2053832 20.819517,6.20366307 C21.2789162,6.20212723 21.6655465,6.24801802 21.7172442,5.90620226 C21.7356202,5.78425685 21.7567526,5.64449573 21.7795388,5.49392232 L22.5849574,5.51437966 L22.6352463,4.44009277 L21.9517828,4.35414736 C22.0269405,3.85678208 22.0961567,3.39867278 22.1327249,3.15680925 L22.7935246,3.17358059 Z M20.8006847,20.969318 L20.7907447,20.954758 L20.7768847,20.954758 L20.8006847,20.969318 Z M32.9995982,13.1710159 C31.4350683,12.302654 29.1513643,10.9632203 29.1513643,10.9632203 L25.1634119,10.2632474 L24.0459693,13.493603 L23.8028553,16.5876991 C23.8028553,16.5876991 24.6929259,17.8379315 25.1718649,18.9082252 C25.6508038,19.9785803 25.9273009,20.6108535 26.4891767,21.8127377 L27.0010086,21.8127377 L28.2260731,24.5158098 L28.3894355,26.6045474 L27.9953935,26.768329 C28.2793022,29.2791145 29.1448715,36.342795 29.1448715,36.342795 C28.6659325,36.5179418 27.3369826,36.3814366 26.9210732,34.6220438 C26.5051638,32.8625896 24.876073,26.6045474 24.876073,26.6045474 L20.9992952,21.9567377 C20.9992952,21.9567377 20.1794208,23.0819529 19.0289627,24.6608542 L19.1829533,25.1301444 L16.8329734,28.6011348 L16.1579628,28.6011348 C14.3512377,31.0807735 12.5936377,33.4929583 12.0025441,34.3041257 C10.6334732,36.183068 9.40871501,35.0408971 9.40871501,35.0408971 L14.2464947,26.1395576 C14.2464947,26.1395576 15.2060265,21.5946489 15.9496406,19.622082 L17.1612906,16.4074534 L16.5175192,13.3368862 L15.1564113,10.4895069 C15.1564113,10.4895069 11.6841498,10.6042031 10.8411217,10.6268107 C9.99815479,10.6493567 9.50947657,9.85987536 9.33496613,8.80598437 C9.16051695,7.75203196 8.68629448,4.80181298 8.68629448,4.80181298 C8.68629448,4.80181298 9.13650568,4.82718499 9.70401681,4.73657064 C10.2093559,4.65596994 10.5851444,4.42835898 10.5851444,4.42835898 L11.4526739,8.17579996 C11.4526739,8.17579996 13.1221918,7.78557463 14.5923304,7.43399094 C14.8310342,6.8057724 15.3930938,6.16895316 16.3838035,6.1690146 C16.7251677,6.1690146 18.2423488,6.16907603 18.2423488,6.16907603 L18.5168245,6.72050276 L22.2509436,6.72762904 L22.528727,6.1695675 C22.528727,6.1695675 23.4668201,6.16944463 24.0404565,6.16926033 C24.9349986,6.1690146 25.5797501,6.32677572 25.8598611,7.25337658 L29.6325084,8.7217591 C31.1968545,9.89464669 35.5764601,12.9868384 35.5764601,12.9868384 C35.5136143,13.1596507 34.4914205,13.9990775 32.9995982,13.1710159 Z M9.93831039,1.82953938 L9.87932354,1.44576456 L9.50408628,1.50375775 L9.56301188,1.88753257 L9.3390701,1.9221196 L9.28014449,1.53840622 L8.90484599,1.59646084 L8.96383284,1.98011279 L8.7399523,2.01469982 L8.68108796,1.63104788 L8.30578945,1.68897963 L8.36471505,2.07269301 L8.10322503,2.11311623 L8.16110933,2.48945759 L8.42253809,2.44909581 L8.48140244,2.83268633 L8.85670095,2.77469314 L8.79777535,2.39110263 L9.02165588,2.35645416 L9.08058149,2.74022897 L9.45587999,2.68223579 L9.39689314,2.29846097 L9.62083493,2.26387393 L9.67976053,2.64764875 L10.055059,2.58965556 L9.99613344,2.20588075 L10.2576235,2.16545753 L10.1997392,1.78911616 L9.93831039,1.82953938 Z M12.1775445,1.66477484 C12.1463666,1.62938917 12.0781305,1.56273387 11.9365131,1.45841986 C11.7294772,1.30581915 11.4715399,1.15137543 11.179852,1.01652899 L11.4206384,2.58289788 C11.8735448,2.17651555 12.1189864,1.80711617 12.1775445,1.66477484 Z M9.40632614,3.61061821 C10.0945674,3.5050141 10.6853547,3.15588775 11.0793355,2.86211295 L10.7700679,0.849737149 C10.2143787,0.652781481 9.57893772,0.544842894 8.95317478,0.64086339 C8.27804174,0.744501634 7.70771296,1.06235835 7.27985919,1.38666558 L7.58943299,3.40174445 C8.14518349,3.59876156 8.78074695,3.70676158 9.40632614,3.61061821 Z M7.17964891,3.23495261 L6.93923001,1.67030386 C6.92949074,1.67915027 6.9192002,1.68824243 6.90976721,1.69696598 C6.52846588,2.04977833 6.24547599,2.43078864 6.18134386,2.58590812 C6.21227674,2.62104806 6.28045158,2.68801053 6.42323284,2.79324605 C6.63033,2.94578532 6.88808356,3.10022904 7.17964891,3.23495261 Z M12.7544274,1.5771093 C12.8144556,1.97065203 12.1956755,2.65090472 11.8205607,2.99081605 C11.7542847,3.05089797 11.6764319,3.11822904 11.5882273,3.18955329 C11.1302369,3.55962844 10.3891341,4.03770362 9.49250942,4.17531456 C8.17617763,4.37755351 6.83479326,3.80523941 6.08603384,3.25362838 C5.69805592,2.96771707 5.62571586,2.80669997 5.60525728,2.67523237 L5.60513477,2.6743723 C5.5866363,2.55340982 5.60384846,2.36308897 5.90282545,1.96174418 C6.07096555,1.73609909 6.29717371,1.48661781 6.52350437,1.27719115 C7.02032928,0.817177416 7.83064819,0.235279696 8.86699149,0.076289905 C10.1838746,-0.125887607 11.5251977,0.446487927 12.2737121,0.998037518 C12.6622413,1.28431744 12.7343976,1.44558026 12.7544274,1.5771093 Z" id="Page-1"></path>
            </g>
        </g>
    </g>
</svg>