<?xml version="1.0" encoding="UTF-8"?>
<svg width="60px" height="60px" viewBox="0 0 60 60" version="1.1" xmlns="http://www.w3.org/2000/svg" xmlns:xlink="http://www.w3.org/1999/xlink">
    <!-- Generator: Sketch 49.2 (51160) - http://www.bohemiancoding.com/sketch -->
    <title>icone blanc</title>
    <desc>Created with Sketch.</desc>
    <defs></defs>
    <g id="icone-blanc" stroke="none" stroke-width="1" fill="none" fill-rule="evenodd">
        <g id="spelunking" transform="translate(-16.000000, -29.000000)" fill="#FFFFFF">
            <g id="rugbdy" transform="translate(25.000000, 41.000000)">
                <path d="M32.6749275,11.4390342 C32.6749275,11.4390342 32.0937787,11.5359762 31.102136,11.7243924 C31.4633092,10.9999697 31.5868571,10.0792058 31.4309616,9.24143838 C31.3933868,9.0393839 31.3080287,8.8968584 31.1907535,8.84009393 C31.1480129,8.81945231 31.1028124,8.81103593 31.057489,8.81103593 C30.9616148,8.81103593 30.8653101,8.84869461 30.7915135,8.88752052 C30.1742658,9.21244181 29.5917026,9.86609327 29.1068585,10.7778879 C28.6220143,11.6896211 28.4059131,12.5377707 28.4819236,13.2306167 C28.5001883,13.3967941 28.5555358,13.509893 28.6464287,13.5667803 C28.706942,13.6046847 28.7884258,13.6198588 28.8843,13.6139612 C28.8846075,13.6139612 28.884915,13.6139612 28.8852225,13.6138997 C29.0252516,13.1742208 29.3632404,12.6704669 29.9406378,12.4983305 C30.5180353,12.3261941 32.7960771,11.661546 32.7960771,11.661546 L32.6749275,11.4390342 Z M28.0563628,13.2772447 C27.9709432,12.4986991 28.2034642,11.5650956 28.728835,10.5772464 C29.2541443,9.5893972 29.8983893,8.8742509 30.591955,8.50915216 C30.7520323,8.42492696 30.9124785,8.38431948 31.0639462,8.38536385 C30.8547326,8.21175304 30.5885111,8.11290669 30.3103592,8.11290669 C30.2049529,8.11290669 30.0978248,8.1270978 29.9914346,8.15677014 C29.0740189,8.41288601 28.3001993,9.09154087 27.753612,10.1193832 C27.2069632,11.1472256 27.0772655,12.1676344 27.3784789,13.0704598 C27.5243503,13.5077428 27.9021893,13.8035447 28.3323009,13.8646095 C28.2116433,13.7594969 28.0896328,13.5803571 28.0563628,13.2772447 Z M33.0918787,13.6234833 C32.2636341,13.7537836 28.8769818,14.2329642 28.4968675,14.2329642 C28.1938091,14.2329642 27.9022508,14.1419813 27.6553394,13.9801043 L26.0869757,17.2063411 C28.1264697,19.3794865 29.4526574,21.42098 30.458875,22.8401532 C31.1307937,23.7878249 31.4374803,24.3046027 31.4360044,25.4841242 C31.4348975,26.3296322 31.422352,36.388554 31.422352,36.388554 C31.422352,36.388554 29.5285449,36.6780897 29.2543288,34.344726 C28.9131422,31.4357927 28.252908,25.5289706 28.252908,25.5289706 L21.3531037,20.5125028 L21.2302937,20.8528439 L22.7023528,22.5802899 C22.7023528,22.5802899 20.4277549,25.2921448 20.061047,25.7286291 C19.694339,26.1651749 19.3125642,26.5577958 18.241713,26.8969697 L7.13359206,30.1423737 C6.71288954,29.372306 7.32903025,28.2236855 8.3766355,27.7679111 L16.4995581,23.9546781 L19.3947245,19.0578211 C19.3430669,18.7295824 18.9352787,17.7597947 19.195904,16.5394815 C19.5628579,14.8211891 21.2406868,13.8811351 21.2406868,13.8811351 L21.724055,10.476557 L21.5642852,7.82158947 L17.9450504,8.55381425 L19.2882113,14.5709708 C18.8946906,14.762213 17.9797348,14.7328478 17.3909604,13.2895313 C17.1865436,12.7884805 16.2093527,10.4441816 15.9300323,9.64192277 C15.1731244,7.46828594 15.215865,6.91821121 16.5549671,6.37145388 C18.1465768,5.72154986 18.8498591,5.36929071 19.8553387,5.00142746 C21.6535791,4.34347567 22.2190461,4.17103209 23.5612846,4.36737326 C24.0771233,4.44281349 24.6957239,4.54393287 25.382156,4.66815122 L25.7382249,6.00137904 L27.5704733,6.91587674 L28.0263522,6.69975401 L26.2635957,5.73002767 L25.9212406,4.66753689 C25.6730378,3.8512712 25.3942709,2.81335378 25.4396559,2.39818682 C25.4924205,1.91495163 25.6823854,1.45119084 25.9826764,1.03178497 C26.8490493,-0.179067496 28.5131027,-0.273736377 29.5757748,0.484659039 C30.6374629,1.24244012 30.9942698,2.88523087 30.1394584,4.07986491 C29.9757528,4.30888866 29.5648898,4.88316815 29.1550723,5.45578894 C29.7135286,5.58842367 30.2777656,5.72996624 30.8370214,5.88004806 C31.7642766,6.12891479 32.2663399,7.15952163 32.7892509,8.05423778 C33.6129447,9.46339728 34.0632889,10.3512329 34.6439457,11.4754028 C35.2186373,12.5882076 34.2030721,13.4485824 33.0918787,13.6234833 Z" id="Fill-1"></path>
            </g>
        </g>
    </g>
</svg>