<?xml version="1.0" encoding="UTF-8"?>
<svg width="60px" height="60px" viewBox="0 0 60 60" version="1.1" xmlns="http://www.w3.org/2000/svg" xmlns:xlink="http://www.w3.org/1999/xlink">
    <!-- Generator: Sketch 49.2 (51160) - http://www.bohemiancoding.com/sketch -->
    <title>icone blanc</title>
    <desc>Created with Sketch.</desc>
    <defs></defs>
    <g id="icone-blanc" stroke="none" stroke-width="1" fill="none" fill-rule="evenodd">
        <g id="spelunking" transform="translate(-16.000000, -29.000000)" fill="#FFFFFF">
            <g id="volleyball" transform="translate(25.000000, 41.000000)">
                <path d="M31.5700084,6.95678103 C30.4818455,7.79505477 24.471847,12.2319356 24.471847,12.2319356 C24.6691413,13.1416135 25.9919851,15.4832394 25.717087,18.4272371 L25.3321655,20.2537869 C24.9782215,22.2638937 23.7578703,25.4875486 22.9713636,27.6602742 C22.3368066,29.4131651 21.784874,29.7164447 20.9751876,30.4659197 C20.1656081,31.2153409 14.5804813,36.3852147 14.5804813,36.3852147 C14.5804813,36.3852147 13.7284413,35.3919456 14.8710818,34.0237781 C16.0137757,32.6556105 19.3649479,28.6430742 19.3649479,28.6430742 L20.2987577,25.2524518 L21.4966769,23.6197132 L21.5956445,23.2591492 C21.5956445,23.2591492 18.9299284,25.6399669 17.4827476,26.8328453 C17.138524,27.1165828 16.376372,27.2832282 16.046302,27.1694648 C14.1446072,26.5141574 8.4,24.513607 8.4,24.513607 C8.4,24.513607 8.70101533,23.2135686 11.0114522,23.6524624 C13.321889,24.0913562 15.9001739,24.5818973 15.9001739,24.5818973 C15.9001739,24.5818973 18.4371734,20.6852719 18.5828742,20.4894206 C19.0970464,19.7976058 20.2521847,18.6821445 20.2521847,18.6821445 L20.7780002,16.7462872 L18.8248187,13.6613067 C18.8248187,13.6613067 15.0715272,12.5713468 14.5033581,12.3864477 C13.9350822,12.2016023 13.79312,11.6721916 13.8941706,11.0078648 C13.9952212,10.3435916 15.0521396,3.41390138 15.0521396,3.41390138 C15.0521396,3.41390138 16.0899375,3.33959814 16.0899375,4.83419932 C16.0899375,6.32885419 16.0462486,10.5378324 16.0462486,10.5378324 L20.3085316,11.3073863 L32.0336554,5.22477454 C32.0336554,5.22477454 32.6581714,6.11850728 31.5700084,6.95678103 Z M26.4901879,3.24698752 L26.1016346,3.05548486 L25.4414945,3.28252852 L25.6735583,3.96425006 C26.0221614,3.81022115 26.3021334,3.55595802 26.4901879,3.24698752 Z M25.381676,4.06475271 L25.1496122,3.38297749 L24.4894721,3.60996746 L24.298587,4.00140168 C24.646015,4.13411672 25.0210024,4.15596746 25.381676,4.06475271 Z M24.0205911,3.8671297 L24.1161405,3.671171 C24.0412071,3.61640994 23.1459589,2.92996392 23.4328741,1.74057513 L23.2412947,1.64624652 C23.0911609,2.04342528 23.0831495,2.47678929 23.2216934,2.8839002 C23.3639226,3.30174858 23.6452833,3.6462064 24.0205911,3.8671297 Z M23.3748715,1.36675035 L23.715303,1.53446952 L24.4360627,1.28659519 L24.2093399,0.620442976 C23.8583868,0.775062445 23.5687476,1.03405006 23.3748715,1.36675035 Z M24.9399269,0.465179259 C24.7944397,0.465179259 24.6472435,0.483003448 24.5011154,0.519779259 L24.7279985,1.18619991 L25.4487582,0.938325571 L25.6153421,0.596713182 C25.4026659,0.511135601 25.1736464,0.465179259 24.9399269,0.465179259 Z M23.7032325,1.84403059 C23.6441083,2.11123236 23.6542561,2.34632911 23.7015768,2.54840817 L26.075731,1.73187778 C25.9900089,1.54300581 25.8546696,1.35096628 25.6451445,1.17616038 L23.7032325,1.84403059 Z M26.1741111,2.7252005 C26.2010829,2.60392085 26.2423683,2.3358064 26.1737373,2.02592321 L23.8033217,2.8411651 C23.9378599,3.12823118 24.1337656,3.31474091 24.2292616,3.39414445 L26.1741111,2.7252005 Z M25.8908277,0.736192828 L25.7968806,0.928822917 C26.7437223,1.68941112 26.4602786,2.77695507 26.432666,2.8733238 L26.6281443,2.96963885 C26.7841532,2.5778825 26.8074397,2.13055979 26.6612048,1.70095389 C26.5188687,1.28283708 26.239324,0.950619967 25.8908277,0.736192828 Z M25.679647,4.46123354 C25.4375956,4.54444888 25.1880135,4.58578811 24.9394462,4.58578811 C24.5962375,4.58578811 24.2550583,4.50697513 23.9377531,4.35069135 C23.390841,4.08118103 22.9810307,3.61377926 22.78395,3.03443944 L22.78395,3.03449312 C22.5867092,2.4551533 22.625698,1.83334681 22.8938666,1.28353501 C23.1619283,0.733776899 23.6269639,0.321887813 24.2032512,0.123620557 C25.3932658,-0.285584163 26.6919686,0.354529701 27.0990015,1.55036097 C27.5060345,2.74624593 26.8692877,4.0520825 25.679647,4.46123354 Z M20.8629211,10.3495509 C20.8629211,10.3495509 21.1968366,10.1821539 21.5903036,9.97798103 C21.9425919,9.79528309 22.2548766,9.67019165 22.1293646,9.40009076 C21.8351322,8.76668781 21.1682626,7.3395179 21.0054707,6.98904711 C20.4972804,5.89447011 19.1830889,5.48757395 18.2165926,5.94214445 C17.2496156,6.39725183 16.6495077,7.62712085 17.164481,8.73613973 C17.3428684,9.12037985 17.5970437,9.44336274 17.91985,9.67609725 C18.4069971,10.0268902 20.8629211,10.3495509 20.8629211,10.3495509 Z" id="Fill-1"></path>
            </g>
        </g>
    </g>
</svg>