<?xml version="1.0" encoding="UTF-8"?>
<svg width="60px" height="60px" viewBox="0 0 60 60" version="1.1" xmlns="http://www.w3.org/2000/svg" xmlns:xlink="http://www.w3.org/1999/xlink">
    <!-- Generator: Sketch 49.2 (51160) - http://www.bohemiancoding.com/sketch -->
    <title>icone blanc</title>
    <desc>Created with Sketch.</desc>
    <defs></defs>
    <g id="icone-blanc" stroke="none" stroke-width="1" fill="none" fill-rule="evenodd">
        <g id="spelunking" transform="translate(-16.000000, -29.000000)" fill="#FFFFFF">
            <g id="handball" transform="translate(25.000000, 41.000000)">
                <path d="M16.5228883,0.385382209 C16.3985123,0.385382209 16.2732963,0.399060123 16.1508243,0.426080982 L16.0778003,0.442159509 L16.5114083,0.709241718 L16.9512323,0.43836319 L16.8770883,0.422731288 C16.7594883,0.397943558 16.6403203,0.385382209 16.5228883,0.385382209 Z M16.6505683,0.949247239 L16.6505683,1.18690798 L17.3608163,1.70136503 L17.5417523,1.58719632 L17.5262403,0.703268098 L17.5133603,0.694447239 C17.4454323,0.647830675 17.3725763,0.605233742 17.2970323,0.567884663 L17.2819123,0.560403681 L16.6505683,0.949247239 Z M15.7355843,0.574137423 C15.6554483,0.614557055 15.5780563,0.661452761 15.5055923,0.713428834 L15.4932723,0.722305521 L15.4780403,1.58714049 L15.6605443,1.70231411 L16.3723603,1.18674049 L16.3723603,0.949247239 L15.7507603,0.566488957 L15.7355843,0.574137423 Z M15.1549203,1.04951472 C15.0802723,1.14459018 15.0153123,1.24792822 14.9618323,1.3566816 C14.9085203,1.46521166 14.8664083,1.57954785 14.8367283,1.69645215 L14.8207123,1.75964969 L15.2002803,1.57536074 L15.2106963,0.978389571 L15.1549203,1.04951472 Z M17.8195123,1.57536074 L18.2306643,1.77494663 L18.2156003,1.71253067 C18.2028883,1.66021963 18.1878243,1.60846687 18.1707443,1.5586681 C18.1020323,1.35852393 17.9987123,1.17518405 17.8636963,1.01389632 L17.8085363,0.94796319 L17.8195123,1.57536074 Z M15.8300563,1.92199816 L16.0902883,2.72045337 L16.9323603,2.72045337 L17.1925363,1.92199816 L16.5112963,1.42853252 L15.8300563,1.92199816 Z M14.7840323,2.0856865 L14.7838643,2.10438896 C14.7821843,2.30062515 14.8138243,2.49490736 14.8780003,2.68176442 C14.9104803,2.77639325 14.9514723,2.86901227 14.9998563,2.95699755 L15.0077523,2.9713454 L15.6957683,3.02611288 L15.8350963,2.83428712 L15.5505603,1.96113374 L15.3286883,1.82117239 L14.7840323,2.0856865 Z M17.4727603,1.95890061 L17.1878323,2.83344969 L17.3277763,3.02611288 L18.0404883,2.96939141 L18.0483843,2.95504356 C18.1897283,2.69828957 18.2644323,2.40898773 18.2644323,2.11845767 L18.2644323,2.09958773 L17.6910483,1.82117239 L17.4727603,1.95890061 Z M15.2694963,3.32323067 C15.4093843,3.46838405 15.5739123,3.58774479 15.7584883,3.67796319 L15.8380643,3.71587055 L15.6667043,3.30179264 L15.2141123,3.26572761 L15.2694963,3.32323067 Z M17.3568403,3.30179264 L17.1806643,3.72765031 L17.2507763,3.69560491 C17.4504723,3.60426994 17.6282723,3.47826564 17.7793603,3.32122086 L17.8346323,3.26377362 L17.3568403,3.30179264 Z M15.9208323,3.18918712 L16.1826323,3.822 L16.1987043,3.82501472 C16.3051603,3.8453362 16.4138563,3.85566442 16.5218243,3.85566442 C16.6219523,3.85566442 16.7232003,3.84678773 16.8227123,3.8293135 L16.8391203,3.82641043 L17.1027123,3.18924294 L16.9636083,2.99758466 L16.0599363,2.99758466 L15.9208323,3.18918712 Z M16.5224403,4.24143742 C16.1979763,4.24143742 15.8837043,4.16824663 15.5884163,4.02393067 C15.0782563,3.7747135 14.6961123,3.34237975 14.5122643,2.80654049 C14.3283603,2.27070123 14.3647043,1.69561472 14.6147443,1.18713129 C14.8647283,0.678592025 15.2983923,0.297620245 15.8358243,0.114336196 C16.0583123,0.0384656442 16.2893123,0 16.5226083,0 C17.4327763,0 18.2420883,0.576203067 18.5365363,1.43394785 C18.9161043,2.54001656 18.3223363,3.74774847 17.2128643,4.12615215 C16.9886963,4.20263681 16.7564643,4.24143742 16.5226083,4.24143742 L16.5224403,4.24143742 Z M36.2529203,17.5007515 C35.6503603,16.7771061 31.9001523,12.3845417 31.6686483,12.104619 C31.3897123,11.7671933 31.2946803,11.6985804 30.9969843,11.567384 C30.7598803,11.4629294 28.7733363,10.5128448 28.5154563,10.3901344 C27.2421843,9.78434233 26.8898323,9.66152025 26.1286803,9.63662086 C25.4775123,9.61535031 19.7097923,9.44485092 19.7097923,9.44485092 L15.2869683,8.68826687 L16.6132723,4.8069773 C16.0820563,4.8069773 15.4157123,4.63296074 15.0741683,4.34605951 C15.0728803,4.34494294 14.1884163,5.97099571 12.8880963,8.49080245 C12.3848803,9.46595399 12.4365123,10.2721135 13.3851523,10.6151221 C15.1157203,11.240789 18.2752963,12.3313933 18.2752963,12.3313933 L19.3646083,18.863016 L16.1436563,24.4690626 C16.1436563,24.4690626 7.86702432,32.4628264 6.36286432,33.9060975 C4.85870432,35.3493129 6.04299232,36.3869362 6.04299232,36.3869362 L21.4687523,25.1810399 L22.0612323,25.1810399 L19.6734483,26.9380656 L19.5879363,28.3245037 L17.1488003,28.8851307 L14.2169203,31.0426123 C14.2169203,31.0426123 20.5543843,31.043338 20.9839043,31.043338 C21.7238323,31.043338 22.3227523,30.690392 22.5490483,30.204519 C22.7387763,29.7971405 25.6219923,23.6218693 26.0022883,22.8323466 C26.5537203,21.687589 26.4777843,20.6909436 26.2958403,19.3501172 C26.1902803,18.5724859 26.1275043,18.2024006 26.1275043,18.2024006 L27.0345923,13.0673767 L30.4873283,14.2484785 L36.2894323,19.5711969 C36.6470483,19.3625669 36.9019043,18.280616 36.2529203,17.5007515 Z M19.8861363,6.10604417 C19.7482083,5.66394049 19.7379043,5.18683252 19.8408323,4.70665399 C20.1379123,3.32038344 21.5580723,2.6065638 22.7769123,2.86616503 C23.9949123,3.12559877 24.9328563,4.42527975 24.6398083,5.79329448 C24.5457843,6.23149018 24.2149363,7.77564294 24.0452563,8.56751043 C23.9729043,8.90510368 23.5908163,8.84525583 23.1334083,8.82967975 C22.6169203,8.81214969 22.1540243,8.7967411 22.1540243,8.7967411 C22.1540243,8.7967411 20.0940083,6.77246564 19.8861363,6.10604417 Z" id="Fill-1"></path>
            </g>
        </g>
    </g>
</svg>