<?xml version="1.0" encoding="UTF-8"?>
<svg width="44px" height="53px" viewBox="0 0 44 53" version="1.1" xmlns="http://www.w3.org/2000/svg" xmlns:xlink="http://www.w3.org/1999/xlink">
    <!-- Generator: Sketch 49.2 (51160) - http://www.bohemiancoding.com/sketch -->
    <title>location-pin-selected</title>
    <desc>Created with Sketch.</desc>
    <defs>
        <path d="M7.52,2.74985211e-16 C3.36,2.74985211e-16 0,3.37272727 0,7.54848485 L0,32.2015152 C0,36.3772727 3.36,39.75 7.52,39.75 L13.04,39.75 C13.36,39.75 15.2,39.9106061 15.36,40.1515152 L21.76,52.8393939 L28.16,40.1515152 C28.32,39.9106061 30.16,39.75 30.48,39.75 L36.08,39.75 C40.24,39.75 43.6,36.3772727 43.6,32.2015152 L43.6,7.54848485 C43.6,3.37272727 40.24,0 36.08,0 C31.5534722,4.35829201e-17 28.1585764,7.62701102e-17 25.8953125,9.80615702e-17 C21.8119097,1.37377935e-16 15.6868056,1.96352482e-16 7.52,2.74985211e-16 Z" id="path-1"></path>
        <filter x="-18.3%" y="-13.2%" width="136.7%" height="130.3%" filterUnits="objectBoundingBox" id="filter-2">
            <feOffset dx="0" dy="1" in="SourceAlpha" result="shadowOffsetOuter1"></feOffset>
            <feGaussianBlur stdDeviation="2.5" in="shadowOffsetOuter1" result="shadowBlurOuter1"></feGaussianBlur>
            <feComposite in="shadowBlurOuter1" in2="SourceAlpha" operator="out" result="shadowBlurOuter1"></feComposite>
            <feColorMatrix values="0 0 0 0 0   0 0 0 0 0   0 0 0 0 0  0 0 0 0.271993886 0" type="matrix" in="shadowBlurOuter1"></feColorMatrix>
        </filter>
    </defs>
    <g id="location-pin-selected" stroke="none" stroke-width="1" fill="none" fill-rule="evenodd">
        <g id="location-pin-orange">
            <g id="Path">
                <use fill="black" fill-opacity="1" filter="url(#filter-2)" xlink:href="#path-1"></use>
                <use fill="#EC6607" fill-rule="evenodd" xlink:href="#path-1"></use>
                <path stroke="#FFFFFF" stroke-width="1.6" d="M21.7603516,51.0637612 L27.493587,39.7089163 C27.8561269,39.1630466 29.4327868,38.95 30.48,38.95 L36.08,38.95 C39.7974937,38.95 42.8,35.9361206 42.8,32.2015152 L42.8,7.54848485 C42.8,3.81387942 39.7974937,0.8 36.08,0.8 C29.8560243,0.8 29.8560243,0.8 25.8953125,0.8 C18.7493576,0.8 18.7493576,0.8 7.52,0.8 C3.80250629,0.8 0.8,3.81387942 0.8,7.54848485 L0.8,32.2015152 C0.8,35.9361206 3.80250629,38.95 7.52,38.95 L13.04,38.95 C14.0872132,38.95 15.6638731,39.1630466 16.0742749,39.7912217 L21.7603516,51.0637612 Z M28.6049411,40.8017139 C28.6026515,40.8025804 28.6005695,40.8034023 28.5987008,40.8041765 C28.6031444,40.8023356 28.6075985,40.8004198 28.6120829,40.798383 Z"></path>
            </g>
        </g>
        <g id="danse-classique" transform="translate(7.000000, 8.000000)" fill="#FFFFFF">
            <path d="M18.2882906,3.44971657 C18.5343365,3.51386158 18.7820602,3.46645195 18.9825126,3.33833673 C19.3192004,3.87181517 19.7187629,4.41394532 19.7187629,4.41394532 C19.7187629,4.41394532 20.0083891,4.46633624 20.3309836,4.52445126 C20.6171704,4.57631783 20.8519752,4.65042541 20.9269299,4.43531243 C21.102677,3.93093519 21.4454887,2.94726194 21.5428836,2.66809135 C21.8468548,1.79658446 21.3707437,0.858398233 20.6285373,0.577610905 C19.8852403,0.296474014 18.9308371,0.63620658 18.6231748,1.51924908 C18.6145342,1.54402443 18.607152,1.56897457 18.5994342,1.593881 C18.1583048,1.54686464 17.7395318,1.84298909 17.6288405,2.30423886 C17.5072855,2.81027653 17.8024065,3.32321808 18.2882906,3.44971657 M26.0308941,1.74393138 C25.2323144,3.19200047 24.4868783,4.58011934 24.4868783,4.58011934 L22.0362758,6.90874029 L21.9120364,5.91095339 L21.7422035,6.03260168 L21.7352826,6.03753927 C21.7352826,6.03753927 21.7734521,7.32275522 21.7734521,7.69027812 C21.7734521,8.15878135 21.7278585,8.24621606 21.4969545,8.55745915 C21.3353846,8.77532495 18.9765984,11.8780118 18.9765984,11.8780118 L18.9736623,25.982703 C17.8956069,26.045843 17.7224185,24.9334864 17.6855493,24.3600266 C17.6486382,23.7866542 17.3192907,18.3450779 17.3192907,18.3450779 L15.89813,12.5587004 L17.0848214,12.366615 L16.8185163,12.133281 L15.6094685,12.1749228 L9.88267161,11.653111 C9.88267161,11.653111 5.71247392,11.1506127 4.23997326,10.9749568 C2.76751455,10.7993008 2.88680447,9.56341711 2.88680447,9.56341711 L10.015174,9.81195716 L14.2714836,9.28031392 C14.8632354,8.92594336 15.8657489,8.60692247 16.8280377,8.65804621 L17.276801,8.01554748 L17.3795648,6.62410776 L14.3233688,6.59885175 C14.3233688,6.59885175 11.0277122,6.12104139 10.5503848,6.0518277 C10.0729734,5.98261402 9.41138416,5.66931724 9.37455696,4.73772903 L14.5255829,5.20898507 C14.5255829,5.20898507 17.5566961,4.78116236 17.9101197,4.73130579 C18.2673603,4.68088117 18.5488073,4.67555032 18.8397757,4.72846558 C19.1259625,4.78050693 21.3345038,5.18552058 21.3345038,5.18552058 L23.5448906,3.65495437 L25.7597654,0 C25.7597654,0 26.5182882,0.860102357 26.0308941,1.74393138" id="Fill-1"></path>
        </g>
    </g>
</svg>