<?xml version="1.0" encoding="UTF-8"?>
<svg width="44px" height="53px" viewBox="0 0 44 53" version="1.1" xmlns="http://www.w3.org/2000/svg" xmlns:xlink="http://www.w3.org/1999/xlink">
    <!-- Generator: Sketch 49.2 (51160) - http://www.bohemiancoding.com/sketch -->
    <title>location-pin-selected</title>
    <desc>Created with Sketch.</desc>
    <defs>
        <path d="M7.52,2.74985211e-16 C3.36,2.74985211e-16 0,3.37272727 0,7.54848485 L0,32.2015152 C0,36.3772727 3.36,39.75 7.52,39.75 L13.04,39.75 C13.36,39.75 15.2,39.9106061 15.36,40.1515152 L21.76,52.8393939 L28.16,40.1515152 C28.32,39.9106061 30.16,39.75 30.48,39.75 L36.08,39.75 C40.24,39.75 43.6,36.3772727 43.6,32.2015152 L43.6,7.54848485 C43.6,3.37272727 40.24,0 36.08,0 C31.5534722,4.35829201e-17 28.1585764,7.62701102e-17 25.8953125,9.80615702e-17 C21.8119097,1.37377935e-16 15.6868056,1.96352482e-16 7.52,2.74985211e-16 Z" id="path-1"></path>
        <filter x="-18.3%" y="-13.2%" width="136.7%" height="130.3%" filterUnits="objectBoundingBox" id="filter-2">
            <feOffset dx="0" dy="1" in="SourceAlpha" result="shadowOffsetOuter1"></feOffset>
            <feGaussianBlur stdDeviation="2.5" in="shadowOffsetOuter1" result="shadowBlurOuter1"></feGaussianBlur>
            <feComposite in="shadowBlurOuter1" in2="SourceAlpha" operator="out" result="shadowBlurOuter1"></feComposite>
            <feColorMatrix values="0 0 0 0 0   0 0 0 0 0   0 0 0 0 0  0 0 0 0.271993886 0" type="matrix" in="shadowBlurOuter1"></feColorMatrix>
        </filter>
    </defs>
    <g id="location-pin-selected" stroke="none" stroke-width="1" fill="none" fill-rule="evenodd">
        <g id="location-pin-orange">
            <g id="Path">
                <use fill="black" fill-opacity="1" filter="url(#filter-2)" xlink:href="#path-1"></use>
                <use fill="#EC6607" fill-rule="evenodd" xlink:href="#path-1"></use>
                <path stroke="#FFFFFF" stroke-width="1.6" d="M21.7603516,51.0637612 L27.493587,39.7089163 C27.8561269,39.1630466 29.4327868,38.95 30.48,38.95 L36.08,38.95 C39.7974937,38.95 42.8,35.9361206 42.8,32.2015152 L42.8,7.54848485 C42.8,3.81387942 39.7974937,0.8 36.08,0.8 C29.8560243,0.8 29.8560243,0.8 25.8953125,0.8 C18.7493576,0.8 18.7493576,0.8 7.52,0.8 C3.80250629,0.8 0.8,3.81387942 0.8,7.54848485 L0.8,32.2015152 C0.8,35.9361206 3.80250629,38.95 7.52,38.95 L13.04,38.95 C14.0872132,38.95 15.6638731,39.1630466 16.0742749,39.7912217 L21.7603516,51.0637612 Z M28.6049411,40.8017139 C28.6026515,40.8025804 28.6005695,40.8034023 28.5987008,40.8041765 C28.6031444,40.8023356 28.6075985,40.8004198 28.6120829,40.798383 Z"></path>
            </g>
        </g>
        <g id="gymnastique-artistique" transform="translate(7.000000, 7.000000)" fill="#FFFFFF">
            <path d="M13.9300907,16.024717 L14.7659776,15.5397832 L14.8075083,15.8253527 C14.8075083,15.8253527 14.7604567,15.8514234 14.7365601,15.8646214 C14.4473699,16.0245311 14.1900693,16.1251426 14.257227,16.3893816 C14.4149447,17.0090837 14.7222633,18.2177237 14.8095271,18.5606859 C14.9042484,18.9331578 15.0888703,19.2439616 15.3247051,19.4797133 C15.3872071,20.1841336 15.5791216,22.2958611 15.7697177,23.8836184 C15.8493181,24.5468182 16.252388,24.8712382 16.5642388,25.0250136 L14.4407365,25.0250136 L13.9300907,16.024717 Z M16.9439477,25.0250136 L16.9325762,19.9233336 C17.775797,19.6504974 18.426856,18.616731 18.1508502,17.5317991 C18.1328453,17.460976 18.1115443,17.3923371 18.0886366,17.32486 C18.2810867,17.1390655 18.3906815,16.8520089 18.3588743,16.5468747 C18.3081558,16.0603144 17.9173638,15.7121937 17.4859888,15.7693541 C17.2563753,15.7997932 17.0623183,15.9394411 16.9379735,16.1362029 C16.9283737,16.1318346 16.9186091,16.1274662 16.908968,16.1230514 C16.8774904,15.3818718 16.8034109,14.7050558 16.6412024,14.3907666 C16.3053726,13.7401607 15.3639697,11.4010929 15.3639697,11.4010929 L16.1399091,7.82276029 C16.1399091,7.82276029 17.0738958,7.18762948 17.4677779,5.84078225 L19.6419987,4.33737135 C19.6419987,4.33737135 20.595597,6.084713 21.5524915,7.9647318 C22.1911078,9.21947182 23.1587558,9.31288024 23.6797019,9.07750031 C23.6797019,9.07750031 22.676415,6.79629001 21.2283628,3.34003892 C20.4208634,1.41289767 19.9616776,1.28747014 18.7132857,1.99151871 C17.5472959,2.64904895 13.6747265,4.8330866 13.6747265,4.8330866 L9.00528756,6.81585466 C9.00528756,6.81585466 9.85699573,4.97068976 10.9051505,2.78888275 C11.5398116,1.46778093 11.0919149,0.20667427 10.5983675,1.39415557e-05 C10.5983675,1.39415557e-05 8.2946106,4.02628877 6.79365623,7.01382475 C5.85975195,8.87269885 7.27484333,9.88299693 9.14434112,9.41525773 C11.4382922,8.84133035 11.9666957,8.74620247 11.9666957,8.74620247 C11.8404556,9.56694186 11.6538149,10.1598762 11.2962309,12.0525354 C11.2392499,12.3542771 11.3755842,13.5932167 11.5597529,14.2823478 C11.769219,15.0663744 12.0404043,15.9785704 12.0404043,15.9785704 C12.0404043,15.9785704 12.8546608,22.1781944 13.1734333,23.7161338 C13.3083668,24.367251 13.543872,24.8170056 13.9383721,25.0250136 L4.79388071,25.0250136 L3.87167753,26.62332 L7.76715471,26.62332 L7.76715471,28.3151743 L9.43666259,28.3151743 L9.43666259,26.62332 L19.0562433,26.62332 L19.0562433,28.3151743 L20.7257512,28.3151743 L20.7257512,26.62332 L23.6990252,26.62332 L24.6212284,25.0250136 L16.9439477,25.0250136 Z" id="Fill-1"></path>
        </g>
    </g>
</svg>