<?xml version="1.0" encoding="UTF-8"?>
<svg width="44px" height="53px" viewBox="0 0 44 53" version="1.1" xmlns="http://www.w3.org/2000/svg" xmlns:xlink="http://www.w3.org/1999/xlink">
    <!-- Generator: Sketch 49.2 (51160) - http://www.bohemiancoding.com/sketch -->
    <title>location-pin-selected</title>
    <desc>Created with Sketch.</desc>
    <defs>
        <path d="M7.52,2.74985211e-16 C3.36,2.74985211e-16 0,3.37272727 0,7.54848485 L0,32.2015152 C0,36.3772727 3.36,39.75 7.52,39.75 L13.04,39.75 C13.36,39.75 15.2,39.9106061 15.36,40.1515152 L21.76,52.8393939 L28.16,40.1515152 C28.32,39.9106061 30.16,39.75 30.48,39.75 L36.08,39.75 C40.24,39.75 43.6,36.3772727 43.6,32.2015152 L43.6,7.54848485 C43.6,3.37272727 40.24,0 36.08,0 C31.5534722,4.35829201e-17 28.1585764,7.62701102e-17 25.8953125,9.80615702e-17 C21.8119097,1.37377935e-16 15.6868056,1.96352482e-16 7.52,2.74985211e-16 Z" id="path-1"></path>
        <filter x="-18.3%" y="-13.2%" width="136.7%" height="130.3%" filterUnits="objectBoundingBox" id="filter-2">
            <feOffset dx="0" dy="1" in="SourceAlpha" result="shadowOffsetOuter1"></feOffset>
            <feGaussianBlur stdDeviation="2.5" in="shadowOffsetOuter1" result="shadowBlurOuter1"></feGaussianBlur>
            <feComposite in="shadowBlurOuter1" in2="SourceAlpha" operator="out" result="shadowBlurOuter1"></feComposite>
            <feColorMatrix values="0 0 0 0 0   0 0 0 0 0   0 0 0 0 0  0 0 0 0.271993886 0" type="matrix" in="shadowBlurOuter1"></feColorMatrix>
        </filter>
    </defs>
    <g id="location-pin-selected" stroke="none" stroke-width="1" fill="none" fill-rule="evenodd">
        <g id="location-pin-orange">
            <g id="Path">
                <use fill="black" fill-opacity="1" filter="url(#filter-2)" xlink:href="#path-1"></use>
                <use fill="#EC6607" fill-rule="evenodd" xlink:href="#path-1"></use>
                <path stroke="#FFFFFF" stroke-width="1.6" d="M21.7603516,51.0637612 L27.493587,39.7089163 C27.8561269,39.1630466 29.4327868,38.95 30.48,38.95 L36.08,38.95 C39.7974937,38.95 42.8,35.9361206 42.8,32.2015152 L42.8,7.54848485 C42.8,3.81387942 39.7974937,0.8 36.08,0.8 C29.8560243,0.8 29.8560243,0.8 25.8953125,0.8 C18.7493576,0.8 18.7493576,0.8 7.52,0.8 C3.80250629,0.8 0.8,3.81387942 0.8,7.54848485 L0.8,32.2015152 C0.8,35.9361206 3.80250629,38.95 7.52,38.95 L13.04,38.95 C14.0872132,38.95 15.6638731,39.1630466 16.0742749,39.7912217 L21.7603516,51.0637612 Z M28.6049411,40.8017139 C28.6026515,40.8025804 28.6005695,40.8034023 28.5987008,40.8041765 C28.6031444,40.8023356 28.6075985,40.8004198 28.6120829,40.798383 Z"></path>
            </g>
        </g>
        <g id="musculation" transform="translate(8.000000, 8.000000)" fill="#FFFFFF">
            <path d="M18.8772819,6.13356594 L17.4054914,5.98470759 C17.7775737,6.30146601 17.8093437,6.66751754 17.9619797,7.32041876 C18.1151764,7.97532695 18.1893219,8.28214843 18.1893219,8.28214843 L18.8772819,6.13356594 Z M11.2262792,5.35970813 L9.98337257,5.2339544 L9.64745187,7.20969282 L11.2262792,5.35970813 Z M24.8171447,9.60058009 C24.6545572,9.60058009 24.1637112,9.56920285 23.9497311,9.54183954 C22.820262,9.39758254 22.0127442,8.13142997 21.8764604,6.43696088 L20.247829,6.27224259 C20.2119009,6.46031025 20.1641525,6.65655264 20.1057518,6.85930544 C19.748947,8.09853526 19.5655222,8.64824891 19.3231827,9.4252885 C18.5892497,11.7782881 17.4183862,10.8279639 17.1937071,10.2754111 C16.8365286,9.39728884 16.5822287,8.59298384 16.5822287,8.59298384 L15.9593037,12.1826679 C15.9593037,12.1826679 17.8907309,14.3233693 18.5697673,14.9400962 C19.6657845,15.9355527 19.9149918,16.4903082 19.4131198,17.9853042 C19.1612026,18.7357147 17.0518636,25.2915518 17.0518636,25.2915518 C16.1228256,25.0321633 16.0527448,23.6370752 16.3333016,22.3203079 C16.5685863,21.2160345 17.103957,17.958822 17.103957,17.958822 L14.6603324,15.5175158 L14.1686455,18.7149597 L10.3803103,25.1220853 C9.30162641,24.5916092 10.0975108,22.9105036 10.3216293,22.2701826 C10.740479,21.0735887 11.9646973,18.2158119 11.9646973,18.2158119 C11.9646973,18.2158119 11.4239538,16.2834436 11.224971,14.5975408 C11.1625991,14.0692185 11.1640474,13.6485872 11.2872495,13.1861523 C11.4741316,12.4845453 11.5792528,12.2928064 11.856586,11.9448176 L11.4274111,8.29928109 C11.4274111,8.29928109 10.2481379,9.15875325 9.35381326,9.8099412 C8.45953536,10.4611292 7.65281176,9.73137572 7.78320879,9.07431371 C8.07320319,7.61328936 8.36772949,6.1994043 8.61707703,5.09576725 L6.76437392,4.9083849 C6.62098858,6.37596861 5.87191812,7.56556266 4.90073821,7.56556266 C4.78075986,7.56556266 4.03332462,7.50745847 4.03332462,7.50745847 C4.03332462,7.50745847 4.36209708,7.542507 4.0332779,7.50687106 C3.02224537,7.39741784 2.1032523,6.10718164 1.96150218,4.42255159 L0.928791312,4.31814026 L0.928791312,3.55549211 L1.95075645,3.65887548 C2.03961892,2.08942587 2.85774234,0.81617548 3.83032387,0.790035935 C3.93768767,0.787147858 4.52851565,0.832769685 4.75417587,0.855042144 C5.77875736,0.956075892 6.67845485,2.35204508 6.77974498,4.07172365 C6.78128676,4.09712894 6.78189413,4.12228948 6.78306214,4.14759686 L8.78760701,4.35034967 C8.99275691,3.46478691 9.13006858,2.91174463 9.13006858,2.91174463 C9.9757104,3.05747014 10.0790562,4.03075212 10.0808783,4.48119424 L19.113828,5.39480561 L19.494507,4.20604371 C20.0756171,4.37996469 20.3182836,4.85801488 20.3243572,5.51723071 L21.8682375,5.67343162 C21.962613,4.1136742 22.76359,2.86073825 23.7467304,2.82500441 C23.8949747,2.81961986 24.5481279,2.87821356 24.6705824,2.89001062 C25.6611513,2.98541507 26.5949081,4.38701356 26.6961982,6.10669213 C26.8054309,7.96215928 25.8580317,9.60058009 24.8171447,9.60058009 Z M12.8112268,2.3966879 C12.728111,2.05770597 12.7380625,1.69743059 12.8294946,1.33901533 C13.0930451,0.304349481 14.1386509,-0.180553765 15.0043358,0.0611636009 C15.8692732,0.302929918 16.4955153,1.31899459 16.2355155,2.33975851 C16.1522128,2.66709023 15.8813271,3.73034315 15.7306066,4.32137099 C15.6664126,4.57331901 15.4392573,4.59936065 15.111793,4.56543798 C14.7341042,4.52637552 14.165889,4.45774697 14.165889,4.45774697 C14.165889,4.45774697 12.9361576,2.90733909 12.8112268,2.3966879 Z" id="Fill-1"></path>
        </g>
    </g>
</svg>