<?xml version="1.0" encoding="UTF-8"?>
<svg width="44px" height="53px" viewBox="0 0 44 53" version="1.1" xmlns="http://www.w3.org/2000/svg" xmlns:xlink="http://www.w3.org/1999/xlink">
    <!-- Generator: Sketch 49.2 (51160) - http://www.bohemiancoding.com/sketch -->
    <title>location-pin-selected</title>
    <desc>Created with Sketch.</desc>
    <defs>
        <path d="M7.52,2.74985211e-16 C3.36,2.74985211e-16 0,3.37272727 0,7.54848485 L0,32.2015152 C0,36.3772727 3.36,39.75 7.52,39.75 L13.04,39.75 C13.36,39.75 15.2,39.9106061 15.36,40.1515152 L21.76,52.8393939 L28.16,40.1515152 C28.32,39.9106061 30.16,39.75 30.48,39.75 L36.08,39.75 C40.24,39.75 43.6,36.3772727 43.6,32.2015152 L43.6,7.54848485 C43.6,3.37272727 40.24,0 36.08,0 C31.5534722,4.35829201e-17 28.1585764,7.62701102e-17 25.8953125,9.80615702e-17 C21.8119097,1.37377935e-16 15.6868056,1.96352482e-16 7.52,2.74985211e-16 Z" id="path-1"></path>
        <filter x="-18.3%" y="-13.2%" width="136.7%" height="130.3%" filterUnits="objectBoundingBox" id="filter-2">
            <feOffset dx="0" dy="1" in="SourceAlpha" result="shadowOffsetOuter1"></feOffset>
            <feGaussianBlur stdDeviation="2.5" in="shadowOffsetOuter1" result="shadowBlurOuter1"></feGaussianBlur>
            <feComposite in="shadowBlurOuter1" in2="SourceAlpha" operator="out" result="shadowBlurOuter1"></feComposite>
            <feColorMatrix values="0 0 0 0 0   0 0 0 0 0   0 0 0 0 0  0 0 0 0.271993886 0" type="matrix" in="shadowBlurOuter1"></feColorMatrix>
        </filter>
    </defs>
    <g id="location-pin-selected" stroke="none" stroke-width="1" fill="none" fill-rule="evenodd">
        <g id="location-pin-orange">
            <g id="Path">
                <use fill="black" fill-opacity="1" filter="url(#filter-2)" xlink:href="#path-1"></use>
                <use fill="#EC6607" fill-rule="evenodd" xlink:href="#path-1"></use>
                <path stroke="#FFFFFF" stroke-width="1.6" d="M21.7603516,51.0637612 L27.493587,39.7089163 C27.8561269,39.1630466 29.4327868,38.95 30.48,38.95 L36.08,38.95 C39.7974937,38.95 42.8,35.9361206 42.8,32.2015152 L42.8,7.54848485 C42.8,3.81387942 39.7974937,0.8 36.08,0.8 C29.8560243,0.8 29.8560243,0.8 25.8953125,0.8 C18.7493576,0.8 18.7493576,0.8 7.52,0.8 C3.80250629,0.8 0.8,3.81387942 0.8,7.54848485 L0.8,32.2015152 C0.8,35.9361206 3.80250629,38.95 7.52,38.95 L13.04,38.95 C14.0872132,38.95 15.6638731,39.1630466 16.0742749,39.7912217 L21.7603516,51.0637612 Z M28.6049411,40.8017139 C28.6026515,40.8025804 28.6005695,40.8034023 28.5987008,40.8041765 C28.6031444,40.8023356 28.6075985,40.8004198 28.6120829,40.798383 Z"></path>
            </g>
        </g>
        <g id="track_n_fiekd" transform="translate(5.000000, 8.000000)">
            <path d="M19.3668038,3.37804049 C22.2520085,6.70499248 23.6946108,8.60307873 23.6946108,9.07229925 C23.6946108,9.77613001 23.8104775,11.2620363 23.4060022,11.6284598 C23.1363519,11.8727422 23.1363519,12.1498022 23.4060022,12.4596398 L27.3048642,12.4596398 C27.3048642,14.7632513 27.3048642,15.9797857 27.3048642,16.1092429 C27.3048642,16.3034288 26.2189444,16.5756114 26.2189444,16.1092429 C26.2189444,15.6428744 25.9009723,14.4665991 25.4519226,14.1299359 C25.1525562,13.9054937 23.5321858,13.7446642 20.5908113,13.6474472 C17.2131291,13.418541 15.524288,13.2069123 15.524288,13.0125611 C15.524288,12.7210343 11.1585201,13.6474472 11.1585201,13.6474472 C11.1585201,13.6474472 6.64381856,14.352518 5.74571925,14.352518 C4.84761995,14.352518 4.63136187,14.8965113 4.43507625,14.8965113 C4.23879063,14.8965113 2.62313776,12.8323874 2.62313776,12.4596398 C2.62313776,12.0868922 3.09784739,11.7141447 3.38367841,12.0868922 C3.66950942,12.4596398 3.79714798,12.7626987 4.43507625,12.7626987 C4.86036176,12.7626987 6.42650233,12.5374299 9.13349797,12.0868922 C10.9225541,11.6433813 12.0607638,11.3785561 12.5481271,11.2924166 C13.279172,11.1632074 16.2931615,9.66552095 16.9853196,9.66552095 C17.6774777,9.66552095 18.5639375,9.65584886 18.7682914,9.36407405 C18.9726454,9.07229925 18.9452659,8.22152706 18.0683295,8.07396564 C17.1913931,7.92640423 14.7874233,6.70486848 14.7874233,7.05207182 C14.7874233,7.39927516 13.2586704,10.2485746 13.2586704,10.2485746 C13.2586704,10.2485746 12.5481271,10.9753455 11.7744919,10.2485746 C11.0008567,9.52180357 8.15339254,7.93210828 8.15339254,7.6846019 C8.15339254,7.51959765 8.39381156,7.11204706 8.87464961,6.46195014 L12.1781736,8.90960968 C12.5554018,8.47568817 12.7960413,7.95926454 12.9000921,7.36033878 C13.0041428,6.76141302 13.0561682,5.98681891 13.0561682,5.03655643 L14.1071693,3.85916511 C14.7029922,2.97578062 15.3690495,2.45129691 16.105341,2.28571398 C17.2097783,2.03733959 20.107372,1.00316965 20.7786318,0.768311389 C21.4498916,0.53345313 22.5489059,0.354891413 23.6946108,1.7158045 C24.8403157,3.07671759 26.2189444,4.39931431 26.2189444,4.62177245 C26.2189444,4.77007787 26.0254364,5.19523663 25.6384204,5.89724871 L22.2584455,2.28571398 L19.3668038,3.37804049 Z" id="Path-30" fill="#FFFFFF" fill-rule="evenodd"></path>
            <polygon id="Rectangle-2" fill="#FFFFFF" fill-rule="evenodd" points="14.1315066 16.1340429 24.5904615 15.2372665 24.6359617 18.3390324 14.0860064 17.442256"></polygon>
            <path d="M13.1319227,5.07738783 C13.4342766,5.0777123 13.6879481,5.10987523 13.7283121,4.87934048 C13.823221,4.33841122 14.0080875,3.28397028 14.060533,2.98485104 C14.2242074,2.05038226 13.5765212,1.18997337 12.7666659,1.04116408 C11.9560183,0.89231424 11.0341419,1.40793497 10.8679325,2.35457131 C10.8106544,2.68260879 10.8278457,3.0058198 10.9285775,3.3026272 C11.0801704,3.74990679 12.4845138,5.07677946 12.4845138,5.07677946 C12.4845138,5.07677946 12.7906704,5.07706337 13.1319227,5.07738783 Z" id="Path" fill="#FFFFFF" fill-rule="evenodd" transform="translate(12.460698, 3.047453) scale(-1, 1) translate(-12.460698, -3.047453) "></path>
            <path d="M23.2960875,17.776811 L23.2960875,23.8717176" id="Line-2" stroke="#FFFFFF" stroke-width="1.01581777" stroke-linecap="square"></path>
            <path d="M15.7113148,16.7609932 L15.7113148,20.8242643" id="Line-2" stroke="#FFFFFF" stroke-width="1.01581777" stroke-linecap="square"></path>
        </g>
    </g>
</svg>