<?xml version="1.0" encoding="UTF-8"?>
<svg width="44px" height="53px" viewBox="0 0 44 53" version="1.1" xmlns="http://www.w3.org/2000/svg" xmlns:xlink="http://www.w3.org/1999/xlink">
    <!-- Generator: Sketch 49.2 (51160) - http://www.bohemiancoding.com/sketch -->
    <title>location-pin-selected</title>
    <desc>Created with Sketch.</desc>
    <defs>
        <path d="M7.52,2.74985211e-16 C3.36,2.74985211e-16 0,3.37272727 0,7.54848485 L0,32.2015152 C0,36.3772727 3.36,39.75 7.52,39.75 L13.04,39.75 C13.36,39.75 15.2,39.9106061 15.36,40.1515152 L21.76,52.8393939 L28.16,40.1515152 C28.32,39.9106061 30.16,39.75 30.48,39.75 L36.08,39.75 C40.24,39.75 43.6,36.3772727 43.6,32.2015152 L43.6,7.54848485 C43.6,3.37272727 40.24,0 36.08,0 C31.5534722,4.35829201e-17 28.1585764,7.62701102e-17 25.8953125,9.80615702e-17 C21.8119097,1.37377935e-16 15.6868056,1.96352482e-16 7.52,2.74985211e-16 Z" id="path-1"></path>
        <filter x="-18.3%" y="-13.2%" width="136.7%" height="130.3%" filterUnits="objectBoundingBox" id="filter-2">
            <feOffset dx="0" dy="1" in="SourceAlpha" result="shadowOffsetOuter1"></feOffset>
            <feGaussianBlur stdDeviation="2.5" in="shadowOffsetOuter1" result="shadowBlurOuter1"></feGaussianBlur>
            <feComposite in="shadowBlurOuter1" in2="SourceAlpha" operator="out" result="shadowBlurOuter1"></feComposite>
            <feColorMatrix values="0 0 0 0 0   0 0 0 0 0   0 0 0 0 0  0 0 0 0.271993886 0" type="matrix" in="shadowBlurOuter1"></feColorMatrix>
        </filter>
    </defs>
    <g id="location-pin-selected" stroke="none" stroke-width="1" fill="none" fill-rule="evenodd">
        <g id="location-pin-orange">
            <g id="Path">
                <use fill="black" fill-opacity="1" filter="url(#filter-2)" xlink:href="#path-1"></use>
                <use fill="#EC6607" fill-rule="evenodd" xlink:href="#path-1"></use>
                <path stroke="#FFFFFF" stroke-width="1.6" d="M21.7603516,51.0637612 L27.493587,39.7089163 C27.8561269,39.1630466 29.4327868,38.95 30.48,38.95 L36.08,38.95 C39.7974937,38.95 42.8,35.9361206 42.8,32.2015152 L42.8,7.54848485 C42.8,3.81387942 39.7974937,0.8 36.08,0.8 C29.8560243,0.8 29.8560243,0.8 25.8953125,0.8 C18.7493576,0.8 18.7493576,0.8 7.52,0.8 C3.80250629,0.8 0.8,3.81387942 0.8,7.54848485 L0.8,32.2015152 C0.8,35.9361206 3.80250629,38.95 7.52,38.95 L13.04,38.95 C14.0872132,38.95 15.6638731,39.1630466 16.0742749,39.7912217 L21.7603516,51.0637612 Z M28.6049411,40.8017139 C28.6026515,40.8025804 28.6005695,40.8034023 28.5987008,40.8041765 C28.6031444,40.8023356 28.6075985,40.8004198 28.6120829,40.798383 Z"></path>
            </g>
        </g>
        <g id="tennis-de-table" transform="translate(8.000000, 9.000000)" fill="#FFFFFF">
            <path d="M26.4896683,20.1154019 C25.6137493,20.7769816 24.632062,20.0554046 24.1423635,19.5178618 C23.652665,18.9802815 20.6673365,15.6372381 20.6673365,15.6372381 L15.2137775,12.5712003 L10.403864,14.8644969 C10.403864,14.8644969 8.51452728,19.925791 8.26709629,20.603053 C8.01962366,21.2803525 7.27491551,21.7297521 6.71034645,21.497024 C6.71034645,21.497024 7.83019862,15.2984761 7.93555042,14.7153083 C8.07217463,13.958998 8.10244766,13.8685717 8.82779273,13.1146942 C9.32269635,12.6002445 12.0138727,10.0006361 12.0138727,10.0006361 L11.580931,8.93225009 L10.0805631,8.01484913 C10.0805631,8.01484913 10.1548923,8.66639807 10.2135229,9.18043604 C10.3045502,9.97851612 10.2597028,10.0254884 9.67652017,10.3479692 C8.63470328,10.9241005 6.60828429,12.0556652 5.99970066,12.4741866 C5.60415253,12.7461394 5.18599332,12.7193783 4.87518469,12.6309356 L4.39185727,12.9438722 L4.36603984,12.9292753 C4.60010406,13.5210515 4.19785172,14.2785594 3.39151485,14.6970434 C2.50860013,15.1552012 1.47598591,15.0333352 1.08510158,14.4247912 C0.694217247,13.8162846 1.09309666,12.9515824 1.97601138,12.4933872 C2.75778004,12.0877037 3.65656,12.1371088 4.12364741,12.5761408 L4.93431495,11.9872091 L4.93435659,11.9872091 L8.3299326,9.31173393 C8.3299326,9.31173393 7.98510324,7.82478907 7.80879513,7.13424002 C7.54966301,6.11948848 7.67924989,5.61645438 8.49566389,5.20429578 C9.03799664,4.93050899 12.6876246,3.15768805 12.6876246,3.15768805 C13.2136757,2.94176515 14.0122257,2.91818543 14.8441718,3.4680047 C15.4956457,3.89869022 17.450109,5.49088299 18.2672725,6.16122085 C18.4834727,6.3386302 18.5414787,6.62372029 18.4092268,6.85850697 L16.6847885,9.90912436 L16.9106494,10.0235796 L17.596269,9.16198397 L17.9934411,9.71861516 L22.2718902,14.3954849 L26.4896683,20.1154019 Z M4.9962768,8.79889366 C5.27872789,8.78429668 5.49442842,8.56657724 5.4780635,8.31270221 C5.46178185,8.05875233 5.21951435,7.8648746 4.93706326,7.87962129 C4.65457052,7.89425569 4.43878671,8.11197513 4.45523492,8.36588759 C4.4715582,8.61972518 4.71382571,8.81367777 4.9962768,8.79889366 Z M7.76378118,3.02077594 C8.15716397,3.35396118 10.1229953,3.92631219 10.1229953,3.92631219 C10.1229953,3.92631219 10.6957676,3.69560518 11.049758,3.53009797 C11.36319,3.3835294 11.5104743,3.13306034 11.4306485,2.90370074 C11.2435553,2.36570876 10.9445728,1.50695768 10.8408033,1.20921689 C10.5173358,0.280100916 9.39207031,-0.187750744 8.47455189,0.0704285165 C7.55628394,0.328907202 6.8729963,1.24615845 7.20075284,2.18773799 C7.31422464,2.51407388 7.50281685,2.79980025 7.76378118,3.02077594 Z M16.3739382,7.44871119 C16.5688599,7.02057078 16.6925337,6.72642309 16.6925337,6.72642309 L15.3825486,6.05915433 L16.3739382,7.44871119 Z" id="Fill-1"></path>
        </g>
    </g>
</svg>