<?xml version="1.0" encoding="UTF-8"?>
<svg width="44px" height="53px" viewBox="0 0 44 53" version="1.1" xmlns="http://www.w3.org/2000/svg" xmlns:xlink="http://www.w3.org/1999/xlink">
    <!-- Generator: Sketch 49.2 (51160) - http://www.bohemiancoding.com/sketch -->
    <title>location-pin-selected</title>
    <desc>Created with Sketch.</desc>
    <defs>
        <path d="M7.52,2.74985211e-16 C3.36,2.74985211e-16 0,3.37272727 0,7.54848485 L0,32.2015152 C0,36.3772727 3.36,39.75 7.52,39.75 L13.04,39.75 C13.36,39.75 15.2,39.9106061 15.36,40.1515152 L21.76,52.8393939 L28.16,40.1515152 C28.32,39.9106061 30.16,39.75 30.48,39.75 L36.08,39.75 C40.24,39.75 43.6,36.3772727 43.6,32.2015152 L43.6,7.54848485 C43.6,3.37272727 40.24,0 36.08,0 C31.5534722,4.35829201e-17 28.1585764,7.62701102e-17 25.8953125,9.80615702e-17 C21.8119097,1.37377935e-16 15.6868056,1.96352482e-16 7.52,2.74985211e-16 Z" id="path-1"></path>
        <filter x="-18.3%" y="-13.2%" width="136.7%" height="130.3%" filterUnits="objectBoundingBox" id="filter-2">
            <feOffset dx="0" dy="1" in="SourceAlpha" result="shadowOffsetOuter1"></feOffset>
            <feGaussianBlur stdDeviation="2.5" in="shadowOffsetOuter1" result="shadowBlurOuter1"></feGaussianBlur>
            <feComposite in="shadowBlurOuter1" in2="SourceAlpha" operator="out" result="shadowBlurOuter1"></feComposite>
            <feColorMatrix values="0 0 0 0 0   0 0 0 0 0   0 0 0 0 0  0 0 0 0.271993886 0" type="matrix" in="shadowBlurOuter1"></feColorMatrix>
        </filter>
    </defs>
    <g id="location-pin-selected" stroke="none" stroke-width="1" fill="none" fill-rule="evenodd">
        <g id="location-pin-orange">
            <g id="Path">
                <use fill="black" fill-opacity="1" filter="url(#filter-2)" xlink:href="#path-1"></use>
                <use fill="#EC6607" fill-rule="evenodd" xlink:href="#path-1"></use>
                <path stroke="#FFFFFF" stroke-width="1.6" d="M21.7603516,51.0637612 L27.493587,39.7089163 C27.8561269,39.1630466 29.4327868,38.95 30.48,38.95 L36.08,38.95 C39.7974937,38.95 42.8,35.9361206 42.8,32.2015152 L42.8,7.54848485 C42.8,3.81387942 39.7974937,0.8 36.08,0.8 C29.8560243,0.8 29.8560243,0.8 25.8953125,0.8 C18.7493576,0.8 18.7493576,0.8 7.52,0.8 C3.80250629,0.8 0.8,3.81387942 0.8,7.54848485 L0.8,32.2015152 C0.8,35.9361206 3.80250629,38.95 7.52,38.95 L13.04,38.95 C14.0872132,38.95 15.6638731,39.1630466 16.0742749,39.7912217 L21.7603516,51.0637612 Z M28.6049411,40.8017139 C28.6026515,40.8025804 28.6005695,40.8034023 28.5987008,40.8041765 C28.6031444,40.8023356 28.6075985,40.8004198 28.6120829,40.798383 Z"></path>
            </g>
        </g>
        <g id="pickleball" transform="translate(5.000000, 6.000000)" fill="#FFFFFF">
            <path d="M19.9960056,9.65303432 L21.3058321,7.23214732 L20.8171715,7.44333652 L19.7950518,9.29639031 L17.0343188,9.55648242 L17.0343188,7.18941756 L16.7636308,7.48399249 L16.5694086,9.06354686 L15.1677094,9.40721762 C15.2285787,9.43586488 15.2857028,9.47073353 15.338039,9.51182355 L16.463077,10.067214 L19.9960056,9.65303432 Z M11.2182247,8.7024659 C11.368312,8.56602967 11.5046515,8.41015767 11.6222657,8.23407826 C11.7376044,8.06156769 11.828529,7.8792669 11.8975994,7.69122701 L12.1241999,8.58700873 L11.2182247,8.7024659 Z M24.4213986,18.7514354 C24.9394509,19.7038364 24.8443071,20.3255882 24.8443071,20.5516798 L24.8443071,28.3822705 C24.8443071,28.3822705 23.4116518,28.5648124 23.2516568,26.7313873 C23.0725097,24.6793459 22.7002781,21.2042973 22.7002781,21.2042973 L21.9221568,20.3664371 L23.2276694,19.7926237 L23.2928525,19.5353288 L20.7100815,20.4145684 L19.0385002,17.384083 C19.0385002,17.384083 17.0374002,21.8662711 16.8712423,22.2774606 C16.5950552,22.9610404 16.4144859,23.3275228 15.9374398,23.702831 C15.5758747,23.9871816 9.54631163,27.8517655 9.54631163,27.8517655 C9.54631163,27.8517655 8.78264915,26.986946 9.93494562,25.7020148 C10.4860398,25.0873524 14.5266387,21.9140165 14.5266387,21.9140165 L14.7989859,19.9187392 L15.9362547,20.1216332 L16.2424971,19.9983631 L14.2910311,19.3470477 L15.4855663,14.8889253 L16.1872692,13.3220548 L16.0450514,11.2275248 L14.7934868,11.2275248 L14.7945298,11.2181686 C14.7703527,11.2253545 14.7460335,11.2295503 14.7215246,11.2275248 C14.359675,11.1978165 14.0660425,10.9036756 13.9517941,10.5510827 C13.9111672,10.5533977 13.8701611,10.5539764 13.8284913,10.5506005 C13.3698861,10.5129346 13.0209783,10.1293795 13.0078942,9.6721325 L12.1034361,9.04652248 L10.0380536,9.30984584 C9.87753702,9.3454379 9.71322799,9.36627228 9.54707013,9.3723972 L9.49331178,9.37929376 L9.49274291,9.37456745 C8.91538582,9.38469527 8.31958781,9.21527128 7.79414024,8.85187539 C6.50417689,7.95961429 6.1267307,6.23643775 6.95107279,5.00306197 C7.77536749,3.76963796 9.48928227,3.49305197 10.7791982,4.38526484 C11.4933215,4.87926141 11.9271808,5.62794858 12.0328486,6.40721212 L12.5331236,8.3844523 L13.3370812,8.94051794 C13.5085959,8.7984873 13.7314513,8.72026193 13.9692869,8.73897429 C14.4639681,7.98657359 15.6766123,6.16660401 16.1081487,5.73954753 C16.7543866,5.09990324 17.1463864,4.92189471 17.6122447,5.00282083 C18.3146113,5.12474052 22.0518595,5.77374098 22.4090634,5.83682284 C22.9201943,5.92705691 23.8071123,6.33390598 23.4850363,7.35078752 C23.1629602,8.36762082 21.2390371,11.2757525 21.2390371,11.2757525 L19.7880357,11.2281517 L20.1672359,11.5425483 L21.4073282,11.6553047 L21.0320627,14.0765775 C21.0320627,14.0765775 23.2883016,16.9487313 24.1381007,18.2832889 C24.2632524,18.4799133 24.3613353,18.6408974 24.4213986,18.7514354 Z M20.2039281,4.84337998 C20.2039281,4.84337998 20.5690013,4.90843918 20.9760763,4.98131127 C21.3366459,5.04583996 21.6326013,5.13766555 21.727745,4.8729918 C21.9508848,4.25220456 22.3860715,3.04159226 22.509564,2.69806619 C22.895164,1.62548164 22.297612,0.468402112 21.3619607,0.120294409 C20.4255035,-0.228150888 19.220539,0.187572082 18.8299614,1.27428736 C18.6946648,1.65080119 18.6493447,2.03758753 18.7090288,2.41067719 C18.7990527,2.97301244 20.2039281,4.84337998 20.2039281,4.84337998 Z M10.5692373,7.48080946 C10.4882205,7.60721432 10.3218256,7.64285461 10.197622,7.56043343 C10.0734184,7.47801225 10.0383854,7.30873294 10.1194022,7.18237631 C10.200419,7.05597145 10.3668138,7.02033116 10.4910174,7.10275234 C10.615221,7.18517352 10.650254,7.35445282 10.5692373,7.48080946 Z M11.1114665,6.63503988 C11.0304498,6.76139652 10.8640549,6.7970368 10.7398039,6.71461563 C10.6156003,6.63219445 10.5805199,6.46296337 10.6615366,6.33655851 C10.7425534,6.21020187 10.9089483,6.17451336 11.0331519,6.25693454 C11.1574029,6.33935571 11.1924359,6.50863502 11.1114665,6.63503988 Z M11.8975994,7.69122701 L12.1241999,8.58700873 L11.2182247,8.7024659 C11.368312,8.56602967 11.5046515,8.41015767 11.6222657,8.23407826 C11.7376044,8.06156769 11.828529,7.8792669 11.8975994,7.69122701 Z M10.0271028,8.32662726 C9.94608602,8.45303212 9.77969113,8.48862418 9.65548754,8.406203 C9.53123654,8.32383005 9.49615613,8.15455074 9.57717291,8.02814588 C9.65818968,7.90178925 9.82458457,7.86614896 9.94883557,7.94857014 C10.0730392,8.03099132 10.1081196,8.2002224 10.0271028,8.32662726 Z M21.3058321,7.23214732 L20.8171715,7.44333652 L19.7950518,9.29639031 L17.0343188,9.55648242 L17.0343188,7.18941756 L16.7636308,7.48399249 L16.5694086,9.06354686 L15.1677094,9.40721762 C15.2285787,9.43586488 15.2857028,9.47073353 15.338039,9.51182355 L16.463077,10.067214 L19.9960056,9.65303432 L21.3058321,7.23214732 Z M9.95295989,5.86643467 C10.0339767,5.74007803 10.2003715,5.70443774 10.3245751,5.78685892 C10.4488261,5.8692801 10.4838117,6.03851118 10.402795,6.16491604 C10.3217782,6.29127268 10.1554307,6.32696119 10.0312271,6.24454001 C9.90697611,6.16211883 9.87194311,5.99283953 9.95295989,5.86643467 Z M8.53575895,4.92623521 C8.61677573,4.79983035 8.78312321,4.76419006 8.90742162,4.84661124 C9.03162521,4.92903242 9.06665821,5.09831172 8.98564144,5.22466836 C8.90462467,5.35107322 8.73822978,5.38671351 8.61402618,5.30429233 C8.48977518,5.22187115 8.45474218,5.05259184 8.53575895,4.92623521 Z M7.90127769,6.91630396 C7.82026092,7.0426606 7.65386603,7.07830088 7.52966244,6.9958797 C7.40541144,6.91345853 7.37042584,6.74417922 7.45144262,6.61782259 C7.53245939,6.49146595 7.69880687,6.45577744 7.82305787,6.53819862 C7.94726147,6.62061979 7.98229447,6.7898991 7.90127769,6.91630396 Z M9.24438312,5.39635905 C9.3253999,5.26995419 9.49174738,5.2343139 9.61599838,5.31673508 C9.74020197,5.39915626 9.77523497,5.56843557 9.6942182,5.6947922 C9.61320143,5.82119706 9.44680654,5.85678912 9.32260294,5.77436794 C9.19835194,5.69199499 9.16336635,5.52271569 9.24438312,5.39635905 Z M8.78042107,6.62018574 C8.65621748,6.53781279 8.62113707,6.36853349 8.70215385,6.24212863 C8.78317062,6.11577199 8.94956551,6.08008348 9.0737691,6.16255288 C9.1980201,6.24497406 9.23310051,6.41420514 9.15208374,6.54061 C9.07106696,6.66696664 8.90467207,6.70260692 8.78042107,6.62018574 Z M9.31847863,7.85650342 C9.23746185,7.98286005 9.07111437,8.01854857 8.94686337,7.93612739 C8.82261237,7.85370621 8.78757937,7.6844269 8.86859614,7.55802204 C8.94961291,7.43166541 9.11600781,7.39602512 9.2402114,7.4784463 C9.3644624,7.56086748 9.3994954,7.73014678 9.31847863,7.85650342 Z M8.07184431,6.15011013 C7.94759331,6.06768895 7.91256031,5.89840965 7.99357708,5.77200478 C8.07459385,5.64564815 8.24098875,5.61000786 8.36519234,5.69242904 C8.48944334,5.77485022 8.52442893,5.94412953 8.44341216,6.07048616 C8.36239539,6.19684279 8.19609531,6.23253131 8.07184431,6.15011013 Z M8.60985446,7.38637958 C8.52883769,7.51278444 8.3624902,7.54842472 8.2382392,7.46600355 C8.11403561,7.38358237 8.07900261,7.21430306 8.16001938,7.08794643 C8.24103615,6.96154157 8.40743104,6.92590128 8.53163464,7.00832246 C8.65588564,7.09074364 8.69087123,7.26002294 8.60985446,7.38637958 Z M9.48904524,7.09030959 C9.36479424,7.00788841 9.32980865,6.8386091 9.41082542,6.71225247 C9.49179479,6.58584761 9.65814227,6.55020732 9.78244068,6.6326285 C9.90664427,6.71504968 9.94167727,6.88432898 9.8606605,7.01068562 C9.77964373,7.13709048 9.61324884,7.17273076 9.48904524,7.09030959 Z M12.1241999,8.58700873 L11.2182247,8.7024659 C11.368312,8.56602967 11.5046515,8.41015767 11.6222657,8.23407826 C11.7376044,8.06156769 11.828529,7.8792669 11.8975994,7.69122701 L12.1241999,8.58700873 Z M16.463077,10.067214 L15.338039,9.51182355 C15.2857028,9.47073353 15.2285787,9.43586488 15.1677094,9.40721762 L16.5694086,9.06354686 L16.7636308,7.48399249 L17.0343188,7.18941756 L17.0343188,9.55648242 L19.7950518,9.29639031 L20.8171715,7.44333652 L21.3058321,7.23214732 L19.9960056,9.65303432 L16.463077,10.067214 Z" id="Fill-1"></path>
            <path d="M29.7954552,10.6210522 C29.7769666,10.6225943 29.7590308,10.6159323 29.7451489,10.6035334 C29.7312671,10.5911345 29.7230363,10.5740475 29.7219307,10.5553566 C29.720825,10.5367274 29.7269674,10.5187768 29.7393136,10.5047741 C29.7515985,10.490833 29.7686129,10.4825671 29.7871015,10.4813951 C29.7885143,10.4813334 29.789927,10.4812717 29.7912784,10.4812717 C29.8277642,10.4812717 29.8585377,10.5099557 29.8608104,10.547029 C29.863083,10.5855211 29.8337838,10.6187081 29.7954552,10.6210522 Z M29.7680853,10.3762882 C29.7252185,10.3789202 29.6859116,10.3981391 29.6574326,10.4304188 C29.6289536,10.4626985 29.6147142,10.5042151 29.6172852,10.5472216 C29.6198068,10.5902777 29.6388916,10.6297583 29.6710294,10.6584127 C29.700695,10.6848821 29.7381725,10.6991844 29.7775783,10.6991844 C29.7807921,10.6991844 29.7840553,10.6990851 29.7873186,10.6988865 C29.8758704,10.6935231 29.9436069,10.6168464 29.9383165,10.5279531 L29.9383165,10.5279034 C29.9329272,10.4389605 29.8565877,10.3711235 29.7680853,10.3762882 Z M29.4236349,10.5032957 C29.4250459,10.5031722 29.4264568,10.5031722 29.4278677,10.5031722 C29.4643675,10.5031722 29.495101,10.5318844 29.4973093,10.5689324 C29.4996404,10.6074623 29.4703179,10.6407438 29.4320391,10.6430284 C29.3937603,10.6454982 29.3607571,10.6158599 29.358426,10.5773917 C29.3562177,10.5388618 29.3854788,10.5056421 29.4236349,10.5032957 Z M29.414323,10.7210353 C29.4175367,10.7210353 29.4207505,10.720936 29.4240137,10.7207373 C29.5125161,10.715374 29.580302,10.6387469 29.5749622,10.549804 C29.5696719,10.4609107 29.4932829,10.3928253 29.4046816,10.3981887 C29.3162781,10.4035521 29.2485911,10.4801792 29.253832,10.5691718 C29.2589741,10.6547875 29.3300232,10.7210353 29.414323,10.7210353 Z M29.1165447,10.6414773 C29.1042196,10.655432 29.0872342,10.6637678 29.0686545,10.6648792 C29.0303915,10.6673491 28.9974019,10.6377107 28.9950717,10.5993661 C28.9928643,10.5607744 29.0221134,10.5274312 29.0602538,10.5251466 C29.0616642,10.5250848 29.0630745,10.5250231 29.0644235,10.5250231 C29.1009696,10.5250231 29.1317518,10.5537353 29.1339593,10.590845 C29.135063,10.6094925 29.1288698,10.6274608 29.1165447,10.6414773 Z M29.0413274,10.4200396 C28.9529733,10.4253533 28.8852863,10.50203 28.8904283,10.5910723 C28.8956693,10.676688 28.9666689,10.7428862 29.0509687,10.7428862 C29.054133,10.7428862 29.0573963,10.7427869 29.06061,10.7425882 C29.1035263,10.7400555 29.1428332,10.7208367 29.1714111,10.688557 C29.1998901,10.6562276 29.214179,10.6147606 29.2116574,10.5717045 C29.2063671,10.4827615 29.1299781,10.4147755 29.0413274,10.4200396 Z M29.2116574,10.5717948 L29.2116574,10.5716548 L29.2116574,10.5717948 Z M29.5298932,11.1143743 C29.532163,11.1529056 29.5029018,11.1861265 29.464623,11.1884112 C29.4459744,11.1895844 29.4281846,11.183286 29.4142595,11.1708745 C29.4003957,11.1585248 29.3921142,11.1414203 29.39101,11.1227722 C29.3887403,11.0842409 29.4180014,11.05102 29.4562189,11.0486735 C29.4576911,11.0486118 29.459102,11.04855 29.460513,11.04855 C29.4775053,11.04855 29.4937615,11.0547249 29.5065824,11.066272 C29.5205076,11.0786217 29.528789,11.0957262 29.5298932,11.1143126 L29.5298932,11.1143743 Z M29.4372644,10.9435665 C29.3488114,10.9489299 29.2811244,11.0256066 29.2864148,11.1144999 C29.2889363,11.1575561 29.3080212,11.1970366 29.3402084,11.225691 C29.369874,11.2521604 29.4073516,11.2664131 29.4467574,11.2664131 C29.4500206,11.2664131 29.4532838,11.2663138 29.456547,11.2661152 C29.5450989,11.2608014 29.6127859,11.1841744 29.607545,11.0952314 C29.6050234,11.0521753 29.5858396,11.0126451 29.5536524,10.9839906 C29.5215147,10.9553362 29.4801806,10.9409842 29.4372644,10.9435665 Z M29.3430645,9.97716727 C29.3554613,9.96314673 29.3724608,9.95487028 29.391056,9.95375852 C29.3924676,9.95363499 29.3938791,9.95357323 29.3952906,9.95357323 C29.4123515,9.95357323 29.4285533,9.95974968 29.4413797,9.97123788 C29.4552493,9.98365254 29.4635343,10.0006995 29.4645776,10.0193524 L29.4645776,10.0194142 C29.4668483,10.0578935 29.4375747,10.0911228 29.3992797,10.0934698 C29.3807458,10.094458 29.3628871,10.0883434 29.3490174,10.0759905 C29.3350864,10.063514 29.3268014,10.0464053 29.3256967,10.0276906 C29.324592,10.0090995 29.3307904,9.99112604 29.3430645,9.97716727 Z M29.3813941,10.1714363 C29.3846574,10.1714363 29.3879206,10.171337 29.3912332,10.1711384 C29.4797356,10.165775 29.5474721,10.0891479 29.5422312,10.0002546 C29.5396602,9.95719849 29.5205753,9.91766828 29.4884375,9.88906351 C29.4562998,9.86040907 29.4149657,9.84610669 29.3720495,9.84858974 C29.3291332,9.85117211 29.2898263,9.87039095 29.2612979,9.90262098 C29.2327694,9.93495033 29.2184805,9.97646698 29.2210515,10.0194735 C29.2236226,10.0625296 29.2427569,10.1020598 29.2748946,10.1306646 C29.3045602,10.1571836 29.3420378,10.1714363 29.3813941,10.1714363 Z M29.9989827,11.0801841 C29.9891436,11.0913082 29.978464,11.1013894 29.968081,11.1118679 C29.9704048,11.099403 29.9716903,11.0865904 29.9708992,11.0733806 L29.9708992,11.0732812 C29.9655594,10.9843879 29.8890716,10.9166006 29.8006186,10.9217157 C29.7121657,10.9270791 29.6444786,11.0037558 29.649769,11.0925994 C29.65234,11.1356555 29.6713755,11.1751857 29.7035132,11.2037905 C29.7297673,11.2272305 29.7623006,11.2404404 29.7966632,11.2433207 C29.6949102,11.3007786 29.5811426,11.3355413 29.4611946,11.3427918 C29.3411478,11.350092 29.2240181,11.3291847 29.1160847,11.2842414 C29.1930175,11.2682506 29.2489866,11.1980795 29.2441907,11.1170823 C29.2416197,11.0740262 29.2224854,11.034496 29.1902487,11.0058415 C29.158111,10.9772367 29.1167769,10.963133 29.0739101,10.9654671 C29.0310433,10.9680494 28.9917364,10.9872683 28.9632574,11.019548 C28.9347784,11.0518277 28.9204895,11.0933443 28.9231099,11.1363508 C28.923901,11.149511 28.9266698,11.1621249 28.9304275,11.1743912 C28.9189073,11.1652039 28.9070411,11.1564635 28.8959165,11.1465313 C28.7795778,11.042839 28.6984918,10.9098467 28.659531,10.7621547 C28.6686779,10.7637935 28.6780226,10.7647371 28.6874167,10.7647371 C28.6906799,10.7647371 28.6939926,10.7646377 28.6973052,10.7644391 C28.740172,10.7618567 28.779479,10.7426379 28.8080074,10.7104078 C28.8365852,10.6780785 28.8508742,10.6366115 28.8482537,10.5935554 C28.8456827,10.5504992 28.8265484,10.510969 28.7944106,10.4823642 C28.7622729,10.4536601 28.7208894,10.4393081 28.678072,10.4419401 C28.6651675,10.442685 28.6528068,10.4454164 28.6407428,10.4490913 C28.6618054,10.2976747 28.7265753,10.1557434 28.829861,10.038742 C28.8391563,10.0282138 28.849292,10.0187285 28.8590817,10.0087467 C28.8575984,10.0194238 28.8570545,10.0303492 28.8577467,10.041374 C28.8603177,10.0844301 28.8794026,10.1239107 28.9115404,10.1525155 C28.941206,10.1789848 28.9786835,10.1932872 29.0180399,10.1932872 C29.0213031,10.1932872 29.0245663,10.1931879 29.0278295,10.1929892 C29.1163814,10.1876755 29.1841673,10.1109988 29.1788275,10.0220558 C29.1763059,9.97899969 29.1571716,9.93946949 29.1249844,9.91086471 C29.1006586,9.88921249 29.0710424,9.87570468 29.0395475,9.87158281 C29.1394217,9.81655835 29.2506183,9.78318612 29.367748,9.77613425 C29.383718,9.77519069 29.3996385,9.77474374 29.415559,9.77474374 C29.5162243,9.77474374 29.6142692,9.79445918 29.7057381,9.83145667 C29.6745398,9.83925346 29.6464069,9.85613822 29.6246521,9.88077011 C29.5961237,9.91309946 29.5818348,9.95461611 29.5844552,9.99762259 C29.5870263,10.0406787 29.6061111,10.0801593 29.6381994,10.1088137 C29.667865,10.1352831 29.705392,10.1495358 29.744699,10.1495358 C29.7479622,10.1495358 29.7512748,10.1494365 29.7545381,10.1492875 C29.7974543,10.1467051 29.8367612,10.1274863 29.8652897,10.0952066 C29.8938181,10.0628772 29.908107,10.0214102 29.905536,9.97830444 C29.9048932,9.96718036 29.9030144,9.95630459 29.9001962,9.94577644 C29.911123,9.95456645 29.9223465,9.96300883 29.9328778,9.97239477 C30.0493648,10.0761367 30.1304508,10.209278 30.1694116,10.3570694 C30.1570015,10.3548346 30.1443441,10.3535931 30.1314396,10.3544373 C30.0429372,10.3598007 29.9752996,10.4364774 29.98059,10.5254204 C29.985732,10.6110361 30.0567317,10.6772839 30.140982,10.6772839 C30.1441958,10.6772839 30.147459,10.6771846 30.1506728,10.676986 C30.1635774,10.6761914 30.1760369,10.67346 30.1881009,10.6697354 C30.1670383,10.8212017 30.1023179,10.9631827 29.9989827,11.0801841 Z M29.8278935,11.166484 C29.8094135,11.1677799 29.7915474,11.1614237 29.7776107,11.1489584 C29.7637353,11.1366164 29.7555083,11.1195228 29.7544646,11.1008247 C29.7521316,11.0623795 29.7813558,11.0291179 29.8196051,11.0268346 C29.8210172,11.0267112 29.8224293,11.0266495 29.82378,11.0266495 C29.8603103,11.0266495 29.8910694,11.0553446 29.893341,11.0924322 C29.8956127,11.1309391 29.8662656,11.164139 29.8278935,11.166484 Z M29.0277554,11.144554 C29.0266502,11.1259077 29.0327899,11.1079405 29.0450693,11.0939249 C29.0574101,11.079971 29.0744171,11.0716975 29.0928976,11.0705861 C29.0943097,11.0704626 29.0957219,11.0704009 29.097134,11.0704009 C29.114141,11.0704009 29.1304112,11.0766369 29.1433045,11.0881211 C29.1572417,11.1005314 29.1655302,11.1176341 29.1666354,11.1362187 L29.1666354,11.1362804 C29.1689071,11.1747462 29.1395593,11.2079638 29.1011862,11.2102483 C29.0827057,11.2114831 29.0648392,11.2051854 29.0509634,11.1927751 C29.0370877,11.1804265 29.0288605,11.1633238 29.0277554,11.144554 Z M28.637144,10.6438727 C28.6364526,10.6361547 28.6350696,10.6286221 28.6346296,10.6208424 C28.6341267,10.6130628 28.6346296,10.6054066 28.6343152,10.5976887 C28.6372069,10.587748 28.641733,10.578363 28.6488992,10.5704599 C28.6614716,10.5564442 28.6788844,10.5481706 28.6978688,10.5470592 C28.6993775,10.5469357 28.7008233,10.546874 28.7022691,10.546874 C28.7196819,10.546874 28.7362775,10.5530483 28.7494785,10.5645325 C28.7636853,10.5769429 28.7721717,10.5941076 28.7733032,10.6126923 L28.7733032,10.612754 C28.7744976,10.6314005 28.7681485,10.6493061 28.7555133,10.66326 C28.742878,10.6772758 28.7254652,10.6855494 28.706418,10.6867225 C28.6874337,10.6879574 28.6691408,10.6815978 28.654934,10.6692491 C28.6468248,10.6622104 28.6412301,10.6533811 28.637144,10.6438727 Z M29.0319205,9.97547376 C29.0489184,9.97547376 29.0651187,9.98165293 29.0779439,9.99308441 C29.0918736,10.0055046 29.1001578,10.0226209 29.1012624,10.0412202 C29.1035329,10.0797783 29.0742006,10.113084 29.0359092,10.1153703 C29.0173771,10.116359 28.99952,10.1102416 28.9855902,10.0978215 C28.9717219,10.0854013 28.963499,10.068285 28.9623945,10.0496239 C28.9612285,10.030901 28.9674263,10.0129814 28.9796992,9.99901642 C28.9920335,9.98498969 29.0090315,9.97670959 29.0276249,9.97559734 C29.0290363,9.97547376 29.0304477,9.97547376 29.0319205,9.97547376 Z M29.8279783,9.99751339 C29.8290834,10.0161696 29.8228824,10.0341463 29.8105419,10.0481694 C29.7982013,10.0621307 29.7811946,10.0704704 29.762653,10.0715824 C29.74405,10.0727561 29.7262452,10.0665168 29.7123697,10.0540999 C29.6984942,10.041683 29.6902058,10.0245711 29.6891007,10.0058531 C29.6879955,9.98719687 29.6941351,9.96922016 29.7064757,9.95525887 C29.7188163,9.94123581 29.7357616,9.93295787 29.7543032,9.93184591 C29.7557153,9.93178414 29.7571274,9.93172236 29.7585395,9.93172236 C29.7755462,9.93172236 29.7918161,9.93789992 29.8047092,9.94939019 C29.8185847,9.96174531 29.8268732,9.97885716 29.8279783,9.99751339 Z M30.2214258,10.5025858 C30.2220545,10.5102431 30.2235005,10.5177151 30.2240035,10.5254342 L30.2240035,10.5254959 C30.2244435,10.5331532 30.2239406,10.5407488 30.2241921,10.5484678 C30.2213629,10.55841 30.2168364,10.5678581 30.2096064,10.5758241 C30.1969697,10.5898419 30.1795549,10.5981785 30.1605685,10.5992901 C30.1215896,10.6016366 30.0876402,10.572119 30.0851883,10.5336472 C30.0828622,10.4951137 30.1128508,10.4618292 30.1519554,10.4595443 C30.1534642,10.4594826 30.1549102,10.4594208 30.1563562,10.4594208 C30.173771,10.4594208 30.1903684,10.4655961 30.203571,10.477082 C30.211744,10.4841835 30.2173393,10.4930141 30.2214258,10.5025858 Z M30.5081434,10.4936373 C30.4906407,10.2002397 30.3604581,9.93117609 30.1415259,9.73615709 C29.9225443,9.54103877 29.6411165,9.44330579 29.3489103,9.46093547 C29.0567041,9.47846583 28.7888236,9.60927307 28.5946622,9.82922192 C28.4004514,10.0491211 28.3031482,10.3318416 28.3207003,10.6252391 C28.3381536,10.9186863 28.4683362,11.18775 28.6873178,11.382769 C28.8894395,11.5628897 29.1449592,11.6600267 29.412988,11.6600267 C29.4351878,11.6600267 29.4575853,11.6593811 29.4799829,11.6579906 C29.7721396,11.6404106 30.0400201,11.509653 30.2341815,11.2897042 C30.4283923,11.069805 30.5256955,10.7870845 30.5081434,10.4936373 Z" id="Fill-1"></path>
        </g>
    </g>
</svg>