<?xml version="1.0" encoding="UTF-8"?>
<svg width="44px" height="53px" viewBox="0 0 44 53" version="1.1" xmlns="http://www.w3.org/2000/svg" xmlns:xlink="http://www.w3.org/1999/xlink">
    <!-- Generator: Sketch 49.2 (51160) - http://www.bohemiancoding.com/sketch -->
    <title>location-pin-selected</title>
    <desc>Created with Sketch.</desc>
    <defs>
        <path d="M7.52,2.74985211e-16 C3.36,2.74985211e-16 0,3.37272727 0,7.54848485 L0,32.2015152 C0,36.3772727 3.36,39.75 7.52,39.75 L13.04,39.75 C13.36,39.75 15.2,39.9106061 15.36,40.1515152 L21.76,52.8393939 L28.16,40.1515152 C28.32,39.9106061 30.16,39.75 30.48,39.75 L36.08,39.75 C40.24,39.75 43.6,36.3772727 43.6,32.2015152 L43.6,7.54848485 C43.6,3.37272727 40.24,0 36.08,0 C31.5534722,4.35829201e-17 28.1585764,7.62701102e-17 25.8953125,9.80615702e-17 C21.8119097,1.37377935e-16 15.6868056,1.96352482e-16 7.52,2.74985211e-16 Z" id="path-1"></path>
        <filter x="-18.3%" y="-13.2%" width="136.7%" height="130.3%" filterUnits="objectBoundingBox" id="filter-2">
            <feOffset dx="0" dy="1" in="SourceAlpha" result="shadowOffsetOuter1"></feOffset>
            <feGaussianBlur stdDeviation="2.5" in="shadowOffsetOuter1" result="shadowBlurOuter1"></feGaussianBlur>
            <feComposite in="shadowBlurOuter1" in2="SourceAlpha" operator="out" result="shadowBlurOuter1"></feComposite>
            <feColorMatrix values="0 0 0 0 0   0 0 0 0 0   0 0 0 0 0  0 0 0 0.271993886 0" type="matrix" in="shadowBlurOuter1"></feColorMatrix>
        </filter>
    </defs>
    <g id="location-pin-selected" stroke="none" stroke-width="1" fill="none" fill-rule="evenodd">
        <g id="location-pin-orange">
            <g id="Path">
                <use fill="black" fill-opacity="1" filter="url(#filter-2)" xlink:href="#path-1"></use>
                <use fill="#EC6607" fill-rule="evenodd" xlink:href="#path-1"></use>
                <path stroke="#FFFFFF" stroke-width="1.6" d="M21.7603516,51.0637612 L27.493587,39.7089163 C27.8561269,39.1630466 29.4327868,38.95 30.48,38.95 L36.08,38.95 C39.7974937,38.95 42.8,35.9361206 42.8,32.2015152 L42.8,7.54848485 C42.8,3.81387942 39.7974937,0.8 36.08,0.8 C29.8560243,0.8 29.8560243,0.8 25.8953125,0.8 C18.7493576,0.8 18.7493576,0.8 7.52,0.8 C3.80250629,0.8 0.8,3.81387942 0.8,7.54848485 L0.8,32.2015152 C0.8,35.9361206 3.80250629,38.95 7.52,38.95 L13.04,38.95 C14.0872132,38.95 15.6638731,39.1630466 16.0742749,39.7912217 L21.7603516,51.0637612 Z M28.6049411,40.8017139 C28.6026515,40.8025804 28.6005695,40.8034023 28.5987008,40.8041765 C28.6031444,40.8023356 28.6075985,40.8004198 28.6120829,40.798383 Z"></path>
            </g>
        </g>
        <g id="randonnee" transform="translate(6.000000, 6.000000)" fill="#FFFFFF">
            <path d="M24.2321734,21.3944519 L20.8851509,8.16382985 C21.0157331,8.07056912 21.0838911,7.90597124 21.0437043,7.74317999 L20.9804824,7.48629794 C21.2199579,7.31867275 21.4106707,7.1183819 21.4971272,6.86940992 C21.6201307,6.51516561 21.5571082,6.23557872 21.5571082,6.23557872 L20.7210133,6.43113329 L20.6956347,6.32796055 C20.6424346,6.1126308 20.418964,5.97908728 20.1990834,6.03118634 L20.0996135,6.05477008 C19.8797329,6.10691797 19.743367,6.32571448 19.7965671,6.54104424 L19.8212975,6.64153146 L17.6512598,7.14899681 L17.9005077,8.52041788 C17.9005077,8.52041788 19.3948985,8.18433745 20.1345651,7.91549263 L20.1446367,7.95631251 C20.1862695,8.12471893 20.3321087,8.24263761 20.4988889,8.26128976 L23.8450139,21.4883962 L24.2321734,21.3944519 Z M17.9332655,16.5289759 L18.9358415,13.3838919 C18.8192699,13.2834047 18.7650725,13.1222736 18.8115915,12.9674901 L18.8579609,12.8130484 C18.2818337,12.5559222 17.7114901,12.3001631 17.176148,12.0593454 L17.0020883,14.0113756 L17.9332655,16.5289759 Z M21.3761679,12.6820927 C21.3761679,12.6820927 20.7612001,13.6586449 19.7889386,13.2273506 C19.7616156,13.2152414 19.734143,13.2029856 19.7067701,13.1908276 L19.6972469,13.2226143 C19.6511766,13.375933 19.5186499,13.4820354 19.3669771,13.5060586 L18.1857044,17.2116347 C18.5286883,18.1389199 18.8352748,18.967915 18.9243738,19.2088305 C19.2451702,20.0761065 19.286803,20.324932 19.1928177,21.2986033 C19.122765,22.024084 18.4689067,28.7078025 18.4689067,28.7078025 C17.3541467,28.616153 17.2034212,27.5090358 17.1954935,26.9560143 C17.1880645,26.4387346 17.0377877,21.5082691 17.0184422,20.8735102 L14.9180583,27.4623566 C14.8880928,27.5563986 14.7994923,27.6166519 14.7039115,27.6166519 C14.6817739,27.6166519 14.6592872,27.6134293 14.637,27.6066422 C14.5187331,27.570461 14.4527689,27.4472201 14.4897149,27.331401 L16.7164429,20.3460255 L15.5988907,18.6323717 C15.5988907,18.6323717 15.4134131,19.7980332 15.3068133,20.4678992 C15.1758323,21.2909862 15.1181946,21.6028482 14.5858441,22.0220332 C13.1667413,23.1393554 12.4103717,23.6921816 9.26029448,26.0934258 C8.63704997,25.1819608 9.34565405,24.3295284 10.0206528,23.5706497 C10.8877604,22.5957576 13.0329681,20.364287 13.0329681,20.364287 C13.0329681,20.364287 12.6884385,17.7974684 12.6458086,15.9600855 C12.3824005,15.2947604 12.2835788,14.6161055 12.3037221,14.1583955 C12.3206744,13.7739757 12.3867383,12.8830671 12.6429666,12.5204733 L12.3765171,12.4196443 C12.2477797,12.5857558 12.038569,13.1147053 11.9807817,13.935351 C11.6408392,13.8099617 11.2784599,13.6770529 10.690167,13.4689496 C10.279025,13.3234922 10.2476634,13.1064535 10.2236311,12.7466428 C10.1996486,12.3868322 9.76846313,5.97566935 9.75978757,5.80360085 C9.74617591,5.533633 9.75754389,5.40834135 9.87755585,5.25565742 C10.3106859,4.70439371 11.1072422,3.62461995 11.5143455,3.63506906 C11.9320191,3.64571347 13.004598,4.40664294 13.2031886,4.55004963 L13.061388,6.64138498 L13.2802216,6.68254666 C13.3412497,6.12879273 13.3974414,5.6383194 13.4298003,5.40155432 C13.504091,4.85785888 13.9066073,4.60151393 14.5232703,4.73344613 C14.9518631,4.82514439 15.9440185,5.02035717 16.4796598,5.10751445 C17.0153509,5.19467173 17.1898594,5.82943066 17.2552751,6.3497865 C17.3016944,6.71911854 17.5074648,8.343076 17.5074648,8.343076 L17.3585842,10.0127849 L16.0498704,9.257373 L15.759588,7.86534667 L15.5267439,7.82062058 L15.7518598,9.47973393 C15.7518598,9.47973393 18.9253212,11.3138943 19.2817672,11.5198979 C19.3837798,11.400368 19.552355,11.3441185 19.7139997,11.3906513 L19.8104281,11.4184342 C20.0274668,11.4809823 20.1528137,11.7060288 20.0889436,11.9185754 L20.0737364,11.9692096 C20.5615125,12.237322 21.3761679,12.6820927 21.3761679,12.6820927 Z M13.2747869,2.32399891 C13.1975046,1.98450054 13.2197918,1.62654533 13.3289843,1.27357054 C13.6429998,0.254147708 14.770474,-0.192331954 15.6826049,0.0770011404 C16.5943368,0.346187752 17.2264563,1.37693859 16.9168783,2.38244556 C16.8176079,2.70461013 16.4900805,3.76719657 16.3102869,4.34931933 C16.2333037,4.60014676 16.0401478,4.64848609 15.6241695,4.57089902 C15.1414292,4.48081208 14.7609509,4.40776598 14.7609509,4.40776598 C14.7609509,4.40776598 13.3910096,2.83522398 13.2747869,2.32399891 Z" id="Page-1"></path>
        </g>
    </g>
</svg>