<?xml version="1.0" encoding="UTF-8"?>
<svg width="44px" height="53px" viewBox="0 0 44 53" version="1.1" xmlns="http://www.w3.org/2000/svg" xmlns:xlink="http://www.w3.org/1999/xlink">
    <!-- Generator: Sketch 49.2 (51160) - http://www.bohemiancoding.com/sketch -->
    <title>location-pin-selected</title>
    <desc>Created with Sketch.</desc>
    <defs>
        <path d="M7.52,2.74985211e-16 C3.36,2.74985211e-16 0,3.37272727 0,7.54848485 L0,32.2015152 C0,36.3772727 3.36,39.75 7.52,39.75 L13.04,39.75 C13.36,39.75 15.2,39.9106061 15.36,40.1515152 L21.76,52.8393939 L28.16,40.1515152 C28.32,39.9106061 30.16,39.75 30.48,39.75 L36.08,39.75 C40.24,39.75 43.6,36.3772727 43.6,32.2015152 L43.6,7.54848485 C43.6,3.37272727 40.24,0 36.08,0 C31.5534722,4.35829201e-17 28.1585764,7.62701102e-17 25.8953125,9.80615702e-17 C21.8119097,1.37377935e-16 15.6868056,1.96352482e-16 7.52,2.74985211e-16 Z" id="path-1"></path>
        <filter x="-18.3%" y="-13.2%" width="136.7%" height="130.3%" filterUnits="objectBoundingBox" id="filter-2">
            <feOffset dx="0" dy="1" in="SourceAlpha" result="shadowOffsetOuter1"></feOffset>
            <feGaussianBlur stdDeviation="2.5" in="shadowOffsetOuter1" result="shadowBlurOuter1"></feGaussianBlur>
            <feComposite in="shadowBlurOuter1" in2="SourceAlpha" operator="out" result="shadowBlurOuter1"></feComposite>
            <feColorMatrix values="0 0 0 0 0   0 0 0 0 0   0 0 0 0 0  0 0 0 0.271993886 0" type="matrix" in="shadowBlurOuter1"></feColorMatrix>
        </filter>
    </defs>
    <g id="location-pin-selected" stroke="none" stroke-width="1" fill="none" fill-rule="evenodd">
        <g id="location-pin-orange">
            <g id="Path">
                <use fill="black" fill-opacity="1" filter="url(#filter-2)" xlink:href="#path-1"></use>
                <use fill="#EC6607" fill-rule="evenodd" xlink:href="#path-1"></use>
                <path stroke="#FFFFFF" stroke-width="1.6" d="M21.7603516,51.0637612 L27.493587,39.7089163 C27.8561269,39.1630466 29.4327868,38.95 30.48,38.95 L36.08,38.95 C39.7974937,38.95 42.8,35.9361206 42.8,32.2015152 L42.8,7.54848485 C42.8,3.81387942 39.7974937,0.8 36.08,0.8 C29.8560243,0.8 29.8560243,0.8 25.8953125,0.8 C18.7493576,0.8 18.7493576,0.8 7.52,0.8 C3.80250629,0.8 0.8,3.81387942 0.8,7.54848485 L0.8,32.2015152 C0.8,35.9361206 3.80250629,38.95 7.52,38.95 L13.04,38.95 C14.0872132,38.95 15.6638731,39.1630466 16.0742749,39.7912217 L21.7603516,51.0637612 Z M28.6049411,40.8017139 C28.6026515,40.8025804 28.6005695,40.8034023 28.5987008,40.8041765 C28.6031444,40.8023356 28.6075985,40.8004198 28.6120829,40.798383 Z"></path>
            </g>
        </g>
        <g id="patinage-artistique" transform="translate(6.000000, 7.000000)" fill="#FFFFFF">
            <path d="M2.5498648,18.2261049 C2.50112045,18.3448769 2.35479491,18.4055344 2.22303719,18.3615942 C1.99554815,18.2856785 1.80704535,18.1385163 1.67875614,17.9444123 C1.60230984,17.8287253 1.54722965,17.6963627 1.5179553,17.5524105 C1.47189327,17.3257474 1.08781187,15.0955938 1.08781187,15.0955938 C0.962898699,14.3810442 1.48026398,14.0894712 1.50237005,14.0774231 L1.53085821,14.0621232 C1.6515629,13.9972968 1.8076928,14.0329826 1.87956065,14.1417493 C1.95147475,14.2505576 1.91188731,14.3912997 1.79122887,14.4560844 L1.76889156,14.4680908 C1.73624118,14.4884767 1.52281123,14.6380986 1.59033186,15.0241805 C1.59033186,15.0241805 1.97852925,17.2434116 2.01834793,17.4697412 C2.03323946,17.5542865 2.11347802,17.8361043 2.39956202,17.9314887 C2.5312735,17.9754289 2.59870164,18.1073746 2.5498648,18.2261049 Z M16.5885605,23.2689744 C16.630969,23.3897057 16.5567425,23.5185665 16.4228112,23.5567953 C16.1915299,23.6227473 15.942536,23.6108659 15.7090811,23.5285718 C15.5699238,23.4795456 15.4363162,23.4055476 15.3151491,23.3080787 C15.1244727,23.1546214 13.3027567,21.6065 13.3027567,21.6065 C12.7175933,21.1114847 12.9275085,20.5950413 12.9367579,20.5733213 L12.9488284,20.545473 C12.9999776,20.4275348 13.1475518,20.369337 13.2783383,20.4154033 C13.4091711,20.4615114 13.4737782,20.5944993 13.422629,20.7124375 L13.4131484,20.7342825 C13.4013091,20.7684258 13.3346672,21.0046358 13.6509042,21.2720708 C13.6509042,21.2720708 15.4684117,22.8093113 15.6539547,22.9659369 C15.7232789,23.0244683 15.9785162,23.2025638 16.2693174,23.1195193 C16.4032024,23.0813738 16.5462907,23.148243 16.5885605,23.2689744 Z M27.2368879,7.31775857 L18.4018132,4.12800734 L15.3270346,3.38665168 L9.99355205,0.963102764 C9.99355205,0.963102764 9.61187549,1.73651728 10.7037674,2.37148259 C11.9284344,3.08365595 14.087106,4.28625882 14.087106,4.28625882 L18.0928831,5.93789403 L17.6905342,8.29565768 L16.8228478,8.96605865 C16.9943317,9.28614687 17.3968194,10.0013635 17.7638819,10.3845272 L17.3710598,10.3372936 C17.3710598,10.3372936 16.8390805,9.69982692 16.6043769,9.13481576 L16.6013246,9.13719204 L16.1886163,9.12093332 C15.8876408,9.06461147 15.5720975,9.05673225 15.247166,9.11826523 L11.0665751,9.98889851 L11.8339055,11.1268 C10.3525676,12.1464299 8.79963928,13.2564414 8.79963928,13.2564414 C8.79963928,13.2564414 6.5291424,13.9694903 3.4643069,14.9164144 C2.54926359,15.1991493 2.35174261,16.1848026 2.39613974,16.3047835 L9.24962267,15.1062245 L13.7616658,13.3221433 C14.6090497,14.0416539 16.9604326,15.0242222 19.0285989,14.9003642 L18.7348379,15.1742193 C18.7348379,15.1742193 17.9583506,15.2138238 17.3460865,15.0878396 L18.0461274,15.9094883 C18.0461274,15.9094883 16.7257291,18.004236 15.3596849,20.1531794 C14.9005909,20.8753582 14.7186089,21.530501 15.4468143,22.1303224 C15.4468143,22.1303224 19.4869067,17.3098222 19.8863421,16.8444061 C20.3200003,16.339177 20.352142,16.0209648 20.2402242,15.5543397 C20.1640554,15.2367528 19.3723991,11.9356502 19.3723991,11.9356502 C19.3723991,11.9356502 22.365598,9.93195132 22.8694592,7.55426032 L23.0119,6.60012395 L23.2426725,6.66986966 L23.2509507,7.6677795 C24.9439612,8.15504065 26.9987621,8.41322069 26.9987621,8.41322069 C26.9987621,8.41322069 29.6286445,8.21690714 30.0437114,8.17992899 C30.5015567,8.13915714 31.2466423,8.02126062 31.2977452,7.30049932 L27.2368879,7.31775857 Z M18.9091428,2.81055125 C18.9091428,2.33279519 19.3387776,1.94550429 19.8687683,1.94550429 C19.9320804,1.94550429 19.9938664,1.95138244 20.0538026,1.96192976 C20.3179192,1.66264435 20.6970984,1.44936338 21.1081419,1.3771997 C21.9705098,1.22578522 22.9398009,1.75481875 23.1288124,2.63057979 C23.1894885,2.91118852 23.3626835,3.69727649 23.4719652,4.2044233 C23.5237618,4.44409342 23.3957039,4.67284101 23.0563433,4.7548433 C22.6216677,4.8598996 22.2013286,4.96132896 22.2013286,4.96132896 C22.2013286,4.96132896 20.4496769,4.33891204 20.1300639,3.99973026 C20.0369686,3.90088562 19.9588112,3.79153534 19.8938342,3.6744726 C19.8854172,3.67468105 19.8772315,3.6755982 19.8687683,3.6755982 C19.3387776,3.6755982 18.9091428,3.2883073 18.9091428,2.81055125 Z" id="Fill-1"></path>
        </g>
    </g>
</svg>