<?xml version="1.0" encoding="UTF-8"?>
<svg width="44px" height="53px" viewBox="0 0 44 53" version="1.1" xmlns="http://www.w3.org/2000/svg" xmlns:xlink="http://www.w3.org/1999/xlink">
    <!-- Generator: Sketch 49.2 (51160) - http://www.bohemiancoding.com/sketch -->
    <title>location-pin-selected</title>
    <desc>Created with Sketch.</desc>
    <defs>
        <path d="M7.52,2.74985211e-16 C3.36,2.74985211e-16 0,3.37272727 0,7.54848485 L0,32.2015152 C0,36.3772727 3.36,39.75 7.52,39.75 L13.04,39.75 C13.36,39.75 15.2,39.9106061 15.36,40.1515152 L21.76,52.8393939 L28.16,40.1515152 C28.32,39.9106061 30.16,39.75 30.48,39.75 L36.08,39.75 C40.24,39.75 43.6,36.3772727 43.6,32.2015152 L43.6,7.54848485 C43.6,3.37272727 40.24,0 36.08,0 C31.5534722,4.35829201e-17 28.1585764,7.62701102e-17 25.8953125,9.80615702e-17 C21.8119097,1.37377935e-16 15.6868056,1.96352482e-16 7.52,2.74985211e-16 Z" id="path-1"></path>
        <filter x="-18.3%" y="-13.2%" width="136.7%" height="130.3%" filterUnits="objectBoundingBox" id="filter-2">
            <feOffset dx="0" dy="1" in="SourceAlpha" result="shadowOffsetOuter1"></feOffset>
            <feGaussianBlur stdDeviation="2.5" in="shadowOffsetOuter1" result="shadowBlurOuter1"></feGaussianBlur>
            <feComposite in="shadowBlurOuter1" in2="SourceAlpha" operator="out" result="shadowBlurOuter1"></feComposite>
            <feColorMatrix values="0 0 0 0 0   0 0 0 0 0   0 0 0 0 0  0 0 0 0.271993886 0" type="matrix" in="shadowBlurOuter1"></feColorMatrix>
        </filter>
    </defs>
    <g id="location-pin-selected" stroke="none" stroke-width="1" fill="none" fill-rule="evenodd">
        <g id="location-pin-orange">
            <g id="Path">
                <use fill="black" fill-opacity="1" filter="url(#filter-2)" xlink:href="#path-1"></use>
                <use fill="#EC6607" fill-rule="evenodd" xlink:href="#path-1"></use>
                <path stroke="#FFFFFF" stroke-width="1.6" d="M21.7603516,51.0637612 L27.493587,39.7089163 C27.8561269,39.1630466 29.4327868,38.95 30.48,38.95 L36.08,38.95 C39.7974937,38.95 42.8,35.9361206 42.8,32.2015152 L42.8,7.54848485 C42.8,3.81387942 39.7974937,0.8 36.08,0.8 C29.8560243,0.8 29.8560243,0.8 25.8953125,0.8 C18.7493576,0.8 18.7493576,0.8 7.52,0.8 C3.80250629,0.8 0.8,3.81387942 0.8,7.54848485 L0.8,32.2015152 C0.8,35.9361206 3.80250629,38.95 7.52,38.95 L13.04,38.95 C14.0872132,38.95 15.6638731,39.1630466 16.0742749,39.7912217 L21.7603516,51.0637612 Z M28.6049411,40.8017139 C28.6026515,40.8025804 28.6005695,40.8034023 28.5987008,40.8041765 C28.6031444,40.8023356 28.6075985,40.8004198 28.6120829,40.798383 Z"></path>
            </g>
        </g>
        <g id="roller" transform="translate(5.000000, 5.000000)" fill="#FFFFFF">
            <path d="M16.7721911,3.18004494 C17.1595269,3.79087144 17.8565036,4.65353377 17.8565036,4.65353377 C17.8565036,4.65353377 18.3924442,4.73335208 18.7938688,4.78408081 C19.1246944,4.82587997 19.4213342,4.78199907 19.4802789,4.52265803 C19.6197674,3.91462544 19.8732088,2.80648208 19.9501269,2.47000707 C19.9818265,2.33118784 19.9974691,2.19291645 19.9993856,2.05683635 L20.5884696,1.9976711 C20.5035748,1.28735931 19.9573266,0.182448124 18.6874783,0.0242358425 C17.41763,-0.134031221 16.2703845,0.504022255 16.1126117,1.33649934 C15.9832753,2.01876241 16.2204525,2.73181333 16.4836834,3.18316755 L16.7721911,3.18004494 Z M8.1754381,23.0242915 C8.18320761,22.643826 7.89785949,22.3288806 7.53823488,22.3208275 C7.17850668,22.3126101 6.88072735,22.6144625 6.87300964,22.9948184 C6.86798536,23.2460516 6.99120975,23.4681405 7.17886925,23.592771 C6.98634086,23.7086911 6.85425923,23.9250277 6.84918315,24.1763157 C6.84410707,24.4276037 6.96733146,24.6496926 7.15499097,24.7743231 C6.96246257,24.8902979 6.83043274,25.1066346 6.82535666,25.3579226 C6.82022878,25.6091558 6.94345317,25.8312447 7.13106088,25.9558752 C6.93858428,26.0718501 6.80655445,26.2881319 6.80147837,26.5394199 C6.79376066,26.9198306 7.07916057,27.2347213 7.43888878,27.2428839 C7.79846159,27.2509917 8.09629271,26.9492489 8.10385503,26.5687834 C8.10898291,26.3175502 7.98581032,26.0955162 7.7982026,25.9709404 C7.99067921,25.854856 8.12276084,25.6385741 8.12773332,25.3873409 C8.1328094,25.1360529 8.00963681,24.913964 7.82202909,24.7893883 C8.0145057,24.6733587 8.14658733,24.4570768 8.15161161,24.2057888 C8.15668769,23.9545008 8.0334633,23.7324667 7.84590738,23.607891 C8.03833219,23.4918613 8.17041382,23.2755247 8.1754381,23.0242915 Z M21.1445074,29.7784987 C20.9068123,29.7784987 20.6995218,29.9135379 20.585828,30.1145902 C20.4720306,29.9135379 20.2647402,29.7784987 20.027045,29.7784987 C19.7894535,29.7784987 19.582163,29.9135379 19.4684174,30.1145902 C19.35462,29.9135379 19.1473296,29.7784987 18.9097898,29.7784987 C18.6721465,29.7784987 18.4648042,29.9135379 18.3510068,30.1145902 C18.2372612,29.9135379 18.029919,29.7784987 17.7923274,29.7784987 C17.4325992,29.7784987 17.1409837,30.086925 17.1409837,30.4674452 C17.1409837,30.8479107 17.4325992,31.1563918 17.7923274,31.1563918 C18.029919,31.1563918 18.2372612,31.0213525 18.3510068,30.8202455 C18.4648042,31.0213525 18.6721465,31.1563918 18.9097898,31.1563918 C19.1473296,31.1563918 19.35462,31.0213525 19.4684174,30.8203002 C19.582163,31.0213525 19.7894535,31.1563918 20.027045,31.1563918 C20.2647402,31.1563918 20.4720306,31.0213525 20.585828,30.8203002 C20.6995218,31.0213525 20.9068123,31.1563918 21.1445074,31.1563918 C21.5042356,31.1563918 21.7958511,30.8479107 21.7958511,30.4674452 C21.7958511,30.086925 21.5042356,29.7784987 21.1445074,29.7784987 Z M26.2243669,13.3301736 C25.8028452,13.7496991 25.102709,13.8755896 24.6334307,13.6071546 C24.49244,13.5265146 23.1874217,12.7596671 22.236952,12.2008841 C22.1181821,12.2484354 21.9846502,12.2745668 21.8819373,12.2529276 C21.6336238,12.2005006 21.3800789,11.9993388 21.0928661,11.8023951 C20.743808,11.5630498 20.5764528,11.4323932 20.5373981,11.1848852 C20.5139342,11.0362598 20.5268316,10.8301675 20.5750025,10.667737 L19.7365172,9.47024313 L18.1584266,13.1574987 L17.7891678,15.0426791 L19.9903212,19.6592674 C20.1543096,19.6889048 20.3851157,19.8119467 20.4770549,19.9609007 C20.6154039,20.1851808 20.6570485,20.5175472 20.7250058,20.8723196 C20.8076734,21.3035686 20.8365241,21.5214391 20.6967248,21.7241349 C20.6041641,21.8583524 20.4335457,22.0079638 20.2773268,22.0794004 L19.6917131,29.0207999 C18.5006994,29.1412121 18.3120557,28.0369583 18.3020071,27.6564929 C18.2919586,27.2760274 18.0785043,21.2026041 18.0785043,21.2026041 L16.6573578,19.407322 L15.8455996,18.3517152 L15.3192932,19.6520909 C15.4365609,19.7586979 15.559371,20.0938582 15.5156027,20.3031827 C15.4610608,20.5646602 15.2656836,20.8287126 15.0736731,21.1283737 C14.8402771,21.4926235 14.7133234,21.6668871 14.4786324,21.7031532 C14.3030416,21.7302706 14.0441098,21.6960314 13.8871139,21.606407 L9.1457978,25.1914382 C8.59789213,24.3966515 8.91354132,23.6162727 9.28445762,23.224029 C9.65537391,22.8317305 12.3782756,19.9231007 12.3782756,19.9231007 L13.7516137,15.6414534 C12.7370196,14.0315558 13.7755438,12.7685967 13.7755438,12.7685967 L15.154217,8.26299796 L13.0133033,9.99780001 L12.0208264,15.4509741 C11.2939113,15.0141373 11.2276633,14.2803786 11.2502984,13.570012 C11.2639728,13.138763 11.3458116,11.5846341 11.4080194,10.4296516 C11.3145782,10.3249072 11.2334127,10.190361 11.2148695,10.0719209 C11.1733803,9.80770423 11.2867115,9.4870614 11.3592787,9.13327507 C11.4474885,8.70334087 11.4788256,8.49018159 11.683837,8.36401716 C11.831613,8.27302318 12.0711728,8.20470922 12.2470745,8.21889793 C13.0289459,7.31876427 14.1588395,6.01740252 14.3870558,5.75137799 C15.0195456,5.01411314 15.505606,4.89791915 15.9096722,4.94185483 C16.3623755,4.99110443 18.4836582,5.26688027 19.1673231,5.33831684 C19.6831666,5.39222297 20.0350217,5.62756921 20.2317974,6.04813559 C20.4285732,6.46881152 22.2630057,10.3600229 22.2630057,10.3600229 L26.2243669,13.3301736 Z" id="Fill-1"></path>
        </g>
    </g>
</svg>