<?xml version="1.0" encoding="UTF-8"?>
<svg width="44px" height="53px" viewBox="0 0 44 53" version="1.1" xmlns="http://www.w3.org/2000/svg" xmlns:xlink="http://www.w3.org/1999/xlink">
    <!-- Generator: Sketch 49.2 (51160) - http://www.bohemiancoding.com/sketch -->
    <title>location-pin-selected</title>
    <desc>Created with Sketch.</desc>
    <defs>
        <path d="M7.52,2.74985211e-16 C3.36,2.74985211e-16 0,3.37272727 0,7.54848485 L0,32.2015152 C0,36.3772727 3.36,39.75 7.52,39.75 L13.04,39.75 C13.36,39.75 15.2,39.9106061 15.36,40.1515152 L21.76,52.8393939 L28.16,40.1515152 C28.32,39.9106061 30.16,39.75 30.48,39.75 L36.08,39.75 C40.24,39.75 43.6,36.3772727 43.6,32.2015152 L43.6,7.54848485 C43.6,3.37272727 40.24,0 36.08,0 C31.5534722,4.35829201e-17 28.1585764,7.62701102e-17 25.8953125,9.80615702e-17 C21.8119097,1.37377935e-16 15.6868056,1.96352482e-16 7.52,2.74985211e-16 Z" id="path-1"></path>
        <filter x="-18.3%" y="-13.2%" width="136.7%" height="130.3%" filterUnits="objectBoundingBox" id="filter-2">
            <feOffset dx="0" dy="1" in="SourceAlpha" result="shadowOffsetOuter1"></feOffset>
            <feGaussianBlur stdDeviation="2.5" in="shadowOffsetOuter1" result="shadowBlurOuter1"></feGaussianBlur>
            <feComposite in="shadowBlurOuter1" in2="SourceAlpha" operator="out" result="shadowBlurOuter1"></feComposite>
            <feColorMatrix values="0 0 0 0 0   0 0 0 0 0   0 0 0 0 0  0 0 0 0.271993886 0" type="matrix" in="shadowBlurOuter1"></feColorMatrix>
        </filter>
    </defs>
    <g id="location-pin-selected" stroke="none" stroke-width="1" fill="none" fill-rule="evenodd">
        <g id="location-pin-orange">
            <g id="Path">
                <use fill="black" fill-opacity="1" filter="url(#filter-2)" xlink:href="#path-1"></use>
                <use fill="#EC6607" fill-rule="evenodd" xlink:href="#path-1"></use>
                <path stroke="#FFFFFF" stroke-width="1.6" d="M21.7603516,51.0637612 L27.493587,39.7089163 C27.8561269,39.1630466 29.4327868,38.95 30.48,38.95 L36.08,38.95 C39.7974937,38.95 42.8,35.9361206 42.8,32.2015152 L42.8,7.54848485 C42.8,3.81387942 39.7974937,0.8 36.08,0.8 C29.8560243,0.8 29.8560243,0.8 25.8953125,0.8 C18.7493576,0.8 18.7493576,0.8 7.52,0.8 C3.80250629,0.8 0.8,3.81387942 0.8,7.54848485 L0.8,32.2015152 C0.8,35.9361206 3.80250629,38.95 7.52,38.95 L13.04,38.95 C14.0872132,38.95 15.6638731,39.1630466 16.0742749,39.7912217 L21.7603516,51.0637612 Z M28.6049411,40.8017139 C28.6026515,40.8025804 28.6005695,40.8034023 28.5987008,40.8041765 C28.6031444,40.8023356 28.6075985,40.8004198 28.6120829,40.798383 Z"></path>
            </g>
        </g>
        <g id="skateboard" transform="translate(6.000000, 6.000000)" fill="#FFFFFF">
            <path d="M15.332549,3.05907387 C15.6725047,3.70110145 16.5321518,4.79044699 16.5321518,4.79044699 C16.5321518,4.79044699 17.046253,4.88468225 17.4218963,4.92605991 C17.7545148,4.96274577 18.0298335,5.02753251 18.1013585,4.78450738 C18.2691651,4.21475345 18.5960935,3.10379569 18.6887815,2.78844699 C18.7455822,2.5953346 18.7672443,2.40162326 18.7594579,2.21290319 C18.920127,2.12211192 19.0658223,1.99957614 19.1614052,1.83396567 C19.0771525,1.19138905 18.4804956,0.160890625 17.2191508,0.0177408867 C15.957756,-0.125408852 15.0215927,0.622633382 14.8152534,1.36453635 C14.6121085,2.09490947 14.8584279,2.63037335 15.0989075,3.05043897 L15.332549,3.05907387 Z M25.7966052,7.77173495 C25.3196391,7.77173495 19.3992893,7.82893495 19.3992893,7.82893495 L18.0493494,9.88044839 L17.5560119,11.9676994 L19.6590352,11.653898 C21.3847183,11.4412697 20.7478318,13.3182383 20.7478318,13.3182383 L18.7943469,20.1322756 L19.4227982,20.2943922 C19.1071501,21.5184023 17.8614279,22.2865594 17.7073972,22.3774505 C17.3571595,22.6168819 12.0516848,26.2428428 11.0741937,26.8223796 C10.159393,27.3645817 9.41908725,27.8033646 7.98709074,27.5931322 C7.84299266,27.5719692 7.69195671,27.5442676 7.53308446,27.5094285 L7.68696544,26.807306 C8.20291343,26.9203084 8.60965235,26.9498069 8.96308446,26.9158163 L10.5714227,19.2839088 L12.9397822,12.404336 L13.503896,7.29451925 L10.8262771,6.6369189 L5.59327573,8.18730843 C5.27403385,7.51623164 5.81563699,6.94018871 6.58908481,6.6083189 C7.36248272,6.276499 10.1159689,5.09511436 10.1159689,5.09511436 C10.278385,5.02543617 10.4533291,4.989499 10.6301201,4.989499 L14.0153019,4.989499 L19.5994893,5.64714926 L22.9912098,6.56279848 L27.3346164,6.59938452 C27.3937131,7.45798347 26.2736213,7.77173495 25.7966052,7.77173495 Z M17.8340258,23.0629521 C17.5134862,22.9811451 17.1873065,23.1744571 17.1054496,23.4951964 C17.0233431,23.8154864 17.2169047,24.1417161 17.5374443,24.2236229 C17.8578841,24.3055297 18.1841637,24.1120679 18.2658708,23.791728 C18.3478276,23.4710386 18.1544157,23.1448589 17.8340258,23.0629521 Z M11.2241815,27.3729671 C10.9037916,27.2910103 10.5774621,27.4844222 10.4956052,27.8049618 C10.4136984,28.1253517 10.6070604,28.4515814 10.9275501,28.5334383 C11.2481895,28.6154449 11.5743194,28.422033 11.656326,28.1014934 C11.7380831,27.7811035 11.5446213,27.4548739 11.2241815,27.3729671 Z M12.6204904,19.8949905 C12.6204904,19.8949905 11.0758907,25.2014634 10.8058129,25.9158145 C10.7613407,26.0334089 10.7111784,26.1383255 10.6573225,26.2339084 C10.6740932,26.2239758 10.6906642,26.214143 10.7076345,26.2040606 C11.6772394,25.6292156 17.2560862,21.8152833 17.312288,21.7768505 L17.3366454,21.7616271 C17.3435333,21.757684 17.8043777,21.4874065 18.2029808,21.0377426 C17.4860342,20.6266613 17.5315546,19.7970117 17.6026304,19.1376145 C17.673756,18.4781674 18.0987131,14.5164934 18.0987131,14.5164934 L15.4021773,15.6672316 L12.6204904,19.8949905 Z" id="Fill-1"></path>
        </g>
    </g>
</svg>