<?xml version="1.0" encoding="UTF-8"?>
<svg width="44px" height="53px" viewBox="0 0 44 53" version="1.1" xmlns="http://www.w3.org/2000/svg" xmlns:xlink="http://www.w3.org/1999/xlink">
    <!-- Generator: Sketch 49.2 (51160) - http://www.bohemiancoding.com/sketch -->
    <title>location-pin-selected</title>
    <desc>Created with Sketch.</desc>
    <defs>
        <path d="M7.52,2.74985211e-16 C3.36,2.74985211e-16 0,3.37272727 0,7.54848485 L0,32.2015152 C0,36.3772727 3.36,39.75 7.52,39.75 L13.04,39.75 C13.36,39.75 15.2,39.9106061 15.36,40.1515152 L21.76,52.8393939 L28.16,40.1515152 C28.32,39.9106061 30.16,39.75 30.48,39.75 L36.08,39.75 C40.24,39.75 43.6,36.3772727 43.6,32.2015152 L43.6,7.54848485 C43.6,3.37272727 40.24,0 36.08,0 C31.5534722,4.35829201e-17 28.1585764,7.62701102e-17 25.8953125,9.80615702e-17 C21.8119097,1.37377935e-16 15.6868056,1.96352482e-16 7.52,2.74985211e-16 Z" id="path-1"></path>
        <filter x="-18.3%" y="-13.2%" width="136.7%" height="130.3%" filterUnits="objectBoundingBox" id="filter-2">
            <feOffset dx="0" dy="1" in="SourceAlpha" result="shadowOffsetOuter1"></feOffset>
            <feGaussianBlur stdDeviation="2.5" in="shadowOffsetOuter1" result="shadowBlurOuter1"></feGaussianBlur>
            <feComposite in="shadowBlurOuter1" in2="SourceAlpha" operator="out" result="shadowBlurOuter1"></feComposite>
            <feColorMatrix values="0 0 0 0 0   0 0 0 0 0   0 0 0 0 0  0 0 0 0.271993886 0" type="matrix" in="shadowBlurOuter1"></feColorMatrix>
        </filter>
    </defs>
    <g id="location-pin-selected" stroke="none" stroke-width="1" fill="none" fill-rule="evenodd">
        <g id="location-pin-orange">
            <g id="Path">
                <use fill="black" fill-opacity="1" filter="url(#filter-2)" xlink:href="#path-1"></use>
                <use fill="#EC6607" fill-rule="evenodd" xlink:href="#path-1"></use>
                <path stroke="#FFFFFF" stroke-width="1.6" d="M21.7603516,51.0637612 L27.493587,39.7089163 C27.8561269,39.1630466 29.4327868,38.95 30.48,38.95 L36.08,38.95 C39.7974937,38.95 42.8,35.9361206 42.8,32.2015152 L42.8,7.54848485 C42.8,3.81387942 39.7974937,0.8 36.08,0.8 C29.8560243,0.8 29.8560243,0.8 25.8953125,0.8 C18.7493576,0.8 18.7493576,0.8 7.52,0.8 C3.80250629,0.8 0.8,3.81387942 0.8,7.54848485 L0.8,32.2015152 C0.8,35.9361206 3.80250629,38.95 7.52,38.95 L13.04,38.95 C14.0872132,38.95 15.6638731,39.1630466 16.0742749,39.7912217 L21.7603516,51.0637612 Z M28.6049411,40.8017139 C28.6026515,40.8025804 28.6005695,40.8034023 28.5987008,40.8041765 C28.6031444,40.8023356 28.6075985,40.8004198 28.6120829,40.798383 Z"></path>
            </g>
        </g>
        <g id="hockey-sur-glace" transform="translate(6.000000, 6.000000)" fill="#FFFFFF">
            <path d="M5.15441574,26.3449864 C5.16001231,26.4968505 5.04376076,26.6245964 4.89476438,26.6303507 C4.63742037,26.6402081 4.38631114,26.5548941 4.17315057,26.3926222 C4.04609863,26.2958995 3.93249809,26.1718564 3.83897647,26.0242455 C3.6918456,25.791871 2.31170213,23.4769824 2.31170213,23.4769824 C1.86770762,22.7360259 2.24405237,22.1987224 2.26035115,22.1762054 L2.28141192,22.1474839 C2.37061338,22.0257424 2.53983597,22.0007236 2.65927854,22.091692 C2.77872112,22.1826103 2.80326747,22.3550898 2.71401692,22.4768813 L2.69752177,22.4993982 C2.67464456,22.5354753 2.53261934,22.7896662 2.77253543,23.1900169 C2.77253543,23.1900169 4.15179524,25.4911451 4.29269133,25.7257213 C4.34536781,25.8133371 4.55086991,26.092747 4.87443999,26.0802876 C5.02338729,26.0746334 5.14891736,26.1930723 5.15441574,26.3449864 Z M15.4647694,27.098052 C15.5599111,27.2150399 15.544005,27.3885202 15.4291772,27.485543 C15.2309408,27.6530688 14.9807643,27.741185 14.7146818,27.7446877 C14.5561123,27.7467892 14.3919463,27.7188182 14.2295967,27.6597238 C13.9740691,27.566704 11.4965071,26.5864678 11.4965071,26.5864678 C10.7016961,26.2740832 10.679408,25.6142876 10.678868,25.5863666 L10.6784261,25.5504897 C10.6765115,25.3985256 10.7958068,25.2737318 10.9449014,25.2717804 C11.093996,25.2697789 11.2164332,25.3913702 11.2183969,25.5433844 L11.2187405,25.5715055 C11.2222261,25.6142876 11.2613039,25.9041053 11.6908161,26.072882 C11.6908161,26.072882 14.1593941,27.0427104 14.4112888,27.1413845 C14.5053996,27.1782622 14.8352535,27.272433 15.0845463,27.0617748 C15.1993251,26.964852 15.3696768,26.9809641 15.4647694,27.098052 Z M30.006375,26.7243213 L30.006375,27.4726834 L30.0013184,27.4726834 C29.9472674,27.6411099 29.4385196,27.7732091 28.8185277,27.7732091 C28.1985358,27.7732091 27.689788,27.6411099 27.635786,27.4726834 L27.6307785,27.4726834 L27.6307785,26.7243213 C27.6307785,26.5419343 28.1625508,26.3941233 28.8185277,26.3941233 C29.4745536,26.3941233 30.006375,26.5419343 30.006375,26.7243213 Z M13.7033228,3.26565267 C14.0419153,3.97478526 14.5218947,4.8360321 14.5218947,4.8360321 L15.7649713,4.8360321 C16.1321848,4.8360321 16.1499564,4.75567175 16.2219754,4.54066026 C16.4047476,3.99575101 16.6817778,2.74441119 16.7863453,2.42166879 L16.996413,2.30988484 C16.996413,2.30988484 17.344284,0.747411343 16.278923,0.307530971 C15.807682,0.047735852 14.9455158,-0.183988184 14.1261093,0.213960695 C13.296246,0.617013408 12.7361472,1.68011185 13.2913367,3.01971796 C13.419616,3.1218947 13.5630649,3.20250524 13.7033228,3.26565267 Z M28.7544126,24.3870659 C28.7544126,24.3870659 27.2414733,25.0639743 26.7699869,25.199376 C26.5372874,25.2661762 26.3427821,25.1267715 26.3427821,25.1267715 L26.2491132,25.0171391 L26.2456276,25.0202415 L19.2444666,16.8163799 C19.0999867,16.8167302 18.9596306,16.784456 18.8302713,16.715304 C18.4952135,16.5362195 18.3090049,16.1515806 18.2927552,15.7011924 L16.6161408,13.7365669 C16.7934146,15.2883823 16.9579243,16.2213831 16.9579243,16.2213831 L17.0852217,17.6465534 C17.0852217,17.6465534 16.5758357,18.9204102 15.9223135,20.5830589 L15.9439143,20.5850104 L16.1073439,21.1176104 L14.5683855,24.8750324 L14.2875752,24.8750324 L14.2635689,24.8675268 C14.0520284,25.4261463 13.8560502,25.9512407 13.6883495,26.4119867 C13.6883495,26.4119867 12.6509223,26.1106104 12.8476859,24.9870165 C12.889562,24.7478369 12.9382619,24.471129 12.9915766,24.1693524 L12.822845,23.8841382 L13.4162286,20.6919407 L13.6353294,20.5484329 C13.8852113,19.1481812 14.0868351,18.022736 14.0868351,18.022736 L12.1760976,14.2731699 L9.13662035,17.9621905 L7.87729404,19.5244639 L7.95289682,19.7495829 L5.79502657,22.6502114 L5.43399875,22.8366014 L4.30447358,24.6929456 C4.30447358,24.6929456 3.44878757,23.9359771 3.78202892,22.9180126 C3.9654393,22.3575917 4.08355637,22.0001232 4.1514025,21.7953694 L4.00432073,21.4843358 L5.2934954,18.4824813 L5.68064055,18.3428764 L8.55099336,12.1338631 L9.14516248,11.3723912 L12.8050734,12.8243317 L13.2418022,12.8243317 L9.57472373,10.7152477 L8.88541293,8.81201827 C8.88541293,8.81201827 9.49592992,7.21712042 10.0046286,5.98374409 L9.87796942,5.57548747 C9.87796942,5.57548747 10.0534759,4.66105068 10.8322336,4.18639419 C11.3138822,3.89282371 11.934856,3.83077711 12.6804761,4.09722722 L12.7967277,4.40265662 C13.4516736,4.76402802 14.4456046,5.26235229 14.4456046,5.26235229 L16.7561532,5.26720594 L17.0507095,5.007661 C18.5386606,4.88616976 19.3831044,6.40065721 19.2442211,7.2067126 L19.0690583,7.45820148 L19.048243,11.2599568 C19.048243,11.2599568 19.521644,12.5615844 19.9719715,13.6949356 C20.0777663,13.7073949 20.1804191,13.738118 20.2768372,13.7897068 C20.8481292,14.0950361 20.9873561,14.9974638 20.5878887,15.8053706 C20.4276991,16.1293139 20.2051619,16.3887087 19.9592565,16.5637402 L26.4932022,24.2200905 L28.6463104,23.1812103 C28.6463104,23.1812103 28.8707623,23.0723285 28.9715497,23.1680003 C29.1772972,23.3630468 29.150689,24.0152366 29.0713552,24.1566429 C29.009302,24.2672759 28.7544126,24.3870659 28.7544126,24.3870659 Z M27.9636762,26.7243213 C28.1259768,26.7790624 28.4179802,26.8343539 28.8185277,26.8343539 C29.2190751,26.8343539 29.5111768,26.7790624 29.6734282,26.7243213 C29.5111768,26.6695302 29.2190751,26.6142386 28.8185277,26.6142386 C28.4179802,26.6142386 28.1259768,26.6695302 27.9636762,26.7243213 Z M17.0211557,9.96293266 L16.4289503,11.8604578 C16.4476055,12.0783715 16.4668008,12.2893299 16.4862415,12.4941337 L18.4666416,14.8147266 C18.4830876,14.7761977 18.5004174,14.7378188 18.5192199,14.6996402 C18.5292348,14.6793749 18.5396915,14.6595601 18.5501483,14.6398453 L17.3357418,12.1338631 L17.0211557,9.96293266 Z" id="Fill-1"></path>
        </g>
    </g>
</svg>