<?xml version="1.0" encoding="UTF-8"?>
<svg width="44px" height="53px" viewBox="0 0 44 53" version="1.1" xmlns="http://www.w3.org/2000/svg" xmlns:xlink="http://www.w3.org/1999/xlink">
    <!-- Generator: Sketch 49.2 (51160) - http://www.bohemiancoding.com/sketch -->
    <title>location-pin-selected</title>
    <desc>Created with Sketch.</desc>
    <defs>
        <path d="M7.52,2.74985211e-16 C3.36,2.74985211e-16 0,3.37272727 0,7.54848485 L0,32.2015152 C0,36.3772727 3.36,39.75 7.52,39.75 L13.04,39.75 C13.36,39.75 15.2,39.9106061 15.36,40.1515152 L21.76,52.8393939 L28.16,40.1515152 C28.32,39.9106061 30.16,39.75 30.48,39.75 L36.08,39.75 C40.24,39.75 43.6,36.3772727 43.6,32.2015152 L43.6,7.54848485 C43.6,3.37272727 40.24,0 36.08,0 C31.5534722,4.35829201e-17 28.1585764,7.62701102e-17 25.8953125,9.80615702e-17 C21.8119097,1.37377935e-16 15.6868056,1.96352482e-16 7.52,2.74985211e-16 Z" id="path-1"></path>
        <filter x="-18.3%" y="-13.2%" width="136.7%" height="130.3%" filterUnits="objectBoundingBox" id="filter-2">
            <feOffset dx="0" dy="1" in="SourceAlpha" result="shadowOffsetOuter1"></feOffset>
            <feGaussianBlur stdDeviation="2.5" in="shadowOffsetOuter1" result="shadowBlurOuter1"></feGaussianBlur>
            <feComposite in="shadowBlurOuter1" in2="SourceAlpha" operator="out" result="shadowBlurOuter1"></feComposite>
            <feColorMatrix values="0 0 0 0 0   0 0 0 0 0   0 0 0 0 0  0 0 0 0.271993886 0" type="matrix" in="shadowBlurOuter1"></feColorMatrix>
        </filter>
    </defs>
    <g id="location-pin-selected" stroke="none" stroke-width="1" fill="none" fill-rule="evenodd">
        <g id="location-pin-orange">
            <g id="Path">
                <use fill="black" fill-opacity="1" filter="url(#filter-2)" xlink:href="#path-1"></use>
                <use fill="#EC6607" fill-rule="evenodd" xlink:href="#path-1"></use>
                <path stroke="#FFFFFF" stroke-width="1.6" d="M21.7603516,51.0637612 L27.493587,39.7089163 C27.8561269,39.1630466 29.4327868,38.95 30.48,38.95 L36.08,38.95 C39.7974937,38.95 42.8,35.9361206 42.8,32.2015152 L42.8,7.54848485 C42.8,3.81387942 39.7974937,0.8 36.08,0.8 C29.8560243,0.8 29.8560243,0.8 25.8953125,0.8 C18.7493576,0.8 18.7493576,0.8 7.52,0.8 C3.80250629,0.8 0.8,3.81387942 0.8,7.54848485 L0.8,32.2015152 C0.8,35.9361206 3.80250629,38.95 7.52,38.95 L13.04,38.95 C14.0872132,38.95 15.6638731,39.1630466 16.0742749,39.7912217 L21.7603516,51.0637612 Z M28.6049411,40.8017139 C28.6026515,40.8025804 28.6005695,40.8034023 28.5987008,40.8041765 C28.6031444,40.8023356 28.6075985,40.8004198 28.6120829,40.798383 Z"></path>
            </g>
        </g>
        <g id="golf" transform="translate(4.000000, 6.000000)" fill="#FFFFFF">
            <path d="M9.1023359,6.43674533 C9.03667655,6.020349 8.91567376,5.20914149 8.84978208,4.75829192 L8.33789011,4.85895347 C8.01795763,4.92184099 7.79393519,5.52555081 7.67209598,6.65332332 C7.6470497,6.86097666 7.66703096,6.9900725 7.73454903,7.06255919 C7.81270828,7.14563091 7.9842683,7.16218298 8.24365292,7.11128145 L8.45373494,7.06997909 C8.72761759,7.02328043 8.9641864,6.98286015 9.06116521,6.8320235 C9.1171592,6.74511211 9.13058847,6.61586062 9.1023359,6.43674533 Z M9.48881061,6.3607303 C9.53639389,6.66229983 9.50070643,6.90009976 9.37979658,7.08772457 C9.18704714,7.38752994 8.860795,7.44377587 8.51525863,7.50277184 L8.31182154,7.5428289 C8.21586503,7.56166403 8.10392351,7.57868309 7.98914744,7.57868309 C7.80271765,7.57868309 7.60876004,7.53385239 7.46326859,7.37912418 C7.22014779,7.11823436 7.26731285,6.72658832 7.28283318,6.59785569 C7.34788844,5.99570249 7.50100064,4.57855399 8.26986089,4.42735413 L9.01153734,4.28149866 L14.6622838,3.16083474 C14.6949508,3.24686403 14.7304524,3.33144049 14.7712049,3.41316313 C14.7929055,3.45659288 14.8214368,3.50645667 14.8631187,3.56602339 L9.23621033,4.68201746 C9.30163733,5.12975378 9.42305833,5.94381509 9.48881061,6.3607303 Z M7.87980813,6.19401611 L7.96465878,6.93538319 C8.00322726,6.96802036 8.04523437,6.98519508 8.10266887,6.98903475 L7.95411054,5.69138292 C7.91503091,5.86447927 7.89421323,6.04738233 7.87980813,6.19401611 Z M8.06549444,5.36267629 L8.25043725,6.97803462 C8.26865272,6.97507704 8.28775109,6.97170436 8.30833643,6.96760526 C8.33240688,6.96288351 8.35615205,6.95821364 8.37947901,6.95364755 L8.17948055,5.20633957 C8.13515003,5.24675985 8.09751092,5.30030764 8.06549444,5.36267629 Z M8.32450731,5.13011699 C8.32181217,5.13068775 8.31930289,5.13167361 8.31660775,5.13219248 L8.5221359,6.92718498 C8.56725637,6.91883111 8.61037872,6.90959515 8.65071298,6.89817993 L8.4455101,5.10640445 L8.32450731,5.13011699 Z M8.68421644,5.05949824 L8.58793465,5.07838526 L8.78951303,6.83887263 C8.82984729,6.81370725 8.86507006,6.78236726 8.89225387,6.74013092 C8.89745829,6.73203649 8.90215156,6.72165901 8.90665896,6.71024379 L8.71692994,5.05306421 L8.68421644,5.05949824 Z M15.1521499,3.17624529 C15.1918336,3.25589244 15.2694352,3.3548417 15.3720832,3.46510241 C15.9325807,4.06725562 17.2424684,5.00812972 17.2424684,5.00812972 C17.2424684,5.00812972 17.5864713,4.94077989 17.9701115,4.86606204 C18.3099323,4.79990561 18.6011475,4.7835092 18.6021698,4.49205771 C18.6036568,4.06035459 18.6102552,2.16392224 18.6104876,2.09709128 C18.6146697,0.916082312 17.7209963,0.00416136897 16.7822953,1.03774787e-05 L16.775511,1.03774787e-05 C15.838297,1.03774787e-05 14.9058693,0.833892681 14.9017336,2.02766595 C14.9004325,2.40120329 14.9672071,2.75647628 15.1048919,3.07304127 C15.119994,3.10780582 15.135282,3.1424666 15.1521499,3.17624529 Z M23.3328025,6.73105063 C22.2000045,6.99308197 18.4063535,7.84922396 18.4063535,7.84922396 L18.5379974,8.13740655 L21.6891349,7.64214138 L22.6153824,12.3646206 L22.6153824,17.1095152 L20.9086111,30.130034 C20.9086111,30.130034 19.6921242,30.1339256 19.6921242,28.8028583 L19.6921242,21.2623228 L20.3071288,17.5656573 L20.3071288,16.3019917 L18.7679678,23.2282323 L14.5828699,30.0402169 C13.9141948,29.7095905 13.6839456,28.9784971 14.0171679,28.2110306 C14.5269224,27.0369746 16.8464212,22.0610254 16.8464212,22.0610254 L16.8464212,16.8149505 C16.8464212,14.3987102 17.7313122,13.3334101 17.7313122,13.3334101 C17.7313122,13.3334101 16.5801594,10.3949752 15.7897379,8.51182598 C15.3626037,7.49462552 15.7723124,5.8478753 17.2807116,5.55216905 L22.9865691,4.43742028 L22.7647307,2.22364463 L22.0564183,2.36384437 L21.3631151,4.19910148 L19.5562981,4.55681317 L20.6665591,2.63895133 L20.4163287,2.6884519 C20.3931876,2.693018 20.3701395,2.69524915 20.3473701,2.69524915 C20.2297595,2.69524915 20.1206525,2.63588997 20.0475118,2.53891244 L19.0442668,2.73748549 L19.0458002,2.29218788 L19.9793432,2.10741687 C20.0257183,1.96534919 20.1364517,1.85384318 20.2793409,1.82551266 L22.6772314,1.35089867 L22.631925,0.898751923 C23.5937206,0.898751923 23.7984123,1.69709136 23.9498517,2.39217489 C24.101291,3.08715464 24.2572378,3.80314878 24.368854,4.31548491 C24.6687588,5.6923169 24.5613711,6.44712281 23.3328025,6.73105063 Z" id="Fill-1"></path>
        </g>
    </g>
</svg>