<?xml version="1.0" encoding="UTF-8"?>
<svg width="44px" height="53px" viewBox="0 0 44 53" version="1.1" xmlns="http://www.w3.org/2000/svg" xmlns:xlink="http://www.w3.org/1999/xlink">
    <!-- Generator: Sketch 49.2 (51160) - http://www.bohemiancoding.com/sketch -->
    <title>location-pin-selected</title>
    <desc>Created with Sketch.</desc>
    <defs>
        <path d="M7.52,2.74985211e-16 C3.36,2.74985211e-16 0,3.37272727 0,7.54848485 L0,32.2015152 C0,36.3772727 3.36,39.75 7.52,39.75 L13.04,39.75 C13.36,39.75 15.2,39.9106061 15.36,40.1515152 L21.76,52.8393939 L28.16,40.1515152 C28.32,39.9106061 30.16,39.75 30.48,39.75 L36.08,39.75 C40.24,39.75 43.6,36.3772727 43.6,32.2015152 L43.6,7.54848485 C43.6,3.37272727 40.24,0 36.08,0 C31.5534722,4.35829201e-17 28.1585764,7.62701102e-17 25.8953125,9.80615702e-17 C21.8119097,1.37377935e-16 15.6868056,1.96352482e-16 7.52,2.74985211e-16 Z" id="path-1"></path>
        <filter x="-18.3%" y="-13.2%" width="136.7%" height="130.3%" filterUnits="objectBoundingBox" id="filter-2">
            <feOffset dx="0" dy="1" in="SourceAlpha" result="shadowOffsetOuter1"></feOffset>
            <feGaussianBlur stdDeviation="2.5" in="shadowOffsetOuter1" result="shadowBlurOuter1"></feGaussianBlur>
            <feComposite in="shadowBlurOuter1" in2="SourceAlpha" operator="out" result="shadowBlurOuter1"></feComposite>
            <feColorMatrix values="0 0 0 0 0   0 0 0 0 0   0 0 0 0 0  0 0 0 0.271993886 0" type="matrix" in="shadowBlurOuter1"></feColorMatrix>
        </filter>
    </defs>
    <g id="location-pin-selected" stroke="none" stroke-width="1" fill="none" fill-rule="evenodd">
        <g id="location-pin-orange">
            <g id="Path">
                <use fill="black" fill-opacity="1" filter="url(#filter-2)" xlink:href="#path-1"></use>
                <use fill="#EC6607" fill-rule="evenodd" xlink:href="#path-1"></use>
                <path stroke="#FFFFFF" stroke-width="1.6" d="M21.7603516,51.0637612 L27.493587,39.7089163 C27.8561269,39.1630466 29.4327868,38.95 30.48,38.95 L36.08,38.95 C39.7974937,38.95 42.8,35.9361206 42.8,32.2015152 L42.8,7.54848485 C42.8,3.81387942 39.7974937,0.8 36.08,0.8 C29.8560243,0.8 29.8560243,0.8 25.8953125,0.8 C18.7493576,0.8 18.7493576,0.8 7.52,0.8 C3.80250629,0.8 0.8,3.81387942 0.8,7.54848485 L0.8,32.2015152 C0.8,35.9361206 3.80250629,38.95 7.52,38.95 L13.04,38.95 C14.0872132,38.95 15.6638731,39.1630466 16.0742749,39.7912217 L21.7603516,51.0637612 Z M28.6049411,40.8017139 C28.6026515,40.8025804 28.6005695,40.8034023 28.5987008,40.8041765 C28.6031444,40.8023356 28.6075985,40.8004198 28.6120829,40.798383 Z"></path>
            </g>
        </g>
        <g id="tir-a-l-arc" transform="translate(5.000000, 6.000000)" fill="#FFFFFF">
            <path d="M9.3191242,9.02008524 C9.31973737,9.02008524 9.32030674,9.02008524 9.32091991,9.02004144 C9.57350214,9.01312138 13.6353591,8.78738723 14.2083665,8.74945828 C14.6014084,8.72348616 15.411406,8.3956592 15.3412856,7.61868524 C15.3412856,7.61868524 11.8652688,7.58338417 10.8429392,7.58338417 C9.34062894,7.58338417 9.0697392,9.02008524 9.3191242,9.02008524 M25.6509067,8.22257008 L24.4003028,8.22257008 C24.2305861,6.10402398 23.2172789,4.05021112 21.4477141,2.25388585 C20.0133781,0.797913721 18.6111021,0.0318454211 18.5521064,4.3797856e-06 L18.3531328,0.391031639 C18.3582133,0.393834701 18.5481646,0.497679418 18.8543992,0.696872067 L16.1665248,5.10792934 L16.1665248,5.77208003 L19.1418008,0.889363645 C19.6737695,1.25617069 20.4106247,1.82090025 21.1471732,2.56852965 C22.3416721,3.78116089 23.7597153,5.71921602 23.9711714,8.22257008 L15.6192268,8.22257008 C15.4643576,8.63335017 14.8747946,9.09068738 14.2289953,9.13404726 C13.7304881,9.16746502 10.0155539,9.37357773 9.3987925,9.40226533 C9.40514319,9.40778386 9.41140628,9.41330239 9.41867672,9.41855813 C9.76827121,9.67276089 11.92479,11.1516831 11.92479,11.1516831 C11.92479,11.1516831 12.5318721,13.4036813 12.5318721,14.172684 C12.5318721,14.9416868 12.4912715,15.8162424 12.4912715,15.8162424 C11.6057227,16.9047943 10.2396237,21.8995018 10.2396237,21.8995018 L6.6000219,28.0504727 C6.72029081,28.3208368 7.74638698,28.5469214 8.46738729,27.6239254 C9.1883876,26.7008855 15.0769217,19.1354629 15.0769217,19.1354629 L17.7707965,21.9671257 C17.7707965,21.9671257 18.2740338,26.1635296 18.4033251,27.1729388 C18.5325726,28.1823918 19.2330317,28.7119079 19.8267116,28.5232267 C19.8267116,28.5232267 19.762285,22.7618816 19.762285,22.1283456 C19.762285,21.0951979 19.6818721,20.9094512 19.3186565,20.2828353 C19.0897689,19.8880414 16.8295368,15.7654368 16.8295368,15.7654368 L16.8295368,11.2399796 L17.1206173,10.2179128 L23.9914936,9.08459948 C23.8933426,11.4230546 22.4479257,13.4226019 21.2183885,14.7118356 C20.4915631,15.4739621 19.7568979,16.080431 19.2120963,16.4916053 L17.3445995,13.7114926 L17.3445995,14.3320644 L18.9334544,16.6973676 C18.5763266,16.955118 18.3502859,17.0952711 18.344636,17.0987312 L18.5638881,17.478152 C18.6244605,17.4409676 20.0643588,16.5497689 21.5166957,15.0289321 C23.4547508,12.9995146 24.460481,10.8199581 24.4253551,8.72580744 C24.424523,8.67579029 24.4225959,8.62581694 24.4208002,8.57579979 L25.6509067,8.57579979 C25.7455101,8.57579979 25.822244,8.49678845 25.822244,8.39920683 C25.822244,8.301669 25.7455101,8.22257008 25.6509067,8.22257008 M12.61684,5.91341571 C12.5188204,5.62399948 12.501564,5.30856732 12.5568807,4.98849259 C12.7162611,4.06457681 13.6092556,3.55976273 14.3948577,3.70368248 C15.1800657,3.84742704 15.8092219,4.6858932 15.6518124,5.59776456 C15.6075766,5.85442 15.4652773,6.67922123 15.369579,7.23378968 L15.3449208,7.23352689 C15.3289346,7.2333517 14.5891012,7.22590606 13.6962819,7.21789106 C13.2834871,6.80084787 12.709779,6.18789688 12.61684,5.91341571" id="Fill-1"></path>
        </g>
    </g>
</svg>