<?xml version="1.0" encoding="UTF-8"?>
<svg width="44px" height="53px" viewBox="0 0 44 53" version="1.1" xmlns="http://www.w3.org/2000/svg" xmlns:xlink="http://www.w3.org/1999/xlink">
    <!-- Generator: Sketch 49.2 (51160) - http://www.bohemiancoding.com/sketch -->
    <title>location-pin-selected</title>
    <desc>Created with Sketch.</desc>
    <defs>
        <path d="M7.52,2.74985211e-16 C3.36,2.74985211e-16 0,3.37272727 0,7.54848485 L0,32.2015152 C0,36.3772727 3.36,39.75 7.52,39.75 L13.04,39.75 C13.36,39.75 15.2,39.9106061 15.36,40.1515152 L21.76,52.8393939 L28.16,40.1515152 C28.32,39.9106061 30.16,39.75 30.48,39.75 L36.08,39.75 C40.24,39.75 43.6,36.3772727 43.6,32.2015152 L43.6,7.54848485 C43.6,3.37272727 40.24,0 36.08,0 C31.5534722,4.35829201e-17 28.1585764,7.62701102e-17 25.8953125,9.80615702e-17 C21.8119097,1.37377935e-16 15.6868056,1.96352482e-16 7.52,2.74985211e-16 Z" id="path-1"></path>
        <filter x="-18.3%" y="-13.2%" width="136.7%" height="130.3%" filterUnits="objectBoundingBox" id="filter-2">
            <feOffset dx="0" dy="1" in="SourceAlpha" result="shadowOffsetOuter1"></feOffset>
            <feGaussianBlur stdDeviation="2.5" in="shadowOffsetOuter1" result="shadowBlurOuter1"></feGaussianBlur>
            <feComposite in="shadowBlurOuter1" in2="SourceAlpha" operator="out" result="shadowBlurOuter1"></feComposite>
            <feColorMatrix values="0 0 0 0 0   0 0 0 0 0   0 0 0 0 0  0 0 0 0.271993886 0" type="matrix" in="shadowBlurOuter1"></feColorMatrix>
        </filter>
    </defs>
    <g id="location-pin-selected" stroke="none" stroke-width="1" fill="none" fill-rule="evenodd">
        <g id="location-pin-orange">
            <g id="Path">
                <use fill="black" fill-opacity="1" filter="url(#filter-2)" xlink:href="#path-1"></use>
                <use fill="#EC6607" fill-rule="evenodd" xlink:href="#path-1"></use>
                <path stroke="#FFFFFF" stroke-width="1.6" d="M21.7603516,51.0637612 L27.493587,39.7089163 C27.8561269,39.1630466 29.4327868,38.95 30.48,38.95 L36.08,38.95 C39.7974937,38.95 42.8,35.9361206 42.8,32.2015152 L42.8,7.54848485 C42.8,3.81387942 39.7974937,0.8 36.08,0.8 C29.8560243,0.8 29.8560243,0.8 25.8953125,0.8 C18.7493576,0.8 18.7493576,0.8 7.52,0.8 C3.80250629,0.8 0.8,3.81387942 0.8,7.54848485 L0.8,32.2015152 C0.8,35.9361206 3.80250629,38.95 7.52,38.95 L13.04,38.95 C14.0872132,38.95 15.6638731,39.1630466 16.0742749,39.7912217 L21.7603516,51.0637612 Z M28.6049411,40.8017139 C28.6026515,40.8025804 28.6005695,40.8034023 28.5987008,40.8041765 C28.6031444,40.8023356 28.6075985,40.8004198 28.6120829,40.798383 Z"></path>
            </g>
        </g>
        <g id="petanque" transform="translate(6.000000, 6.000000)" fill="#FFFFFF">
            <path d="M20.1026858,6.73628118 L16.9750849,5.56230314 C16.9750849,5.56230314 13.5135779,4.77115316 12.7668339,4.60462847 C12.0200899,4.43810378 11.3108007,4.25360199 9.83585725,4.80894712 C8.77709496,5.20759714 7.08285589,5.97572381 6.17793487,6.37878926 C5.67357579,6.60339784 5.55588329,6.73218114 5.3319907,7.20478957 C5.14330659,7.60307163 3.22470478,11.653175 3.22470478,11.653175 C3.22470478,11.653175 4.41139824,12.1426041 5.33663989,10.4955445 C6.24892648,8.87150829 6.86899301,7.98027529 6.86899301,7.98027529 L8.93224218,7.1077553 L10.6020338,6.78012007 L10.5197588,7.09529748 L9.32120725,7.44895219 L7.728937,10.5559413 C7.728937,10.5559413 6.2851275,12.4068464 7.80029428,14.91749 C9.3155133,17.428081 10.4975576,19.3867961 10.4975576,19.3867961 C10.4975576,19.3867961 10.1338757,25.1251697 10.0685781,26.2377522 C10.0032804,27.3503348 10.4538343,28.184798 11.6468485,28.0950702 L11.9764188,26.5695926 C12.0219182,27.4267638 12.5620082,28.12335 13.5293538,28.0950702 C13.5293538,28.0950702 14.7562706,19.7874436 14.8477918,19.1797441 C14.9643873,18.4055725 14.9637604,18.313637 14.6832417,17.6253034 C14.4497373,17.0522965 12.5523442,12.3958078 12.5523442,12.3958078 L13.4303103,10.390573 L16.4634647,7.87514607 L20.3464289,8.45346193 C20.3464289,8.45346193 24.2386915,7.68685963 25.054651,7.52475036 C25.8706105,7.3626411 26.5758252,7.0795281 26.6539212,6.09835705 L20.1026858,6.73628118 Z M28.9023023,7.84203036 C28.9023023,7.34992046 28.5058671,6.95095506 28.0167616,6.95095506 C27.527656,6.95095506 27.1311687,7.34992046 27.1311687,7.84203036 C27.1311687,8.33419282 27.527656,8.73321079 28.0167616,8.73321079 C28.5058671,8.73321079 28.9023023,8.33419282 28.9023023,7.84203036 Z M13.6571282,2.76113497 C13.5302418,2.40690204 13.5052198,2.01950085 13.5714055,1.62589704 C13.761709,0.489029611 14.8795003,-0.14079957 15.8694128,0.0267238487 C16.8587506,0.194089573 17.6592998,1.21652384 17.471765,2.33783214 C17.4115344,2.69711127 17.1891567,3.93374633 17.062427,4.57887181 C17.0083083,4.85436294 16.8449597,4.97294871 16.4875987,4.88227475 C16.0330226,4.76684287 15.2782339,4.58807062 15.2782339,4.58807062 C15.2782339,4.58807062 13.8478496,3.29477091 13.6571282,2.76113497 Z" id="Fill-1"></path>
        </g>
    </g>
</svg>