<?xml version="1.0" encoding="UTF-8"?>
<svg width="44px" height="53px" viewBox="0 0 44 53" version="1.1" xmlns="http://www.w3.org/2000/svg" xmlns:xlink="http://www.w3.org/1999/xlink">
    <!-- Generator: Sketch 49.2 (51160) - http://www.bohemiancoding.com/sketch -->
    <title>location-pin-selected</title>
    <desc>Created with Sketch.</desc>
    <defs>
        <path d="M7.52,2.74985211e-16 C3.36,2.74985211e-16 0,3.37272727 0,7.54848485 L0,32.2015152 C0,36.3772727 3.36,39.75 7.52,39.75 L13.04,39.75 C13.36,39.75 15.2,39.9106061 15.36,40.1515152 L21.76,52.8393939 L28.16,40.1515152 C28.32,39.9106061 30.16,39.75 30.48,39.75 L36.08,39.75 C40.24,39.75 43.6,36.3772727 43.6,32.2015152 L43.6,7.54848485 C43.6,3.37272727 40.24,0 36.08,0 C31.5534722,4.35829201e-17 28.1585764,7.62701102e-17 25.8953125,9.80615702e-17 C21.8119097,1.37377935e-16 15.6868056,1.96352482e-16 7.52,2.74985211e-16 Z" id="path-1"></path>
        <filter x="-18.3%" y="-13.2%" width="136.7%" height="130.3%" filterUnits="objectBoundingBox" id="filter-2">
            <feOffset dx="0" dy="1" in="SourceAlpha" result="shadowOffsetOuter1"></feOffset>
            <feGaussianBlur stdDeviation="2.5" in="shadowOffsetOuter1" result="shadowBlurOuter1"></feGaussianBlur>
            <feComposite in="shadowBlurOuter1" in2="SourceAlpha" operator="out" result="shadowBlurOuter1"></feComposite>
            <feColorMatrix values="0 0 0 0 0   0 0 0 0 0   0 0 0 0 0  0 0 0 0.271993886 0" type="matrix" in="shadowBlurOuter1"></feColorMatrix>
        </filter>
    </defs>
    <g id="location-pin-selected" stroke="none" stroke-width="1" fill="none" fill-rule="evenodd">
        <g id="location-pin-orange">
            <g id="Path">
                <use fill="black" fill-opacity="1" filter="url(#filter-2)" xlink:href="#path-1"></use>
                <use fill="#EC6607" fill-rule="evenodd" xlink:href="#path-1"></use>
                <path stroke="#FFFFFF" stroke-width="1.6" d="M21.7603516,51.0637612 L27.493587,39.7089163 C27.8561269,39.1630466 29.4327868,38.95 30.48,38.95 L36.08,38.95 C39.7974937,38.95 42.8,35.9361206 42.8,32.2015152 L42.8,7.54848485 C42.8,3.81387942 39.7974937,0.8 36.08,0.8 C29.8560243,0.8 29.8560243,0.8 25.8953125,0.8 C18.7493576,0.8 18.7493576,0.8 7.52,0.8 C3.80250629,0.8 0.8,3.81387942 0.8,7.54848485 L0.8,32.2015152 C0.8,35.9361206 3.80250629,38.95 7.52,38.95 L13.04,38.95 C14.0872132,38.95 15.6638731,39.1630466 16.0742749,39.7912217 L21.7603516,51.0637612 Z M28.6049411,40.8017139 C28.6026515,40.8025804 28.6005695,40.8034023 28.5987008,40.8041765 C28.6031444,40.8023356 28.6075985,40.8004198 28.6120829,40.798383 Z"></path>
            </g>
        </g>
        <g id="aquagym" transform="translate(5.000000, 6.000000)" fill="#FFFFFF">
            <path d="M18.8949617,13.5581339 C18.8720221,14.1530139 18.7496975,15.8271268 18.7496975,16.9026655 C18.7496975,17.4984989 18.165185,17.856833 17.559163,17.856833 L15.8904721,17.856833 C15.8904721,17.856833 13.2989546,15.9189447 12.7643134,15.0461085 C12.4432784,14.5218347 12.3618875,13.8768451 12.3873296,13.2251822 C12.3879255,13.2095118 12.3895342,13.194318 12.3903684,13.1787668 C12.3057005,13.1587468 12.2219263,13.131398 12.1397013,13.0962439 C11.2809267,12.7286743 10.9163959,11.6558764 11.3254355,10.7001001 C11.734475,9.74432388 12.7622875,9.26747846 13.6210621,9.63498846 C13.9790388,9.78823679 14.250858,10.0642864 14.4167975,10.4030772 C14.85545,10.2224801 15.3291375,10.1327476 15.799548,10.1506822 C17.4472655,10.2141385 18.9664021,11.7020535 18.8949617,13.5581339 Z M13.6912513,18.520353 L9.42121171,13.7898535 C9.42121171,13.7898535 8.04769671,8.39488054 7.34443463,6.01637346 C8.41741129,4.91128137 9.64959463,4.02086804 11.0354434,3.35299846 C14.7890742,1.54386971 17.8201975,1.49453471 21.6759542,3.35299846 C23.2127871,4.09361929 24.5606217,5.10808512 25.7119505,6.38549221 C24.9192538,8.79343346 23.3581109,13.6696739 23.3581109,13.6696739 L19.028488,18.520353 L13.6912513,18.520353 Z M20.9955125,26.9882768 C21.123855,26.248788 21.6259638,25.087926 21.7360142,23.9753264 C21.8623905,22.6970255 21.8006025,21.6321522 21.8006025,21.6321522 C21.8006025,21.6321522 25.3838846,16.1352322 25.768078,15.5149101 C26.1595405,14.8828501 26.3830971,14.3532139 26.5275271,13.6512626 C26.5930688,13.3321939 27.0388713,11.0827443 27.4859846,8.82298679 C27.8386584,9.42400388 28.1623746,10.0621414 28.455763,10.7379951 L30.4411392,9.97270679 C29.7838159,8.45875388 28.9881996,7.10734429 28.0597125,5.92169554 C28.295603,4.72842013 28.4625555,3.88329013 28.4625555,3.88329013 C28.4625555,3.88329013 27.5627875,3.81441179 26.7775984,4.47382054 C25.5751471,3.27464638 24.1984742,2.29849262 22.652823,1.55358179 C18.4064975,-0.493046125 14.4076813,-0.542559875 10.0586342,1.55358179 C8.59246713,2.26018054 7.27853546,3.17508263 6.12089088,4.29078054 C5.41768838,3.87876179 4.70983838,3.93774929 4.70983838,3.93774929 C4.70983838,3.93774929 4.81369213,4.57445679 4.96950254,5.52814763 C3.90349713,6.80543554 3.00146504,8.28870304 2.27031796,9.97270679 L4.25569421,10.7379951 C4.60967879,9.92253763 5.00775504,9.16189679 5.44795671,8.45541721 C5.86652963,11.0142235 6.31638379,13.7581551 6.36393129,14.0235989 C6.45711963,14.5433443 6.70141129,15.0719676 6.98627921,15.4908385 C8.03035796,17.0259435 11.7257759,22.0597222 11.7257759,22.0597222 C11.7257759,22.0597222 12.2848463,23.2368505 12.1776559,25.2759114 C9.37747754,24.8332668 5.97961879,24.5083589 1.10004171,24.5083589 L1.10004171,25.2233589 C8.92708713,25.2233589 12.9065388,26.0675355 16.7550859,26.8838868 C20.6395021,27.7079243 24.6563125,28.5600255 32.5583734,28.5600255 L32.5583734,27.8450255 C27.377543,27.8450255 23.8826825,27.4750726 20.9955125,26.9882768 Z" id="Fill-1"></path>
        </g>
    </g>
</svg>