<?xml version="1.0" encoding="UTF-8"?>
<svg width="44px" height="53px" viewBox="0 0 44 53" version="1.1" xmlns="http://www.w3.org/2000/svg" xmlns:xlink="http://www.w3.org/1999/xlink">
    <!-- Generator: Sketch 49.2 (51160) - http://www.bohemiancoding.com/sketch -->
    <title>location-pin-selected</title>
    <desc>Created with Sketch.</desc>
    <defs>
        <path d="M7.52,2.74985211e-16 C3.36,2.74985211e-16 0,3.37272727 0,7.54848485 L0,32.2015152 C0,36.3772727 3.36,39.75 7.52,39.75 L13.04,39.75 C13.36,39.75 15.2,39.9106061 15.36,40.1515152 L21.76,52.8393939 L28.16,40.1515152 C28.32,39.9106061 30.16,39.75 30.48,39.75 L36.08,39.75 C40.24,39.75 43.6,36.3772727 43.6,32.2015152 L43.6,7.54848485 C43.6,3.37272727 40.24,0 36.08,0 C31.5534722,4.35829201e-17 28.1585764,7.62701102e-17 25.8953125,9.80615702e-17 C21.8119097,1.37377935e-16 15.6868056,1.96352482e-16 7.52,2.74985211e-16 Z" id="path-1"></path>
        <filter x="-18.3%" y="-13.2%" width="136.7%" height="130.3%" filterUnits="objectBoundingBox" id="filter-2">
            <feOffset dx="0" dy="1" in="SourceAlpha" result="shadowOffsetOuter1"></feOffset>
            <feGaussianBlur stdDeviation="2.5" in="shadowOffsetOuter1" result="shadowBlurOuter1"></feGaussianBlur>
            <feComposite in="shadowBlurOuter1" in2="SourceAlpha" operator="out" result="shadowBlurOuter1"></feComposite>
            <feColorMatrix values="0 0 0 0 0   0 0 0 0 0   0 0 0 0 0  0 0 0 0.271993886 0" type="matrix" in="shadowBlurOuter1"></feColorMatrix>
        </filter>
    </defs>
    <g id="location-pin-selected" stroke="none" stroke-width="1" fill="none" fill-rule="evenodd">
        <g id="location-pin-orange">
            <g id="Path">
                <use fill="black" fill-opacity="1" filter="url(#filter-2)" xlink:href="#path-1"></use>
                <use fill="#EC6607" fill-rule="evenodd" xlink:href="#path-1"></use>
                <path stroke="#FFFFFF" stroke-width="1.6" d="M21.7603516,51.0637612 L27.493587,39.7089163 C27.8561269,39.1630466 29.4327868,38.95 30.48,38.95 L36.08,38.95 C39.7974937,38.95 42.8,35.9361206 42.8,32.2015152 L42.8,7.54848485 C42.8,3.81387942 39.7974937,0.8 36.08,0.8 C29.8560243,0.8 29.8560243,0.8 25.8953125,0.8 C18.7493576,0.8 18.7493576,0.8 7.52,0.8 C3.80250629,0.8 0.8,3.81387942 0.8,7.54848485 L0.8,32.2015152 C0.8,35.9361206 3.80250629,38.95 7.52,38.95 L13.04,38.95 C14.0872132,38.95 15.6638731,39.1630466 16.0742749,39.7912217 L21.7603516,51.0637612 Z M28.6049411,40.8017139 C28.6026515,40.8025804 28.6005695,40.8034023 28.5987008,40.8041765 C28.6031444,40.8023356 28.6075985,40.8004198 28.6120829,40.798383 Z"></path>
            </g>
        </g>
        <g id="nataton-sportive" transform="translate(8.000000, 9.000000)" fill="#FFFFFF">
            <path d="M27.8070929,16.8970695 L27.8070929,17.4395452 C21.0570319,17.4395452 17.6258879,16.7930498 14.3076834,16.1678918 C11.0203223,15.548475 7.62103957,14.9079921 0.935006493,14.9079921 L0.935006493,14.3655164 C4.42697196,14.3655164 7.03058801,14.5385662 9.18997845,14.7921283 L10.034455,14.5523993 L11.931168,12.852597 L7.93960145,8.22324534 L3.41993165,14.0158909 C2.21872077,13.0081067 2.92521661,11.6843757 3.16000267,11.2374209 C4.00447921,9.62988473 5.19327131,7.47575908 5.71180597,6.52710477 C6.8716888,4.4051208 8.14405313,4.72043478 9.79977073,5.97174531 C11.9253149,7.57815136 16.5699359,11.1755335 16.5699359,11.1755335 C17.1091346,11.5686927 17.486024,12.478108 17.486024,13.2262271 L17.5238911,15.7048888 L17.5269957,16.185251 C17.7591861,16.2217325 17.9958044,16.2574455 18.2375124,16.2922544 C18.0416114,16.1223239 18.074287,15.761894 18.0691973,15.3498837 C18.0617155,14.753703 18.0546918,14.2191384 18.0546918,14.2191384 C18.0546918,14.2191384 20.5693406,11.7388493 21.4247599,11.464447 C21.992308,11.2824464 22.6128903,11.2456033 23.2441101,11.3392255 C25.066056,11.609288 26.0786949,13.2092296 25.8121494,14.6278938 C25.6279037,15.6083734 24.7877533,16.4601054 23.6922038,16.8041254 C24.9169798,16.8633908 26.275563,16.8970695 27.8070929,16.8970695" id="Fill-1"></path>
        </g>
    </g>
</svg>