<?xml version="1.0" encoding="UTF-8"?>
<svg width="44px" height="53px" viewBox="0 0 44 53" version="1.1" xmlns="http://www.w3.org/2000/svg" xmlns:xlink="http://www.w3.org/1999/xlink">
    <!-- Generator: Sketch 49.2 (51160) - http://www.bohemiancoding.com/sketch -->
    <title>location-pin-selected</title>
    <desc>Created with Sketch.</desc>
    <defs>
        <path d="M7.52,2.74985211e-16 C3.36,2.74985211e-16 0,3.37272727 0,7.54848485 L0,32.2015152 C0,36.3772727 3.36,39.75 7.52,39.75 L13.04,39.75 C13.36,39.75 15.2,39.9106061 15.36,40.1515152 L21.76,52.8393939 L28.16,40.1515152 C28.32,39.9106061 30.16,39.75 30.48,39.75 L36.08,39.75 C40.24,39.75 43.6,36.3772727 43.6,32.2015152 L43.6,7.54848485 C43.6,3.37272727 40.24,0 36.08,0 C31.5534722,4.35829201e-17 28.1585764,7.62701102e-17 25.8953125,9.80615702e-17 C21.8119097,1.37377935e-16 15.6868056,1.96352482e-16 7.52,2.74985211e-16 Z" id="path-1"></path>
        <filter x="-18.3%" y="-13.2%" width="136.7%" height="130.3%" filterUnits="objectBoundingBox" id="filter-2">
            <feOffset dx="0" dy="1" in="SourceAlpha" result="shadowOffsetOuter1"></feOffset>
            <feGaussianBlur stdDeviation="2.5" in="shadowOffsetOuter1" result="shadowBlurOuter1"></feGaussianBlur>
            <feComposite in="shadowBlurOuter1" in2="SourceAlpha" operator="out" result="shadowBlurOuter1"></feComposite>
            <feColorMatrix values="0 0 0 0 0   0 0 0 0 0   0 0 0 0 0  0 0 0 0.271993886 0" type="matrix" in="shadowBlurOuter1"></feColorMatrix>
        </filter>
    </defs>
    <g id="location-pin-selected" stroke="none" stroke-width="1" fill="none" fill-rule="evenodd">
        <g id="location-pin-orange">
            <g id="Path">
                <use fill="black" fill-opacity="1" filter="url(#filter-2)" xlink:href="#path-1"></use>
                <use fill="#EC6607" fill-rule="evenodd" xlink:href="#path-1"></use>
                <path stroke="#FFFFFF" stroke-width="1.6" d="M21.7603516,51.0637612 L27.493587,39.7089163 C27.8561269,39.1630466 29.4327868,38.95 30.48,38.95 L36.08,38.95 C39.7974937,38.95 42.8,35.9361206 42.8,32.2015152 L42.8,7.54848485 C42.8,3.81387942 39.7974937,0.8 36.08,0.8 C29.8560243,0.8 29.8560243,0.8 25.8953125,0.8 C18.7493576,0.8 18.7493576,0.8 7.52,0.8 C3.80250629,0.8 0.8,3.81387942 0.8,7.54848485 L0.8,32.2015152 C0.8,35.9361206 3.80250629,38.95 7.52,38.95 L13.04,38.95 C14.0872132,38.95 15.6638731,39.1630466 16.0742749,39.7912217 L21.7603516,51.0637612 Z M28.6049411,40.8017139 C28.6026515,40.8025804 28.6005695,40.8034023 28.5987008,40.8041765 C28.6031444,40.8023356 28.6075985,40.8004198 28.6120829,40.798383 Z"></path>
            </g>
        </g>
        <g id="luge" transform="translate(8.000000, 9.000000)" fill="#FFFFFF">
            <path d="M20.3194958,20.4433368 L19.2701359,17.5849214 L18.0072383,17.9981005 L18.7742765,20.4383682 L20.3194958,20.4433368 Z M15.7989639,20.5998219 L15.2147944,18.9115927 L10.9068108,20.3499269 C10.9068108,20.3499269 11.6860854,20.7334514 12.3301351,21.0145701 C12.821881,21.2291095 13.2879565,21.3608038 14.310865,21.2116409 C14.8041209,21.1397268 15.4259889,20.8161918 15.7989639,20.5998219 Z M24.6438292,20.3912972 C24.5077191,22.0925494 23.0249834,23.4396705 21.7605237,23.4396705 C20.496012,23.4396705 17.3242405,23.5141996 15.1647554,23.5085511 C14.0386448,23.5055699 12.9324249,23.5719924 11.3351359,22.8817216 C8.97611982,21.8622151 3.02263081,18.8480991 2.51859647,18.5938108 C2.01456214,18.3395748 1.80159722,18.0085608 1.79644232,17.3788025 C1.79342228,17.0122236 1.83851461,16.2647877 1.83851461,16.2647877 L6.57081383,18.4517608 L6.62569525,18.4757148 L9.52977654,20.5950102 C9.52977654,20.5950102 9.91399858,20.0848647 10.0124623,19.6582441 C10.1025428,19.2675021 10.1455003,18.6197522 9.66448076,17.9154124 C8.8726574,16.7561048 7.60179314,14.8500935 7.39200447,14.5133787 L8.12514532,12.483309 L7.95409648,11.7354547 L6.87734793,14.6182425 C6.87734793,14.6182425 8.37143483,16.8439708 9.28202909,18.1183409 C9.89837768,18.980944 9.62928167,19.6701164 9.46593914,19.9497184 L6.49796837,17.7311031 C6.49796837,17.7311031 5.78565538,17.1647861 5.43517448,16.8857071 C4.03220949,15.7683451 4.32166475,14.2794356 4.81877382,12.5971163 C5.32608854,10.8801738 5.61304445,9.87682826 6.03595425,8.65083669 C6.64673139,6.88018082 7.94982677,6.70005562 9.57820133,7.16323471 C10.4280824,7.40502299 13.5850139,8.35177864 13.5850139,8.35177864 C14.514145,8.6554915 15.0225532,9.05705983 15.3396574,10.1840976 C15.6549913,11.3048069 16.0510332,13.2644269 16.0510332,13.2644269 C15.5982874,13.0713833 15.0099523,13.1375443 14.6840483,13.2437679 L14.2922241,11.8363959 L14.0137035,11.7448166 L14.3687144,13.8284949 L14.3714741,13.8273966 L14.3724114,13.8333066 L14.3793887,13.8241016 L14.5869384,13.7382231 C14.5869384,13.7382231 16.3215351,13.1072619 16.9841736,14.5988388 L19.4261366,14.0534945 C19.4261366,14.0534945 21.1582339,13.7206499 21.7192846,15.59345 L23.1597918,20.420795 C23.1597918,20.420795 24.1393263,20.4035879 24.6438292,20.3912972 Z M9.04110276,4.3789823 C8.38866989,2.09750097 9.48973497,0.555819587 10.9062381,0.137357981 C12.3048292,-0.275925809 13.6570263,0.324596145 14.3716303,0.864762556 C15.4026096,1.67344314 15.4535338,3.44739399 15.4535338,3.44739399 L14.9567892,3.45910945 C14.9201322,3.74514451 14.838539,4.03123187 14.7053969,4.30774812 C14.4847256,4.76606321 13.7071173,6.3801817 13.3079513,7.20805681 C13.1379438,7.56098506 12.7356015,7.39231381 12.238909,7.25193749 C11.6780667,7.09351726 10.9199845,6.81914536 10.9199845,6.81914536 C10.9199845,6.81914536 10.4589076,5.97850877 10.0470366,5.10235969 C9.72285085,4.93525747 9.34508545,4.69645036 9.04110276,4.3789823 Z" id="Fill-1"></path>
        </g>
    </g>
</svg>