<?xml version="1.0" encoding="UTF-8"?>
<svg width="44px" height="53px" viewBox="0 0 44 53" version="1.1" xmlns="http://www.w3.org/2000/svg" xmlns:xlink="http://www.w3.org/1999/xlink">
    <!-- Generator: Sketch 49.2 (51160) - http://www.bohemiancoding.com/sketch -->
    <title>location-pin-selected</title>
    <desc>Created with Sketch.</desc>
    <defs>
        <path d="M7.52,2.74985211e-16 C3.36,2.74985211e-16 0,3.37272727 0,7.54848485 L0,32.2015152 C0,36.3772727 3.36,39.75 7.52,39.75 L13.04,39.75 C13.36,39.75 15.2,39.9106061 15.36,40.1515152 L21.76,52.8393939 L28.16,40.1515152 C28.32,39.9106061 30.16,39.75 30.48,39.75 L36.08,39.75 C40.24,39.75 43.6,36.3772727 43.6,32.2015152 L43.6,7.54848485 C43.6,3.37272727 40.24,0 36.08,0 C31.5534722,4.35829201e-17 28.1585764,7.62701102e-17 25.8953125,9.80615702e-17 C21.8119097,1.37377935e-16 15.6868056,1.96352482e-16 7.52,2.74985211e-16 Z" id="path-1"></path>
        <filter x="-18.3%" y="-13.2%" width="136.7%" height="130.3%" filterUnits="objectBoundingBox" id="filter-2">
            <feOffset dx="0" dy="1" in="SourceAlpha" result="shadowOffsetOuter1"></feOffset>
            <feGaussianBlur stdDeviation="2.5" in="shadowOffsetOuter1" result="shadowBlurOuter1"></feGaussianBlur>
            <feComposite in="shadowBlurOuter1" in2="SourceAlpha" operator="out" result="shadowBlurOuter1"></feComposite>
            <feColorMatrix values="0 0 0 0 0   0 0 0 0 0   0 0 0 0 0  0 0 0 0.271993886 0" type="matrix" in="shadowBlurOuter1"></feColorMatrix>
        </filter>
    </defs>
    <g id="location-pin-selected" stroke="none" stroke-width="1" fill="none" fill-rule="evenodd">
        <g id="location-pin-orange">
            <g id="Path">
                <use fill="black" fill-opacity="1" filter="url(#filter-2)" xlink:href="#path-1"></use>
                <use fill="#EC6607" fill-rule="evenodd" xlink:href="#path-1"></use>
                <path stroke="#FFFFFF" stroke-width="1.6" d="M21.7603516,51.0637612 L27.493587,39.7089163 C27.8561269,39.1630466 29.4327868,38.95 30.48,38.95 L36.08,38.95 C39.7974937,38.95 42.8,35.9361206 42.8,32.2015152 L42.8,7.54848485 C42.8,3.81387942 39.7974937,0.8 36.08,0.8 C29.8560243,0.8 29.8560243,0.8 25.8953125,0.8 C18.7493576,0.8 18.7493576,0.8 7.52,0.8 C3.80250629,0.8 0.8,3.81387942 0.8,7.54848485 L0.8,32.2015152 C0.8,35.9361206 3.80250629,38.95 7.52,38.95 L13.04,38.95 C14.0872132,38.95 15.6638731,39.1630466 16.0742749,39.7912217 L21.7603516,51.0637612 Z M28.6049411,40.8017139 C28.6026515,40.8025804 28.6005695,40.8034023 28.5987008,40.8041765 C28.6031444,40.8023356 28.6075985,40.8004198 28.6120829,40.798383 Z"></path>
            </g>
        </g>
        <g id="BMX" transform="translate(6.000000, 6.000000)" fill="#FFFFFF">
            <path d="M12.6827305,1.26685827 L12.410059,0.701899924 C12.5931095,0.545388181 13.96992,-0.219532615 15.3193792,0.0614849866 C17.1707558,0.446992384 17.0659506,2.15395632 17.0845969,2.26523374 L16.7885805,2.7438852 C16.7885805,2.7438852 16.6605787,2.77366157 16.4760444,2.80883831 C16.4644214,2.83866423 16.452007,2.86839105 16.438554,2.89796925 C16.3090189,3.18230634 15.9055759,4.06786851 15.6713346,4.58169671 C15.5715249,4.80078343 15.355287,4.81634046 15.0583802,4.70298217 C14.6667581,4.55340668 14.1148864,4.2736277 14.1148864,4.2736277 C14.1148864,4.2736277 13.2418727,2.92046255 13.1694142,2.39811266 C13.1477014,2.24165046 13.1564063,2.08315693 13.1874176,1.92560475 C12.931414,1.79307264 12.7596898,1.70166265 12.7596898,1.70166265 L12.6827305,1.26685827 Z M22.6152333,20.7726111 C20.8421515,20.7726111 19.3995101,19.3274909 19.3995101,17.5513626 C19.3995101,16.8433191 19.6292505,16.1882885 20.0172127,15.6560792 L21.9392177,17.3237542 C21.9152298,17.3953463 21.9016778,17.4716947 21.9016778,17.5513626 C21.9016778,17.9459367 22.2211382,18.266045 22.6152333,18.266045 C23.0093779,18.266045 23.3289372,17.9459367 23.3289372,17.5513626 C23.3289372,17.1565408 23.0093779,16.8364324 22.6152333,16.8364324 C22.4994975,16.8364324 22.3905378,16.8646729 22.293844,16.9136726 L20.3711959,15.2470381 C20.9511113,14.6801475 21.7429615,14.3298664 22.6152333,14.3298664 C24.388513,14.3298664 25.8311049,15.7749865 25.8311049,17.5513626 C25.8311049,19.3274909 24.388513,20.7726111 22.6152333,20.7726111 Z M15.7796514,18.0386844 C15.7158979,17.1421728 15.649424,16.2087009 15.5927431,15.4145487 L17.4755266,13.4506459 L17.835544,13.7630253 L15.7796514,18.0386844 Z M15.4515356,13.446286 C15.3952999,12.6850315 15.2891593,12.5249525 14.7529664,12.1284958 C14.2168229,11.732039 10.3927945,8.90437367 10.3927945,8.90437367 L10.5833628,8.3645345 C11.4236836,8.92126842 12.3798886,9.55415256 12.8173599,9.84171007 C12.9763729,9.94624941 13.1379579,10.0121439 13.2958828,10.050541 C13.223721,10.1317944 13.2044812,10.2520394 13.2570074,10.354696 C13.3253113,10.4881199 13.4885779,10.5407859 13.6218224,10.4724142 L14.9171232,9.80747467 L17.6699528,12.5014188 L17.3255647,12.8377778 C17.3059292,12.8497181 17.2870851,12.8633925 17.2704171,12.8807827 L17.1065571,13.0517119 L17.0638239,13.0934286 L17.0653076,13.0947167 L15.540662,14.6851019 C15.4963461,14.065149 15.4634554,13.6076036 15.4515356,13.446286 Z M14.2215216,21.2793048 L11.9941027,19.1683038 L13.8104618,17.2736645 C14.0703232,18.5810999 14.3297395,19.882788 14.3806335,20.1262012 C14.4062537,20.2486262 14.4545758,20.4318425 14.5348984,20.6274946 L14.2215216,21.2793048 Z M11.4246728,13.296116 L13.2277273,14.3375953 C13.2277273,14.3375953 13.4390687,15.4039462 13.6814708,16.624381 L11.6004033,18.795133 L11.4587011,18.6609164 L11.9839635,15.3503883 L11.4246728,13.296116 Z M13.072671,22.2214966 C12.6137342,21.6447466 12.0070117,21.1917098 11.3100746,20.919957 L11.7333015,19.6686063 L13.8703081,21.6938454 L13.072671,22.2214966 Z M10.9967473,21.8464431 C11.4878329,22.0455138 11.9190228,22.3623027 12.2550522,22.7622771 L10.2351663,24.0983493 L10.9967473,21.8464431 Z M9.79457908,28.0547423 C8.02134887,28.0547423 6.57880641,26.6096221 6.57880641,24.8334442 C6.57880641,23.0571177 8.02134887,21.6120471 9.79457908,21.6120471 C10.0293644,21.6120471 10.2581157,21.6380581 10.4787061,21.6861164 L9.65119533,24.1329316 C9.32575031,24.1994701 9.08097411,24.4878203 9.08097411,24.8334442 C9.08097411,25.2280679 9.40048396,25.5481762 9.79457908,25.5481762 C10.1887237,25.5481762 10.5082335,25.2280679 10.5082335,24.8334442 C10.5082335,24.7499614 10.4931978,24.6701449 10.4669841,24.5956792 L12.5680829,23.2058509 C12.8486679,23.6838583 13.0104012,24.2399481 13.0104012,24.8334442 C13.0104012,26.6096221 11.5677598,28.0547423 9.79457908,28.0547423 Z M22.6152333,13.3526465 C21.4486761,13.3526465 20.3923152,13.8329329 19.6317235,14.6060286 L17.8621039,13.0720252 L18.4451846,12.5025583 L15.0176749,9.14580505 L14.2974917,9.51555723 L11.4080049,6.68016296 L13.6675232,4.61142354 C13.6675232,4.61142354 13.3148753,3.97551717 12.7203694,2.99190602 C12.1788842,2.09618719 10.3589641,2.67501805 8.63173139,4.3677131 C7.24997494,5.72181961 6.88822648,6.06516446 6.25761493,6.67986569 C5.62700339,7.29456692 4.84227533,8.65486651 6.82051611,10.6365559 L9.68710309,15.1982365 L9.43525415,20.6512265 C7.29181787,20.834542 5.6031638,22.6395549 5.6031638,24.8334442 C5.6031638,27.1485695 7.48347432,29.0319621 9.79457908,29.0319621 C12.1057333,29.0319621 13.9860438,27.1485695 13.9860438,24.8334442 C13.9860438,24.0411747 13.7656513,23.29954 13.3833276,22.6665567 L14.5164005,21.9170939 L14.867614,21.1867058 C15.1224306,21.48006 15.4941699,21.6774957 16.0293242,21.5502648 C16.0293242,21.5502648 15.9538486,20.4872831 15.8572043,19.1285689 L18.2600074,14.1313407 L19.278037,15.0147229 C18.7425365,15.7199423 18.423818,16.598915 18.423818,17.5513626 C18.423818,19.8663392 20.304178,21.7498805 22.6152333,21.7498805 C24.926437,21.7498805 26.8066981,19.8663392 26.8066981,17.5513626 C26.8066981,15.2360887 24.926437,13.3526465 22.6152333,13.3526465 Z" id="Page-1"></path>
        </g>
    </g>
</svg>