<?xml version="1.0" encoding="UTF-8"?>
<svg width="44px" height="53px" viewBox="0 0 44 53" version="1.1" xmlns="http://www.w3.org/2000/svg" xmlns:xlink="http://www.w3.org/1999/xlink">
    <!-- Generator: Sketch 49.2 (51160) - http://www.bohemiancoding.com/sketch -->
    <title>location-pin-selected</title>
    <desc>Created with Sketch.</desc>
    <defs>
        <path d="M7.52,2.74985211e-16 C3.36,2.74985211e-16 0,3.37272727 0,7.54848485 L0,32.2015152 C0,36.3772727 3.36,39.75 7.52,39.75 L13.04,39.75 C13.36,39.75 15.2,39.9106061 15.36,40.1515152 L21.76,52.8393939 L28.16,40.1515152 C28.32,39.9106061 30.16,39.75 30.48,39.75 L36.08,39.75 C40.24,39.75 43.6,36.3772727 43.6,32.2015152 L43.6,7.54848485 C43.6,3.37272727 40.24,0 36.08,0 C31.5534722,4.35829201e-17 28.1585764,7.62701102e-17 25.8953125,9.80615702e-17 C21.8119097,1.37377935e-16 15.6868056,1.96352482e-16 7.52,2.74985211e-16 Z" id="path-1"></path>
        <filter x="-18.3%" y="-13.2%" width="136.7%" height="130.3%" filterUnits="objectBoundingBox" id="filter-2">
            <feOffset dx="0" dy="1" in="SourceAlpha" result="shadowOffsetOuter1"></feOffset>
            <feGaussianBlur stdDeviation="2.5" in="shadowOffsetOuter1" result="shadowBlurOuter1"></feGaussianBlur>
            <feComposite in="shadowBlurOuter1" in2="SourceAlpha" operator="out" result="shadowBlurOuter1"></feComposite>
            <feColorMatrix values="0 0 0 0 0   0 0 0 0 0   0 0 0 0 0  0 0 0 0.271993886 0" type="matrix" in="shadowBlurOuter1"></feColorMatrix>
        </filter>
    </defs>
    <g id="location-pin-selected" stroke="none" stroke-width="1" fill="none" fill-rule="evenodd">
        <g id="location-pin-orange">
            <g id="Path">
                <use fill="black" fill-opacity="1" filter="url(#filter-2)" xlink:href="#path-1"></use>
                <use fill="#EC6607" fill-rule="evenodd" xlink:href="#path-1"></use>
                <path stroke="#FFFFFF" stroke-width="1.6" d="M21.7603516,51.0637612 L27.493587,39.7089163 C27.8561269,39.1630466 29.4327868,38.95 30.48,38.95 L36.08,38.95 C39.7974937,38.95 42.8,35.9361206 42.8,32.2015152 L42.8,7.54848485 C42.8,3.81387942 39.7974937,0.8 36.08,0.8 C29.8560243,0.8 29.8560243,0.8 25.8953125,0.8 C18.7493576,0.8 18.7493576,0.8 7.52,0.8 C3.80250629,0.8 0.8,3.81387942 0.8,7.54848485 L0.8,32.2015152 C0.8,35.9361206 3.80250629,38.95 7.52,38.95 L13.04,38.95 C14.0872132,38.95 15.6638731,39.1630466 16.0742749,39.7912217 L21.7603516,51.0637612 Z M28.6049411,40.8017139 C28.6026515,40.8025804 28.6005695,40.8034023 28.5987008,40.8041765 C28.6031444,40.8023356 28.6075985,40.8004198 28.6120829,40.798383 Z"></path>
            </g>
        </g>
        <g id="velo-tout-chemin" transform="translate(6.000000, 8.000000)" fill="#FFFFFF">
            <path d="M16.1313601,8.73474595 C16.1313601,8.73474595 17.9870834,9.97452461 19.0583231,10.661912 C19.8555492,11.1734853 20.8780701,10.5547872 20.8780701,10.5547872 L17.4129962,7.90040489 L16.1313601,8.73474595 Z M29.4415205,20.5762303 C29.4063586,19.5067363 28.9294696,18.5141582 28.0987583,17.7812777 C27.3009573,17.0773923 26.2683286,16.694027 25.1783104,16.694027 C25.1333281,16.694027 25.0884416,16.6946563 25.0432677,16.6960049 C24.5172766,16.7111993 24.0164833,16.8161213 23.5562172,16.9937334 C24.1644602,18.2997739 24.7410863,19.3396433 25.0961542,19.9485864 C25.105783,19.948002 25.1152202,19.9466534 25.1249448,19.9463837 C25.5840612,19.9330774 25.9677281,20.2715789 25.9819078,20.7024154 C25.9960875,21.1332968 25.6353669,21.4933311 25.1762505,21.5066374 C24.717134,21.5198988 24.3334193,21.1813973 24.3192395,20.7505608 C24.3134431,20.5732633 24.3718386,20.408463 24.4737314,20.274411 C24.1138252,19.6572414 23.53375,18.6111233 22.9212435,17.300093 C21.6736674,18.0311304 20.8597705,19.3471057 20.9082978,20.8232959 C20.9434596,21.8927899 21.4203007,22.8853231 22.25106,23.6182486 C23.0817234,24.3511291 24.1651309,24.7374164 25.3065506,24.7035662 C26.4461979,24.6705702 27.5039285,24.2230559 28.2849629,23.4435584 C29.0659495,22.6640159 29.4766824,21.6457243 29.4415205,20.5762303 Z M21.5791998,14.1210558 L21.4020491,13.679835 L18.4746071,14.0284062 C18.4308703,14.7285154 18.3463669,16.0557291 18.2749892,17.1742226 L21.5791998,14.1210558 Z M17.120779,18.2407047 C17.120779,18.2407047 16.7734237,15.0047561 16.6831717,14.2417116 L13.8472272,14.579359 C13.9082096,14.8395062 13.95415,15.0392805 13.9694315,15.1132743 C14.0819591,15.6583382 14.0517793,15.9781839 13.7604722,16.8118057 L15.066875,20.1385609 L17.120779,18.2407047 Z M14.4123083,20.4059905 L13.4001348,17.828524 L12.5190759,20.4059905 L14.4123083,20.4059905 Z M12.6812325,11.8775954 L12.697041,12.1104107 L13.3517034,12.520119 L13.6920647,13.9235741 L16.293373,13.613843 L12.6812325,11.8775954 Z M12.0553127,15.8567639 L11.9235754,15.5936048 L10.7573412,17.0280331 C11.0754269,17.2911023 11.3590213,17.5899546 11.6012263,17.9176223 L12.0553127,15.8567639 Z M11.469489,21.6070641 C11.3153803,21.4830817 11.1720023,21.3096952 11.1133672,21.0749469 L8.04197228,21.0749469 C7.90055829,21.3164832 7.62707169,21.4802946 7.31267467,21.4802946 C6.85331874,21.4802946 6.48090941,21.1308693 6.48090941,20.6998081 C6.48090941,20.2687468 6.85331874,19.9193216 7.31267467,19.9193216 C7.3751421,19.9193216 7.43583706,19.9263343 7.49442422,19.9385618 L9.61549031,17.3296726 C8.95057631,16.9281459 8.16039212,16.6940719 7.31267467,16.6940719 C4.95893659,16.6940719 3.04400342,18.491007 3.04400342,20.6998081 C3.04400342,22.9086091 4.95893659,24.7054993 7.31267467,24.7054993 C9.33381204,24.7054993 11.0302529,23.3801287 11.469489,21.6070641 Z M10.1815774,17.7361891 L8.05581667,20.3508773 C8.06549337,20.3689487 8.07473894,20.3871549 8.0829306,20.4059905 L11.1279301,20.4059905 C11.1689364,20.1153647 11.236338,19.7342921 11.3167217,19.3158179 C11.0771035,18.7061555 10.684718,18.1654522 10.1815774,17.7361891 Z M28.9756496,24.0528611 C28.0212489,25.0055653 26.7285468,25.5524274 25.3357723,25.5927958 C25.2806822,25.5944141 25.22564,25.5952233 25.1707893,25.5952233 C23.8385182,25.5952233 22.5767146,25.1266707 21.601667,24.2663913 C20.5864756,23.3707334 20.0036698,22.1577022 19.9607474,20.8507177 C19.899765,18.9972758 20.9505495,17.3493623 22.5464389,16.4722253 C22.4293604,16.2047057 21.8552254,14.8048019 21.8552254,14.8048019 L18.2112763,18.1718805 C18.1765455,18.7149215 18.1531202,19.08062 18.1531202,19.08062 C18.1531202,19.08062 17.7987709,19.0402516 17.501859,18.8273957 C17.501859,18.8273957 15.2357382,20.9204409 15.1735582,20.9787909 C15.0966236,21.0509865 15.0405754,21.0749469 14.9224909,21.0749469 L12.5124651,21.0749469 C12.307386,23.5994579 10.0544389,25.5952233 7.31267467,25.5952233 C4.43620304,25.5952233 2.09597401,23.3990992 2.09597401,20.6998081 C2.09597401,18.000517 4.43620304,15.8043928 7.31267467,15.8043928 C8.37639336,15.8043928 9.36629127,16.105358 10.1921164,16.6203928 L11.5817771,14.9111175 L10.1615533,12.0745826 C9.89405479,11.7839119 9.06947519,10.7479534 9.59474768,9.50835453 C10.2160686,8.04214398 14.2103431,4.36758189 14.7088849,3.89974852 C15.1974146,3.44126552 16.0908329,3.3425022 16.7949328,3.91786487 C17.6168776,4.5894285 24.1300648,9.9084876 24.1300648,9.9084876 C24.1300648,9.9084876 23.0293639,10.51325 22.3026052,10.0026656 C21.436205,9.39403722 18.9573404,7.58923524 18.1946055,7.02524586 L14.2606428,9.63620291 C15.1183244,10.2087785 17.7531179,11.9694359 18.08706,12.2118713 C18.4299602,12.460825 18.5306074,12.6853239 18.5118289,13.3496949 L21.1454728,13.0361427 C20.8922498,12.3981146 20.6367273,11.7357215 20.6367273,11.7357215 L20.3088213,11.7914641 C20.2873601,11.7951053 20.2659468,11.7968585 20.2448688,11.7968585 C20.0758618,11.7968585 19.9257771,11.6836651 19.8945913,11.5220115 C19.8594774,11.3402636 19.988053,11.1661578 20.1817307,11.1332967 L24.0178246,10.481198 C24.2114545,10.4484717 24.3969406,10.5689027 24.4320546,10.7506506 C24.4671685,10.9323535 24.3385929,11.1064593 24.1449152,11.1393654 L21.347965,11.6148409 C21.5544332,12.1512287 23.0783701,15.9254982 23.1869217,16.1745418 C23.7521465,15.9552126 24.3674793,15.8254312 25.0140459,15.8067304 C26.4059581,15.7648785 27.7329119,16.2373421 28.7481512,17.13309 C29.7633906,18.0287928 30.3461005,19.241824 30.3890709,20.5488085 C30.4320891,21.8558379 29.9300982,23.1002468 28.9756496,24.0528611 Z M17.2449953,0.750425709 L17.1616415,0.133345985 C17.3978584,0.0442027565 19.0361433,-0.238915776 20.2950248,0.452022911 C22.0220287,1.39991707 21.342456,2.97051016 21.3237253,3.08096145 L20.8657107,3.43703987 C20.8657107,3.43703987 20.6305477,3.41577676 20.3367496,3.37244138 C20.2987134,3.4004925 19.0375325,4.19860086 18.5381285,4.50932097 C18.3251931,4.6419794 18.1073715,4.47362772 17.8741725,4.2444087 C17.6109375,3.98561013 17.3527803,3.7406573 17.3527803,3.7406573 C17.3527803,3.7406573 17.3560857,2.13212327 17.492853,1.49355567 C17.3013309,1.30767203 17.1757733,1.18324013 17.1757733,1.18324013 L17.2449953,0.750425709 Z" id="Fill-1"></path>
        </g>
    </g>
</svg>