<?xml version="1.0" encoding="UTF-8"?>
<svg width="44px" height="53px" viewBox="0 0 44 53" version="1.1" xmlns="http://www.w3.org/2000/svg" xmlns:xlink="http://www.w3.org/1999/xlink">
    <!-- Generator: Sketch 49.2 (51160) - http://www.bohemiancoding.com/sketch -->
    <title>location-pin-selected</title>
    <desc>Created with Sketch.</desc>
    <defs>
        <path d="M7.52,2.74985211e-16 C3.36,2.74985211e-16 0,3.37272727 0,7.54848485 L0,32.2015152 C0,36.3772727 3.36,39.75 7.52,39.75 L13.04,39.75 C13.36,39.75 15.2,39.9106061 15.36,40.1515152 L21.76,52.8393939 L28.16,40.1515152 C28.32,39.9106061 30.16,39.75 30.48,39.75 L36.08,39.75 C40.24,39.75 43.6,36.3772727 43.6,32.2015152 L43.6,7.54848485 C43.6,3.37272727 40.24,0 36.08,0 C31.5534722,4.35829201e-17 28.1585764,7.62701102e-17 25.8953125,9.80615702e-17 C21.8119097,1.37377935e-16 15.6868056,1.96352482e-16 7.52,2.74985211e-16 Z" id="path-1"></path>
        <filter x="-18.3%" y="-13.2%" width="136.7%" height="130.3%" filterUnits="objectBoundingBox" id="filter-2">
            <feOffset dx="0" dy="1" in="SourceAlpha" result="shadowOffsetOuter1"></feOffset>
            <feGaussianBlur stdDeviation="2.5" in="shadowOffsetOuter1" result="shadowBlurOuter1"></feGaussianBlur>
            <feComposite in="shadowBlurOuter1" in2="SourceAlpha" operator="out" result="shadowBlurOuter1"></feComposite>
            <feColorMatrix values="0 0 0 0 0   0 0 0 0 0   0 0 0 0 0  0 0 0 0.271993886 0" type="matrix" in="shadowBlurOuter1"></feColorMatrix>
        </filter>
    </defs>
    <g id="location-pin-selected" stroke="none" stroke-width="1" fill="none" fill-rule="evenodd">
        <g id="location-pin-orange">
            <g id="Path">
                <use fill="black" fill-opacity="1" filter="url(#filter-2)" xlink:href="#path-1"></use>
                <use fill="#EC6607" fill-rule="evenodd" xlink:href="#path-1"></use>
                <path stroke="#FFFFFF" stroke-width="1.6" d="M21.7603516,51.0637612 L27.493587,39.7089163 C27.8561269,39.1630466 29.4327868,38.95 30.48,38.95 L36.08,38.95 C39.7974937,38.95 42.8,35.9361206 42.8,32.2015152 L42.8,7.54848485 C42.8,3.81387942 39.7974937,0.8 36.08,0.8 C29.8560243,0.8 29.8560243,0.8 25.8953125,0.8 C18.7493576,0.8 18.7493576,0.8 7.52,0.8 C3.80250629,0.8 0.8,3.81387942 0.8,7.54848485 L0.8,32.2015152 C0.8,35.9361206 3.80250629,38.95 7.52,38.95 L13.04,38.95 C14.0872132,38.95 15.6638731,39.1630466 16.0742749,39.7912217 L21.7603516,51.0637612 Z M28.6049411,40.8017139 C28.6026515,40.8025804 28.6005695,40.8034023 28.5987008,40.8041765 C28.6031444,40.8023356 28.6075985,40.8004198 28.6120829,40.798383 Z"></path>
            </g>
        </g>
        <g id="vtt" transform="translate(3.000000, 5.000000)" fill="#FFFFFF">
            <path d="M29.5496912,27.4307238 C28.4915197,28.5149424 27.0575935,29.1378365 25.5123637,29.1846054 C25.4499917,29.1865246 25.3877772,29.1874337 25.3256677,29.1874337 C23.8488477,29.1874337 22.4499401,28.6554509 21.3683528,27.6784572 C20.241299,26.6604019 19.5937957,25.281075 19.5451791,23.7945233 C19.49651,22.3080221 20.0525554,20.8922297 21.1108845,19.8080111 C22.0655227,18.8298558 23.3260358,18.2273662 24.6982725,18.0844334 L24.6599463,16.7995533 C24.6599463,16.7995533 18.1421764,20.525352 17.9986368,20.6038893 C17.8773054,20.6703051 17.7563415,20.6717192 17.6482405,20.6365669 C17.4657971,20.5771715 15.6585315,19.9124581 15.6585315,19.9124581 C15.4005382,20.4502492 15.0513494,20.950413 14.6175804,21.3947673 C13.5594089,22.4789859 12.1254827,23.10188 10.5802004,23.1486994 C10.5178809,23.1505681 10.4556139,23.1514772 10.3935569,23.1514772 C8.91673688,23.1514772 7.51777684,22.6194944 6.43624202,21.6425007 C5.30918823,20.6244959 4.66168488,19.2451185 4.61306832,17.7586173 C4.56434675,16.2720656 5.12039215,14.8562732 6.17877373,13.7720546 C7.2369453,12.687836 8.67081897,12.0649924 10.2161012,12.0181731 C11.9013005,11.9672122 13.4430651,12.6180363 14.5375154,13.6956386 L13.2871351,9.53826362 C13.2871351,9.53826362 12.5272256,7.46301057 13.5490135,6.41485348 C13.6617872,6.29914356 13.8784091,6.15777645 14.1708436,5.99863112 C14.1707911,5.99827758 14.1706861,5.99787353 14.1706335,5.99751998 L15.5885467,5.29088644 L15.4757731,5.16603489 L14.1304173,5.70604817 C14.0868409,5.34230185 14.0653677,4.93203923 14.1087866,4.5472823 C14.2353156,3.42715374 15.0958708,3.18265278 15.6088124,3.01083037 C16.9219846,2.57097107 19.4707842,2.05237246 20.1829696,2.197174 C20.7231595,2.30702518 20.9881881,2.87714021 21.0835311,3.14138914 C21.2069101,3.09249905 21.3226763,3.04618477 21.4287297,3.0030524 C22.0187437,2.7630465 22.2967927,3.08426652 22.9720169,3.98883422 C23.8099439,5.11143759 24.0714023,6.26540536 24.0714023,6.26540536 L25.9217194,13.4206823 C25.9217194,13.4206823 24.7462591,13.4125508 24.449677,12.7624843 C24.2446054,12.3129278 22.44469,7.52972938 22.44469,7.52972938 L18.8999333,8.54834029 C19.7220573,9.73574323 21.0328145,11.628012 21.2649245,11.957515 C21.5968402,12.4286377 21.7398023,12.7785958 21.6538045,13.3232557 C21.622041,13.4652289 21.5608765,13.7264474 21.4812314,14.0616577 L24.6014069,14.8355151 L24.5819288,14.1822667 C24.5782537,14.060496 24.6356905,13.9445336 24.7361787,13.8705419 C24.836772,13.7964997 24.9682362,13.7735698 25.0893576,13.8087727 L26.311807,14.1639329 L26.3000466,13.618869 C26.2954264,13.4073992 26.4698371,13.2324454 26.6896091,13.2280008 C26.9072811,13.2230007 27.0913521,13.3914392 27.0959197,13.602909 L27.1445888,15.8499845 C27.1492089,16.0614038 26.9746933,16.2364081 26.7549212,16.2408022 C26.7521386,16.2408527 26.7493036,16.2409032 26.7464685,16.2409032 C26.530424,16.2409032 26.3531783,16.0746365 26.3486107,15.865894 L26.3290275,14.9603162 L25.3847846,14.685966 L25.4851679,18.053574 C28.5246482,18.1299396 31.0185835,20.4842399 31.1153441,23.4442117 C31.1640657,24.9307129 30.6080203,26.3465053 29.5496912,27.4307238 Z M21.3031457,14.8083932 C21.0275643,15.9588761 20.6663527,17.451438 20.458656,18.3082268 L24.6338004,15.9237237 L24.6251377,15.6323024 L21.3031457,14.8083932 Z M17.0061973,12.9517314 L19.5918531,13.5930603 C19.603246,13.4517437 19.6095987,13.3716407 19.6095987,13.3716407 L16.5628206,10.2118155 L17.0061973,12.9517314 Z M25.5278517,19.48568 L25.6259249,22.7730841 C25.9833039,22.888693 26.2462324,23.2073877 26.2587278,23.5912355 C26.2748983,24.084581 25.8723153,24.4970658 25.3594788,24.5125713 C24.8466948,24.5281272 24.4179135,24.1407945 24.4017955,23.6474995 C24.3909276,23.3170873 24.5685408,23.0236458 24.8407096,22.8607125 L24.7410614,19.5201253 C23.7676801,19.6478557 22.8760438,20.088119 22.1942044,20.7866211 C21.4077291,21.5924995 20.9944883,22.6447476 21.0306094,23.7495727 C21.0667306,24.8543979 21.5480136,25.8795746 22.3856256,26.6362094 C23.2232375,27.3928946 24.3185278,27.7905812 25.4656372,27.7556308 C26.6141117,27.7208825 27.6797385,27.2579418 28.4663188,26.4521139 C29.2528467,25.646286 29.6660875,24.5939874 29.6299663,23.4891623 C29.5588265,21.3160785 27.7492508,19.58245 25.5278517,19.48568 Z M16.4894757,14.7527353 C16.3524988,14.9409722 16.1169237,15.2649701 15.8300545,15.6599293 C16.0397462,16.206761 16.1631777,16.7944017 16.1832334,17.4082551 C16.2033415,18.0225127 16.1199688,18.6245982 15.9407805,19.1962789 L17.290389,19.6875031 L16.4913133,14.7495029 C16.4907358,14.750614 16.4901582,14.7516242 16.4894757,14.7527353 Z M11.3773861,17.5355815 L12.5808299,17.9735216 C12.8469084,17.4657818 13.4004863,16.3280771 13.858931,15.3774476 L11.3417375,17.3445667 C11.3611631,17.4058308 11.3735535,17.4696203 11.3773861,17.5355815 Z M12.879722,19.7231101 C12.879722,19.7231101 12.4664812,19.2882004 12.4080993,18.7295503 L11.0536607,18.2366594 C10.8829252,18.3790871 10.6614731,18.4695439 10.427368,18.4766148 C9.91463652,18.4921707 9.48580271,18.1048379 9.46968469,17.611543 C9.45356667,17.118248 9.85609713,16.7057631 10.3689336,16.6902072 C10.5214511,16.6856111 10.6709234,16.7172786 10.8064302,16.7761689 L13.4722561,14.6928348 C12.6886158,13.9222603 11.5977882,13.4450769 10.3999621,13.4450769 C10.3543907,13.4450769 10.3087142,13.4457335 10.2628277,13.4471476 C9.11435325,13.4819465 8.04872644,13.9448871 7.26209361,14.750715 C6.47561829,15.5565429 6.06237748,16.608791 6.09844614,17.7136162 C6.13461981,18.8184918 6.6158503,19.8436181 7.45351477,20.6002528 C8.29123174,21.3569381 9.386312,21.7545742 10.5335264,21.7197248 C11.6820009,21.684926 12.7476277,21.2219853 13.5342081,20.4161574 C13.8322077,20.1108469 14.076288,19.7700809 14.262984,19.4046174 L13.3517647,19.0729426 C13.0644229,19.4686594 12.879722,19.7231101 12.879722,19.7231101 Z M14.6847301,17.2368873 C14.3844729,17.6503823 14.0866833,18.0605439 13.8219698,18.4251993 L14.5453381,18.6884887 C14.6590568,18.2916607 14.7116635,17.876398 14.697803,17.4532057 C14.6954404,17.3805777 14.6909253,17.3085052 14.6847301,17.2368873 Z M18.0917748,19.6600277 L19.1160828,19.0750133 C19.2320065,17.953117 19.4216426,15.6809399 19.5289036,14.3683824 L17.1395516,13.7757416 L18.0917748,19.6600277 Z M23.717856,4.46950261 C23.8944716,4.76471189 24.0716648,4.99269729 24.323778,4.90522039 C24.9148945,4.70036687 25.9883966,4.31864031 26.3154821,4.20520318 C26.3642037,4.18828357 26.4113502,4.16919219 26.4575517,4.14893917 C26.7452609,4.26459858 26.9791035,4.34313586 26.9791035,4.34313586 L27.540189,4.08105871 C27.5885431,3.9701974 28.6975363,2.49303986 27.1899502,1.089571 C26.0911424,0.0665155372 24.3472462,-0.0303050257 24.0830052,0.00616051754 L24.0041477,0.670419278 L23.8188167,1.10583403 C23.8188167,1.10583403 23.9135298,1.26568644 24.0594319,1.50579336 C23.750617,2.13984935 23.3203657,3.81857751 23.3203657,3.81857751 C23.3203657,3.81857751 23.518297,4.13626209 23.717856,4.46950261 Z M24.791883,7.57639719 L27.602876,12.4593456 C27.602876,12.4593456 26.4082526,12.7336452 26.0386407,12.0726189 L24.791883,7.57639719 Z" id="Fill-1"></path>
        </g>
    </g>
</svg>