<?xml version="1.0" encoding="UTF-8"?>
<svg width="44px" height="53px" viewBox="0 0 44 53" version="1.1" xmlns="http://www.w3.org/2000/svg" xmlns:xlink="http://www.w3.org/1999/xlink">
    <!-- Generator: Sketch 49.2 (51160) - http://www.bohemiancoding.com/sketch -->
    <title>location-pin-selected</title>
    <desc>Created with Sketch.</desc>
    <defs>
        <path d="M7.52,2.74985211e-16 C3.36,2.74985211e-16 0,3.37272727 0,7.54848485 L0,32.2015152 C0,36.3772727 3.36,39.75 7.52,39.75 L13.04,39.75 C13.36,39.75 15.2,39.9106061 15.36,40.1515152 L21.76,52.8393939 L28.16,40.1515152 C28.32,39.9106061 30.16,39.75 30.48,39.75 L36.08,39.75 C40.24,39.75 43.6,36.3772727 43.6,32.2015152 L43.6,7.54848485 C43.6,3.37272727 40.24,0 36.08,0 C31.5534722,4.35829201e-17 28.1585764,7.62701102e-17 25.8953125,9.80615702e-17 C21.8119097,1.37377935e-16 15.6868056,1.96352482e-16 7.52,2.74985211e-16 Z" id="path-1"></path>
        <filter x="-18.3%" y="-13.2%" width="136.7%" height="130.3%" filterUnits="objectBoundingBox" id="filter-2">
            <feOffset dx="0" dy="1" in="SourceAlpha" result="shadowOffsetOuter1"></feOffset>
            <feGaussianBlur stdDeviation="2.5" in="shadowOffsetOuter1" result="shadowBlurOuter1"></feGaussianBlur>
            <feComposite in="shadowBlurOuter1" in2="SourceAlpha" operator="out" result="shadowBlurOuter1"></feComposite>
            <feColorMatrix values="0 0 0 0 0   0 0 0 0 0   0 0 0 0 0  0 0 0 0.271993886 0" type="matrix" in="shadowBlurOuter1"></feColorMatrix>
        </filter>
    </defs>
    <g id="location-pin-selected" stroke="none" stroke-width="1" fill="none" fill-rule="evenodd">
        <g id="location-pin-orange">
            <g id="Path">
                <use fill="black" fill-opacity="1" filter="url(#filter-2)" xlink:href="#path-1"></use>
                <use fill="#EC6607" fill-rule="evenodd" xlink:href="#path-1"></use>
                <path stroke="#FFFFFF" stroke-width="1.6" d="M21.7603516,51.0637612 L27.493587,39.7089163 C27.8561269,39.1630466 29.4327868,38.95 30.48,38.95 L36.08,38.95 C39.7974937,38.95 42.8,35.9361206 42.8,32.2015152 L42.8,7.54848485 C42.8,3.81387942 39.7974937,0.8 36.08,0.8 C29.8560243,0.8 29.8560243,0.8 25.8953125,0.8 C18.7493576,0.8 18.7493576,0.8 7.52,0.8 C3.80250629,0.8 0.8,3.81387942 0.8,7.54848485 L0.8,32.2015152 C0.8,35.9361206 3.80250629,38.95 7.52,38.95 L13.04,38.95 C14.0872132,38.95 15.6638731,39.1630466 16.0742749,39.7912217 L21.7603516,51.0637612 Z M28.6049411,40.8017139 C28.6026515,40.8025804 28.6005695,40.8034023 28.5987008,40.8041765 C28.6031444,40.8023356 28.6075985,40.8004198 28.6120829,40.798383 Z"></path>
            </g>
        </g>
        <g id="equitation" transform="translate(7.000000, 8.000000)" fill="#FFFFFF">
            <path d="M29.7698881,4.21892357 C29.5643214,4.31220997 29.3064129,4.48491864 29.0588995,4.66920121 L29.172284,4.1049841 C28.9029729,4.26591439 28.6825234,4.45943972 28.4300643,4.73643612 C27.47605,4.45698589 26.4647482,4.08977036 25.3985401,4.18158447 C24.3631509,4.27074026 23.5660707,4.643436 22.6757551,5.33042635 C22.1894748,5.70569862 19.8406389,7.57379871 19.8406389,7.57379871 C20.2746231,7.920034 23.1195849,9.90403662 24.3969007,10.3274039 L25.7121334,8.19690771 L26.3366182,9.00094571 L26.4817376,11.1383536 C25.5763559,10.9752148 24.8461341,10.7863518 24.2393255,10.582684 C22.8255454,10.1082361 20.0448317,8.12312925 19.5986207,7.76654699 C19.1484714,7.40681564 18.8704596,7.16265965 18.8669793,7.15791558 L18.8669335,7.15791558 C19.0243255,7.0383732 19.0472222,6.89290203 19.0472222,6.89290203 L16.5949847,6.08628751 C16.5889858,5.5178989 16.5828036,4.85266583 16.5828036,4.52180787 C16.5828036,3.87829119 16.2609675,3.21375337 15.8445222,3.10349465 C15.6844742,3.0611252 14.9569084,2.86134262 14.7382448,2.80171457 C14.704724,2.79259451 14.669051,2.7883412 14.6318667,2.7883412 C14.2279688,2.78825941 13.6401187,3.28982208 13.5467459,3.47860333 C13.4601506,3.65380673 13.3893081,4.39236839 13.5341985,5.12524534 C13.7541901,6.23781146 14.233693,6.84554313 14.233693,6.84554313 C14.233693,6.84554313 14.104235,7.33839471 13.9739527,7.84846398 C13.8192625,8.45402811 13.9013701,8.76521453 13.9013701,8.76521453 L12.0251681,8.78897578 C8.77140842,7.35438549 5.92044767,9.10474269 5.92044767,9.10474269 L5.92122616,9.10347487 C5.92122616,9.10347487 5.05976041,8.76002059 4.5144524,8.76002059 C2.1097485,8.76002059 0.761727694,9.86129909 0.761727694,11.7693148 L0.761727694,15.8922794 C0.761727694,16.2626031 0,16.2626031 0,16.2626031 C0,16.2626031 0.196865898,16.698853 0.778488084,16.698853 C1.75539904,16.698853 2.73991171,15.3391863 2.73991171,13.7917607 C2.73991171,12.0826688 3.01815251,11.1280884 3.55279065,10.3870729 C4.08742879,9.64605738 5.08687011,9.31352264 5.08687011,9.31352264 L5.61862326,9.32202925 C3.72451596,10.888063 3.8933105,13.005104 3.8933105,13.7275931 L4.13665671,14.9062081 C4.13665671,14.9062081 2.79719927,17.1124868 2.65798729,17.3123103 C2.3497518,17.7547765 2.33601377,17.946257 2.44023959,18.3344937 C2.57381899,18.8320893 3.05487883,20.8771923 3.35253604,21.9916397 C3.61557342,22.9765658 4.42868133,22.748237 4.42868133,22.748237 L3.90205704,18.3722417 L7.37379334,15.1776425 L8.37286831,16.2477165 C8.37286831,16.2477165 8.34965105,17.9263401 8.34965105,18.0092795 C8.34965105,18.3012443 8.44957228,18.5309227 8.67592914,18.7812132 C8.79613686,18.914129 11.0743593,21.7155839 11.6238803,22.3290412 C12.1734013,22.9424984 12.9747861,22.6562184 12.9747861,22.6562184 L10.3264155,18.2769514 L11.26573,15.2021808 L10.6126243,14.3949937 L10.8797373,14.3847694 C12.1161596,15.6219083 15.3936402,15.3334607 15.3936402,15.3334607 C15.3867712,15.3620887 15.3804059,15.3883855 15.3748191,15.4117787 C15.2138095,16.0812242 16.0459216,16.4627946 16.0459216,16.4627946 C16.0459216,16.4627946 16.0548056,16.4409146 16.0711538,16.4005901 C16.0717491,16.3991995 16.0722528,16.3979317 16.0728482,16.3965003 C16.1349898,16.2432996 16.2992508,15.8384996 16.5055959,15.3298208 C17.0197186,14.0625408 17.7954133,12.1502718 17.9062334,11.8748295 C18.0954518,11.4044713 18.0752111,11.1194182 17.8591578,10.6897118 C17.680655,10.3348063 16.9801073,8.71221182 16.9801073,8.71221182 L16.979512,8.71090311 L16.6462275,7.29406219 L15.215458,6.98622933 L15.1845017,6.85053258 C15.1845017,6.85053258 17.8407488,7.26588406 17.9931951,7.28706878 C18.1918011,7.31467436 18.4654168,7.31197515 18.5981261,7.27978909 C19.0528548,7.69984373 18.6737768,7.37103063 19.3765684,7.94056437 L17.7651897,8.71908255 L17.3414174,8.72423559 C17.5061363,9.1045382 18.0149012,10.2752601 18.1621728,10.5681655 C18.4176085,11.0761081 18.4324455,11.4442642 18.218865,11.9751502 C18.1118,12.2411861 16.8632883,15.3191058 16.8632883,15.3191058 L17.8851226,15.2681888 C17.8851226,15.2681888 16.3307567,20.7590813 16.0505926,21.6404967 C15.7704742,22.521953 16.6383053,22.7583795 16.6383053,22.7583795 L20.6103346,15.3282258 L21.2130218,15.0590408 L25.5908724,16.1944684 C25.5908724,16.1944684 25.1573004,19.355123 25.0413514,20.0796978 C24.9254025,20.8042726 25.7740461,21.1634723 25.7740461,21.1634723 C25.7740461,21.1634723 27.1519242,16.2751994 27.2394354,16.0104312 C27.3427912,15.6976089 27.2446101,15.3692866 26.9819849,15.2546928 C26.8087026,15.1791148 23.7471379,13.8585867 23.7471379,13.8585867 L23.4949536,12.5536813 L24.0866503,10.8472885 C25.1147583,11.1938101 26.5071529,11.494077 28.537862,11.6927144 L29.481069,7.18004093 L29.4825344,7.17300662 L29.2589251,5.54202822 L29.7698881,4.21892357 Z M14.3176781,1.72346117 C14.1935779,1.4703078 14.0348121,1.14967413 14.1883575,0.72998756 C14.3443299,0.303675652 14.9344238,-0.102105887 15.6777884,0.0230393972 C16.471663,0.156650392 16.7844779,0.789615608 16.7552159,1.41346076 C16.8683714,1.45525765 17.0418826,1.52797278 16.9800615,1.5608132 C16.8490008,1.63037925 16.6435715,1.6727896 16.4055831,1.69691892 C16.4049878,1.69798224 16.4044841,1.69904557 16.403843,1.70010889 C16.3070357,1.86283866 15.9658747,2.43633942 15.7908981,2.73043084 C15.7163464,2.8558215 15.5551536,2.78924094 15.3553111,2.73165775 C15.1293664,2.66654948 14.9268679,2.60855732 14.9268679,2.60855732 C14.9268679,2.60855732 14.6248145,2.13145115 14.4289561,1.73581211 L14.3176781,1.72346117 Z" id="Fill-1"></path>
        </g>
    </g>
</svg>