<?xml version="1.0" encoding="UTF-8"?>
<svg width="44px" height="53px" viewBox="0 0 44 53" version="1.1" xmlns="http://www.w3.org/2000/svg" xmlns:xlink="http://www.w3.org/1999/xlink">
    <!-- Generator: Sketch 49.2 (51160) - http://www.bohemiancoding.com/sketch -->
    <title>location-pin-selected</title>
    <desc>Created with Sketch.</desc>
    <defs>
        <path d="M7.52,2.74985211e-16 C3.36,2.74985211e-16 0,3.37272727 0,7.54848485 L0,32.2015152 C0,36.3772727 3.36,39.75 7.52,39.75 L13.04,39.75 C13.36,39.75 15.2,39.9106061 15.36,40.1515152 L21.76,52.8393939 L28.16,40.1515152 C28.32,39.9106061 30.16,39.75 30.48,39.75 L36.08,39.75 C40.24,39.75 43.6,36.3772727 43.6,32.2015152 L43.6,7.54848485 C43.6,3.37272727 40.24,0 36.08,0 C31.5534722,4.35829201e-17 28.1585764,7.62701102e-17 25.8953125,9.80615702e-17 C21.8119097,1.37377935e-16 15.6868056,1.96352482e-16 7.52,2.74985211e-16 Z" id="path-1"></path>
        <filter x="-18.3%" y="-13.2%" width="136.7%" height="130.3%" filterUnits="objectBoundingBox" id="filter-2">
            <feOffset dx="0" dy="1" in="SourceAlpha" result="shadowOffsetOuter1"></feOffset>
            <feGaussianBlur stdDeviation="2.5" in="shadowOffsetOuter1" result="shadowBlurOuter1"></feGaussianBlur>
            <feComposite in="shadowBlurOuter1" in2="SourceAlpha" operator="out" result="shadowBlurOuter1"></feComposite>
            <feColorMatrix values="0 0 0 0 0   0 0 0 0 0   0 0 0 0 0  0 0 0 0.271993886 0" type="matrix" in="shadowBlurOuter1"></feColorMatrix>
        </filter>
    </defs>
    <g id="location-pin-selected" stroke="none" stroke-width="1" fill="none" fill-rule="evenodd">
        <g id="location-pin-orange">
            <g id="Path">
                <use fill="black" fill-opacity="1" filter="url(#filter-2)" xlink:href="#path-1"></use>
                <use fill="#EC6607" fill-rule="evenodd" xlink:href="#path-1"></use>
                <path stroke="#FFFFFF" stroke-width="1.6" d="M21.7603516,51.0637612 L27.493587,39.7089163 C27.8561269,39.1630466 29.4327868,38.95 30.48,38.95 L36.08,38.95 C39.7974937,38.95 42.8,35.9361206 42.8,32.2015152 L42.8,7.54848485 C42.8,3.81387942 39.7974937,0.8 36.08,0.8 C29.8560243,0.8 29.8560243,0.8 25.8953125,0.8 C18.7493576,0.8 18.7493576,0.8 7.52,0.8 C3.80250629,0.8 0.8,3.81387942 0.8,7.54848485 L0.8,32.2015152 C0.8,35.9361206 3.80250629,38.95 7.52,38.95 L13.04,38.95 C14.0872132,38.95 15.6638731,39.1630466 16.0742749,39.7912217 L21.7603516,51.0637612 Z M28.6049411,40.8017139 C28.6026515,40.8025804 28.6005695,40.8034023 28.5987008,40.8041765 C28.6031444,40.8023356 28.6075985,40.8004198 28.6120829,40.798383 Z"></path>
            </g>
        </g>
        <g id="lacrosse" transform="translate(4.000000, 5.000000)" fill="#FFFFFF">
            <path d="M19.8400879,19.2463854 C20.6707292,20.5095542 21.0860499,21.384041 21.0860499,21.8698456 C21.0860499,22.5985525 20.1958682,27.9901489 20.1958682,28.8702979 C20.1958682,29.7504469 20.0663607,30.7651951 20.5762053,30.4611593 C20.9161017,30.2584688 21.9723336,27.3946976 23.7449011,21.8698456 C23.1765881,19.7174105 22.7590262,18.641193 22.4922153,18.641193 C22.2254044,18.641193 22.4817884,17.8311987 23.2613673,16.2112102 C24.2235626,16.4995067 24.7046602,16.3942267 24.7046602,15.89537 C24.7046602,15.147085 25.6088743,9.57914208 24.8876663,9.03038055 C24.1664584,8.48161902 21.6344836,8.69093152 20.5762053,8.23142292 C19.5179269,7.77191432 19.3048096,7.51567205 18.1488889,8.69093152 C16.9929683,9.866191 16.3401685,10.268405 15.9896503,9.866191 C15.6391322,9.46397701 15.9896503,7.30060129 15.9896503,6.98332154 C15.9896503,6.66604179 14.5886009,7.49263904 14.5886009,7.95214764 C14.5886009,8.25848671 14.5886009,9.54679989 14.5886009,11.8170872 C14.9437965,12.2072088 15.6508258,12.0957866 16.7096889,11.4828206 C18.2979834,10.5633715 19.0703512,12.0848459 18.1488889,14.6014905 C17.2274267,17.1181351 15.2551408,20.7236653 14.3740218,20.7236653 C13.7866091,20.7236653 11.7385092,20.8574967 8.22972202,21.1251595 C8.03619156,21.6216169 8.03619156,21.9503652 8.22972202,22.1114043 C8.52001771,22.352963 13.5263759,22.7151571 14.7580131,22.7151571 C15.5791046,22.7151571 17.2731295,21.5588999 19.8400879,19.2463854 Z" id="Path-17"></path>
            <path d="M17.1215989,9.59109045 L13.2881171,4.84715357 C13.5195546,4.7046368 13.5195546,4.37449696 13.2881171,3.85673402 C12.9409609,3.08008963 12.1656697,2.19547798 12.1656697,1.80996293 C12.1656697,1.42444788 10.7668128,-0.791183987 9.65869013,0.0761528983 C8.91994168,0.654377488 8.55056746,1.06412519 8.55056746,1.305396 C8.07755797,2.31702511 8.22787052,2.96626815 9.00150512,3.25312513 C9.77513973,3.53998211 10.3577775,3.86191645 10.7494184,4.21892815 C11.6597001,4.93189586 12.3103869,5.28837972 12.701479,5.28837972 C13.0925711,5.28837972 15.449597,8.16697847 19.7725569,13.924176 L17.1215989,9.59109045 Z" id="Path-18"></path>
            <path d="M22.8942931,8.25305701 C23.2284284,8.25343369 23.5087641,8.2907725 23.5533709,8.02313849 C23.658256,7.39515912 23.8625544,6.17103019 23.9205126,5.82377459 C24.1013913,4.73892458 23.3856247,3.74005269 22.4906429,3.56729598 C21.5947857,3.39449218 20.5760079,3.99309019 20.3923276,5.09206586 C20.3290289,5.47289342 20.3480273,5.8481178 20.4593473,6.19268952 C20.6268746,6.71194846 22.178833,8.25235073 22.178833,8.25235073 C22.178833,8.25235073 22.5171707,8.25268033 22.8942931,8.25305701 Z" id="Path"></path>
        </g>
    </g>
</svg>