<?xml version="1.0" encoding="UTF-8"?>
<svg width="44px" height="53px" viewBox="0 0 44 53" version="1.1" xmlns="http://www.w3.org/2000/svg" xmlns:xlink="http://www.w3.org/1999/xlink">
    <!-- Generator: Sketch 49.2 (51160) - http://www.bohemiancoding.com/sketch -->
    <title>location-pin-selected</title>
    <desc>Created with Sketch.</desc>
    <defs>
        <path d="M7.52,2.74985211e-16 C3.36,2.74985211e-16 0,3.37272727 0,7.54848485 L0,32.2015152 C0,36.3772727 3.36,39.75 7.52,39.75 L13.04,39.75 C13.36,39.75 15.2,39.9106061 15.36,40.1515152 L21.76,52.8393939 L28.16,40.1515152 C28.32,39.9106061 30.16,39.75 30.48,39.75 L36.08,39.75 C40.24,39.75 43.6,36.3772727 43.6,32.2015152 L43.6,7.54848485 C43.6,3.37272727 40.24,0 36.08,0 C31.5534722,4.35829201e-17 28.1585764,7.62701102e-17 25.8953125,9.80615702e-17 C21.8119097,1.37377935e-16 15.6868056,1.96352482e-16 7.52,2.74985211e-16 Z" id="path-1"></path>
        <filter x="-18.3%" y="-13.2%" width="136.7%" height="130.3%" filterUnits="objectBoundingBox" id="filter-2">
            <feOffset dx="0" dy="1" in="SourceAlpha" result="shadowOffsetOuter1"></feOffset>
            <feGaussianBlur stdDeviation="2.5" in="shadowOffsetOuter1" result="shadowBlurOuter1"></feGaussianBlur>
            <feComposite in="shadowBlurOuter1" in2="SourceAlpha" operator="out" result="shadowBlurOuter1"></feComposite>
            <feColorMatrix values="0 0 0 0 0   0 0 0 0 0   0 0 0 0 0  0 0 0 0.271993886 0" type="matrix" in="shadowBlurOuter1"></feColorMatrix>
        </filter>
    </defs>
    <g id="location-pin-selected" stroke="none" stroke-width="1" fill="none" fill-rule="evenodd">
        <g id="location-pin-orange">
            <g id="Path">
                <use fill="black" fill-opacity="1" filter="url(#filter-2)" xlink:href="#path-1"></use>
                <use fill="#EC6607" fill-rule="evenodd" xlink:href="#path-1"></use>
                <path stroke="#FFFFFF" stroke-width="1.6" d="M21.7603516,51.0637612 L27.493587,39.7089163 C27.8561269,39.1630466 29.4327868,38.95 30.48,38.95 L36.08,38.95 C39.7974937,38.95 42.8,35.9361206 42.8,32.2015152 L42.8,7.54848485 C42.8,3.81387942 39.7974937,0.8 36.08,0.8 C29.8560243,0.8 29.8560243,0.8 25.8953125,0.8 C18.7493576,0.8 18.7493576,0.8 7.52,0.8 C3.80250629,0.8 0.8,3.81387942 0.8,7.54848485 L0.8,32.2015152 C0.8,35.9361206 3.80250629,38.95 7.52,38.95 L13.04,38.95 C14.0872132,38.95 15.6638731,39.1630466 16.0742749,39.7912217 L21.7603516,51.0637612 Z M28.6049411,40.8017139 C28.6026515,40.8025804 28.6005695,40.8034023 28.5987008,40.8041765 C28.6031444,40.8023356 28.6075985,40.8004198 28.6120829,40.798383 Z"></path>
            </g>
        </g>
        <g id="chasse-avec-fusil" transform="translate(7.000000, 5.000000)" fill="#FFFFFF">
            <path d="M11.6807946,4.86040818 C11.9290506,4.58341424 12.3619794,4.55399687 12.6476344,4.79479568 C12.9333387,5.03554742 12.9636235,5.45529797 12.7152687,5.73233897 C12.4670127,6.00933291 12.0341333,6.03870321 11.7484289,5.79795147 C11.4627739,5.55715266 11.4324891,5.13740212 11.6807946,4.86040818 Z M19.0402883,4.67270184 C18.8092743,5.38450801 18.1074386,7.2791748 18.1074386,7.2791748 L15.2675381,7.10158803 C15.2675381,7.10158803 17.370921,5.51789813 17.499866,5.41872629 C17.8014785,5.18687037 17.7923881,4.83654481 17.7213943,4.5649166 C18.022414,4.45237752 18.2416697,4.39886144 18.2416697,4.39886144 L19.3876985,4.02947343 C19.2377074,4.19731717 19.1241272,4.41425261 19.0402883,4.67270184 Z M28.7684655,0.493129227 L28.5893753,0 C28.5893753,0 19.4115113,2.85936819 17.5048558,3.4454563 C16.9906077,3.59776767 16.4705793,4.10431121 16.4705793,4.10431121 L15.3132863,5.42395082 L14.5114071,5.87396595 C14.5185707,5.51290894 14.5247956,5.19868438 14.5278587,5.04670249 C14.5339848,4.73257206 14.5314158,4.45355421 14.463732,4.20503628 C14.7721623,3.98320579 15.1167071,3.71491939 15.2375991,3.54439279 C15.1762885,3.26702231 14.3720379,3.2861789 13.8327418,3.42549956 C13.4508475,3.19067836 12.9458874,3.0303184 12.5570271,3.0231641 C12.2571931,3.01770423 11.9566181,3.0804456 11.6804487,3.19966831 C11.645767,3.42051037 11.6208673,3.98485317 11.849658,4.40093242 C12.1779982,4.28109783 12.5620663,4.33522579 12.8454487,4.57409482 C13.2568373,4.92079615 13.3004612,5.5252407 12.9429232,5.92414021 C12.5853851,6.32303973 11.9620031,6.36535367 11.5506145,6.01865234 C11.1893712,5.71412374 11.1119054,5.21096907 11.3405974,4.82270688 C11.0031174,4.30444345 11.0902664,3.76405817 11.1576537,3.51972927 C10.7542191,3.85513434 10.4785438,4.3414858 10.4670821,4.92159631 C10.4590292,5.31574197 10.5195987,5.70306281 10.7242308,6.01813459 C11.0178893,6.47026777 11.978603,7.29395408 11.978603,7.29395408 C11.978603,7.29395408 11.5661769,7.52383316 11.4768541,7.5740545 C10.3355681,8.21591794 9.78965193,8.81871511 9.89028825,9.94307046 C9.94008766,10.4994117 10.3327521,14.9617205 10.3327521,14.9617205 C9.87403427,16.0637187 9.78762636,17.0618853 9.75521722,17.7622069 C9.72285748,18.4625286 9.57000094,22.8386563 9.57000094,22.8386563 C9.57000094,22.8386563 8.66397768,27.3815451 8.53824404,28.1140611 C8.32279241,29.3688884 8.74598862,29.9055553 9.5789925,29.9700382 L11.4803124,23.6627662 L12.7883869,19.2880035 L14.2381031,23.3199715 C14.2381031,23.3199715 14.9109387,27.9456526 15.0079685,28.6406085 C15.1007001,29.3046879 15.7119781,30.1761951 16.7001111,29.9776632 L16.3953861,23.068959 L15.5453378,17.0157118 L15.1955562,15.1782794 C15.1955562,15.1782794 15.4004353,13.0347182 15.6732946,10.1368485 C15.6820885,10.0433249 15.4888688,9.07344599 15.4888688,9.07344599 L18.4909632,9.07344599 C19.0220582,9.07344599 19.223973,8.83156462 19.3481257,8.34643692 C19.469166,7.87364097 20.5513152,3.65439022 20.5513152,3.65439022 L24.8207256,2.27826927 L24.709912,1.8700974 L28.7684655,0.493129227 Z" id="Fill-1"></path>
        </g>
    </g>
</svg>