<?xml version="1.0" encoding="UTF-8"?>
<svg width="44px" height="53px" viewBox="0 0 44 53" version="1.1" xmlns="http://www.w3.org/2000/svg" xmlns:xlink="http://www.w3.org/1999/xlink">
    <!-- Generator: Sketch 49.2 (51160) - http://www.bohemiancoding.com/sketch -->
    <title>location-pin-selected</title>
    <desc>Created with Sketch.</desc>
    <defs>
        <path d="M7.52,2.74985211e-16 C3.36,2.74985211e-16 0,3.37272727 0,7.54848485 L0,32.2015152 C0,36.3772727 3.36,39.75 7.52,39.75 L13.04,39.75 C13.36,39.75 15.2,39.9106061 15.36,40.1515152 L21.76,52.8393939 L28.16,40.1515152 C28.32,39.9106061 30.16,39.75 30.48,39.75 L36.08,39.75 C40.24,39.75 43.6,36.3772727 43.6,32.2015152 L43.6,7.54848485 C43.6,3.37272727 40.24,0 36.08,0 C31.5534722,4.35829201e-17 28.1585764,7.62701102e-17 25.8953125,9.80615702e-17 C21.8119097,1.37377935e-16 15.6868056,1.96352482e-16 7.52,2.74985211e-16 Z" id="path-1"></path>
        <filter x="-18.3%" y="-13.2%" width="136.7%" height="130.3%" filterUnits="objectBoundingBox" id="filter-2">
            <feOffset dx="0" dy="1" in="SourceAlpha" result="shadowOffsetOuter1"></feOffset>
            <feGaussianBlur stdDeviation="2.5" in="shadowOffsetOuter1" result="shadowBlurOuter1"></feGaussianBlur>
            <feComposite in="shadowBlurOuter1" in2="SourceAlpha" operator="out" result="shadowBlurOuter1"></feComposite>
            <feColorMatrix values="0 0 0 0 0   0 0 0 0 0   0 0 0 0 0  0 0 0 0.271993886 0" type="matrix" in="shadowBlurOuter1"></feColorMatrix>
        </filter>
    </defs>
    <g id="location-pin-selected" stroke="none" stroke-width="1" fill="none" fill-rule="evenodd">
        <g id="location-pin-orange">
            <g id="Path">
                <use fill="black" fill-opacity="1" filter="url(#filter-2)" xlink:href="#path-1"></use>
                <use fill="#EC6607" fill-rule="evenodd" xlink:href="#path-1"></use>
                <path stroke="#FFFFFF" stroke-width="1.6" d="M21.7603516,51.0637612 L27.493587,39.7089163 C27.8561269,39.1630466 29.4327868,38.95 30.48,38.95 L36.08,38.95 C39.7974937,38.95 42.8,35.9361206 42.8,32.2015152 L42.8,7.54848485 C42.8,3.81387942 39.7974937,0.8 36.08,0.8 C29.8560243,0.8 29.8560243,0.8 25.8953125,0.8 C18.7493576,0.8 18.7493576,0.8 7.52,0.8 C3.80250629,0.8 0.8,3.81387942 0.8,7.54848485 L0.8,32.2015152 C0.8,35.9361206 3.80250629,38.95 7.52,38.95 L13.04,38.95 C14.0872132,38.95 15.6638731,39.1630466 16.0742749,39.7912217 L21.7603516,51.0637612 Z M28.6049411,40.8017139 C28.6026515,40.8025804 28.6005695,40.8034023 28.5987008,40.8041765 C28.6031444,40.8023356 28.6075985,40.8004198 28.6120829,40.798383 Z"></path>
            </g>
        </g>
        <g id="netball" transform="translate(3.000000, 3.000000)" fill="#FFFFFF">
            <path d="M14.8879471,18.7814374 C14.4592069,18.7595495 14.0385933,18.868569 13.6746785,19.0956619 L14.2517656,19.8699525 C14.5797445,19.5858297 14.801889,19.2069215 14.8879471,18.7814374 M13.9937322,20.0596166 L13.4165512,19.2852327 C13.0913438,19.5641752 12.8629986,19.9319761 12.7581975,20.3455129 C13.178999,20.3866752 13.6138929,20.2945033 13.9937322,20.0596166 M12.4420562,20.2882963 C12.5623121,19.7948616 12.8344848,19.3566367 13.2251284,19.0283647 L12.9174426,18.6155279 L11.4638972,19.684862 C11.7297753,19.9871859 12.0726923,20.1908508 12.4420562,20.2882963 M11.2728971,19.4286008 L12.7263955,18.3592667 L12.3944237,17.9138081 C12.0042968,18.1636289 11.5553104,18.2950964 11.0944393,18.2950964 C11.055779,18.2950964 11.0169777,18.2931363 10.9782234,18.2912695 C10.9576014,18.680865 11.0534302,19.0783009 11.2728971,19.4286008 M11.0213933,17.9748049 C11.4392354,17.9890857 11.8482931,17.8788061 12.2028599,17.6567535 L11.6501058,16.9152247 C11.3216571,17.2002809 11.1089546,17.5746155 11.0213933,17.9748049 M11.9080452,16.7254206 L12.4606113,17.4668094 C12.7767996,17.1945872 13.0015747,16.8378003 13.1090533,16.4369108 C12.6990561,16.4039156 12.27755,16.4969276 11.9080452,16.7254206 M13.4268857,16.4878737 C13.3042811,16.9711345 13.0351148,17.4006789 12.6520812,17.7236773 L12.9843818,18.1695093 L14.4379272,17.1001752 C14.1642043,16.7888908 13.8087919,16.5817257 13.4268857,16.4878737 M14.6290212,17.3563897 L13.1753819,18.4257705 L13.4832087,18.838794 C13.9139688,18.5637717 14.4152383,18.433751 14.925621,18.4644127 C14.9407939,18.0729505 14.8384355,17.6899354 14.6290212,17.3563897 M15.3817476,18.7526424 C15.2848853,19.3977057 14.9410288,19.966698 14.4134063,20.3548001 C13.9746604,20.6776118 13.4621169,20.8333006 12.9539891,20.8333006 C12.2009339,20.8333006 11.4573207,20.4916345 10.9757807,19.8455912 C10.169315,18.7635164 10.3992573,17.2314093 11.4883711,16.4302371 C12.577438,15.6290183 14.119672,15.8574646 14.9260907,16.9395394 C15.3167343,17.4636358 15.4785629,18.1075791 15.3817476,18.7526424 M17.1807466,10.9033298 C17.1807466,10.9033298 17.5422657,10.8390662 17.9454516,10.7676155 C18.302602,10.7043785 18.6087846,10.6877643 18.6087846,10.4150754 L18.6087846,8.17406145 C18.6087846,7.06893201 17.6656219,6.21936375 16.6784436,6.21936375 C15.6903729,6.21936375 14.708127,7.00457502 14.708127,8.12426529 C14.708127,8.51218066 14.7953595,8.87904817 14.9757432,9.19789295 C15.2475872,9.67854025 17.1807466,10.9033298 17.1807466,10.9033298 M17.9572423,11.2981989 C17.9572423,11.2981989 19.1193082,11.0865536 19.9247404,10.9459389 C20.4304725,10.8577806 20.7614109,10.9578863 21.1853597,11.2034135 C21.8788506,11.6046297 24.2250137,13.0079294 25.628108,13.8150286 C26.0893079,14.080157 26.2732617,14.5672446 26.2289174,14.9817615 C26.1291896,15.9145412 25.7751395,18.6694777 25.714213,19.3480029 C25.6170219,20.4283976 24.5070982,20.4158902 24.5070982,20.4158902 L24.5070982,15.3560494 L20.6260761,13.7485715 L20.6260761,14.1264063 L21.8959965,14.9220715 C21.8959965,14.9220715 22.5486662,17.1143627 23.2550753,19.4112398 C23.7067862,20.8795966 23.4846418,22.265442 22.6874772,23.4640034 C21.5713997,25.1437721 20.2361842,27.1582532 20.2361842,27.1582532 L20.6932503,27.1582532 L21.5799491,26.028249 C21.5799491,26.028249 23.2426739,25.6938634 23.7684173,25.605705 C24.9723379,25.4036269 25.230794,26.5002625 25.230794,26.5002625 C25.230794,26.5002625 20.3137868,28.8722306 19.4712444,29.3679521 C18.5233842,29.9255571 17.382504,29.0162521 17.6670781,28.0542108 C18.3097891,25.8833875 19.095351,23.381772 19.095351,23.381772 L18.8193732,23.381772 L17.4173124,25.5663161 L14.3457624,25.5663161 L14.1757601,25.8005494 L15.8784605,25.9903069 L14.7965339,27.1732341 C14.7965339,27.1732341 14.4385379,30.09296 14.2158767,32.1675045 C14.0369492,33.831639 12.7738872,33.6177535 12.7738872,33.6177535 L12.7738872,27.2737131 C12.7738872,26.3236192 12.8751182,26.0950795 13.3925001,25.353224 C14.4826004,23.7909219 16.9712384,20.2856362 16.9712384,20.2856362 L17.335623,19.7733471 L17.335623,17.3921851 L14.873103,13.4875033 L14.873103,14.0849639 L15.5230952,15.2147814 L14.9959425,16.2634877 C14.9959425,16.2634877 14.4846673,15.6916485 13.5469067,15.6138041 L13.5469067,13.6185974 C13.5469067,12.6202474 14.0062746,12.014993 15.0124776,11.8230887 C16.033055,11.628431 17.9572423,11.2981989 17.9572423,11.2981989" id="Fill-1"></path>
            <path d="M28.128684,6.30924135 L27.5256428,6.61464195 C27.1468873,3.8554982 26.8580702,2.27169362 26.6591915,1.86322822 C26.4603128,1.45476281 28.7019414,1.35032803 33.3840773,1.54992387 C32.7952341,4.39769492 32.5008125,5.98413408 32.5008125,6.30924135 C32.5008125,6.63434862 32.2862947,6.73614882 31.857259,6.61464195 L32.5008125,2.1875978 C29.2990045,1.98557815 27.6406146,1.98557815 27.5256428,2.1875978 C27.4106711,2.38961745 27.6116848,3.76349864 28.128684,6.30924135 Z" id="Path-22"></path>
        </g>
    </g>
</svg>