<?xml version="1.0" encoding="UTF-8"?>
<svg width="44px" height="53px" viewBox="0 0 44 53" version="1.1" xmlns="http://www.w3.org/2000/svg" xmlns:xlink="http://www.w3.org/1999/xlink">
    <!-- Generator: Sketch 49.2 (51160) - http://www.bohemiancoding.com/sketch -->
    <title>location-pin-selected</title>
    <desc>Created with Sketch.</desc>
    <defs>
        <path d="M7.52,2.74985211e-16 C3.36,2.74985211e-16 0,3.37272727 0,7.54848485 L0,32.2015152 C0,36.3772727 3.36,39.75 7.52,39.75 L13.04,39.75 C13.36,39.75 15.2,39.9106061 15.36,40.1515152 L21.76,52.8393939 L28.16,40.1515152 C28.32,39.9106061 30.16,39.75 30.48,39.75 L36.08,39.75 C40.24,39.75 43.6,36.3772727 43.6,32.2015152 L43.6,7.54848485 C43.6,3.37272727 40.24,0 36.08,0 C31.5534722,4.35829201e-17 28.1585764,7.62701102e-17 25.8953125,9.80615702e-17 C21.8119097,1.37377935e-16 15.6868056,1.96352482e-16 7.52,2.74985211e-16 Z" id="path-1"></path>
        <filter x="-18.3%" y="-13.2%" width="136.7%" height="130.3%" filterUnits="objectBoundingBox" id="filter-2">
            <feOffset dx="0" dy="1" in="SourceAlpha" result="shadowOffsetOuter1"></feOffset>
            <feGaussianBlur stdDeviation="2.5" in="shadowOffsetOuter1" result="shadowBlurOuter1"></feGaussianBlur>
            <feComposite in="shadowBlurOuter1" in2="SourceAlpha" operator="out" result="shadowBlurOuter1"></feComposite>
            <feColorMatrix values="0 0 0 0 0   0 0 0 0 0   0 0 0 0 0  0 0 0 0.271993886 0" type="matrix" in="shadowBlurOuter1"></feColorMatrix>
        </filter>
    </defs>
    <g id="location-pin-selected" stroke="none" stroke-width="1" fill="none" fill-rule="evenodd">
        <g id="location-pin-orange">
            <g id="Path">
                <use fill="black" fill-opacity="1" filter="url(#filter-2)" xlink:href="#path-1"></use>
                <use fill="#EC6607" fill-rule="evenodd" xlink:href="#path-1"></use>
                <path stroke="#FFFFFF" stroke-width="1.6" d="M21.7603516,51.0637612 L27.493587,39.7089163 C27.8561269,39.1630466 29.4327868,38.95 30.48,38.95 L36.08,38.95 C39.7974937,38.95 42.8,35.9361206 42.8,32.2015152 L42.8,7.54848485 C42.8,3.81387942 39.7974937,0.8 36.08,0.8 C29.8560243,0.8 29.8560243,0.8 25.8953125,0.8 C18.7493576,0.8 18.7493576,0.8 7.52,0.8 C3.80250629,0.8 0.8,3.81387942 0.8,7.54848485 L0.8,32.2015152 C0.8,35.9361206 3.80250629,38.95 7.52,38.95 L13.04,38.95 C14.0872132,38.95 15.6638731,39.1630466 16.0742749,39.7912217 L21.7603516,51.0637612 Z M28.6049411,40.8017139 C28.6026515,40.8025804 28.6005695,40.8034023 28.5987008,40.8041765 C28.6031444,40.8023356 28.6075985,40.8004198 28.6120829,40.798383 Z"></path>
            </g>
        </g>
        <g id="jujitsu" transform="translate(6.000000, 6.000000)" fill="#FFFFFF">
            <path d="M16.2165698,4.37220973 C16.5158606,4.37255902 16.7669622,4.40718184 16.8069173,4.15901519 C16.9008647,3.57671422 17.0838583,2.44162683 17.1357725,2.11963016 C17.2977887,1.11369073 16.6566641,0.187475485 15.8550134,0.0272848694 C15.0525784,-0.132949407 14.1400415,0.422107366 13.9755158,1.44114497 C13.918818,1.79427163 13.9358352,2.14220267 14.0355465,2.46171069 C14.1856036,2.94319941 15.5757197,4.37155482 15.5757197,4.37155482 C15.5757197,4.37155482 15.8787747,4.37186045 16.2165698,4.37220973 Z" id="Path"></path>
            <path d="M17.6174026,4.93227566 C17.9946497,6.94683329 18.4733223,8.15825537 19.0534204,8.5665419 C19.6335184,8.97482842 20.4292112,9.17897169 21.4404987,9.17897169 L20.2281059,11.1094337 C18.4876371,10.8348103 17.6174026,10.603525 17.6174026,10.415578 C17.6174026,10.1336574 16.346616,12.3938276 16.7815586,13.3578573 C17.0715204,14.0005437 18.3183909,15.8342734 20.5221701,18.8590466 L20.5221701,27.2333699 L18.3113207,27.2333699 L18.0217081,21.5786727 L15.561572,17.2382701 C14.935911,16.5637252 14.457413,16.5637252 14.126078,17.2382701 C13.6290755,18.2500874 12.4753385,19.7472566 12.4753385,20.2795953 C12.4753385,20.6344878 12.4753385,22.7949002 12.4753385,26.7608325 L9.65043708,26.7608325 C9.29239279,21.6444363 9.29239279,18.7782436 9.65043708,18.1622542 C10.0084814,17.5462648 10.7782504,15.6246128 11.9597442,12.3972982 L10.918867,9.90326202 C11.1459834,6.98225135 11.376242,5.3252559 11.6096429,4.93227566 C11.9597442,4.34280532 12.6196211,4.34280532 13.1805164,4.34280532 C13.5544466,4.34280532 15.0334087,4.53929543 17.6174026,4.93227566 Z" id="Path-11"></path>
            <path d="M21.4512348,10.3132542 C22.7491671,10.3132542 23.4658667,10.3132542 23.6013335,10.3132542 C23.8045337,10.3132542 24.4848353,9.83110589 24.2707681,9.46442223 C24.0567009,9.09773857 24.1194154,8.84371636 23.6013335,8.84371636 C23.0832516,8.84371636 23.8177895,8.62853832 23.34969,8.84371636 C23.0376236,8.98716838 22.6322707,9.05889439 22.1336312,9.05889439 L21.4512348,10.3132542 Z" id="Path-12"></path>
            <path d="M18.5820797,27.6087301 C18.5529265,27.9577937 18.6195906,28.1782221 18.7820722,28.2700154 C19.0257946,28.4077053 21.2362511,28.2700154 21.533523,28.2700154 C21.8307949,28.2700154 22.3938505,28.0980791 21.9636867,27.9699705 C21.6769109,27.8845647 21.1382398,27.7221702 20.3476733,27.4827868 C19.5240291,27.4827868 19.0740197,27.4827868 18.997645,27.4827868 C18.9212704,27.4827868 18.7827486,27.5247679 18.5820797,27.6087301 Z" id="Path-13"></path>
            <path d="M8.54295833,27.2420464 C8.51380504,27.59111 8.58046919,27.8115385 8.74295077,27.9033317 C8.98667314,28.0410217 11.1971297,27.9033317 11.4944016,27.9033317 C11.7916735,27.9033317 12.3547291,27.7313955 11.9245653,27.6032868 C11.6377895,27.5178811 11.0991183,27.3554865 10.3085519,27.1161032 C9.48490768,27.1161032 9.03489827,27.1161032 8.95852363,27.1161032 C8.882149,27.1161032 8.74362723,27.1580843 8.54295833,27.2420464 Z" id="Path-13" transform="translate(10.308552, 27.662858) scale(-1, 1) rotate(9.000000) translate(-10.308552, -27.662858) "></path>
        </g>
    </g>
</svg>