<?xml version="1.0" encoding="UTF-8"?>
<svg width="44px" height="53px" viewBox="0 0 44 53" version="1.1" xmlns="http://www.w3.org/2000/svg" xmlns:xlink="http://www.w3.org/1999/xlink">
    <!-- Generator: Sketch 49.2 (51160) - http://www.bohemiancoding.com/sketch -->
    <title>location-pin-selected</title>
    <desc>Created with Sketch.</desc>
    <defs>
        <path d="M7.52,2.74985211e-16 C3.36,2.74985211e-16 0,3.37272727 0,7.54848485 L0,32.2015152 C0,36.3772727 3.36,39.75 7.52,39.75 L13.04,39.75 C13.36,39.75 15.2,39.9106061 15.36,40.1515152 L21.76,52.8393939 L28.16,40.1515152 C28.32,39.9106061 30.16,39.75 30.48,39.75 L36.08,39.75 C40.24,39.75 43.6,36.3772727 43.6,32.2015152 L43.6,7.54848485 C43.6,3.37272727 40.24,0 36.08,0 C31.5534722,4.35829201e-17 28.1585764,7.62701102e-17 25.8953125,9.80615702e-17 C21.8119097,1.37377935e-16 15.6868056,1.96352482e-16 7.52,2.74985211e-16 Z" id="path-1"></path>
        <filter x="-18.3%" y="-13.2%" width="136.7%" height="130.3%" filterUnits="objectBoundingBox" id="filter-2">
            <feOffset dx="0" dy="1" in="SourceAlpha" result="shadowOffsetOuter1"></feOffset>
            <feGaussianBlur stdDeviation="2.5" in="shadowOffsetOuter1" result="shadowBlurOuter1"></feGaussianBlur>
            <feComposite in="shadowBlurOuter1" in2="SourceAlpha" operator="out" result="shadowBlurOuter1"></feComposite>
            <feColorMatrix values="0 0 0 0 0   0 0 0 0 0   0 0 0 0 0  0 0 0 0.271993886 0" type="matrix" in="shadowBlurOuter1"></feColorMatrix>
        </filter>
        <polygon id="path-3" points="0 0.206536813 19.3425456 0.206536813 19.3425456 13.1278225 0 13.1278225"></polygon>
        <polygon id="path-5" points="0.076121471 0.212859016 4.50737223 0.212859016 4.50737223 5.6619258 0.076121471 5.6619258"></polygon>
    </defs>
    <g id="location-pin-selected" stroke="none" stroke-width="1" fill="none" fill-rule="evenodd">
        <g id="location-pin-orange">
            <g id="Path">
                <use fill="black" fill-opacity="1" filter="url(#filter-2)" xlink:href="#path-1"></use>
                <use fill="#EC6607" fill-rule="evenodd" xlink:href="#path-1"></use>
                <path stroke="#FFFFFF" stroke-width="1.6" d="M21.7603516,51.0637612 L27.493587,39.7089163 C27.8561269,39.1630466 29.4327868,38.95 30.48,38.95 L36.08,38.95 C39.7974937,38.95 42.8,35.9361206 42.8,32.2015152 L42.8,7.54848485 C42.8,3.81387942 39.7974937,0.8 36.08,0.8 C29.8560243,0.8 29.8560243,0.8 25.8953125,0.8 C18.7493576,0.8 18.7493576,0.8 7.52,0.8 C3.80250629,0.8 0.8,3.81387942 0.8,7.54848485 L0.8,32.2015152 C0.8,35.9361206 3.80250629,38.95 7.52,38.95 L13.04,38.95 C14.0872132,38.95 15.6638731,39.1630466 16.0742749,39.7912217 L21.7603516,51.0637612 Z M28.6049411,40.8017139 C28.6026515,40.8025804 28.6005695,40.8034023 28.5987008,40.8041765 C28.6031444,40.8023356 28.6075985,40.8004198 28.6120829,40.798383 Z"></path>
            </g>
        </g>
        <g id="aikido" transform="translate(5.000000, 6.000000)">
            <g id="Page-1" transform="translate(4.400000, 0.000000)">
                <g id="Group-3" transform="translate(0.000000, 15.259272)">
                    <mask id="mask-4" fill="white">
                        <use xlink:href="#path-3"></use>
                    </mask>
                    <g id="Clip-2"></g>
                    <path d="M8.88271459,0.232011639 C9.04751623,0.763690328 9.19286049,1.19620672 9.31241787,1.6357559 C9.36680475,1.83478377 9.45659,1.91448869 9.66640148,1.90042311 C9.92989656,1.88260672 10.1957359,1.89620344 10.5033031,1.89620344 C10.3535048,1.40320508 10.2233982,0.949590328 10.0761785,0.501601803 C10.0072572,0.292493607 10.0145244,0.202239508 10.2798949,0.206693607 C11.1662605,0.221931311 12.0533293,0.215367377 12.9401638,0.209975574 C13.0960572,0.209037869 13.2156146,0.255688689 13.3344687,0.355554262 C14.7656408,1.5598018 16.2033769,2.7565477 17.6326736,3.96337393 C18.1699785,4.41675426 18.5047392,5.00211656 18.6437539,5.69086082 C18.8746638,6.83321984 19.0851785,7.9795641 19.3264031,9.11981328 C19.379149,9.36994607 19.3034293,9.45715262 19.0875228,9.54201492 C18.3111031,9.84770672 18.3171982,9.85450508 18.4013572,10.6930477 C18.4728572,11.4057034 18.5302916,12.1195313 18.6055425,12.8319526 C18.6294539,13.0591116 18.5570162,13.1277985 18.3282162,13.119828 C17.725272,13.0987297 17.2545441,12.7726428 17.0236343,12.1303149 C16.8721949,11.7088166 16.7570916,11.2720805 16.6572261,10.8348756 C16.6007293,10.5873215 16.5050834,10.5244952 16.2889425,10.6517887 C16.072567,10.7793166 3.30407361,10.4787821 3.0778523,10.3435182 C2.88984246,10.231228 2.54125066,11.4718116 2.38301295,11.9430084 C2.1788277,12.55111 1.81734246,13.0150395 1.12578508,13.1160772 C0.841894918,13.1578051 0.706630984,13.099433 0.743201475,12.7595149 C0.847521148,11.7941477 0.911519508,10.8243264 1.00880639,9.85778705 C1.03787525,9.56827066 0.980675246,9.40628213 0.678968689,9.28672475 C-0.104014918,8.9770477 -0.0995608197,8.9573559 0.145883443,8.15983787 C0.424147377,7.2547182 0.719524426,6.35452148 0.987004754,5.44611984 C1.19892607,4.72596246 1.57564902,4.1131723 2.12819164,3.61595426 C3.34720803,2.51907393 4.57818016,1.4355559 5.80094738,0.343129672 C5.90878344,0.246780492 6.01872934,0.207865738 6.16149492,0.209975574 C6.59869984,0.216773934 7.03637361,0.22263459 7.4733441,0.20833459 C7.70237852,0.201067377 7.71011459,0.282882131 7.63744246,0.461749344 C7.38168344,1.09188705 7.14233426,1.72882311 6.87930803,2.35591328 C6.77405066,2.60674934 6.76467361,2.7082559 7.0980277,2.7028641 C7.9890818,2.68832967 7.98837852,2.70309852 8.29125721,1.85963295 C8.47457852,1.34952148 8.66141623,0.840582131 8.88271459,0.232011639" id="Fill-1" fill="#FFFFFF" mask="url(#mask-4)"></path>
                </g>
                <path d="M23.0827787,6.12888623 C22.9360279,6.84787148 22.3593393,7.39127148 21.6593426,7.46910098 C21.297623,7.5094223 20.9328557,7.53169279 20.5687918,7.54106984 C20.3683574,7.54622721 20.2914656,7.6158518 20.2879492,7.81909934 C20.2827918,8.11025672 20.2265295,8.40094525 20.2323902,8.69116492 C20.2380164,8.97153869 20.1201,9.0306141 19.8631689,9.03413049 C17.8102984,9.06179279 15.7574279,9.1164141 13.7045574,9.1271977 C13.3266623,9.12907311 13.2392213,9.25847639 13.2078082,9.5883141 C13.0615262,11.123337 12.8918016,12.6562502 12.744582,14.1910387 C12.7187951,14.4580502 12.642841,14.5597911 12.351918,14.5576813 C10.4687721,14.5436157 8.5853918,14.5431469 6.7022459,14.5576813 C6.38741148,14.5600256 6.37170492,14.4596911 6.44226721,14.20276 C6.62113443,13.5536338 6.61246066,13.5512895 7.26744754,13.7782141 C8.24758361,14.1176633 9.1367623,13.7873567 9.67922459,12.9000534 C9.7821377,12.7317354 9.73478361,12.6839125 9.58146885,12.6128813 C8.23820656,11.9886043 6.8970541,11.3594043 5.55871475,10.724578 C5.40375902,10.6512026 5.33179016,10.6664403 5.2490377,10.824678 C5.15432951,11.0051862 5.24434918,11.055119 5.38055082,11.1184141 C6.5360377,11.6566567 7.68660164,12.2049797 8.84677705,12.733142 C9.12011803,12.8576223 9.15059344,12.9406092 8.9079623,13.1347141 C8.48740164,13.4715846 8.04246066,13.6077862 7.51922131,13.4115715 C7.22384426,13.3006879 6.91768361,13.2169977 6.6253541,13.0993157 C6.44554918,13.026878 6.36279672,13.084078 6.2866082,13.2420813 C6.1337623,13.5590256 5.96052131,13.8665928 5.80814426,14.1837715 C5.72586066,14.3549026 5.65717377,14.3947551 5.49166885,14.2576157 C4.69626066,13.5993469 3.88631803,12.9584256 3.09114426,12.2994534 C2.63049672,11.9178075 2.49523279,11.5108436 2.7214541,10.9686157 C3.2121082,9.79249934 3.68799344,8.60630262 4.30101803,7.48785508 C4.80550328,6.56726328 5.57113934,6.10942885 6.67927213,6.11552393 C12.0005131,6.14529607 17.322223,6.12888623 22.6439328,6.12888623 L23.0827787,6.12888623 Z" id="Fill-4" fill="#FFFFFF"></path>
                <g id="Group-8" transform="translate(7.267213, 0.021567)">
                    <mask id="mask-6" fill="white">
                        <use xlink:href="#path-5"></use>
                    </mask>
                    <g id="Clip-7"></g>
                    <path d="M2.91696557,5.63044918 C2.49007541,5.75164754 2.11991639,5.5099541 1.78585902,5.12666721 C1.39507049,4.67820984 0.955286885,4.27194918 0.571531148,3.8181 C-0.00257868852,3.13873279 -0.0780639344,2.14124918 0.34695082,1.36271967 C0.759306557,0.607398361 1.68411803,0.130340984 2.55360492,0.224580328 C3.40691639,0.317178689 4.15848689,0.959740984 4.41541803,1.80977049 C4.52348852,2.16727049 4.52888033,2.53156885 4.47003934,2.89235082 C4.34743443,3.6474377 4.18779016,4.39642951 4.07854754,5.15315738 C4.02462951,5.5251918 3.84341803,5.65623607 3.4936541,5.63232459 C3.33658852,5.62130656 3.17788197,5.63044918 2.91696557,5.63044918" id="Fill-6" fill="#FFFFFF" mask="url(#mask-6)"></path>
                </g>
            </g>
        </g>
    </g>
</svg>