<?xml version="1.0" encoding="UTF-8"?>
<svg width="44px" height="53px" viewBox="0 0 44 53" version="1.1" xmlns="http://www.w3.org/2000/svg" xmlns:xlink="http://www.w3.org/1999/xlink">
    <!-- Generator: Sketch 49.2 (51160) - http://www.bohemiancoding.com/sketch -->
    <title>location-pin-selected</title>
    <desc>Created with Sketch.</desc>
    <defs>
        <path d="M7.52,2.74985211e-16 C3.36,2.74985211e-16 0,3.37272727 0,7.54848485 L0,32.2015152 C0,36.3772727 3.36,39.75 7.52,39.75 L13.04,39.75 C13.36,39.75 15.2,39.9106061 15.36,40.1515152 L21.76,52.8393939 L28.16,40.1515152 C28.32,39.9106061 30.16,39.75 30.48,39.75 L36.08,39.75 C40.24,39.75 43.6,36.3772727 43.6,32.2015152 L43.6,7.54848485 C43.6,3.37272727 40.24,0 36.08,0 C31.5534722,4.35829201e-17 28.1585764,7.62701102e-17 25.8953125,9.80615702e-17 C21.8119097,1.37377935e-16 15.6868056,1.96352482e-16 7.52,2.74985211e-16 Z" id="path-1"></path>
        <filter x="-18.3%" y="-13.2%" width="136.7%" height="130.3%" filterUnits="objectBoundingBox" id="filter-2">
            <feOffset dx="0" dy="1" in="SourceAlpha" result="shadowOffsetOuter1"></feOffset>
            <feGaussianBlur stdDeviation="2.5" in="shadowOffsetOuter1" result="shadowBlurOuter1"></feGaussianBlur>
            <feComposite in="shadowBlurOuter1" in2="SourceAlpha" operator="out" result="shadowBlurOuter1"></feComposite>
            <feColorMatrix values="0 0 0 0 0   0 0 0 0 0   0 0 0 0 0  0 0 0 0.271993886 0" type="matrix" in="shadowBlurOuter1"></feColorMatrix>
        </filter>
    </defs>
    <g id="location-pin-selected" stroke="none" stroke-width="1" fill="none" fill-rule="evenodd">
        <g id="location-pin-orange">
            <g id="Path">
                <use fill="black" fill-opacity="1" filter="url(#filter-2)" xlink:href="#path-1"></use>
                <use fill="#EC6607" fill-rule="evenodd" xlink:href="#path-1"></use>
                <path stroke="#FFFFFF" stroke-width="1.6" d="M21.7603516,51.0637612 L27.493587,39.7089163 C27.8561269,39.1630466 29.4327868,38.95 30.48,38.95 L36.08,38.95 C39.7974937,38.95 42.8,35.9361206 42.8,32.2015152 L42.8,7.54848485 C42.8,3.81387942 39.7974937,0.8 36.08,0.8 C29.8560243,0.8 29.8560243,0.8 25.8953125,0.8 C18.7493576,0.8 18.7493576,0.8 7.52,0.8 C3.80250629,0.8 0.8,3.81387942 0.8,7.54848485 L0.8,32.2015152 C0.8,35.9361206 3.80250629,38.95 7.52,38.95 L13.04,38.95 C14.0872132,38.95 15.6638731,39.1630466 16.0742749,39.7912217 L21.7603516,51.0637612 Z M28.6049411,40.8017139 C28.6026515,40.8025804 28.6005695,40.8034023 28.5987008,40.8041765 C28.6031444,40.8023356 28.6075985,40.8004198 28.6120829,40.798383 Z"></path>
            </g>
        </g>
        <g id="kendo" transform="translate(6.000000, 5.000000)" fill="#FFFFFF">
            <path d="M11.199043,6.2381457 C11.9622852,6.20649392 12.4244632,6.02812687 12.5855769,5.70304453 C12.7466906,5.3779622 12.9085326,5.13647778 13.0711027,4.97859128 L10.5179961,4.97859128 L11.199043,6.2381457 Z" id="Path-15" transform="translate(11.794549, 5.608368) scale(-1, 1) translate(-11.794549, -5.608368) "></path>
            <path d="M20.2167699,28.5015379 C21.0683061,28.8903893 21.6527757,29.0848149 21.9701789,29.0848149 C22.4462836,29.0848149 22.4462836,29.0848149 22.4462836,28.7931764 C22.4462836,28.5987508 22.074698,28.3726966 21.3315268,28.1150139 L20.2167699,28.1150139 L20.2167699,28.5015379 Z" id="Path-16"></path>
            <path d="M10.1501653,28.5015379 C11.0017014,28.8903893 11.5861711,29.0848149 11.9035743,29.0848149 C12.379679,29.0848149 12.379679,29.0848149 12.379679,28.7931764 C12.379679,28.5987508 12.0080934,28.3726966 11.2649222,28.1150139 L10.1501653,28.1150139 L10.1501653,28.5015379 Z" id="Path-16" transform="translate(11.264922, 28.686980) scale(-1, 1) translate(-11.264922, -28.686980) "></path>
            <path d="M14.5944354,2.21641358 C14.5156611,1.90292703 14.5250928,1.56974855 14.6117489,1.23829028 C14.8615328,0.281443331 15.8525207,-0.166989555 16.6729862,0.0565478558 C17.4927431,0.280130535 18.0862732,1.21977534 17.8398546,2.16376595 C17.7609032,2.46647852 17.5041674,3.44976246 17.3613199,3.99633814 C17.3004791,4.22933673 17.0851894,4.25341974 16.7748303,4.22204845 C16.4168702,4.18592393 15.878336,4.12245706 15.878336,4.12245706 C15.878336,4.12245706 14.7128403,2.68865786 14.5944354,2.21641358 Z" id="Path"></path>
            <path d="M13.0660508,17.823812 C13.0660508,18.5486842 12.3187835,26.8872975 11.7268953,27.2132176 C11.1350071,27.5391378 13.4783928,28.4635558 14.4588654,28.230636 C15.1125138,28.0753561 15.7319825,27.4850971 16.3172714,26.4598589 L17.0672695,26.4598589 C17.0579849,27.6403769 17.2685706,28.230636 17.6990265,28.230636 C18.1294823,28.230636 19.6641589,28.0576218 22.3030562,27.7115934 C21.6820857,27.173234 21.3716004,26.7559891 21.3716004,26.4598589 C21.3716004,26.1637286 20.9743231,23.2850463 20.1797684,17.823812 L22.1239196,17.4812747 C20.3035165,15.4880508 19.3933149,14.0074459 19.3933149,13.0394602 C19.3933149,11.5874817 20.0975731,10.9395512 20.3696914,10.2581072 C20.6418098,9.57666308 20.8018312,7.18127546 20.0975731,6.78204419 C19.3933149,6.38281292 18.0585285,5.11501974 17.6990265,5.11501974 C17.4593584,5.11501974 16.6296682,5.11501974 15.2099558,5.11501974 C14.5422896,5.65542723 14.1349995,5.92563098 13.9880856,5.92563098 C13.8411717,5.92563098 13.3100426,6.10567371 12.3946981,6.46575919 C11.9715242,8.59024486 12.1015075,10.0329606 12.7846479,10.7939065 C13.8093586,11.9353253 13.9822145,12.8107296 13.8093586,13.0394602 C13.6941213,13.1919473 12.9999669,14.6725521 11.7268953,17.4812747 C12.6196657,17.2263848 13.0660508,17.3405639 13.0660508,17.823812 Z" id="Path-14"></path>
            <path d="M20.147136,6.2381457 C20.9103782,6.20649392 21.3725562,6.02812687 21.5336699,5.70304453 C21.6947836,5.3779622 21.8566256,5.13647778 22.0191957,4.97859128 L19.4660891,4.97859128 L20.147136,6.2381457 Z" id="Path-15"></path>
        </g>
    </g>
</svg>