<?xml version="1.0" encoding="UTF-8"?>
<svg width="44px" height="53px" viewBox="0 0 44 53" version="1.1" xmlns="http://www.w3.org/2000/svg" xmlns:xlink="http://www.w3.org/1999/xlink">
    <!-- Generator: Sketch 49.2 (51160) - http://www.bohemiancoding.com/sketch -->
    <title>location-pin-selected</title>
    <desc>Created with Sketch.</desc>
    <defs>
        <path d="M7.52,2.74985211e-16 C3.36,2.74985211e-16 0,3.37272727 0,7.54848485 L0,32.2015152 C0,36.3772727 3.36,39.75 7.52,39.75 L13.04,39.75 C13.36,39.75 15.2,39.9106061 15.36,40.1515152 L21.76,52.8393939 L28.16,40.1515152 C28.32,39.9106061 30.16,39.75 30.48,39.75 L36.08,39.75 C40.24,39.75 43.6,36.3772727 43.6,32.2015152 L43.6,7.54848485 C43.6,3.37272727 40.24,0 36.08,0 C31.5534722,4.35829201e-17 28.1585764,7.62701102e-17 25.8953125,9.80615702e-17 C21.8119097,1.37377935e-16 15.6868056,1.96352482e-16 7.52,2.74985211e-16 Z" id="path-1"></path>
        <filter x="-18.3%" y="-13.2%" width="136.7%" height="130.3%" filterUnits="objectBoundingBox" id="filter-2">
            <feOffset dx="0" dy="1" in="SourceAlpha" result="shadowOffsetOuter1"></feOffset>
            <feGaussianBlur stdDeviation="2.5" in="shadowOffsetOuter1" result="shadowBlurOuter1"></feGaussianBlur>
            <feComposite in="shadowBlurOuter1" in2="SourceAlpha" operator="out" result="shadowBlurOuter1"></feComposite>
            <feColorMatrix values="0 0 0 0 0   0 0 0 0 0   0 0 0 0 0  0 0 0 0.271993886 0" type="matrix" in="shadowBlurOuter1"></feColorMatrix>
        </filter>
    </defs>
    <g id="location-pin-selected" stroke="none" stroke-width="1" fill="none" fill-rule="evenodd">
        <g id="location-pin-orange">
            <g id="Path">
                <use fill="black" fill-opacity="1" filter="url(#filter-2)" xlink:href="#path-1"></use>
                <use fill="#EC6607" fill-rule="evenodd" xlink:href="#path-1"></use>
                <path stroke="#FFFFFF" stroke-width="1.6" d="M21.7603516,51.0637612 L27.493587,39.7089163 C27.8561269,39.1630466 29.4327868,38.95 30.48,38.95 L36.08,38.95 C39.7974937,38.95 42.8,35.9361206 42.8,32.2015152 L42.8,7.54848485 C42.8,3.81387942 39.7974937,0.8 36.08,0.8 C29.8560243,0.8 29.8560243,0.8 25.8953125,0.8 C18.7493576,0.8 18.7493576,0.8 7.52,0.8 C3.80250629,0.8 0.8,3.81387942 0.8,7.54848485 L0.8,32.2015152 C0.8,35.9361206 3.80250629,38.95 7.52,38.95 L13.04,38.95 C14.0872132,38.95 15.6638731,39.1630466 16.0742749,39.7912217 L21.7603516,51.0637612 Z M28.6049411,40.8017139 C28.6026515,40.8025804 28.6005695,40.8034023 28.5987008,40.8041765 C28.6031444,40.8023356 28.6075985,40.8004198 28.6120829,40.798383 Z"></path>
            </g>
        </g>
        <g id="kungfu" transform="translate(4.000000, 6.000000)" fill="#FFFFFF">
            <g id="Group" transform="translate(9.579465, -1.179290)">
                <path d="M9.007068,5.89377023 C9.007068,5.89377023 9.34540569,5.89409982 9.72252812,5.89447651 C10.0566634,5.89485319 10.3369991,5.932192 10.3816059,5.66455799 C10.486491,5.03657862 10.6907894,3.81244968 10.7487476,3.46519409 C10.9296263,2.38034407 10.2138598,1.38147219 9.31887799,1.20871547 C8.42302071,1.03591167 7.40424298,1.63450969 7.22056269,2.73348536 C7.1572639,3.11431291 7.17626229,3.4895373 7.28758235,3.83410902 C7.45510963,4.35336796 9.007068,5.89377023 9.007068,5.89377023 Z" id="Path" transform="translate(8.980749, 3.537871) scale(-1, 1) rotate(18.000000) translate(-8.980749, -3.537871) "></path>
                <path d="M6.67508691,7.84857935 C10.0784158,7.16161238 12.0063355,6.93262339 12.458846,7.16161238 C13.1376117,7.50509586 15.9636527,10.4669828 16.2698377,10.8998215 C16.473961,11.1883807 16.6387033,13.4372838 16.7640645,17.646531 L15.4944239,16.3031048 L14.9755176,12.6909532 L13.220089,10.2495568 L13.5194274,18.453361 C12.6158925,18.453361 12.1641251,18.453361 12.1641251,18.453361 C12.1641251,18.453361 12.0180384,22.4860656 11.725865,30.551475 L9.49507747,33.020127 L9.49507747,20.07368 L5.65908783,16.8279315 L5.65908783,20.832348 L3.90143011,22.6806237 L3.65797884,13.5761432 C3.69378717,13.0022751 3.83549524,12.7072118 4.08310304,12.6909532 C4.44766732,12.6670149 4.82785868,12.5391827 5.26501202,12.9068305 C6.14752953,13.6490315 6.80097887,14.1710191 7.22536004,14.4727931 L7.22536004,10.2495568 L4.99210457,11.9894292 C3.96649906,12.7510395 2.92465285,12.5293291 1.86656594,11.3242977 C0.808479029,10.1192664 0.186290382,9.27103666 2.03719856e-16,8.77960853 L0,7.16161238 L3.65797884,10.8998215" id="Path-21"></path>
            </g>
        </g>
    </g>
</svg>