<?xml version="1.0" encoding="UTF-8"?>
<svg width="44px" height="53px" viewBox="0 0 44 53" version="1.1" xmlns="http://www.w3.org/2000/svg" xmlns:xlink="http://www.w3.org/1999/xlink">
    <!-- Generator: Sketch 49.2 (51160) - http://www.bohemiancoding.com/sketch -->
    <title>location-pin-selected</title>
    <desc>Created with Sketch.</desc>
    <defs>
        <path d="M7.52,2.74985211e-16 C3.36,2.74985211e-16 0,3.37272727 0,7.54848485 L0,32.2015152 C0,36.3772727 3.36,39.75 7.52,39.75 L13.04,39.75 C13.36,39.75 15.2,39.9106061 15.36,40.1515152 L21.76,52.8393939 L28.16,40.1515152 C28.32,39.9106061 30.16,39.75 30.48,39.75 L36.08,39.75 C40.24,39.75 43.6,36.3772727 43.6,32.2015152 L43.6,7.54848485 C43.6,3.37272727 40.24,0 36.08,0 C31.5534722,4.35829201e-17 28.1585764,7.62701102e-17 25.8953125,9.80615702e-17 C21.8119097,1.37377935e-16 15.6868056,1.96352482e-16 7.52,2.74985211e-16 Z" id="path-1"></path>
        <filter x="-18.3%" y="-13.2%" width="136.7%" height="130.3%" filterUnits="objectBoundingBox" id="filter-2">
            <feOffset dx="0" dy="1" in="SourceAlpha" result="shadowOffsetOuter1"></feOffset>
            <feGaussianBlur stdDeviation="2.5" in="shadowOffsetOuter1" result="shadowBlurOuter1"></feGaussianBlur>
            <feComposite in="shadowBlurOuter1" in2="SourceAlpha" operator="out" result="shadowBlurOuter1"></feComposite>
            <feColorMatrix values="0 0 0 0 0   0 0 0 0 0   0 0 0 0 0  0 0 0 0.271993886 0" type="matrix" in="shadowBlurOuter1"></feColorMatrix>
        </filter>
    </defs>
    <g id="location-pin-selected" stroke="none" stroke-width="1" fill="none" fill-rule="evenodd">
        <g id="location-pin-orange">
            <g id="Path">
                <use fill="black" fill-opacity="1" filter="url(#filter-2)" xlink:href="#path-1"></use>
                <use fill="#EC6607" fill-rule="evenodd" xlink:href="#path-1"></use>
                <path stroke="#FFFFFF" stroke-width="1.6" d="M21.7603516,51.0637612 L27.493587,39.7089163 C27.8561269,39.1630466 29.4327868,38.95 30.48,38.95 L36.08,38.95 C39.7974937,38.95 42.8,35.9361206 42.8,32.2015152 L42.8,7.54848485 C42.8,3.81387942 39.7974937,0.8 36.08,0.8 C29.8560243,0.8 29.8560243,0.8 25.8953125,0.8 C18.7493576,0.8 18.7493576,0.8 7.52,0.8 C3.80250629,0.8 0.8,3.81387942 0.8,7.54848485 L0.8,32.2015152 C0.8,35.9361206 3.80250629,38.95 7.52,38.95 L13.04,38.95 C14.0872132,38.95 15.6638731,39.1630466 16.0742749,39.7912217 L21.7603516,51.0637612 Z M28.6049411,40.8017139 C28.6026515,40.8025804 28.6005695,40.8034023 28.5987008,40.8041765 C28.6031444,40.8023356 28.6075985,40.8004198 28.6120829,40.798383 Z"></path>
            </g>
        </g>
        <g id="capoeira" transform="translate(6.000000, 7.000000)" fill="#FFFFFF">
            <g id="Group" transform="translate(6.256488, 0.000000)">
                <path d="M4.04768678,19.7294004 C8.76534074,18.987092 11.3501773,18.350924 11.8021965,17.8208966 C12.4802253,17.0258553 13.9028623,19.7294004 14.7314061,19.7294004 C15.5599499,19.7294004 18.7051157,16.1738395 18.7051157,14.994726 C18.7051157,14.2086504 18.4786319,13.2025815 18.0256643,11.9765194 L15.2298981,14.994726 C13.4548265,13.3165306 12.5672907,11.7392699 12.5672907,10.2629438 C12.5672907,8.78661774 12.4277774,6.25592453 12.1487509,2.67086418 L9.97496155,3.41066608 C9.68967542,9.94780016 9.68967542,13.426238 9.97496155,13.8459797 C10.4028908,14.4755922 5.50247537,11.836252 5.50247537,13.8459797 C5.50247537,15.1857981 5.01754584,15.8557074 4.04768678,15.8557074 C2.83522069,16.7314385 2.22898764,17.3865015 2.22898764,17.8208966 C2.22898764,18.4724891 1.49860581,24.8105495 1.49860581,25.6935109 C1.49860581,26.2821518 1.19055748,26.7890424 0.574460819,27.2141827 C1.71674348,27.2141827 2.41696541,27.2141827 2.67512661,27.2141827 C2.9332878,27.2141827 3.0623684,25.9134077 3.0623684,23.3118578 L4.04768678,19.7294004 Z" id="Path-2"></path>
                <path d="M17.7032948,13.6177922 C18.8626491,11.11361 19.4423262,9.86151886 19.4423262,9.86151886 C19.4423262,9.86151886 19.0725829,8.51263846 18.5728105,9.50607846 C18.0730381,10.4995185 18.230524,10.8237241 17.7032948,10.8237241 C17.1760655,10.8237241 16.70375,10.8173881 16.70375,11.4170539 C16.70375,11.8168311 17.0369316,12.5504105 17.7032948,13.6177922 Z" id="Path-3"></path>
                <path d="M10.3229386,4.47679154 C11.4822929,1.97260934 12.06197,0.720518243 12.06197,0.720518243 C12.06197,0.720518243 11.6922267,-0.62836216 11.1924543,0.365077845 C10.6926819,1.35851785 10.8501678,1.68272345 10.3229386,1.68272345 C9.79570929,1.68272345 9.32339381,1.67638752 9.32339381,2.2760533 C9.32339381,2.6758305 9.6565754,3.40940991 10.3229386,4.47679154 Z" id="Path-3" transform="translate(10.692682, 2.238396) scale(-1, 1) translate(-10.692682, -2.238396) "></path>
                <path d="M2.93917619,14.9892333 C2.93917619,14.9892333 3.26846967,14.9895359 3.63551112,14.9898816 C3.96071453,14.9902274 4.23355649,15.0245034 4.27697091,14.7788231 C4.37905232,14.2023561 4.57788951,13.0786411 4.63429844,12.7598705 C4.810342,11.7640094 4.11370883,10.8470739 3.24265108,10.6884882 C2.37074124,10.5298593 1.37919676,11.079355 1.20042649,12.0881829 C1.13881976,12.4377717 1.1573103,12.7822168 1.26565463,13.0985237 C1.42870369,13.5751884 2.93917619,14.9892333 2.93917619,14.9892333 Z" id="Path"></path>
            </g>
        </g>
    </g>
</svg>