<?xml version="1.0" encoding="UTF-8"?>
<svg width="44px" height="53px" viewBox="0 0 44 53" version="1.1" xmlns="http://www.w3.org/2000/svg" xmlns:xlink="http://www.w3.org/1999/xlink">
    <!-- Generator: Sketch 49.2 (51160) - http://www.bohemiancoding.com/sketch -->
    <title>location-pin-selected</title>
    <desc>Created with Sketch.</desc>
    <defs>
        <path d="M7.52,2.74985211e-16 C3.36,2.74985211e-16 0,3.37272727 0,7.54848485 L0,32.2015152 C0,36.3772727 3.36,39.75 7.52,39.75 L13.04,39.75 C13.36,39.75 15.2,39.9106061 15.36,40.1515152 L21.76,52.8393939 L28.16,40.1515152 C28.32,39.9106061 30.16,39.75 30.48,39.75 L36.08,39.75 C40.24,39.75 43.6,36.3772727 43.6,32.2015152 L43.6,7.54848485 C43.6,3.37272727 40.24,0 36.08,0 C31.5534722,4.35829201e-17 28.1585764,7.62701102e-17 25.8953125,9.80615702e-17 C21.8119097,1.37377935e-16 15.6868056,1.96352482e-16 7.52,2.74985211e-16 Z" id="path-1"></path>
        <filter x="-18.3%" y="-13.2%" width="136.7%" height="130.3%" filterUnits="objectBoundingBox" id="filter-2">
            <feOffset dx="0" dy="1" in="SourceAlpha" result="shadowOffsetOuter1"></feOffset>
            <feGaussianBlur stdDeviation="2.5" in="shadowOffsetOuter1" result="shadowBlurOuter1"></feGaussianBlur>
            <feComposite in="shadowBlurOuter1" in2="SourceAlpha" operator="out" result="shadowBlurOuter1"></feComposite>
            <feColorMatrix values="0 0 0 0 0   0 0 0 0 0   0 0 0 0 0  0 0 0 0.271993886 0" type="matrix" in="shadowBlurOuter1"></feColorMatrix>
        </filter>
    </defs>
    <g id="location-pin-selected" stroke="none" stroke-width="1" fill="none" fill-rule="evenodd">
        <g id="location-pin-orange">
            <g id="Path">
                <use fill="black" fill-opacity="1" filter="url(#filter-2)" xlink:href="#path-1"></use>
                <use fill="#EC6607" fill-rule="evenodd" xlink:href="#path-1"></use>
                <path stroke="#FFFFFF" stroke-width="1.6" d="M21.7603516,51.0637612 L27.493587,39.7089163 C27.8561269,39.1630466 29.4327868,38.95 30.48,38.95 L36.08,38.95 C39.7974937,38.95 42.8,35.9361206 42.8,32.2015152 L42.8,7.54848485 C42.8,3.81387942 39.7974937,0.8 36.08,0.8 C29.8560243,0.8 29.8560243,0.8 25.8953125,0.8 C18.7493576,0.8 18.7493576,0.8 7.52,0.8 C3.80250629,0.8 0.8,3.81387942 0.8,7.54848485 L0.8,32.2015152 C0.8,35.9361206 3.80250629,38.95 7.52,38.95 L13.04,38.95 C14.0872132,38.95 15.6638731,39.1630466 16.0742749,39.7912217 L21.7603516,51.0637612 Z M28.6049411,40.8017139 C28.6026515,40.8025804 28.6005695,40.8034023 28.5987008,40.8041765 C28.6031444,40.8023356 28.6075985,40.8004198 28.6120829,40.798383 Z"></path>
            </g>
        </g>
        <g id="taekwando" transform="translate(4.000000, 6.000000)" fill="#FFFFFF">
            <path d="M12.7344848,5.01102597 L10.9281154,2.68641695 L12.0648784,1.68283396 L12.7344848,1.02232094 C12.2131935,0.798292121 11.3329309,1.01846313 10.0936971,1.68283396 C9.35460459,2.07907191 9.31300215,2.22390336 9.41694232,2.48925505 C9.46383297,2.60896345 9.63519775,2.82054622 9.93103668,3.12400338 L11.3952719,5.95715507 L12.7344848,5.01102597 Z" id="Path-19"></path>
            <path d="M18.1072943,28.755745 L16.3009248,26.431136 L17.4376878,25.427553 L18.1072943,24.76704 C17.586003,24.5430112 16.7057404,24.7631822 15.4665065,25.427553 C14.727414,25.823791 14.6858116,25.9686224 14.7897518,26.2339741 C14.8366424,26.3536825 15.0080072,26.5652653 15.3038461,26.8687224 L16.7680814,29.7018741 L18.1072943,28.755745 Z" id="Path-19" transform="translate(16.427487, 27.192087) scale(-1, 1) rotate(209.000000) translate(-16.427487, -27.192087) "></path>
            <path d="M23.9590606,8.95899245 C23.8748939,8.64968394 23.8849712,8.32094595 23.9775594,7.99390524 C24.2444423,7.04981081 25.3032687,6.60735448 26.1798994,6.82791266 C27.0557731,7.04851551 27.6899334,7.97563705 27.4266462,8.90704649 C27.3422902,9.20572461 27.0679794,10.1759037 26.9153532,10.7151948 C26.8503475,10.9450881 26.6203201,10.9688501 26.2887153,10.9378969 C25.9062509,10.9022539 25.3308512,10.8396328 25.3308512,10.8396328 C25.3308512,10.8396328 24.085571,9.42494282 23.9590606,8.95899245 Z" id="Path" transform="translate(25.694214, 8.860445) scale(-1, 1) translate(-25.694214, -8.860445) "></path>
            <path d="M15.9172307,6.82805677 L16.3681574,6.82805677 L18.6512382,10.1047194 L22.7572824,10.5626971 C24.008965,11.4507294 24.6348063,11.8947455 24.6348063,11.8947455 C24.6348063,11.8947455 26.7568314,12.9944983 26.7568314,13.7754303 C26.7568314,14.5563622 26.0355821,17.9360836 25.0321937,18.4783821 C24.0288052,19.0206807 22.7572824,18.4657065 22.7572824,17.3552069 C22.7572824,16.6148739 21.5405146,16.4315358 19.106979,16.8051927 L20.9655381,18.4783821 L20.6237324,19.0997659 L19.1344831,18.0482877 L18.6512382,17.7070947 L18.6512382,12.9639113 L19.106979,11.8947455 L17.9063557,11.8947455 L17.7306269,11.6340793 C17.9499022,12.2913578 18.1465818,12.7133253 18.3206656,12.8999818 C18.6182685,13.2190782 18.6182685,14.6480312 18.3206656,17.1868408 L17.2297469,26.7302482 L14.7704385,26.7302482 C14.7704385,18.3016575 14.7704385,13.8896951 14.7704385,13.4943609 C14.7704385,13.0990267 14.4992892,12.720869 13.9569907,12.3598877 L11.3202877,5.94186159 C12.7322479,4.83007608 13.4382281,4.5521297 13.4382281,5.10802246 C13.4382281,5.41168014 13.8153471,6.02406244 14.5695852,6.94516935 L14.4906335,6.82805677 L15.2141205,6.82805677 C14.2544336,6.1649695 13.9659077,5.83342586 14.3485427,5.83342586 C14.9399978,5.83342586 13.7571299,4.88399363 14.0388315,4.72513433 C14.320533,4.56627502 14.3555451,4.45164281 14.989776,4.91733618 C15.4125967,5.22779842 15.7217482,5.82787234 15.9172307,6.71755793 L15.9172307,6.82805677 Z" id="Path-20"></path>
        </g>
    </g>
</svg>