<?xml version="1.0" encoding="UTF-8"?>
<svg width="44px" height="53px" viewBox="0 0 44 53" version="1.1" xmlns="http://www.w3.org/2000/svg" xmlns:xlink="http://www.w3.org/1999/xlink">
    <!-- Generator: Sketch 49.2 (51160) - http://www.bohemiancoding.com/sketch -->
    <title>location-pin-selected</title>
    <desc>Created with Sketch.</desc>
    <defs>
        <path d="M7.52,2.74985211e-16 C3.36,2.74985211e-16 0,3.37272727 0,7.54848485 L0,32.2015152 C0,36.3772727 3.36,39.75 7.52,39.75 L13.04,39.75 C13.36,39.75 15.2,39.9106061 15.36,40.1515152 L21.76,52.8393939 L28.16,40.1515152 C28.32,39.9106061 30.16,39.75 30.48,39.75 L36.08,39.75 C40.24,39.75 43.6,36.3772727 43.6,32.2015152 L43.6,7.54848485 C43.6,3.37272727 40.24,0 36.08,0 C31.5534722,4.35829201e-17 28.1585764,7.62701102e-17 25.8953125,9.80615702e-17 C21.8119097,1.37377935e-16 15.6868056,1.96352482e-16 7.52,2.74985211e-16 Z" id="path-1"></path>
        <filter x="-18.3%" y="-13.2%" width="136.7%" height="130.3%" filterUnits="objectBoundingBox" id="filter-2">
            <feOffset dx="0" dy="1" in="SourceAlpha" result="shadowOffsetOuter1"></feOffset>
            <feGaussianBlur stdDeviation="2.5" in="shadowOffsetOuter1" result="shadowBlurOuter1"></feGaussianBlur>
            <feComposite in="shadowBlurOuter1" in2="SourceAlpha" operator="out" result="shadowBlurOuter1"></feComposite>
            <feColorMatrix values="0 0 0 0 0   0 0 0 0 0   0 0 0 0 0  0 0 0 0.271993886 0" type="matrix" in="shadowBlurOuter1"></feColorMatrix>
        </filter>
    </defs>
    <g id="location-pin-selected" stroke="none" stroke-width="1" fill="none" fill-rule="evenodd">
        <g id="location-pin-orange">
            <g id="Path">
                <use fill="black" fill-opacity="1" filter="url(#filter-2)" xlink:href="#path-1"></use>
                <use fill="#EC6607" fill-rule="evenodd" xlink:href="#path-1"></use>
                <path stroke="#FFFFFF" stroke-width="1.6" d="M21.7603516,51.0637612 L27.493587,39.7089163 C27.8561269,39.1630466 29.4327868,38.95 30.48,38.95 L36.08,38.95 C39.7974937,38.95 42.8,35.9361206 42.8,32.2015152 L42.8,7.54848485 C42.8,3.81387942 39.7974937,0.8 36.08,0.8 C29.8560243,0.8 29.8560243,0.8 25.8953125,0.8 C18.7493576,0.8 18.7493576,0.8 7.52,0.8 C3.80250629,0.8 0.8,3.81387942 0.8,7.54848485 L0.8,32.2015152 C0.8,35.9361206 3.80250629,38.95 7.52,38.95 L13.04,38.95 C14.0872132,38.95 15.6638731,39.1630466 16.0742749,39.7912217 L21.7603516,51.0637612 Z M28.6049411,40.8017139 C28.6026515,40.8025804 28.6005695,40.8034023 28.5987008,40.8041765 C28.6031444,40.8023356 28.6075985,40.8004198 28.6120829,40.798383 Z"></path>
            </g>
        </g>
        <g id="karate" transform="translate(5.000000, 6.000000)" fill="#FFFFFF">
            <path d="M13.5355094,16.6282845 L14.467421,28.3768984 L17.5948442,28.3768984 C17.3788442,21.796908 17.5073459,17.6932955 17.9803492,16.066061 C18.6898542,13.6252092 25.1091716,6.37351265 26.4076426,6.37351265 C27.2732899,6.37351265 27.2732899,5.28807656 26.4076426,3.11720439 C20.8313656,6.35463634 17.8937662,8.37469166 17.5948442,9.17737034 C17.2959222,9.98004902 15.9428106,12.4636871 13.5355094,16.6282845 Z" id="Path-6"></path>
            <path d="M16.869963,9.78112177 L15.2079531,7.90249356 C18.665966,6.78249931 20.3949725,6.06152117 20.3949725,5.73955912 C20.3949725,5.41759707 20.3949725,4.52160168 20.3949725,3.05157292 L11.9739944,5.18779013 L8.56815096,7.4503334 C8.06055105,8.32871091 7.8067511,8.92742866 7.8067511,9.24648666 C7.8067511,9.72507366 7.77133076,13.7753485 9.0006085,14.2129884 C9.82012699,14.5047483 10.4093676,13.9173564 10.7683302,12.4508125 L13.5970144,15.4634712 L16.869963,9.78112177 Z" id="Path-7"></path>
            <path d="M21.171474,3.12707815 C21.7446061,2.74606714 22.138623,2.55556164 22.3535247,2.55556164 C22.6758772,2.55556164 23.4545753,3.7250215 23.4545753,3.7250215 C23.4545753,3.7250215 22.3112399,4.34416438 21.5915757,4.34416438 C21.1117995,4.34416438 20.9717656,3.93846897 21.171474,3.12707815 Z" id="Path-8"></path>
            <path d="M27.589144,3.93266088 C28.1500117,3.93266088 28.5667269,3.93266088 28.8392896,3.93266088 C29.2481336,3.93266088 30.2335876,3.80284996 30.647374,3.14769689 C31.0611603,2.49254381 30.2082165,1.24728832 29.6871809,1.7061278 C29.3398239,2.01202078 28.4900105,2.3665772 27.1377407,2.76979704 L27.589144,3.93266088 Z" id="Path-9"></path>
            <path d="M17.237346,29.0950693 C17.237346,29.4964086 17.8794425,30.4622948 17.6654103,30.4622948 C17.4513781,30.4622948 13.5923466,30.4622948 13.5923466,30.4622948 C13.5923466,30.4622948 12.9185366,29.778682 13.5923466,29.778682 C14.2661567,29.778682 15.1018061,29.0950693 15.5009829,29.0950693 C15.9001598,29.0950693 17.237346,28.6937299 17.237346,29.0950693 Z" id="Path-10"></path>
            <path d="M9.58436542,5.94478467 C9.58436542,5.94478467 9.90214205,5.94511712 10.2563464,5.94549707 C10.5701761,5.94587701 10.8334755,5.98353901 10.8753716,5.71358846 C10.9738827,5.08017351 11.1657657,3.84544894 11.2202018,3.49518762 C11.3900883,2.40094751 10.7178195,1.39342974 9.87722646,1.2191777 C9.03581115,1.04487817 8.07894536,1.64865744 7.90642747,2.75714546 C7.8469754,3.14126933 7.86481925,3.51974153 7.9693743,3.86729574 C8.12672081,4.39104921 9.58436542,5.94478467 9.58436542,5.94478467 Z" id="Path"></path>
        </g>
    </g>
</svg>