<?xml version="1.0" encoding="UTF-8"?>
<svg width="44px" height="53px" viewBox="0 0 44 53" version="1.1" xmlns="http://www.w3.org/2000/svg" xmlns:xlink="http://www.w3.org/1999/xlink">
    <!-- Generator: Sketch 49.2 (51160) - http://www.bohemiancoding.com/sketch -->
    <title>location-pin-selected</title>
    <desc>Created with Sketch.</desc>
    <defs>
        <path d="M7.52,2.74985211e-16 C3.36,2.74985211e-16 0,3.37272727 0,7.54848485 L0,32.2015152 C0,36.3772727 3.36,39.75 7.52,39.75 L13.04,39.75 C13.36,39.75 15.2,39.9106061 15.36,40.1515152 L21.76,52.8393939 L28.16,40.1515152 C28.32,39.9106061 30.16,39.75 30.48,39.75 L36.08,39.75 C40.24,39.75 43.6,36.3772727 43.6,32.2015152 L43.6,7.54848485 C43.6,3.37272727 40.24,0 36.08,0 C31.5534722,4.35829201e-17 28.1585764,7.62701102e-17 25.8953125,9.80615702e-17 C21.8119097,1.37377935e-16 15.6868056,1.96352482e-16 7.52,2.74985211e-16 Z" id="path-1"></path>
        <filter x="-18.3%" y="-13.2%" width="136.7%" height="130.3%" filterUnits="objectBoundingBox" id="filter-2">
            <feOffset dx="0" dy="1" in="SourceAlpha" result="shadowOffsetOuter1"></feOffset>
            <feGaussianBlur stdDeviation="2.5" in="shadowOffsetOuter1" result="shadowBlurOuter1"></feGaussianBlur>
            <feComposite in="shadowBlurOuter1" in2="SourceAlpha" operator="out" result="shadowBlurOuter1"></feComposite>
            <feColorMatrix values="0 0 0 0 0   0 0 0 0 0   0 0 0 0 0  0 0 0 0.271993886 0" type="matrix" in="shadowBlurOuter1"></feColorMatrix>
        </filter>
    </defs>
    <g id="location-pin-selected" stroke="none" stroke-width="1" fill="none" fill-rule="evenodd">
        <g id="location-pin-orange">
            <g id="Path">
                <use fill="black" fill-opacity="1" filter="url(#filter-2)" xlink:href="#path-1"></use>
                <use fill="#EC6607" fill-rule="evenodd" xlink:href="#path-1"></use>
                <path stroke="#FFFFFF" stroke-width="1.6" d="M21.7603516,51.0637612 L27.493587,39.7089163 C27.8561269,39.1630466 29.4327868,38.95 30.48,38.95 L36.08,38.95 C39.7974937,38.95 42.8,35.9361206 42.8,32.2015152 L42.8,7.54848485 C42.8,3.81387942 39.7974937,0.8 36.08,0.8 C29.8560243,0.8 29.8560243,0.8 25.8953125,0.8 C18.7493576,0.8 18.7493576,0.8 7.52,0.8 C3.80250629,0.8 0.8,3.81387942 0.8,7.54848485 L0.8,32.2015152 C0.8,35.9361206 3.80250629,38.95 7.52,38.95 L13.04,38.95 C14.0872132,38.95 15.6638731,39.1630466 16.0742749,39.7912217 L21.7603516,51.0637612 Z M28.6049411,40.8017139 C28.6026515,40.8025804 28.6005695,40.8034023 28.5987008,40.8041765 C28.6031444,40.8023356 28.6075985,40.8004198 28.6120829,40.798383 Z"></path>
            </g>
        </g>
        <g id="judo-karate" transform="translate(6.000000, 6.000000)" fill="#FFFFFF">
            <path d="M24.66892,5.94701309 L10.6361657,5.94701309 C9.48766662,5.94701309 8.78159923,6.97474058 8.42851191,7.75237116 C8.07547821,8.53000174 7.65090465,9.53955723 7.18804063,10.5660842 C6.73815461,11.5637433 7.159725,11.9497755 7.78433133,12.4328341 C8.10926391,12.6841316 9.53646818,13.8767168 10.0368719,14.2954913 L10.7503399,12.8997399 L10.9244703,12.9594947 C10.9266691,12.9602587 11.1526578,13.0379671 11.9479624,13.3175867 C12.6649699,13.5696482 13.2237746,13.0610505 13.4778108,12.760585 L9.51737658,10.8741896 L9.69928305,10.4787713 L14.1197926,12.584322 L13.9909243,12.7933273 C13.6923231,13.2778594 12.8517565,14.097291 11.8078322,13.7301948 C11.3754289,13.5781612 11.1117932,13.4859915 10.9610983,13.4334946 L10.7142482,14.4418496 L16.9991382,14.4418496 L17.5611606,8.98615711 L24.4544076,8.85742514 L24.5616102,7.38516581 C25.0528971,7.36208246 25.5054645,7.33567031 25.8275548,7.30674791 C27.0431426,7.19760677 27.3502707,5.94701309 27.3502707,5.94701309 L24.66892,5.94701309 Z M13.9217977,5.46389986 C13.9217977,5.46389986 14.3362892,5.46428185 14.7982952,5.46471842 C15.2076384,5.46515498 15.5510726,5.50842944 15.6057197,5.19825034 C15.7342126,4.47044268 15.9844948,3.05171708 16.0554984,2.64925915 C16.2770897,1.39195328 15.4002168,0.234293273 14.3037906,0.0340738621 C13.2062918,-0.166200119 11.9582053,0.5275555 11.7331819,1.80123254 C11.6556357,2.24259928 11.6789103,2.67747213 11.8152865,3.07681954 C12.0205212,3.67862376 13.9217977,5.46389986 13.9217977,5.46389986 Z M23.6320745,24.6608977 L22.5975887,25.0796722 L22.881335,28.3755162 C21.7978331,28.4906601 21.3903669,27.8038895 21.2009525,27.1022211 C21.0115381,26.4005528 20.8486696,25.7877799 20.8486696,25.7877799 L20.3071332,26.0069898 L19.2746852,21.6087658 L15.6593477,19.4987403 L15.6057733,19.4987403 L12.7455729,19.4987403 L12.7277148,19.4987403 L8.98265093,21.6087658 L7.68667458,25.6833864 L7.22187995,25.5014481 C7.22187995,25.5014481 6.92113364,26.6451926 6.79285526,27.1022211 C6.66457687,27.5592496 6.21941012,28.549378 5.11247278,28.3755162 L5.42008349,24.6879647 L4.29024695,24.1917545 C4.29024695,24.1917545 5.27925613,20.9711633 5.44630762,20.4274222 C5.61325186,19.8836265 5.95105518,19.3606222 6.4349414,18.868232 C6.91882763,18.3758417 10.3054949,15.3695492 10.3054949,15.3695492 L12.0662123,15.3695492 L11.0920581,17.8764665 L12.3268448,17.8764665 L13.2133707,15.3875575 L13.7199416,17.0710049 L14.828166,17.0710049 L14.3173049,15.3695492 L17.4559423,15.3695492 C17.4559423,15.3695492 21.433323,18.7893229 21.8448649,19.1057231 C22.2564069,19.4222324 22.7740252,20.1535325 22.8977988,20.8704261 C23.0215724,21.587265 23.6320745,24.6608977 23.6320745,24.6608977 Z" id="Fill-1"></path>
        </g>
    </g>
</svg>