<?xml version="1.0" encoding="UTF-8"?>
<svg width="44px" height="53px" viewBox="0 0 44 53" version="1.1" xmlns="http://www.w3.org/2000/svg" xmlns:xlink="http://www.w3.org/1999/xlink">
    <!-- Generator: Sketch 49.2 (51160) - http://www.bohemiancoding.com/sketch -->
    <title>location-pin-selected</title>
    <desc>Created with Sketch.</desc>
    <defs>
        <path d="M7.52,2.74985211e-16 C3.36,2.74985211e-16 0,3.37272727 0,7.54848485 L0,32.2015152 C0,36.3772727 3.36,39.75 7.52,39.75 L13.04,39.75 C13.36,39.75 15.2,39.9106061 15.36,40.1515152 L21.76,52.8393939 L28.16,40.1515152 C28.32,39.9106061 30.16,39.75 30.48,39.75 L36.08,39.75 C40.24,39.75 43.6,36.3772727 43.6,32.2015152 L43.6,7.54848485 C43.6,3.37272727 40.24,0 36.08,0 C31.5534722,4.35829201e-17 28.1585764,7.62701102e-17 25.8953125,9.80615702e-17 C21.8119097,1.37377935e-16 15.6868056,1.96352482e-16 7.52,2.74985211e-16 Z" id="path-1"></path>
        <filter x="-18.3%" y="-13.2%" width="136.7%" height="130.3%" filterUnits="objectBoundingBox" id="filter-2">
            <feOffset dx="0" dy="1" in="SourceAlpha" result="shadowOffsetOuter1"></feOffset>
            <feGaussianBlur stdDeviation="2.5" in="shadowOffsetOuter1" result="shadowBlurOuter1"></feGaussianBlur>
            <feComposite in="shadowBlurOuter1" in2="SourceAlpha" operator="out" result="shadowBlurOuter1"></feComposite>
            <feColorMatrix values="0 0 0 0 0   0 0 0 0 0   0 0 0 0 0  0 0 0 0.271993886 0" type="matrix" in="shadowBlurOuter1"></feColorMatrix>
        </filter>
    </defs>
    <g id="location-pin-selected" stroke="none" stroke-width="1" fill="none" fill-rule="evenodd">
        <g id="location-pin-orange">
            <g id="Path">
                <use fill="black" fill-opacity="1" filter="url(#filter-2)" xlink:href="#path-1"></use>
                <use fill="#EC6607" fill-rule="evenodd" xlink:href="#path-1"></use>
                <path stroke="#FFFFFF" stroke-width="1.6" d="M21.7603516,51.0637612 L27.493587,39.7089163 C27.8561269,39.1630466 29.4327868,38.95 30.48,38.95 L36.08,38.95 C39.7974937,38.95 42.8,35.9361206 42.8,32.2015152 L42.8,7.54848485 C42.8,3.81387942 39.7974937,0.8 36.08,0.8 C29.8560243,0.8 29.8560243,0.8 25.8953125,0.8 C18.7493576,0.8 18.7493576,0.8 7.52,0.8 C3.80250629,0.8 0.8,3.81387942 0.8,7.54848485 L0.8,32.2015152 C0.8,35.9361206 3.80250629,38.95 7.52,38.95 L13.04,38.95 C14.0872132,38.95 15.6638731,39.1630466 16.0742749,39.7912217 L21.7603516,51.0637612 Z M28.6049411,40.8017139 C28.6026515,40.8025804 28.6005695,40.8034023 28.5987008,40.8041765 C28.6031444,40.8023356 28.6075985,40.8004198 28.6120829,40.798383 Z"></path>
            </g>
        </g>
        <g id="escrime" transform="translate(4.000000, 6.000000)" fill="#FFFFFF">
            <path d="M25.7316654,9.45128423 C25.7316654,9.23523966 25.5625327,9.06005237 25.3537894,9.06005237 C25.3536463,9.06005237 25.3535031,9.06010177 25.3533599,9.06010177 L24.4270913,9.05857024 L17.0922501,10.1446228 C17.0922501,10.1446228 17.0042,10.0924025 16.8604086,10.0070815 L17.1736667,9.92759013 C19.7604803,7.33223926 17.0418062,4.72784743 17.0418062,4.72784743 L14.8362093,4.97378154 C14.8362093,4.97378154 14.4232087,5.02012268 14.2305482,5.55349043 C14.0378878,6.08685818 13.4363787,7.72376755 13.4363787,7.72376755 L14.4485499,7.63054183 L15.2800871,9.06938976 C14.9129012,8.85151724 14.602411,8.66728898 14.4841518,8.5970362 C14.1621602,8.40589135 13.7794641,8.41399364 13.409033,8.57292695 C13.1686966,8.67608292 8.86225617,10.5238494 8.69865945,10.6025997 C8.38960098,10.7514546 8.21898888,10.9315329 8.14816696,11.2624422 C8.08712839,11.5476527 7.61848199,13.6931289 7.45579201,14.5565661 C7.29272024,15.4219301 7.67054851,15.896655 7.95918124,15.9758994 L9.74648026,11.9207038 L12.6214016,11.0018845 L12.5868974,11.233442 L11.6799569,11.6067401 L11.111043,15.5574952 C9.93341386,16.0174977 9.36010946,17.5674557 9.36010946,17.5674557 L6.09318589,20.6129282 C6.09318589,20.6129282 1.37073823,23.4537686 0.497251967,23.9826405 C-0.376234295,24.5114631 0.166813303,25.251538 0.166813303,25.251538 L8.69880262,21.924758 L12.4313183,19.2376635 L17.5442887,18.2795184 C17.5442887,18.2795184 19.0804181,23.1037398 19.4285622,24.1812454 C19.7767064,25.2588005 20.5845248,25.3589922 20.9522357,25.251538 C20.9522357,25.251538 19.7422021,16.6183516 19.7011598,16.3005838 C19.6475184,15.884798 19.4391569,15.7041763 19.1162585,15.7041763 C18.8776402,15.7041763 15.3418415,15.7121798 15.3418415,15.7121798 L14.719334,16.6112374 L14.4714096,16.6166225 L16.5258657,12.9502379 L24.9963869,9.84360299 L25.3537894,9.84360299 L25.3537894,9.8425161 C25.5625327,9.8425161 25.7316654,9.6672794 25.7316654,9.45128423 M37.0424606,9.45128423 C37.0424606,9.56041811 36.9569876,9.64890104 36.851566,9.64890104 L26.7092847,9.64890104 C26.6228094,10.0327717 26.2910345,10.3189702 25.8938782,10.3189702 C25.6913866,10.3189702 25.5056461,10.2446169 25.3607571,10.1208594 C25.4289542,10.144524 25.5017328,10.1579125 25.5776134,10.1579125 C25.9745789,10.1579125 26.2923708,9.80719209 26.2576279,9.38868911 C26.2319049,9.07941882 26.0058379,8.81945391 25.7117646,8.75853853 C25.5871582,8.73274954 25.4682785,8.74431012 25.3607571,8.7817091 C25.5271218,8.63952381 25.7474142,8.56260147 25.9851258,8.58858808 C26.3400467,8.62737038 26.6297771,8.90260118 26.7098574,9.25366743 L36.851566,9.25366743 C36.9569876,9.25366743 37.0424606,9.34215035 37.0424606,9.45128423" id="Fill-1"></path>
        </g>
    </g>
</svg>