<?xml version="1.0" encoding="UTF-8"?>
<svg width="44px" height="53px" viewBox="0 0 44 53" version="1.1" xmlns="http://www.w3.org/2000/svg" xmlns:xlink="http://www.w3.org/1999/xlink">
    <!-- Generator: Sketch 49.2 (51160) - http://www.bohemiancoding.com/sketch -->
    <title>location-pin-selected</title>
    <desc>Created with Sketch.</desc>
    <defs>
        <path d="M7.52,2.74985211e-16 C3.36,2.74985211e-16 0,3.37272727 0,7.54848485 L0,32.2015152 C0,36.3772727 3.36,39.75 7.52,39.75 L13.04,39.75 C13.36,39.75 15.2,39.9106061 15.36,40.1515152 L21.76,52.8393939 L28.16,40.1515152 C28.32,39.9106061 30.16,39.75 30.48,39.75 L36.08,39.75 C40.24,39.75 43.6,36.3772727 43.6,32.2015152 L43.6,7.54848485 C43.6,3.37272727 40.24,0 36.08,0 C31.5534722,4.35829201e-17 28.1585764,7.62701102e-17 25.8953125,9.80615702e-17 C21.8119097,1.37377935e-16 15.6868056,1.96352482e-16 7.52,2.74985211e-16 Z" id="path-1"></path>
        <filter x="-18.3%" y="-13.2%" width="136.7%" height="130.3%" filterUnits="objectBoundingBox" id="filter-2">
            <feOffset dx="0" dy="1" in="SourceAlpha" result="shadowOffsetOuter1"></feOffset>
            <feGaussianBlur stdDeviation="2.5" in="shadowOffsetOuter1" result="shadowBlurOuter1"></feGaussianBlur>
            <feComposite in="shadowBlurOuter1" in2="SourceAlpha" operator="out" result="shadowBlurOuter1"></feComposite>
            <feColorMatrix values="0 0 0 0 0   0 0 0 0 0   0 0 0 0 0  0 0 0 0.271993886 0" type="matrix" in="shadowBlurOuter1"></feColorMatrix>
        </filter>
        <polygon id="path-3" points="0 0.0020592 20.8445694 0.0020592 20.8445694 25.2251355 0 25.2251355"></polygon>
        <polygon id="path-5" points="0.14056614 0.154828391 3.6193014 0.154828391 3.6193014 4.72317285 0.14056614 4.72317285"></polygon>
    </defs>
    <g id="location-pin-selected" stroke="none" stroke-width="1" fill="none" fill-rule="evenodd">
        <g id="location-pin-orange">
            <g id="Path">
                <use fill="black" fill-opacity="1" filter="url(#filter-2)" xlink:href="#path-1"></use>
                <use fill="#EC6607" fill-rule="evenodd" xlink:href="#path-1"></use>
                <path stroke="#FFFFFF" stroke-width="1.6" d="M21.7603516,51.0637612 L27.493587,39.7089163 C27.8561269,39.1630466 29.4327868,38.95 30.48,38.95 L36.08,38.95 C39.7974937,38.95 42.8,35.9361206 42.8,32.2015152 L42.8,7.54848485 C42.8,3.81387942 39.7974937,0.8 36.08,0.8 C29.8560243,0.8 29.8560243,0.8 25.8953125,0.8 C18.7493576,0.8 18.7493576,0.8 7.52,0.8 C3.80250629,0.8 0.8,3.81387942 0.8,7.54848485 L0.8,32.2015152 C0.8,35.9361206 3.80250629,38.95 7.52,38.95 L13.04,38.95 C14.0872132,38.95 15.6638731,39.1630466 16.0742749,39.7912217 L21.7603516,51.0637612 Z M28.6049411,40.8017139 C28.6026515,40.8025804 28.6005695,40.8034023 28.5987008,40.8041765 C28.6031444,40.8023356 28.6075985,40.8004198 28.6120829,40.798383 Z"></path>
            </g>
        </g>
        <g id="beach-tennis" transform="translate(7.000000, 7.000000)">
            <g id="Page-1" transform="translate(1.960200, 0.000000)">
                <g id="Group-3" transform="translate(0.000000, 0.255392)">
                    <mask id="mask-4" fill="white">
                        <use xlink:href="#path-3"></use>
                    </mask>
                    <g id="Clip-2"></g>
                    <path d="M12.7141186,4.8245769 C12.518752,4.0078467 12.2469376,3.2397651 12.1174654,2.4371919 C11.9748658,1.5519933 12.5156632,0.5468463 13.3305916,0.1821105 C14.1825856,-0.1993563 15.2592898,0.0420849 15.8273716,0.7422129 C16.426084,1.4796639 16.4654662,2.5594569 15.8976418,3.3234201 C15.5516962,3.7890567 15.181555,4.2371901 14.805751,4.6791459 C14.6634088,4.8461985 14.6688142,4.9486437 14.8618642,5.0369319 C15.8399842,5.4848079 16.1321332,6.3218727 16.2237676,7.3159515 C16.315402,8.3105451 16.5197776,9.2917539 16.7097388,10.2729627 C16.7437156,10.4477373 16.8062638,10.5988311 16.904848,10.7452917 C17.6626336,11.8719315 18.4201618,12.9988287 19.1663644,14.1331905 C19.2894016,14.3203203 19.807033,14.3589303 19.861087,14.3941941 C20.5630168,14.8549401 21.23689,15.0765615 20.5717684,15.1494057 C20.3635318,15.1723143 20.1573544,15.1630479 20.0263378,15.3841545 C19.9612156,15.4940643 19.817329,15.4981827 19.6909456,15.5059047 C19.2101224,15.5349909 18.7300714,15.5723139 18.2492482,15.5985687 C17.6971252,15.6286845 17.3933932,15.1985691 17.6636632,14.7120831 C17.7836116,14.4961245 17.7063916,14.4163305 17.586958,14.2886601 C16.8371518,13.4850573 16.0942954,12.6747621 15.3380542,11.8773369 C15.137797,11.6657541 14.9969992,11.4328071 14.8966132,11.1625371 C14.575378,10.2961287 14.2451338,9.4330665 13.903564,8.5295925 C13.338571,8.9380863 12.7861906,9.3089997 12.2693314,9.7239285 C12.0353548,9.9118305 12.061867,10.2716757 11.913862,10.5231555 C11.585677,11.0804265 11.7269896,11.4634377 12.2000908,11.8992159 C13.1710036,12.7934235 14.0320066,13.8075795 15.0108988,14.6922633 C15.8075518,15.4122111 16.1514382,16.2701253 16.2968692,17.3020419 C16.6502794,19.8062865 17.0646934,22.3015221 17.4561988,24.8003613 C17.5192618,25.2044793 17.476276,25.2629091 17.06701,25.2073107 C16.3058782,25.1038359 15.8698426,24.6322791 15.6484786,23.9233995 C14.9725462,21.7571211 14.288377,19.5934167 13.6219684,17.4243069 C13.5321358,17.1316431 13.3818142,16.9427115 13.1205532,16.7864697 C11.7964876,15.9947073 10.4798866,15.1903323 9.16791876,14.3782353 C8.93136816,14.2317747 8.84102076,14.1988275 8.78104656,14.5344771 C8.59031316,15.6029445 8.36019756,16.6639473 8.14784256,17.7285537 C8.03767536,18.2801619 7.78079016,18.7442541 7.35196176,19.1136231 C5.78027736,20.4675471 4.21296876,21.8268765 2.63768076,23.1766821 C2.24076996,23.5167075 1.78800336,23.7669003 1.27809396,23.9071833 C1.04797836,23.9705037 0.81709056,23.9880069 0.58156956,23.9689593 C0.36792756,23.9517135 0.11799216,23.9154201 0.02249676,23.7344679 C-0.07557264,23.5488825 0.17153136,23.4289341 0.27989676,23.2981749 C1.83999816,21.4155513 3.40499016,19.5373035 4.97770416,17.6652333 C5.14038096,17.4716685 5.20781976,17.2855683 5.19340536,17.0320293 C5.11283916,15.6145275 5.06573496,14.1949665 4.97358576,12.7782369 C4.87500156,11.2629231 5.34295476,9.9872487 6.47139636,8.9599653 C6.56998056,8.8701327 6.65646696,8.7604803 6.72570756,8.6461947 C7.51952916,7.3378305 8.30408436,6.0238035 9.10382616,4.7190429 C9.23252616,4.5090045 9.18490716,4.4407935 8.97847236,4.3517331 C8.28786816,4.0536639 7.61270796,3.7187865 6.91772796,3.4312707 C6.40884816,3.2212323 5.84900316,3.2693661 5.31232416,3.2042439 C4.01374116,3.0464577 2.71155456,2.9195595 1.41245676,2.7661491 C0.84978036,2.6997399 0.44283096,2.3231637 0.33472296,1.8395091 C0.29302416,1.6526367 0.31670496,1.5664077 0.53523756,1.5669225 C2.61013896,1.5723279 4.68787176,1.5046317 6.75813996,1.6011567 C7.71592536,1.6454295 8.65981116,2.0027007 9.60833016,2.2248369 C10.1954596,2.3625459 10.7946868,2.4598431 11.3378008,2.7483885 C11.6559472,2.9172429 11.891983,3.1347459 11.99623,3.4999965 C12.0973882,3.8544363 12.248482,4.1952339 12.3789838,4.5411795 C12.4309786,4.6796607 12.4729348,4.8307545 12.7141186,4.8245769" id="Fill-1" fill="#FFFFFF" mask="url(#mask-4)"></path>
                </g>
                <path d="M20.7256936,14.5581322 L19.5408814,14.6093548 C19.2173296,14.6232544 18.9655924,14.8979002 18.979492,15.2217094 C18.9861844,15.378466 19.0536232,15.5231248 19.1691958,15.6291736 C19.2847684,15.7352224 19.4348326,15.7897912 19.5915892,15.7830988 L20.7764014,15.7318762 C20.895835,16.1148874 21.1138528,16.4585164 21.4129516,16.7331622 L21.413209,16.7331622 C21.4515616,16.768426 21.4912012,16.8021454 21.5313556,16.8345778 L21.3828358,13.3944268 C21.0595414,13.701505 20.8253074,14.103049 20.7256936,14.5581322" id="Fill-4" fill="#FFFFFF"></path>
                <g id="Group-8" transform="translate(21.621600, 12.610592)">
                    <mask id="mask-6" fill="white">
                        <use xlink:href="#path-5"></use>
                    </mask>
                    <g id="Clip-7"></g>
                    <path d="M3.61726794,2.34030654 C3.59075574,1.73078334 3.32872254,1.16784954 2.87904474,0.75549474 C2.42936694,0.34313994 1.84609854,0.13052754 1.23631794,0.15703974 C0.83734794,0.17402814 0.46283094,0.29423394 0.14056614,0.49243194 L0.31302414,4.48264674 C0.65639574,4.65510474 1.03966434,4.73798754 1.43400114,4.72099914 C2.69217234,4.66668774 3.67157934,3.59873514 3.61726794,2.34030654" id="Fill-6" fill="#FFFFFF" mask="url(#mask-6)"></path>
                </g>
                <path d="M22.0142122,11.6171312 C22.160158,11.458058 22.4082916,11.4472472 22.5673648,11.593193 C22.7266954,11.7391388 22.7372488,11.9872724 22.591303,12.146603 C22.4453572,12.3056762 22.1972236,12.3162296 22.0381504,12.1702838 C21.8790772,12.0245954 21.8682664,11.7762044 22.0142122,11.6171312 M22.8798484,12.4112102 C23.1719974,12.0928064 23.1503758,11.5965392 22.8322294,11.3046476 C22.5138256,11.012756 22.0175584,11.0341202 21.7256668,11.352524 C21.4337752,11.6706704 21.4551394,12.167195 21.7732858,12.4590866 C22.0916896,12.7509782 22.5879568,12.7293566 22.8798484,12.4112102" id="Fill-9" fill="#FFFFFF"></path>
            </g>
        </g>
    </g>
</svg>