<?xml version="1.0" encoding="UTF-8"?>
<svg width="44px" height="53px" viewBox="0 0 44 53" version="1.1" xmlns="http://www.w3.org/2000/svg" xmlns:xlink="http://www.w3.org/1999/xlink">
    <!-- Generator: Sketch 49.2 (51160) - http://www.bohemiancoding.com/sketch -->
    <title>location-pin-selected</title>
    <desc>Created with Sketch.</desc>
    <defs>
        <path d="M7.52,2.74985211e-16 C3.36,2.74985211e-16 0,3.37272727 0,7.54848485 L0,32.2015152 C0,36.3772727 3.36,39.75 7.52,39.75 L13.04,39.75 C13.36,39.75 15.2,39.9106061 15.36,40.1515152 L21.76,52.8393939 L28.16,40.1515152 C28.32,39.9106061 30.16,39.75 30.48,39.75 L36.08,39.75 C40.24,39.75 43.6,36.3772727 43.6,32.2015152 L43.6,7.54848485 C43.6,3.37272727 40.24,0 36.08,0 C31.5534722,4.35829201e-17 28.1585764,7.62701102e-17 25.8953125,9.80615702e-17 C21.8119097,1.37377935e-16 15.6868056,1.96352482e-16 7.52,2.74985211e-16 Z" id="path-1"></path>
        <filter x="-18.3%" y="-13.2%" width="136.7%" height="130.3%" filterUnits="objectBoundingBox" id="filter-2">
            <feOffset dx="0" dy="1" in="SourceAlpha" result="shadowOffsetOuter1"></feOffset>
            <feGaussianBlur stdDeviation="2.5" in="shadowOffsetOuter1" result="shadowBlurOuter1"></feGaussianBlur>
            <feComposite in="shadowBlurOuter1" in2="SourceAlpha" operator="out" result="shadowBlurOuter1"></feComposite>
            <feColorMatrix values="0 0 0 0 0   0 0 0 0 0   0 0 0 0 0  0 0 0 0.271993886 0" type="matrix" in="shadowBlurOuter1"></feColorMatrix>
        </filter>
    </defs>
    <g id="location-pin-selected" stroke="none" stroke-width="1" fill="none" fill-rule="evenodd">
        <g id="location-pin-orange">
            <g id="Path">
                <use fill="black" fill-opacity="1" filter="url(#filter-2)" xlink:href="#path-1"></use>
                <use fill="#EC6607" fill-rule="evenodd" xlink:href="#path-1"></use>
                <path stroke="#FFFFFF" stroke-width="1.6" d="M21.7603516,51.0637612 L27.493587,39.7089163 C27.8561269,39.1630466 29.4327868,38.95 30.48,38.95 L36.08,38.95 C39.7974937,38.95 42.8,35.9361206 42.8,32.2015152 L42.8,7.54848485 C42.8,3.81387942 39.7974937,0.8 36.08,0.8 C29.8560243,0.8 29.8560243,0.8 25.8953125,0.8 C18.7493576,0.8 18.7493576,0.8 7.52,0.8 C3.80250629,0.8 0.8,3.81387942 0.8,7.54848485 L0.8,32.2015152 C0.8,35.9361206 3.80250629,38.95 7.52,38.95 L13.04,38.95 C14.0872132,38.95 15.6638731,39.1630466 16.0742749,39.7912217 L21.7603516,51.0637612 Z M28.6049411,40.8017139 C28.6026515,40.8025804 28.6005695,40.8034023 28.5987008,40.8041765 C28.6031444,40.8023356 28.6075985,40.8004198 28.6120829,40.798383 Z"></path>
            </g>
        </g>
        <g id="squash" transform="translate(9.000000, 7.000000)" fill="#FFFFFF">
            <path d="M27.2020927,15.2177961 L26.9529967,15.2389884 L26.9854429,15.6899933 L27.1611338,15.6750083 C27.1939811,15.5310262 27.2080649,15.3770541 27.2020927,15.2177961 Z M27.1301584,15.7912512 L26.9935545,15.8028901 L27.0125408,16.0666552 C27.0600959,15.9817402 27.0997177,15.8895024 27.1301584,15.7912512 Z M26.9448851,15.1260917 L27.194204,15.1048023 C27.1778472,14.9376881 27.1411669,14.7896809 27.089556,14.6600048 L26.9123944,14.6750868 L26.9448851,15.1260917 Z M26.9184557,16.2113162 L26.8897088,15.8117647 L26.475351,15.8470691 L26.5077972,16.2980256 L26.8731737,16.2668917 C26.8886837,16.2489 26.9039263,16.2304718 26.9184557,16.2113162 Z M26.7470435,16.3912817 L26.5159088,16.4109708 L26.5246889,16.5329846 C26.5469734,16.5213942 26.5691687,16.5103373 26.5915869,16.4980681 C26.6466741,16.4678556 26.6983742,16.4317752 26.7470435,16.3912817 Z M26.4671949,15.7340754 L26.8815972,15.6988195 L26.8491064,15.247863 L26.4347487,15.2831675 L26.4671949,15.7340754 Z M26.4266817,15.1702223 L26.8409949,15.1349663 L26.8085487,14.6839614 L26.3941464,14.7192174 L26.4266817,15.1702223 Z M26.4238293,16.5829831 L26.4120185,16.4198454 L25.9976608,16.4551013 L26.0180734,16.7392344 C26.1515574,16.6997594 26.2867797,16.6479181 26.4238293,16.5829831 Z M25.9895492,16.3421561 L26.403907,16.3069002 L26.3714607,15.8558953 L25.9570584,15.8911997 L25.9895492,16.3421561 Z M25.9489469,15.7782545 L26.3633492,15.7429985 L26.330903,15.2920421 L25.9165007,15.3272981 L25.9489469,15.7782545 Z M25.9156093,16.7671192 L25.8938151,16.4639275 L25.4794128,16.4992804 L25.5036137,16.8357398 C25.6394154,16.8244404 25.7767324,16.8020842 25.9156093,16.7671192 Z M25.4712566,16.3863352 L25.8857035,16.3510308 L25.8531682,15.9000743 L25.4388104,15.9353303 L25.4712566,16.3863352 Z M25.4306989,15.8223851 L25.8451012,15.7871291 L25.812655,15.3361242 L25.3982081,15.3714772 L25.4306989,15.8223851 Z M25.3996343,16.8423836 L25.3755671,16.5081065 L24.9611648,16.543411 L24.9816665,16.8284655 C25.1198303,16.843402 25.2590638,16.848397 25.3996343,16.8423836 Z M24.9530086,16.4304658 L25.3674109,16.3952098 L25.3349647,15.9442049 L24.920607,15.9795094 L24.9530086,16.4304658 Z M24.9124509,15.8665642 L25.3268086,15.8312597 L25.2943624,15.3803518 L24.8800047,15.4156078 L24.9124509,15.8665642 Z M24.8761717,16.8151294 L24.8572745,16.5522856 L24.4429168,16.5875901 L24.4529448,16.7274016 C24.5933816,16.7647914 24.7343087,16.7948584 24.8761717,16.8151294 Z M24.4348052,16.4745964 L24.8491629,16.4393404 L24.8167167,15.9883355 L24.4023144,16.0236885 L24.4348052,16.4745964 Z M24.3942029,15.9107433 L24.8085606,15.8754388 L24.7761144,15.4244824 L24.3617567,15.4597384 L24.3942029,15.9107433 Z M24.3536005,15.3467932 L24.7680474,15.3115372 L24.7355566,14.8605808 L24.3211543,14.8958367 L24.3536005,15.3467932 Z M24.3463804,16.7089162 L24.3390711,16.5964162 L24.0956799,16.6194987 C24.1791576,16.6518033 24.2626798,16.6816271 24.3463804,16.7089162 Z M23.9165126,16.518824 L24.3309149,16.483471 L24.2984687,16.0325146 L23.884111,16.0678191 L23.9165126,16.518824 Z M23.8759103,15.9548739 L24.2903572,15.9196179 L24.2578664,15.468613 L23.8435087,15.5039174 L23.8759103,15.9548739 Z M23.8353971,15.3910207 L24.2497548,15.3556678 L24.2173086,14.9046629 L23.8028617,14.9400158 L23.8353971,15.3910207 Z M23.811419,16.5107738 L23.7802207,16.0766452 L23.365863,16.1119497 L23.3814175,16.329014 C23.5251971,16.3926881 23.6683972,16.453986 23.811419,16.5107738 Z M23.3576623,15.9990044 L23.7720646,15.9637485 L23.7396184,15.5127921 L23.3252606,15.548048 L23.3576623,15.9990044 Z M23.3171491,15.4351028 L23.7315068,15.3998468 L23.699016,14.9488904 L23.2846583,14.9841464 L23.3171491,15.4351028 Z M23.2765468,14.8712012 L23.6909491,14.8359452 L23.6584583,14.3849888 L23.6289536,14.3874621 C23.5051856,14.4655393 23.3822644,14.5478355 23.2593431,14.6324111 L23.2765468,14.8712012 Z M23.2734715,16.2808098 L23.2619727,16.1208728 L22.9745028,16.1453143 C22.9869821,16.1509883 22.999506,16.1566622 23.0119408,16.1623361 C23.0994742,16.2021991 23.186562,16.2417712 23.2734715,16.2808098 Z M22.8394588,16.0431835 L23.2538166,16.0078791 L23.2214149,15.5569226 L22.8070126,15.5922271 L22.8394588,16.0431835 Z M23.2132588,15.4439774 L23.180768,14.993021 L22.7664549,15.0283255 L22.7988565,15.4792819 L23.2132588,15.4439774 Z M22.7344989,16.0367337 L22.7031669,15.6010532 L22.2887646,15.6363577 L22.3041409,15.8509003 C22.4487227,15.9104038 22.5920565,15.9728656 22.7344989,16.0367337 Z M22.2806085,15.5234125 L22.6950108,15.4881565 L22.6633223,15.0477236 C22.5325569,15.1375366 22.4000979,15.2256523 22.2652768,15.3105188 L22.2806085,15.5234125 Z M22.1965069,15.8070121 L22.1848744,15.6452323 L21.8379495,15.6748144 C21.9583748,15.7156473 22.0779088,15.7598749 22.1965069,15.8070121 Z M21.8345177,15.5614327 L22.1767628,15.5322871 L22.165264,15.3726896 C22.057006,15.4386915 21.946876,15.5018806 21.8345177,15.5614327 Z M22.8671807,14.9060692 L23.1727011,14.8800758 L23.1598652,14.7012742 C23.0970675,14.7449683 23.0341361,14.7890504 22.9710265,14.8333265 C22.9365301,14.8575741 22.9018554,14.8818216 22.8671807,14.9060692 Z M23.7623486,14.3761142 L23.7947948,14.8270706 L24.2091971,14.7917661 L24.1767063,14.3408097 L23.7623486,14.3761142 Z M23.8476981,14.2551673 L24.1685947,14.2278645 L24.1587004,14.0900413 C24.0536514,14.1407187 23.9501622,14.1960032 23.8476981,14.2551673 Z M24.2597383,14.043001 L24.272485,14.2190384 L24.6868427,14.1836854 L24.6658508,13.8917446 C24.5271075,13.9326745 24.3920636,13.9837884 24.2597383,14.043001 Z M24.6949989,14.2966306 L24.280552,14.3319351 L24.3130873,14.7828915 L24.7274451,14.7476356 L24.6949989,14.2966306 Z M24.7683148,13.8636174 L24.790733,14.1749078 L25.2050462,14.1395549 L25.1801321,13.7925235 C25.0385811,13.8051323 24.9017098,13.8296708 24.7683148,13.8636174 Z M25.2132469,14.2525001 L24.7988446,14.2878045 L24.8313353,14.7387609 L25.2456931,14.703505 L25.2132469,14.2525001 Z M25.2537601,14.8164502 L24.8394023,14.8517062 L24.8718931,15.3026626 L25.2862954,15.2673581 L25.2537601,14.8164502 Z M25.2841561,13.7856372 L25.3089365,14.1306802 L25.7233388,14.0954243 L25.7021239,13.8003313 C25.5582107,13.7839884 25.4190218,13.7792359 25.2841561,13.7856372 Z M25.7314503,14.2083695 L25.3170926,14.2436254 L25.3495388,14.6945819 L25.7639411,14.6593259 L25.7314503,14.2083695 Z M25.7720526,14.7722226 L25.3576503,14.8075756 L25.3901411,15.258532 L25.8044989,15.2232275 L25.7720526,14.7722226 Z M25.8076187,13.8143464 L25.827229,14.0865497 L26.2415868,14.0512452 L26.2315587,13.9114337 C26.0854171,13.8673516 25.9442671,13.8352478 25.8076187,13.8143464 Z M26.2497429,14.1641419 L25.8353406,14.1994949 L25.8678314,14.6504513 L26.2821891,14.6151468 L26.2497429,14.1641419 Z M26.2903006,14.728092 L25.8759429,14.7633965 L25.9083891,15.2143529 L26.3227914,15.1790969 L26.2903006,14.728092 Z M26.3384797,13.9455742 L26.3454325,14.0580742 L26.538639,14.0389673 C26.5007999,14.0161404 26.4629163,13.9961316 26.4255229,13.9802373 C26.3961965,13.9678375 26.367405,13.9568468 26.3384797,13.9455742 Z M26.3536332,14.1553158 L26.3860348,14.6063207 L26.8003925,14.5710162 L26.7731163,14.1917356 L26.7679909,14.1200598 L26.6957892,14.1262187 L26.3536332,14.1553158 Z M26.8862324,14.3115672 L26.9042828,14.5621416 L27.0406639,14.5505513 C26.9956046,14.4607382 26.9434144,14.3811577 26.8862324,14.3115672 Z M26.8322593,17.0177906 C26.2910137,17.3145324 25.7792282,17.4299509 25.2883902,17.4299509 C24.410426,17.4299509 23.5993153,17.0606118 22.8055419,16.6991774 C21.9512438,16.3101978 21.14459,15.9428471 20.279016,16.0311082 C20.0695418,16.0525431 19.8640343,16.0716017 19.6687776,16.088478 C19.6283536,16.2638365 19.488095,16.4000593 19.313964,16.4136865 L17.625424,16.5453023 C17.4087742,16.5621786 17.2187766,16.383086 17.2032221,16.1473026 L17.1809376,15.8091944 C17.1693942,15.6329145 17.2584876,15.4729775 17.3946904,15.3963552 L14.7079836,12.2507657 L13.5860934,9.03097861 L11.9208629,10.3386019 L11.3750713,11.9689119 C11.3750713,11.9689119 14.3979173,15.3091609 14.8361194,15.7859168 C15.6137588,16.6321086 15.6514196,16.6848229 15.8457403,17.9861903 C15.9891187,18.9461033 17.0893038,26.6670649 17.0893038,26.6670649 C16.780218,26.7964014 15.6874313,26.710371 15.3164392,25.4346576 C14.9455362,24.1588956 13.1806495,18.0248894 13.1806495,18.0248894 L8.66866506,15.0282285 C8.66866506,15.0282285 8.27391767,17.1979501 8.07121799,18.3372952 C7.82466243,19.7232866 7.62891551,19.8502469 6.64995804,20.7817418 C5.84419559,21.5484501 3.12949951,24.100459 2.61036012,24.5633452 C2.09122074,25.0262799 0.802241496,25.8587962 0,25.1053755 L5.12543178,18.4147904 C5.12543178,18.4147904 4.97822047,14.8893384 4.89790718,13.2311922 C4.82169424,11.6583489 5.43113036,10.3390868 6.48630077,9.36879583 C6.84793341,8.75523517 8.09439385,6.48789286 9.05280503,4.7371694 L6.63083795,3.54806828 C6.63083795,3.54806828 2.24239869,3.04294278 1.42718762,2.93557452 C0.611976555,2.82825475 0.2861328,1.99350771 0.378836262,1.65971558 L6.64821985,1.65971558 C6.64821985,1.65971558 9.33626369,2.3336527 10.1547283,2.54620695 C11.1356914,2.80100047 11.4342589,3.1688362 11.5766122,3.29540854 L12.1815914,5.04870225 L12.4526599,5.17343178 C12.4526599,5.17343178 12.2044107,4.19858224 12.0662024,3.63914218 C11.8941661,2.94309127 11.7717352,2.39058601 11.8429564,1.93109445 C11.9066454,1.51932212 12.0774783,1.13106993 12.3332151,0.786366396 C13.0708761,-0.208608627 14.3853488,-0.206765811 15.1871001,0.496559371 C15.9881382,1.1994481 16.1936457,2.62593298 15.4658344,3.60776581 C15.282032,3.85586701 14.7324965,4.59716389 14.3015146,5.1782813 L15.0197436,5.71512262 C15.6705843,6.20157749 15.6538263,6.46665198 15.8739971,8.10957073 C16.0700114,9.57208751 16.3568127,11.1405177 16.3568127,11.1405177 L18.8779012,15.2460687 L19.2352552,15.218184 C19.4084057,15.2046539 19.5642634,15.3165322 19.6279079,15.4822886 C19.8232982,15.46871 20.0290732,15.4557618 20.2391267,15.4444139 C21.1856826,15.3934455 21.9121568,14.8838099 22.6811944,14.3442529 C23.7641759,13.5844309 24.8839713,12.7988579 26.5956427,13.4236694 C27.2441212,13.6604228 27.680184,14.3116641 27.7336222,15.123279 C27.7876844,15.9442534 27.4338513,16.6879266 26.8322593,17.0177906 Z M25.2014807,20.5728247 C25.2014807,20.9477892 24.9221669,21.2517568 24.5775596,21.2517568 C24.2329523,21.2517568 23.953594,20.9477892 23.953594,20.5728247 C23.953594,20.1979086 24.2329523,19.8938925 24.5775596,19.8938925 C24.9221669,19.8938925 25.2014807,20.1979086 25.2014807,20.5728247 Z" id="Fill-1"></path>
        </g>
    </g>
</svg>