<?xml version="1.0" encoding="UTF-8"?>
<svg width="44px" height="53px" viewBox="0 0 44 53" version="1.1" xmlns="http://www.w3.org/2000/svg" xmlns:xlink="http://www.w3.org/1999/xlink">
    <!-- Generator: Sketch 49.2 (51160) - http://www.bohemiancoding.com/sketch -->
    <title>location-pin-selected</title>
    <desc>Created with Sketch.</desc>
    <defs>
        <path d="M7.52,2.74985211e-16 C3.36,2.74985211e-16 0,3.37272727 0,7.54848485 L0,32.2015152 C0,36.3772727 3.36,39.75 7.52,39.75 L13.04,39.75 C13.36,39.75 15.2,39.9106061 15.36,40.1515152 L21.76,52.8393939 L28.16,40.1515152 C28.32,39.9106061 30.16,39.75 30.48,39.75 L36.08,39.75 C40.24,39.75 43.6,36.3772727 43.6,32.2015152 L43.6,7.54848485 C43.6,3.37272727 40.24,0 36.08,0 C31.5534722,4.35829201e-17 28.1585764,7.62701102e-17 25.8953125,9.80615702e-17 C21.8119097,1.37377935e-16 15.6868056,1.96352482e-16 7.52,2.74985211e-16 Z" id="path-1"></path>
        <filter x="-18.3%" y="-13.2%" width="136.7%" height="130.3%" filterUnits="objectBoundingBox" id="filter-2">
            <feOffset dx="0" dy="1" in="SourceAlpha" result="shadowOffsetOuter1"></feOffset>
            <feGaussianBlur stdDeviation="2.5" in="shadowOffsetOuter1" result="shadowBlurOuter1"></feGaussianBlur>
            <feComposite in="shadowBlurOuter1" in2="SourceAlpha" operator="out" result="shadowBlurOuter1"></feComposite>
            <feColorMatrix values="0 0 0 0 0   0 0 0 0 0   0 0 0 0 0  0 0 0 0.271993886 0" type="matrix" in="shadowBlurOuter1"></feColorMatrix>
        </filter>
        <ellipse id="path-3" cx="12.2734377" cy="2.58475929" rx="1.60088317" ry="1.55085557"></ellipse>
    </defs>
    <g id="location-pin-selected" stroke="none" stroke-width="1" fill="none" fill-rule="evenodd">
        <g id="location-pin-orange">
            <g id="Path">
                <use fill="black" fill-opacity="1" filter="url(#filter-2)" xlink:href="#path-1"></use>
                <use fill="#EC6607" fill-rule="evenodd" xlink:href="#path-1"></use>
                <path stroke="#FFFFFF" stroke-width="1.6" d="M21.7603516,51.0637612 L27.493587,39.7089163 C27.8561269,39.1630466 29.4327868,38.95 30.48,38.95 L36.08,38.95 C39.7974937,38.95 42.8,35.9361206 42.8,32.2015152 L42.8,7.54848485 C42.8,3.81387942 39.7974937,0.8 36.08,0.8 C29.8560243,0.8 29.8560243,0.8 25.8953125,0.8 C18.7493576,0.8 18.7493576,0.8 7.52,0.8 C3.80250629,0.8 0.8,3.81387942 0.8,7.54848485 L0.8,32.2015152 C0.8,35.9361206 3.80250629,38.95 7.52,38.95 L13.04,38.95 C14.0872132,38.95 15.6638731,39.1630466 16.0742749,39.7912217 L21.7603516,51.0637612 Z M28.6049411,40.8017139 C28.6026515,40.8025804 28.6005695,40.8034023 28.5987008,40.8041765 C28.6031444,40.8023356 28.6075985,40.8004198 28.6120829,40.798383 Z"></path>
            </g>
        </g>
        <g id="speedball" transform="translate(6.000000, 7.000000)">
            <path d="M27.6365191,12.9243515 C27.1771724,12.3899374 24.3182939,9.14601694 24.1418125,8.93929328 C23.9291725,8.69010345 23.8567272,8.63943266 23.629786,8.54254383 C23.4490356,8.46540383 21.9346428,7.76376378 21.7380544,7.6731418 C20.7674069,7.22576279 20.4988001,7.13505835 19.9185546,7.11667009 C19.4221528,7.10096173 15.0252738,6.97504748 15.0252738,6.97504748 L11.653643,6.41630815 L12.6647182,3.5499655 C12.2597587,3.5499655 11.7517878,3.4214538 11.4914202,3.20957649 C11.4904383,3.2087519 10.816189,4.40959618 9.82492216,6.27048015 C9.44130786,6.99063215 9.48066824,7.58598309 10.2038405,7.83929584 C11.5230963,8.30135249 13.9317211,9.10676665 13.9317211,9.10676665 L14.7621312,13.9303874 L12.306718,18.0704677 C12.306718,18.0704677 5.99723184,23.9738835 4.85057258,25.039743 C3.70391333,26.1055614 4.60672606,26.871849 4.60672606,26.871849 L16.3661735,18.5962648 L16.817836,18.5962648 L14.9975678,19.893833 L14.9323798,20.9177212 L13.0729647,21.3317457 L10.8379183,22.9250516 C10.8379183,22.9250516 15.6691276,22.9255876 15.9965616,22.9255876 C16.5606274,22.9255876 17.0171993,22.664936 17.1897105,22.3061175 C17.334345,22.0052674 19.5322935,17.4448132 19.8222028,16.8617486 C20.2425734,16.016342 20.1846854,15.2803167 20.0459849,14.2901129 C19.9655138,13.7158301 19.9176581,13.4425212 19.9176581,13.4425212 L20.6091543,9.65029237 L23.2412623,10.5225392 L27.6643531,14.4533809 C27.9369729,14.299307 28.1312561,13.5002834 27.6365191,12.9243515 Z M15.1597052,4.50932983 C15.0545592,4.18283509 15.0467042,3.83048958 15.1251689,3.47587646 C15.3516405,2.45211198 16.4342644,1.92495429 17.363417,2.11667048 C18.2919292,2.30826299 19.0069477,3.26808085 18.7835498,4.27836335 C18.7118729,4.60197204 18.4596591,5.74233296 18.3303077,6.3271292 C18.275152,6.57644271 17.9838766,6.53224491 17.6351829,6.52074194 C17.241451,6.50779594 16.8885737,6.49641666 16.8885737,6.49641666 C16.8885737,6.49641666 15.3181713,5.00148386 15.1597052,4.50932983 Z" id="Fill-1" fill="#FFFFFF"></path>
            <g id="Oval-2">
                <use fill="#D8D8D8" xlink:href="#path-3"></use>
                <use fill="#FFFFFF" xlink:href="#path-3"></use>
            </g>
        </g>
    </g>
</svg>