<?xml version="1.0" encoding="UTF-8"?>
<svg width="44px" height="53px" viewBox="0 0 44 53" version="1.1" xmlns="http://www.w3.org/2000/svg" xmlns:xlink="http://www.w3.org/1999/xlink">
    <!-- Generator: Sketch 49.2 (51160) - http://www.bohemiancoding.com/sketch -->
    <title>location-pin-selected</title>
    <desc>Created with Sketch.</desc>
    <defs>
        <path d="M7.52,2.74985211e-16 C3.36,2.74985211e-16 0,3.37272727 0,7.54848485 L0,32.2015152 C0,36.3772727 3.36,39.75 7.52,39.75 L13.04,39.75 C13.36,39.75 15.2,39.9106061 15.36,40.1515152 L21.76,52.8393939 L28.16,40.1515152 C28.32,39.9106061 30.16,39.75 30.48,39.75 L36.08,39.75 C40.24,39.75 43.6,36.3772727 43.6,32.2015152 L43.6,7.54848485 C43.6,3.37272727 40.24,0 36.08,0 C31.5534722,4.35829201e-17 28.1585764,7.62701102e-17 25.8953125,9.80615702e-17 C21.8119097,1.37377935e-16 15.6868056,1.96352482e-16 7.52,2.74985211e-16 Z" id="path-1"></path>
        <filter x="-18.3%" y="-13.2%" width="136.7%" height="130.3%" filterUnits="objectBoundingBox" id="filter-2">
            <feOffset dx="0" dy="1" in="SourceAlpha" result="shadowOffsetOuter1"></feOffset>
            <feGaussianBlur stdDeviation="2.5" in="shadowOffsetOuter1" result="shadowBlurOuter1"></feGaussianBlur>
            <feComposite in="shadowBlurOuter1" in2="SourceAlpha" operator="out" result="shadowBlurOuter1"></feComposite>
            <feColorMatrix values="0 0 0 0 0   0 0 0 0 0   0 0 0 0 0  0 0 0 0.271993886 0" type="matrix" in="shadowBlurOuter1"></feColorMatrix>
        </filter>
    </defs>
    <g id="location-pin-selected" stroke="none" stroke-width="1" fill="none" fill-rule="evenodd">
        <g id="location-pin-orange">
            <g id="Path">
                <use fill="black" fill-opacity="1" filter="url(#filter-2)" xlink:href="#path-1"></use>
                <use fill="#EC6607" fill-rule="evenodd" xlink:href="#path-1"></use>
                <path stroke="#FFFFFF" stroke-width="1.6" d="M21.7603516,51.0637612 L27.493587,39.7089163 C27.8561269,39.1630466 29.4327868,38.95 30.48,38.95 L36.08,38.95 C39.7974937,38.95 42.8,35.9361206 42.8,32.2015152 L42.8,7.54848485 C42.8,3.81387942 39.7974937,0.8 36.08,0.8 C29.8560243,0.8 29.8560243,0.8 25.8953125,0.8 C18.7493576,0.8 18.7493576,0.8 7.52,0.8 C3.80250629,0.8 0.8,3.81387942 0.8,7.54848485 L0.8,32.2015152 C0.8,35.9361206 3.80250629,38.95 7.52,38.95 L13.04,38.95 C14.0872132,38.95 15.6638731,39.1630466 16.0742749,39.7912217 L21.7603516,51.0637612 Z M28.6049411,40.8017139 C28.6026515,40.8025804 28.6005695,40.8034023 28.5987008,40.8041765 C28.6031444,40.8023356 28.6075985,40.8004198 28.6120829,40.798383 Z"></path>
            </g>
        </g>
        <g id="badminton" transform="translate(4.000000, 5.000000)" fill="#FFFFFF">
            <path d="M14.2588664,1.06071516 L14.3895182,1.02095856 L14.4069881,1.01564227 L14.5482356,1.53284782 L14.5308095,1.53816411 L14.400114,1.5779207 C14.3765581,1.58508613 14.3529147,1.58850705 14.3295778,1.58850705 C14.2189353,1.58850705 14.116787,1.51162889 14.0846495,1.39388466 C14.0456378,1.25131566 14.12388,1.10181238 14.2588664,1.06071516 Z M15.3191861,0.179598099 C15.3223824,0.176500783 15.3264981,0.174836554 15.3307014,0.174836554 C15.3322776,0.174836554 15.33381,0.175067697 15.3353863,0.175529983 C15.3410344,0.177240441 15.3454128,0.1818633 15.3470766,0.187826789 C15.3890218,0.341259503 15.3208499,0.524232289 15.2993082,0.576193232 L15.4863101,0.712521365 C15.4867917,0.712844965 15.4870544,0.713261022 15.4874047,0.713584622 C15.4880614,0.714093137 15.4884993,0.714694109 15.4890685,0.715295081 C15.4900755,0.716404567 15.4908636,0.71760651 15.4915204,0.71894714 C15.4917393,0.719363197 15.4920458,0.71959434 15.4922647,0.720056626 C15.4923085,0.720287769 15.4923085,0.720518912 15.4923961,0.720750055 C15.4930528,0.722737885 15.4935782,0.724725714 15.493622,0.72685223 C15.493622,0.726944687 15.493622,0.727037144 15.4937096,0.727083373 C15.4937096,0.729024974 15.4934031,0.731105261 15.4928339,0.733000633 L15.4108263,0.990124089 L15.6099126,1.16163218 C15.6131088,1.1644059 15.6150353,1.16819664 15.6157359,1.17221853 C15.6157797,1.1724959 15.615911,1.17263459 15.6159548,1.17291196 C15.6159986,1.17332802 15.6158235,1.17383653 15.6158672,1.17429882 C15.6159986,1.17577813 15.6159548,1.17721122 15.6156045,1.17873676 C15.6154732,1.17952265 15.6153856,1.18030854 15.6151229,1.18109442 C15.6149478,1.18160294 15.6149478,1.18211145 15.6147726,1.18257374 L15.5252341,1.40313037 C15.5696312,1.43493565 15.719548,1.55161663 15.7614932,1.70500311 C15.763157,1.71105906 15.7616245,1.71748483 15.7577278,1.72210769 C15.7544877,1.72580598 15.7499342,1.7279325 15.7451617,1.7279325 C15.7441547,1.7279325 15.7431039,1.72784004 15.742053,1.72765513 L14.7193001,1.52794759 L14.554234,0.923647367 L15.3191861,0.179598099 Z M14.3295778,1.76338983 C14.3688959,1.76338983 14.4080827,1.7575188 14.4460435,1.74596165 L14.5766515,1.70620506 L14.6332643,1.68896179 L15.7119734,1.89957928 C15.7220437,1.90161334 15.7336903,1.90281528 15.7451617,1.90281528 C15.796214,1.90281528 15.845296,1.88002458 15.8798416,1.84022176 C15.8804546,1.83952833 15.8810676,1.83888113 15.8816368,1.83814147 C15.9236695,1.78816836 15.9381621,1.72002741 15.9204733,1.65595457 C15.8851395,1.52669941 15.8017746,1.42203787 15.7271227,1.34964389 L15.76701,1.25145435 C15.7675792,1.25011372 15.7681046,1.24877309 15.7685862,1.24738623 C15.7711695,1.24059063 15.7734025,1.23333274 15.7751976,1.22602862 C15.7765111,1.22075856 15.7776495,1.21544227 15.7786128,1.20994107 C15.7806268,1.19824523 15.7815901,1.18636448 15.7815025,1.17443751 C15.7815463,1.1689363 15.7813712,1.16348133 15.7809333,1.15802635 L15.7809771,1.15802635 C15.7805831,1.15326481 15.7799701,1.14850326 15.7792695,1.14378795 C15.7787879,1.14087554 15.7782187,1.13800937 15.7776495,1.1351432 C15.7771241,1.13273931 15.7765549,1.13033542 15.7759857,1.12793154 C15.7663532,1.08808249 15.7449428,1.05239401 15.7148631,1.02636731 L15.604352,0.931182628 L15.6497999,0.788844778 C15.6561048,0.76901271 15.6593011,0.74825607 15.6593011,0.727083373 C15.6593011,0.720750055 15.6589946,0.714370509 15.6583378,0.708129648 C15.6570681,0.695046955 15.6545286,0.682149177 15.6507632,0.669482541 C15.6498875,0.666338996 15.6488805,0.66324168 15.6478734,0.660190593 C15.6464286,0.656168705 15.6448961,0.652100589 15.6431885,0.648171158 C15.6404301,0.641560468 15.6371025,0.634996008 15.6334685,0.62866269 C15.627076,0.617382912 15.6189321,0.60591822 15.6097813,0.595609243 C15.6059283,0.591171298 15.6018125,0.586964495 15.5975217,0.582942608 C15.5923552,0.577996148 15.5868384,0.573373288 15.5813216,0.569305171 L15.4971685,0.507913595 C15.5238768,0.40459268 15.5416094,0.268957977 15.5061881,0.139332991 C15.488762,0.07512147 15.4417816,0.0256568713 15.3806152,0.00730411832 C15.3639773,0.00240388704 15.3473831,0 15.3307014,0 C15.284728,0 15.2408126,0.0180753814 15.2069675,0.0509439138 L14.4002015,0.835674347 L14.3436325,0.852963842 L14.2130245,0.892720436 C14.1051842,0.925496511 14.0158646,1.0008029 13.9615286,1.10467855 C13.9071487,1.20860044 13.8943637,1.32851742 13.9254942,1.44237845 C13.9771157,1.63136096 14.1432764,1.76338983 14.3295778,1.76338983 Z M13.2505622,9.01966155 C12.7985789,8.18990446 13.1666281,7.19215266 13.8555272,6.77383008 C14.5440323,6.35587734 15.5444992,6.58623444 15.9905278,7.40517403 C16.1333954,7.66752132 16.636825,8.59186211 16.8950199,9.06589015 C17.0050932,9.26800157 16.7983446,9.40987714 16.5748268,9.60796668 C16.3224989,9.83162063 16.096354,10.032299 16.096354,10.032299 C16.096354,10.032299 14.2540064,9.94307777 13.8704576,9.70199564 C13.6159844,9.54199847 13.4070904,9.30711097 13.2505622,9.01966155 Z M21.5490516,19.6650442 L21.5623796,19.6650442 L21.5720356,19.6799013 L21.5490516,19.6650442 Z M9.32829437,6.75862087 C9.21638219,6.78450889 9.10674678,6.80110495 8.99960708,6.8091025 L8.952977,6.64133892 L9.38376883,6.50884776 L9.44401576,6.72561366 L9.32829437,6.75862087 Z M8.50383963,6.78231086 L8.84163402,6.67554809 L8.88029538,6.81824657 C8.75047551,6.81995554 8.62481512,6.80785038 8.50383963,6.78231086 Z M7.39216116,5.98614102 C7.37355292,5.95794157 7.355689,5.92895624 7.33813157,5.89969354 L7.44045503,5.86821187 L7.52285672,6.16486077 C7.47736503,6.10878549 7.43371228,6.04924305 7.39216116,5.98614102 Z M7.6653302,2.4413322 L7.69987586,2.5656409 L7.47018444,2.6362782 C7.53073786,2.56536353 7.59593239,2.50036612 7.6653302,2.4413322 Z M9.33665713,5.90417772 L9.76744896,5.77168656 L9.89341583,6.22509664 L9.46262401,6.3575878 L9.33665713,5.90417772 Z M8.79452232,6.07092427 L9.22531415,5.93843311 L9.35128102,6.39179696 L8.92048919,6.52433434 L8.79452232,6.07092427 Z M8.25234372,6.23762459 L8.68317934,6.10517966 L8.80914621,6.55858973 L8.37835438,6.69108089 L8.25234372,6.23762459 Z M8.14104452,6.27187998 L8.26285191,6.71026576 C8.07440511,6.63990584 7.89996923,6.53427349 7.74230266,6.39452444 L8.14104452,6.27187998 Z M7.98258984,5.70151155 L8.10855672,6.1548754 L7.67772111,6.28741279 L7.55175423,5.83395648 L7.98258984,5.70151155 Z M7.39329955,5.26358805 L7.82413516,5.13105066 L7.95010203,5.58446074 L7.51926642,5.7169519 L7.39329955,5.26358805 Z M7.28195656,5.29779721 L7.40796722,5.75120729 L7.27670247,5.79156485 C7.20432734,5.65606884 7.14263554,5.51058744 7.09167084,5.35632261 L7.28195656,5.29779721 Z M7.34872733,3.41976046 L7.4746942,3.87321677 L7.04390237,4.00575415 L6.97533646,3.75907836 C6.98965387,3.67656032 7.00699237,3.59639993 7.02739577,3.5185972 L7.34872733,3.41976046 Z M8.24201067,2.39889435 L7.81117506,2.53138551 L7.76445742,2.3632521 C7.88884807,2.2728752 8.02523556,2.20071236 8.17239394,2.14838159 L8.24201067,2.39889435 Z M8.89544469,2.2056696 L8.85792171,2.06281245 C8.95639216,2.07307588 9.05398694,2.09286963 9.15026819,2.1227802 L8.89544469,2.2056696 Z M9.59603418,2.60160675 L9.50316809,2.26723531 C9.62685819,2.33542249 9.74656394,2.42043688 9.86149722,2.51992082 L9.59603418,2.60160675 Z M10.1853245,3.03953025 L9.75448886,3.17197518 L9.62856577,2.71861133 L9.9651342,2.6151055 C10.0141724,2.66285964 10.0625101,2.71264784 10.1094028,2.76622678 L10.1853245,3.03953025 Z M10.2970848,3.00662766 L10.2964048,3.00462766 C10.2969488,3.00519909 10.2973568,3.00591337 10.2977648,3.0064848 L10.2970848,3.00662766 Z M10.7720315,4.71651883 L10.6460646,4.26315498 L10.8219892,4.20906752 C10.8557467,4.36892601 10.8761063,4.52702781 10.8828929,4.68244836 L10.7720315,4.71651883 Z M10.0372466,6.30789205 L10.3549441,6.2101648 C10.2707473,6.29573393 10.1774433,6.37362912 10.0747258,6.44274087 L10.0372466,6.30789205 Z M10.3095838,5.60498624 L10.4355506,6.05835009 L10.0047588,6.19088747 L9.87879194,5.73743117 L10.3095838,5.60498624 Z M9.72029347,5.16706274 L10.1511291,5.03452535 L10.277096,5.48798166 L9.84630413,5.62042659 L9.72029347,5.16706274 Z M9.17815866,5.33376306 L9.60899427,5.2012719 L9.73496115,5.65468198 L9.30416932,5.78717314 L9.17815866,5.33376306 Z M8.63602385,5.50050961 L9.06685946,5.36797222 L9.19282634,5.82142853 L8.76203451,5.95391969 L8.63602385,5.50050961 Z M8.52472465,5.53471877 L8.65069153,5.98817508 L8.21985592,6.12066624 L8.09388904,5.66725616 L8.52472465,5.53471877 Z M8.36626997,4.96430411 L8.49223685,5.41776042 L8.06140123,5.55025158 L7.93543436,5.0968415 L8.36626997,4.96430411 Z M7.77697968,4.52642684 L8.20781529,4.39393568 L8.33378216,4.84729953 L7.90294655,4.97979069 L7.77697968,4.52642684 Z M7.66563669,4.560636 L7.79164735,5.01404608 L7.36081174,5.14653724 L7.23484486,4.69312716 L7.66563669,4.560636 Z M7.63314888,4.44367765 L7.20235706,4.57612258 L7.07639018,4.1227125 L7.50718201,3.99022135 L7.63314888,4.44367765 Z M8.01682901,3.70647022 L7.58603719,3.83896138 L7.46002653,3.3855513 L7.89086214,3.25306014 L8.01682901,3.70647022 Z M8.40046536,2.96930901 L7.96962975,3.10180017 L7.84366287,2.64839009 L8.27449848,2.51594516 L8.40046536,2.96930901 Z M8.94260017,2.80256246 L8.51176456,2.93505362 L8.38579768,2.48168977 L8.81663329,2.34919861 L8.94260017,2.80256246 Z M9.21239783,3.33876796 L9.08638718,2.88531165 L9.51722279,2.75286672 L9.64318966,3.20623057 L9.21239783,3.33876796 Z M9.80164434,3.77669146 L9.37085252,3.90918262 L9.24488564,3.45577254 L9.67567747,3.32323515 L9.80164434,3.77669146 Z M9.91294354,3.74243607 L9.78702045,3.28902599 L10.2178123,3.15653483 L10.3437792,3.60994491 L9.91294354,3.74243607 Z M10.071442,4.31285072 L9.94547514,3.85948687 L10.376267,3.72694949 L10.5022776,4.18035956 L10.071442,4.31285072 Z M9.56183879,4.59660185 L9.99263062,4.46411069 L10.1185975,4.91752077 L9.68780567,5.05001193 L9.56183879,4.59660185 Z M9.01970398,4.7633484 L9.45053959,4.63085724 L9.57650647,5.08426732 L9.14567086,5.21675848 L9.01970398,4.7633484 Z M8.90840478,4.79760379 L9.03437166,5.25096764 L8.60353604,5.38350503 L8.47756917,4.93004872 L8.90840478,4.79760379 Z M8.74990631,4.2271429 L8.87591697,4.68059921 L8.44508136,4.81304414 L8.31911449,4.35968029 L8.74990631,4.2271429 Z M8.1606598,3.78921941 L8.59145163,3.65677448 L8.71741851,4.11013833 L8.28662668,4.24267571 L8.1606598,3.78921941 Z M8.1752837,4.27688488 L7.74449187,4.40942226 L7.61852499,3.95596596 L8.04931682,3.8234748 L8.1752837,4.27688488 Z M8.55892004,3.53972367 L8.128172,3.67221483 L8.00216134,3.21885098 L8.43295316,3.08631359 L8.55892004,3.53972367 Z M8.67026302,3.50551451 L8.54429615,3.05210443 L8.97508798,2.91956704 L9.10105485,3.37302335 L8.67026302,3.50551451 Z M8.82871771,4.07592916 L8.70279462,3.62251909 L9.13354266,3.4899817 L9.25950953,3.94343801 L8.82871771,4.07592916 Z M9.40338411,4.02618719 L9.83413215,3.89369604 L9.96014281,4.34705989 L9.5293072,4.47959727 L9.40338411,4.02618719 Z M9.418008,4.51385266 L8.98721617,4.64634382 L8.8612493,4.19288751 L9.29204113,4.06044258 L9.418008,4.51385266 Z M10.6932201,4.8677788 L10.819187,5.32123511 L10.3884389,5.45372627 L10.2624283,5.00026996 L10.6932201,4.8677788 Z M10.2298967,4.88326538 L10.1039298,4.4298553 L10.5347654,4.29736414 L10.6607323,4.75077422 L10.2298967,4.88326538 Z M9.3631903,2.19826224 L9.48473498,2.63586214 L9.05389937,2.76830707 L8.92793249,2.31494322 L9.33963445,2.18827687 C9.3474718,2.19165155 9.35539673,2.1947951 9.3631903,2.19826224 Z M10.5376552,5.99094879 L10.4209268,5.57073085 L10.7943176,5.45585278 C10.7358658,5.65292529 10.6495236,5.83173751 10.5376552,5.99094879 Z M10.9295421,4.99070064 C10.9260794,5.01765191 10.9199646,5.04363238 10.9151759,5.07007514 L10.8045193,4.83352341 L10.9405193,4.80869865 C10.9400773,4.86981286 10.9371304,4.93060346 10.9295421,4.99070064 Z M10.7772856,4.02262759 C10.7835029,4.04532583 10.7888008,4.06783916 10.7944928,4.09049117 L10.6135768,4.1461504 L10.4876099,3.6926941 L10.6470717,3.64369178 C10.6981677,3.76772311 10.7421707,3.89466684 10.7772856,4.02262759 Z M10.3734648,3.11802641 C10.4575303,3.24820614 10.5328389,3.38740044 10.5985151,3.53158744 L10.4550346,3.57568952 L10.3291553,3.12232567 L10.3682107,3.11030623 C10.3699183,3.11294126 10.3717572,3.11539138 10.3734648,3.11802641 Z M8.73510729,2.05555456 L8.78414549,2.2321478 L8.35330987,2.36468519 L8.28343044,2.11324785 C8.42454662,2.07409223 8.56605685,2.05449131 8.70660383,2.05449131 C8.71614877,2.05449131 8.72560613,2.05536965 8.73510729,2.05555456 Z M7.34373594,2.8021464 L7.73236367,2.68259925 L7.85833055,3.13605556 L7.42753872,3.26854672 L7.31164219,2.85142609 C7.32219416,2.83483002 7.33278991,2.81832641 7.34373594,2.8021464 Z M7.22989726,2.99191479 L7.31623952,3.30280211 L7.06767714,3.37921798 C7.11198666,3.2410407 7.16627895,3.11169309 7.22989726,2.99191479 Z M6.93155236,4.16727687 L6.9650472,4.15696789 L7.09101407,4.61037797 L6.94490651,4.65531217 C6.92875017,4.49272619 6.92419663,4.32875336 6.93155236,4.16727687 Z M7.01771948,5.09591693 C6.99306903,4.99194881 6.97389159,4.88543813 6.9592677,4.77786418 L7.12350188,4.72733632 L7.24946876,5.18079263 L7.055943,5.24033506 C7.04232615,5.1928583 7.02940984,5.14487301 7.01771948,5.09591693 Z M9.55592794,6.69362347 L9.49511181,6.47459237 L9.92590364,6.34210122 L9.9720083,6.50792319 C9.85090146,6.57879163 9.71889238,6.63911995 9.57602484,6.68789112 L9.55592794,6.69362347 Z M26.6558109,23.525132 C26.5477079,22.3752419 26.4857096,22.2366023 25.9772448,21.2785147 C25.5643169,20.5005336 22.2921554,14.3348407 22.2921554,14.3348407 L20.60187,10.9093941 L21.1806083,9.69704918 C21.1806083,9.69704918 22.8056554,8.33584814 23.0209857,8.1579605 C23.1151215,8.080204 23.3156527,7.86205125 23.5389954,7.53452165 C23.6698661,7.34258051 25.8652012,4.12266628 26.2782167,3.51753394 C26.6911884,2.91235538 26.2652128,2.24726455 26.1056198,2.21749334 L21.8341299,7.10348621 L18.2007496,8.95031866 C18.2007496,8.95031866 17.9203124,9.09723314 17.7585301,9.24715248 C17.2793568,9.69117815 15.9729704,10.8689441 15.7593915,11.0690677 C15.4961615,11.3155586 15.300359,11.7937934 15.300359,11.7937934 L14.2216937,14.0312575 C14.2216937,14.0312575 12.4615288,12.7673677 11.6247708,12.1661185 C11.3096128,11.5092564 11.0988799,11.1818655 10.8395466,11.1217683 L10.6726854,10.6675261 L10.6008794,10.6879592 L9.74603853,7.35002331 L9.79293131,7.33657079 L9.6791802,6.89249889 C10.5179085,6.59372347 11.0168284,5.93256207 11.0854381,5.02703632 C11.1112708,4.68586927 11.0739667,4.32949302 10.974533,3.96775425 C10.8792588,3.62113223 10.7271528,3.28033501 10.5345027,2.98211433 C9.9331718,2.05088548 9.06580865,1.64014439 8.21425155,1.88321435 C7.36265067,2.12633055 6.80948227,2.94272757 6.73452388,4.06700705 C6.71053019,4.42745142 6.74179204,4.80278139 6.82493806,5.15236204 C6.91180572,5.51789156 7.04968188,5.84551363 7.2347573,6.12639858 C7.72627768,6.87197339 8.47284049,7.17749819 9.33985337,6.98944026 L9.4535607,7.43365085 L9.50045347,7.42019832 L10.3553382,10.7580879 L10.2836198,10.7785672 L10.3566079,11.2621183 C10.0911449,11.4898404 10.140796,11.8964671 10.2535401,12.124559 C10.3848924,12.3903735 10.7765851,12.6238741 10.7765851,12.6238741 C10.7765851,12.6238741 14.0298755,16.0330482 14.2265975,16.2407533 C14.6265216,16.6630515 14.9923816,16.6688763 15.2718117,16.313286 C15.6147289,15.8769343 16.3204849,14.9894376 16.3204849,14.9894376 L15.6010682,14.2598117 L15.6960359,14.0676394 L17.8223673,15.6174069 L18.9483194,17.5281735 L16.8810528,23.5665991 L13.4229403,30.2648454 C13.4229403,30.2648454 14.2984473,31.1243275 15.2770658,29.7104258 C16.2556406,28.2965242 21.8808475,20.1692595 21.8808475,20.1692595 L24.2845512,23.1279821 C24.2845512,23.1279821 25.4503906,27.9566978 25.7476847,29.2806848 C26.0449788,30.6046256 26.9949626,30.7073455 27.3372667,30.575594 C27.3372667,30.575594 26.7557262,24.5886671 26.6558109,23.525132 Z" id="Fill-1"></path>
        </g>
    </g>
</svg>