<?xml version="1.0" encoding="UTF-8"?>
<svg width="44px" height="53px" viewBox="0 0 44 53" version="1.1" xmlns="http://www.w3.org/2000/svg" xmlns:xlink="http://www.w3.org/1999/xlink">
    <!-- Generator: Sketch 49.2 (51160) - http://www.bohemiancoding.com/sketch -->
    <title>location-pin-selected</title>
    <desc>Created with Sketch.</desc>
    <defs>
        <path d="M7.52,2.74985211e-16 C3.36,2.74985211e-16 0,3.37272727 0,7.54848485 L0,32.2015152 C0,36.3772727 3.36,39.75 7.52,39.75 L13.04,39.75 C13.36,39.75 15.2,39.9106061 15.36,40.1515152 L21.76,52.8393939 L28.16,40.1515152 C28.32,39.9106061 30.16,39.75 30.48,39.75 L36.08,39.75 C40.24,39.75 43.6,36.3772727 43.6,32.2015152 L43.6,7.54848485 C43.6,3.37272727 40.24,0 36.08,0 C31.5534722,4.35829201e-17 28.1585764,7.62701102e-17 25.8953125,9.80615702e-17 C21.8119097,1.37377935e-16 15.6868056,1.96352482e-16 7.52,2.74985211e-16 Z" id="path-1"></path>
        <filter x="-18.3%" y="-13.2%" width="136.7%" height="130.3%" filterUnits="objectBoundingBox" id="filter-2">
            <feOffset dx="0" dy="1" in="SourceAlpha" result="shadowOffsetOuter1"></feOffset>
            <feGaussianBlur stdDeviation="2.5" in="shadowOffsetOuter1" result="shadowBlurOuter1"></feGaussianBlur>
            <feComposite in="shadowBlurOuter1" in2="SourceAlpha" operator="out" result="shadowBlurOuter1"></feComposite>
            <feColorMatrix values="0 0 0 0 0   0 0 0 0 0   0 0 0 0 0  0 0 0 0.271993886 0" type="matrix" in="shadowBlurOuter1"></feColorMatrix>
        </filter>
        <polygon id="path-3" points="0 0.00215925887 20.1484135 0.00215925887 20.1484135 26.4508535 0 26.4508535"></polygon>
        <polygon id="path-5" points="0.135871586 0.162351678 3.49842588 0.162351678 3.49842588 4.95267718 0.135871586 4.95267718"></polygon>
    </defs>
    <g id="location-pin-selected" stroke="none" stroke-width="1" fill="none" fill-rule="evenodd">
        <g id="location-pin-orange">
            <g id="Path">
                <use fill="black" fill-opacity="1" filter="url(#filter-2)" xlink:href="#path-1"></use>
                <use fill="#EC6607" fill-rule="evenodd" xlink:href="#path-1"></use>
                <path stroke="#FFFFFF" stroke-width="1.6" d="M21.7603516,51.0637612 L27.493587,39.7089163 C27.8561269,39.1630466 29.4327868,38.95 30.48,38.95 L36.08,38.95 C39.7974937,38.95 42.8,35.9361206 42.8,32.2015152 L42.8,7.54848485 C42.8,3.81387942 39.7974937,0.8 36.08,0.8 C29.8560243,0.8 29.8560243,0.8 25.8953125,0.8 C18.7493576,0.8 18.7493576,0.8 7.52,0.8 C3.80250629,0.8 0.8,3.81387942 0.8,7.54848485 L0.8,32.2015152 C0.8,35.9361206 3.80250629,38.95 7.52,38.95 L13.04,38.95 C14.0872132,38.95 15.6638731,39.1630466 16.0742749,39.7912217 L21.7603516,51.0637612 Z M28.6049411,40.8017139 C28.6026515,40.8025804 28.6005695,40.8034023 28.5987008,40.8041765 C28.6031444,40.8023356 28.6075985,40.8004198 28.6120829,40.798383 Z"></path>
            </g>
        </g>
        <g id="beach-tennis" transform="translate(9.000000, 7.000000)">
            <g id="Page-1" transform="translate(1.894734, 0.000000)">
                <g id="Group-3" transform="translate(0.000000, 0.267802)">
                    <mask id="mask-4" fill="white">
                        <use xlink:href="#path-3"></use>
                    </mask>
                    <g id="Clip-2"></g>
                    <path d="M12.2894991,5.05900857 C12.1006573,4.20259252 11.8379208,3.39718896 11.7127727,2.55561782 C11.5749355,1.62740642 12.0976717,0.573418183 12.8853835,0.190959456 C13.7089231,-0.209043249 14.7496681,0.0441298531 15.2987774,0.778277868 C15.8774943,1.55156245 15.9155612,2.68382382 15.3667007,3.48490886 C15.0323088,3.97317127 14.6745294,4.44307998 14.3112763,4.90651091 C14.173688,5.08168079 14.1789129,5.18910392 14.3655155,5.28168214 C15.3109687,5.75132094 15.5933607,6.62905967 15.6819347,7.67144189 C15.7705088,8.71436392 15.9680588,9.74325077 16.1516757,10.7721376 C16.1845178,10.9554047 16.244977,11.1138403 16.3402688,11.2674176 C17.0727463,12.4488021 17.8049749,13.6304565 18.5262562,14.8199383 C18.6451843,15.0161609 19.1455281,15.056647 19.1977769,15.0936243 C19.876264,15.5767585 20.5276315,15.8091487 19.8847233,15.8855325 C19.6834413,15.9095543 19.4841497,15.8998376 19.3575087,16.131688 C19.2945614,16.2469385 19.1554803,16.251257 19.0333178,16.2593542 C18.5685528,16.2898537 18.1045343,16.3289903 17.6397694,16.3565209 C17.1060859,16.3881 16.8124978,15.9370848 17.0737415,15.4269599 C17.1896839,15.2005076 17.1150428,15.1168364 16.999598,14.9829623 C16.2748335,14.1403115 15.5567866,13.2906432 14.8258019,12.4544702 C14.6322328,12.2326063 14.4961373,11.9883402 14.3991039,11.7049375 C14.0885972,10.7964293 13.7693823,9.89142991 13.4392201,8.94405508 C12.8930964,9.37239806 12.3591641,9.76133457 11.8595667,10.1964252 C11.6334043,10.3934576 11.6590311,10.7707881 11.5159691,11.0344876 C11.1987446,11.618837 11.3353378,12.0204592 11.7926386,12.4774123 C12.7311253,13.4150705 13.563373,14.4785055 14.5095727,15.4061771 C15.2796195,16.1611079 15.612021,17.0607092 15.7525949,18.1427678 C16.0942021,20.7686965 16.4947757,23.3851784 16.8732059,26.005439 C16.9341627,26.4291936 16.8926125,26.4904625 16.497015,26.4321625 C15.7613031,26.3236598 15.3398299,25.8291895 15.1258589,25.0858646 C14.472501,22.8143243 13.8111813,20.5454831 13.1670291,18.2709738 C13.0801966,17.9640891 12.9348954,17.7659771 12.6823599,17.6021433 C11.4025147,16.7719083 10.1298848,15.9284478 8.86173345,15.0768901 C8.63308304,14.9233128 8.54575302,14.8887647 8.4877818,15.2407238 C8.30341842,16.3611093 8.0809881,17.4736674 7.87572522,18.5900043 C7.76923732,19.1684157 7.52093144,19.6550587 7.10642482,20.0423757 C5.58723071,21.4620885 4.07226625,22.8874692 2.54958889,24.3028634 C2.16593391,24.659411 1.72828857,24.921761 1.23540885,25.0688605 C1.01297853,25.1352577 0.789801801,25.1536114 0.562146607,25.1336382 C0.35563971,25.1155545 0.11405152,25.0774975 0.0217454251,24.8877526 C-0.0730487049,24.6931494 0.165802646,24.5673726 0.270548916,24.4302597 C1.77854687,22.4561573 3.2912721,20.4866433 4.81146143,18.523607 C4.96870523,18.3206367 5.03389175,18.1254937 5.01995875,17.8596349 C4.94208326,16.3732551 4.89655222,14.884716 4.80748057,13.3991459 C4.71218883,11.8102013 5.16451358,10.4725405 6.25526808,9.39534019 C6.35055982,9.30114252 6.43415779,9.18616199 6.50108593,9.06632312 C7.2683959,7.69438402 8.02674894,6.31650695 8.79978138,4.94834655 C8.92418313,4.72810215 8.87815448,4.6565767 8.67861408,4.56318875 C8.01107432,4.25063603 7.35846276,3.89948656 6.68669334,3.59800004 C6.19480883,3.37775564 5.65366124,3.42822831 5.13490596,3.35994175 C3.87969235,3.19448854 2.62099549,3.06142421 1.36528428,2.90055943 C0.821399844,2.83092333 0.428041525,2.43604886 0.323544059,1.92889294 C0.283237894,1.73294019 0.306127815,1.64252123 0.517361979,1.64306104 C2.52296692,1.6487291 4.53130869,1.57774346 6.53243517,1.67895872 C7.45823296,1.72538279 8.37059536,2.1000142 9.28743622,2.33294425 C9.85495699,2.47734469 10.4341715,2.57936967 10.9591469,2.88193582 C11.266668,3.05899504 11.4948208,3.28706676 11.5955862,3.6700653 C11.693366,4.04172774 11.8394136,4.39908508 11.965557,4.76184057 C12.0158153,4.90705073 12.0563703,5.06548635 12.2894991,5.05900857" id="Fill-1" fill="#FFFFFF" mask="url(#mask-4)"></path>
                </g>
                <path d="M20.0335078,15.2655283 L18.8882653,15.3192399 C18.5755193,15.3338149 18.3321895,15.621806 18.3456249,15.9613495 C18.3520938,16.1257231 18.4172803,16.277411 18.5289931,16.3886128 C18.6407059,16.4998147 18.7857583,16.557035 18.9372796,16.5500175 L20.0825221,16.4963059 C20.1979669,16.897928 20.4087035,17.2582544 20.6978131,17.5462455 L20.6980619,17.5462455 C20.7351336,17.5832228 20.7734494,17.6185807 20.8122627,17.652589 L20.6687031,14.0452772 C20.3562059,14.3672766 20.1297947,14.7883321 20.0335078,15.2655283" id="Fill-4" fill="#FFFFFF"></path>
                <g id="Group-8" transform="translate(20.899493, 13.223355)">
                    <mask id="mask-6" fill="white">
                        <use xlink:href="#path-5"></use>
                    </mask>
                    <g id="Clip-7"></g>
                    <path d="M3.49646034,2.45402469 C3.47083358,1.81488407 3.21755162,1.22459668 2.78289192,0.792205087 C2.34823223,0.359813499 1.78444352,0.136870021 1.19502805,0.164670479 C0.809382636,0.182484365 0.447373557,0.308531101 0.135871586,0.516359767 L0.302569925,4.70046364 C0.634473782,4.88130157 1.00494218,4.96821173 1.38610913,4.95039785 C2.60226059,4.8934474 3.54895787,3.77360177 3.49646034,2.45402469" id="Fill-6" fill="#FFFFFF" mask="url(#mask-6)"></path>
                </g>
                <path d="M21.2789932,12.1816208 C21.4200648,12.0148181 21.6599113,12.003482 21.8136719,12.1565195 C21.9676813,12.3095569 21.9778822,12.5697476 21.8368106,12.7368203 C21.695739,12.903623 21.4558925,12.9146892 21.3021319,12.7616518 C21.1483714,12.6088842 21.1379216,12.3484236 21.2789932,12.1816208 M22.1157193,13.014285 C22.3981113,12.6804096 22.3772118,12.1600282 22.0696907,11.8539533 C21.7619208,11.5478784 21.2822276,11.5702807 21.0000845,11.9041561 C20.7179413,12.2377616 20.738592,12.7584129 21.0461131,13.0644878 C21.353883,13.3705628 21.8335762,13.3478905 22.1157193,13.014285" id="Fill-9" fill="#FFFFFF"></path>
            </g>
        </g>
    </g>
</svg>