<?xml version="1.0" encoding="UTF-8"?>
<svg width="44px" height="53px" viewBox="0 0 44 53" version="1.1" xmlns="http://www.w3.org/2000/svg" xmlns:xlink="http://www.w3.org/1999/xlink">
    <!-- Generator: Sketch 49.2 (51160) - http://www.bohemiancoding.com/sketch -->
    <title>location-pin-selected</title>
    <desc>Created with Sketch.</desc>
    <defs>
        <path d="M7.52,2.74985211e-16 C3.36,2.74985211e-16 0,3.37272727 0,7.54848485 L0,32.2015152 C0,36.3772727 3.36,39.75 7.52,39.75 L13.04,39.75 C13.36,39.75 15.2,39.9106061 15.36,40.1515152 L21.76,52.8393939 L28.16,40.1515152 C28.32,39.9106061 30.16,39.75 30.48,39.75 L36.08,39.75 C40.24,39.75 43.6,36.3772727 43.6,32.2015152 L43.6,7.54848485 C43.6,3.37272727 40.24,0 36.08,0 C31.5534722,4.35829201e-17 28.1585764,7.62701102e-17 25.8953125,9.80615702e-17 C21.8119097,1.37377935e-16 15.6868056,1.96352482e-16 7.52,2.74985211e-16 Z" id="path-1"></path>
        <filter x="-18.3%" y="-13.2%" width="136.7%" height="130.3%" filterUnits="objectBoundingBox" id="filter-2">
            <feOffset dx="0" dy="1" in="SourceAlpha" result="shadowOffsetOuter1"></feOffset>
            <feGaussianBlur stdDeviation="2.5" in="shadowOffsetOuter1" result="shadowBlurOuter1"></feGaussianBlur>
            <feComposite in="shadowBlurOuter1" in2="SourceAlpha" operator="out" result="shadowBlurOuter1"></feComposite>
            <feColorMatrix values="0 0 0 0 0   0 0 0 0 0   0 0 0 0 0  0 0 0 0.271993886 0" type="matrix" in="shadowBlurOuter1"></feColorMatrix>
        </filter>
        <polygon id="path-3" points="0.11249009 0.128055129 22.8882975 0.128055129 22.8882975 22.1 0.11249009 22.1"></polygon>
        <polygon id="path-5" points="0.0500531847 0.0247 4.60515334 0.0247 4.60515334 4.579952 0.0500531847 4.579952"></polygon>
        <polygon id="path-7" points="0 0.0123403953 10.4500512 0.0123403953 10.4500512 7.38093676 0 7.38093676"></polygon>
    </defs>
    <g id="location-pin-selected" stroke="none" stroke-width="1" fill="none" fill-rule="evenodd">
        <g id="location-pin-orange">
            <g id="Path">
                <use fill="black" fill-opacity="1" filter="url(#filter-2)" xlink:href="#path-1"></use>
                <use fill="#EC6607" fill-rule="evenodd" xlink:href="#path-1"></use>
                <path stroke="#FFFFFF" stroke-width="1.6" d="M21.7603516,51.0637612 L27.493587,39.7089163 C27.8561269,39.1630466 29.4327868,38.95 30.48,38.95 L36.08,38.95 C39.7974937,38.95 42.8,35.9361206 42.8,32.2015152 L42.8,7.54848485 C42.8,3.81387942 39.7974937,0.8 36.08,0.8 C29.8560243,0.8 29.8560243,0.8 25.8953125,0.8 C18.7493576,0.8 18.7493576,0.8 7.52,0.8 C3.80250629,0.8 0.8,3.81387942 0.8,7.54848485 L0.8,32.2015152 C0.8,35.9361206 3.80250629,38.95 7.52,38.95 L13.04,38.95 C14.0872132,38.95 15.6638731,39.1630466 16.0742749,39.7912217 L21.7603516,51.0637612 Z M28.6049411,40.8017139 C28.6026515,40.8025804 28.6005695,40.8034023 28.5987008,40.8041765 C28.6031444,40.8023356 28.6075985,40.8004198 28.6120829,40.798383 Z"></path>
            </g>
        </g>
        <g id="basque" transform="translate(7.000000, 7.000000)">
            <g id="Page-1" transform="translate(-0.990000, 0.000000)">
                <g id="Group-3" transform="translate(8.060000, 3.615326)">
                    <mask id="mask-4" fill="white">
                        <use xlink:href="#path-3"></use>
                    </mask>
                    <g id="Clip-2"></g>
                    <path d="M5.460962,6.063954 C5.520242,6.734234 5.568602,7.321054 5.625802,7.907874 C5.665582,8.235474 5.496322,8.552674 5.201742,8.702694 C3.787082,9.578894 2.356822,10.437154 0.994682,11.396554 C0.757302,11.558794 0.466362,11.623794 0.181922,11.578034 C-0.323258,11.516934 2.047162,8.897694 3.444142,7.704294 C3.606902,7.566234 3.540862,7.417254 3.510182,7.266194 C3.312322,6.313814 3.097042,5.367674 2.923622,4.419454 C2.782962,3.642054 3.028922,3.136094 3.721042,2.754934 C5.188482,1.944774 6.660342,1.139034 8.145462,0.359554 C8.923122,-0.047866 9.683102,0.118534 10.386142,0.578214 C10.928242,0.963274 11.442262,1.386294 11.924042,1.844414 C12.644502,2.479334 13.360802,3.122834 14.074762,3.766854 C14.454622,4.110574 14.500902,4.358094 14.270282,4.815694 C13.727662,5.891054 13.171782,6.964074 12.631502,8.041514 C12.585222,8.133554 12.426882,8.238594 12.596142,8.352474 C12.765402,8.466354 12.815842,8.289034 12.897222,8.192834 C13.046462,7.997574 13.187122,7.793994 13.336622,7.594834 C13.406822,7.496294 13.459602,7.412834 13.576082,7.572994 C15.091882,9.657674 16.871322,11.538774 18.408962,13.588354 C19.331702,14.801514 20.118202,16.119974 20.963982,17.392154 C21.570302,18.303194 22.167782,19.225154 22.791782,20.125274 C22.969622,20.381374 22.888242,20.475754 22.657622,20.580794 C22.317542,20.740694 21.923382,20.740694 21.583302,20.580794 C21.120502,20.369934 20.717762,20.047014 20.412522,19.641414 C19.290622,18.249894 18.168722,16.858894 17.047082,15.467374 C16.848442,15.217514 16.608462,15.003534 16.337542,14.834274 C14.623882,13.764374 12.911782,12.689794 11.201242,11.611054 C11.034842,11.485734 10.807342,11.479494 10.634442,11.595454 C9.124362,12.407174 7.612982,13.208754 6.100042,13.999934 C5.901922,14.096914 5.754242,14.272674 5.693922,14.484314 C4.983602,16.620214 4.268862,18.753774 3.549702,20.885254 C3.358602,21.452314 3.031262,21.894834 2.420522,22.054474 C1.981122,22.172774 1.851642,22.070074 1.921842,21.634054 C2.347982,19.006234 2.780882,16.363074 3.202602,13.728494 C3.300362,13.179634 3.563222,12.673414 3.956082,12.276914 C5.065502,11.070254 6.170502,9.868014 7.288762,8.659014 C7.448142,8.509774 7.497802,8.277854 7.413822,8.076614 C7.272122,7.421674 6.837662,6.867354 6.234202,6.571994 C5.965622,6.419374 5.707442,6.249854 5.460962,6.063954" id="Fill-1" fill="#FFFFFF" mask="url(#mask-4)"></path>
                </g>
                <g id="Group-6" transform="translate(10.400000, 0.235326)">
                    <mask id="mask-6" fill="white">
                        <use xlink:href="#path-5"></use>
                    </mask>
                    <g id="Clip-5"></g>
                    <path d="M0.051298,2.150252 C0.017238,1.165632 0.685438,0.293592 1.648738,0.065832 C2.607878,-0.130988 3.569618,0.391612 3.921398,1.301352 C4.177238,1.979692 4.372758,2.681432 4.572178,3.376932 C4.673318,3.666312 4.534738,3.984812 4.253158,4.109092 C3.966898,4.264572 3.662958,4.394312 3.369938,4.540952 C3.259958,4.592952 3.132558,4.592952 3.022578,4.540952 C2.398838,4.335812 1.786538,4.097132 1.188538,3.825952 C0.528138,3.518632 0.091338,2.874612 0.051298,2.150252" id="Fill-4" fill="#FFFFFF" mask="url(#mask-6)"></path>
                </g>
                <path d="M20.20707,9.102418 L19.29239,7.566858 L19.32567,7.494578 C19.69981,7.724678 20.07343,7.955558 20.44601,8.186958 C20.52921,8.236618 20.49411,8.315658 20.46889,8.385338 C20.39011,8.601658 20.31107,8.827078 20.20707,9.102418" id="Fill-7" fill="#FFFFFF"></path>
                <g id="Group-11" transform="translate(0.000000, 12.975326)">
                    <mask id="mask-8" fill="white">
                        <use xlink:href="#path-7"></use>
                    </mask>
                    <g id="Clip-10"></g>
                    <path d="M0.009594,4.100746 C-0.119626,4.243746 1.091194,5.066126 1.448174,5.365126 C1.804894,5.664386 1.886014,6.025006 2.908334,6.724406 C3.930914,7.423806 5.211674,7.665606 6.672094,6.944366 C8.132514,6.222866 7.918014,4.978246 7.834814,4.714086 C7.751614,4.450446 8.053734,3.713606 8.108334,3.614806 C8.163194,3.515746 8.428134,3.447366 8.428134,3.447366 L9.117654,2.446886 C9.295234,2.209506 10.431434,0.836966 10.446774,0.634686 C10.462114,0.432406 10.433774,0.157326 10.138154,0.084786 C9.842534,0.012246 10.173254,-0.403234 8.344934,2.004626 C6.109454,4.826406 5.242354,5.303766 4.079894,5.668806 C2.917174,6.033846 0.327054,4.028206 0.327054,4.028206 C0.217074,3.976206 0.086294,4.006366 0.009594,4.100746" id="Fill-9" fill="#FFFFFF" mask="url(#mask-8)"></path>
                </g>
                <path d="M2.143622,16.203148 C2.365662,16.203148 2.545582,16.382808 2.545582,16.605108 C2.545582,16.826888 2.365662,17.007068 2.143622,17.007068 C1.921582,17.007068 1.741662,16.826888 1.741662,16.605108 C1.741662,16.382808 1.921582,16.203148 2.143622,16.203148" id="Fill-12" fill="#FFFFFF"></path>
            </g>
        </g>
    </g>
</svg>