<?xml version="1.0" encoding="UTF-8"?>
<svg width="44px" height="53px" viewBox="0 0 44 53" version="1.1" xmlns="http://www.w3.org/2000/svg" xmlns:xlink="http://www.w3.org/1999/xlink">
    <!-- Generator: Sketch 49.2 (51160) - http://www.bohemiancoding.com/sketch -->
    <title>location-pin-selected</title>
    <desc>Created with Sketch.</desc>
    <defs>
        <path d="M7.52,2.74985211e-16 C3.36,2.74985211e-16 0,3.37272727 0,7.54848485 L0,32.2015152 C0,36.3772727 3.36,39.75 7.52,39.75 L13.04,39.75 C13.36,39.75 15.2,39.9106061 15.36,40.1515152 L21.76,52.8393939 L28.16,40.1515152 C28.32,39.9106061 30.16,39.75 30.48,39.75 L36.08,39.75 C40.24,39.75 43.6,36.3772727 43.6,32.2015152 L43.6,7.54848485 C43.6,3.37272727 40.24,0 36.08,0 C31.5534722,4.35829201e-17 28.1585764,7.62701102e-17 25.8953125,9.80615702e-17 C21.8119097,1.37377935e-16 15.6868056,1.96352482e-16 7.52,2.74985211e-16 Z" id="path-1"></path>
        <filter x="-18.3%" y="-13.2%" width="136.7%" height="130.3%" filterUnits="objectBoundingBox" id="filter-2">
            <feOffset dx="0" dy="1" in="SourceAlpha" result="shadowOffsetOuter1"></feOffset>
            <feGaussianBlur stdDeviation="2.5" in="shadowOffsetOuter1" result="shadowBlurOuter1"></feGaussianBlur>
            <feComposite in="shadowBlurOuter1" in2="SourceAlpha" operator="out" result="shadowBlurOuter1"></feComposite>
            <feColorMatrix values="0 0 0 0 0   0 0 0 0 0   0 0 0 0 0  0 0 0 0.271993886 0" type="matrix" in="shadowBlurOuter1"></feColorMatrix>
        </filter>
    </defs>
    <g id="location-pin-selected" stroke="none" stroke-width="1" fill="none" fill-rule="evenodd">
        <g id="location-pin-orange">
            <g id="Path">
                <use fill="black" fill-opacity="1" filter="url(#filter-2)" xlink:href="#path-1"></use>
                <use fill="#EC6607" fill-rule="evenodd" xlink:href="#path-1"></use>
                <path stroke="#FFFFFF" stroke-width="1.6" d="M21.7603516,51.0637612 L27.493587,39.7089163 C27.8561269,39.1630466 29.4327868,38.95 30.48,38.95 L36.08,38.95 C39.7974937,38.95 42.8,35.9361206 42.8,32.2015152 L42.8,7.54848485 C42.8,3.81387942 39.7974937,0.8 36.08,0.8 C29.8560243,0.8 29.8560243,0.8 25.8953125,0.8 C18.7493576,0.8 18.7493576,0.8 7.52,0.8 C3.80250629,0.8 0.8,3.81387942 0.8,7.54848485 L0.8,32.2015152 C0.8,35.9361206 3.80250629,38.95 7.52,38.95 L13.04,38.95 C14.0872132,38.95 15.6638731,39.1630466 16.0742749,39.7912217 L21.7603516,51.0637612 Z M28.6049411,40.8017139 C28.6026515,40.8025804 28.6005695,40.8034023 28.5987008,40.8041765 C28.6031444,40.8023356 28.6075985,40.8004198 28.6120829,40.798383 Z"></path>
            </g>
        </g>
        <g id="squash" transform="translate(8.000000, 8.000000)" fill="#FFFFFF">
            <path d="M28.0804596,13.3157654 L27.8233202,13.334309 L27.8568141,13.728944 L28.0381781,13.7158319 C28.0720861,13.5898458 28.0866246,13.4551182 28.0804596,13.3157654 Z M28.0101875,13.8175459 L27.8651875,13.8277301 L27.8853409,14.0585279 C27.9358189,13.9842262 27.977876,13.903517 28.0101875,13.8175459 Z M27.8149467,13.2355229 L28.0723161,13.2168944 C28.0554311,13.0706673 28.0175665,12.9411591 27.964289,12.8276909 L27.7814068,12.8408879 L27.8149467,13.2355229 Z M27.7876639,14.1851082 L27.7579886,13.8354955 L27.3302511,13.8663873 L27.363745,14.2609799 L27.7409196,14.2337374 C27.7569304,14.2179944 27.7726652,14.2018695 27.7876639,14.1851082 Z M27.6107166,14.3425803 L27.3721185,14.3611064 L27.3811821,14.4759136 C27.4041862,14.4650078 27.4270982,14.454604 27.4502403,14.4430594 C27.5071063,14.4146314 27.5604758,14.380682 27.6107166,14.3425803 Z M27.3218316,13.7675164 L27.7496151,13.736667 L27.7160752,13.3420744 L27.2883377,13.3729662 L27.3218316,13.7675164 Z M27.2800102,13.2741377 L27.7077017,13.2432883 L27.6742078,12.8486533 L27.2464243,12.8795027 L27.2800102,13.2741377 Z M27.2770657,14.5103214 L27.2648736,14.3675738 L26.837136,14.3984232 L26.8582078,14.6470433 C26.9960021,14.6125021 27.1355907,14.5671403 27.2770657,14.5103214 Z M26.8287626,14.2995948 L27.2565001,14.2687453 L27.2230062,13.8741103 L26.7952226,13.9050021 L26.8287626,14.2995948 Z M26.7868492,13.8061737 L27.2146327,13.7753242 L27.1811388,13.3807316 L26.7533553,13.411581 L26.7868492,13.8061737 Z M26.7524351,14.6714428 L26.7299371,14.4061462 L26.3021536,14.4370805 L26.327136,14.7314867 C26.4673228,14.7215996 26.6090738,14.7020376 26.7524351,14.6714428 Z M26.2937341,14.338252 L26.7215636,14.3073602 L26.6879777,13.9127675 L26.2602402,13.943617 L26.2937341,14.338252 Z M26.2518667,13.8447885 L26.6796502,13.8139391 L26.6461563,13.419304 L26.2183268,13.4502383 L26.2518667,13.8447885 Z M26.2197991,14.7373002 L26.1949547,14.4448035 L25.7671711,14.4756953 L25.7883349,14.7251217 C25.9309601,14.7381913 26.0746894,14.742562 26.2197991,14.7373002 Z M25.7587517,14.3768668 L26.1865352,14.3460174 L26.1530413,13.9513824 L25.7253038,13.9822742 L25.7587517,14.3768668 Z M25.7168843,13.8834457 L26.1446218,13.8525539 L26.1111279,13.4580037 L25.6833904,13.4888531 L25.7168843,13.8834457 Z M25.6794337,14.7134523 L25.6599262,14.4834607 L25.2321887,14.5143526 L25.2425405,14.6366895 C25.3875121,14.669406 25.5329898,14.695715 25.6794337,14.7134523 Z M25.2238152,14.4154817 L25.6515527,14.3846322 L25.6180588,13.9899972 L25.1902753,14.0209315 L25.2238152,14.4154817 Z M25.1819018,13.922103 L25.6096393,13.8912111 L25.5761454,13.4966185 L25.1484079,13.527468 L25.1819018,13.922103 Z M25.1399884,13.4286395 L25.567818,13.39779 L25.534278,13.0031974 L25.1064945,13.0340469 L25.1399884,13.4286395 Z M25.1325351,14.6554089 L25.1249898,14.5220756 L24.8737394,14.5494325 C24.9599126,14.5877195 25.0461318,14.6230663 25.1325351,14.6554089 Z M24.6887868,14.4541814 L25.1165703,14.4232471 L25.0830764,14.0286545 L24.6553389,14.0595463 L24.6887868,14.4541814 Z M24.6468734,13.9607178 L25.0747029,13.9298684 L25.041163,13.5352334 L24.6134255,13.5661252 L24.6468734,13.9607178 Z M24.605052,13.4673392 L25.0327895,13.4364049 L24.9992956,13.0417698 L24.571466,13.0727041 L24.605052,13.4673392 Z M24.5802996,14.4471373 L24.5480939,14.0672693 L24.1203564,14.0981611 L24.1364132,14.2880952 C24.2848354,14.3438109 24.4326595,14.3974473 24.5802996,14.4471373 Z M24.1118909,13.9993327 L24.5396744,13.9684832 L24.5061805,13.5738906 L24.078443,13.60474 L24.1118909,13.9993327 Z M24.0700695,13.5059116 L24.497807,13.4750621 L24.4642671,13.0804695 L24.0365296,13.1113189 L24.0700695,13.5059116 Z M24.0281561,13.0124905 L24.4559397,12.981641 L24.4223997,12.5870484 L24.3919424,12.5892125 C24.2641778,12.6575311 24.1372874,12.7295414 24.010397,12.803546 L24.0281561,13.0124905 Z M24.0249816,14.2459159 L24.0131115,14.105969 L23.7163591,14.1273557 C23.7292414,14.1323204 23.7421696,14.1372852 23.7550059,14.1422499 C23.8453659,14.1771306 23.9352657,14.2117566 24.0249816,14.2459159 Z M23.5769545,14.0379899 L24.004692,14.0070981 L23.9712441,13.6125054 L23.5434606,13.6433973 L23.5769545,14.0379899 Z M23.9628246,13.513677 L23.9292847,13.1190843 L23.5015932,13.1499762 L23.5350411,13.5445688 L23.9628246,13.513677 Z M23.4686053,14.0323462 L23.4362616,13.6511203 L23.0084781,13.6820121 L23.0243509,13.8697396 C23.1736013,13.921806 23.3215634,13.9764608 23.4686053,14.0323462 Z M23.0000586,13.5831836 L23.4278421,13.5523342 L23.3951304,13.1669498 C23.2601425,13.2455373 23.1234064,13.3226396 22.9842318,13.3968989 L23.0000586,13.5831836 Z M22.9132413,13.8313369 L22.9012332,13.6897775 L22.5431059,13.7156622 C22.6674199,13.7513915 22.7908137,13.7900912 22.9132413,13.8313369 Z M22.5395633,13.6164518 L22.8928597,13.590949 L22.8809896,13.4512992 C22.7692359,13.5090517 22.6555498,13.564343 22.5395633,13.6164518 Z M23.6055715,13.0430004 L23.9209572,13.0202558 L23.9077069,12.8638022 C23.8428814,12.9020351 23.7779179,12.9406075 23.7127704,12.9793496 C23.6771602,13.0005665 23.6413658,13.0217835 23.6055715,13.0430004 Z M24.5296447,12.579283 L24.5631386,12.9738756 L24.9909221,12.9429838 L24.9573822,12.5483912 L24.5296447,12.579283 Z M24.6177502,12.4734529 L24.9490087,12.4495627 L24.9387949,12.3289656 C24.8303538,12.373309 24.7235229,12.4216836 24.6177502,12.4734529 Z M25.0430953,12.2878047 L25.0562536,12.4418397 L25.4839912,12.4109054 L25.4623213,12.1554535 C25.319098,12.1912677 25.1796934,12.235993 25.0430953,12.2878047 Z M25.4924106,12.5097339 L25.0645811,12.5406258 L25.098167,12.9352184 L25.5259046,12.9043689 L25.4924106,12.5097339 Z M25.568094,12.1308418 L25.5912361,12.4032249 L26.0189276,12.3722906 L25.9932091,12.0686338 C25.8470873,12.0796666 25.7057963,12.1011381 25.568094,12.1308418 Z M26.0273931,12.4711191 L25.5996096,12.5020109 L25.6331495,12.8966035 L26.060887,12.8657541 L26.0273931,12.4711191 Z M26.0692145,12.9645826 L25.641477,12.995432 L25.6750169,13.3900246 L26.1028004,13.3591328 L26.0692145,12.9645826 Z M26.100592,12.0626082 L26.1261725,12.3645252 L26.5539561,12.3336757 L26.5320562,12.0754656 C26.383496,12.0611654 26.2398126,12.0570069 26.100592,12.0626082 Z M26.5623295,12.4325042 L26.134592,12.4633537 L26.1680859,12.8579463 L26.5958695,12.8270968 L26.5623295,12.4325042 Z M26.6042429,12.9258829 L26.1764594,12.9568172 L26.2099993,13.3514098 L26.6377368,13.320518 L26.6042429,12.9258829 Z M26.6409574,12.087729 L26.661201,12.3259104 L27.0889385,12.2950185 L27.0785867,12.1726816 C26.927726,12.1341092 26.7820183,12.106018 26.6409574,12.087729 Z M27.097358,12.3938046 L26.6695745,12.4247388 L26.7031144,12.8193315 L27.1308519,12.7884396 L27.097358,12.3938046 Z M27.1392254,12.8872681 L26.7114879,12.9181599 L26.7449818,13.3127526 L27.1727653,13.2819031 L27.1392254,12.8872681 Z M27.1889602,12.2025551 L27.1961374,12.3358884 L27.3955826,12.3132431 C27.3565217,12.286189 27.3174148,12.2624749 27.278814,12.2436372 C27.2485407,12.2289412 27.2188194,12.2159151 27.1889602,12.2025551 Z M27.2046029,12.3860816 L27.2380508,12.7807166 L27.6657883,12.7498248 L27.6376314,12.4179494 L27.6323404,12.3552322 L27.5578073,12.3606213 L27.2046029,12.3860816 Z M27.7544,12.5228035 L27.7730333,12.7420594 L27.9138181,12.7319177 C27.8673039,12.6533301 27.8134284,12.5836961 27.7544,12.5228035 Z M27.6986842,14.8907835 C27.1399615,15.1504364 26.6116502,15.251429 26.1049628,15.251429 C25.1986488,15.251429 24.361347,14.9282526 23.5419423,14.6119929 C22.6600586,14.2716308 21.8273576,13.9501942 20.9338338,14.0274239 C20.7175957,14.0461796 20.5054522,14.0628562 20.3038906,14.0776232 C20.2621612,14.231064 20.1173737,14.3502608 19.93762,14.3621847 L18.1945562,14.4773503 C17.9709107,14.4921172 17.7747781,14.3354089 17.7587213,14.1290954 L17.7357172,13.8332465 C17.7238011,13.6789993 17.8157713,13.5390524 17.9563722,13.4720069 L15.1829105,10.719576 L14.0247941,7.9022213 L12.3057926,9.04640831 L11.7423771,10.4729503 C11.7423771,10.4729503 14.862832,13.3957108 15.3151839,13.8128782 C16.1179336,14.5533069 16.1568105,14.5994325 16.3574059,15.7381456 C16.505414,16.5780817 17.6411245,23.3340214 17.6411245,23.3340214 C17.3220582,23.4471925 16.193985,23.3719148 15.8110134,22.2556493 C15.4281338,21.1393414 13.6062582,15.7720078 13.6062582,15.7720078 L8.94857986,13.1498913 C8.94857986,13.1498913 8.54108591,15.0484253 8.33184097,16.0453668 C8.07732404,17.258127 7.87525636,17.3692188 6.86468795,18.1842887 C6.0329071,18.8551683 3.23055235,21.0882085 2.69464974,21.4932399 C2.15874712,21.8983136 0.828146208,22.626776 0,21.9675233 L5.2909341,16.1131761 C5.2909341,16.1131761 5.13896928,13.0283607 5.05606264,11.5774617 C4.97738875,10.2012038 5.60650382,9.04683265 6.69574612,8.19781567 C7.06905603,7.66094228 8.3557652,5.67698888 9.34512386,4.14508355 L6.84495046,3.10460494 C6.84495046,3.10460494 2.31480667,2.66261369 1.4732721,2.56866509 C0.631737532,2.47475893 0.295372147,1.74434463 0.391069043,1.45227227 L6.86289363,1.45227227 C6.86289363,1.45227227 9.63773553,2.04197583 10.4826287,2.22796351 C11.4952675,2.45091109 11.8034759,2.77277203 11.9504258,2.88352445 L12.5749401,4.41767877 L12.8547615,4.5268187 C12.8547615,4.5268187 12.5984962,3.67381294 12.4558251,3.18429575 C12.2782337,2.57524234 12.1518494,2.0917932 12.2253704,1.68973224 C12.291116,1.3294262 12.4674651,0.989700596 12.7314597,0.688080612 C13.4929402,-0.182535205 14.8498577,-0.180922718 15.6774978,0.434495773 C16.5044018,1.04953236 16.7165453,2.2977248 15.9652326,3.15684104 C15.7754951,3.37393274 15.208215,4.02257696 14.7633164,4.53106208 L15.5047373,5.00080508 C16.1765939,5.42645928 16.1592949,5.65840285 16.386575,7.09597767 C16.5889187,8.37569848 16.884981,9.74809487 16.884981,9.74809487 L19.4874765,13.3405043 L19.8563696,13.3161048 C20.0351112,13.3042658 20.1960016,13.4021607 20.2617012,13.5471997 C20.4634008,13.5353182 20.6758203,13.5239884 20.8926566,13.5140589 C21.8697771,13.4694609 22.6197095,13.0235233 23.4135796,12.551404 C24.531531,11.88655 25.6874851,11.1991637 27.454427,11.7458817 C28.1238452,11.9530439 28.5739887,12.5228884 28.6291524,13.2330617 C28.6849603,13.9514248 28.3197018,14.6021483 27.6986842,14.8907835 Z M26.0152469,18.0014836 C26.0152469,18.3295823 25.726914,18.5955578 25.3711792,18.5955578 C25.0154444,18.5955578 24.7270655,18.3295823 24.7270655,18.0014836 C24.7270655,17.6734273 25.0154444,17.4074093 25.3711792,17.4074093 C25.726914,17.4074093 26.0152469,17.6734273 26.0152469,18.0014836 Z" id="Fill-1"></path>
        </g>
    </g>
</svg>