<?xml version="1.0" encoding="UTF-8"?>
<svg width="44px" height="53px" viewBox="0 0 44 53" version="1.1" xmlns="http://www.w3.org/2000/svg" xmlns:xlink="http://www.w3.org/1999/xlink">
    <!-- Generator: Sketch 49.2 (51160) - http://www.bohemiancoding.com/sketch -->
    <title>location-pin-selected</title>
    <desc>Created with Sketch.</desc>
    <defs>
        <path d="M7.52,2.74985211e-16 C3.36,2.74985211e-16 0,3.37272727 0,7.54848485 L0,32.2015152 C0,36.3772727 3.36,39.75 7.52,39.75 L13.04,39.75 C13.36,39.75 15.2,39.9106061 15.36,40.1515152 L21.76,52.8393939 L28.16,40.1515152 C28.32,39.9106061 30.16,39.75 30.48,39.75 L36.08,39.75 C40.24,39.75 43.6,36.3772727 43.6,32.2015152 L43.6,7.54848485 C43.6,3.37272727 40.24,0 36.08,0 C31.5534722,4.35829201e-17 28.1585764,7.62701102e-17 25.8953125,9.80615702e-17 C21.8119097,1.37377935e-16 15.6868056,1.96352482e-16 7.52,2.74985211e-16 Z" id="path-1"></path>
        <filter x="-18.3%" y="-13.2%" width="136.7%" height="130.3%" filterUnits="objectBoundingBox" id="filter-2">
            <feOffset dx="0" dy="1" in="SourceAlpha" result="shadowOffsetOuter1"></feOffset>
            <feGaussianBlur stdDeviation="2.5" in="shadowOffsetOuter1" result="shadowBlurOuter1"></feGaussianBlur>
            <feComposite in="shadowBlurOuter1" in2="SourceAlpha" operator="out" result="shadowBlurOuter1"></feComposite>
            <feColorMatrix values="0 0 0 0 0   0 0 0 0 0   0 0 0 0 0  0 0 0 0.271993886 0" type="matrix" in="shadowBlurOuter1"></feColorMatrix>
        </filter>
    </defs>
    <g id="location-pin-selected" stroke="none" stroke-width="1" fill="none" fill-rule="evenodd">
        <g id="location-pin-orange">
            <g id="Path">
                <use fill="black" fill-opacity="1" filter="url(#filter-2)" xlink:href="#path-1"></use>
                <use fill="#EC6607" fill-rule="evenodd" xlink:href="#path-1"></use>
                <path stroke="#FFFFFF" stroke-width="1.6" d="M21.7603516,51.0637612 L27.493587,39.7089163 C27.8561269,39.1630466 29.4327868,38.95 30.48,38.95 L36.08,38.95 C39.7974937,38.95 42.8,35.9361206 42.8,32.2015152 L42.8,7.54848485 C42.8,3.81387942 39.7974937,0.8 36.08,0.8 C29.8560243,0.8 29.8560243,0.8 25.8953125,0.8 C18.7493576,0.8 18.7493576,0.8 7.52,0.8 C3.80250629,0.8 0.8,3.81387942 0.8,7.54848485 L0.8,32.2015152 C0.8,35.9361206 3.80250629,38.95 7.52,38.95 L13.04,38.95 C14.0872132,38.95 15.6638731,39.1630466 16.0742749,39.7912217 L21.7603516,51.0637612 Z M28.6049411,40.8017139 C28.6026515,40.8025804 28.6005695,40.8034023 28.5987008,40.8041765 C28.6031444,40.8023356 28.6075985,40.8004198 28.6120829,40.798383 Z"></path>
            </g>
        </g>
        <g id="tennis" transform="translate(6.000000, 6.000000)" fill="#FFFFFF">
            <path d="M21.5965667,6.92407974 L20.8537119,5.99002309 C21.060379,6.00510474 21.2687664,5.98806008 21.4743822,5.93443645 C21.6143902,5.89795323 21.7468961,5.84595746 21.8721866,5.7816091 L21.5965667,6.92407974 Z M20.4667546,5.16809729 L21.132151,4.99846467 L21.2694353,5.53929731 C21.0315651,5.58746282 20.7890597,5.57348237 20.5527663,5.50697949 L20.4667546,5.16809729 Z M20.260852,4.35708772 L20.9262485,4.18745511 L21.0955005,4.85420752 L20.430104,5.02384014 L20.260852,4.35708772 Z M20.0431945,5.27606273 L20.3227805,5.20477202 L20.3852346,5.45100983 C20.2685453,5.40519035 20.1541019,5.34644374 20.0431945,5.27606273 Z M19.8823047,5.1634531 C19.753526,5.06506331 19.6308159,4.95077794 19.5169459,4.82174607 L19.4513859,4.56339507 L20.1168301,4.39376246 L20.2860821,5.06051487 L19.8823047,5.1634531 Z M19.2454833,3.75238551 L19.9109275,3.58275289 L20.0801795,4.24950531 L19.4147831,4.41913793 L19.2454833,3.75238551 Z M19.2463912,4.46203683 C19.1240634,4.27081113 19.0189857,4.05923717 18.9353154,3.83148037 L19.1015092,3.78910812 L19.2707134,4.45581266 L19.2463912,4.46203683 Z M18.8360196,3.51706394 C18.792058,3.34915494 18.7619061,3.18172473 18.7442737,3.01668842 L18.8956066,2.97809856 L19.0648586,3.6448031 L18.8868143,3.69019167 C18.8687041,3.63326444 18.8514061,3.57576267 18.8360196,3.51706394 Z M18.7411822,2.36827337 L18.8633119,2.83384141 L18.7318521,2.86630286 C18.7212879,2.69638297 18.7246941,2.52976668 18.7411822,2.36827337 Z M19.1487679,1.18663832 L19.293172,1.14977208 L19.462424,1.81652449 L18.804912,1.98414622 C18.8758239,1.68596052 18.9927043,1.41492179 19.1487679,1.18663832 Z M19.9975605,0.529796702 L20.0659398,0.799207578 L19.4004478,0.968840194 L19.3839622,0.903869418 C19.5595218,0.732034402 19.7660455,0.603624954 19.9975605,0.529796702 Z M20.2717946,1.61021714 L19.6064459,1.77984976 L19.4371462,1.11309734 L20.1025904,0.943464725 L20.2717946,1.61021714 Z M20.8565312,0.51868895 L20.8753104,0.592900227 L20.2099139,0.762532843 L20.1411045,0.491541986 C20.3784492,0.441844369 20.6204767,0.453861808 20.8565312,0.51868895 Z M21.081213,1.40390979 L20.4158643,1.57354241 L20.2465645,0.906789991 L20.9120087,0.737157374 L21.081213,1.40390979 Z M21.2155346,0.659786133 C21.4579922,0.785083496 21.6869268,0.965919621 21.8891978,1.1917613 L21.8906791,1.19755456 L21.2252349,1.36718718 L21.0559828,0.70048264 L21.2155346,0.659786133 Z M22.0965339,2.00856413 L21.4311374,2.17814887 L21.2618376,1.51144433 L21.9272819,1.34181171 L22.0965339,2.00856413 Z M22.3764066,1.93717767 L22.2405558,1.97184151 L22.1155042,1.47946166 C22.2127453,1.62041521 22.3001906,1.77376922 22.3764066,1.93717767 Z M22.5836471,2.51162083 C22.6048155,2.58587999 22.6226869,2.65999551 22.6384079,2.73391951 L22.4464583,2.7828032 L22.2771586,2.11609866 L22.4369493,2.07540216 C22.4942904,2.21448845 22.5438905,2.35999043 22.5836471,2.51162083 Z M22.703968,3.58069413 L22.6524087,3.59381277 L22.4831567,2.92710823 L22.6663139,2.88037906 C22.7060705,3.11962664 22.7176343,3.35480458 22.703968,3.58069413 Z M22.691899,3.74974905 L22.6890115,3.73870143 L22.6931365,3.73773477 C22.6925865,3.74173953 22.6923115,3.74574429 22.691899,3.74974905 Z M22.4856415,4.49981277 L22.0488929,4.61112968 L21.8796409,3.94442514 L22.5450374,3.7748404 L22.625984,4.09370951 C22.590098,4.23624304 22.5429826,4.37212149 22.4856415,4.49981277 Z M22.1530149,5.0210632 L22.0855435,4.75543471 L22.3969538,4.6760047 C22.3263764,4.80197236 22.2447608,4.91759832 22.1530149,5.0210632 Z M21.735619,3.98114776 L21.904871,4.64785229 L21.2394746,4.81748491 L21.0702226,4.15073249 L21.735619,3.98114776 Z M20.86432,3.33972293 L21.5297642,3.17013819 L21.6990162,3.83689061 L21.0336198,4.00647535 L20.86432,3.33972293 Z M20.7202981,3.37644554 L20.8895501,4.04319796 L20.2241537,4.21283057 L20.0548539,3.54607816 L20.7202981,3.37644554 Z M19.8489513,2.73506859 L20.5144433,2.56543598 L20.6836953,3.23218839 L20.0182511,3.40182101 L19.8489513,2.73506859 Z M19.7049772,2.77174333 L19.8742292,3.43849574 L19.2088327,3.60812836 L19.0395329,2.94137594 L19.7049772,2.77174333 Z M19.6682788,2.62753406 L19.0029302,2.79716667 L18.8336304,2.13041426 L19.4990746,1.96078164 L19.6682788,2.62753406 Z M20.477745,2.42117883 L19.8123485,2.59081145 L19.6430487,1.92410691 L20.308493,1.75447429 L20.477745,2.42117883 Z M20.6217669,2.38450409 L20.4524671,1.71775168 L21.1178635,1.54816694 L21.2871155,2.21487148 L20.6217669,2.38450409 Z M21.4930659,3.02588104 L20.8276694,3.19551366 L20.6583696,2.52876124 L21.3238139,2.35912863 L21.4930659,3.02588104 Z M22.3391348,2.96378296 L22.5083868,3.63053538 L21.8429904,3.80012012 L21.6737383,3.13341558 L22.3391348,2.96378296 Z M21.6370878,2.98911055 L21.467788,2.32245389 L22.1331844,2.15282127 L22.3024364,2.81952581 L21.6370878,2.98911055 Z M21.4133617,5.50209591 L21.2761729,4.96174206 L21.9415694,4.79215732 L22.0313083,5.14554663 C21.8541719,5.30948174 21.6465013,5.43200216 21.4133617,5.50209591 Z M22.5319445,9.29577641 L21.9918862,7.38356724 C21.9918862,7.38356724 22.1482843,6.24387354 22.5820702,5.35855694 C23.0158083,4.47319246 23.3205766,3.53822613 23.0318639,2.40111784 C22.6163793,0.76507039 21.2273851,-0.271397823 19.9464313,0.0625050467 C18.6654296,0.396455794 17.9723661,1.99151947 18.3890452,3.59577577 C18.6508554,4.60413946 19.3556739,5.45752127 19.9684598,5.85984215 C20.5811502,6.26216303 21.4781572,7.55525862 21.4781572,7.55525862 L21.8880987,9.6610874 C21.7299327,9.81946863 21.5812279,9.96841785 21.4624361,10.0873474 L18.6897518,10.6288025 C18.6897518,10.6288025 15.2678699,7.52298869 15.1104684,7.37748671 C14.8120555,7.10161227 14.5963093,6.99465227 14.2596689,6.96587745 C14.0168768,6.94509829 13.7536809,6.9193398 12.677865,6.83019051 C11.3555777,6.72059721 10.8881994,7.73714807 10.6488479,8.56118052 C10.3936319,9.43965053 9.09800823,14.0128367 9.09800823,14.0128367 L8.56884483,15.2435469 C8.03968143,16.4742572 8.30259068,17.9841934 8.61180292,18.5756333 C8.92096738,19.1671211 10.510799,22.2081077 10.510799,22.2081077 C10.510799,22.2081077 7.88347454,25.439554 6.98355272,26.5593783 C6.08363089,27.6792982 6.84980445,28.4464513 6.84980445,28.4464513 C6.84980445,28.4464513 13.2743087,22.7328533 13.6531427,22.3858797 C14.0767028,21.9978744 14.2251208,21.5249331 14.0029238,21.0443792 C13.5032433,20.722398 10.904016,19.0301415 10.904016,19.0301415 L10.7539255,18.7299928 L16.6278591,21.9540658 C16.6278591,21.9540658 19.4039361,26.0306109 20.4291005,27.5172783 C21.4542172,29.0038977 22.5128785,28.3087056 22.5128785,28.3087056 C22.5128785,28.3087056 18.6364723,20.9535541 18.3832633,20.4854007 C18.0589512,19.8856299 18.0254066,19.82899 17.517125,19.392101 C17.1348505,19.0634647 12.7407014,15.2863501 12.7407014,15.2863501 L12.812999,15.1337621 C13.4656371,13.7644923 14.7226032,12.0071692 15.1782744,11.3868587 L14.2163285,10.8261566 L14.2746254,10.6378514 C14.2746254,10.6378514 17.8133877,12.3248414 17.9373879,12.3839231 C18.0755324,12.4498036 18.2717825,12.4594271 18.3829766,12.4215554 C18.4784018,12.3890461 21.8135074,11.2258442 22.3640782,11.0379699 C22.9427461,10.8405201 23.167858,10.0760481 23.0399872,9.77929879 C23.0026199,9.64447365 22.7769824,9.36984405 22.5319445,9.29577641 Z M13.271155,6.48383929 C13.271155,6.48383929 13.6261924,6.51405046 14.0220853,6.54799614 C14.3728699,6.57806368 14.6639241,6.63944358 14.7329246,6.381715 C14.894579,5.77710854 15.2100509,4.5981068 15.2994554,4.26353363 C15.578898,3.21892612 14.9097744,2.17853189 13.9846702,1.93004381 C13.0586104,1.68145997 11.9394542,2.17637737 11.6564277,3.23472594 C11.5583265,3.60137753 11.5472406,3.97018364 11.6357371,4.31687 C11.7689598,4.83960466 13.271155,6.48383929 13.271155,6.48383929 Z M26.2610317,15.3328877 C26.1626438,15.2133837 26.107214,15.0623278 26.107214,14.9024623 C26.107214,14.7419745 26.1630738,14.5909665 26.2609839,14.4719891 C26.36243,14.5889077 26.4236416,14.7389581 26.4236416,14.9024623 C26.4236416,15.0659665 26.3624777,15.2159691 26.2610317,15.3328877 Z M25.3398936,15.4707771 C25.4850623,15.3063153 25.5688282,15.092539 25.5688282,14.8642555 C25.5688282,14.6600069 25.5016913,14.4665788 25.3822783,14.3094903 C25.482243,14.2573988 25.5968298,14.2277143 25.7184887,14.2277143 C25.8486531,14.2277143 25.9702642,14.2622345 26.0751029,14.3213641 C25.9434094,14.4821392 25.8682924,14.6858612 25.8682924,14.9024623 C25.8682924,15.1182017 25.9427882,15.3220673 26.0751985,15.4835127 C25.9703597,15.5426902 25.8487009,15.5772583 25.7184887,15.5772583 C25.5791018,15.5772583 25.4494152,15.5378545 25.3398936,15.4707771 Z M25.1923357,14.4547529 C25.2804021,14.5707619 25.3299067,14.7134869 25.3299067,14.8642555 C25.3299067,15.0332657 25.2677871,15.1914554 25.1601768,15.3130662 C25.0684787,15.1991638 25.0133357,15.0570133 25.0133357,14.9024623 C25.0133357,14.7306273 25.0814283,14.5740176 25.1923357,14.4547529 Z M25.7184887,13.8623554 C25.1285914,13.8623554 24.6486936,14.3289767 24.6486936,14.9024623 C24.6486936,15.4759958 25.1285914,15.9425693 25.7184887,15.9425693 C26.3083381,15.9425693 26.7882359,15.4759958 26.7882359,14.9024623 C26.7882359,14.3289767 26.3083381,13.8623554 25.7184887,13.8623554 Z" id="Fill-1"></path>
        </g>
    </g>
</svg>