<?xml version="1.0" encoding="UTF-8"?>
<svg width="44px" height="53px" viewBox="0 0 44 53" version="1.1" xmlns="http://www.w3.org/2000/svg" xmlns:xlink="http://www.w3.org/1999/xlink">
    <!-- Generator: Sketch 49.2 (51160) - http://www.bohemiancoding.com/sketch -->
    <title>location-pin-selected</title>
    <desc>Created with Sketch.</desc>
    <defs>
        <path d="M7.52,2.74985211e-16 C3.36,2.74985211e-16 0,3.37272727 0,7.54848485 L0,32.2015152 C0,36.3772727 3.36,39.75 7.52,39.75 L13.04,39.75 C13.36,39.75 15.2,39.9106061 15.36,40.1515152 L21.76,52.8393939 L28.16,40.1515152 C28.32,39.9106061 30.16,39.75 30.48,39.75 L36.08,39.75 C40.24,39.75 43.6,36.3772727 43.6,32.2015152 L43.6,7.54848485 C43.6,3.37272727 40.24,0 36.08,0 C31.5534722,4.35829201e-17 28.1585764,7.62701102e-17 25.8953125,9.80615702e-17 C21.8119097,1.37377935e-16 15.6868056,1.96352482e-16 7.52,2.74985211e-16 Z" id="path-1"></path>
        <filter x="-18.3%" y="-13.2%" width="136.7%" height="130.3%" filterUnits="objectBoundingBox" id="filter-2">
            <feOffset dx="0" dy="1" in="SourceAlpha" result="shadowOffsetOuter1"></feOffset>
            <feGaussianBlur stdDeviation="2.5" in="shadowOffsetOuter1" result="shadowBlurOuter1"></feGaussianBlur>
            <feComposite in="shadowBlurOuter1" in2="SourceAlpha" operator="out" result="shadowBlurOuter1"></feComposite>
            <feColorMatrix values="0 0 0 0 0   0 0 0 0 0   0 0 0 0 0  0 0 0 0.271993886 0" type="matrix" in="shadowBlurOuter1"></feColorMatrix>
        </filter>
    </defs>
    <g id="location-pin-selected" stroke="none" stroke-width="1" fill="none" fill-rule="evenodd">
        <g id="location-pin-orange">
            <g id="Path">
                <use fill="black" fill-opacity="1" filter="url(#filter-2)" xlink:href="#path-1"></use>
                <use fill="#EC6607" fill-rule="evenodd" xlink:href="#path-1"></use>
                <path stroke="#FFFFFF" stroke-width="1.6" d="M21.7603516,51.0637612 L27.493587,39.7089163 C27.8561269,39.1630466 29.4327868,38.95 30.48,38.95 L36.08,38.95 C39.7974937,38.95 42.8,35.9361206 42.8,32.2015152 L42.8,7.54848485 C42.8,3.81387942 39.7974937,0.8 36.08,0.8 C29.8560243,0.8 29.8560243,0.8 25.8953125,0.8 C18.7493576,0.8 18.7493576,0.8 7.52,0.8 C3.80250629,0.8 0.8,3.81387942 0.8,7.54848485 L0.8,32.2015152 C0.8,35.9361206 3.80250629,38.95 7.52,38.95 L13.04,38.95 C14.0872132,38.95 15.6638731,39.1630466 16.0742749,39.7912217 L21.7603516,51.0637612 Z M28.6049411,40.8017139 C28.6026515,40.8025804 28.6005695,40.8034023 28.5987008,40.8041765 C28.6031444,40.8023356 28.6075985,40.8004198 28.6120829,40.798383 Z"></path>
            </g>
        </g>
        <g id="pool" transform="translate(4.000000, 6.000000)">
            <ellipse id="Oval" fill="#FFFFFF" fill-rule="evenodd" cx="5.01821172" cy="24.5308587" rx="1.25455293" ry="1.22654294"></ellipse>
            <path d="M30.9197066,17.0299617 C28.1649583,13.4060304 26.346122,11.5940648 25.4631977,11.5940648 C24.5802734,11.5940648 23.9974086,10.4604509 23.7146033,8.19322297 C22.9940113,6.85768061 22.2288035,6.70665852 21.4189797,7.74015669 C20.609156,8.77365487 19.7445069,9.84568214 18.8250323,10.9562385 C18.0597223,13.958913 17.4924782,15.7916405 17.1232998,16.4544208 C16.5695323,17.4485914 15.7863556,19.6618186 15.110992,19.6618186 C14.6607497,19.6618186 12.5475712,20.0040888 8.77145675,20.6886291 L9.52614874,22.6602011 L16.5349219,22.1173001 C18.8304434,19.485543 20.1339002,17.979714 20.4452923,17.5998131 C20.7566844,17.2199122 24.2481559,17.0299617 30.9197066,17.0299617 Z" id="Path-4" fill="#FFFFFF" fill-rule="evenodd"></path>
            <path d="M8.15459405,21.4645014 L33.2456527,5.51944321" id="Line" stroke="#FFFFFF" stroke-width="0.881577735" stroke-linecap="square"></path>
            <path d="M14.0730972,13.0807285 C14.2528116,13.4307098 14.7857387,13.3373531 15.0927017,13.3050396 L16.2038107,13.188116 C16.2038107,13.188116 17.7443447,10.9798688 17.9041047,10.2680619 C18.0101555,9.79581189 17.9773953,9.29865864 17.8244733,8.808126 C17.3826157,7.39240847 15.8100054,6.77596274 14.5400688,7.15461312 C13.2711268,7.5326561 12.3938766,8.96823547 12.8302017,10.3654882 C12.9700694,10.8130172 14.0730972,13.0807285 14.0730972,13.0807285 Z" id="Path" fill="#FFFFFF" fill-rule="evenodd" transform="translate(15.341407, 10.193000) rotate(-38.000000) translate(-15.341407, -10.193000) "></path>
        </g>
    </g>
</svg>