<?xml version="1.0" encoding="UTF-8"?>
<svg width="44px" height="53px" viewBox="0 0 44 53" version="1.1" xmlns="http://www.w3.org/2000/svg" xmlns:xlink="http://www.w3.org/1999/xlink">
    <!-- Generator: Sketch 49.2 (51160) - http://www.bohemiancoding.com/sketch -->
    <title>location-pin-selected</title>
    <desc>Created with Sketch.</desc>
    <defs>
        <path d="M7.52,2.74985211e-16 C3.36,2.74985211e-16 0,3.37272727 0,7.54848485 L0,32.2015152 C0,36.3772727 3.36,39.75 7.52,39.75 L13.04,39.75 C13.36,39.75 15.2,39.9106061 15.36,40.1515152 L21.76,52.8393939 L28.16,40.1515152 C28.32,39.9106061 30.16,39.75 30.48,39.75 L36.08,39.75 C40.24,39.75 43.6,36.3772727 43.6,32.2015152 L43.6,7.54848485 C43.6,3.37272727 40.24,0 36.08,0 C31.5534722,4.35829201e-17 28.1585764,7.62701102e-17 25.8953125,9.80615702e-17 C21.8119097,1.37377935e-16 15.6868056,1.96352482e-16 7.52,2.74985211e-16 Z" id="path-1"></path>
        <filter x="-18.3%" y="-13.2%" width="136.7%" height="130.3%" filterUnits="objectBoundingBox" id="filter-2">
            <feOffset dx="0" dy="1" in="SourceAlpha" result="shadowOffsetOuter1"></feOffset>
            <feGaussianBlur stdDeviation="2.5" in="shadowOffsetOuter1" result="shadowBlurOuter1"></feGaussianBlur>
            <feComposite in="shadowBlurOuter1" in2="SourceAlpha" operator="out" result="shadowBlurOuter1"></feComposite>
            <feColorMatrix values="0 0 0 0 0   0 0 0 0 0   0 0 0 0 0  0 0 0 0.271993886 0" type="matrix" in="shadowBlurOuter1"></feColorMatrix>
        </filter>
    </defs>
    <g id="location-pin-selected" stroke="none" stroke-width="1" fill="none" fill-rule="evenodd">
        <g id="location-pin-orange">
            <g id="Path">
                <use fill="black" fill-opacity="1" filter="url(#filter-2)" xlink:href="#path-1"></use>
                <use fill="#EC6607" fill-rule="evenodd" xlink:href="#path-1"></use>
                <path stroke="#FFFFFF" stroke-width="1.6" d="M21.7603516,51.0637612 L27.493587,39.7089163 C27.8561269,39.1630466 29.4327868,38.95 30.48,38.95 L36.08,38.95 C39.7974937,38.95 42.8,35.9361206 42.8,32.2015152 L42.8,7.54848485 C42.8,3.81387942 39.7974937,0.8 36.08,0.8 C29.8560243,0.8 29.8560243,0.8 25.8953125,0.8 C18.7493576,0.8 18.7493576,0.8 7.52,0.8 C3.80250629,0.8 0.8,3.81387942 0.8,7.54848485 L0.8,32.2015152 C0.8,35.9361206 3.80250629,38.95 7.52,38.95 L13.04,38.95 C14.0872132,38.95 15.6638731,39.1630466 16.0742749,39.7912217 L21.7603516,51.0637612 Z M28.6049411,40.8017139 C28.6026515,40.8025804 28.6005695,40.8034023 28.5987008,40.8041765 C28.6031444,40.8023356 28.6075985,40.8004198 28.6120829,40.798383 Z"></path>
            </g>
        </g>
        <g id="canoe" transform="translate(7.000000, 5.000000)" fill="#FFFFFF">
            <path d="M21.8236466,19.1289599 C21.7658248,19.1878982 21.7636725,19.2858048 21.8189281,19.3475708 L24.2754231,22.0946105 C24.3038994,22.1264213 24.3420196,22.1424593 24.3802639,22.1424593 C24.4161904,22.1424593 24.4521997,22.128277 24.4802621,22.0996472 C24.5380839,22.0407089 24.5402362,21.9428023 24.4849806,21.8810363 L22.0284442,19.1339966 C21.97323,19.072319 21.8815098,19.0698448 21.8236466,19.1289599 Z M10.9029018,7.03144326 C10.9314195,7.06320988 10.9695397,7.07929201 11.007784,7.07929201 C11.0437105,7.07929201 11.0797198,7.06506551 11.1077822,7.03652415 C11.165604,6.97754162 11.1677563,6.87963503 11.1125421,6.81786905 L8.65604706,4.07074095 C8.60075006,4.00901915 8.50907126,4.00667752 8.45120808,4.06566005 C8.39338629,4.12464259 8.39123401,4.22250499 8.44644823,4.28431516 L10.9029018,7.03144326 Z M8.33734426,20.1644458 L8.60041894,18.5507985 C8.69226329,17.9877472 8.77980309,15.8704731 8.77980309,15.8704731 C8.77980309,15.8704731 8.17343996,13.8158927 8.03478355,13.3815427 C7.79737065,12.6377884 7.78263582,12.3662478 8.55240657,11.7621076 C8.88692034,11.4995801 10.9528181,9.87051343 12.1890539,8.89560062 L11.3219339,7.92594543 L11.1307122,8.10929937 C10.992387,8.24175603 10.818963,8.30696818 10.646284,8.30696818 C10.4502611,8.30696818 10.2551073,8.22297882 10.1127672,8.05800445 L6.9838507,4.88408138 L6.97842862,4.87763085 C6.84064139,4.7147772 6.77334129,4.51785948 6.78377157,4.30821744 L6.78381296,4.30804071 C6.79416045,4.10175648 6.87917546,3.91195201 7.02304701,3.77361919 L8.46014831,2.3958137 C8.60385431,2.25770178 8.78915722,2.18758547 8.98344176,2.19876343 C9.17677433,2.20972049 9.35466844,2.30042546 9.48421906,2.45426605 L9.49485629,2.46796237 L12.1297007,6.14259635 C12.2435231,6.28168026 12.3028349,6.47696326 12.2926116,6.68019896 C12.2820572,6.889841 12.1974561,7.08569836 12.060538,7.21749229 L11.8083489,7.45938695 L12.7189697,8.47764198 C12.9682202,8.28107772 13.1209078,8.16059429 13.1209078,8.16059429 C13.1209078,8.16059429 13.3555062,8.65604758 13.2979741,9.12512441 L19.8841952,16.490342 L20.3445759,16.3756905 C20.3445759,16.3756905 20.4990019,16.7268906 20.4025218,17.0700055 L21.4972039,18.2941471 L21.7518764,18.0499109 C22.0519537,17.7628183 22.5134105,17.7867206 22.7853427,18.1016476 L25.9142592,21.2755265 L25.9200124,21.2822863 C26.0598277,21.4476141 26.1281626,21.6475362 26.1175253,21.8604477 L26.1174839,21.8605802 C26.1069709,22.0700455 26.0206728,22.262766 25.8745248,22.4032195 L25.39407,22.863946 L24.8949897,22.7015342 L25.5758547,22.0487058 C25.6341318,21.9926834 25.6672438,21.9187675 25.671507,21.8350432 C25.6755218,21.7528211 25.6493219,21.676431 25.5935283,21.6079052 L22.4654809,18.4348658 L22.4595622,18.4278851 C22.3529002,18.3012162 22.1692943,18.2907452 22.0502567,18.4047339 L21.1208862,19.2959666 C21.0691488,19.3458035 21.0367404,19.4249329 21.0323531,19.5128103 C21.0281313,19.5958718 21.0496955,19.6739408 21.0899265,19.7215245 L21.1015571,19.7364137 L22.7202776,21.9939205 L21.9865989,21.7551627 L20.751729,20.0330053 C20.6361268,19.8916681 20.5759044,19.6933808 20.5862933,19.4871849 C20.5970133,19.2743618 20.6829389,19.0755 20.822092,18.9416296 L21.0107475,18.7607056 L19.9457007,17.5696561 C19.9246746,17.5791993 19.9033173,17.5885658 19.8805529,17.5972696 C19.684116,17.6728645 19.4457512,17.7653809 19.2094144,17.8573671 L19.2133465,17.8623155 C19.2133465,17.8623155 17.6289382,18.5350698 17.2821316,18.6684543 C16.8313948,18.8419115 16.7302377,18.8683322 16.2075237,18.7569944 C15.7728048,18.6643896 13.6944901,18.096876 13.6944901,18.096876 L13.2230582,18.6929751 L12.6861061,20.4298451 C12.6861061,20.4298451 12.1677381,20.9111602 10.5949604,20.9111602 C9.10496273,20.9111602 8.33734426,20.1644458 8.33734426,20.1644458 Z M28.8907364,24.5290208 L17.0751404,20.6614012 C17.0751404,20.6614012 16.996665,20.6268512 16.914092,20.6283975 L13.2999194,20.4587399 C13.1380018,20.6887497 12.8768725,20.8893787 12.5274169,21.0457376 C12.5154138,21.0510836 12.5030382,21.0560761 12.490911,21.0613337 C12.3953001,21.1025994 12.2948881,21.1400213 12.1902956,21.1734226 L12.1902542,21.1734668 C12.0859101,21.206824 11.9773856,21.2362932 11.8653843,21.2617418 C11.5256968,21.338883 11.1540562,21.3792209 10.7683844,21.3792209 C10.6822933,21.3792209 10.595664,21.3772769 10.508414,21.373168 C9.75586147,21.3384412 9.05082464,21.1566336 8.52343359,20.8611466 C8.18577417,20.6719165 7.94095247,20.4463248 7.79861235,20.2004096 L1.4170233,19.9008137 C0.6924918,19.864408 1.05221207,20.2961513 1.92881034,21.1139099 C2.83127734,21.9557034 5.28578561,23.6252846 7.58342587,24.4917314 C9.88094197,25.3582666 13.4992535,26.3422808 15.4804261,26.6799172 C17.4615986,27.0177744 19.5803514,27.2674009 21.3690191,27.2674009 C23.1574799,27.2674009 25.6779638,27.3125546 28.4681862,26.6799172 C31.369375,26.0221846 31.4609297,25.3114782 28.8907364,24.5290208 Z M8.44644823,4.28431516 L10.9029018,7.03144326 C10.9314195,7.06320988 10.9695397,7.07929201 11.007784,7.07929201 C11.0437105,7.07929201 11.0797198,7.06506551 11.1077822,7.03652415 C11.165604,6.97754162 11.1677563,6.87963503 11.1125421,6.81786905 L8.65604706,4.07074095 C8.60075006,4.00901915 8.50907126,4.00667752 8.45120808,4.06566005 C8.39338629,4.12464259 8.39123401,4.22250499 8.44644823,4.28431516 Z M10.4165696,7.74148694 L10.4221573,7.74811419 C10.5330824,7.87986394 10.723766,7.89060009 10.8473979,7.77223738 L11.776727,6.8809163 C11.8306167,6.82900283 11.8643909,6.7468691 11.8689438,6.65589903 C11.8733312,6.56965641 11.8506909,6.48840631 11.8084731,6.43848102 L11.7975047,6.42434288 L9.16373649,2.75129944 C9.11046759,2.6909031 9.03865599,2.65538103 8.96080145,2.65096286 C8.88004961,2.6460587 8.80335398,2.67535115 8.74379381,2.73252223 L7.30677529,4.11032772 C7.24709094,4.16767554 7.21178529,4.24653982 7.20743935,4.33220809 C7.20317618,4.41783217 7.23045217,4.49727082 7.28848092,4.56835914 L10.4165696,7.74148694 Z M12.3096229,10.4356854 C12.9471527,10.5170239 13.4703219,10.9292831 13.7564095,11.2702772 C14.2591735,11.8916483 14.0251546,12.8853383 14.0251546,12.8853383 L13.7605071,12.8246769 C13.7338519,12.9635399 13.6895646,13.1013867 13.6251618,13.234727 C13.4990466,13.4962383 13.0543941,14.4175587 12.8264181,14.8900817 C12.7290689,15.0915502 12.5126821,14.9880325 12.2444751,14.8997133 C11.941873,14.8000395 11.6704789,14.7108367 11.6704789,14.7108367 C11.6704789,14.7108367 11.4151442,14.2428202 11.1752479,13.7374702 L10.9211548,13.7374702 C10.9211548,13.7374702 10.5519148,12.9232904 10.3453375,12.5196908 C10.0594155,12.8229096 9.87138089,13.0222573 9.87138089,13.0222573 L10.5483553,14.8326014 L14.0400136,15.9747418 L16.5788332,17.3135791 L19.1451358,16.6744028 L12.953982,9.751002 C12.8017083,9.91306038 12.5739807,10.1549992 12.3096229,10.4356854 Z" id="Fill-1"></path>
        </g>
    </g>
</svg>