<?xml version="1.0" encoding="UTF-8"?>
<svg width="44px" height="53px" viewBox="0 0 44 53" version="1.1" xmlns="http://www.w3.org/2000/svg" xmlns:xlink="http://www.w3.org/1999/xlink">
    <!-- Generator: Sketch 49.2 (51160) - http://www.bohemiancoding.com/sketch -->
    <title>location-pin-selected</title>
    <desc>Created with Sketch.</desc>
    <defs>
        <path d="M7.52,2.74985211e-16 C3.36,2.74985211e-16 0,3.37272727 0,7.54848485 L0,32.2015152 C0,36.3772727 3.36,39.75 7.52,39.75 L13.04,39.75 C13.36,39.75 15.2,39.9106061 15.36,40.1515152 L21.76,52.8393939 L28.16,40.1515152 C28.32,39.9106061 30.16,39.75 30.48,39.75 L36.08,39.75 C40.24,39.75 43.6,36.3772727 43.6,32.2015152 L43.6,7.54848485 C43.6,3.37272727 40.24,0 36.08,0 C31.5534722,4.35829201e-17 28.1585764,7.62701102e-17 25.8953125,9.80615702e-17 C21.8119097,1.37377935e-16 15.6868056,1.96352482e-16 7.52,2.74985211e-16 Z" id="path-1"></path>
        <filter x="-18.3%" y="-13.2%" width="136.7%" height="130.3%" filterUnits="objectBoundingBox" id="filter-2">
            <feOffset dx="0" dy="1" in="SourceAlpha" result="shadowOffsetOuter1"></feOffset>
            <feGaussianBlur stdDeviation="2.5" in="shadowOffsetOuter1" result="shadowBlurOuter1"></feGaussianBlur>
            <feComposite in="shadowBlurOuter1" in2="SourceAlpha" operator="out" result="shadowBlurOuter1"></feComposite>
            <feColorMatrix values="0 0 0 0 0   0 0 0 0 0   0 0 0 0 0  0 0 0 0.271993886 0" type="matrix" in="shadowBlurOuter1"></feColorMatrix>
        </filter>
    </defs>
    <g id="location-pin-selected" stroke="none" stroke-width="1" fill="none" fill-rule="evenodd">
        <g id="location-pin-orange">
            <g id="Path">
                <use fill="black" fill-opacity="1" filter="url(#filter-2)" xlink:href="#path-1"></use>
                <use fill="#EC6607" fill-rule="evenodd" xlink:href="#path-1"></use>
                <path stroke="#FFFFFF" stroke-width="1.6" d="M21.7603516,51.0637612 L27.493587,39.7089163 C27.8561269,39.1630466 29.4327868,38.95 30.48,38.95 L36.08,38.95 C39.7974937,38.95 42.8,35.9361206 42.8,32.2015152 L42.8,7.54848485 C42.8,3.81387942 39.7974937,0.8 36.08,0.8 C29.8560243,0.8 29.8560243,0.8 25.8953125,0.8 C18.7493576,0.8 18.7493576,0.8 7.52,0.8 C3.80250629,0.8 0.8,3.81387942 0.8,7.54848485 L0.8,32.2015152 C0.8,35.9361206 3.80250629,38.95 7.52,38.95 L13.04,38.95 C14.0872132,38.95 15.6638731,39.1630466 16.0742749,39.7912217 L21.7603516,51.0637612 Z M28.6049411,40.8017139 C28.6026515,40.8025804 28.6005695,40.8034023 28.5987008,40.8041765 C28.6031444,40.8023356 28.6075985,40.8004198 28.6120829,40.798383 Z"></path>
            </g>
        </g>
        <g id="paddleboard" transform="translate(6.000000, 5.000000)" fill="#FFFFFF">
            <path d="M27.0591787,27.5710235 L25.4985083,23.3863364 C25.4568335,23.2756074 25.3340914,23.2199933 25.2239013,23.261679 C25.1138601,23.3036641 25.0584426,23.4273731 25.1002662,23.538102 L26.5760987,27.5059739 C26.1799403,27.4497608 25.8028333,27.4064277 25.4456706,27.3749763 L24.2347706,22.7838669 L24.2274775,22.7596543 C24.2191426,22.7347428 24.2211271,22.6872661 24.2453877,22.6372933 C24.2688546,22.5889679 24.3064611,22.5518752 24.3454568,22.5382962 L25.4846663,22.1432064 C25.5798733,22.1101574 25.6858959,22.1641241 25.7178466,22.25738 L25.7218652,22.2691618 L28.100006,27.6549938 C27.7751909,27.6420138 27.4281988,27.6153051 27.0591787,27.5710235 Z M23.6337609,22.951508 L23.955252,24.1780637 C21.3286502,23.8676431 18.2145529,23.5994074 15.0701917,23.4351111 L15.5321367,19.491951 C15.5527756,19.3158231 15.5438949,19.1374485 15.5058915,18.9643159 L14.4496842,14.1559421 L15.1673336,11.8313823 L16.3996168,9.82483123 C16.3996168,9.82483123 17.561797,11.4232126 17.836404,11.7997811 C18.0760339,12.1284235 18.1620129,12.1797942 18.5631325,12.2363069 C19.1901889,12.3245706 20.4945595,12.5070887 21.1351602,12.5553142 C21.1941499,12.5597074 21.2493193,12.5529179 21.300867,12.5481752 L24.4126822,21.8512073 L24.1414985,21.9452121 C23.9468674,22.0130074 23.780466,22.1650227 23.6849614,22.3621183 C23.5926319,22.5523744 23.5742256,22.7662441 23.6337609,22.951508 Z M12.6319698,23.329624 C12.9832782,21.7689344 13.3756163,20.0554807 13.5659311,19.1899674 L13.7285619,19.409728 C13.7285619,19.409728 13.7761902,21.6378868 13.786857,23.3740554 C13.4011173,23.3575309 13.0158738,23.3426539 12.6319698,23.329624 Z M15.0396302,4.77413169 C15.2713717,5.20995858 15.5359569,5.62466809 15.5359569,5.62466809 L16.291064,6.04871318 C16.291064,6.04871318 16.7764758,6.26457979 16.8802162,6.01491538 C17.0745992,5.54608945 17.5075702,4.65541503 17.6252518,4.40040887 C17.9924363,3.60448812 17.6041664,2.6789176 16.9019962,2.35102401 C16.8798193,2.34068997 16.8566501,2.33250261 16.833977,2.32336672 C17.1821102,1.91884148 17.4887174,1.55879755 17.583974,1.43578753 L20.9641448,11.54148 L18.8734607,10.927029 L17.9162806,8.47007356 C17.6491156,7.58364259 17.4293804,7.02091169 16.5673081,6.612792 L14.592966,5.63729858 L15.0396302,4.77413169 Z M31.963753,27.2258566 C31.8996532,27.1050431 31.7502194,27.0593138 31.6299579,27.1235146 C31.6174555,27.1302043 30.6518909,27.629633 28.7650162,27.6623824 L28.2407079,26.4650316 L28.2261714,26.4318329 L31.5546457,26.4318329 C31.5546457,26.4318329 31.669797,25.8447396 30.5192262,25.373767 C29.9633146,25.1462683 28.8866172,24.9023451 27.4521122,24.6640631 L26.3030793,22.039866 C26.1871838,21.7197104 25.8840991,21.5055911 25.543904,21.5055911 C25.4548986,21.5055911 25.3668359,21.5204182 25.2817995,21.549723 L24.9302431,21.6716347 L21.8150047,12.3577693 C22.0659959,12.1382084 22.0133071,11.8143086 22.0133071,11.8143086 L21.5969067,11.7060259 L17.9603368,0.833268075 C18.1577958,0.25531069 17.6436086,5.49151873e-05 17.6436086,5.49151873e-05 L14.468041,3.00022137 L12.2102609,5.78402198 L11.8314174,9.24562577 C11.6299894,11.01055 9.90594396,12.7453707 10.557261,14.664307 C11.040986,16.0896556 11.7743627,18.511016 11.7743627,18.511016 L11.2077843,23.2896857 C10.6092056,23.2764561 10.0162829,23.2679692 9.43293536,23.2649239 C4.34330525,23.2385147 2.87962791,24.0814629 1.88166609,25.0725322 C1.35224772,25.5982203 1.08577727,26.4318329 1.08577727,26.4318329 L24.5459422,26.4318329 L24.5558648,26.4696245 L24.7808093,27.327849 C21.7369141,27.1667478 20.29973,27.8574311 20.2293294,27.8923772 C20.1070338,27.9531333 20.0568256,28.1022031 20.1172044,28.2252131 C20.1602187,28.3129277 20.2477854,28.3637991 20.3388249,28.3637991 C20.3754888,28.3637991 20.4127976,28.3555119 20.4479235,28.3380888 C20.467074,28.3285535 22.4080267,27.3957442 26.6088431,28.0123419 C30.0477556,28.5170624 31.7907035,27.6008274 31.8632374,27.561588 C31.983102,27.4967382 32.0278527,27.34667 31.963753,27.2258566 Z" id="Fill-1"></path>
        </g>
    </g>
</svg>