<?xml version="1.0" encoding="UTF-8"?>
<svg width="44px" height="53px" viewBox="0 0 44 53" version="1.1" xmlns="http://www.w3.org/2000/svg" xmlns:xlink="http://www.w3.org/1999/xlink">
    <!-- Generator: Sketch 49.2 (51160) - http://www.bohemiancoding.com/sketch -->
    <title>location-pin-selected</title>
    <desc>Created with Sketch.</desc>
    <defs>
        <path d="M7.52,2.74985211e-16 C3.36,2.74985211e-16 0,3.37272727 0,7.54848485 L0,32.2015152 C0,36.3772727 3.36,39.75 7.52,39.75 L13.04,39.75 C13.36,39.75 15.2,39.9106061 15.36,40.1515152 L21.76,52.8393939 L28.16,40.1515152 C28.32,39.9106061 30.16,39.75 30.48,39.75 L36.08,39.75 C40.24,39.75 43.6,36.3772727 43.6,32.2015152 L43.6,7.54848485 C43.6,3.37272727 40.24,0 36.08,0 C31.5534722,4.35829201e-17 28.1585764,7.62701102e-17 25.8953125,9.80615702e-17 C21.8119097,1.37377935e-16 15.6868056,1.96352482e-16 7.52,2.74985211e-16 Z" id="path-1"></path>
        <filter x="-18.3%" y="-13.2%" width="136.7%" height="130.3%" filterUnits="objectBoundingBox" id="filter-2">
            <feOffset dx="0" dy="1" in="SourceAlpha" result="shadowOffsetOuter1"></feOffset>
            <feGaussianBlur stdDeviation="2.5" in="shadowOffsetOuter1" result="shadowBlurOuter1"></feGaussianBlur>
            <feComposite in="shadowBlurOuter1" in2="SourceAlpha" operator="out" result="shadowBlurOuter1"></feComposite>
            <feColorMatrix values="0 0 0 0 0   0 0 0 0 0   0 0 0 0 0  0 0 0 0.271993886 0" type="matrix" in="shadowBlurOuter1"></feColorMatrix>
        </filter>
    </defs>
    <g id="location-pin-selected" stroke="none" stroke-width="1" fill="none" fill-rule="evenodd">
        <g id="location-pin-orange">
            <g id="Path">
                <use fill="black" fill-opacity="1" filter="url(#filter-2)" xlink:href="#path-1"></use>
                <use fill="#EC6607" fill-rule="evenodd" xlink:href="#path-1"></use>
                <path stroke="#FFFFFF" stroke-width="1.6" d="M21.7603516,51.0637612 L27.493587,39.7089163 C27.8561269,39.1630466 29.4327868,38.95 30.48,38.95 L36.08,38.95 C39.7974937,38.95 42.8,35.9361206 42.8,32.2015152 L42.8,7.54848485 C42.8,3.81387942 39.7974937,0.8 36.08,0.8 C29.8560243,0.8 29.8560243,0.8 25.8953125,0.8 C18.7493576,0.8 18.7493576,0.8 7.52,0.8 C3.80250629,0.8 0.8,3.81387942 0.8,7.54848485 L0.8,32.2015152 C0.8,35.9361206 3.80250629,38.95 7.52,38.95 L13.04,38.95 C14.0872132,38.95 15.6638731,39.1630466 16.0742749,39.7912217 L21.7603516,51.0637612 Z M28.6049411,40.8017139 C28.6026515,40.8025804 28.6005695,40.8034023 28.5987008,40.8041765 C28.6031444,40.8023356 28.6075985,40.8004198 28.6120829,40.798383 Z"></path>
            </g>
        </g>
        <g id="surf" transform="translate(6.000000, 6.000000)" fill="#FFFFFF">
            <path d="M14.4492515,2.22474311 C14.7079546,1.25516943 14.0881927,0.289103574 13.2310722,0.0586099763 C12.3732726,-0.171932341 11.3363261,0.287495819 11.0742274,1.2705649 C10.9833199,1.61087303 10.9731328,1.95337356 11.055066,2.27536303 C11.1786206,2.76051527 12.3304384,4.01773093 12.3304384,4.01773093 L13.2257361,4.17792179 C13.2257361,4.17792179 13.8958027,4.3343125 13.9706534,4.01855917 C14.1046861,3.4530679 14.3664937,2.53538085 14.4492515,2.22474311 Z M10.151376,6.93999609 L8.02373409,6.73771129 C8.02373409,6.73771129 6.00135853,7.41579412 4.87253437,7.79478581 C3.74375871,8.17372879 3.33540281,7.56882316 3.33540281,7.56882316 L7.82013826,5.32814866 L9.02822751,4.75228007 C10.2019718,4.26605599 10.4603352,4.20203811 11.3847874,4.33494586 C11.9708349,4.41918247 14.6984466,4.8564431 14.6984466,4.8564431 C15.5339802,5.21619045 18.0424245,6.95841219 18.655783,7.38734173 C18.9532454,7.59532676 19.0968345,7.7275037 19.303341,8.19575016 C19.4442621,8.51501132 20.9472427,11.9306137 21.6068311,13.4314286 C20.7295305,13.6133972 20.2601007,13.0885383 19.9159718,12.5130107 C19.5718915,11.9374344 17.6464386,8.82496699 17.6464386,8.82496699 L16.6538786,8.22352047 L16.784079,8.845137 L16.9917497,9.83702437 C17.6054963,10.8802137 18.153318,11.6485257 18.2212803,12.4417823 C18.2999633,13.3605412 17.9197916,13.9401612 17.7852738,14.1684137 C17.6622043,14.3772757 15.5738068,17.268896 15.5738068,17.268896 L16.8972525,21.1750098 C21.6561656,23.5082033 26.2053221,26.2408508 28.792983,27.859178 C28.9223587,27.9401016 29.0132177,27.996909 29.0620186,28.0266768 L29.7436304,28.4420135 L28.9656295,28.6167716 C27.7336734,28.8935003 26.4501513,29.0319621 25.1267542,29.0319621 C24.1489412,29.0319621 23.1492987,28.9563489 22.1330659,28.8048789 C20.2262408,28.5207935 18.2564499,27.9706003 16.2784609,27.1697434 C12.9716416,25.8307759 10.796751,24.2680868 10.6358439,24.1509155 C6.25918837,21.264703 3.90908027,19.0206182 3.8392746,17.6611883 C3.8166205,17.2192505 4.03709776,17.0154067 4.08153278,16.979013 L4.17869801,16.8994534 L4.30385342,16.9071025 C5.9928693,17.0107296 8.00335995,17.5215572 10.1517156,18.2799303 C10.3490537,17.0711909 10.594659,15.5673067 10.619205,15.4192958 C10.6783385,15.0632024 10.8327453,14.6753437 11.0612752,14.3992483 C11.2087937,14.2210311 13.2132206,11.8769731 13.2132206,11.8769731 L13.2111347,10.8570231 L10.151376,6.93999609 Z M14.1898209,14.6120079 L12.749806,15.6478893 L11.5724235,18.8084919 C12.5596959,19.1940121 13.5298929,19.6069128 14.5403045,20.0642947 C14.5403045,20.0642947 13.6026092,17.9291474 13.4387429,17.5550764 C13.3404619,17.3306728 13.242278,16.9871004 13.3515707,16.7003354 C13.4278282,16.5001943 14.1898209,14.6120079 14.1898209,14.6120079 Z M9.90062862,19.8179672 C9.90062862,19.8179672 9.96116891,19.4469168 10.0471769,18.9202553 C7.8617112,18.1424429 6.00116449,17.6887637 4.48072032,17.565941 C4.47805228,17.6034065 4.47955609,17.6517853 4.48988868,17.7128313 C4.53306245,17.9678797 4.75358822,18.5464279 5.74532355,19.5561467 C6.85372507,20.6845958 8.61977459,22.0506516 10.9944772,23.6162639 L11.0074293,23.6253258 C11.0293558,23.6413546 13.2393189,25.24643 16.5343018,26.5782845 C18.4636355,27.3581918 20.382394,27.8932819 22.2372651,28.1687926 C24.253868,28.4682735 26.1997435,28.4597963 28.0336098,28.1445301 C24.6584401,26.0475305 21.3906712,24.1845322 18.3145162,22.6037193 C17.9335199,22.407963 17.5581022,22.2178581 17.1880205,22.0333074 L17.9173176,24.1857989 C17.9173176,24.1857989 16.5302755,24.4251595 16.010541,22.9914806 L15.0247724,20.9893385 C13.7210702,20.3823866 12.4957114,19.8550917 11.3494722,19.407064 L10.6751369,21.2172499 C10.6751369,21.2172499 9.72085112,20.9251744 9.90062862,19.8179672 Z" id="Page-1"></path>
        </g>
    </g>
</svg>