<?xml version="1.0" encoding="UTF-8"?>
<svg width="44px" height="53px" viewBox="0 0 44 53" version="1.1" xmlns="http://www.w3.org/2000/svg" xmlns:xlink="http://www.w3.org/1999/xlink">
    <!-- Generator: Sketch 49.2 (51160) - http://www.bohemiancoding.com/sketch -->
    <title>location-pin-selected</title>
    <desc>Created with Sketch.</desc>
    <defs>
        <path d="M7.52,2.74985211e-16 C3.36,2.74985211e-16 0,3.37272727 0,7.54848485 L0,32.2015152 C0,36.3772727 3.36,39.75 7.52,39.75 L13.04,39.75 C13.36,39.75 15.2,39.9106061 15.36,40.1515152 L21.76,52.8393939 L28.16,40.1515152 C28.32,39.9106061 30.16,39.75 30.48,39.75 L36.08,39.75 C40.24,39.75 43.6,36.3772727 43.6,32.2015152 L43.6,7.54848485 C43.6,3.37272727 40.24,0 36.08,0 C31.5534722,4.35829201e-17 28.1585764,7.62701102e-17 25.8953125,9.80615702e-17 C21.8119097,1.37377935e-16 15.6868056,1.96352482e-16 7.52,2.74985211e-16 Z" id="path-1"></path>
        <filter x="-18.3%" y="-13.2%" width="136.7%" height="130.3%" filterUnits="objectBoundingBox" id="filter-2">
            <feOffset dx="0" dy="1" in="SourceAlpha" result="shadowOffsetOuter1"></feOffset>
            <feGaussianBlur stdDeviation="2.5" in="shadowOffsetOuter1" result="shadowBlurOuter1"></feGaussianBlur>
            <feComposite in="shadowBlurOuter1" in2="SourceAlpha" operator="out" result="shadowBlurOuter1"></feComposite>
            <feColorMatrix values="0 0 0 0 0   0 0 0 0 0   0 0 0 0 0  0 0 0 0.271993886 0" type="matrix" in="shadowBlurOuter1"></feColorMatrix>
        </filter>
    </defs>
    <g id="location-pin-selected" stroke="none" stroke-width="1" fill="none" fill-rule="evenodd">
        <g id="location-pin-orange">
            <g id="Path">
                <use fill="black" fill-opacity="1" filter="url(#filter-2)" xlink:href="#path-1"></use>
                <use fill="#EC6607" fill-rule="evenodd" xlink:href="#path-1"></use>
                <path stroke="#FFFFFF" stroke-width="1.6" d="M21.7603516,51.0637612 L27.493587,39.7089163 C27.8561269,39.1630466 29.4327868,38.95 30.48,38.95 L36.08,38.95 C39.7974937,38.95 42.8,35.9361206 42.8,32.2015152 L42.8,7.54848485 C42.8,3.81387942 39.7974937,0.8 36.08,0.8 C29.8560243,0.8 29.8560243,0.8 25.8953125,0.8 C18.7493576,0.8 18.7493576,0.8 7.52,0.8 C3.80250629,0.8 0.8,3.81387942 0.8,7.54848485 L0.8,32.2015152 C0.8,35.9361206 3.80250629,38.95 7.52,38.95 L13.04,38.95 C14.0872132,38.95 15.6638731,39.1630466 16.0742749,39.7912217 L21.7603516,51.0637612 Z M28.6049411,40.8017139 C28.6026515,40.8025804 28.6005695,40.8034023 28.5987008,40.8041765 C28.6031444,40.8023356 28.6075985,40.8004198 28.6120829,40.798383 Z"></path>
            </g>
        </g>
        <g id="surf" transform="translate(6.000000, 7.000000)" fill="#FFFFFF">
            <path d="M14.1312825,1.95973537 C14.3842926,1.10565571 13.7781692,0.254666032 12.9399104,0.0516284524 C12.1009874,-0.151452044 11.0868598,0.25324979 10.8305289,1.1192173 C10.7416219,1.41898849 10.731659,1.72069091 10.8117891,2.00432553 C10.9326248,2.43168723 12.0590958,3.53914543 12.0590958,3.53914543 L12.9346917,3.68025462 C12.9346917,3.68025462 13.5900128,3.81801632 13.6632164,3.53987501 C13.7942996,3.04174413 14.0503459,2.23337046 14.1312825,1.95973537 Z M9.9279857,6.11331517 L7.84716448,5.9351262 C7.84716448,5.9351262 5.86929314,6.53243693 4.76530979,6.86628375 C3.66137388,7.20008766 3.26200422,6.6672374 3.26200422,6.6672374 L7.64804896,4.69346836 L8.8295531,4.18619628 C9.97746807,3.75789042 10.230146,3.70149825 11.1342547,3.81857424 C11.7074057,3.89277673 14.3749939,4.27795159 14.3749939,4.27795159 C15.1921408,4.59484643 17.6453844,6.12953758 18.2452454,6.50737374 C18.5361619,6.69058393 18.6765912,6.80701618 18.8785533,7.21948588 C19.0163733,7.50071718 20.4862794,10.5094586 21.131353,11.8314989 C20.2733582,11.9917917 19.8142586,11.5294531 19.4777026,11.0224815 C19.1411941,10.5154669 17.2581126,7.77375144 17.2581126,7.77375144 L16.2873948,7.24394824 L16.41473,7.79151883 L16.6178307,8.66525421 C17.2180712,9.58418058 17.7538376,10.2609725 17.8203043,10.9597377 C17.8972558,11.7690555 17.5254502,12.2796321 17.3938926,12.4806956 C17.2735313,12.6646782 15.231091,15.2118536 15.231091,15.2118536 L16.525413,18.6526775 C21.1796019,20.7079448 25.62865,23.1150838 28.159367,24.5406385 C28.2858957,24.6119227 28.3747553,24.6619632 28.4224822,24.6881852 L29.0890946,25.0540477 L28.3282143,25.2079888 C27.1233685,25.4517541 25.8680915,25.5737226 24.5738169,25.5737226 C23.6175216,25.5737226 22.6398772,25.5071163 21.6460075,25.3736891 C19.7811439,25.1234435 17.8547,24.6387884 15.9202384,23.9333283 C12.6861887,22.7538563 10.5591587,21.3773122 10.4017924,21.2740982 C6.1214492,18.7316866 3.82305738,16.7549134 3.75478785,15.5574166 C3.73263228,15.1681217 3.94825773,14.9885594 3.99171492,14.9565009 L4.08674193,14.8864183 L4.20914318,14.8931562 C5.86099073,14.9844395 7.82723869,15.4344181 9.9283178,16.1024551 C10.1213133,15.0376987 10.3615138,13.7129547 10.3855197,13.5825746 C10.4433519,13.2688985 10.5943609,12.9272409 10.8178618,12.6840335 C10.9621339,12.5270453 12.9224516,10.4622076 12.9224516,10.4622076 L12.9204116,9.56375237 L9.9279857,6.11331517 Z M13.8775609,12.8714495 L12.4692349,13.7839385 L11.3177617,16.5680553 C12.2833083,16.9076529 13.2321552,17.2713696 14.2203318,17.6742689 C14.2203318,17.6742689 13.3032713,15.7934569 13.1430111,15.4639446 C13.0468929,15.2662716 12.9508696,14.963625 13.0577572,14.7110189 C13.1323365,14.5347183 13.8775609,12.8714495 13.8775609,12.8714495 Z M9.68275622,17.4572835 C9.68275622,17.4572835 9.74196427,17.1304321 9.82607955,16.6665056 C7.68870705,15.981345 5.86910337,15.5817073 4.38211797,15.473515 C4.37950864,15.5065177 4.38097935,15.5491337 4.39108457,15.602908 C4.43330826,15.8275754 4.64898116,16.3372079 5.61889245,17.2266507 C6.70290257,18.2206808 8.43008856,19.4240143 10.7525336,20.8031334 L10.7652008,20.8111159 C10.7866447,20.8252354 12.9479756,22.2391168 16.1704494,23.412323 C18.0573263,24.099329 19.9338608,24.57068 21.7479137,24.8133724 C23.7201394,25.0771796 25.6231942,25.0697121 27.4167045,24.792 C24.1158086,22.9447915 20.9199499,21.3037105 17.9114885,19.9112015 C17.5388764,19.7387633 17.1717201,19.5713034 16.8097824,19.408736 L17.5230306,21.3048263 C17.5230306,21.3048263 16.1665117,21.5156747 15.6582144,20.2527732 L14.6941385,18.489123 C13.4191255,17.9544702 12.2207319,17.4899858 11.0997167,17.0953264 L10.4402207,18.689886 C10.4402207,18.689886 9.50693489,18.4326021 9.68275622,17.4572835 Z" id="Page-1"></path>
        </g>
    </g>
</svg>