<?xml version="1.0" encoding="UTF-8"?>
<svg width="44px" height="53px" viewBox="0 0 44 53" version="1.1" xmlns="http://www.w3.org/2000/svg" xmlns:xlink="http://www.w3.org/1999/xlink">
    <!-- Generator: Sketch 49.2 (51160) - http://www.bohemiancoding.com/sketch -->
    <title>location-pin-selected</title>
    <desc>Created with Sketch.</desc>
    <defs>
        <path d="M7.52,2.74985211e-16 C3.36,2.74985211e-16 0,3.37272727 0,7.54848485 L0,32.2015152 C0,36.3772727 3.36,39.75 7.52,39.75 L13.04,39.75 C13.36,39.75 15.2,39.9106061 15.36,40.1515152 L21.76,52.8393939 L28.16,40.1515152 C28.32,39.9106061 30.16,39.75 30.48,39.75 L36.08,39.75 C40.24,39.75 43.6,36.3772727 43.6,32.2015152 L43.6,7.54848485 C43.6,3.37272727 40.24,0 36.08,0 C31.5534722,4.35829201e-17 28.1585764,7.62701102e-17 25.8953125,9.80615702e-17 C21.8119097,1.37377935e-16 15.6868056,1.96352482e-16 7.52,2.74985211e-16 Z" id="path-1"></path>
        <filter x="-18.3%" y="-13.2%" width="136.7%" height="130.3%" filterUnits="objectBoundingBox" id="filter-2">
            <feOffset dx="0" dy="1" in="SourceAlpha" result="shadowOffsetOuter1"></feOffset>
            <feGaussianBlur stdDeviation="2.5" in="shadowOffsetOuter1" result="shadowBlurOuter1"></feGaussianBlur>
            <feComposite in="shadowBlurOuter1" in2="SourceAlpha" operator="out" result="shadowBlurOuter1"></feComposite>
            <feColorMatrix values="0 0 0 0 0   0 0 0 0 0   0 0 0 0 0  0 0 0 0.271993886 0" type="matrix" in="shadowBlurOuter1"></feColorMatrix>
        </filter>
    </defs>
    <g id="location-pin-selected" stroke="none" stroke-width="1" fill="none" fill-rule="evenodd">
        <g id="location-pin-orange">
            <g id="Path">
                <use fill="black" fill-opacity="1" filter="url(#filter-2)" xlink:href="#path-1"></use>
                <use fill="#EC6607" fill-rule="evenodd" xlink:href="#path-1"></use>
                <path stroke="#FFFFFF" stroke-width="1.6" d="M21.7603516,51.0637612 L27.493587,39.7089163 C27.8561269,39.1630466 29.4327868,38.95 30.48,38.95 L36.08,38.95 C39.7974937,38.95 42.8,35.9361206 42.8,32.2015152 L42.8,7.54848485 C42.8,3.81387942 39.7974937,0.8 36.08,0.8 C29.8560243,0.8 29.8560243,0.8 25.8953125,0.8 C18.7493576,0.8 18.7493576,0.8 7.52,0.8 C3.80250629,0.8 0.8,3.81387942 0.8,7.54848485 L0.8,32.2015152 C0.8,35.9361206 3.80250629,38.95 7.52,38.95 L13.04,38.95 C14.0872132,38.95 15.6638731,39.1630466 16.0742749,39.7912217 L21.7603516,51.0637612 Z M28.6049411,40.8017139 C28.6026515,40.8025804 28.6005695,40.8034023 28.5987008,40.8041765 C28.6031444,40.8023356 28.6075985,40.8004198 28.6120829,40.798383 Z"></path>
            </g>
        </g>
        <g id="landkite" transform="translate(7.000000, 4.000000)" fill="#FFFFFF">
            <path d="M14.2729757,13.8433518 L12.7211141,13.5422935 C12.7825155,13.7126785 12.8035168,13.9342685 12.7249517,14.2139951 C12.6262287,14.5657216 12.2968708,15.7119074 12.2968708,15.7119074 L14.1006216,16.4974672 L14.2729757,13.8433518 Z M12.0148713,23.889225 L10.4369057,24.2623727 L10.8125254,28.5836227 L13.3974152,27.4179835 L12.0148713,23.889225 Z M26.273114,8.93322253 C25.3621718,9.10463611 24.1564522,9.32287203 23.4143638,9.42635521 C21.7338797,9.66073521 21.04168,9.55465825 20.7000082,8.3010539 C20.6318172,8.05093229 20.5559088,7.76704671 20.4706806,7.45986177 L15.1444456,13.6032475 L16.1160302,13.7917443 C16.2190968,13.8117344 16.2874143,13.9166039 16.2685637,14.0259007 C16.2517796,14.1229889 16.1719493,14.190964 16.0820823,14.190964 C16.0707382,14.190964 16.0592676,14.1898907 16.0477126,14.1876547 L14.7658317,13.9389641 C14.858735,14.0492448 14.9302154,14.1876547 14.9375954,14.3562956 C14.9608739,14.8875749 15.0116482,16.3417058 15.0267455,17.1519961 C15.0356015,17.6271959 14.8512286,18.1889297 14.2354433,18.0318267 C13.7830296,17.9164479 13.4988793,17.843956 13.3796189,17.8135461 C13.6595098,18.4766613 14.567247,20.6258378 14.7127802,20.950911 C15.1449517,21.9162024 15.2894727,22.9299261 14.1578481,23.2307161 C13.8878252,23.3024924 13.5741129,23.3925595 13.5741129,23.3925595 C13.5741129,23.3925595 14.0429313,25.6135571 14.1089294,25.9281209 C14.1749696,26.2427295 14.2954952,26.7208808 14.2215267,27.0463117 L15.2703269,26.5733479 C15.2573382,26.5467393 15.2448555,26.5195939 15.2335957,26.4915095 C14.9941049,25.8943122 15.2565369,25.2042306 15.8196924,24.950263 C16.3828901,24.6963402 17.0335933,24.974591 17.2730841,25.5718329 C17.4147375,25.9250799 17.3807474,26.310794 17.2127791,26.6195442 C17.2349191,26.6604187 17.2552878,26.702769 17.2730841,26.7472211 C17.5125749,27.3444184 17.2501851,28.0344553 16.6869874,28.2884229 C16.1238318,28.5423904 15.4730865,28.2641396 15.2335957,27.6668977 C15.2223782,27.6388132 15.2125522,27.6105499 15.2035276,27.582063 L9.08940616,30.3393038 C9.32333036,30.9347122 9.0609827,31.6196957 8.50027311,31.8725453 C7.93711759,32.1265129 7.28641445,31.8482174 7.04692364,31.2510201 C6.90527025,30.8977284 6.93926031,30.5119696 7.1072286,30.2032194 C7.0850465,30.1624344 7.06471993,30.1200393 7.04692364,30.0756319 C6.80743283,29.47839 7.06982266,28.788353 7.63302035,28.5343855 C8.19617588,28.2804179 8.84692119,28.5586687 9.08636983,29.1559106 C9.11023878,29.2153889 9.12892067,29.2758062 9.14300588,29.3365366 L9.70772174,29.0818535 C9.70772174,29.0818535 8.96584425,25.0168071 8.87888704,24.50118 C8.72331711,23.5787308 8.83279381,23.2112179 9.50015461,22.7948703 C10.0570266,22.4475264 11.0867654,21.8780559 11.0867654,21.8780559 C11.0867654,21.8780559 9.11766093,18.4544799 8.71661188,17.7176207 C8.26554767,16.888995 8.3019415,16.2583021 8.77906757,16.1240513 C9.10260578,16.0329557 10.3816191,15.6776962 10.8642696,15.5435348 C11.0228759,15.4994404 11.1985615,15.497741 11.373235,15.5297609 L12.1963344,13.440465 L11.3781691,13.2817521 C11.2751024,13.261762 11.2067849,13.1568925 11.2256355,13.0475956 C11.2445282,12.9382988 11.3435043,12.8659411 11.4464866,12.8858417 L12.275743,13.046746 L13.4131451,5.98744014 C13.3828661,5.99155443 13.3539788,5.99535567 13.327706,5.99862026 C12.5998294,6.08993947 12.4133479,5.89911721 12.4572483,5.00135368 C12.5689179,2.71873121 13.6658355,0.813057619 15.1626214,0.813057619 C15.1659108,0.813057619 15.1692423,0.812699855 15.172616,0.812699855 C16.4399057,0.815472524 17.5496013,1.82016271 18.3209987,3.13382665 C18.368104,3.21405518 18.2930813,3.31400545 18.2095821,3.28091229 C17.0773249,2.83169513 16.5156032,4.50795268 16.4588406,5.13663311 C16.4281821,5.47592735 16.3553944,5.51286647 16.0052883,5.5708242 C15.4340359,5.665408 14.5022611,5.82295824 13.8513049,5.92317682 L12.6906242,13.1271981 L13.383836,13.2616726 L17.6826939,3.75682759 C17.7330886,3.6454736 17.8590121,3.59847238 17.9639765,3.65191335 C18.0690252,3.7053096 18.113305,3.83888966 18.0629525,3.95019892 L13.8137724,13.3450762 L14.6541199,13.5081271 L20.3294911,6.96194401 C19.6614978,4.66259608 18.4810809,1.45372314 16.1242957,0.625455227 C16.0256571,0.590752139 16.0437485,0.437450352 16.1474056,0.429311225 L19.4262241,0.17069272 C20.2824701,0.102985921 21.0498613,0.0420319144 21.4579529,0.00902820404 C24.9196262,-0.270474763 26.481145,6.02071218 26.8442399,7.65171261 C27.0596087,8.61847983 27.0114491,8.7942313 26.273114,8.93322253 Z M7.57351665,13.7451009 C7.48816194,13.1297024 7.97304754,12.4754419 8.85468071,12.2195066 C9.73635606,11.9636608 10.3864266,12.5579064 10.6281103,13.0161572 L10.3075663,13.3187806 C10.3426528,13.411352 10.3686725,13.5096476 10.3833481,13.6133544 C10.4171695,13.8524747 10.527574,14.6475153 10.5884693,15.0797835 C10.6145312,15.264166 10.4223144,15.3062032 10.2023067,15.3848665 C9.95383345,15.473592 9.64366354,15.5521211 9.64366354,15.5521211 C9.64366354,15.5521211 8.83376375,15.1719076 8.40644197,14.8688817 L8.24931171,14.9292991 C7.96781829,14.6831128 7.64352101,14.2494137 7.57351665,13.7451009 Z" id="Fill-1"></path>
        </g>
    </g>
</svg>