<?xml version="1.0" encoding="UTF-8"?>
<svg width="44px" height="53px" viewBox="0 0 44 53" version="1.1" xmlns="http://www.w3.org/2000/svg" xmlns:xlink="http://www.w3.org/1999/xlink">
    <!-- Generator: Sketch 49.2 (51160) - http://www.bohemiancoding.com/sketch -->
    <title>location-pin-selected</title>
    <desc>Created with Sketch.</desc>
    <defs>
        <path d="M7.52,2.74985211e-16 C3.36,2.74985211e-16 0,3.37272727 0,7.54848485 L0,32.2015152 C0,36.3772727 3.36,39.75 7.52,39.75 L13.04,39.75 C13.36,39.75 15.2,39.9106061 15.36,40.1515152 L21.76,52.8393939 L28.16,40.1515152 C28.32,39.9106061 30.16,39.75 30.48,39.75 L36.08,39.75 C40.24,39.75 43.6,36.3772727 43.6,32.2015152 L43.6,7.54848485 C43.6,3.37272727 40.24,0 36.08,0 C31.5534722,4.35829201e-17 28.1585764,7.62701102e-17 25.8953125,9.80615702e-17 C21.8119097,1.37377935e-16 15.6868056,1.96352482e-16 7.52,2.74985211e-16 Z" id="path-1"></path>
        <filter x="-18.3%" y="-13.2%" width="136.7%" height="130.3%" filterUnits="objectBoundingBox" id="filter-2">
            <feOffset dx="0" dy="1" in="SourceAlpha" result="shadowOffsetOuter1"></feOffset>
            <feGaussianBlur stdDeviation="2.5" in="shadowOffsetOuter1" result="shadowBlurOuter1"></feGaussianBlur>
            <feComposite in="shadowBlurOuter1" in2="SourceAlpha" operator="out" result="shadowBlurOuter1"></feComposite>
            <feColorMatrix values="0 0 0 0 0   0 0 0 0 0   0 0 0 0 0  0 0 0 0.271993886 0" type="matrix" in="shadowBlurOuter1"></feColorMatrix>
        </filter>
    </defs>
    <g id="location-pin-selected" stroke="none" stroke-width="1" fill="none" fill-rule="evenodd">
        <g id="location-pin-orange">
            <g id="Path">
                <use fill="black" fill-opacity="1" filter="url(#filter-2)" xlink:href="#path-1"></use>
                <use fill="#EC6607" fill-rule="evenodd" xlink:href="#path-1"></use>
                <path stroke="#FFFFFF" stroke-width="1.6" d="M21.7603516,51.0637612 L27.493587,39.7089163 C27.8561269,39.1630466 29.4327868,38.95 30.48,38.95 L36.08,38.95 C39.7974937,38.95 42.8,35.9361206 42.8,32.2015152 L42.8,7.54848485 C42.8,3.81387942 39.7974937,0.8 36.08,0.8 C29.8560243,0.8 29.8560243,0.8 25.8953125,0.8 C18.7493576,0.8 18.7493576,0.8 7.52,0.8 C3.80250629,0.8 0.8,3.81387942 0.8,7.54848485 L0.8,32.2015152 C0.8,35.9361206 3.80250629,38.95 7.52,38.95 L13.04,38.95 C14.0872132,38.95 15.6638731,39.1630466 16.0742749,39.7912217 L21.7603516,51.0637612 Z M28.6049411,40.8017139 C28.6026515,40.8025804 28.6005695,40.8034023 28.5987008,40.8041765 C28.6031444,40.8023356 28.6075985,40.8004198 28.6120829,40.798383 Z"></path>
            </g>
        </g>
        <g id="ski-nautique" transform="translate(8.000000, 8.000000)" fill="#FFFFFF">
            <path d="M13.2742887,20.7768495 L11.5214085,15.7195823 L9.87425194,14.4262551 C9.87425194,14.4262551 10.5132148,15.7639708 10.568623,15.8808958 C10.6240312,15.9977787 10.6300672,16.0504559 10.6300672,16.1576617 C10.6300672,16.2648674 10.5710279,20.7895981 10.5710279,20.7895981 C11.1100674,20.801968 11.6758442,20.8269181 12.2689243,20.8679828 L13.2742887,20.7768495 Z M9.72943608,6.1579905 L9.78470283,6.51671744 L14.3483121,7.40036547 L14.7372542,7.1780019 L9.72943608,6.1579905 Z M27.3633013,21.1106684 C27.3193991,21.1312849 26.2656999,21.619517 24.3136802,21.963602 C22.5283568,22.2783191 19.6129886,22.5263902 15.8627719,21.9209385 C11.2520067,21.1767253 7.79783494,21.3833951 5.71208106,21.687888 C3.45397226,22.0175836 2.26950965,22.5295457 2.25781498,22.5346788 L1.94427521,21.9689455 C1.99482636,21.946646 3.20876143,21.4179803 5.5568909,21.0710763 C6.42144769,20.9433382 7.51428634,20.8318829 8.81979822,20.7939738 L8.68828034,16.3368568 L6.26696487,13.3975343 C6.26696487,13.3975343 5.01733276,12.3687294 4.78089294,11.2812305 C4.54445311,10.1937317 5.27942541,8.97563366 5.27942541,8.97563366 L4.22662215,8.74939923 C4.22662215,8.74939923 4.98521958,5.84150633 5.14394643,5.22069752 C5.30272044,4.59993077 5.93989135,4.04122388 6.63115011,3.89610903 C7.32240886,3.75099418 8.31216465,3.85079482 9.10193214,4.16597468 C9.82247473,4.45355369 11.5961035,5.37692003 11.5961035,5.37692003 L15.7979325,6.57170877 L16.2006913,6.34143519 C16.3387639,6.26246141 16.5220118,6.29843508 16.6102877,6.42141876 C16.6986579,6.54444452 16.6584811,6.70811421 16.5205971,6.78691969 L15.5423946,7.34613148 L27.0719719,7.34613148 L26.8426998,7.69888384 L14.9253592,7.69888384 L12.6130211,9.02073749 C12.5634602,9.04909569 12.508052,9.06260159 12.453304,9.06260159 C12.3555969,9.06260159 12.2600118,9.01964356 12.2034247,8.940796 C12.1150545,8.81772817 12.1551842,8.65410055 12.2930681,8.575253 L13.0736402,8.12905323 C13.0009729,8.12661291 12.9256178,8.1215219 12.8471503,8.11314908 C12.0914294,8.03223988 10.7883225,7.8715154 9.81992831,7.7498781 L9.4873847,9.45881688 L8.30386521,9.35152698 L8.32079418,9.51128375 L9.02619972,9.68816482 L9.05067365,10.5169477 C9.05067365,10.5169477 12.7180845,14.2451666 12.8574303,14.3867893 C13.0290779,14.5612721 13.0951433,14.7021795 13.1411204,14.882679 C13.1762987,15.0207674 14.6120081,20.655633 14.6120081,20.655633 L19.3709372,20.2244117 C19.636095,20.1770779 21.2172805,20.2049733 23.7406885,18.3775528 C23.9207299,18.247164 24.1852746,18.2715672 24.3315051,18.4323759 C24.4777357,18.5931003 24.4501966,18.829054 24.270061,18.9595269 C21.4899832,20.9729166 19.667831,20.9373636 19.5103302,20.9637864 L19.4929768,20.9667316 L15.9887254,21.2999614 C19.612187,21.8848807 22.4223974,21.6503576 24.1417497,21.350577 C26.0045032,21.0258042 27.0242501,20.5566738 27.0343415,20.5519615 L27.3633013,21.1106684 Z M6.84896334,2.03923641 C6.74588048,1.77454591 6.72829132,1.48633579 6.78690614,1.19383407 C6.95704473,0.349609812 7.90039908,-0.11013793 8.72991902,0.0226070254 C9.55877878,0.155267832 10.2215082,0.922537881 10.0540575,1.75586485 C10.0003469,2.02265907 9.81115731,2.96293934 9.71401609,3.44528107 C9.67275466,3.65085694 9.41320843,3.62216215 9.10377122,3.62186763 C8.75453442,3.62153103 8.44123043,3.62132066 8.44123043,3.62132066 C8.44123043,3.62132066 7.00410635,2.43814447 6.84896334,2.03923641 Z" id="Fill-1"></path>
        </g>
    </g>
</svg>