<?xml version="1.0" encoding="UTF-8"?>
<svg width="44px" height="53px" viewBox="0 0 44 53" version="1.1" xmlns="http://www.w3.org/2000/svg" xmlns:xlink="http://www.w3.org/1999/xlink">
    <!-- Generator: Sketch 49.2 (51160) - http://www.bohemiancoding.com/sketch -->
    <title>location-pin-selected</title>
    <desc>Created with Sketch.</desc>
    <defs>
        <path d="M7.52,2.74985211e-16 C3.36,2.74985211e-16 0,3.37272727 0,7.54848485 L0,32.2015152 C0,36.3772727 3.36,39.75 7.52,39.75 L13.04,39.75 C13.36,39.75 15.2,39.9106061 15.36,40.1515152 L21.76,52.8393939 L28.16,40.1515152 C28.32,39.9106061 30.16,39.75 30.48,39.75 L36.08,39.75 C40.24,39.75 43.6,36.3772727 43.6,32.2015152 L43.6,7.54848485 C43.6,3.37272727 40.24,0 36.08,0 C31.5534722,4.35829201e-17 28.1585764,7.62701102e-17 25.8953125,9.80615702e-17 C21.8119097,1.37377935e-16 15.6868056,1.96352482e-16 7.52,2.74985211e-16 Z" id="path-1"></path>
        <filter x="-18.3%" y="-13.2%" width="136.7%" height="130.3%" filterUnits="objectBoundingBox" id="filter-2">
            <feOffset dx="0" dy="1" in="SourceAlpha" result="shadowOffsetOuter1"></feOffset>
            <feGaussianBlur stdDeviation="2.5" in="shadowOffsetOuter1" result="shadowBlurOuter1"></feGaussianBlur>
            <feComposite in="shadowBlurOuter1" in2="SourceAlpha" operator="out" result="shadowBlurOuter1"></feComposite>
            <feColorMatrix values="0 0 0 0 0   0 0 0 0 0   0 0 0 0 0  0 0 0 0.271993886 0" type="matrix" in="shadowBlurOuter1"></feColorMatrix>
        </filter>
    </defs>
    <g id="location-pin-selected" stroke="none" stroke-width="1" fill="none" fill-rule="evenodd">
        <g id="location-pin-orange">
            <g id="Path">
                <use fill="black" fill-opacity="1" filter="url(#filter-2)" xlink:href="#path-1"></use>
                <use fill="#EC6607" fill-rule="evenodd" xlink:href="#path-1"></use>
                <path stroke="#FFFFFF" stroke-width="1.6" d="M21.7603516,51.0637612 L27.493587,39.7089163 C27.8561269,39.1630466 29.4327868,38.95 30.48,38.95 L36.08,38.95 C39.7974937,38.95 42.8,35.9361206 42.8,32.2015152 L42.8,7.54848485 C42.8,3.81387942 39.7974937,0.8 36.08,0.8 C29.8560243,0.8 29.8560243,0.8 25.8953125,0.8 C18.7493576,0.8 18.7493576,0.8 7.52,0.8 C3.80250629,0.8 0.8,3.81387942 0.8,7.54848485 L0.8,32.2015152 C0.8,35.9361206 3.80250629,38.95 7.52,38.95 L13.04,38.95 C14.0872132,38.95 15.6638731,39.1630466 16.0742749,39.7912217 L21.7603516,51.0637612 Z M28.6049411,40.8017139 C28.6026515,40.8025804 28.6005695,40.8034023 28.5987008,40.8041765 C28.6031444,40.8023356 28.6075985,40.8004198 28.6120829,40.798383 Z"></path>
            </g>
        </g>
        <g id="bateau" transform="translate(4.000000, 6.000000)" fill="#FFFFFF" fill-rule="nonzero">
            <path d="M21.5791723,26.0153312 C21.2705945,25.8999717 21.1270201,26.0153312 21.0905908,26.2784319 C21.0471855,26.4657442 21.0298958,26.6576121 21.0391611,26.849158 C21.0948766,27.2013082 20.9148729,27.3753594 20.6212953,27.5413152 C19.3034109,28.280021 17.9276681,28.8628902 16.3847789,29.0227745 C15.9102641,29.0962077 15.4239243,29.0586837 14.968321,28.9134865 C14.2627468,28.6911355 13.7939097,28.059399 13.813297,27.3571447 C13.813297,27.1871412 13.813297,27.0171377 13.813297,26.849158 C13.7665407,25.9459958 14.4913056,25.1725645 15.446188,25.1066219 C15.648291,25.0859801 15.8514993,25.0765193 16.0547721,25.078288 C17.7419499,25.078288 19.4284135,25.078288 21.1141627,25.078288 C21.3134525,25.078288 21.4398837,25.078288 21.4505983,24.819235 C21.5563147,22.3487869 21.6727457,19.8776642 21.7998912,17.4058669 C21.7998912,17.173124 21.7741764,17.0881223 21.4977421,17.1225277 C19.365555,17.3937238 17.2247963,17.6143236 15.099038,17.9320683 C14.2418773,18.0615948 13.3847167,18.0292132 12.5275561,18.0757618 C12.3837898,18.0786487 12.2415649,18.0473298 12.1139761,17.9846885 L10.7275187,17.377533 C10.7646612,17.8992764 10.855083,18.4164111 10.9975243,18.9217317 C11.0963198,19.4359595 11.5117219,19.8442319 12.0518319,19.9579437 C12.6475586,20.1198518 13.2132846,20.3748571 13.7961538,20.5792661 C14.1609584,20.6971398 14.4664214,20.9387526 14.6533144,21.2572563 C15.2961849,22.3285484 15.9454841,23.3957927 16.601212,24.4589894 C16.7255003,24.6613745 16.7040712,24.7220901 16.4426373,24.7180424 C15.9176264,24.7180424 15.3883297,24.6674461 14.880462,24.8556643 C14.7197444,24.914356 14.6661718,24.7767341 14.6061706,24.6978039 C14.1111603,24.1311255 13.6161501,23.564447 13.1339972,22.9876494 C13.0114169,22.8360843 12.8374111,22.7289068 12.6411299,22.6840716 C11.8568279,22.4816865 11.0768117,22.2691821 10.2946526,22.0587015 C9.39463395,21.8178632 8.79462151,21.3098765 8.59533167,20.4092626 C8.53904431,20.1666374 8.46748725,19.9273983 8.38104151,19.6928191 C8.22460969,19.2374525 8.07889238,18.7881575 8.40675633,18.3388625 C8.45818596,18.2680277 8.46247177,18.168859 8.3681841,18.0373086 C8.12175042,18.4420789 7.87103093,18.8205391 7.66102658,19.2151902 C7.46391607,19.5998974 7.16952851,19.9328415 6.80386594,20.184615 C6.48671651,20.403191 6.19528189,20.6581963 5.88884697,20.8949869 C5.72117989,21.0407983 5.52349214,21.1524079 5.30812064,21.2228509 C5.13454561,21.2714233 4.90954095,21.3139242 4.80668167,21.1621353 C4.70382239,21.0103465 4.92882706,20.9172493 5.02097183,20.8322475 C6.0688507,19.9417529 6.89386781,18.9156602 7.30959072,17.6224191 C7.39093799,17.4432195 7.48769214,17.2706149 7.59888243,17.1063369 C7.75897371,16.7726071 8.07689082,16.5301511 8.45604306,16.4526329 C8.95319623,16.3372734 9.4503494,16.205723 9.94321676,16.070125 C10.1604907,16.000496 10.4000062,16.0344274 10.5860872,16.1611983 C10.8239493,16.315011 11.091812,16.4263228 11.3146738,16.5943025 C12.1182619,17.2014579 13.0589957,17.3390798 14.0447304,17.4746779 C15.3454716,17.6527768 16.5904975,17.3633661 17.8548094,17.2378873 C19.1191213,17.1124085 20.3191462,16.9363334 21.5534575,16.7966876 C21.7806051,16.7703776 21.8513208,16.6975189 21.8620354,16.4850145 C22.0048955,13.0768486 22.160613,9.66800807 22.3291879,6.25849292 C22.4213327,4.25083224 22.5199061,2.24114771 22.609908,0.231463174 C22.609908,0.0452688362 22.609908,-0.0781861049 22.8777707,0.0574119451 C23.9642654,0.584267671 24.9788788,1.233972 25.8992619,1.99221397 C26.456668,2.45768735 26.8661895,3.0602642 27.0821436,3.73272626 C28.4085997,7.78042924 29.752199,11.8119414 30.8129353,15.9264315 C30.9978101,16.6040869 31.1317183,17.2932403 31.2136579,17.9887362 C31.2417176,18.1911842 31.1535443,18.3924318 30.9822245,18.5169614 C29.6321965,19.6341274 28.0957361,20.4841451 26.5099889,21.2572563 C25.1814945,21.904207 23.8157666,22.4805535 22.4191898,22.9836017 C22.2425862,23.0209028 22.1203054,23.1731751 22.1298981,23.3438472 C22.1170406,23.851834 22.0913258,24.355773 22.0527536,24.8678074 C22.0398962,25.0438825 22.1127548,25.0884072 22.2670438,25.0701926 C22.3506169,25.0701926 22.4341901,25.0701926 22.5177632,25.0701926 L30.4464991,25.0701926 C30.5943593,25.0701926 30.7979349,25.0054293 30.8750794,25.1551943 C30.9522239,25.3049593 30.8000778,25.4527005 30.7015044,25.5721077 C30.086136,26.2677203 29.3534157,26.8626331 28.532888,27.3328585 C27.1464307,28.1869239 25.6699715,28.8305086 24.002794,29.0126553 C23.4627828,29.0693231 22.9313432,29.0834901 22.4213327,28.8426517 C21.7784622,28.539074 21.4034544,28.0715643 21.4163118,27.3692878 C21.4313121,26.917969 21.3605964,26.4524831 21.5791723,26.0153312 Z M8.16246555,15.7503564 C8.40675633,15.8394059 8.66390452,15.8980976 8.914624,15.9689324 C9.25105955,16.0640534 9.54463707,15.906193 9.84464329,15.811072 C9.97750319,15.7685711 9.9989322,15.64714 9.95607417,15.5257089 C9.81249976,15.1209386 9.69249727,14.7283114 9.51463644,14.3478273 C9.29401164,13.9274659 8.79638088,13.7054589 8.31246866,13.8115067 C7.83319244,13.9273901 7.49692702,14.3339309 7.49388025,14.8011701 C7.47876297,15.2200764 7.74753166,15.6016457 8.16246555,15.7503564 Z M30.4936429,17.3147936 C30.4593565,17.1265754 30.4357846,16.9343095 30.3907836,16.7481152 C29.2764748,12.2956419 27.8385879,7.91400344 26.3685574,3.54855577 C26.2867335,3.31187201 26.1555842,3.09304693 25.9828351,2.904971 C25.3720879,2.2695287 24.6642631,1.72381344 23.8827915,1.2858898 C23.6685014,1.15433945 23.4542112,1.03088451 23.1884914,0.881119503 C23.1777769,1.03897992 23.1713482,1.12600553 23.1670624,1.21303115 C23.0542029,3.56069888 22.9413435,5.907692 22.828484,8.25401049 C22.7449108,10.0248805 22.6720522,11.7957506 22.5820503,13.5686445 C22.542184,13.7599463 22.6585936,13.9495319 22.8541988,14.011868 C23.2034917,14.1555614 23.5377844,14.3336604 23.8785057,14.4975923 L30.4014982,17.6163475 C30.6286457,17.5657512 30.4979287,17.4220578 30.4936429,17.3147936 Z M30.382212,18.2518369 C29.1671868,17.6689676 28.0250203,17.11848 26.8657105,16.5619209 C26.7467558,16.5092397 26.6129438,16.4943299 26.4842741,16.51942 C25.2156763,16.6732327 23.9470786,16.833117 22.6784809,16.9808581 C22.4834768,17.0031205 22.4106182,17.0719314 22.4020466,17.2520542 C22.3291879,18.9682803 22.2520434,20.6824825 22.1727561,22.4695434 C25.0892451,21.3402342 27.9028749,20.1340188 30.382212,18.2518369 Z M26.0428363,16.1672698 C24.9713855,15.6511877 23.8999348,15.1371294 22.8156266,14.6169996 C22.6291941,14.5259263 22.5241919,14.4915208 22.5199061,14.760693 C22.5199061,15.3152284 22.4856197,15.8677398 22.4470475,16.4202513 C22.4299043,16.6347795 22.4856197,16.6853758 22.719196,16.655018 C23.7242168,16.5234677 24.7335235,16.4121559 25.7406872,16.2927486 C25.8242604,16.2158423 26.0106928,16.3575119 26.0428363,16.1672698 Z M26.0428363,16.1672698 C25.9785493,16.2866771 25.8285462,16.205723 25.7406872,16.2927486 C26.0556937,16.315011 26.0599796,16.315011 26.0428363,16.1672698 Z M30.5279293,17.6568245 C30.6200741,17.5455127 30.5622158,17.432177 30.5022145,17.322889 C30.4722139,17.4200339 30.5322152,17.5434888 30.4100698,17.6143236 C30.4336417,17.6406337 30.4893571,17.6851585 30.5279293,17.6568245 Z" id="Shape"></path>
        </g>
    </g>
</svg>