<?xml version="1.0" encoding="UTF-8"?>
<svg width="44px" height="53px" viewBox="0 0 44 53" version="1.1" xmlns="http://www.w3.org/2000/svg" xmlns:xlink="http://www.w3.org/1999/xlink">
    <!-- Generator: Sketch 49.2 (51160) - http://www.bohemiancoding.com/sketch -->
    <title>location-pin-selected</title>
    <desc>Created with Sketch.</desc>
    <defs>
        <path d="M7.52,2.74985211e-16 C3.36,2.74985211e-16 0,3.37272727 0,7.54848485 L0,32.2015152 C0,36.3772727 3.36,39.75 7.52,39.75 L13.04,39.75 C13.36,39.75 15.2,39.9106061 15.36,40.1515152 L21.76,52.8393939 L28.16,40.1515152 C28.32,39.9106061 30.16,39.75 30.48,39.75 L36.08,39.75 C40.24,39.75 43.6,36.3772727 43.6,32.2015152 L43.6,7.54848485 C43.6,3.37272727 40.24,0 36.08,0 C31.5534722,4.35829201e-17 28.1585764,7.62701102e-17 25.8953125,9.80615702e-17 C21.8119097,1.37377935e-16 15.6868056,1.96352482e-16 7.52,2.74985211e-16 Z" id="path-1"></path>
        <filter x="-18.3%" y="-13.2%" width="136.7%" height="130.3%" filterUnits="objectBoundingBox" id="filter-2">
            <feOffset dx="0" dy="1" in="SourceAlpha" result="shadowOffsetOuter1"></feOffset>
            <feGaussianBlur stdDeviation="2.5" in="shadowOffsetOuter1" result="shadowBlurOuter1"></feGaussianBlur>
            <feComposite in="shadowBlurOuter1" in2="SourceAlpha" operator="out" result="shadowBlurOuter1"></feComposite>
            <feColorMatrix values="0 0 0 0 0   0 0 0 0 0   0 0 0 0 0  0 0 0 0.271993886 0" type="matrix" in="shadowBlurOuter1"></feColorMatrix>
        </filter>
    </defs>
    <g id="location-pin-selected" stroke="none" stroke-width="1" fill="none" fill-rule="evenodd">
        <g id="location-pin-orange">
            <g id="Path">
                <use fill="black" fill-opacity="1" filter="url(#filter-2)" xlink:href="#path-1"></use>
                <use fill="#EC6607" fill-rule="evenodd" xlink:href="#path-1"></use>
                <path stroke="#FFFFFF" stroke-width="1.6" d="M21.7603516,51.0637612 L27.493587,39.7089163 C27.8561269,39.1630466 29.4327868,38.95 30.48,38.95 L36.08,38.95 C39.7974937,38.95 42.8,35.9361206 42.8,32.2015152 L42.8,7.54848485 C42.8,3.81387942 39.7974937,0.8 36.08,0.8 C29.8560243,0.8 29.8560243,0.8 25.8953125,0.8 C18.7493576,0.8 18.7493576,0.8 7.52,0.8 C3.80250629,0.8 0.8,3.81387942 0.8,7.54848485 L0.8,32.2015152 C0.8,35.9361206 3.80250629,38.95 7.52,38.95 L13.04,38.95 C14.0872132,38.95 15.6638731,39.1630466 16.0742749,39.7912217 L21.7603516,51.0637612 Z M28.6049411,40.8017139 C28.6026515,40.8025804 28.6005695,40.8034023 28.5987008,40.8041765 C28.6031444,40.8023356 28.6075985,40.8004198 28.6120829,40.798383 Z"></path>
            </g>
        </g>
        <g id="escalade" transform="translate(6.000000, 6.000000)" fill="#FFFFFF">
            <path d="M18.7490529,6.74435807 C18.8565309,7.54462933 18.2584601,8.06587224 17.811983,8.21620624 C17.6045526,8.2860513 15.5879882,8.97170278 15.5879882,8.97170278 L15.844465,7.57735271 L18.7490529,6.74435807 Z M15.6516533,21.218558 C15.8227963,20.3505969 17.0883986,13.9319332 17.184545,13.4483397 C17.3447023,12.6428785 16.8614621,12.3105867 16.2256767,12.4012797 C15.6708134,12.4804491 13.7051118,12.9002232 13.7051118,12.9002232 L15.1978236,9.1502299 L15.6394133,6.60814262 C15.6394133,6.60814262 20.170574,4.53275929 20.4395501,4.40925494 C20.763844,4.26032839 21.0654744,3.90512143 21.0944524,3.42170393 L21.6735361,6.59283653 L19.3498917,10.4703366 L19.3772694,19.3072314 L15.6516533,21.218558 Z M19.6962002,10.5685947 L22.0362798,6.66364921 L20.8214539,0.00052779638 L20.4695229,0 L21.0315659,3.07775662 L15.4426226,4.71432125 C15.4829755,4.21265079 15.528951,3.64817256 15.5459053,3.43635028 C15.5847877,2.95060168 15.4201322,2.50369009 15.1403434,2.16598838 L16.0265937,1.7343389 L15.7384142,1.37134694 L15.0625354,1.41695735 C15.0625354,1.41695735 14.1689757,0.427559051 12.7646251,0.974883896 C11.4815496,1.474883 11.4360066,2.94642329 11.9825226,3.90098703 L12.1926345,3.79380038 C12.20894,3.88176644 12.2574673,4.01098859 12.2954414,4.09007008 C12.4277454,4.36562377 13.3834131,5.20257688 13.3834131,5.20257688 C13.3834131,5.20257688 13.2746808,5.23050611 13.2172871,5.24524042 C12.3572467,5.46581533 11.7939927,6.0423449 11.3939236,7.66962911 C10.8610749,9.83724486 10.5076733,11.5159012 10.5076733,11.5159012 C10.5076733,11.5159012 10.1742536,12.1439789 9.92132347,12.6306072 C9.66830681,13.1172794 9.04653461,14.4834364 9.77249777,15.9296864 C10.4984609,17.3759365 12.0975262,20.5125864 12.0975262,20.5125864 C12.0975262,20.5125864 11.5759659,25.3070447 11.5041265,26.1476924 C11.4322438,26.9883401 11.7403186,27.773877 12.4381688,27.8208949 C13.6494914,22.348878 13.6474586,22.3593019 13.9560525,20.9294136 C14.1232597,20.1546525 14.123822,19.951187 13.9323943,19.2276661 C13.7674794,18.6044265 13.0217506,15.7859939 13.0217506,15.7859939 L14.9352053,15.1623585 C14.9352053,15.1623585 14.6181343,19.0978282 14.585653,19.567391 C14.524237,20.4547487 14.827511,21.1329231 15.5074987,21.2925375 L14.524237,21.7969349 L16.0861932,27.8208949 L16.4439198,27.8208949 L14.9283717,21.9766935 L19.7239671,19.5180861 L19.6962002,10.5685947 Z" id="Fill-1"></path>
        </g>
    </g>
</svg>