<?xml version="1.0" encoding="UTF-8"?>
<svg width="44px" height="53px" viewBox="0 0 44 53" version="1.1" xmlns="http://www.w3.org/2000/svg" xmlns:xlink="http://www.w3.org/1999/xlink">
    <!-- Generator: Sketch 49.2 (51160) - http://www.bohemiancoding.com/sketch -->
    <title>location-pin-selected</title>
    <desc>Created with Sketch.</desc>
    <defs>
        <path d="M7.52,2.74985211e-16 C3.36,2.74985211e-16 0,3.37272727 0,7.54848485 L0,32.2015152 C0,36.3772727 3.36,39.75 7.52,39.75 L13.04,39.75 C13.36,39.75 15.2,39.9106061 15.36,40.1515152 L21.76,52.8393939 L28.16,40.1515152 C28.32,39.9106061 30.16,39.75 30.48,39.75 L36.08,39.75 C40.24,39.75 43.6,36.3772727 43.6,32.2015152 L43.6,7.54848485 C43.6,3.37272727 40.24,0 36.08,0 C31.5534722,4.35829201e-17 28.1585764,7.62701102e-17 25.8953125,9.80615702e-17 C21.8119097,1.37377935e-16 15.6868056,1.96352482e-16 7.52,2.74985211e-16 Z" id="path-1"></path>
        <filter x="-18.3%" y="-13.2%" width="136.7%" height="130.3%" filterUnits="objectBoundingBox" id="filter-2">
            <feOffset dx="0" dy="1" in="SourceAlpha" result="shadowOffsetOuter1"></feOffset>
            <feGaussianBlur stdDeviation="2.5" in="shadowOffsetOuter1" result="shadowBlurOuter1"></feGaussianBlur>
            <feComposite in="shadowBlurOuter1" in2="SourceAlpha" operator="out" result="shadowBlurOuter1"></feComposite>
            <feColorMatrix values="0 0 0 0 0   0 0 0 0 0   0 0 0 0 0  0 0 0 0.271993886 0" type="matrix" in="shadowBlurOuter1"></feColorMatrix>
        </filter>
    </defs>
    <g id="location-pin-selected" stroke="none" stroke-width="1" fill="none" fill-rule="evenodd">
        <g id="location-pin-orange">
            <g id="Path">
                <use fill="black" fill-opacity="1" filter="url(#filter-2)" xlink:href="#path-1"></use>
                <use fill="#EC6607" fill-rule="evenodd" xlink:href="#path-1"></use>
                <path stroke="#FFFFFF" stroke-width="1.6" d="M21.7603516,51.0637612 L27.493587,39.7089163 C27.8561269,39.1630466 29.4327868,38.95 30.48,38.95 L36.08,38.95 C39.7974937,38.95 42.8,35.9361206 42.8,32.2015152 L42.8,7.54848485 C42.8,3.81387942 39.7974937,0.8 36.08,0.8 C29.8560243,0.8 29.8560243,0.8 25.8953125,0.8 C18.7493576,0.8 18.7493576,0.8 7.52,0.8 C3.80250629,0.8 0.8,3.81387942 0.8,7.54848485 L0.8,32.2015152 C0.8,35.9361206 3.80250629,38.95 7.52,38.95 L13.04,38.95 C14.0872132,38.95 15.6638731,39.1630466 16.0742749,39.7912217 L21.7603516,51.0637612 Z M28.6049411,40.8017139 C28.6026515,40.8025804 28.6005695,40.8034023 28.5987008,40.8041765 C28.6031444,40.8023356 28.6075985,40.8004198 28.6120829,40.798383 Z"></path>
            </g>
        </g>
        <g id="running" transform="translate(6.000000, 7.000000)" fill="#FFFFFF">
            <path d="M20.7510216,9.7718547 L20.401439,10.7792579 C20.401439,10.7792579 21.7531761,11.0623866 22.3627769,11.1577255 C23.0217431,11.2607923 23.8622526,11.2191019 23.9874995,10.5416021 L20.7510216,9.7718547 Z M8.33395516,19.1953123 C8.91645858,18.9214572 13.8730365,16.5616982 13.8730365,16.5616982 L15.0106777,14.0866704 C14.4448977,12.7278882 15.4952998,11.6085514 15.4952998,11.6085514 L16.2414604,10.5926475 L16.2642651,6.77608308 L14.2212328,7.64877534 L15.1059208,11.4340211 C15.1059208,11.4340211 14.3199637,11.825789 13.8932924,10.8348586 C13.6964566,10.377647 13.0490716,8.76363808 12.6833469,7.90859815 C12.3358212,7.09602143 12.4307961,6.79650121 13.1948427,6.37971907 C13.9588894,5.96293693 16.586795,4.52943739 16.586795,4.52943739 C17.3612156,4.12213219 18.0004625,4.18822675 18.6076486,4.41839852 C18.6937252,4.45101873 19.6797823,4.79434439 20.1288112,4.9505716 C20.264432,4.99771228 20.4002764,5.1100527 20.422008,5.24061488 C20.5725637,6.14552062 20.8886099,7.81553701 20.6725913,8.64287823 L19.3715165,12.9517149 L22.9590973,17.4741286 L24.7343756,24.9505014 C23.8698094,25.2290748 23.3327365,24.8443027 22.994914,23.9691701 C22.313009,22.2027166 20.916691,18.4353266 20.916691,18.4353266 L16.5620229,14.7236593 L16.4477758,15.0503902 L17.4478287,16.156264 C17.4478287,16.156264 16.2946714,17.8046014 16.1575302,17.9974755 C15.9242963,18.3255079 15.480991,18.4691263 14.9738772,18.6129481 C14.4668081,18.7567698 7.53091692,20.7239474 7.53091692,20.7239474 C7.32826815,19.9303652 7.73911036,19.4749432 8.33395516,19.1953123 Z M20.98041,0.281000944 C20.5714458,0.0405794313 20.0574906,-0.0499192771 19.5710352,0.026384353 C19.0876651,0.102159227 18.6313476,0.342580739 18.3317118,0.764121689 C18.123429,1.05717481 17.998495,1.37666576 17.9760033,1.70506421 C17.9422882,2.1999803 18.8799188,4.06299281 18.8799188,4.06299281 C18.8799188,4.06299281 19.2127332,4.1898537 19.5838237,4.33147909 C19.8142405,4.41945604 20.0117023,4.51259853 20.1595751,4.48937392 C20.2226234,4.47949024 20.2765945,4.44849697 20.3203706,4.38695785 C20.6638719,3.90375576 21.3336592,2.961471 21.5236536,2.69404224 C22.1170227,1.8591764 21.7950294,0.759891637 20.98041,0.281000944 Z" id="Fill-1"></path>
        </g>
    </g>
</svg>