<?xml version="1.0" encoding="UTF-8"?>
<svg width="44px" height="53px" viewBox="0 0 44 53" version="1.1" xmlns="http://www.w3.org/2000/svg" xmlns:xlink="http://www.w3.org/1999/xlink">
    <!-- Generator: Sketch 49.2 (51160) - http://www.bohemiancoding.com/sketch -->
    <title>location-pin-selected</title>
    <desc>Created with Sketch.</desc>
    <defs>
        <path d="M7.52,2.74985211e-16 C3.36,2.74985211e-16 0,3.37272727 0,7.54848485 L0,32.2015152 C0,36.3772727 3.36,39.75 7.52,39.75 L13.04,39.75 C13.36,39.75 15.2,39.9106061 15.36,40.1515152 L21.76,52.8393939 L28.16,40.1515152 C28.32,39.9106061 30.16,39.75 30.48,39.75 L36.08,39.75 C40.24,39.75 43.6,36.3772727 43.6,32.2015152 L43.6,7.54848485 C43.6,3.37272727 40.24,0 36.08,0 C31.5534722,4.35829201e-17 28.1585764,7.62701102e-17 25.8953125,9.80615702e-17 C21.8119097,1.37377935e-16 15.6868056,1.96352482e-16 7.52,2.74985211e-16 Z" id="path-1"></path>
        <filter x="-18.3%" y="-13.2%" width="136.7%" height="130.3%" filterUnits="objectBoundingBox" id="filter-2">
            <feOffset dx="0" dy="1" in="SourceAlpha" result="shadowOffsetOuter1"></feOffset>
            <feGaussianBlur stdDeviation="2.5" in="shadowOffsetOuter1" result="shadowBlurOuter1"></feGaussianBlur>
            <feComposite in="shadowBlurOuter1" in2="SourceAlpha" operator="out" result="shadowBlurOuter1"></feComposite>
            <feColorMatrix values="0 0 0 0 0   0 0 0 0 0   0 0 0 0 0  0 0 0 0.271993886 0" type="matrix" in="shadowBlurOuter1"></feColorMatrix>
        </filter>
    </defs>
    <g id="location-pin-selected" stroke="none" stroke-width="1" fill="none" fill-rule="evenodd">
        <g id="location-pin-orange">
            <g id="Path">
                <use fill="black" fill-opacity="1" filter="url(#filter-2)" xlink:href="#path-1"></use>
                <use fill="#EC6607" fill-rule="evenodd" xlink:href="#path-1"></use>
                <path stroke="#FFFFFF" stroke-width="1.6" d="M21.7603516,51.0637612 L27.493587,39.7089163 C27.8561269,39.1630466 29.4327868,38.95 30.48,38.95 L36.08,38.95 C39.7974937,38.95 42.8,35.9361206 42.8,32.2015152 L42.8,7.54848485 C42.8,3.81387942 39.7974937,0.8 36.08,0.8 C29.8560243,0.8 29.8560243,0.8 25.8953125,0.8 C18.7493576,0.8 18.7493576,0.8 7.52,0.8 C3.80250629,0.8 0.8,3.81387942 0.8,7.54848485 L0.8,32.2015152 C0.8,35.9361206 3.80250629,38.95 7.52,38.95 L13.04,38.95 C14.0872132,38.95 15.6638731,39.1630466 16.0742749,39.7912217 L21.7603516,51.0637612 Z M28.6049411,40.8017139 C28.6026515,40.8025804 28.6005695,40.8034023 28.5987008,40.8041765 C28.6031444,40.8023356 28.6075985,40.8004198 28.6120829,40.798383 Z"></path>
            </g>
        </g>
        <g id="chasse" transform="translate(5.000000, 6.000000)" fill="#FFFFFF">
            <path d="M11.0032386,4.52623102 C11.2368722,4.26828179 11.6443014,4.24088701 11.9131311,4.4651297 C12.1820073,4.68932857 12.2105083,5.08021918 11.9767817,5.33821225 C11.7431481,5.59616148 11.3357655,5.62351243 11.0668893,5.39931356 C10.7980595,5.17507086 10.7695586,4.78418025 11.0032386,4.52623102 Z M17.8860148,23.2259505 C17.2902375,23.0717508 16.7499743,22.7411725 15.9462282,22.6384311 L15.8774167,21.3946205 L15.693625,20.1445859 C17.4251638,19.9559345 19.2751235,19.6682674 19.7567574,19.2716786 C21.0948619,18.1700141 21.3935874,17.5075426 21.6078329,17.1926999 C21.930689,16.7183538 22.0846779,16.3382896 22.5440411,16.3383334 C22.7403398,16.3383334 22.9577004,16.3395607 23.1595785,16.3412263 C23.5553375,16.3444699 23.6931465,16.3466615 23.6931465,16.3466615 C23.721043,16.3466615 23.9485394,16.3383334 24.0985298,16.5590258 C24.2283418,16.7500003 24.2717674,16.8750081 24.3136587,16.8750081 L25.633026,17.1215173 C25.6470673,17.389504 25.7366152,18.0097217 24.6314934,18.0155075 C24.2956654,18.0172608 23.9809924,18.0901966 23.6995627,18.2404954 L23.6995627,19.0356014 L23.0433428,18.8206948 C22.7687013,19.1962444 22.5671487,19.7099951 22.4647219,20.3761923 C22.4647219,20.3761923 22.4363604,21.2999004 22.4362674,21.5078815 C22.435756,22.5165792 21.5436708,23.3010341 21.5436708,23.3010341 L21.3794532,27.8465072 C21.2092377,27.8465072 20.6665103,27.7800146 20.6083925,27.2321191 C20.446732,25.7080051 20.3143164,23.5106809 20.3143164,23.5106809 C20.2048225,23.5152832 20.0250757,23.515853 19.7968354,23.5055964 L19.6777172,27.8418172 C19.4837431,27.865048 18.9197679,27.7818994 18.8803873,27.1955635 C18.8092046,26.1361964 18.6800436,24.0591901 18.6382452,23.3838759 C18.3958242,23.3438138 18.1421516,23.292224 17.8860148,23.2259505 Z M17.9292544,4.35143042 C17.7118473,5.01429639 17.05135,6.77869544 17.05135,6.77869544 L14.3787211,6.61331864 C14.3787211,6.61331864 16.3582138,5.13851527 16.4795638,5.04616199 C16.7634111,4.83024731 16.7548562,4.50400837 16.688044,4.25105595 C16.9713334,4.14625449 17.1776749,4.0964179 17.1776749,4.0964179 L18.256202,3.75242715 C18.1150454,3.9087308 18.0081552,4.11075085 17.9292544,4.35143042 Z M27.084437,0.459224148 L26.9158953,0 C26.9158953,0 18.2786122,2.66277245 16.4842597,3.2085641 C16.000301,3.3504033 15.5109026,3.82211947 15.5109026,3.82211947 L14.4217748,5.05102731 L13.6671266,5.47010167 C13.6738683,5.13386912 13.6797266,4.84124905 13.6826092,4.69971667 C13.6883745,4.40718427 13.6859568,4.14735028 13.6222597,3.91591919 C13.9125233,3.70934064 14.2367742,3.45950027 14.3505456,3.30069822 C14.2928462,3.04239833 13.5359664,3.06023781 13.0284351,3.18997948 C12.6690346,2.9713034 12.1938169,2.82196899 11.8278606,2.81530658 C11.545687,2.81022211 11.262816,2.86864969 11.0029132,2.97967525 C10.9702742,3.18533333 10.9468411,3.71087475 11.162156,4.0983465 C11.4711568,3.98675113 11.8326031,4.03715752 12.0992941,4.25960312 C12.4864517,4.58246702 12.5275061,5.14535301 12.1910272,5.5168262 C11.8545483,5.8882994 11.2678839,5.92770404 10.8807263,5.60484015 C10.5407604,5.3212494 10.4678574,4.85268911 10.6830792,4.49112187 C10.365477,4.00849162 10.4474929,3.5052605 10.510911,3.27773043 C10.131239,3.59007474 9.8718011,4.04298713 9.86101444,4.58321216 C9.85343587,4.95025835 9.91043782,5.31094896 10.103017,5.604358 C10.3793788,6.02540478 11.283506,6.79245857 11.283506,6.79245857 C11.283506,6.79245857 10.895372,7.00653233 10.8113104,7.05330069 C9.73724674,7.65103284 9.22348529,8.21238472 9.31819408,9.25943507 C9.36506028,9.77752511 9.73459657,13.9330281 9.73459657,13.9330281 C9.30289747,14.9592584 9.22157903,15.8887961 9.1910788,16.5409671 C9.16062507,17.1931382 9.01677186,21.2683854 9.01677186,21.2683854 C9.01677186,21.2683854 8.16411383,25.4989281 8.04578597,26.18108 C7.84302455,27.3496317 8.24129429,27.8494001 9.02523382,27.9094495 L10.814565,22.0358337 L12.0455932,17.9618576 L13.4099205,21.7166078 C13.4099205,21.7166078 14.0431256,26.0242504 14.1344403,26.6714247 C14.22171,27.2898453 14.7969834,28.1014321 15.7269148,27.9165502 L15.4401383,21.4828536 L14.6401583,15.8457972 L14.310979,14.1346975 C14.310979,14.1346975 14.5037906,12.1385167 14.7605784,9.43988995 C14.7688079,9.35279647 14.5870154,8.44960159 14.5870154,8.44960159 L17.4122849,8.44960159 C17.9120981,8.44960159 18.10212,8.22435076 18.2189601,7.77257799 C18.332871,7.33228912 19.351281,3.40313277 19.351281,3.40313277 L23.369221,2.12162696 L23.2649344,1.74151893 L27.084437,0.459224148 Z" id="Fill-1"></path>
        </g>
    </g>
</svg>