<?xml version="1.0" encoding="UTF-8"?>
<svg width="44px" height="53px" viewBox="0 0 44 53" version="1.1" xmlns="http://www.w3.org/2000/svg" xmlns:xlink="http://www.w3.org/1999/xlink">
    <!-- Generator: Sketch 49.2 (51160) - http://www.bohemiancoding.com/sketch -->
    <title>location-pin-selected</title>
    <desc>Created with Sketch.</desc>
    <defs>
        <path d="M7.52,2.74985211e-16 C3.36,2.74985211e-16 0,3.37272727 0,7.54848485 L0,32.2015152 C0,36.3772727 3.36,39.75 7.52,39.75 L13.04,39.75 C13.36,39.75 15.2,39.9106061 15.36,40.1515152 L21.76,52.8393939 L28.16,40.1515152 C28.32,39.9106061 30.16,39.75 30.48,39.75 L36.08,39.75 C40.24,39.75 43.6,36.3772727 43.6,32.2015152 L43.6,7.54848485 C43.6,3.37272727 40.24,0 36.08,0 C31.5534722,4.35829201e-17 28.1585764,7.62701102e-17 25.8953125,9.80615702e-17 C21.8119097,1.37377935e-16 15.6868056,1.96352482e-16 7.52,2.74985211e-16 Z" id="path-1"></path>
        <filter x="-18.3%" y="-13.2%" width="136.7%" height="130.3%" filterUnits="objectBoundingBox" id="filter-2">
            <feOffset dx="0" dy="1" in="SourceAlpha" result="shadowOffsetOuter1"></feOffset>
            <feGaussianBlur stdDeviation="2.5" in="shadowOffsetOuter1" result="shadowBlurOuter1"></feGaussianBlur>
            <feComposite in="shadowBlurOuter1" in2="SourceAlpha" operator="out" result="shadowBlurOuter1"></feComposite>
            <feColorMatrix values="0 0 0 0 0   0 0 0 0 0   0 0 0 0 0  0 0 0 0.271993886 0" type="matrix" in="shadowBlurOuter1"></feColorMatrix>
        </filter>
    </defs>
    <g id="location-pin-selected" stroke="none" stroke-width="1" fill="none" fill-rule="evenodd">
        <g id="location-pin-orange">
            <g id="Path">
                <use fill="black" fill-opacity="1" filter="url(#filter-2)" xlink:href="#path-1"></use>
                <use fill="#EC6607" fill-rule="evenodd" xlink:href="#path-1"></use>
                <path stroke="#FFFFFF" stroke-width="1.6" d="M21.7603516,51.0637612 L27.493587,39.7089163 C27.8561269,39.1630466 29.4327868,38.95 30.48,38.95 L36.08,38.95 C39.7974937,38.95 42.8,35.9361206 42.8,32.2015152 L42.8,7.54848485 C42.8,3.81387942 39.7974937,0.8 36.08,0.8 C29.8560243,0.8 29.8560243,0.8 25.8953125,0.8 C18.7493576,0.8 18.7493576,0.8 7.52,0.8 C3.80250629,0.8 0.8,3.81387942 0.8,7.54848485 L0.8,32.2015152 C0.8,35.9361206 3.80250629,38.95 7.52,38.95 L13.04,38.95 C14.0872132,38.95 15.6638731,39.1630466 16.0742749,39.7912217 L21.7603516,51.0637612 Z M28.6049411,40.8017139 C28.6026515,40.8025804 28.6005695,40.8034023 28.5987008,40.8041765 C28.6031444,40.8023356 28.6075985,40.8004198 28.6120829,40.798383 Z"></path>
            </g>
        </g>
        <g id="hockey-sur-gazon" transform="translate(7.000000, 7.000000)" fill="#FFFFFF">
            <path d="M26.6358997,22.9760953 C26.6358997,23.5988874 26.3160478,23.909176 26.1254123,24.0387037 C25.892681,24.1968334 25.6587686,24.2603453 25.4380377,24.2603453 C24.9854732,24.2603453 24.588375,23.9932968 24.3708568,23.7279817 L17.9355496,16.8002739 C17.9659757,16.8022 17.996449,16.8035483 18.0270168,16.8035483 C18.061695,16.8035483 18.0964677,16.8022482 18.1312876,16.7997443 C18.5015032,16.7728276 18.7958426,16.6076196 18.9938011,16.4548829 C18.9938011,16.4548829 25.0331439,22.9590497 25.1350997,23.0681611 C25.2371027,23.1772243 25.3863512,23.3141673 25.5698999,23.189503 C25.6260275,23.1513188 25.6344372,23.0394146 25.6344372,22.9760953 C25.6344372,22.6942161 25.858617,22.465737 26.1351448,22.465737 C26.4117199,22.465737 26.6358997,22.6942161 26.6358997,22.9760953 Z M18.7411323,16.1677071 C18.7411323,16.1677071 18.0767191,16.6207168 17.4857253,16.3077318 C16.6929461,15.8878984 14.243693,13.8450689 14.243693,13.8450689 L13.7222919,14.6573856 C13.7222919,14.6573856 16.4239303,17.7348474 16.5620289,17.9208568 C16.8077526,18.2516098 16.8849045,18.744152 16.6360153,19.2543658 C16.4737743,19.5868522 12.4466166,27.5029187 12.4466166,27.5029187 C11.2617472,27.3147425 11.3662069,25.7780339 11.6562469,25.042519 C11.9463342,24.306956 14.0218283,19.0309426 14.0218283,19.0309426 C14.0147414,19.0272349 11.0269844,17.4496939 9.87126536,16.4303737 L9.72801705,16.719283 L11.1125459,17.9920729 C11.1125459,17.9920729 9.67028307,19.9401883 9.46863935,20.213978 C9.33465116,20.3959909 9.07744675,20.6402155 8.7700204,20.8270917 C8.4625468,21.0139678 1.28094995,24.9538239 1.28094995,24.9538239 C0.779486392,24.3999848 1.09844065,23.422412 1.8206351,22.8822961 L7.03705609,18.8224945 L8.86493657,14.9806269 C8.57380991,13.4433887 9.93703107,11.9354267 10.1282335,11.764922 L11.5254242,8.50202863 C11.7436511,9.41950824 12.2060899,10.4532257 12.5647776,11.2948185 L12.7270658,10.9085949 C12.5979439,10.6222376 12.3277942,9.8412195 12.0993151,9.0298659 C11.8362522,8.0955814 11.6974922,7.47847115 11.7522498,7.15190735 C12.0587785,5.32311152 13.8049715,4.83543264 14.8313324,5.12386041 C15.9517117,5.43867524 17.4008724,5.82817312 17.7835136,5.94845569 C18.5966556,6.20409226 18.7804878,6.97085752 18.2263455,7.98839605 C17.9709364,8.45739214 17.5320731,9.23219871 17.5320731,9.23219871 L17.525317,9.24216608 L17.7996716,14.4902034 L16.3572197,12.8698075 L16.1169292,11.3138383 L15.3708758,12.4112121 L18.7411323,16.1677071 Z M14.9201539,2.46035749 C14.8687035,2.06883725 14.9269572,1.66604954 15.0789932,1.27679242 C15.5175258,0.153224178 16.786067,-0.245133585 17.7525206,0.146771871 C18.7181237,0.538388417 19.3079836,1.76500097 18.8750732,2.87397929 C18.7364077,3.22924142 18.2191169,4.5623652 17.9685742,5.20422535 C17.8617521,5.47791875 17.585933,5.37005928 17.216804,5.26942255 C16.8073747,5.1576628 16.2524292,4.98287268 16.2524292,4.98287268 C16.2524292,4.98287268 14.9977782,3.05045472 14.9201539,2.46035749 Z M28.464105,20.8775682 C28.4482608,20.8789092 28.4328903,20.8731161 28.420994,20.8623345 C28.4090976,20.8515528 28.4020441,20.8366946 28.4010966,20.8204416 C28.4001491,20.8042424 28.4054129,20.7886331 28.4159933,20.7764568 C28.426521,20.7643342 28.4411019,20.7571464 28.4569461,20.7561273 C28.4581568,20.7560736 28.4593675,20.75602 28.4605256,20.75602 C28.4917929,20.75602 28.5181648,20.7809626 28.5201125,20.8132002 C28.5220601,20.8466716 28.4969515,20.8755299 28.464105,20.8775682 Z M28.4452127,20.6542276 C28.4042509,20.6567796 28.3666907,20.6754143 28.3394773,20.7067128 C28.3122639,20.7380113 28.2986572,20.778266 28.301114,20.8199652 C28.3035235,20.8617126 28.3217603,20.8999931 28.3524698,20.9277766 C28.3808171,20.9534413 28.4166292,20.967309 28.4542838,20.967309 C28.4573548,20.967309 28.460473,20.9672127 28.4635912,20.9670201 C28.5482079,20.9618197 28.6129342,20.8874737 28.6078789,20.8012824 L28.6078789,20.8012343 C28.6027291,20.7149949 28.5297821,20.6492199 28.4452127,20.6542276 Z M28.109629,20.7773622 C28.1108381,20.7772548 28.1120472,20.7772548 28.1132563,20.7772548 C28.1445356,20.7772548 28.1708733,20.8022219 28.1727658,20.8344376 C28.1747635,20.8679419 28.1496349,20.8968822 28.1168311,20.8988689 C28.0840273,20.9010166 28.0557445,20.8752441 28.0537468,20.8417935 C28.0518543,20.8082892 28.0769303,20.7794025 28.109629,20.7773622 Z M28.1071713,20.9884957 C28.1102422,20.9884957 28.1133132,20.9883994 28.1164314,20.9882068 C28.2010008,20.9830064 28.2657744,20.9087086 28.2606718,20.8224691 C28.2556166,20.7362779 28.1826223,20.6702621 28.0979584,20.6754624 C28.0134835,20.6806628 27.9488044,20.7549607 27.9538124,20.8412482 C27.958726,20.9242615 28.0266177,20.9884957 28.1071713,20.9884957 Z M27.8106385,20.899706 C27.8000762,20.9118406 27.7855203,20.9190891 27.7695981,20.9200555 C27.7368077,20.9222033 27.7085366,20.8964307 27.7065397,20.8630876 C27.704648,20.8295296 27.7297137,20.8005355 27.7623989,20.7985489 C27.7636075,20.7984952 27.7648161,20.7984415 27.7659722,20.7984415 C27.7972912,20.7984415 27.8236706,20.8234086 27.8255623,20.855678 C27.8265082,20.8718932 27.8212008,20.8875177 27.8106385,20.899706 Z M27.7507514,20.6966491 C27.6663237,20.7018013 27.6016446,20.7761473 27.6065581,20.8624831 C27.6115662,20.9454963 27.6794107,21.0096823 27.7599642,21.0096823 C27.7629879,21.0096823 27.7661061,21.009586 27.7691771,21.0093934 C27.8101862,21.0069377 27.8477463,20.9883031 27.8750542,20.9570046 C27.9022676,20.9256579 27.9159216,20.8854514 27.913512,20.843704 C27.9084568,20.7574645 27.8354625,20.6915451 27.7507514,20.6966491 Z M27.913512,20.8437775 L27.913512,20.8436558 L27.913512,20.8437775 Z M28.203901,21.3632936 C28.2058461,21.3967991 28.1807702,21.4256868 28.1479664,21.4276735 C28.131985,21.4286937 28.1167397,21.4232169 28.1048062,21.4124243 C28.0929254,21.4016853 28.0858284,21.3868119 28.0848821,21.3705961 C28.082937,21.3370906 28.108013,21.3082029 28.1407642,21.3061625 C28.1420259,21.3061088 28.143235,21.3060551 28.1444442,21.3060551 C28.1590061,21.3060551 28.1729372,21.3114246 28.1839244,21.3214655 C28.1958578,21.3322044 28.2029548,21.3470779 28.203901,21.3632399 L28.203901,21.3632936 Z M28.1290932,21.2042628 C28.044571,21.2094631 27.9798919,21.2838091 27.9849472,21.3700004 C27.9873567,21.4117478 28.0055935,21.4500283 28.0363503,21.4778117 C28.0646976,21.5034765 28.1005097,21.517296 28.1381643,21.517296 C28.1412825,21.517296 28.1444007,21.5171997 28.1475189,21.5170071 C28.2321356,21.5118549 28.2968146,21.437557 28.2918066,21.3513176 C28.2893971,21.3095702 28.2710659,21.2712416 28.240309,21.2434581 C28.2095995,21.2156747 28.1701023,21.2017589 28.1290932,21.2042628 Z M28.0373548,20.2648782 C28.0479785,20.2526864 28.0625466,20.2454895 28.0784822,20.2445228 C28.0796918,20.2444153 28.0809014,20.2443616 28.082111,20.2443616 C28.0967318,20.2443616 28.1106162,20.2497325 28.121608,20.2597222 C28.133494,20.2705176 28.140594,20.285341 28.141488,20.3015609 L28.141488,20.3016146 C28.143434,20.3350749 28.1183473,20.3639699 28.0855296,20.3660108 C28.0696466,20.3668702 28.0543422,20.3615531 28.0424563,20.3508114 C28.0305178,20.3399623 28.0234178,20.3250851 28.0224711,20.3088115 C28.0215244,20.2926454 28.0268363,20.2770163 28.0373548,20.2648782 Z M28.0757058,20.4556025 C28.078824,20.4556025 28.0819422,20.4555062 28.0851076,20.4553136 C28.169677,20.4501132 28.2344034,20.3758154 28.2293953,20.2896241 C28.2269386,20.2478767 28.2087018,20.2095481 28.1779923,20.1818128 C28.1472827,20.1540293 28.1077855,20.1401617 28.0667764,20.1425693 C28.0257673,20.1450731 27.9882072,20.1637078 27.9609465,20.1949581 C27.9336859,20.2263048 27.9200319,20.2665595 27.9224887,20.3082587 C27.9249454,20.3500061 27.9432295,20.3883348 27.973939,20.4160701 C28.0022863,20.441783 28.0380984,20.4556025 28.0757058,20.4556025 Z M28.6658491,21.3367277 C28.6564473,21.3475136 28.6462422,21.3572884 28.6363207,21.3674484 C28.6385412,21.3553623 28.6397696,21.3429392 28.6390137,21.3301309 L28.6390137,21.3300346 C28.6339112,21.2438433 28.5608224,21.1781165 28.4763002,21.1830761 C28.3917781,21.1882764 28.327099,21.2626224 28.3321543,21.3487656 C28.334611,21.3905129 28.3528005,21.4288416 28.3835101,21.4565769 C28.4085975,21.4793044 28.439685,21.4921127 28.4725206,21.4949055 C28.3752894,21.5506168 28.2665775,21.5843229 28.15196,21.5913531 C28.037248,21.5984313 27.9253234,21.5781595 27.8221865,21.5345824 C27.8957005,21.5190776 27.9491824,21.4510394 27.9445996,21.3725043 C27.9421428,21.3307569 27.9238588,21.2924282 27.8930547,21.2646448 C27.8623452,21.2369095 27.822848,21.2232345 27.7818861,21.2254976 C27.7409243,21.2280015 27.7033641,21.2466361 27.6761507,21.2779346 C27.6489373,21.3092331 27.6352834,21.3494878 27.6377874,21.3911871 C27.6385433,21.4039472 27.6411891,21.4161777 27.6447797,21.4280712 C27.6337715,21.4191631 27.6224326,21.4106884 27.6118024,21.4010581 C27.5006338,21.3005177 27.4231512,21.1715679 27.3859217,21.0283651 C27.3946622,21.0299542 27.4035915,21.030869 27.4125682,21.030869 C27.4156864,21.030869 27.4188518,21.0307727 27.4220173,21.0305801 C27.4629791,21.0280762 27.5005393,21.0094416 27.5277999,20.9781912 C27.5551078,20.9468446 27.5687618,20.906638 27.5662577,20.8648906 C27.563801,20.8231432 27.545517,20.7848146 27.5148074,20.7570793 C27.4840978,20.7292477 27.4445534,20.7153319 27.4036388,20.717884 C27.3913077,20.7186062 27.3794964,20.7212546 27.3679685,20.7248178 C27.388095,20.5780037 27.4499866,20.4403866 27.5486824,20.3269415 C27.5575646,20.3167334 27.5672499,20.3075365 27.5766045,20.297858 C27.5751871,20.3082106 27.5746674,20.3188039 27.5753289,20.3294936 C27.5777856,20.371241 27.5960224,20.4095214 27.626732,20.4372567 C27.6550793,20.4629215 27.6908913,20.4767892 27.7284987,20.4767892 C27.7316169,20.4767892 27.7347351,20.4766929 27.7378533,20.4765002 C27.82247,20.471348 27.8872436,20.397002 27.882141,20.3107626 C27.8797315,20.2690152 27.8614475,20.2306866 27.8306907,20.2029513 C27.8074459,20.1819572 27.7791459,20.16886 27.7490505,20.1648634 C27.8444864,20.1115115 27.9507415,20.0791537 28.062666,20.0723161 C28.0779263,20.0714013 28.0931394,20.0709679 28.1083524,20.0709679 C28.2045442,20.0709679 28.298232,20.0900841 28.3856362,20.125957 C28.3558243,20.1335168 28.3289416,20.1498883 28.3081536,20.1737715 C28.2808929,20.2051181 28.267239,20.2453728 28.269743,20.2870721 C28.2721997,20.3288194 28.2904365,20.3670999 28.3210988,20.3948834 C28.3494461,20.4205481 28.3853054,20.4343676 28.4228656,20.4343676 C28.4259838,20.4343676 28.4291492,20.4342713 28.4322674,20.4341269 C28.4732765,20.431623 28.5108367,20.4129884 28.5380973,20.3816898 C28.565358,20.3503432 28.5790119,20.3101366 28.5765551,20.2683411 C28.575941,20.2575552 28.5741456,20.24701 28.5714526,20.2368018 C28.5818939,20.2453247 28.5926186,20.2535104 28.6026819,20.2626111 C28.7139923,20.3631997 28.7914748,20.492294 28.8287043,20.635593 C28.8168457,20.6334261 28.8047508,20.6322224 28.7924198,20.6330409 C28.7078503,20.6382413 28.6432185,20.7125873 28.6482738,20.7988267 C28.6531873,20.88184 28.7210318,20.9460742 28.8015381,20.9460742 C28.8046091,20.9460742 28.8077273,20.9459778 28.8107983,20.9457852 C28.8231293,20.9450148 28.8350352,20.9423665 28.8465631,20.9387551 C28.8264365,21.0856173 28.7645922,21.2232826 28.6658491,21.3367277 Z M28.4951108,21.4064155 C28.479274,21.4075423 28.4639633,21.4020153 28.4520199,21.3911758 C28.4401291,21.3804437 28.4330788,21.3655797 28.4321844,21.3493205 C28.430185,21.3158899 28.4552293,21.2869667 28.4880079,21.2849813 C28.4892181,21.284874 28.4904282,21.2848203 28.4915857,21.2848203 C28.5228911,21.2848203 28.5492507,21.3097725 28.5511975,21.3420226 C28.5531442,21.3755069 28.5279946,21.4043764 28.4951108,21.4064155 Z M27.7377699,21.3917227 C27.7368229,21.3755086 27.7420844,21.3598849 27.7526075,21.3476975 C27.7631832,21.3355637 27.7777577,21.3283693 27.793595,21.3274029 C27.7948051,21.3272955 27.7960153,21.3272418 27.7972254,21.3272418 C27.8117999,21.3272418 27.825743,21.3326644 27.8367923,21.3426507 C27.848736,21.3534422 27.855839,21.3683142 27.8567861,21.3844747 L27.8567861,21.3845284 C27.8587329,21.4179768 27.8335827,21.4468617 27.800698,21.4488482 C27.7848608,21.449922 27.7695497,21.4444457 27.7576586,21.4336541 C27.7457675,21.4229163 27.738717,21.4080443 27.7377699,21.3917227 Z M27.3642507,20.9039749 C27.3636582,20.8972637 27.362473,20.8907135 27.3620959,20.8839486 C27.3616649,20.8771837 27.3620959,20.8705261 27.3618265,20.8638149 C27.3643046,20.8551708 27.3681833,20.84701 27.3743246,20.8401377 C27.3850988,20.8279501 27.400021,20.8207557 27.4162901,20.8197893 C27.417583,20.8196819 27.418822,20.8196282 27.420061,20.8196282 C27.4349833,20.8196282 27.4492052,20.8249972 27.4605181,20.8349835 C27.472693,20.8457751 27.4799655,20.8607009 27.4809352,20.8768615 L27.4809352,20.8769152 C27.4819588,20.8931295 27.4765178,20.9086996 27.4656897,20.9208335 C27.4548617,20.9330211 27.4399394,20.9402155 27.4236165,20.9412356 C27.4073475,20.9423094 27.391671,20.9367794 27.3794962,20.9260414 C27.3725469,20.9199208 27.3677523,20.9122431 27.3642507,20.9039749 Z M27.7348942,20.2655965 C27.749461,20.2655965 27.7633441,20.2709697 27.7743349,20.2809101 C27.7862723,20.2917102 27.7933717,20.306594 27.7943182,20.3227673 C27.796264,20.356296 27.7711271,20.3852576 27.7383124,20.3872456 C27.7224309,20.3881054 27.7071279,20.3827859 27.6951906,20.3719858 C27.6833057,20.3611856 27.676259,20.3463019 27.6753124,20.3300748 C27.6743133,20.313794 27.6796246,20.2982118 27.6901421,20.2860683 C27.7007123,20.2738712 27.715279,20.2666711 27.7312131,20.2657039 C27.7324226,20.2655965 27.7336321,20.2655965 27.7348942,20.2655965 Z M28.4887397,20.2803845 C28.4896867,20.2966074 28.4843727,20.3122393 28.4737971,20.3244332 C28.4632216,20.3365735 28.4486474,20.3438254 28.4327578,20.3447923 C28.4168156,20.345813 28.4015573,20.3403875 28.3896664,20.3295902 C28.3777755,20.3187929 28.3706726,20.303913 28.3697255,20.2876365 C28.3687785,20.2714136 28.3740399,20.2557817 28.3846154,20.2436415 C28.395191,20.2314475 28.4097126,20.2242493 28.4256022,20.2232824 C28.4268123,20.2232287 28.4280225,20.2231749 28.4292326,20.2231749 C28.4438068,20.2231749 28.4577497,20.2285467 28.4687987,20.2385383 C28.4806896,20.2492819 28.4877926,20.2641617 28.4887397,20.2803845 Z M28.864963,20.772368 C28.8655017,20.7790266 28.8667409,20.785524 28.8671719,20.7922362 L28.8671719,20.7922899 C28.8675491,20.7989484 28.867118,20.8055532 28.8673335,20.8122655 C28.8649091,20.8209108 28.8610299,20.8291266 28.8548341,20.8360536 C28.8440048,20.848243 28.8290808,20.8554922 28.81281,20.8564587 C28.7794062,20.8584992 28.7503126,20.8328317 28.7482113,20.799378 C28.7462179,20.7658706 28.7719173,20.7369275 28.8054288,20.7349407 C28.8067218,20.734887 28.807961,20.7348333 28.8092002,20.7348333 C28.8241241,20.7348333 28.8383477,20.7402031 28.8496619,20.7501909 C28.8566659,20.7563661 28.8614609,20.7640449 28.864963,20.772368 Z M29.1523831,20.7680097 C29.1356582,20.4835304 29.0112608,20.2226453 28.8020578,20.0335542 C28.5928076,19.8443667 28.3238863,19.7496045 28.0446655,19.7666983 C27.7654447,19.7836958 27.5094687,19.9105269 27.3239357,20.1237902 C27.1383554,20.3370052 27.0453763,20.611132 27.0621484,20.8956113 C27.0788261,21.1801388 27.2032235,21.4410239 27.4124737,21.6301151 C27.6056132,21.8047607 27.8497779,21.8989452 28.1058956,21.8989452 C28.1271089,21.8989452 28.1485111,21.8983192 28.1699133,21.8969709 C28.4490868,21.8799253 28.7050629,21.7531423 28.8905959,21.5398791 C29.0761761,21.326664 29.1691552,21.0525372 29.1523831,20.7680097 Z" id="Fill-1"></path>
        </g>
    </g>
</svg>