<?xml version="1.0" encoding="UTF-8"?>
<svg width="44px" height="53px" viewBox="0 0 44 53" version="1.1" xmlns="http://www.w3.org/2000/svg" xmlns:xlink="http://www.w3.org/1999/xlink">
    <!-- Generator: Sketch 49.2 (51160) - http://www.bohemiancoding.com/sketch -->
    <title>location-pin-selected</title>
    <desc>Created with Sketch.</desc>
    <defs>
        <path d="M7.52,2.74985211e-16 C3.36,2.74985211e-16 0,3.37272727 0,7.54848485 L0,32.2015152 C0,36.3772727 3.36,39.75 7.52,39.75 L13.04,39.75 C13.36,39.75 15.2,39.9106061 15.36,40.1515152 L21.76,52.8393939 L28.16,40.1515152 C28.32,39.9106061 30.16,39.75 30.48,39.75 L36.08,39.75 C40.24,39.75 43.6,36.3772727 43.6,32.2015152 L43.6,7.54848485 C43.6,3.37272727 40.24,0 36.08,0 C31.5534722,4.35829201e-17 28.1585764,7.62701102e-17 25.8953125,9.80615702e-17 C21.8119097,1.37377935e-16 15.6868056,1.96352482e-16 7.52,2.74985211e-16 Z" id="path-1"></path>
        <filter x="-18.3%" y="-13.2%" width="136.7%" height="130.3%" filterUnits="objectBoundingBox" id="filter-2">
            <feOffset dx="0" dy="1" in="SourceAlpha" result="shadowOffsetOuter1"></feOffset>
            <feGaussianBlur stdDeviation="2.5" in="shadowOffsetOuter1" result="shadowBlurOuter1"></feGaussianBlur>
            <feComposite in="shadowBlurOuter1" in2="SourceAlpha" operator="out" result="shadowBlurOuter1"></feComposite>
            <feColorMatrix values="0 0 0 0 0   0 0 0 0 0   0 0 0 0 0  0 0 0 0.271993886 0" type="matrix" in="shadowBlurOuter1"></feColorMatrix>
        </filter>
        <polygon id="path-3" points="0 1.08612376e-05 23.3967142 1.08612376e-05 23.3967142 28.3135628 0 28.3135628"></polygon>
    </defs>
    <g id="location-pin-selected" stroke="none" stroke-width="1" fill="none" fill-rule="evenodd">
        <g id="location-pin-orange">
            <g id="Path">
                <use fill="black" fill-opacity="1" filter="url(#filter-2)" xlink:href="#path-1"></use>
                <use fill="#EC6607" fill-rule="evenodd" xlink:href="#path-1"></use>
                <path stroke="#FFFFFF" stroke-width="1.6" d="M21.7603516,51.0637612 L27.493587,39.7089163 C27.8561269,39.1630466 29.4327868,38.95 30.48,38.95 L36.08,38.95 C39.7974937,38.95 42.8,35.9361206 42.8,32.2015152 L42.8,7.54848485 C42.8,3.81387942 39.7974937,0.8 36.08,0.8 C29.8560243,0.8 29.8560243,0.8 25.8953125,0.8 C18.7493576,0.8 18.7493576,0.8 7.52,0.8 C3.80250629,0.8 0.8,3.81387942 0.8,7.54848485 L0.8,32.2015152 C0.8,35.9361206 3.80250629,38.95 7.52,38.95 L13.04,38.95 C14.0872132,38.95 15.6638731,39.1630466 16.0742749,39.7912217 L21.7603516,51.0637612 Z M28.6049411,40.8017139 C28.6026515,40.8025804 28.6005695,40.8034023 28.5987008,40.8041765 C28.6031444,40.8023356 28.6075985,40.8004198 28.6120829,40.798383 Z"></path>
            </g>
        </g>
        <g id="gym-pilates" transform="translate(9.000000, 7.000000)">
            <g id="Page-1" stroke-width="1" transform="translate(2.903761, 0.000000)">
                <mask id="mask-4" fill="white">
                    <use xlink:href="#path-3"></use>
                </mask>
                <g id="Clip-2"></g>
            </g>
            <path d="M24.2332278,16.6042265 C22.5931998,16.5609964 17.8952219,16.4224537 17.8952219,16.4224537 C17.4432476,15.8600822 16.6689854,15.6153107 16.14672,15.5418304 C15.4689273,15.4464092 11.2213328,14.8355939 11.2213328,14.8355939 L11.3534298,15.0703724 C11.3534298,15.0703724 14.2801986,15.5039769 16.1101282,15.7836691 C17.9407809,16.06347 17.9937161,17.6460394 18.0055277,17.9335521 C18.0173875,18.2210649 18.3909714,28.1486192 18.3909714,28.1486192 C17.7752739,28.4668166 17.0313844,27.9143294 16.8446166,26.7640068 C16.6471942,25.5482416 16.2071761,22.4224227 15.7197188,18.9328953 C14.0610332,18.931266 12.6966252,18.856428 11.6808762,18.7718686 C13.0395471,19.7474786 13.9224278,21.3142983 13.9224278,23.0778258 C13.9224278,24.5159328 13.3398992,25.849223 12.2821587,26.8320562 C11.2530553,27.7884407 9.87895694,28.3151311 8.41311379,28.3151311 C6.94722243,28.3151311 5.57312405,27.7884407 4.54397247,26.8320562 C3.48628022,25.849223 2.9037516,24.5159328 2.9037516,23.0778258 C2.9037516,20.3827873 4.96518844,18.1470415 7.63673037,17.7794227 C7.32736298,17.4998391 6.79931233,16.8624666 6.59046403,15.6474074 L6.09331637,13.0185718 C5.69557896,11.8373473 4.5149979,7.67987129 4.81443391,6.79338263 C5.08089387,6.00454186 5.57032783,5.64821937 6.31624216,5.64821937 C6.61977607,5.64821937 18.5357479,5.68590993 18.5357479,5.68590993 C18.5357479,5.68590993 18.3718318,6.96000318 17.3756081,7.05021072 C16.3768292,7.14063549 12.287269,7.47132406 12.287269,7.47132406 L8.41340306,7.99627655 L8.49492717,8.19026892 L9.84545058,8.13959846 C9.99066089,8.48386432 10.0917585,8.79217751 10.0917585,8.98383458 C10.0917585,9.64917629 9.73591611,10.3010493 9.73591611,10.3010493 L9.9138132,12.1641799 L10.5675971,13.8652518 L17.8281609,13.8652518 L26.2918684,15.2108703 C26.3711266,15.8441153 25.9198755,16.6487057 24.2332278,16.6042265 M8.41311379,27.4611193 C9.86396345,27.4611193 11.1437137,26.8906558 12.0096724,25.9744057 L4.81645875,25.9744057 C5.68241747,26.8906558 6.96221593,27.4611193 8.41311379,27.4611193 M8.0937186,2.6000083 C8.03359999,2.98223628 7.82166621,4.32975553 7.71295132,5.0209484 C7.66676557,5.31541274 7.37215062,5.27516964 7.02103285,5.27565843 C6.62478997,5.27614721 6.26942967,5.27685323 6.26942967,5.27685323 C6.26942967,5.27685323 4.63547618,3.58620861 4.45835045,3.01525626 C4.39914784,2.8249026 4.36453263,2.62585947 4.3530103,2.42176559 C3.81782448,2.35007748 3.40277947,1.83750749 3.40277947,1.21534158 C3.40277947,0.544080176 3.88580142,1.08612376e-05 4.48168438,1.08612376e-05 C4.79510146,1.08612376e-05 5.07718165,0.150664513 5.27431478,0.391145539 C5.66964166,0.133231267 6.14220191,0.032542057 6.58646255,0.121174631 C7.52709947,0.308758521 8.28130603,1.40580386 8.0937186,2.6000083" id="Fill-1" fill="#FFFFFF"></path>
        </g>
    </g>
</svg>