<?xml version="1.0" encoding="UTF-8"?>
<svg width="44px" height="53px" viewBox="0 0 44 53" version="1.1" xmlns="http://www.w3.org/2000/svg" xmlns:xlink="http://www.w3.org/1999/xlink">
    <!-- Generator: Sketch 49.2 (51160) - http://www.bohemiancoding.com/sketch -->
    <title>location-pin-selected</title>
    <desc>Created with Sketch.</desc>
    <defs>
        <path d="M7.52,2.74985211e-16 C3.36,2.74985211e-16 0,3.37272727 0,7.54848485 L0,32.2015152 C0,36.3772727 3.36,39.75 7.52,39.75 L13.04,39.75 C13.36,39.75 15.2,39.9106061 15.36,40.1515152 L21.76,52.8393939 L28.16,40.1515152 C28.32,39.9106061 30.16,39.75 30.48,39.75 L36.08,39.75 C40.24,39.75 43.6,36.3772727 43.6,32.2015152 L43.6,7.54848485 C43.6,3.37272727 40.24,0 36.08,0 C31.5534722,4.35829201e-17 28.1585764,7.62701102e-17 25.8953125,9.80615702e-17 C21.8119097,1.37377935e-16 15.6868056,1.96352482e-16 7.52,2.74985211e-16 Z" id="path-1"></path>
        <filter x="-18.3%" y="-13.2%" width="136.7%" height="130.3%" filterUnits="objectBoundingBox" id="filter-2">
            <feOffset dx="0" dy="1" in="SourceAlpha" result="shadowOffsetOuter1"></feOffset>
            <feGaussianBlur stdDeviation="2.5" in="shadowOffsetOuter1" result="shadowBlurOuter1"></feGaussianBlur>
            <feComposite in="shadowBlurOuter1" in2="SourceAlpha" operator="out" result="shadowBlurOuter1"></feComposite>
            <feColorMatrix values="0 0 0 0 0   0 0 0 0 0   0 0 0 0 0  0 0 0 0.271993886 0" type="matrix" in="shadowBlurOuter1"></feColorMatrix>
        </filter>
        <polygon id="path-3" points="0 0 13.8303532 0 13.8303532 30.3549311 0 30.3549311"></polygon>
    </defs>
    <g id="location-pin-selected" stroke="none" stroke-width="1" fill="none" fill-rule="evenodd">
        <g id="location-pin-orange">
            <g id="Path">
                <use fill="black" fill-opacity="1" filter="url(#filter-2)" xlink:href="#path-1"></use>
                <use fill="#EC6607" fill-rule="evenodd" xlink:href="#path-1"></use>
                <path stroke="#FFFFFF" stroke-width="1.6" d="M21.7603516,51.0637612 L27.493587,39.7089163 C27.8561269,39.1630466 29.4327868,38.95 30.48,38.95 L36.08,38.95 C39.7974937,38.95 42.8,35.9361206 42.8,32.2015152 L42.8,7.54848485 C42.8,3.81387942 39.7974937,0.8 36.08,0.8 C29.8560243,0.8 29.8560243,0.8 25.8953125,0.8 C18.7493576,0.8 18.7493576,0.8 7.52,0.8 C3.80250629,0.8 0.8,3.81387942 0.8,7.54848485 L0.8,32.2015152 C0.8,35.9361206 3.80250629,38.95 7.52,38.95 L13.04,38.95 C14.0872132,38.95 15.6638731,39.1630466 16.0742749,39.7912217 L21.7603516,51.0637612 Z M28.6049411,40.8017139 C28.6026515,40.8025804 28.6005695,40.8034023 28.5987008,40.8041765 C28.6031444,40.8023356 28.6075985,40.8004198 28.6120829,40.798383 Z"></path>
            </g>
        </g>
        <g id="mountaineering" transform="translate(5.000000, 5.000000)">
            <g id="Group" transform="translate(8.067706, 0.000000)">
                <g id="Page-1" transform="translate(2.305059, 0.000000)">
                    <mask id="mask-4" fill="white">
                        <use xlink:href="#path-3"></use>
                    </mask>
                    <g id="Clip-2"></g>
                    <path d="M10.2233968,7.35866065 C10.3413286,8.23182375 9.68508687,8.80054351 9.19518356,8.96457052 C8.9675776,9.04077734 6.75487376,9.78888064 6.75487376,9.78888064 L7.03629647,8.2675277 L10.2233968,7.35866065 Z M6.82473113,23.1512275 C7.01252028,22.204209 8.40122033,15.2009082 8.50671826,14.6732672 C8.68245321,13.7944414 8.15221107,13.4318832 7.45458648,13.5308368 C6.84575478,13.6172174 4.6888609,14.0752261 4.6888609,14.0752261 L6.32676005,9.98366872 L6.81130067,7.21003816 C6.81130067,7.21003816 11.783181,4.94562078 12.0783189,4.81086717 C12.4341549,4.64837581 12.7651232,4.2608152 12.7969197,3.73336614 L13.4323275,7.19333793 L10.8826758,11.4240159 L10.9127163,21.0658097 L6.82473113,23.1512275 Z M11.2626676,11.5312237 L13.8303532,7.2706005 L12.4973682,0.000575870143 L12.1112069,0 L12.7279165,3.35809076 L6.59536925,5.14372011 C6.63964706,4.59635554 6.69009433,3.98046242 6.70869765,3.74934654 C6.7513619,3.21935405 6.57069137,2.731736 6.2636891,2.36327509 L7.23613981,1.89230929 L6.91993079,1.4962546 L6.17831313,1.54601938 C6.17831313,1.54601938 5.19784211,0.466502805 3.65689854,1.06368014 C2.24902567,1.60922113 2.19905297,3.21479507 2.79872538,4.25630422 L3.02927369,4.13935459 C3.04716516,4.23533295 3.10041242,4.37632515 3.14208007,4.4626097 C3.28725242,4.7632619 4.33587235,5.67644798 4.33587235,5.67644798 C4.33587235,5.67644798 4.21656431,5.70692111 4.15358827,5.72299748 C3.20989677,5.96366321 2.59185833,6.59270537 2.15287687,8.368209 C1.56820102,10.7332597 1.18042616,12.5648147 1.18042616,12.5648147 C1.18042616,12.5648147 0.814576633,13.2501001 0.537045435,13.7810524 C0.259419322,14.3120527 -0.422829053,15.8026446 0.373744332,17.3806247 C1.17031772,18.9586049 3.93903311,17.2238441 3.93903311,17.2238441 L6.03859839,16.5434055 C6.03859839,16.5434055 5.69068778,20.8373333 5.65504723,21.3496657 C5.58765765,22.3178474 5.92042932,23.0577925 6.66655543,23.2319453 L5.58765765,23.7822852 L7.30153618,30.3549311 L7.69405679,30.3549311 L6.03110011,23.9784169 L11.2931353,21.2958699 L11.2626676,11.5312237 Z" id="Fill-1" fill="#FFFFFF" mask="url(#mask-4)"></path>
                </g>
                <path d="M6.65006314,18.0420689 L4.84395337,22.5256727 C4.84395337,22.5256727 3.23958153,25.7473764 1.58130494,29.1874337 C1.05192794,29.0374376 0.615322621,28.2571816 0.997144055,27.1690789 C1.37891922,26.0809762 2.82537097,22.0486936 2.82537097,22.0486936 L3.39976885,16.9642008 C3.111043,16.3690241 2.97630426,15.7470471 3.01443088,15.3388063 C3.05010518,14.9562709 3.16661347,14.7341091 3.16661347,14.7341091 L6.12235187,14.6773191 L6.21253243,14.4244059 L3.01387564,14.4568233 L2.71469273,15.2708296 C2.71469273,15.2708296 1.62563176,15.0047781 1.2871192,14.9272333 C0.16890803,14.6709879 -0.065450376,14.2123358 0.0141343147,13.1908769 C0.171823051,11.1673334 0.320165213,10.4343469 0.64803563,7.16499292 C0.685607007,6.79012159 1.02106573,6.69791515 1.02106573,6.69791515 C1.02106573,6.69791515 0.729008426,6.45690263 0.766533533,6.16685933 C0.823723462,5.725011 0.881191012,5.38855506 0.896830329,5.27278527 C1.0615984,4.0567741 1.23955347,3.71036919 2.15468487,3.62159014 C2.9050482,3.548758 3.72722284,3.51410323 4.80365205,3.50258337 C5.81687621,3.49168235 6.00283602,4.45858856 5.84283378,5.38265232 C5.7968875,5.64779941 5.73224807,5.97068858 5.67010723,6.26749146 C6.01870669,5.85629927 6.63678361,5.80741129 7.14436736,6.04004572 C7.51980351,6.21212951 8.0357159,6.45152353 8.43016909,6.64279121 C8.79937419,6.82184086 8.6666405,7.98360082 8.03196801,10.1280711 L6.65006314,18.0420689 Z" id="Page-1" fill="#FFFFFF"></path>
            </g>
        </g>
    </g>
</svg>