<?xml version="1.0" encoding="UTF-8"?>
<svg width="44px" height="53px" viewBox="0 0 44 53" version="1.1" xmlns="http://www.w3.org/2000/svg" xmlns:xlink="http://www.w3.org/1999/xlink">
    <!-- Generator: Sketch 49.2 (51160) - http://www.bohemiancoding.com/sketch -->
    <title>location-pin-selected</title>
    <desc>Created with Sketch.</desc>
    <defs>
        <path d="M7.52,2.74985211e-16 C3.36,2.74985211e-16 0,3.37272727 0,7.54848485 L0,32.2015152 C0,36.3772727 3.36,39.75 7.52,39.75 L13.04,39.75 C13.36,39.75 15.2,39.9106061 15.36,40.1515152 L21.76,52.8393939 L28.16,40.1515152 C28.32,39.9106061 30.16,39.75 30.48,39.75 L36.08,39.75 C40.24,39.75 43.6,36.3772727 43.6,32.2015152 L43.6,7.54848485 C43.6,3.37272727 40.24,0 36.08,0 C31.5534722,4.35829201e-17 28.1585764,7.62701102e-17 25.8953125,9.80615702e-17 C21.8119097,1.37377935e-16 15.6868056,1.96352482e-16 7.52,2.74985211e-16 Z" id="path-1"></path>
        <filter x="-18.3%" y="-13.2%" width="136.7%" height="130.3%" filterUnits="objectBoundingBox" id="filter-2">
            <feOffset dx="0" dy="1" in="SourceAlpha" result="shadowOffsetOuter1"></feOffset>
            <feGaussianBlur stdDeviation="2.5" in="shadowOffsetOuter1" result="shadowBlurOuter1"></feGaussianBlur>
            <feComposite in="shadowBlurOuter1" in2="SourceAlpha" operator="out" result="shadowBlurOuter1"></feComposite>
            <feColorMatrix values="0 0 0 0 0   0 0 0 0 0   0 0 0 0 0  0 0 0 0.271993886 0" type="matrix" in="shadowBlurOuter1"></feColorMatrix>
        </filter>
    </defs>
    <g id="location-pin-selected" stroke="none" stroke-width="1" fill="none" fill-rule="evenodd">
        <g id="location-pin-orange">
            <g id="Path">
                <use fill="black" fill-opacity="1" filter="url(#filter-2)" xlink:href="#path-1"></use>
                <use fill="#EC6607" fill-rule="evenodd" xlink:href="#path-1"></use>
                <path stroke="#FFFFFF" stroke-width="1.6" d="M21.7603516,51.0637612 L27.493587,39.7089163 C27.8561269,39.1630466 29.4327868,38.95 30.48,38.95 L36.08,38.95 C39.7974937,38.95 42.8,35.9361206 42.8,32.2015152 L42.8,7.54848485 C42.8,3.81387942 39.7974937,0.8 36.08,0.8 C29.8560243,0.8 29.8560243,0.8 25.8953125,0.8 C18.7493576,0.8 18.7493576,0.8 7.52,0.8 C3.80250629,0.8 0.8,3.81387942 0.8,7.54848485 L0.8,32.2015152 C0.8,35.9361206 3.80250629,38.95 7.52,38.95 L13.04,38.95 C14.0872132,38.95 15.6638731,39.1630466 16.0742749,39.7912217 L21.7603516,51.0637612 Z M28.6049411,40.8017139 C28.6026515,40.8025804 28.6005695,40.8034023 28.5987008,40.8041765 C28.6031444,40.8023356 28.6075985,40.8004198 28.6120829,40.798383 Z"></path>
            </g>
        </g>
        <g id="pickleball" transform="translate(4.000000, 6.000000)" fill="#FFFFFF">
            <path d="M20.2486071,9.75631617 L21.5749801,7.30952709 L21.0801465,7.52297589 L20.0451147,9.39585628 L17.2495065,9.65873122 L17.2495065,7.26634014 L16.975399,7.56406685 L16.7787233,9.16052154 L15.359317,9.50786937 C15.4209552,9.53682315 15.478801,9.57206487 15.5317983,9.61359453 L16.6710485,10.1749273 L20.2486071,9.75631617 Z M11.3599401,8.79557723 C11.5119233,8.65768121 11.6499852,8.50014147 11.7690851,8.32217811 C11.8858808,8.14782178 11.977954,7.96357048 12.047897,7.77351867 L12.27736,8.67888473 L11.3599401,8.79557723 Z M24.7299044,18.9520648 C25.2545009,19.914656 25.1581553,20.5430602 25.1581553,20.7715708 L25.1581553,28.6859442 C25.1581553,28.6859442 23.7074019,28.8704393 23.5453856,27.0173976 C23.3639754,24.9434005 22.9870416,21.431171 22.9870416,21.431171 L22.1990907,20.5843461 L23.5210952,20.0043932 L23.5871018,19.7443454 L20.9717036,20.6329924 L19.2790059,17.5700825 C19.2790059,17.5700825 17.2526268,22.1002274 17.0843699,22.5158165 C16.8046939,23.2067101 16.6218436,23.5771138 16.1387711,23.9564375 C15.7726384,24.2438305 9.66690636,28.1497632 9.66690636,28.1497632 C9.66690636,28.1497632 8.89359684,27.2756906 10.0604498,25.9770114 C10.6185058,25.3557725 14.7101479,22.1484837 14.7101479,22.1484837 L14.9859356,20.1318581 L16.137571,20.336923 L16.4476821,20.212334 L14.471564,19.5540499 L15.6811893,15.0482281 L16.3917565,13.464593 L16.2477421,11.3476528 L14.980367,11.3476528 L14.9814231,11.3381965 C14.9569407,11.3454593 14.9323142,11.3497 14.9074957,11.3476528 C14.541075,11.3176266 14.2437332,11.0203386 14.1280416,10.6639732 C14.0869014,10.6663129 14.0453773,10.6668978 14.003181,10.6634858 C13.5387825,10.6254169 13.1854671,10.237758 13.1722177,9.77561869 L12.2563339,9.14331501 L10.1648603,9.40945578 C10.002316,9.44542865 9.8359313,9.46648594 9.66767443,9.4726764 L9.61323698,9.47964675 L9.61266092,9.47486987 C9.02801031,9.48510605 8.42468583,9.31386932 7.89260049,8.94658531 C6.58634154,8.04477753 6.20412723,6.30316401 7.03888291,5.05659183 C7.87359058,3.8099709 9.60915657,3.5304256 10.9153675,4.43218463 C11.638512,4.93146667 12.077852,5.68816435 12.1848548,6.47576556 L12.6914496,8.47416106 L13.5055632,9.03617628 C13.6792446,8.892626 13.9049152,8.81356366 14.1457553,8.83247623 C14.6466856,8.07202528 15.8746487,6.23258309 16.3116365,5.80095735 C16.9660381,5.15446924 17.3629899,4.97455613 17.8347331,5.05634811 C18.5459724,5.17957226 22.3304318,5.83551665 22.6921481,5.89927345 C23.209736,5.99047297 24.107858,6.40167509 23.7817133,7.42943667 C23.4555686,8.4571495 21.5073413,11.3963965 21.5073413,11.3963965 L20.03801,11.3482864 L20.4220005,11.6660468 L21.6777584,11.7800097 L21.2977523,14.2271887 C21.2977523,14.2271887 23.5824933,17.1300729 24.4430276,18.4789094 C24.5697603,18.6776376 24.6690823,18.8403442 24.7299044,18.9520648 Z M20.4591562,4.89520133 C20.4591562,4.89520133 20.8288413,4.96095662 21.2410586,5.0346084 C21.6061832,5.09982752 21.9058773,5.19263558 22.0022229,4.92512998 C22.2281816,4.29770067 22.6688657,3.07413553 22.7939183,2.72693393 C23.1843894,1.64287334 22.5792888,0.473413742 21.6318178,0.121581489 C20.6835307,-0.23059197 19.4633444,0.189578994 19.0678328,1.28792149 C18.930827,1.6684638 18.8849344,2.05938853 18.9453725,2.43647003 C19.0365336,3.00482194 20.4591562,4.89520133 20.4591562,4.89520133 Z M10.7027542,7.56084977 C10.620714,7.68860709 10.4522171,7.7246287 10.3264445,7.64132567 C10.2006719,7.55802263 10.1651963,7.38693213 10.2472365,7.25922356 C10.3292768,7.13146624 10.4977736,7.09544462 10.6235463,7.17874766 C10.7493189,7.26205069 10.7847944,7.43314119 10.7027542,7.56084977 Z M11.2518332,6.70603095 C11.169793,6.83373953 11.0012961,6.86976114 10.8754755,6.78645811 C10.7497029,6.70315507 10.7141793,6.53211332 10.7962196,6.404356 C10.8782598,6.27664742 11.0467567,6.24057706 11.1725293,6.3238801 C11.2983499,6.40718313 11.3338255,6.57827363 11.2518332,6.70603095 Z M12.047897,7.77351867 L12.27736,8.67888473 L11.3599401,8.79557723 C11.5119233,8.65768121 11.6499852,8.50014147 11.7690851,8.32217811 C11.8858808,8.14782178 11.977954,7.96357048 12.047897,7.77351867 Z M10.1537712,8.41571733 C10.0717309,8.54347465 9.90323405,8.57944752 9.77746144,8.49614448 C9.65164083,8.41289019 9.61611727,8.24179969 9.69815749,8.11404237 C9.78019771,7.9863338 9.9486946,7.95031218 10.0745152,8.03361522 C10.2002878,8.11691825 10.2358114,8.28796001 10.1537712,8.41571733 Z M21.5749801,7.30952709 L21.0801465,7.52297589 L20.0451147,9.39585628 L17.2495065,9.65873122 L17.2495065,7.26634014 L16.975399,7.56406685 L16.7787233,9.16052154 L15.359317,9.50786937 C15.4209552,9.53682315 15.478801,9.57206487 15.5317983,9.61359453 L16.6710485,10.1749273 L20.2486071,9.75631617 L21.5749801,7.30952709 Z M10.0786916,5.9292021 C10.1607319,5.80149353 10.3292288,5.76547191 10.4550014,5.84877495 C10.580822,5.93207798 10.6162495,6.10311974 10.5342093,6.23087706 C10.4521691,6.35858563 10.2837202,6.39465599 10.1579476,6.31135296 C10.032127,6.22804992 9.99665141,6.05695942 10.0786916,5.9292021 Z M8.64358777,4.97894306 C8.725628,4.85118574 8.89407688,4.81516412 9.0199455,4.89846716 C9.14571811,4.9817702 9.18119367,5.15286069 9.09915344,5.28056927 C9.01711322,5.40832659 8.84861633,5.44434821 8.72284372,5.36104517 C8.59702311,5.27774213 8.56154755,5.10665164 8.64358777,4.97894306 Z M8.00109137,6.99030439 C7.91905114,7.11801297 7.75055425,7.15403459 7.62478164,7.07073155 C7.49896103,6.98742851 7.46353348,6.81633801 7.5455737,6.68862944 C7.62761393,6.56092086 7.79606281,6.5248505 7.92188343,6.60815354 C8.04765603,6.69145657 8.08313159,6.86254707 8.00109137,6.99030439 Z M9.36116371,5.45409695 C9.44320393,5.32633963 9.61165282,5.29031802 9.73747343,5.37362105 C9.86324604,5.45692409 9.89872159,5.62801459 9.81668137,5.75572316 C9.73464115,5.88348048 9.56614426,5.91945336 9.44037165,5.83615032 C9.31455103,5.75289603 9.27912348,5.58180553 9.36116371,5.45409695 Z M8.89134061,6.69101788 C8.765568,6.60776359 8.73004444,6.43667309 8.81208466,6.30891577 C8.89412489,6.1812072 9.06262178,6.14513683 9.18839439,6.22848861 C9.314215,6.31179165 9.34973856,6.4828334 9.26769834,6.61059072 C9.18565811,6.7382993 9.01716122,6.77432092 8.89134061,6.69101788 Z M9.43619523,7.94056343 C9.354155,8.06827201 9.18570612,8.10434237 9.05988551,8.02103933 C8.93406489,7.9377363 8.89858934,7.7666458 8.98062956,7.63888848 C9.06266978,7.5111799 9.23116668,7.47515829 9.35693928,7.55846132 C9.4827599,7.64176436 9.51823545,7.81285486 9.43619523,7.94056343 Z M8.17381268,6.21591273 C8.04799207,6.1326097 8.01251651,5.9615192 8.09455674,5.83376188 C8.17659696,5.7060533 8.34509385,5.67003168 8.47086646,5.75333472 C8.59668707,5.83663776 8.63211462,6.00772826 8.5500744,6.13543683 C8.46803417,6.26314541 8.29963329,6.29921577 8.17381268,6.21591273 Z M8.71861929,7.46540954 C8.63657907,7.59316686 8.46813018,7.62918848 8.34230957,7.54588544 C8.21653696,7.4625824 8.18106141,7.29149191 8.26310163,7.16378333 C8.34514186,7.03602601 8.51363875,7.00000439 8.63941135,7.08330743 C8.76523197,7.16661047 8.80065952,7.33770097 8.71861929,7.46540954 Z M9.60891654,7.16617177 C9.48309593,7.08286874 9.44766838,6.91177824 9.5297086,6.78406966 C9.61170082,6.65631234 9.78014971,6.62029073 9.90601833,6.70359376 C10.0317909,6.7868968 10.0672665,6.9579873 9.98522627,7.08569587 C9.90318604,7.21345319 9.73468915,7.24947481 9.60891654,7.16617177 Z M12.27736,8.67888473 L11.3599401,8.79557723 C11.5119233,8.65768121 11.6499852,8.50014147 11.7690851,8.32217811 C11.8858808,8.14782178 11.977954,7.96357048 12.047897,7.77351867 L12.27736,8.67888473 Z M16.6710485,10.1749273 L15.5317983,9.61359453 C15.478801,9.57206487 15.4209552,9.53682315 15.359317,9.50786937 L16.7787233,9.16052154 L16.975399,7.56406685 L17.2495065,7.26634014 L17.2495065,9.65873122 L20.0451147,9.39585628 L21.0801465,7.52297589 L21.5749801,7.30952709 L20.2486071,9.75631617 L16.6710485,10.1749273 Z" id="Fill-1"></path>
            <path d="M30.1700557,10.7312939 C30.1517838,10.7328151 30.1340581,10.7262437 30.120339,10.7140135 C30.1066198,10.7017833 30.0984855,10.6849287 30.0973928,10.6664921 C30.0963001,10.6481164 30.1023705,10.63041 30.1145721,10.6165978 C30.1267129,10.6028465 30.143528,10.594693 30.1617999,10.5935369 C30.1631961,10.5934761 30.1645923,10.5934152 30.1659278,10.5934152 C30.2019861,10.5934152 30.2323989,10.6217089 30.234645,10.6582778 C30.236891,10.6962462 30.2079351,10.7289818 30.1700557,10.7312939 Z M30.1441336,10.4873085 C30.1007253,10.4899687 30.0609218,10.5093931 30.0320831,10.5420182 C30.0032443,10.5746432 29.988825,10.6166041 29.9914285,10.6600707 C29.9939819,10.7035875 30.0133079,10.7434905 30.0458516,10.7724515 C30.0758919,10.7992041 30.1138429,10.8136595 30.1537465,10.8136595 C30.1570009,10.8136595 30.1603054,10.8135591 30.1636098,10.8133583 C30.2532803,10.8079376 30.3218724,10.7304405 30.3165152,10.6405961 L30.3165152,10.6405459 C30.3110579,10.5506513 30.233754,10.4820884 30.1441336,10.4873085 Z M29.7937411,10.6156719 C29.7951355,10.6155501 29.7965299,10.6155501 29.7979243,10.6155501 C29.8339964,10.6155501 29.8643697,10.6438716 29.8665522,10.6804155 C29.8688559,10.7184212 29.839877,10.7512499 29.8020468,10.7535034 C29.7642166,10.7559397 29.7316002,10.7267045 29.7292964,10.6887597 C29.7271139,10.650754 29.7560322,10.6179863 29.7937411,10.6156719 Z M29.7859023,10.8357442 C29.7891567,10.8357442 29.7924111,10.8356438 29.7957155,10.835443 C29.8853359,10.8300222 29.9539781,10.7525753 29.9485709,10.6626807 C29.9432137,10.5728363 29.8658597,10.5040225 29.7761392,10.5094433 C29.6866189,10.5148641 29.6180768,10.592311 29.623384,10.6822558 C29.628591,10.7687875 29.7005376,10.8357442 29.7859023,10.8357442 Z M29.4814014,10.7525045 C29.4692207,10.7662694 29.4524344,10.7744917 29.4340725,10.7755881 C29.3962578,10.7780243 29.3636548,10.7487892 29.361352,10.7109662 C29.3591704,10.6728996 29.3880768,10.6400101 29.4257702,10.6377565 C29.427164,10.6376956 29.4285579,10.6376347 29.4298911,10.6376347 C29.4660089,10.6376347 29.4964303,10.6659563 29.4986119,10.7025611 C29.4997027,10.7209549 29.4935821,10.7386787 29.4814014,10.7525045 Z M29.4081948,10.531528 C29.3187246,10.5368986 29.2501825,10.6143956 29.2553895,10.7043906 C29.2606967,10.7909223 29.3325932,10.8578288 29.4179579,10.8578288 C29.4211623,10.8578288 29.4244667,10.8577284 29.4277211,10.8575277 C29.4711795,10.8549678 29.5109829,10.8355434 29.5399218,10.8029183 C29.5687606,10.7702431 29.58323,10.7283324 29.5806766,10.6848156 C29.5753194,10.594921 29.4979654,10.5262076 29.4081948,10.531528 Z M29.5806766,10.6849035 L29.5806766,10.6847654 L29.5806766,10.6849035 Z M29.8995475,11.2316918 C29.9017906,11.2696989 29.8728724,11.3024678 29.8350422,11.3047214 C29.8166121,11.3058787 29.7990308,11.299666 29.7852688,11.2874233 C29.7715675,11.2752416 29.7633831,11.2583698 29.7622918,11.2399754 C29.7600487,11.2019683 29.788967,11.1691994 29.8267365,11.1668849 C29.8281915,11.166824 29.8295859,11.1667631 29.8309803,11.1667631 C29.8477735,11.1667631 29.8638392,11.172854 29.8765099,11.1842439 C29.8902718,11.1964256 29.8984563,11.2132974 29.8995475,11.2316309 L29.8995475,11.2316918 Z M29.8091335,11.0606563 C29.7195632,11.0660771 29.6510211,11.1435742 29.6563783,11.2334186 C29.6589317,11.2769354 29.6782577,11.3168384 29.7108515,11.3457994 C29.7408918,11.372552 29.7788428,11.3869572 29.8187464,11.3869572 C29.8220509,11.3869572 29.8253553,11.3868568 29.8286598,11.386656 C29.9183302,11.3812854 29.9868723,11.3038386 29.9815652,11.213944 C29.9790118,11.1704271 29.9595857,11.130474 29.9269919,11.101513 C29.8944482,11.0725519 29.8525919,11.0580463 29.8091335,11.0606563 Z M29.7133177,10.0833437 C29.7255692,10.0695139 29.7423695,10.0613501 29.7607468,10.0602534 C29.7621418,10.0601316 29.7635368,10.0600707 29.7649317,10.0600707 C29.7817927,10.0600707 29.7978046,10.0661631 29.8104807,10.077495 C29.8241878,10.0897407 29.8323757,10.1065558 29.8334068,10.1249549 L29.8334068,10.1250158 C29.8356509,10.1629716 29.8067203,10.1957488 29.7688741,10.1980639 C29.7505574,10.1990387 29.732908,10.1930072 29.7192008,10.1808224 C29.705433,10.1685157 29.6972451,10.1516397 29.6961534,10.1331797 C29.6950617,10.1148415 29.7011874,10.0971126 29.7133177,10.0833437 Z M29.7525575,10.2802648 C29.755862,10.2802648 29.7591664,10.2801644 29.7625209,10.2799636 C29.8521413,10.2745428 29.9207335,10.1970959 29.9154263,10.1072515 C29.9128228,10.0637347 29.8934969,10.0237816 29.8609532,9.99487073 C29.8284094,9.96590971 29.7865532,9.9514543 29.7430948,9.95396392 C29.6996364,9.95657393 29.6598329,9.97599839 29.6309441,10.0085733 C29.6020553,10.0412485 29.5875859,10.0832094 29.5901894,10.126676 C29.5927929,10.1701928 29.6121689,10.210146 29.6447126,10.2390568 C29.674753,10.2658595 29.712704,10.2802648 29.7525575,10.2802648 Z M30.3779478,11.1987357 C30.3679844,11.2099788 30.3571699,11.2201678 30.3466557,11.2307584 C30.3490089,11.2181601 30.3503106,11.2052105 30.3495096,11.1918593 L30.3495096,11.1917589 C30.3441023,11.1019145 30.2666482,11.0334019 30.1770779,11.0385717 C30.0875075,11.0439925 30.0189655,11.1214895 30.0243227,11.2112838 C30.0269262,11.2548006 30.046202,11.2947537 30.0787458,11.3236646 C30.1053315,11.3473554 30.1382758,11.3607066 30.1730725,11.3636177 C30.0700341,11.4216903 29.9548293,11.456825 29.8333661,11.4641531 C29.7118028,11.4715314 29.5931934,11.4504004 29.4838965,11.4049763 C29.5618012,11.3888143 29.6184774,11.3178924 29.6136208,11.2360286 C29.6110173,11.1925118 29.5916413,11.1525586 29.5589974,11.1235976 C29.5264537,11.0946868 29.4845975,11.0804321 29.4411892,11.0827912 C29.3977808,11.0854012 29.3579774,11.1048257 29.3291386,11.1374507 C29.3002999,11.1700758 29.2858304,11.2120366 29.288484,11.2555033 C29.2892851,11.2688043 29.2920888,11.2815531 29.2958939,11.2939507 C29.2842283,11.2846651 29.2722121,11.2758312 29.260947,11.2657927 C29.1431387,11.160991 29.0610284,11.0265757 29.0215754,10.8773035 C29.0308378,10.8789598 29.0403005,10.8799135 29.0498133,10.8799135 C29.0531177,10.8799135 29.0564723,10.8798131 29.0598268,10.8796123 C29.1032351,10.8770023 29.1430386,10.8575779 29.1719274,10.825003 C29.2008663,10.7923277 29.2153357,10.7504171 29.2126821,10.7069002 C29.2100786,10.6633834 29.1907026,10.6234303 29.1581589,10.5945194 C29.1256152,10.5655082 29.0837089,10.5510026 29.0403506,10.5536628 C29.027283,10.5544157 29.0147662,10.5571763 29.0025498,10.5608905 C29.0238785,10.4078539 29.0894666,10.264404 29.1940571,10.1461507 C29.2034698,10.1355099 29.2137336,10.1259231 29.2236469,10.1158344 C29.2221449,10.1266258 29.2215941,10.1376681 29.2222951,10.1488109 C29.2248986,10.1923277 29.2442245,10.2322306 29.2767682,10.2611415 C29.3068086,10.287894 29.3447596,10.3023494 29.3846131,10.3023494 C29.3879176,10.3023494 29.391222,10.302249 29.3945265,10.3020483 C29.4841969,10.2966777 29.5528392,10.2191806 29.5474319,10.129286 C29.5448785,10.0857692 29.5255024,10.045816 29.4929086,10.0169052 C29.4682756,9.99502131 29.4382853,9.98136898 29.4063924,9.97720301 C29.5075283,9.92158982 29.6201296,9.88786052 29.7387389,9.8807332 C29.7549107,9.87977954 29.7710323,9.87932781 29.787154,9.87932781 C29.889091,9.87932781 29.9883744,9.8992542 30.0809988,9.93664754 C30.0494064,9.94452775 30.0209181,9.96159317 29.9988885,9.9864886 C29.9699997,10.0191639 29.9555302,10.0611247 29.9581838,10.1045913 C29.9607873,10.1481082 29.9801133,10.1880111 30.0126069,10.2169721 C30.0426473,10.2437247 30.0806483,10.2581299 30.1204518,10.2581299 C30.1237563,10.2581299 30.1271108,10.2580295 30.1304152,10.257879 C30.1738736,10.255269 30.2136771,10.2358445 30.2425659,10.2032194 C30.2714547,10.1705442 30.2859241,10.1286335 30.2833206,10.0850665 C30.2826698,10.0738234 30.2807672,10.0628313 30.2779134,10.0521905 C30.2889782,10.0610745 30.3003435,10.0696072 30.3110078,10.0790936 C30.4289663,10.1839455 30.5110767,10.3185114 30.5505297,10.467884 C30.5379628,10.4656253 30.5251456,10.4643705 30.512078,10.4652238 C30.4224576,10.4706446 30.3539656,10.5481417 30.3593228,10.6380363 C30.3645298,10.724568 30.4364264,10.7915246 30.521741,10.7915246 C30.5249954,10.7915246 30.5282998,10.7914243 30.5315542,10.7912235 C30.5446217,10.7904204 30.5572387,10.7876598 30.5694551,10.7838954 C30.5481264,10.9369822 30.4825884,11.0804823 30.3779478,11.1987357 Z M30.202906,11.2825602 C30.1846426,11.2838385 30.1669859,11.2775688 30.1532124,11.265273 C30.1394997,11.253099 30.1313691,11.2362379 30.1303376,11.2177943 C30.1280319,11.1798721 30.1569137,11.147063 30.1947148,11.1448109 C30.1961103,11.1446891 30.1975059,11.1446282 30.1988408,11.1446282 C30.2349429,11.1446282 30.2653416,11.1729329 30.2675866,11.2095159 C30.2698316,11.2474989 30.2408285,11.2802471 30.202906,11.2825602 Z M29.3944483,11.2619919 C29.3933561,11.2435993 29.3994238,11.2258766 29.4115593,11.2120517 C29.4237555,11.1982877 29.4405632,11.1901267 29.4588271,11.1890305 C29.4602227,11.1889087 29.4616183,11.1888478 29.4630139,11.1888478 C29.4798215,11.1888478 29.4959011,11.1949989 29.5086433,11.2063268 C29.5224171,11.2185683 29.5306086,11.2354383 29.5317008,11.2537701 L29.5317008,11.253831 C29.5339459,11.2917734 29.504942,11.324539 29.4670186,11.3267924 C29.4487546,11.3280105 29.4310975,11.3217984 29.4173844,11.309557 C29.4036712,11.2973764 29.3955405,11.2805064 29.3944483,11.2619919 Z M28.9988367,10.7553984 C28.9981533,10.7477855 28.9967866,10.7403553 28.9963517,10.7326815 C28.9958547,10.7250076 28.9963517,10.7174556 28.9960411,10.7098427 C28.9988988,10.7000373 29.0033719,10.69078 29.0104541,10.6829844 C29.0228792,10.6691594 29.040088,10.6609983 29.0588498,10.6599021 C29.0603408,10.6597803 29.0617697,10.6597194 29.0631986,10.6597194 C29.0804073,10.6597194 29.0968084,10.6658097 29.1098548,10.6771377 C29.1238951,10.6893793 29.132282,10.7063104 29.1334003,10.7246422 L29.1334003,10.7247031 C29.1345806,10.7430959 29.128306,10.7607578 29.1158188,10.774522 C29.1033316,10.788347 29.0861229,10.796508 29.0672989,10.7976652 C29.048537,10.7988833 29.0304585,10.7926102 29.0164182,10.7804296 C29.008404,10.7734866 29.0028749,10.7647775 28.9988367,10.7553984 Z M29.3969726,10.0822055 C29.4137714,10.0822055 29.4297818,10.0883006 29.4424567,10.0995766 C29.4562232,10.1118277 29.4644103,10.1287112 29.4655019,10.1470575 C29.4677458,10.1850909 29.4387573,10.2179435 29.4009146,10.2201987 C29.3825997,10.221174 29.3649518,10.2151398 29.3511853,10.2028886 C29.3374795,10.1906375 29.329353,10.173754 29.3282614,10.1553468 C29.3271091,10.1368786 29.3332343,10.1192028 29.3453634,10.1054279 C29.3575531,10.091592 29.3743519,10.0834245 29.3927274,10.0823274 C29.3941223,10.0822055 29.3955171,10.0822055 29.3969726,10.0822055 Z M30.2013982,10.1028819 C30.2024904,10.1212843 30.1963621,10.1390165 30.1841661,10.1528487 C30.1719702,10.1666201 30.1551628,10.1748463 30.1368385,10.1759432 C30.1184535,10.1771009 30.1008573,10.1709465 30.0871444,10.1586985 C30.0734316,10.1464506 30.0652402,10.1295715 30.0641481,10.1111082 C30.0630559,10.0927058 30.0691235,10.0749736 30.0813195,10.0612023 C30.0935155,10.04737 30.1102622,10.0392047 30.1285865,10.0381079 C30.129982,10.0380469 30.1313776,10.037986 30.1327732,10.037986 C30.1495805,10.037986 30.1656598,10.0440795 30.1784019,10.0554135 C30.1921147,10.0676005 30.2003061,10.0844795 30.2013982,10.1028819 Z M30.5998803,10.6139082 C30.6005016,10.6214613 30.6019307,10.6288317 30.6024277,10.6364457 L30.6024277,10.6365067 C30.6028627,10.6440598 30.6023656,10.651552 30.6026141,10.659166 C30.5998182,10.6689729 30.5953446,10.6782925 30.5881994,10.6861501 C30.5757108,10.6999772 30.5585001,10.7082004 30.5397361,10.7092968 C30.501214,10.7116115 30.4676625,10.6824954 30.4652393,10.6445471 C30.4629404,10.6065378 30.4925776,10.5737061 30.531224,10.5714524 C30.5327152,10.5713915 30.5341442,10.5713305 30.5355733,10.5713305 C30.5527839,10.5713305 30.5691869,10.5774218 30.5822347,10.5887515 C30.5903119,10.5957564 30.5958417,10.6044668 30.5998803,10.6139082 Z M30.8935405,10.6059131 C30.8758167,10.3093764 30.7439896,10.0374339 30.5222917,9.84032831 C30.3005438,9.64312233 30.0155609,9.54434367 29.7196633,9.56216198 C29.4237657,9.5798799 29.1525013,9.7120867 28.9558871,9.93438888 C28.7592229,10.1566409 28.6606905,10.4423862 28.6784644,10.738923 C28.6961381,11.0355099 28.8279652,11.3074524 29.0497132,11.504558 C29.2543882,11.6866059 29.5131358,11.7847822 29.7845505,11.7847822 C29.8070307,11.7847822 29.8297112,11.7841297 29.8523916,11.7827243 C30.1482391,11.7649562 30.4195036,11.6327996 30.6161178,11.4104974 C30.812782,11.1882454 30.9113144,10.9025001 30.8935405,10.6059131 Z" id="Fill-1"></path>
        </g>
    </g>
</svg>