<?xml version="1.0" encoding="UTF-8"?>
<svg width="44px" height="53px" viewBox="0 0 44 53" version="1.1" xmlns="http://www.w3.org/2000/svg" xmlns:xlink="http://www.w3.org/1999/xlink">
    <!-- Generator: Sketch 49.2 (51160) - http://www.bohemiancoding.com/sketch -->
    <title>location-pin-selected</title>
    <desc>Created with Sketch.</desc>
    <defs>
        <path d="M7.52,2.74985211e-16 C3.36,2.74985211e-16 0,3.37272727 0,7.54848485 L0,32.2015152 C0,36.3772727 3.36,39.75 7.52,39.75 L13.04,39.75 C13.36,39.75 15.2,39.9106061 15.36,40.1515152 L21.76,52.8393939 L28.16,40.1515152 C28.32,39.9106061 30.16,39.75 30.48,39.75 L36.08,39.75 C40.24,39.75 43.6,36.3772727 43.6,32.2015152 L43.6,7.54848485 C43.6,3.37272727 40.24,0 36.08,0 C31.5534722,4.35829201e-17 28.1585764,7.62701102e-17 25.8953125,9.80615702e-17 C21.8119097,1.37377935e-16 15.6868056,1.96352482e-16 7.52,2.74985211e-16 Z" id="path-1"></path>
        <filter x="-18.3%" y="-13.2%" width="136.7%" height="130.3%" filterUnits="objectBoundingBox" id="filter-2">
            <feOffset dx="0" dy="1" in="SourceAlpha" result="shadowOffsetOuter1"></feOffset>
            <feGaussianBlur stdDeviation="2.5" in="shadowOffsetOuter1" result="shadowBlurOuter1"></feGaussianBlur>
            <feComposite in="shadowBlurOuter1" in2="SourceAlpha" operator="out" result="shadowBlurOuter1"></feComposite>
            <feColorMatrix values="0 0 0 0 0   0 0 0 0 0   0 0 0 0 0  0 0 0 0.271993886 0" type="matrix" in="shadowBlurOuter1"></feColorMatrix>
        </filter>
    </defs>
    <g id="location-pin-selected" stroke="none" stroke-width="1" fill="none" fill-rule="evenodd">
        <g id="location-pin-orange">
            <g id="Path">
                <use fill="black" fill-opacity="1" filter="url(#filter-2)" xlink:href="#path-1"></use>
                <use fill="#EC6607" fill-rule="evenodd" xlink:href="#path-1"></use>
                <path stroke="#FFFFFF" stroke-width="1.6" d="M21.7603516,51.0637612 L27.493587,39.7089163 C27.8561269,39.1630466 29.4327868,38.95 30.48,38.95 L36.08,38.95 C39.7974937,38.95 42.8,35.9361206 42.8,32.2015152 L42.8,7.54848485 C42.8,3.81387942 39.7974937,0.8 36.08,0.8 C29.8560243,0.8 29.8560243,0.8 25.8953125,0.8 C18.7493576,0.8 18.7493576,0.8 7.52,0.8 C3.80250629,0.8 0.8,3.81387942 0.8,7.54848485 L0.8,32.2015152 C0.8,35.9361206 3.80250629,38.95 7.52,38.95 L13.04,38.95 C14.0872132,38.95 15.6638731,39.1630466 16.0742749,39.7912217 L21.7603516,51.0637612 Z M28.6049411,40.8017139 C28.6026515,40.8025804 28.6005695,40.8034023 28.5987008,40.8041765 C28.6031444,40.8023356 28.6075985,40.8004198 28.6120829,40.798383 Z"></path>
            </g>
        </g>
        <g id="kitesurf" transform="translate(6.000000, 6.000000)" fill="#FFFFFF">
            <path d="M16.6516604,12.4397174 L14.6676216,11.0760655 C14.7146021,11.2286704 14.7280309,11.4235902 14.6508049,11.6569344 C14.5644767,11.9178621 13.9308724,13.4548829 13.5677633,14.3313008 L14.1637341,14.389309 L16.6516604,12.4397174 Z M12.096061,21.0672034 L14.1899796,22.6801988 L15.2822458,24.2823532 C15.6862538,24.0031969 16.0666285,23.7553397 16.3918594,23.5675452 C16.5612097,23.46967 16.8301537,23.3430311 17.1515886,23.2030158 L14.7630112,21.0294784 L12.096061,21.0672034 Z M27.2628478,8.73208802 C26.381157,8.89968671 25.2141138,9.11292261 24.4958956,9.21412005 C22.8888846,9.44047009 22.2158918,9.34119606 21.8809873,8.15703302 L17.5249428,12.407238 L18.7328848,13.2374505 C18.7744367,13.2659082 18.805376,13.3054691 18.8245601,13.3501009 C18.8588465,13.4298349 18.8556627,13.5258741 18.8081924,13.6052146 C18.7341093,13.7290558 18.5803512,13.7651634 18.4647571,13.6858666 L17.0931793,12.7431349 C17.0429742,12.9125258 16.9340741,13.117631 16.7237026,13.3578383 C16.4902287,13.624405 15.5776802,14.6811423 14.9930565,15.3254837 C14.5478233,15.8160836 14.4849649,15.8160836 13.8781775,15.8160836 C13.5455996,15.8160836 12.4658642,15.7814623 11.7058901,15.7555837 C11.3370257,17.3176525 10.9601612,18.2149219 10.9601612,18.2149219 L11.56352,19.0880176 C11.56352,19.0880176 14.1781834,18.9824051 14.5866812,18.9658812 C15.0427309,18.9474777 15.2277958,18.9824925 15.5623738,19.3692284 C15.7450712,19.5804098 17.3536333,21.3747737 18.4988394,22.6514351 C19.5390231,22.2433231 20.5392059,21.8797992 20.5392059,21.8797992 L22.4729581,22.6066285 C22.4729581,22.6066285 21.374161,25.0295531 19.2938754,26.6261558 C18.8769693,26.9461845 17.5572292,27.8791244 16.9889731,28.2795865 C19.1458317,28.718167 21.7053512,29.0807292 25.8078805,29.0807292 L25.8078805,29.6052948 C20.3945908,29.6052948 17.6429451,28.9801438 14.9818726,28.3756257 C12.3454945,27.776703 9.61940027,27.1573222 4.25754019,27.1573222 L4.25754019,26.6327566 C7.41290809,26.6327566 9.66376849,26.8452057 11.5196416,27.1421098 C11.9744668,26.774127 12.9642005,25.9819893 14.0067923,25.2031406 L12.7571352,23.8679901 C12.7571352,23.8679901 9.54788867,22.2898783 8.76534273,21.9583529 C8.35447755,21.3636704 8.10994215,20.3722415 7.96622505,19.3173839 C7.68658692,17.2651523 8.04863482,15.1891841 8.8391401,14.287893 C9.02224572,14.0791159 9.32053728,13.8545144 9.71356538,13.9014193 C9.79332205,13.9109052 10.1969218,13.9638426 10.6646452,14.0254791 L12.6835011,13.3984047 L14.319329,10.8366888 L13.4843739,10.262814 C13.3685349,10.1834298 13.335024,10.0188473 13.4091071,9.89504986 C13.4831494,9.77120868 13.6369075,9.73514479 13.7525016,9.81444162 L14.5142308,10.3380018 L15.1153446,5.80894643 C14.9637906,5.83207103 14.8327268,5.85095539 14.7331331,5.86354496 C14.0285886,5.95276482 13.8480953,5.76628177 13.8906268,4.88877101 C13.9986697,2.65748769 15.0603639,0.794667959 16.5090862,0.794667959 C16.5123107,0.794667959 16.5155761,0.794361962 16.5187598,0.794361962 C17.7453553,0.797028504 18.819458,1.77910266 19.5660848,3.06323915 C19.6116775,3.1416617 19.5390231,3.23931832 19.4582052,3.20697011 C18.362347,2.76790874 17.818622,4.40638927 17.763723,5.02096153 C17.7340489,5.35253068 17.6635986,5.38868199 17.324694,5.44533507 C16.8538685,5.52406362 16.1300584,5.64746767 15.5364141,5.74285117 L14.8920341,10.597618 L15.6889477,11.1453519 L19.1721179,3.66736382 C19.2224046,3.55939074 19.3449376,3.51550209 19.4458376,3.56935749 C19.5466967,3.6232566 19.5876771,3.75448542 19.5373496,3.86254592 L16.0344647,11.3828052 L17.169344,12.1628342 L21.7545358,7.68903311 C21.1615446,5.48271037 20.0407064,1.53439283 17.4399207,0.611288582 C17.3444495,0.577410389 17.3619192,0.427559494 17.4622477,0.41955987 L20.6357792,0.166762984 C21.464571,0.100580295 22.2072794,0.0409983906 22.6023075,0.00882503624 C25.9528221,-0.264386193 27.4641986,5.88513958 27.8156341,7.47938174 C27.9718004,8.18750154 28.0181279,8.58848819 27.2628478,8.73208802 Z M8.71909693,12.3037238 C8.5173787,11.9351728 8.34084463,11.3563584 8.45529585,10.8093676 C8.59493124,10.1419891 9.34278261,9.66874354 10.3557412,9.76788643 C11.3687406,9.8669856 11.8249128,10.7446275 11.906343,11.3147428 L11.4573138,11.4952371 C11.4482524,11.6038222 11.4281296,11.7132815 11.3950269,11.8221289 C11.3160457,12.0814828 11.037877,12.9955383 10.8951395,13.4644125 C10.8343628,13.664272 10.622522,13.6037721 10.3655781,13.5653914 C10.0755725,13.5221147 9.81544493,13.4832969 9.81544493,13.4832969 C9.81544493,13.4832969 9.32396592,12.843152 8.99118389,12.3073083 L8.71909693,12.3037238 Z" id="Fill-1"></path>
        </g>
    </g>
</svg>