<?xml version="1.0" encoding="UTF-8"?>
<svg width="44px" height="53px" viewBox="0 0 44 53" version="1.1" xmlns="http://www.w3.org/2000/svg" xmlns:xlink="http://www.w3.org/1999/xlink">
    <!-- Generator: Sketch 49.2 (51160) - http://www.bohemiancoding.com/sketch -->
    <title>location-pin-selected</title>
    <desc>Created with Sketch.</desc>
    <defs>
        <path d="M7.52,2.74985211e-16 C3.36,2.74985211e-16 0,3.37272727 0,7.54848485 L0,32.2015152 C0,36.3772727 3.36,39.75 7.52,39.75 L13.04,39.75 C13.36,39.75 15.2,39.9106061 15.36,40.1515152 L21.76,52.8393939 L28.16,40.1515152 C28.32,39.9106061 30.16,39.75 30.48,39.75 L36.08,39.75 C40.24,39.75 43.6,36.3772727 43.6,32.2015152 L43.6,7.54848485 C43.6,3.37272727 40.24,0 36.08,0 C31.5534722,4.35829201e-17 28.1585764,7.62701102e-17 25.8953125,9.80615702e-17 C21.8119097,1.37377935e-16 15.6868056,1.96352482e-16 7.52,2.74985211e-16 Z" id="path-1"></path>
        <filter x="-18.3%" y="-13.2%" width="136.7%" height="130.3%" filterUnits="objectBoundingBox" id="filter-2">
            <feOffset dx="0" dy="1" in="SourceAlpha" result="shadowOffsetOuter1"></feOffset>
            <feGaussianBlur stdDeviation="2.5" in="shadowOffsetOuter1" result="shadowBlurOuter1"></feGaussianBlur>
            <feComposite in="shadowBlurOuter1" in2="SourceAlpha" operator="out" result="shadowBlurOuter1"></feComposite>
            <feColorMatrix values="0 0 0 0 0   0 0 0 0 0   0 0 0 0 0  0 0 0 0.271993886 0" type="matrix" in="shadowBlurOuter1"></feColorMatrix>
        </filter>
    </defs>
    <g id="location-pin-selected" stroke="none" stroke-width="1" fill="none" fill-rule="evenodd">
        <g id="location-pin-orange">
            <g id="Path">
                <use fill="black" fill-opacity="1" filter="url(#filter-2)" xlink:href="#path-1"></use>
                <use fill="#EC6607" fill-rule="evenodd" xlink:href="#path-1"></use>
                <path stroke="#FFFFFF" stroke-width="1.6" d="M21.7603516,51.0637612 L27.493587,39.7089163 C27.8561269,39.1630466 29.4327868,38.95 30.48,38.95 L36.08,38.95 C39.7974937,38.95 42.8,35.9361206 42.8,32.2015152 L42.8,7.54848485 C42.8,3.81387942 39.7974937,0.8 36.08,0.8 C29.8560243,0.8 29.8560243,0.8 25.8953125,0.8 C18.7493576,0.8 18.7493576,0.8 7.52,0.8 C3.80250629,0.8 0.8,3.81387942 0.8,7.54848485 L0.8,32.2015152 C0.8,35.9361206 3.80250629,38.95 7.52,38.95 L13.04,38.95 C14.0872132,38.95 15.6638731,39.1630466 16.0742749,39.7912217 L21.7603516,51.0637612 Z M28.6049411,40.8017139 C28.6026515,40.8025804 28.6005695,40.8034023 28.5987008,40.8041765 C28.6031444,40.8023356 28.6075985,40.8004198 28.6120829,40.798383 Z"></path>
            </g>
        </g>
        <g id="marche-rapide" transform="translate(6.000000, 6.000000)" fill="#FFFFFF">
            <path d="M15.8717516,4.80840407 C15.842185,4.80053264 15.8146856,4.79362788 15.7898304,4.7872755 C15.7479563,4.77498503 15.7244952,4.76808026 15.7244952,4.76808026 C15.7244952,4.76808026 15.7925226,4.78672312 15.8717516,4.80840407 Z M15.4012812,2.30318005 C15.3281097,1.96520525 15.3512823,1.6094984 15.4578184,1.25863637 C15.7661289,0.246262315 16.8573551,-0.193066167 17.7382012,0.0790674991 C18.61823,0.350910475 19.2251398,1.37869107 18.9212041,2.37812945 C18.8238985,2.69808151 18.480733,3.82581078 18.3046791,4.40428256 C18.229825,4.65073867 17.9522349,4.58145771 17.6164731,4.54032517 C17.2373948,4.49381488 16.8974503,4.4523432 16.8974503,4.4523432 C16.8974503,4.4523432 15.5111826,2.81256466 15.4012812,2.30318005 Z M15.5998826,12.8505519 L13.0438328,9.07735586 L15.5197401,7.56160477 L15.4395976,7.9410997 L14.3183722,8.76534931 L14.2882286,10.2995592 L15.6741598,12.4847678 L15.5998826,12.8505519 Z M20.7271261,10.1358042 C21.0360136,10.3864753 21.3498048,10.3440831 21.5264836,10.1480616 L21.5347046,10.1481585 C21.5347046,10.1481585 23.9320559,7.71324771 24.6878086,6.9515932 C25.4436094,6.18998714 24.7129523,5.25236869 24.7129523,5.25236869 L21.3710543,8.03286063 C21.3710543,8.03286063 19.6130159,5.82788513 19.4309526,5.59920952 C19.1858618,5.29141796 19.0745181,5.1133223 18.6107782,5.0655039 C18.3103521,5.03454549 16.5338525,4.84317501 15.8717516,4.78222714 C16.0610744,4.80039523 16.314915,4.82486158 15.8605019,4.78213025 C15.8328583,4.7792718 15.8094934,4.77684939 15.7898304,4.77481457 C15.7656963,4.77273129 15.7430525,4.77079336 15.723726,4.76924302 C14.8407165,4.69846017 14.5492806,5.02519498 13.5447833,6.00108753 C13.5447833,6.00108753 11.3686771,8.09254884 11.1096924,8.35353942 C10.8507077,8.61457844 10.5886461,9.12105616 11.0646934,9.62065423 C11.3593023,9.92985078 13.6021379,12.1245553 14.1823175,12.6985698 C13.5201685,13.3658472 13.4637274,14.5079171 13.9175636,15.4625893 L12.6407647,20.1253432 C12.6407647,20.1253432 9.50948708,25.2495663 9.1613697,25.833755 C8.81325232,26.4179921 8.26374512,27.4259574 9.45862281,28.1524869 L14.5803857,21.4576208 L16.473325,18.6581372 L15.1511424,17.1059046 L15.2327272,16.7927353 C15.2327272,16.7927353 15.6863711,17.2645725 16.8272596,18.4143457 C17.9681961,19.5640705 19.0196154,20.9772567 19.0196154,20.9772567 C19.0196154,20.9772567 21.682634,26.4935713 21.9777718,27.0933603 C22.2729096,27.6931978 23.0436139,28.8384653 24.4349295,28.3068914 L21.3959576,19.8879953 L18.3484763,14.4343727 L19.5767667,9.24450223 L20.7271261,10.1358042 Z" id="Fill-1"></path>
        </g>
    </g>
</svg>