<?xml version="1.0" encoding="UTF-8"?>
<svg width="44px" height="53px" viewBox="0 0 44 53" version="1.1" xmlns="http://www.w3.org/2000/svg" xmlns:xlink="http://www.w3.org/1999/xlink">
    <!-- Generator: Sketch 49.2 (51160) - http://www.bohemiancoding.com/sketch -->
    <title>location-pin-selected</title>
    <desc>Created with Sketch.</desc>
    <defs>
        <path d="M7.52,2.74985211e-16 C3.36,2.74985211e-16 0,3.37272727 0,7.54848485 L0,32.2015152 C0,36.3772727 3.36,39.75 7.52,39.75 L13.04,39.75 C13.36,39.75 15.2,39.9106061 15.36,40.1515152 L21.76,52.8393939 L28.16,40.1515152 C28.32,39.9106061 30.16,39.75 30.48,39.75 L36.08,39.75 C40.24,39.75 43.6,36.3772727 43.6,32.2015152 L43.6,7.54848485 C43.6,3.37272727 40.24,0 36.08,0 C31.5534722,4.35829201e-17 28.1585764,7.62701102e-17 25.8953125,9.80615702e-17 C21.8119097,1.37377935e-16 15.6868056,1.96352482e-16 7.52,2.74985211e-16 Z" id="path-1"></path>
        <filter x="-18.3%" y="-13.2%" width="136.7%" height="130.3%" filterUnits="objectBoundingBox" id="filter-2">
            <feOffset dx="0" dy="1" in="SourceAlpha" result="shadowOffsetOuter1"></feOffset>
            <feGaussianBlur stdDeviation="2.5" in="shadowOffsetOuter1" result="shadowBlurOuter1"></feGaussianBlur>
            <feComposite in="shadowBlurOuter1" in2="SourceAlpha" operator="out" result="shadowBlurOuter1"></feComposite>
            <feColorMatrix values="0 0 0 0 0   0 0 0 0 0   0 0 0 0 0  0 0 0 0.271993886 0" type="matrix" in="shadowBlurOuter1"></feColorMatrix>
        </filter>
        <polygon id="path-3" points="0.0508252692 0.0333709765 4.05937369 0.0333709765 4.05937369 4.92054755 0.0508252692 4.92054755"></polygon>
        <polygon id="path-5" points="0.133347404 0.0420307932 7.13760747 0.0420307932 7.13760747 16.4345018 0.133347404 16.4345018"></polygon>
    </defs>
    <g id="location-pin-selected" stroke="none" stroke-width="1" fill="none" fill-rule="evenodd">
        <g id="location-pin-orange">
            <g id="Path">
                <use fill="black" fill-opacity="1" filter="url(#filter-2)" xlink:href="#path-1"></use>
                <use fill="#EC6607" fill-rule="evenodd" xlink:href="#path-1"></use>
                <path stroke="#FFFFFF" stroke-width="1.6" d="M21.7603516,51.0637612 L27.493587,39.7089163 C27.8561269,39.1630466 29.4327868,38.95 30.48,38.95 L36.08,38.95 C39.7974937,38.95 42.8,35.9361206 42.8,32.2015152 L42.8,7.54848485 C42.8,3.81387942 39.7974937,0.8 36.08,0.8 C29.8560243,0.8 29.8560243,0.8 25.8953125,0.8 C18.7493576,0.8 18.7493576,0.8 7.52,0.8 C3.80250629,0.8 0.8,3.81387942 0.8,7.54848485 L0.8,32.2015152 C0.8,35.9361206 3.80250629,38.95 7.52,38.95 L13.04,38.95 C14.0872132,38.95 15.6638731,39.1630466 16.0742749,39.7912217 L21.7603516,51.0637612 Z M28.6049411,40.8017139 C28.6026515,40.8025804 28.6005695,40.8034023 28.5987008,40.8041765 C28.6031444,40.8023356 28.6075985,40.8004198 28.6120829,40.798383 Z"></path>
            </g>
        </g>
        <g id="nordic-walk" transform="translate(4.000000, 5.000000)">
            <g id="Page-1" transform="translate(9.701795, 0.000000)">
                <g id="Group-3" transform="translate(4.443943, 0.172623)">
                    <mask id="mask-4" fill="white">
                        <use xlink:href="#path-3"></use>
                    </mask>
                    <g id="Clip-2"></g>
                    <path d="M4.05897066,2.01700774 C4.06955148,2.48337743 3.86936242,2.90278057 3.74535525,3.3386632 C3.63044758,3.74179283 3.48781816,4.1375067 3.37841252,4.54187229 C3.30265387,4.82161171 3.13949767,4.94623789 2.84704389,4.91616281 C2.18320344,4.84797891 1.54073624,4.76887733 1.15940359,4.10619566 C0.945036243,3.73355309 0.629304667,3.41776477 0.38636911,3.05912977 C-0.0952696755,2.34824558 -0.0514650935,1.43322164 0.473131809,0.782693594 C0.997093862,0.133195515 1.92968707,-0.132948322 2.72790389,0.139169331 C3.53712477,0.414994872 4.0634146,1.15760209 4.05897066,2.01700774" id="Fill-1" fill="#FFFFFF" mask="url(#mask-4)"></path>
                </g>
                <g id="Group-6" transform="translate(9.099503, 6.558427)">
                    <mask id="mask-6" fill="white">
                        <use xlink:href="#path-5"></use>
                    </mask>
                    <g id="Clip-5"></g>
                    <path d="M2.87358058,0.042970282 C3.05070346,0.0355545095 3.21428288,0.0707794291 3.25787585,0.193757657 C3.37786231,0.532823258 3.60556149,0.426942505 3.837493,0.369676262 C4.33796564,0.246080052 4.38579093,0.293458599 4.25797466,0.79422924 C4.22877161,0.908967721 4.20676351,1.07087875 4.12423314,1.12011124 C3.6470383,1.40376454 3.8063854,1.93687619 3.60217563,2.32414432 C3.5706448,2.38408848 3.61444938,2.48646734 3.63476455,2.56639289 C4.76775842,7.02512613 5.90350331,11.4830354 7.02612799,15.9440346 C7.05892852,16.0742226 7.27943274,16.2639428 6.99121129,16.3945428 C6.72393985,16.515667 6.68352113,16.3397484 6.63717716,16.1564141 C6.26198139,14.6689337 5.88742047,13.1816593 5.50926207,11.6950029 C4.7506175,8.7118024 3.99006838,5.72921988 3.23015411,2.74622537 C3.10551209,2.25699038 2.76332847,2.06850616 2.27576442,2.20322602 C1.73254528,2.35318942 1.18276604,2.4811115 0.641239828,2.63622474 C0.442955319,2.693079 0.354922922,2.67948342 0.328259264,2.45453832 C0.289110241,2.1224765 0.228587969,1.79103267 0.14817376,1.46618063 C0.0997136186,1.27089862 0.171028325,1.21548632 0.347727967,1.17634752 C0.934328457,1.04677749 1.516485,0.898050056 2.10372034,0.770539967 C2.28761494,0.730577192 2.4101408,0.704827982 2.40654332,0.465051336 C2.40209938,0.173158289 2.6367819,0.069543467 2.87358058,0.042970282" id="Fill-4" fill="#FFFFFF" mask="url(#mask-6)"></path>
                </g>
                <path d="M9.55077439,17.6338213 C9.8436514,16.7128236 10.1346239,15.7914139 10.4298287,14.8710341 C10.6708597,14.1199811 10.543255,13.8264401 9.83010795,13.5122998 C9.5729941,13.3990032 9.30847368,13.2984783 9.06109418,13.1676723 C8.81159852,13.0360424 8.65479081,13.0135891 8.67806861,13.3633663 C8.68124285,13.4099209 8.6598696,13.4577114 8.6585999,13.505296 C8.64294029,14.0653928 8.42518708,14.6394972 8.57797408,15.1781707 C8.81498438,16.0128571 9.16986498,16.8160264 9.4745925,17.6327914 C9.49998646,17.6332034 9.52538042,17.6334094 9.55077439,17.6338213 M8.47364722,22.5739618 C8.15537625,23.5652034 7.83689366,24.556239 7.51862269,25.5474806 C7.13771328,26.7348282 6.75955488,27.9229998 6.37314345,29.1089054 C6.31473734,29.2877079 6.30817723,29.5857808 6.0085285,29.4972035 C5.68263934,29.4005924 5.86462939,29.1412464 5.92451681,28.9527622 C6.65184217,26.6664383 7.38170692,24.3811444 8.12172925,22.0987344 C8.19198588,21.8816171 8.16955455,21.72156 8.03962211,21.5347237 C7.70442183,21.0524925 7.3918645,20.5554297 7.02640309,19.9969809 C6.88906408,20.8314613 6.75680387,21.5808663 6.64507044,22.3329492 C6.56127038,22.8971659 6.29442217,23.3303706 5.8259036,23.6820018 C4.04218948,25.0207548 2.26947942,26.3731033 0.501213297,27.7314256 C0.267165627,27.9112581 0.189502431,27.8476061 0.0961796257,27.6164812 C-0.0697275834,27.2057298 -0.00645429832,26.8182556 0.175958985,26.4355194 C0.396251593,25.9728576 0.730182175,25.5870314 1.07850267,25.2150068 C2.07352269,24.1522854 3.07150534,23.0918299 4.07816426,22.0396142 C4.2275654,21.883265 4.27877655,21.7349496 4.25232451,21.5279259 C4.07414355,20.1370566 3.91945201,18.7441273 3.88347723,17.3413103 C3.87543581,17.024698 3.71249123,16.7451646 3.64202299,16.4421479 C3.42786725,15.5207382 3.47146022,14.612718 3.75290995,13.7119076 C3.78105492,13.6214764 4.55853335,7.12278773 4.57144195,7.03173853 C4.62349957,6.66403981 4.65418393,6.29304518 4.71132035,5.92617044 C4.78877193,5.42869569 5.09857825,5.14112851 5.59376048,5.2099304 C6.43197279,5.32652283 7.26637601,5.48431399 8.09083327,5.67279821 C8.47787955,5.7611695 8.61246754,6.12866223 8.69520953,6.47328966 C8.85751926,7.15059688 8.87973898,7.84932745 8.99845574,8.53343247 C9.1300811,9.29128322 8.92714104,10.0287406 8.91275113,10.8452996 C8.43428658,10.570092 8.00216602,10.3257835 7.57554748,10.0730292 C7.47333679,10.0124671 7.46931608,9.88948888 7.44709637,9.78463809 C7.37260742,9.43341886 7.29579069,9.08240563 7.22722699,8.72995044 C7.20691182,8.62530565 7.17432291,8.52725266 7.05264351,8.54270218 C6.88335044,8.56391953 6.98027072,8.68978167 6.98958184,8.76888325 C7.04058138,9.19693812 7.10766376,9.62334504 7.14977541,10.0520179 C7.16628149,10.2186668 7.24944671,10.3060081 7.38572763,10.3840797 C8.51025685,11.026574 9.63330476,11.6721582 10.7546597,12.3198023 C10.8668164,12.3846903 10.94977,12.4005519 11.0858393,12.3410197 C11.4610351,12.1768427 11.7740156,12.3570872 11.8167621,12.7602168 C11.8324217,12.9081203 11.9018319,12.9676525 12.0135653,13.0275966 C12.3367035,13.2012493 12.6526467,13.3880856 12.9810752,13.5514386 C13.1711067,13.6457837 13.1692022,13.7279751 13.0337677,13.8682568 C12.683331,14.2318357 12.2776625,14.4359754 11.7505262,14.3387464 C11.6356185,14.3175291 11.4828316,14.1797193 11.4187118,14.2775663 C11.3031693,14.4541029 11.0595989,14.4858259 10.9910352,14.7037672 C10.6088561,15.916246 10.2205401,17.1268709 9.82778017,18.3360538 C9.78143619,18.4786014 9.83158927,18.5941639 9.87666355,18.7165241 C10.0760061,19.2574635 10.247627,19.8103506 10.4837908,20.3358405 C10.90787,21.2799095 10.942575,22.2468439 10.8310532,23.2547709 C10.5705535,25.6119566 10.3464518,27.9730562 10.1270057,30.3343618 C10.0969562,30.6569479 10.0034217,30.720188 9.70758209,30.6089514 C9.13410182,30.393688 8.8981496,29.9398839 8.78324193,29.4012104 C8.71044591,29.0598789 8.71404338,28.7111316 8.70494388,28.3634143 C8.65415596,26.4351074 8.59723117,24.5070065 8.54242253,22.5786997 C8.51956797,22.5772577 8.49650179,22.5756098 8.47364722,22.5739618" id="Fill-7" fill="#FFFFFF"></path>
            </g>
        </g>
    </g>
</svg>