<?xml version="1.0" encoding="UTF-8"?>
<svg width="44px" height="53px" viewBox="0 0 44 53" version="1.1" xmlns="http://www.w3.org/2000/svg" xmlns:xlink="http://www.w3.org/1999/xlink">
    <!-- Generator: Sketch 49.2 (51160) - http://www.bohemiancoding.com/sketch -->
    <title>location-pin-selected</title>
    <desc>Created with Sketch.</desc>
    <defs>
        <path d="M7.52,2.74985211e-16 C3.36,2.74985211e-16 0,3.37272727 0,7.54848485 L0,32.2015152 C0,36.3772727 3.36,39.75 7.52,39.75 L13.04,39.75 C13.36,39.75 15.2,39.9106061 15.36,40.1515152 L21.76,52.8393939 L28.16,40.1515152 C28.32,39.9106061 30.16,39.75 30.48,39.75 L36.08,39.75 C40.24,39.75 43.6,36.3772727 43.6,32.2015152 L43.6,7.54848485 C43.6,3.37272727 40.24,0 36.08,0 C31.5534722,4.35829201e-17 28.1585764,7.62701102e-17 25.8953125,9.80615702e-17 C21.8119097,1.37377935e-16 15.6868056,1.96352482e-16 7.52,2.74985211e-16 Z" id="path-1"></path>
        <filter x="-18.3%" y="-13.2%" width="136.7%" height="130.3%" filterUnits="objectBoundingBox" id="filter-2">
            <feOffset dx="0" dy="1" in="SourceAlpha" result="shadowOffsetOuter1"></feOffset>
            <feGaussianBlur stdDeviation="2.5" in="shadowOffsetOuter1" result="shadowBlurOuter1"></feGaussianBlur>
            <feComposite in="shadowBlurOuter1" in2="SourceAlpha" operator="out" result="shadowBlurOuter1"></feComposite>
            <feColorMatrix values="0 0 0 0 0   0 0 0 0 0   0 0 0 0 0  0 0 0 0.271993886 0" type="matrix" in="shadowBlurOuter1"></feColorMatrix>
        </filter>
        <polygon id="path-3" points="0.0448792258 0.0308342964 6.32095648 0.0308342964 6.32095648 3.41825101 0.0448792258 3.41825101"></polygon>
        <polygon id="path-5" points="0 0.0361820555 28.7875027 0.0361820555 28.7875027 12.7245758 0 12.7245758"></polygon>
    </defs>
    <g id="location-pin-selected" stroke="none" stroke-width="1" fill="none" fill-rule="evenodd">
        <g id="location-pin-orange">
            <g id="Path">
                <use fill="black" fill-opacity="1" filter="url(#filter-2)" xlink:href="#path-1"></use>
                <use fill="#EC6607" fill-rule="evenodd" xlink:href="#path-1"></use>
                <path stroke="#FFFFFF" stroke-width="1.6" d="M21.7603516,51.0637612 L27.493587,39.7089163 C27.8561269,39.1630466 29.4327868,38.95 30.48,38.95 L36.08,38.95 C39.7974937,38.95 42.8,35.9361206 42.8,32.2015152 L42.8,7.54848485 C42.8,3.81387942 39.7974937,0.8 36.08,0.8 C29.8560243,0.8 29.8560243,0.8 25.8953125,0.8 C18.7493576,0.8 18.7493576,0.8 7.52,0.8 C3.80250629,0.8 0.8,3.81387942 0.8,7.54848485 L0.8,32.2015152 C0.8,35.9361206 3.80250629,38.95 7.52,38.95 L13.04,38.95 C14.0872132,38.95 15.6638731,39.1630466 16.0742749,39.7912217 L21.7603516,51.0637612 Z M28.6049411,40.8017139 C28.6026515,40.8025804 28.6005695,40.8034023 28.5987008,40.8041765 C28.6031444,40.8023356 28.6075985,40.8004198 28.6120829,40.798383 Z"></path>
            </g>
        </g>
        <g id="speluking" transform="translate(4.000000, 5.000000)">
            <g id="Page-1" transform="translate(16.863849, 15.510554) rotate(11.000000) translate(-16.863849, -15.510554) translate(-0.111937, 7.549495)">
                <g id="Group-6" transform="translate(23.225170, 0.012594)">
                    <path d="M0.504678393,5.29039658 C0.70496133,5.79521047 1.41423981,6.80861653 1.41423981,6.80861653 C1.41423981,6.80861653 1.81703712,6.90446342 2.13768109,6.9705183 C2.40782169,7.02619375 2.64344332,7.0583309 2.71817372,6.87210912 C2.89363761,6.43534783 3.2235261,5.61354869 3.32057088,5.37173832 C3.41005609,5.14890624 3.43437421,4.91999416 3.40686833,4.70133123 L4.30941665,4.82379984 L4.33091132,4.54520546 L3.88958755,4.19061105 C3.69823036,3.42140393 3.00320576,2.82478201 2.13253512,2.76367799 C1.05689097,2.68824253 0.120779992,3.4585788 0.0416322559,4.48431858 C0.0173141366,4.79978383 0.0768343275,5.10282851 0.202386865,5.37321489 L0.504678393,5.29039658 Z" id="Fill-1" fill="#FFFFFF"></path>
                    <g id="Group-5" transform="translate(3.916401, 0.000000)">
                        <mask id="mask-4" fill="white">
                            <use xlink:href="#path-3"></use>
                        </mask>
                        <g id="Clip-4"></g>
                        <path d="M0.0448792258,3.41825101 L5.23638784,0.0308212678 C5.23638784,0.0308212678 6.96689071,1.24682169 6.05609973,3.33139384 C3.32372677,3.41825101 0.0448792258,3.41825101 0.0448792258,3.41825101" id="Fill-3" fill="#FFFFFF" mask="url(#mask-4)"></path>
                    </g>
                </g>
                <g id="Group-9" transform="translate(0.000000, 2.184024)">
                    <mask id="mask-6" fill="white">
                        <use xlink:href="#path-5"></use>
                    </mask>
                    <g id="Clip-8"></g>
                    <path d="M21.8120733,9.42353424 C20.9830259,9.5281537 20.4459324,8.92549521 20.292282,8.47657391 C20.220876,8.26798641 19.5198401,6.24034913 19.5198401,6.24034913 L20.9623509,6.5035698 L21.8120733,9.42353424 Z M6.83939819,6.253812 C7.73734702,6.42922006 14.3775142,7.72647536 14.8777206,7.82501483 C15.7110033,7.98913145 16.057195,7.50529357 15.9660703,6.86650249 C15.8865583,6.30905316 15.4605358,4.33353019 15.4605358,4.33353019 L19.3367256,5.84779814 L21.9667257,6.3016703 C21.9667257,6.3016703 24.0956996,10.8599782 24.2223906,11.1305817 C24.3751303,11.4568172 24.7416325,11.7611213 25.2419756,11.7922162 L21.9561149,12.360653 L17.9516402,10.0114704 L8.80201614,10.002611 L6.83939819,6.253812 Z M17.8484021,10.3588557 L21.8812479,12.7245845 L28.7854534,11.5322093 L28.7875027,11.1788308 L25.5984136,11.7305042 L23.9284784,6.11188737 C24.4477203,6.15449082 23.4319607,4.04225466 23.4319607,4.04225466 C23.4319607,4.04225466 23.403544,3.93290148 23.3885615,3.87522831 C23.1639604,3.01073887 22.5694871,2.44282325 20.8863909,2.03442082 C18.6443878,1.49043435 16.9079193,1.12867422 16.9079193,1.12867422 C16.9079193,1.12867422 16.2590718,0.79132096 15.7563152,0.535309443 C15.2535585,0.279254497 13.841787,-0.35067715 12.3411678,0.372321958 C10.8405941,1.09532107 7.58592802,2.68802105 7.58592802,2.68802105 C7.58592802,2.68802105 2.62412089,2.14459914 1.7540878,2.06898997 C0.883963636,1.99333738 0.06930664,2.29946548 0.0175737121,2.99996858 C5.67786645,4.23881244 5.66711911,4.23672787 7.14619813,4.55245369 C7.94764866,4.72356232 8.15831461,4.72490861 8.90825991,4.53569026 C9.55423842,4.37270277 12.4756916,3.63550252 12.4756916,3.63550252 L13.1130176,5.5593889 C13.1130176,5.5593889 9.03968705,5.22481507 8.55364344,5.19024591 C7.63515627,5.12492932 6.93166131,5.42667114 6.76343822,6.10876052 L6.24547139,5.11941389 L0.00154379072,6.66295271 L-4.55395493e-06,7.02219398 L6.05762075,5.52447231 L8.58210566,10.349866 L17.8484021,10.3588557 Z" id="Fill-7" fill="#FFFFFF" mask="url(#mask-6)"></path>
                </g>
            </g>
        </g>
    </g>
</svg>