<?xml version="1.0" encoding="UTF-8"?>
<svg width="44px" height="53px" viewBox="0 0 44 53" version="1.1" xmlns="http://www.w3.org/2000/svg" xmlns:xlink="http://www.w3.org/1999/xlink">
    <!-- Generator: Sketch 49.2 (51160) - http://www.bohemiancoding.com/sketch -->
    <title>location-pin-selected</title>
    <desc>Created with Sketch.</desc>
    <defs>
        <path d="M7.52,2.74985211e-16 C3.36,2.74985211e-16 0,3.37272727 0,7.54848485 L0,32.2015152 C0,36.3772727 3.36,39.75 7.52,39.75 L13.04,39.75 C13.36,39.75 15.2,39.9106061 15.36,40.1515152 L21.76,52.8393939 L28.16,40.1515152 C28.32,39.9106061 30.16,39.75 30.48,39.75 L36.08,39.75 C40.24,39.75 43.6,36.3772727 43.6,32.2015152 L43.6,7.54848485 C43.6,3.37272727 40.24,0 36.08,0 C31.5534722,4.35829201e-17 28.1585764,7.62701102e-17 25.8953125,9.80615702e-17 C21.8119097,1.37377935e-16 15.6868056,1.96352482e-16 7.52,2.74985211e-16 Z" id="path-1"></path>
        <filter x="-18.3%" y="-13.2%" width="136.7%" height="130.3%" filterUnits="objectBoundingBox" id="filter-2">
            <feOffset dx="0" dy="1" in="SourceAlpha" result="shadowOffsetOuter1"></feOffset>
            <feGaussianBlur stdDeviation="2.5" in="shadowOffsetOuter1" result="shadowBlurOuter1"></feGaussianBlur>
            <feComposite in="shadowBlurOuter1" in2="SourceAlpha" operator="out" result="shadowBlurOuter1"></feComposite>
            <feColorMatrix values="0 0 0 0 0   0 0 0 0 0   0 0 0 0 0  0 0 0 0.271993886 0" type="matrix" in="shadowBlurOuter1"></feColorMatrix>
        </filter>
    </defs>
    <g id="location-pin-selected" stroke="none" stroke-width="1" fill="none" fill-rule="evenodd">
        <g id="location-pin-orange">
            <g id="Path">
                <use fill="black" fill-opacity="1" filter="url(#filter-2)" xlink:href="#path-1"></use>
                <use fill="#EC6607" fill-rule="evenodd" xlink:href="#path-1"></use>
                <path stroke="#FFFFFF" stroke-width="1.6" d="M21.7603516,51.0637612 L27.493587,39.7089163 C27.8561269,39.1630466 29.4327868,38.95 30.48,38.95 L36.08,38.95 C39.7974937,38.95 42.8,35.9361206 42.8,32.2015152 L42.8,7.54848485 C42.8,3.81387942 39.7974937,0.8 36.08,0.8 C29.8560243,0.8 29.8560243,0.8 25.8953125,0.8 C18.7493576,0.8 18.7493576,0.8 7.52,0.8 C3.80250629,0.8 0.8,3.81387942 0.8,7.54848485 L0.8,32.2015152 C0.8,35.9361206 3.80250629,38.95 7.52,38.95 L13.04,38.95 C14.0872132,38.95 15.6638731,39.1630466 16.0742749,39.7912217 L21.7603516,51.0637612 Z M28.6049411,40.8017139 C28.6026515,40.8025804 28.6005695,40.8034023 28.5987008,40.8041765 C28.6031444,40.8023356 28.6075985,40.8004198 28.6120829,40.798383 Z"></path>
            </g>
        </g>
        <g id="orienteering" transform="translate(5.000000, 6.000000)" fill="#FFFFFF">
            <path d="M15.290907,4.8433564 C15.2624224,4.8353764 15.2359293,4.8283764 15.2119837,4.8219364 C15.1716421,4.8094764 15.1490396,4.8024764 15.1490396,4.8024764 C15.1490396,4.8024764 15.2145774,4.8213764 15.290907,4.8433564 Z M14.8376539,2.31979481 C14.7671602,1.97938191 14.7894848,1.62110905 14.8921221,1.26771597 C15.1891497,0.24803881 16.2404412,-0.194458914 17.0890517,0.0796378789 C17.9368749,0.353441885 18.5215741,1.38863672 18.2287613,2.39528488 C18.1350168,2.71754502 17.8044097,3.85340955 17.6347988,4.43605432 C17.562684,4.68428832 17.2952527,4.61450758 16.9717784,4.57307832 C16.6065729,4.52623251 16.2790691,4.48446166 16.2790691,4.48446166 C16.2790691,4.48446166 14.9435334,2.83285403 14.8376539,2.31979481 Z M15.0289873,12.9432536 L12.566479,9.1428384 L14.9517777,7.61615293 L14.8745682,7.99838547 L13.7943752,8.82858108 L13.7653348,10.3738585 L15.1005463,12.5748308 L15.0289873,12.9432536 Z M19.9685936,10.2089222 C20.266177,10.4614016 20.5684846,10.4187036 20.7386977,10.221268 L20.7466178,10.2213656 C20.7466178,10.2213656 23.0562354,7.76888979 23.7843305,7.00174084 C24.5124718,6.23464068 23.808554,5.29025841 23.808554,5.29025841 L20.5889565,8.09080835 C20.5889565,8.09080835 18.8952555,5.86992652 18.719855,5.63960129 C18.4837335,5.32958937 18.3764646,5.15020895 17.9296958,5.1020456 C17.6402641,5.07086386 15.9287776,4.87811287 15.290907,4.81672534 C15.4733013,4.83502448 15.7178523,4.85966733 15.2800689,4.81662774 C15.253437,4.81374867 15.2309272,4.81130879 15.2119837,4.80925928 C15.1887328,4.80716098 15.1669178,4.80520907 15.1482986,4.80364755 C14.2976038,4.73235408 14.0168333,5.0614459 13.0490967,6.04437837 C13.0490967,6.04437837 10.9526276,8.15092714 10.7031207,8.41380046 C10.4536138,8.67672258 10.2011427,9.18685394 10.6597685,9.69005603 C10.9435959,10.0014831 13.1043523,12.2120198 13.6632996,12.7901752 C13.0253827,13.4622662 12.9710072,14.6125748 13.4082347,15.5741339 L12.1781617,20.270524 C12.1781617,20.270524 9.16147668,25.4317125 8.82609905,26.0201154 C8.49072142,26.6085671 7.96132405,27.6238037 9.11247385,28.3555743 L14.0468,21.6124125 L15.8704651,18.7927339 L14.5966693,17.2293038 L14.6752683,16.9138753 C14.6752683,16.9138753 15.1123107,17.3891163 16.211447,18.5471838 C17.3106297,19.7052025 18.3235712,21.1285832 18.3235712,21.1285832 C18.3235712,21.1285832 20.8891336,26.6846915 21.1734705,27.2888073 C21.4578073,27.8929719 22.2003068,29.0465012 23.5407058,28.5110926 L20.6129484,20.031464 L17.6769931,14.5384999 L18.8603328,9.31119053 L19.9685936,10.2089222 Z" id="Fill-1"></path>
            <g id="noun_1446069_cc" stroke-width="1" transform="translate(22.071584, 9.932213)">
                <path d="M1.45791761,5.19517367 C0.609028009,4.74407821 0.0269858493,3.81963676 0.0269858493,2.75250549 C0.0269858493,1.24155643 1.19374035,0.0164642087 2.63273945,0.0164642087 C4.07173856,0.0164642087 5.23849306,1.24155643 5.23849306,2.75250549 C5.23849306,3.81963676 4.6564509,4.74407821 3.80750449,5.19517367 L2.63268264,8.77154578 L1.45791761,5.19517367 Z M2.63268264,4.52640467 C3.5658249,4.52640467 4.32211043,3.73230487 4.32211043,2.75250549 C4.32211043,1.77264647 3.5658249,0.978606316 2.63268264,0.978606316 C1.69948357,0.978606316 0.943254853,1.77264647 0.943254853,2.75250549 C0.943311665,3.73230487 1.69954038,4.52640467 2.63268264,4.52640467 Z" id="Shape"></path>
            </g>
        </g>
    </g>
</svg>