<?xml version="1.0" encoding="UTF-8"?>
<svg width="44px" height="53px" viewBox="0 0 44 53" version="1.1" xmlns="http://www.w3.org/2000/svg" xmlns:xlink="http://www.w3.org/1999/xlink">
    <!-- Generator: Sketch 49.2 (51160) - http://www.bohemiancoding.com/sketch -->
    <title>location-pin-selected</title>
    <desc>Created with Sketch.</desc>
    <defs>
        <path d="M7.52,2.74985211e-16 C3.36,2.74985211e-16 0,3.37272727 0,7.54848485 L0,32.2015152 C0,36.3772727 3.36,39.75 7.52,39.75 L13.04,39.75 C13.36,39.75 15.2,39.9106061 15.36,40.1515152 L21.76,52.8393939 L28.16,40.1515152 C28.32,39.9106061 30.16,39.75 30.48,39.75 L36.08,39.75 C40.24,39.75 43.6,36.3772727 43.6,32.2015152 L43.6,7.54848485 C43.6,3.37272727 40.24,0 36.08,0 C31.5534722,4.35829201e-17 28.1585764,7.62701102e-17 25.8953125,9.80615702e-17 C21.8119097,1.37377935e-16 15.6868056,1.96352482e-16 7.52,2.74985211e-16 Z" id="path-1"></path>
        <filter x="-18.3%" y="-13.2%" width="136.7%" height="130.3%" filterUnits="objectBoundingBox" id="filter-2">
            <feOffset dx="0" dy="1" in="SourceAlpha" result="shadowOffsetOuter1"></feOffset>
            <feGaussianBlur stdDeviation="2.5" in="shadowOffsetOuter1" result="shadowBlurOuter1"></feGaussianBlur>
            <feComposite in="shadowBlurOuter1" in2="SourceAlpha" operator="out" result="shadowBlurOuter1"></feComposite>
            <feColorMatrix values="0 0 0 0 0   0 0 0 0 0   0 0 0 0 0  0 0 0 0.271993886 0" type="matrix" in="shadowBlurOuter1"></feColorMatrix>
        </filter>
    </defs>
    <g id="location-pin-selected" stroke="none" stroke-width="1" fill="none" fill-rule="evenodd">
        <g id="location-pin-orange">
            <g id="Path">
                <use fill="black" fill-opacity="1" filter="url(#filter-2)" xlink:href="#path-1"></use>
                <use fill="#EC6607" fill-rule="evenodd" xlink:href="#path-1"></use>
                <path stroke="#FFFFFF" stroke-width="1.6" d="M21.7603516,51.0637612 L27.493587,39.7089163 C27.8561269,39.1630466 29.4327868,38.95 30.48,38.95 L36.08,38.95 C39.7974937,38.95 42.8,35.9361206 42.8,32.2015152 L42.8,7.54848485 C42.8,3.81387942 39.7974937,0.8 36.08,0.8 C29.8560243,0.8 29.8560243,0.8 25.8953125,0.8 C18.7493576,0.8 18.7493576,0.8 7.52,0.8 C3.80250629,0.8 0.8,3.81387942 0.8,7.54848485 L0.8,32.2015152 C0.8,35.9361206 3.80250629,38.95 7.52,38.95 L13.04,38.95 C14.0872132,38.95 15.6638731,39.1630466 16.0742749,39.7912217 L21.7603516,51.0637612 Z M28.6049411,40.8017139 C28.6026515,40.8025804 28.6005695,40.8034023 28.5987008,40.8041765 C28.6031444,40.8023356 28.6075985,40.8004198 28.6120829,40.798383 Z"></path>
            </g>
        </g>
        <g id="canoying" transform="translate(6.000000, 7.000000)" fill="#FFFFFF">
            <path d="M23.8633171,21.1369645 C23.3017022,20.3754207 20.7496056,16.9175652 19.8439331,15.7330382 C19.5956391,15.4083453 19.3758246,15.1455567 18.8988313,14.9329782 C18.421838,14.7203998 15.8406377,13.5700418 15.8406377,13.5700418 L16.8826557,12.4408548 C16.8826557,12.4408548 21.0003008,14.5149943 21.5538474,14.7703057 C22.0716627,15.0091413 22.9116838,15.4120839 23.7058882,14.7935633 L24.6006108,19.1252074 C24.6006108,19.1252074 24.2733623,20.0148634 23.8633171,21.1369645 Z M26.8224333,-2.60832428e-05 L26.4382261,-2.60832428e-05 L26.4382261,3.89489763 L23.1404312,12.0562574 L23.6451355,14.4996051 C21.7251558,13.2133535 17.6904995,10.5955523 17.6904995,10.5955523 C17.6904995,10.5955523 16.5749537,9.58573955 15.3825185,10.3169833 C14.1900353,11.04814 12.8437731,11.7792968 12.8437731,11.7792968 L12.5860661,11.5212901 L14.560171,8.854235 C14.560171,8.854235 13.9901515,8.64461268 13.4147531,8.77794152 L17.1978978,0.0176235777 C17.2003951,0.0117983202 17.2022681,0.00588611847 17.2043813,-2.60832428e-05 L16.4787579,-2.60832428e-05 L12.3282631,9.61108377 L11.5432796,10.4772648 L10.3049797,9.23748479 C10.3049797,9.23748479 7.6407906,8.66565316 7.00656049,8.52775975 C6.37228236,8.38982287 5.30437832,8.29740124 5.34284707,9.4116339 C5.38131582,10.5257362 7.22767176,13.5898651 7.22767176,13.5898651 C7.22767176,13.5898651 9.91837114,15.6535713 10.2723221,15.9071873 C10.4433903,16.0298221 10.7302491,16.1955811 11.0644614,16.2871767 L12.1666559,25.0098478 C12.1667039,25.0101956 12.1668,25.0105434 12.166848,25.0109346 L12.8490079,25.0109346 L11.7523364,16.3397345 C11.9078443,16.317129 12.0639285,16.2679621 12.2154982,16.1824525 L11.6362578,15.2968395 L17.8904313,16.9858598 C17.8904313,16.9858598 21.0550984,20.1990111 21.4824809,20.6192556 C21.8778302,21.0080263 22.6465808,21.6974499 23.7847948,21.3519339 C23.3145251,22.6396636 22.7595378,24.167533 22.4636021,25.0109346 L22.8616889,25.0109346 C23.4597074,23.3855574 24.9841937,19.2042831 24.9841937,19.2042831 L23.5241582,12.117466 L26.8224333,3.95497603 L26.8224333,-2.60832428e-05 Z M6.63339921,6.76787988 C6.84466516,7.27315577 7.59262062,8.28757655 7.59262062,8.28757655 C7.59262062,8.28757655 8.01745778,8.38351942 8.35560818,8.44968391 C8.64044982,8.5054151 8.88893586,8.53758444 8.96779439,8.35117619 C9.15279018,7.9139341 9.50068984,7.09135556 9.60303305,6.84930307 C9.69740395,6.62624787 9.72304978,6.39710658 9.69404214,6.17818123 L10.6458676,6.30077247 L10.6685358,6.02189914 L10.2031167,5.66699315 C10.0013119,4.89701582 9.26838854,4.2997965 8.35013322,4.2386313 C7.21576134,4.16307683 6.22858885,4.93422791 6.1450718,5.96099476 C6.11942597,6.27677589 6.18224385,6.58012401 6.31465127,6.85078112 L6.63339921,6.76787988 Z" id="Fill-1"></path>
        </g>
    </g>
</svg>