<?xml version="1.0" encoding="UTF-8"?>
<svg width="44px" height="53px" viewBox="0 0 44 53" version="1.1" xmlns="http://www.w3.org/2000/svg" xmlns:xlink="http://www.w3.org/1999/xlink">
    <!-- Generator: Sketch 49.2 (51160) - http://www.bohemiancoding.com/sketch -->
    <title>location-pin-selected</title>
    <desc>Created with Sketch.</desc>
    <defs>
        <path d="M7.52,2.74985211e-16 C3.36,2.74985211e-16 0,3.37272727 0,7.54848485 L0,32.2015152 C0,36.3772727 3.36,39.75 7.52,39.75 L13.04,39.75 C13.36,39.75 15.2,39.9106061 15.36,40.1515152 L21.76,52.8393939 L28.16,40.1515152 C28.32,39.9106061 30.16,39.75 30.48,39.75 L36.08,39.75 C40.24,39.75 43.6,36.3772727 43.6,32.2015152 L43.6,7.54848485 C43.6,3.37272727 40.24,0 36.08,0 C31.5534722,4.35829201e-17 28.1585764,7.62701102e-17 25.8953125,9.80615702e-17 C21.8119097,1.37377935e-16 15.6868056,1.96352482e-16 7.52,2.74985211e-16 Z" id="path-1"></path>
        <filter x="-18.3%" y="-13.2%" width="136.7%" height="130.3%" filterUnits="objectBoundingBox" id="filter-2">
            <feOffset dx="0" dy="1" in="SourceAlpha" result="shadowOffsetOuter1"></feOffset>
            <feGaussianBlur stdDeviation="2.5" in="shadowOffsetOuter1" result="shadowBlurOuter1"></feGaussianBlur>
            <feComposite in="shadowBlurOuter1" in2="SourceAlpha" operator="out" result="shadowBlurOuter1"></feComposite>
            <feColorMatrix values="0 0 0 0 0   0 0 0 0 0   0 0 0 0 0  0 0 0 0.271993886 0" type="matrix" in="shadowBlurOuter1"></feColorMatrix>
        </filter>
    </defs>
    <g id="location-pin-selected" stroke="none" stroke-width="1" fill="none" fill-rule="evenodd">
        <g id="location-pin-orange">
            <g id="Path">
                <use fill="black" fill-opacity="1" filter="url(#filter-2)" xlink:href="#path-1"></use>
                <use fill="#EC6607" fill-rule="evenodd" xlink:href="#path-1"></use>
                <path stroke="#FFFFFF" stroke-width="1.6" d="M21.7603516,51.0637612 L27.493587,39.7089163 C27.8561269,39.1630466 29.4327868,38.95 30.48,38.95 L36.08,38.95 C39.7974937,38.95 42.8,35.9361206 42.8,32.2015152 L42.8,7.54848485 C42.8,3.81387942 39.7974937,0.8 36.08,0.8 C29.8560243,0.8 29.8560243,0.8 25.8953125,0.8 C18.7493576,0.8 18.7493576,0.8 7.52,0.8 C3.80250629,0.8 0.8,3.81387942 0.8,7.54848485 L0.8,32.2015152 C0.8,35.9361206 3.80250629,38.95 7.52,38.95 L13.04,38.95 C14.0872132,38.95 15.6638731,39.1630466 16.0742749,39.7912217 L21.7603516,51.0637612 Z M28.6049411,40.8017139 C28.6026515,40.8025804 28.6005695,40.8034023 28.5987008,40.8041765 C28.6031444,40.8023356 28.6075985,40.8004198 28.6120829,40.798383 Z"></path>
            </g>
        </g>
        <g id="ski" transform="translate(6.000000, 8.000000)" fill="#FFFFFF">
            <path d="M25.1237991,15.2234078 C24.5558558,14.4638056 22.9261092,12.1502305 22.9261092,12.1502305 L22.3104987,8.80714024 L19.2843889,11.3564965 L19.2420556,11.9670056 C19.2420556,11.9670056 20.1561581,14.223185 20.477002,15.0240086 C20.7809126,15.782507 21.4017302,17.0856707 20.2051377,18.1329734 C19.0405915,19.1522149 18.2147539,19.8521714 17.6787723,20.2983469 L18.5648078,20.5243215 L25.1237991,15.2234078 Z M15.2251354,19.6725549 L15.6795832,19.7884502 C16.0077084,19.530042 16.363308,19.2490915 16.6002897,19.059244 C17.1614173,18.6098421 18.125727,17.7829951 18.125727,17.7829951 C18.8769311,17.0663548 18.7605146,16.4561005 18.42587,15.7327102 L17.5331458,13.5994307 L17.115147,13.5900063 L18.0470718,15.8119266 C18.3477651,16.5197792 18.42714,17.0451286 17.8275738,17.5751478 L15.2251354,19.6725549 Z M26.8923565,15.8841807 C26.8923565,15.8841807 26.0406532,16.164834 25.3961714,15.5485514 L19.0776332,20.6551176 L22.9057469,21.6314397 C22.9057469,21.6314397 23.2725224,21.5061624 24.6485233,21.0573123 C25.455184,20.7941919 25.3618391,21.4771674 24.9329606,21.6239256 C24.0250388,21.9345928 22.1531459,22.544083 22.1531459,22.544083 C22.1531459,22.544083 21.8141833,22.6927092 20.9634114,22.4541687 C20.519166,22.3069435 17.5076612,21.361357 14.3550595,20.3737425 L13.0269799,21.4440969 L17.9698982,23.2026059 C17.9698982,23.2026059 19.4898323,22.8106846 20.1996767,22.6309833 C20.9095635,22.4512819 20.8930535,23.1168943 20.473065,23.2352943 C19.5454582,23.4967591 17.1749216,24.1922581 17.1749216,24.1922581 C17.1749216,24.1922581 16.8233437,24.3076015 15.9993264,23.9884437 C15.2581977,23.6608379 7.17800242,20.2569133 3.76797212,18.8210431 L4.99876988,18.5879366 L11.2719268,20.8197058 L12.3639561,19.750243 C10.2271838,19.0813617 8.26592535,18.4682206 7.2717283,18.157426 L8.42679181,17.9386684 L13.0181323,19.1096351 L15.524855,16.654863 C15.524855,16.654863 15.0878063,15.7127576 14.2335207,14.0754504 C13.8184006,13.2798485 13.0027653,11.9245955 13.5634272,10.8189632 C13.706429,10.5369514 15.0295133,8.69965057 15.0295133,8.69965057 L17.1351706,6.03452642 L14.6472015,6.69389832 L12.8834278,10.7024736 C12.8834278,10.7024736 12.2329346,10.2828308 12.2819142,9.66081713 L1.03565529,12.6689573 L0.926562433,12.2587815 L12.3914304,9.19218422 C12.9245757,7.19046496 13.2745449,5.80791509 13.3209422,5.63823254 C13.3680591,5.46591792 13.4484077,5.36602724 13.6321765,5.29670235 C14.758665,4.87175304 18.2380796,3.72230973 18.6363511,3.63672553 C19.0100692,3.55644789 19.4739573,3.70290895 19.996477,4.01786388 L23.4233982,6.02314916 C23.9390599,6.32188725 24.0096718,6.82155292 24.1130497,7.88982709 C24.370563,10.5515975 24.4910012,11.7493942 24.4910012,11.7493942 L26.8923565,15.8841807 Z M25.3085838,3.86473779 L25.0077212,3.79728081 C25.0042922,3.79957324 25.0010749,3.80199303 24.9976459,3.80428546 C24.7041069,3.99578859 23.9106966,4.67617447 23.3797526,5.02131312 C23.1053907,5.19969843 22.8894486,5.14187816 22.590491,4.96744092 C22.2915757,4.79291878 21.5765243,4.38112974 21.5765243,4.38112974 C21.5765243,4.38112974 21.6935758,3.20523854 21.8486426,2.30927898 C21.7622404,2.14019076 21.6845165,1.94936687 21.6393892,1.74937324 C22.0653043,0.168612754 23.1911579,-0.0865266417 24.2056326,0.021684726 C25.2004646,0.127815922 25.8727171,0.849508057 26.0471302,1.27403284 C26.6676514,2.44508446 25.3085838,3.86473779 25.3085838,3.86473779 Z" id="Fill-1"></path>
        </g>
    </g>
</svg>