<?xml version="1.0" encoding="UTF-8"?>
<svg width="44px" height="53px" viewBox="0 0 44 53" version="1.1" xmlns="http://www.w3.org/2000/svg" xmlns:xlink="http://www.w3.org/1999/xlink">
    <!-- Generator: Sketch 49.2 (51160) - http://www.bohemiancoding.com/sketch -->
    <title>location-pin-selected</title>
    <desc>Created with Sketch.</desc>
    <defs>
        <path d="M7.52,2.74985211e-16 C3.36,2.74985211e-16 0,3.37272727 0,7.54848485 L0,32.2015152 C0,36.3772727 3.36,39.75 7.52,39.75 L13.04,39.75 C13.36,39.75 15.2,39.9106061 15.36,40.1515152 L21.76,52.8393939 L28.16,40.1515152 C28.32,39.9106061 30.16,39.75 30.48,39.75 L36.08,39.75 C40.24,39.75 43.6,36.3772727 43.6,32.2015152 L43.6,7.54848485 C43.6,3.37272727 40.24,0 36.08,0 C31.5534722,4.35829201e-17 28.1585764,7.62701102e-17 25.8953125,9.80615702e-17 C21.8119097,1.37377935e-16 15.6868056,1.96352482e-16 7.52,2.74985211e-16 Z" id="path-1"></path>
        <filter x="-18.3%" y="-13.2%" width="136.7%" height="130.3%" filterUnits="objectBoundingBox" id="filter-2">
            <feOffset dx="0" dy="1" in="SourceAlpha" result="shadowOffsetOuter1"></feOffset>
            <feGaussianBlur stdDeviation="2.5" in="shadowOffsetOuter1" result="shadowBlurOuter1"></feGaussianBlur>
            <feComposite in="shadowBlurOuter1" in2="SourceAlpha" operator="out" result="shadowBlurOuter1"></feComposite>
            <feColorMatrix values="0 0 0 0 0   0 0 0 0 0   0 0 0 0 0  0 0 0 0.271993886 0" type="matrix" in="shadowBlurOuter1"></feColorMatrix>
        </filter>
    </defs>
    <g id="location-pin-selected" stroke="none" stroke-width="1" fill="none" fill-rule="evenodd">
        <g id="location-pin-orange">
            <g id="Path">
                <use fill="black" fill-opacity="1" filter="url(#filter-2)" xlink:href="#path-1"></use>
                <use fill="#EC6607" fill-rule="evenodd" xlink:href="#path-1"></use>
                <path stroke="#FFFFFF" stroke-width="1.6" d="M21.7603516,51.0637612 L27.493587,39.7089163 C27.8561269,39.1630466 29.4327868,38.95 30.48,38.95 L36.08,38.95 C39.7974937,38.95 42.8,35.9361206 42.8,32.2015152 L42.8,7.54848485 C42.8,3.81387942 39.7974937,0.8 36.08,0.8 C29.8560243,0.8 29.8560243,0.8 25.8953125,0.8 C18.7493576,0.8 18.7493576,0.8 7.52,0.8 C3.80250629,0.8 0.8,3.81387942 0.8,7.54848485 L0.8,32.2015152 C0.8,35.9361206 3.80250629,38.95 7.52,38.95 L13.04,38.95 C14.0872132,38.95 15.6638731,39.1630466 16.0742749,39.7912217 L21.7603516,51.0637612 Z M28.6049411,40.8017139 C28.6026515,40.8025804 28.6005695,40.8034023 28.5987008,40.8041765 C28.6031444,40.8023356 28.6075985,40.8004198 28.6120829,40.798383 Z"></path>
            </g>
        </g>
        <g id="snowboard" transform="translate(6.000000, 8.000000)" fill="#FFFFFF">
            <path d="M14.5580526,3.15406539 C13.8672986,1.75485024 14.4365722,0.644448054 15.3420895,0.223518528 C16.2361681,-0.19216218 17.2111599,0.0498808316 17.7511273,0.321240407 C18.9641144,0.780661259 18.6581964,2.41261664 18.6581964,2.41261664 L18.3734267,2.5580046 C18.3446083,3.01844961 18.2891884,3.9022992 18.2583749,4.39351167 C18.242813,4.64242508 17.9534323,4.64084617 17.6133756,4.67908146 C17.229382,4.72222417 16.8851134,4.76114223 16.8851134,4.76114223 C16.8851134,4.76114223 15.8504011,4.03817102 15.2678711,3.49767088 C15.0418021,3.42448616 14.7820378,3.3149011 14.5580526,3.15406539 Z M16.0185673,16.0961121 L14.4633067,21.9530665 L9.98830254,20.4871103 L13.5640851,15.8298306 L16.5696631,15.2740534 L16.0185673,16.0961121 Z M23.7330216,6.86967313 C23.7330216,6.86967313 21.820502,5.89160088 20.9834837,5.46077114 C20.0624488,4.986628 19.6223259,4.87473858 18.9551586,4.95364153 C18.4539407,5.01295743 16.3511756,5.26174283 15.9200529,5.31188397 C15.2958914,5.38447127 14.8851189,5.53903399 14.5182833,5.952325 C14.2373708,6.26879026 12.294348,8.457675 12.294348,8.457675 L8.06762509,11.4163009 C8.13989268,11.7905885 9.27374012,12.2017885 10.0024457,11.7347718 C10.73124,11.2677551 15.4781565,8.22578824 15.4781565,8.22578824 L17.1550749,11.8008728 C17.1550749,11.8008728 12.7126133,13.7401187 12.3250728,13.91158 C11.6579499,14.2066233 11.4446496,14.4176001 11.1205539,15.042252 C10.8750214,15.5154564 8.9134219,19.2961409 8.54210837,20.0117723 C7.43761133,19.6484944 6.61619929,19.3776042 6.43446625,19.3167521 C5.09822523,18.8693651 4.23655615,17.4451434 4.12380985,18.6553158 C3.97825494,20.2180124 5.117068,20.6750009 5.79292514,20.9175986 C6.49321138,21.1689018 18.9493949,25.5537977 21.146773,25.8113738 C22.5309855,25.973703 22.9622412,25.4352512 23.0447948,24.9366136 C23.2120743,23.9266644 22.3291239,23.386847 20.0216154,23.360987 C18.6316835,23.3454112 17.564473,22.9277249 16.0602431,22.4719313 L18.5605243,16.6793709 C18.5605243,16.6793709 19.8834203,15.808622 21.0951216,15.0223236 C22.0876261,14.378298 22.0223635,12.5384809 21.3388806,10.8188746 L20.6886497,7.54728262 L22.7231375,8.38841622 C22.7231375,8.38841622 25.2306455,10.0839122 25.9087637,10.5240873 C26.4902297,10.9015328 27.368569,10.847295 27.4868573,10.4490677 L23.7330216,6.86967313 Z" id="Fill-1"></path>
        </g>
    </g>
</svg>