<?xml version="1.0" encoding="UTF-8"?>
<svg width="44px" height="53px" viewBox="0 0 44 53" version="1.1" xmlns="http://www.w3.org/2000/svg" xmlns:xlink="http://www.w3.org/1999/xlink">
    <!-- Generator: Sketch 49.2 (51160) - http://www.bohemiancoding.com/sketch -->
    <title>location-pin-selected</title>
    <desc>Created with Sketch.</desc>
    <defs>
        <path d="M7.52,2.74985211e-16 C3.36,2.74985211e-16 0,3.37272727 0,7.54848485 L0,32.2015152 C0,36.3772727 3.36,39.75 7.52,39.75 L13.04,39.75 C13.36,39.75 15.2,39.9106061 15.36,40.1515152 L21.76,52.8393939 L28.16,40.1515152 C28.32,39.9106061 30.16,39.75 30.48,39.75 L36.08,39.75 C40.24,39.75 43.6,36.3772727 43.6,32.2015152 L43.6,7.54848485 C43.6,3.37272727 40.24,0 36.08,0 C31.5534722,4.35829201e-17 28.1585764,7.62701102e-17 25.8953125,9.80615702e-17 C21.8119097,1.37377935e-16 15.6868056,1.96352482e-16 7.52,2.74985211e-16 Z" id="path-1"></path>
        <filter x="-18.3%" y="-13.2%" width="136.7%" height="130.3%" filterUnits="objectBoundingBox" id="filter-2">
            <feOffset dx="0" dy="1" in="SourceAlpha" result="shadowOffsetOuter1"></feOffset>
            <feGaussianBlur stdDeviation="2.5" in="shadowOffsetOuter1" result="shadowBlurOuter1"></feGaussianBlur>
            <feComposite in="shadowBlurOuter1" in2="SourceAlpha" operator="out" result="shadowBlurOuter1"></feComposite>
            <feColorMatrix values="0 0 0 0 0   0 0 0 0 0   0 0 0 0 0  0 0 0 0.271993886 0" type="matrix" in="shadowBlurOuter1"></feColorMatrix>
        </filter>
    </defs>
    <g id="location-pin-selected" stroke="none" stroke-width="1" fill="none" fill-rule="evenodd">
        <g id="location-pin-orange">
            <g id="Path">
                <use fill="black" fill-opacity="1" filter="url(#filter-2)" xlink:href="#path-1"></use>
                <use fill="#EC6607" fill-rule="evenodd" xlink:href="#path-1"></use>
                <path stroke="#FFFFFF" stroke-width="1.6" d="M21.7603516,51.0637612 L27.493587,39.7089163 C27.8561269,39.1630466 29.4327868,38.95 30.48,38.95 L36.08,38.95 C39.7974937,38.95 42.8,35.9361206 42.8,32.2015152 L42.8,7.54848485 C42.8,3.81387942 39.7974937,0.8 36.08,0.8 C29.8560243,0.8 29.8560243,0.8 25.8953125,0.8 C18.7493576,0.8 18.7493576,0.8 7.52,0.8 C3.80250629,0.8 0.8,3.81387942 0.8,7.54848485 L0.8,32.2015152 C0.8,35.9361206 3.80250629,38.95 7.52,38.95 L13.04,38.95 C14.0872132,38.95 15.6638731,39.1630466 16.0742749,39.7912217 L21.7603516,51.0637612 Z M28.6049411,40.8017139 C28.6026515,40.8025804 28.6005695,40.8034023 28.5987008,40.8041765 C28.6031444,40.8023356 28.6075985,40.8004198 28.6120829,40.798383 Z"></path>
            </g>
        </g>
        <g id="cricket" transform="translate(7.000000, 7.000000)" fill="#FFFFFF">
            <path d="M24.341954,16.9401528 C24.795131,16.9401528 25.1625026,16.5565416 25.1625026,16.0832415 C25.1625026,15.6100772 24.795131,15.2263755 24.341954,15.2263755 C23.8887336,15.2263755 23.5213619,15.6100772 23.5213619,16.0832415 C23.5213619,16.5565416 23.8887336,16.9401528 24.341954,16.9401528 Z M7.17347458,17.4336454 C7.17347458,17.4336454 5.13530542,24.6089818 5.05730452,24.9002782 C4.66929449,26.3484299 5.64896672,26.8185607 5.64896672,26.8185607 L9.2311548,19.091056 L7.39308245,16.1024832 L7.17347458,17.4336454 Z M16.4286131,9.83318099 C16.0903779,9.54885684 15.9298235,9.26276699 15.8630523,8.84542623 L13.0974673,6.5742739 L12.9891593,6.77298389 L15.329273,9.03544349 L14.6030712,10.7085191 L16.194567,10.1265601 L16.4286131,9.83318099 Z M22.5142875,21.162457 L20.3103177,22.0203644 L16.7446923,12.0323921 L17.2632097,11.5159906 L17.2070178,11.3603367 L16.7890908,11.3711573 C15.6559315,11.8738859 13.7022236,12.740486 13.53716,12.8126536 C13.3034608,12.9148835 13.0481694,12.893197 12.8355421,12.7505369 C12.6229149,12.6078768 12.4731133,12.4481935 12.504938,12.094056 L12.6486695,10.4960003 L11.1302751,12.6792748 L10.7008583,14.2726671 L12.0660258,17.7279752 L14.0631783,26.7410054 C13.1113419,27.1157881 12.4343513,25.9253392 12.2667296,25.5272401 C12.0704916,25.0610481 9.44963536,18.619929 9.44963536,18.619929 C9.44963536,18.619929 8.00039685,16.3152736 7.36845515,15.3142986 C6.78928004,14.3969458 6.26079034,13.5503118 6.05002749,12.9146571 C5.56866785,11.4627024 6.61714909,10.2699898 7.50754736,9.56185064 C7.50754736,9.56185064 9.81184744,4.95380736 10.4074552,4.03373803 C11.003063,3.11362344 11.9192592,2.09893032 13.4575982,3.93517535 C13.8214145,4.36944879 15.5922388,6.52057829 16.6554183,7.8109934 C16.6554183,7.8109934 17.329027,8.06181438 17.578205,8.4214301 C17.8122077,8.75908767 17.9035195,9.14505317 17.8552187,9.4656875 C18.0728321,9.54192984 18.2447897,9.68735168 18.3295544,9.89217373 C18.4531678,10.1906235 18.361856,10.5434481 18.1224336,10.8323902 L18.2329963,11.1385367 L18.9486622,11.1744847 L22.5142875,21.162457 Z M14.3063295,2.54959315 L14.016135,2.24494073 C14.016135,2.24494073 14.0511248,0.992058217 14.9000296,0.396199918 C15.7489343,-0.199613106 16.7287799,-0.091180569 17.3553019,0.505945417 C17.9818672,1.10302613 18.3942878,2.28437486 17.8550887,2.90114999 L18.108429,3.99914828 L17.9777049,4.14873538 L17.3006709,3.56007574 C17.1982162,3.66796498 17.0805861,3.76421866 16.9479542,3.845079 C16.6750161,4.01146296 15.7132507,4.59813052 15.220011,4.89884406 C15.0098552,5.0270163 14.8600969,4.79000405 14.6515453,4.53402177 C14.4159817,4.24507961 14.2047419,3.98610921 14.2047419,3.98610921 C14.2047419,3.98610921 14.2324476,3.2467306 14.3063295,2.54959315 Z" id="Fill-1"></path>
        </g>
    </g>
</svg>