<?xml version="1.0" encoding="UTF-8"?>
<svg width="44px" height="53px" viewBox="0 0 44 53" version="1.1" xmlns="http://www.w3.org/2000/svg" xmlns:xlink="http://www.w3.org/1999/xlink">
    <!-- Generator: Sketch 49.2 (51160) - http://www.bohemiancoding.com/sketch -->
    <title>location-pin-selected</title>
    <desc>Created with Sketch.</desc>
    <defs>
        <path d="M7.52,2.74985211e-16 C3.36,2.74985211e-16 0,3.37272727 0,7.54848485 L0,32.2015152 C0,36.3772727 3.36,39.75 7.52,39.75 L13.04,39.75 C13.36,39.75 15.2,39.9106061 15.36,40.1515152 L21.76,52.8393939 L28.16,40.1515152 C28.32,39.9106061 30.16,39.75 30.48,39.75 L36.08,39.75 C40.24,39.75 43.6,36.3772727 43.6,32.2015152 L43.6,7.54848485 C43.6,3.37272727 40.24,0 36.08,0 C31.5534722,4.35829201e-17 28.1585764,7.62701102e-17 25.8953125,9.80615702e-17 C21.8119097,1.37377935e-16 15.6868056,1.96352482e-16 7.52,2.74985211e-16 Z" id="path-1"></path>
        <filter x="-18.3%" y="-13.2%" width="136.7%" height="130.3%" filterUnits="objectBoundingBox" id="filter-2">
            <feOffset dx="0" dy="1" in="SourceAlpha" result="shadowOffsetOuter1"></feOffset>
            <feGaussianBlur stdDeviation="2.5" in="shadowOffsetOuter1" result="shadowBlurOuter1"></feGaussianBlur>
            <feComposite in="shadowBlurOuter1" in2="SourceAlpha" operator="out" result="shadowBlurOuter1"></feComposite>
            <feColorMatrix values="0 0 0 0 0   0 0 0 0 0   0 0 0 0 0  0 0 0 0.271993886 0" type="matrix" in="shadowBlurOuter1"></feColorMatrix>
        </filter>
    </defs>
    <g id="location-pin-selected" stroke="none" stroke-width="1" fill="none" fill-rule="evenodd">
        <g id="location-pin-orange">
            <g id="Path">
                <use fill="black" fill-opacity="1" filter="url(#filter-2)" xlink:href="#path-1"></use>
                <use fill="#EC6607" fill-rule="evenodd" xlink:href="#path-1"></use>
                <path stroke="#FFFFFF" stroke-width="1.6" d="M21.7603516,51.0637612 L27.493587,39.7089163 C27.8561269,39.1630466 29.4327868,38.95 30.48,38.95 L36.08,38.95 C39.7974937,38.95 42.8,35.9361206 42.8,32.2015152 L42.8,7.54848485 C42.8,3.81387942 39.7974937,0.8 36.08,0.8 C29.8560243,0.8 29.8560243,0.8 25.8953125,0.8 C18.7493576,0.8 18.7493576,0.8 7.52,0.8 C3.80250629,0.8 0.8,3.81387942 0.8,7.54848485 L0.8,32.2015152 C0.8,35.9361206 3.80250629,38.95 7.52,38.95 L13.04,38.95 C14.0872132,38.95 15.6638731,39.1630466 16.0742749,39.7912217 L21.7603516,51.0637612 Z M28.6049411,40.8017139 C28.6026515,40.8025804 28.6005695,40.8034023 28.5987008,40.8041765 C28.6031444,40.8023356 28.6075985,40.8004198 28.6120829,40.798383 Z"></path>
            </g>
        </g>
        <g id="football" transform="translate(5.000000, 7.000000)" fill="#FFFFFF">
            <path d="M23.9907722,6.97672824 C21.395604,6.00475129 20.543364,4.91148468 19.3404269,5.01424206 C18.409965,5.0432391 15.7427129,5.34727002 14.8484894,5.41628204 C14.1382566,5.4710491 13.6021448,5.65992168 13.2349981,5.83846782 C11.0570131,6.89752807 6.10001657,9.53505969 6.10001657,9.53505969 C6.25454523,10.0174062 7.11798087,10.3082525 7.7416442,10.0813472 C8.36525842,9.85439589 14.7863735,7.51803697 14.7863735,7.51803697 L15.4745588,7.45497187 L14.2743224,8.02961106 L12.9988594,11.9431044 L10.0091448,15.4020036 L11.851262,17.4408317 L11.5102383,17.440509 L10.5897444,16.7231436 C10.5897444,16.7231436 4.47724468,16.9233568 3.88441834,16.9400912 C2.45172603,16.9804289 2.22344394,17.5287449 2.22344394,17.9652217 L9.9879321,19.289727 C9.9879321,19.289727 10.5409846,19.4004136 11.3480495,18.9527805 C12.0914271,18.5404602 14.4082276,17.3054354 14.4082276,17.3054354 L14.5027518,17.3128575 L13.7843187,18.0862348 L13.3873662,19.3772713 L13.3882992,19.3775018 L15.7258213,19.9215304 L15.5808679,20.1291658 L14.4849763,19.9730705 C14.4849763,19.9730705 13.038977,23.2040502 12.4972183,24.4738806 C11.9554595,25.7437571 12.130317,26.6598145 12.7543241,26.9248908 C15.3746823,22.8561779 17.201872,20.2399907 17.201872,20.2399907 L18.016597,14.1657341 L18.7820712,12.4169686 L21.0418626,8.19644774 L22.9057325,8.66773024 C23.1654409,8.73337695 23.434577,8.75863986 23.7029767,8.74241259 C24.9398443,8.66759194 28.6406265,8.44359099 29.580418,8.38421391 C30.7137264,8.31262028 30.786596,7.15200126 30.786596,7.15200126 L23.9907722,6.97672824 Z M19.9763661,24.3445695 C19.8868013,24.0435812 19.7184255,23.7733878 19.4933351,23.5546884 L19.0977084,23.5486032 L18.6367249,24.2728837 L18.88401,24.6859416 L19.7526506,24.6907821 L19.9763661,24.3445695 Z M19.9745002,25.3475719 L19.7690512,25.0136219 L18.8623554,25.0085048 L18.6167398,25.3984204 L19.0621575,26.117676 L19.5090482,26.1159703 C19.7247598,25.9015121 19.8866049,25.6390636 19.9745002,25.3475719 Z M18.5394018,26.6459384 L18.7673892,26.283729 L18.3154899,25.5539165 L17.8445875,25.5555761 L17.4004956,26.2980661 L17.6158144,26.6480129 C17.7626338,26.680744 17.915542,26.6986309 18.0728696,26.6986309 C18.2336344,26.6986309 18.3897835,26.6800986 18.5394018,26.6459384 Z M16.6327627,26.1119135 L17.118838,26.1099773 L17.5420118,25.402385 L17.3063151,25.0192001 L16.3706974,25.037594 L16.1728103,25.3523663 C16.2604601,25.6401239 16.4201937,25.8993915 16.6327627,26.1119135 Z M16.1883761,24.2839477 L16.445482,24.7133712 L17.2644299,24.6972823 L17.5428957,24.2662452 L17.116432,23.5326986 L16.6822099,23.5260141 C16.4576105,23.7351247 16.2860921,23.994254 16.1883761,24.2839477 Z M17.6271573,23.0356 L17.4123295,23.368213 L17.8354052,24.0957666 L18.344019,24.1036037 L18.7980298,23.3901567 L18.5966564,23.0540862 C18.4297537,23.0109364 18.2542579,22.9874253 18.0728696,22.9874253 C17.9195685,22.9874253 17.7705395,23.0044362 17.6271573,23.0356 Z M20.4939659,24.6349087 C20.6288041,26.0566393 19.3654697,27.2427057 17.8511183,27.1160223 C16.6902628,27.0188891 15.7554798,26.1412793 15.6519697,25.0514241 C15.516886,23.629463 16.7804168,22.4432122 18.2949646,22.57008 C19.4558201,22.6673054 20.3906031,23.5450074 20.4939659,24.6349087 Z M16.6030059,4.58085394 C16.7449641,4.84648338 17.1659283,4.77562735 17.4084013,4.75110203 L18.2860769,4.66235912 C18.2860769,4.66235912 19.5029594,2.98633969 19.6291554,2.44609126 C19.7129259,2.08766209 19.6870484,1.71033182 19.5662538,1.33802648 C19.2172263,0.263522662 17.9750064,-0.204348425 16.9718713,0.0830403181 C15.9695219,0.369968059 15.2765736,1.45954665 15.6212309,2.52003601 C15.7317138,2.85970239 16.6030059,4.58085394 16.6030059,4.58085394 Z" id="Fill-1"></path>
        </g>
    </g>
</svg>