<?xml version="1.0" encoding="UTF-8"?>
<svg width="44px" height="53px" viewBox="0 0 44 53" version="1.1" xmlns="http://www.w3.org/2000/svg" xmlns:xlink="http://www.w3.org/1999/xlink">
    <!-- Generator: Sketch 49.2 (51160) - http://www.bohemiancoding.com/sketch -->
    <title>location-pin-selected</title>
    <desc>Created with Sketch.</desc>
    <defs>
        <path d="M7.52,2.74985211e-16 C3.36,2.74985211e-16 0,3.37272727 0,7.54848485 L0,32.2015152 C0,36.3772727 3.36,39.75 7.52,39.75 L13.04,39.75 C13.36,39.75 15.2,39.9106061 15.36,40.1515152 L21.76,52.8393939 L28.16,40.1515152 C28.32,39.9106061 30.16,39.75 30.48,39.75 L36.08,39.75 C40.24,39.75 43.6,36.3772727 43.6,32.2015152 L43.6,7.54848485 C43.6,3.37272727 40.24,0 36.08,0 C31.5534722,4.35829201e-17 28.1585764,7.62701102e-17 25.8953125,9.80615702e-17 C21.8119097,1.37377935e-16 15.6868056,1.96352482e-16 7.52,2.74985211e-16 Z" id="path-1"></path>
        <filter x="-18.3%" y="-13.2%" width="136.7%" height="130.3%" filterUnits="objectBoundingBox" id="filter-2">
            <feOffset dx="0" dy="1" in="SourceAlpha" result="shadowOffsetOuter1"></feOffset>
            <feGaussianBlur stdDeviation="2.5" in="shadowOffsetOuter1" result="shadowBlurOuter1"></feGaussianBlur>
            <feComposite in="shadowBlurOuter1" in2="SourceAlpha" operator="out" result="shadowBlurOuter1"></feComposite>
            <feColorMatrix values="0 0 0 0 0   0 0 0 0 0   0 0 0 0 0  0 0 0 0.271993886 0" type="matrix" in="shadowBlurOuter1"></feColorMatrix>
        </filter>
    </defs>
    <g id="location-pin-selected" stroke="none" stroke-width="1" fill="none" fill-rule="evenodd">
        <g id="location-pin-orange">
            <g id="Path">
                <use fill="black" fill-opacity="1" filter="url(#filter-2)" xlink:href="#path-1"></use>
                <use fill="#EC6607" fill-rule="evenodd" xlink:href="#path-1"></use>
                <path stroke="#FFFFFF" stroke-width="1.6" d="M21.7603516,51.0637612 L27.493587,39.7089163 C27.8561269,39.1630466 29.4327868,38.95 30.48,38.95 L36.08,38.95 C39.7974937,38.95 42.8,35.9361206 42.8,32.2015152 L42.8,7.54848485 C42.8,3.81387942 39.7974937,0.8 36.08,0.8 C29.8560243,0.8 29.8560243,0.8 25.8953125,0.8 C18.7493576,0.8 18.7493576,0.8 7.52,0.8 C3.80250629,0.8 0.8,3.81387942 0.8,7.54848485 L0.8,32.2015152 C0.8,35.9361206 3.80250629,38.95 7.52,38.95 L13.04,38.95 C14.0872132,38.95 15.6638731,39.1630466 16.0742749,39.7912217 L21.7603516,51.0637612 Z M28.6049411,40.8017139 C28.6026515,40.8025804 28.6005695,40.8034023 28.5987008,40.8041765 C28.6031444,40.8023356 28.6075985,40.8004198 28.6120829,40.798383 Z"></path>
            </g>
        </g>
        <g id="footus" transform="translate(8.000000, 8.000000)" fill="#FFFFFF">
            <path d="M15.9750319,2.24340483 C15.9750319,2.24340483 16.0089465,1.13800568 15.2836898,0.462189639 C14.6616795,-0.117391449 12.4973719,-0.476014304 12.1205768,1.43656855 C11.9768477,2.27076404 12.1271021,2.81903403 12.2825511,2.97007427 C12.7955196,3.49359068 13.1306728,3.8291102 13.1306728,3.8291102 L13.3121372,3.83375692 C13.6355706,4.1476062 13.9021649,4.3878896 13.9021649,4.3878896 C13.9021649,4.3878896 14.2280452,4.38658678 14.5915321,4.38537081 C14.9135059,4.38428513 15.184479,4.41672534 15.2207118,4.1750957 C15.2335907,4.08889246 15.2484015,3.99009529 15.2643714,3.88365492 L15.8288558,3.89811622 L15.8641012,3.13870257 L15.3850901,3.07794775 C15.437765,2.72636012 15.4862757,2.40252255 15.5119048,2.23154917 L15.9750319,2.24340483 Z M14.5799122,14.8241898 L14.5722863,14.8129231 L14.561653,14.8129231 L14.5799122,14.8241898 Z M23.1280437,9.3105941 C22.0315299,8.69674885 20.4309769,7.74990287 20.4309769,7.74990287 L17.6359871,7.25509192 L16.8528182,9.53863098 L16.6824297,11.7258482 C16.6824297,11.7258482 17.3062431,12.6096377 17.6419115,13.3662286 C17.9775798,14.1228629 18.1713651,14.5698169 18.5651605,15.4194291 L18.9238821,15.4194291 L19.7824788,17.3302315 L19.8969727,18.8067605 L19.6208051,18.9225378 C19.8197848,20.6974126 20.4264263,25.6907299 20.4264263,25.6907299 C20.0907579,25.8145412 19.1593523,25.7180457 18.8678587,24.4743305 C18.5763651,23.2305719 17.4346033,18.8067605 17.4346033,18.8067605 L14.7175312,15.5212228 C14.7175312,15.5212228 14.1429154,16.3166377 13.3366073,17.4327634 L13.4445329,17.7645047 L11.7975298,20.2181486 L11.324443,20.2181486 C10.0581847,21.9710058 8.82635602,23.6761797 8.41208313,24.2495941 C7.45255842,25.5778189 6.5941764,24.770418 6.5941764,24.770418 L9.98477465,18.4780591 C9.98477465,18.4780591 10.6572705,15.2652621 11.1784387,13.8708541 L12.0276337,11.5984325 L11.5764412,9.42784788 L10.6224973,7.41503476 C10.6224973,7.41503476 8.18893385,7.49611358 7.59809056,7.51209483 C7.00729019,7.52803266 6.66479598,6.9699481 6.54248888,6.22495233 C6.42022472,5.47991313 6.08786195,3.39440267 6.08786195,3.39440267 C6.08786195,3.39440267 6.40339622,3.41233815 6.80114113,3.34828285 C7.15531225,3.2913062 7.41868678,3.13040796 7.41868678,3.13040796 L8.02670201,5.77947482 C8.02670201,5.77947482 9.19679755,5.50362445 10.2271565,5.25508986 C10.394454,4.81100203 10.7883782,4.36083437 11.4827253,4.3608778 C11.7219733,4.3608778 12.7853023,4.36092123 12.7853023,4.36092123 L12.9776709,4.7507249 L15.5947594,4.75576247 L15.7894462,4.36126865 C15.7894462,4.36126865 16.4469166,4.36118179 16.8489545,4.36105151 C17.4759018,4.3608778 17.9277812,4.47239917 18.1240993,5.12741353 L20.7681907,6.16541346 C21.8645757,6.99452797 24.9340588,9.18039898 24.9340588,9.18039898 C24.8900128,9.30256004 24.1735998,9.89595102 23.1280437,9.3105941 Z M6.96534774,1.2933018 L6.92400631,1.02201129 L6.66101815,1.06300669 L6.70231665,1.33429719 L6.54536518,1.35874678 L6.50406668,1.0874997 L6.24103559,1.12853852 L6.28237702,1.39974217 L6.12546848,1.42419176 L6.08421291,1.15298811 L5.82118182,1.19394008 L5.86248032,1.46518715 L5.67921286,1.49376233 L5.71978155,1.75979813 L5.90300608,1.73126638 L5.94426165,2.0024266 L6.20729274,1.9614312 L6.16599424,1.69027098 L6.32290278,1.66577797 L6.36420128,1.93706847 L6.62723237,1.89607308 L6.58589094,1.62478257 L6.74284241,1.60033299 L6.78414091,1.87162349 L7.047172,1.8306281 L7.0058735,1.55933759 L7.18914096,1.53076241 L7.14857227,1.26472662 L6.96534774,1.2933018 Z M8.53473366,1.17682971 C8.51288238,1.15181557 8.46505854,1.10469692 8.36580477,1.03095732 C8.22070193,0.923083847 8.0399244,0.81390755 7.83549254,0.71858457 L8.00424971,1.82585109 C8.3216729,1.53857933 8.49369274,1.27745082 8.53473366,1.17682971 Z M6.59250214,2.55234682 C7.07486175,2.47769525 7.48891999,2.23089776 7.76504468,2.02322829 L7.54829195,0.600679381 C7.1588325,0.461451375 6.71347841,0.385149564 6.27490723,0.453026474 C5.80173461,0.526288372 5.40201493,0.750981355 5.10215004,0.980234207 L5.31911742,2.40469392 C5.7086198,2.54396535 6.15405975,2.62031059 6.59250214,2.55234682 Z M5.03191683,2.28678873 L4.86341724,1.18073817 C4.85659139,1.1869917 4.84937918,1.19341895 4.84276799,1.19958563 C4.57552977,1.44898876 4.37719394,1.71832503 4.33224641,1.82797903 C4.35392597,1.85281946 4.40170688,1.90015525 4.50177632,1.97454626 C4.64692209,2.08237631 4.82757083,2.1915526 5.03191683,2.28678873 Z M8.93904683,1.11485892 C8.98111807,1.39305437 8.54744089,1.87392514 8.28453859,2.11420853 C8.23808851,2.15668046 8.1835247,2.20427681 8.12170573,2.25469593 C7.80071937,2.51630214 7.28131132,2.85425359 6.65290441,2.9515308 C5.73034229,3.09449356 4.79022187,2.68992459 4.26544759,2.29999063 C3.99353002,2.09787986 3.94282989,1.98405684 3.92849132,1.89112236 L3.92840546,1.89051438 C3.91544065,1.80500598 3.92750394,1.67046812 4.13704445,1.3867574 C4.25488685,1.22724884 4.41342672,1.05089047 4.57205246,0.902846713 C4.92025634,0.577662898 5.4881751,0.16631927 6.21450495,0.0539293509 C7.13745344,-0.0889899778 8.07753094,0.315622415 8.6021335,0.705512945 C8.87443743,0.907884283 8.92500878,1.02188101 8.93904683,1.11485892 Z" id="Page-1"></path>
        </g>
    </g>
</svg>