<?xml version="1.0" encoding="UTF-8"?>
<svg width="44px" height="53px" viewBox="0 0 44 53" version="1.1" xmlns="http://www.w3.org/2000/svg" xmlns:xlink="http://www.w3.org/1999/xlink">
    <!-- Generator: Sketch 49.2 (51160) - http://www.bohemiancoding.com/sketch -->
    <title>location-pin-selected</title>
    <desc>Created with Sketch.</desc>
    <defs>
        <path d="M7.52,2.74985211e-16 C3.36,2.74985211e-16 0,3.37272727 0,7.54848485 L0,32.2015152 C0,36.3772727 3.36,39.75 7.52,39.75 L13.04,39.75 C13.36,39.75 15.2,39.9106061 15.36,40.1515152 L21.76,52.8393939 L28.16,40.1515152 C28.32,39.9106061 30.16,39.75 30.48,39.75 L36.08,39.75 C40.24,39.75 43.6,36.3772727 43.6,32.2015152 L43.6,7.54848485 C43.6,3.37272727 40.24,0 36.08,0 C31.5534722,4.35829201e-17 28.1585764,7.62701102e-17 25.8953125,9.80615702e-17 C21.8119097,1.37377935e-16 15.6868056,1.96352482e-16 7.52,2.74985211e-16 Z" id="path-1"></path>
        <filter x="-18.3%" y="-13.2%" width="136.7%" height="130.3%" filterUnits="objectBoundingBox" id="filter-2">
            <feOffset dx="0" dy="1" in="SourceAlpha" result="shadowOffsetOuter1"></feOffset>
            <feGaussianBlur stdDeviation="2.5" in="shadowOffsetOuter1" result="shadowBlurOuter1"></feGaussianBlur>
            <feComposite in="shadowBlurOuter1" in2="SourceAlpha" operator="out" result="shadowBlurOuter1"></feComposite>
            <feColorMatrix values="0 0 0 0 0   0 0 0 0 0   0 0 0 0 0  0 0 0 0.271993886 0" type="matrix" in="shadowBlurOuter1"></feColorMatrix>
        </filter>
    </defs>
    <g id="location-pin-selected" stroke="none" stroke-width="1" fill="none" fill-rule="evenodd">
        <g id="location-pin-orange">
            <g id="Path">
                <use fill="black" fill-opacity="1" filter="url(#filter-2)" xlink:href="#path-1"></use>
                <use fill="#EC6607" fill-rule="evenodd" xlink:href="#path-1"></use>
                <path stroke="#FFFFFF" stroke-width="1.6" d="M21.7603516,51.0637612 L27.493587,39.7089163 C27.8561269,39.1630466 29.4327868,38.95 30.48,38.95 L36.08,38.95 C39.7974937,38.95 42.8,35.9361206 42.8,32.2015152 L42.8,7.54848485 C42.8,3.81387942 39.7974937,0.8 36.08,0.8 C29.8560243,0.8 29.8560243,0.8 25.8953125,0.8 C18.7493576,0.8 18.7493576,0.8 7.52,0.8 C3.80250629,0.8 0.8,3.81387942 0.8,7.54848485 L0.8,32.2015152 C0.8,35.9361206 3.80250629,38.95 7.52,38.95 L13.04,38.95 C14.0872132,38.95 15.6638731,39.1630466 16.0742749,39.7912217 L21.7603516,51.0637612 Z M28.6049411,40.8017139 C28.6026515,40.8025804 28.6005695,40.8034023 28.5987008,40.8041765 C28.6031444,40.8023356 28.6075985,40.8004198 28.6120829,40.798383 Z"></path>
            </g>
        </g>
        <g id="rugbdy" transform="translate(5.000000, 6.000000)" fill="#FFFFFF">
            <path d="M26.1736075,8.62401244 C26.1736075,8.62401244 25.7080897,8.697098 24.9137538,8.83914707 C25.2030645,8.29299688 25.3020301,7.59882295 25.1771531,6.967221 C25.1470546,6.81488993 25.0786801,6.7074384 24.9847391,6.66464305 C24.9505026,6.6490811 24.9142957,6.6427359 24.8779902,6.6427359 C24.8011921,6.6427359 24.7240491,6.67112719 24.6649358,6.70039847 C24.1705017,6.94536017 23.7038509,7.43815512 23.315476,8.12556702 C22.9271012,8.81293261 22.7539975,9.45236184 22.8148843,9.97470596 C22.8295149,10.0999889 22.8738499,10.1852554 22.9466579,10.2281434 C22.9951308,10.2567199 23.0604018,10.2681598 23.1372,10.2637135 C23.1374463,10.2637135 23.1376926,10.2637135 23.1379389,10.2636672 C23.2501065,9.9321885 23.5208457,9.55240292 23.9833586,9.42262741 C24.4458715,9.2928519 26.270652,8.79176651 26.270652,8.79176651 L26.1736075,8.62401244 Z M22.4739972,10.0098593 C22.4055735,9.4229053 22.5918299,8.71905146 23.0126678,7.9743012 C23.4334565,7.22955094 23.9495162,6.69039436 24.5050834,6.41514245 C24.6333101,6.35164415 24.7618324,6.32102973 24.8831626,6.32181709 C24.7155762,6.19093001 24.5023247,6.11640867 24.2795166,6.11640867 C24.195083,6.11640867 24.1092701,6.12710751 24.0240483,6.1494778 C23.2891706,6.34256635 22.6693176,6.85421163 22.2314846,7.62911316 C21.7936023,8.40401469 21.6897106,9.17331207 21.9309916,9.85396193 C22.0478391,10.1836343 22.3504995,10.4066426 22.695032,10.45268 C22.5983816,10.3734345 22.5006475,10.238379 22.4739972,10.0098593 Z M26.5075981,10.2708924 C25.844149,10.3691272 23.1313379,10.7303866 22.8268548,10.7303866 C22.5840959,10.7303866 22.3505488,10.6617937 22.1527653,10.5397528 L20.8964584,12.9720479 C22.5301549,14.6104058 23.5924714,16.14951 24.3984823,17.2194401 C24.9367095,17.9339002 25.1823748,18.3235046 25.1811926,19.2127586 C25.1803059,19.8501963 25.1702566,27.433727 25.1702566,27.433727 C25.1702566,27.433727 23.6532597,27.6520111 23.4336043,25.8928628 C23.1603034,23.6997863 22.6314358,19.2465688 22.6314358,19.2465688 L17.1044834,15.4645992 L17.0061089,15.721186 L18.1852729,17.0235263 C18.1852729,17.0235263 16.363251,19.0680233 16.0695068,19.3970936 C15.7757626,19.7262102 15.4699494,20.0222114 14.6121652,20.2779182 L5.71422351,22.7246637 C5.37722803,22.1441012 5.87077542,21.2781438 6.70993898,20.9345305 L13.2166463,18.0596926 L15.5357623,14.3678988 C15.494383,14.1204361 15.1677323,13.3893025 15.376501,12.4692951 C15.6704423,11.1738558 17.014434,10.4651388 17.014434,10.4651388 L17.4016266,7.8983904 L17.2736462,5.89678145 L14.3745294,6.44881368 L15.450442,10.9852135 C15.13522,11.1293931 14.4023127,11.1072543 13.9306865,10.0191223 C13.7669425,9.64137464 12.9841829,7.87398223 12.7604388,7.26915054 C12.1541327,5.63042207 12.1883692,5.21571474 13.2610305,4.80350844 C14.5359582,4.31353873 15.0993086,4.04796671 15.9047283,3.77063061 C17.3451733,3.27459359 17.7981296,3.1445865 18.8733033,3.29261025 C19.2865057,3.34948545 19.7820235,3.42572046 20.3318764,3.51937003 L20.6170984,4.52450499 L22.0847849,5.21395476 L22.4499578,5.05101748 L21.0379364,4.31993024 L20.7636996,3.51890687 C20.5648816,2.90351529 20.3415809,2.12101804 20.3779356,1.80801915 C20.4202016,1.44370288 20.5723693,1.09406857 20.8129115,0.777873918 C21.5069025,-0.135000935 22.8398597,-0.206372835 23.6910923,0.365389725 C24.5415366,0.936689132 24.8273498,2.17520696 24.1426199,3.07585457 C24.0114867,3.24851807 23.682373,3.68147363 23.3540968,4.11317868 C23.8014372,4.21317344 24.2534082,4.31988393 24.701389,4.43303224 C25.4441485,4.62065558 25.8463165,5.3976413 26.265184,6.07217754 C26.9249877,7.13455823 27.2857271,7.80390716 27.7508508,8.6514311 C28.2111962,9.49038671 27.3976977,10.1390327 26.5075981,10.2708924 Z" id="Fill-1"></path>
        </g>
    </g>
</svg>