<?xml version="1.0" encoding="UTF-8"?>
<svg width="44px" height="53px" viewBox="0 0 44 53" version="1.1" xmlns="http://www.w3.org/2000/svg" xmlns:xlink="http://www.w3.org/1999/xlink">
    <!-- Generator: Sketch 49.2 (51160) - http://www.bohemiancoding.com/sketch -->
    <title>location-pin-selected</title>
    <desc>Created with Sketch.</desc>
    <defs>
        <path d="M7.52,2.74985211e-16 C3.36,2.74985211e-16 0,3.37272727 0,7.54848485 L0,32.2015152 C0,36.3772727 3.36,39.75 7.52,39.75 L13.04,39.75 C13.36,39.75 15.2,39.9106061 15.36,40.1515152 L21.76,52.8393939 L28.16,40.1515152 C28.32,39.9106061 30.16,39.75 30.48,39.75 L36.08,39.75 C40.24,39.75 43.6,36.3772727 43.6,32.2015152 L43.6,7.54848485 C43.6,3.37272727 40.24,0 36.08,0 C31.5534722,4.35829201e-17 28.1585764,7.62701102e-17 25.8953125,9.80615702e-17 C21.8119097,1.37377935e-16 15.6868056,1.96352482e-16 7.52,2.74985211e-16 Z" id="path-1"></path>
        <filter x="-18.3%" y="-13.2%" width="136.7%" height="130.3%" filterUnits="objectBoundingBox" id="filter-2">
            <feOffset dx="0" dy="1" in="SourceAlpha" result="shadowOffsetOuter1"></feOffset>
            <feGaussianBlur stdDeviation="2.5" in="shadowOffsetOuter1" result="shadowBlurOuter1"></feGaussianBlur>
            <feComposite in="shadowBlurOuter1" in2="SourceAlpha" operator="out" result="shadowBlurOuter1"></feComposite>
            <feColorMatrix values="0 0 0 0 0   0 0 0 0 0   0 0 0 0 0  0 0 0 0.271993886 0" type="matrix" in="shadowBlurOuter1"></feColorMatrix>
        </filter>
    </defs>
    <g id="location-pin-selected" stroke="none" stroke-width="1" fill="none" fill-rule="evenodd">
        <g id="location-pin-orange">
            <g id="Path">
                <use fill="black" fill-opacity="1" filter="url(#filter-2)" xlink:href="#path-1"></use>
                <use fill="#EC6607" fill-rule="evenodd" xlink:href="#path-1"></use>
                <path stroke="#FFFFFF" stroke-width="1.6" d="M21.7603516,51.0637612 L27.493587,39.7089163 C27.8561269,39.1630466 29.4327868,38.95 30.48,38.95 L36.08,38.95 C39.7974937,38.95 42.8,35.9361206 42.8,32.2015152 L42.8,7.54848485 C42.8,3.81387942 39.7974937,0.8 36.08,0.8 C29.8560243,0.8 29.8560243,0.8 25.8953125,0.8 C18.7493576,0.8 18.7493576,0.8 7.52,0.8 C3.80250629,0.8 0.8,3.81387942 0.8,7.54848485 L0.8,32.2015152 C0.8,35.9361206 3.80250629,38.95 7.52,38.95 L13.04,38.95 C14.0872132,38.95 15.6638731,39.1630466 16.0742749,39.7912217 L21.7603516,51.0637612 Z M28.6049411,40.8017139 C28.6026515,40.8025804 28.6005695,40.8034023 28.5987008,40.8041765 C28.6031444,40.8023356 28.6075985,40.8004198 28.6120829,40.798383 Z"></path>
            </g>
        </g>
        <g id="handball" transform="translate(7.000000, 6.000000)" fill="#FFFFFF">
            <path d="M11.4234578,0.300130476 C11.3374677,0.300130476 11.2508969,0.310782652 11.1662232,0.331826133 L11.1157365,0.344347874 L11.4155208,0.552347903 L11.7196027,0.341391352 L11.6683416,0.329217437 C11.5870363,0.309913087 11.5046469,0.300130476 11.4234578,0.300130476 Z M11.5117321,0.739260972 L11.5117321,0.924347954 L12.0027775,1.32500018 L12.1278715,1.23608713 L12.117147,0.547695728 L12.1082421,0.540826162 C12.0612786,0.504521809 12.010908,0.471347892 11.958679,0.442260931 L11.9482255,0.436434843 L11.5117321,0.739260972 Z M10.879138,0.447130497 C10.8237343,0.478608762 10.7702276,0.515130506 10.7201281,0.555608773 L10.7116104,0.562521817 L10.7010794,1.23604365 L10.8272575,1.32573931 L11.319387,0.92421752 L11.319387,0.739260972 L10.8896303,0.441173974 L10.879138,0.447130497 Z M10.4776834,0.81734794 C10.4260739,0.891391428 10.3811624,0.9718697 10.3441878,1.05656536 C10.3073294,1.14108712 10.2782143,1.23013061 10.2576944,1.3211741 L10.2466214,1.37039149 L10.509044,1.22686974 L10.5162453,0.761956628 L10.4776834,0.81734794 Z M12.3199069,1.22686974 L12.6041658,1.38230454 L12.593751,1.33369584 C12.5849623,1.2929567 12.5745474,1.25265235 12.5627388,1.21386973 C12.5152333,1.05800015 12.4438008,0.915217518 12.3504545,0.789608805 L12.3123184,0.738260972 L12.3199069,1.22686974 Z M10.9444533,1.49682629 L11.1243704,2.11865247 L11.7065551,2.11865247 L11.8864335,1.49682629 L11.4154434,1.11252189 L10.9444533,1.49682629 Z M10.2212619,1.62430457 L10.2211458,1.63886979 C10.2199842,1.7916959 10.2418592,1.94300027 10.2862287,2.08852203 C10.3086845,2.16221769 10.3370252,2.23434814 10.3704765,2.30286989 L10.3759356,2.3140438 L10.8516104,2.35669598 L10.9479378,2.20730465 L10.7512177,1.52730456 L10.5978217,1.41830454 L10.2212619,1.62430457 Z M12.0801724,1.52556543 L11.8831813,2.20665248 L11.9799346,2.35669598 L12.4726835,2.31252206 L12.4781426,2.30134815 C12.5758638,2.1013916 12.627512,1.87608722 12.627512,1.64982632 L12.627512,1.63513066 L12.2310906,1.41830454 L12.0801724,1.52556543 Z M10.556898,2.58808732 C10.6536126,2.70113081 10.7673626,2.79408734 10.8949732,2.86434822 L10.9499898,2.89386997 L10.8315164,2.57139166 L10.5186071,2.5433047 L10.556898,2.58808732 Z M12.0000286,2.57139166 L11.8782255,2.90304388 L11.926699,2.87808736 C12.0647631,2.80695691 12.187689,2.70882646 12.292147,2.5865221 L12.3303605,2.54178296 L12.0000286,2.57139166 Z M11.0072133,2.483696 L11.1882144,2.97652215 L11.1993261,2.97886998 C11.2729268,2.99469607 11.3480761,3.00273955 11.4227222,3.00273955 C11.4919478,3.00273955 11.5619478,2.9958265 11.6307476,2.98221781 L11.6420916,2.97995694 L11.8243317,2.48373948 L11.7281591,2.33447859 L11.1033858,2.33447859 L11.0072133,2.483696 Z M11.423148,3.30317437 C11.1988228,3.30317437 10.981544,3.24617436 10.7773903,3.13378304 C10.4246801,2.93969606 10.1604765,2.60300036 10.0333692,2.18569596 C9.90622317,1.76839155 9.93135038,1.32052192 10.104221,0.924521868 C10.2770528,0.528478334 10.5768759,0.231782641 10.9484412,0.0890434906 C11.1022631,0.0299565259 11.2619699,0 11.4232642,0 C12.0525286,0 12.612064,0.448739193 12.8156371,1.11673929 C13.0780596,1.97813071 12.6675452,2.91869606 11.9004877,3.21339175 C11.7455043,3.27295698 11.5849456,3.30317437 11.4232642,3.30317437 L11.423148,3.30317437 Z M25.064244,13.6293497 C24.6476511,13.0657844 22.0548633,9.64491438 21.894808,9.42691435 C21.7019595,9.16413171 21.6362571,9.11069692 21.4304385,9.00852299 C21.2665115,8.92717515 19.8930711,8.18726201 19.7147802,8.09169678 C18.8344759,7.6199141 18.5908697,7.52426191 18.0646307,7.50487061 C17.6144316,7.48830539 13.6267931,7.35552276 13.6267931,7.35552276 L10.5689776,6.76630529 L11.4859467,3.74360922 C11.118679,3.74360922 10.6579876,3.60808746 10.4218537,3.38465264 C10.4209632,3.38378308 9.80946984,4.65013108 8.91046536,6.61252266 C8.56255605,7.37195755 8.59825295,7.99978372 9.25411583,8.26691419 C10.4505816,8.75417513 12.6350231,9.60352307 12.6350231,9.60352307 L13.3881426,14.6902629 L11.1612675,19.0561766 C11.1612675,19.0561766 5.43903816,25.2816122 4.39910447,26.4056124 C3.35917078,27.529569 4.17795401,28.3376561 4.17795401,28.3376561 L14.8428883,19.6106549 L15.2525122,19.6106549 L13.6016659,20.9790029 L13.5425453,22.0587422 L11.8561956,22.495351 L9.8291767,24.1755686 C9.8291767,24.1755686 14.2107201,24.1761338 14.5076781,24.1761338 C15.0192434,24.1761338 15.4333197,23.9012642 15.5897744,23.5228728 C15.720947,23.2056119 17.714321,18.3963939 17.9772469,17.7815242 C18.3584914,16.8900023 18.3059914,16.1138283 18.1802004,15.0696108 C18.1072192,14.464002 18.0638177,14.1757846 18.0638177,14.1757846 L18.6909527,10.1766971 L21.0780767,11.0965233 L25.0894874,15.2417847 C25.336733,15.0793064 25.5129332,14.2366976 25.064244,13.6293497 Z M13.7487123,4.75530501 C13.6533528,4.41100061 13.6462289,4.03943534 13.7173904,3.66547877 C13.9227831,2.58586992 14.9046416,2.0299568 15.7473131,2.23213074 C16.5894039,2.43417425 17.2378718,3.4463483 17.0352667,4.51173976 C16.9702612,4.85300067 16.7415223,6.05556606 16.6242103,6.6722618 C16.5741882,6.93517488 16.3100233,6.88856617 15.9937844,6.87643574 C15.6366992,6.86278356 15.316666,6.85078356 15.316666,6.85078356 C15.316666,6.85078356 13.8924292,5.27430508 13.7487123,4.75530501 Z" id="Fill-1"></path>
        </g>
    </g>
</svg>