<?xml version="1.0" encoding="UTF-8"?>
<svg width="44px" height="53px" viewBox="0 0 44 53" version="1.1" xmlns="http://www.w3.org/2000/svg" xmlns:xlink="http://www.w3.org/1999/xlink">
    <!-- Generator: Sketch 49.2 (51160) - http://www.bohemiancoding.com/sketch -->
    <title>location-pin-selected</title>
    <desc>Created with Sketch.</desc>
    <defs>
        <path d="M7.52,2.74985211e-16 C3.36,2.74985211e-16 0,3.37272727 0,7.54848485 L0,32.2015152 C0,36.3772727 3.36,39.75 7.52,39.75 L13.04,39.75 C13.36,39.75 15.2,39.9106061 15.36,40.1515152 L21.76,52.8393939 L28.16,40.1515152 C28.32,39.9106061 30.16,39.75 30.48,39.75 L36.08,39.75 C40.24,39.75 43.6,36.3772727 43.6,32.2015152 L43.6,7.54848485 C43.6,3.37272727 40.24,0 36.08,0 C31.5534722,4.35829201e-17 28.1585764,7.62701102e-17 25.8953125,9.80615702e-17 C21.8119097,1.37377935e-16 15.6868056,1.96352482e-16 7.52,2.74985211e-16 Z" id="path-1"></path>
        <filter x="-18.3%" y="-13.2%" width="136.7%" height="130.3%" filterUnits="objectBoundingBox" id="filter-2">
            <feOffset dx="0" dy="1" in="SourceAlpha" result="shadowOffsetOuter1"></feOffset>
            <feGaussianBlur stdDeviation="2.5" in="shadowOffsetOuter1" result="shadowBlurOuter1"></feGaussianBlur>
            <feComposite in="shadowBlurOuter1" in2="SourceAlpha" operator="out" result="shadowBlurOuter1"></feComposite>
            <feColorMatrix values="0 0 0 0 0   0 0 0 0 0   0 0 0 0 0  0 0 0 0.271993886 0" type="matrix" in="shadowBlurOuter1"></feColorMatrix>
        </filter>
    </defs>
    <g id="location-pin-selected" stroke="none" stroke-width="1" fill="none" fill-rule="evenodd">
        <g id="location-pin-orange">
            <g id="Path">
                <use fill="black" fill-opacity="1" filter="url(#filter-2)" xlink:href="#path-1"></use>
                <use fill="#EC6607" fill-rule="evenodd" xlink:href="#path-1"></use>
                <path stroke="#FFFFFF" stroke-width="1.6" d="M21.7603516,51.0637612 L27.493587,39.7089163 C27.8561269,39.1630466 29.4327868,38.95 30.48,38.95 L36.08,38.95 C39.7974937,38.95 42.8,35.9361206 42.8,32.2015152 L42.8,7.54848485 C42.8,3.81387942 39.7974937,0.8 36.08,0.8 C29.8560243,0.8 29.8560243,0.8 25.8953125,0.8 C18.7493576,0.8 18.7493576,0.8 7.52,0.8 C3.80250629,0.8 0.8,3.81387942 0.8,7.54848485 L0.8,32.2015152 C0.8,35.9361206 3.80250629,38.95 7.52,38.95 L13.04,38.95 C14.0872132,38.95 15.6638731,39.1630466 16.0742749,39.7912217 L21.7603516,51.0637612 Z M28.6049411,40.8017139 C28.6026515,40.8025804 28.6005695,40.8034023 28.5987008,40.8041765 C28.6031444,40.8023356 28.6075985,40.8004198 28.6120829,40.798383 Z"></path>
            </g>
        </g>
        <g id="hockey-sur-gazon" transform="translate(6.000000, 7.000000)" fill="#FFFFFF">
            <path d="M26.3996449,23.2439179 C26.3996449,23.8739697 26.08263,24.1878751 25.8936854,24.3189127 C25.6630184,24.4788856 25.4311807,24.5431378 25.2124077,24.5431378 C24.7638574,24.5431378 24.3702813,24.2729765 24.1546924,24.0045688 L17.776465,16.9961076 C17.8066212,16.9980561 17.8368243,16.9994201 17.867121,16.9994201 C17.9014916,16.9994201 17.9359558,16.9981048 17.9704669,16.9955718 C18.3373988,16.9683413 18.6291274,16.8012076 18.8253301,16.6466905 C18.8253301,16.6466905 24.8111052,23.2266736 24.9121567,23.3370568 C25.0132549,23.4473914 25.1611796,23.5859307 25.3431002,23.4598132 C25.39873,23.4211839 25.4070651,23.3079753 25.4070651,23.2439179 C25.4070651,22.958753 25.6292565,22.7276106 25.9033316,22.7276106 C26.1774535,22.7276106 26.3996449,22.958753 26.3996449,23.2439179 Z M18.5749024,16.3561672 C18.5749024,16.3561672 17.9163824,16.8144575 17.3306306,16.4978241 C16.5448832,16.0730969 14.1173545,14.006455 14.1173545,14.006455 L13.6005781,14.8282405 C13.6005781,14.8282405 16.2782535,17.941575 16.4151272,18.1297526 C16.6586714,18.4643611 16.735139,18.9626446 16.4884574,19.4788058 C16.3276554,19.8151679 12.3362178,27.8235086 12.3362178,27.8235086 C11.1618578,27.6331388 11.2653911,26.0785175 11.5528585,25.334429 C11.8403727,24.5902918 13.8974576,19.2527782 13.8974576,19.2527782 C13.8904336,19.2490273 10.9291773,17.6530976 9.78370931,16.6218956 L9.64173159,16.9141726 L11.01398,18.2017989 C11.01398,18.2017989 9.5845097,20.1726226 9.38465451,20.4496038 C9.25185477,20.6337383 8.99693171,20.8808098 8.69223216,21.0698643 C8.38748579,21.2589187 1.26958819,25.2447 1.26958819,25.2447 C0.772572512,24.684405 1.08869771,23.6954371 1.80448645,23.1490253 L6.97463889,19.0419004 L8.78630645,15.1552497 C8.49776202,13.6000926 9.84889169,12.0745529 10.0383982,11.9020607 L11.4231961,8.60113317 C11.6394874,9.52930745 12.0978244,10.5750745 12.4533306,11.4264774 L12.6141794,11.0357518 C12.4862028,10.7460565 12.2184493,9.95593442 11.9919967,9.13512322 C11.7312672,8.18994816 11.593738,7.56564452 11.6480098,7.2352741 C11.9518196,5.38516078 13.6825243,4.89179722 14.6997816,5.18358708 C15.8102234,5.50207157 17.2465304,5.89610966 17.6257776,6.01779431 C18.4317072,6.27641073 18.6139088,7.05211385 18.0646817,8.0815134 C17.811538,8.55597637 17.3765673,9.33981454 17.3765673,9.33981454 L17.3698712,9.34989809 L17.6417922,14.6591095 L16.2121346,13.0198254 L15.9739754,11.4457189 L15.2345393,12.5558844 L18.5749024,16.3561672 Z M14.7878152,2.48903683 C14.7368213,2.0929528 14.7945583,1.68546997 14.9452457,1.29167545 C15.3798886,0.155010247 16.6371781,-0.247991004 17.5950594,0.148482728 C18.5520979,0.544664183 19.1367258,1.78557484 18.7076553,2.90748005 C18.5702197,3.26688332 18.0575172,4.61554676 17.8091967,5.2648888 C17.7033221,5.54177253 17.4299495,5.43265579 17.0640946,5.33084597 C16.6582968,5.21778349 16.1082736,5.04095591 16.1082736,5.04095591 C16.1082736,5.04095591 14.8647511,3.08601258 14.7878152,2.48903683 Z M28.205225,21.1083474 C28.1911303,21.1095652 28.1774569,21.1043042 28.1668742,21.0945129 C28.1562914,21.0847217 28.1500167,21.0712282 28.1491738,21.0564682 C28.1483309,21.0417569 28.1530135,21.0275815 28.1624257,21.0165237 C28.1717909,21.0055146 28.1847619,20.9989871 28.1988566,20.9980615 C28.1999336,20.9980128 28.2010106,20.9979641 28.2020408,20.9979641 C28.2298557,20.9979641 28.2533157,21.0206156 28.2550483,21.049892 C28.2567809,21.0802888 28.2344447,21.1064963 28.205225,21.1083474 Z M28.1929097,20.8949852 C28.1523111,20.897567 28.1150841,20.9164188 28.0881121,20.9480822 C28.0611401,20.9797455 28.0476541,21.0204694 28.0500891,21.0626548 C28.0524772,21.1048888 28.0705522,21.1436155 28.1009894,21.1717228 C28.1290852,21.1976867 28.1645797,21.211716 28.2019003,21.211716 C28.204944,21.211716 28.2080346,21.2116186 28.2111251,21.2114237 C28.2949913,21.2061628 28.3591435,21.1309501 28.354133,21.0437542 L28.354133,21.0437055 C28.349029,20.9564608 28.276729,20.8899191 28.1929097,20.8949852 Z M27.8546824,21.0195439 C27.8557594,21.0194465 27.8568364,21.0194465 27.8579134,21.0194465 C27.8857751,21.0194465 27.9092352,21.0420979 27.9109209,21.0713256 C27.9127003,21.1017224 27.8903173,21.1279787 27.8610976,21.129781 C27.8318779,21.1317295 27.8066853,21.1083474 27.8049059,21.0779993 C27.8032201,21.0476025 27.8255564,21.021395 27.8546824,21.0195439 Z M27.8578666,21.2331497 C27.8609103,21.2331497 27.863954,21.2330522 27.8670446,21.2328574 C27.9508639,21.2275964 28.0150629,21.1524325 28.0100056,21.0651878 C28.0049952,20.9779919 27.9326484,20.9112066 27.8487354,20.9164675 C27.7650098,20.9217285 27.7009044,20.9968924 27.705868,21.0841858 C27.710738,21.1681667 27.7780275,21.2331497 27.8578666,21.2331497 Z M27.5535416,21.1327525 C27.5441295,21.1437616 27.5311586,21.1503378 27.5169702,21.1512147 C27.4877505,21.1531632 27.4625579,21.129781 27.4607785,21.0995304 C27.4590927,21.0690848 27.481429,21.0427799 27.510555,21.0409775 C27.511632,21.0409288 27.512709,21.0408801 27.5137392,21.0408801 C27.5416477,21.0408801 27.5651546,21.0635316 27.5668404,21.092808 C27.5676832,21.1075193 27.5629538,21.1216947 27.5535416,21.1327525 Z M27.504608,20.9379012 C27.4209292,20.9431135 27.3568238,21.0183261 27.3616938,21.1056682 C27.3666574,21.1896491 27.4339001,21.2545833 27.5137392,21.2545833 C27.5167361,21.2545833 27.5198266,21.2544859 27.5228703,21.254291 C27.5635157,21.2518067 27.6007427,21.2329548 27.6278084,21.2012915 C27.6547804,21.1695794 27.6683132,21.1289042 27.6659251,21.0866702 C27.6609146,20.9994255 27.5885678,20.9327376 27.504608,20.9379012 Z M27.6659251,21.0867292 L27.6659251,21.0866215 L27.6659251,21.0867292 Z M27.9417795,21.6063387 C27.9435121,21.6367355 27.9211759,21.662943 27.8919562,21.6647453 C27.877721,21.6656709 27.8641413,21.6607022 27.8535117,21.6509109 C27.842929,21.6411683 27.8366074,21.6276749 27.8357645,21.6129636 C27.8340319,21.5825668 27.8563681,21.5563593 27.885541,21.5545082 C27.8866648,21.5544595 27.8877418,21.5544108 27.8888189,21.5544108 C27.9017898,21.5544108 27.9141988,21.5592821 27.9239855,21.5683914 C27.9346151,21.5781339 27.9409367,21.5916274 27.9417795,21.6062899 L27.9417795,21.6063387 Z M27.879594,21.4514319 C27.7958216,21.4566928 27.7317162,21.5319055 27.7367266,21.6191014 C27.7391148,21.6613354 27.7571898,21.7000621 27.7876738,21.7281694 C27.8157696,21.7541334 27.8512641,21.768114 27.8885847,21.768114 C27.8916753,21.768114 27.8947658,21.7680165 27.8978564,21.7678217 C27.9817225,21.7626094 28.0458279,21.6874455 28.0408643,21.6002008 C28.0384761,21.5579668 28.0203075,21.5191914 27.9898235,21.4910841 C27.9593863,21.4629768 27.9202394,21.4488988 27.879594,21.4514319 Z M27.7871587,20.4989499 C27.7966176,20.4878921 27.8095885,20.4813645 27.8237769,20.4804877 C27.824854,20.4803903 27.825931,20.4803416 27.827008,20.4803416 C27.8400257,20.4803416 27.8523879,20.4852129 27.8621746,20.4942734 C27.8727574,20.5040647 27.879079,20.5175095 27.879875,20.5322207 L27.879875,20.5322694 C27.8816076,20.5626175 27.8592714,20.588825 27.8300517,20.5906761 C27.8159101,20.5914555 27.8022836,20.586633 27.7917008,20.5768904 C27.7810712,20.5670504 27.7747497,20.553557 27.7739068,20.538797 C27.7730639,20.5241344 27.7777934,20.509959 27.7871587,20.4989499 Z M27.8266802,20.6940448 C27.8297707,20.6940448 27.8328613,20.6939473 27.8359986,20.6937525 C27.9198179,20.6884915 27.9839701,20.6133276 27.9790065,20.5261316 C27.9765716,20.4838976 27.9584966,20.4451222 27.9280594,20.4170636 C27.8976222,20.3889563 27.8584753,20.374927 27.81783,20.3773626 C27.7771847,20.3798957 27.7399576,20.3987476 27.7129388,20.4303622 C27.68592,20.4620743 27.6723871,20.5027982 27.6748221,20.5449835 C27.6772571,20.5872175 27.6953789,20.6259929 27.7258161,20.6540515 C27.7539119,20.6800642 27.7894064,20.6940448 27.8266802,20.6940448 Z M28.4115891,21.5854409 C28.4022706,21.5963525 28.3921561,21.6062412 28.3823225,21.6165196 C28.3845234,21.6042927 28.3857409,21.5917248 28.3849917,21.5787672 L28.3849917,21.5786698 C28.3799344,21.4914738 28.3074939,21.4249808 28.2237214,21.4299982 C28.139949,21.4352592 28.0758436,21.5104718 28.080854,21.5976191 C28.083289,21.6398531 28.1013172,21.6786285 28.1317543,21.7066871 C28.1566192,21.7296795 28.187431,21.7426372 28.2199753,21.7454625 C28.1236065,21.8018232 28.0158589,21.8359222 27.902258,21.8430343 C27.7885635,21.8501951 27.6776317,21.829687 27.5754096,21.7856019 C27.6482715,21.7699163 27.701279,21.7010851 27.6967369,21.6216345 C27.6943019,21.5794005 27.6761801,21.540625 27.6456492,21.5125177 C27.6152121,21.4844592 27.5760652,21.4706247 27.5354666,21.4729142 C27.4948681,21.4754473 27.4576411,21.4942991 27.4306691,21.5259625 C27.4036971,21.5576258 27.3901643,21.5983498 27.3926461,21.6405351 C27.3933953,21.653444 27.3960176,21.665817 27.3995764,21.6778491 C27.3886658,21.6688372 27.3774275,21.6602638 27.3668915,21.6505212 C27.2567089,21.5488088 27.1799136,21.4183558 27.1430144,21.2734839 C27.1516773,21.2750914 27.1605275,21.276017 27.1694245,21.276017 C27.172515,21.276017 27.1756524,21.2759195 27.1787898,21.2757247 C27.2193883,21.2731916 27.2566153,21.2543397 27.2836341,21.2227251 C27.3106998,21.1910131 27.3242326,21.1503378 27.3217508,21.1081038 C27.3193159,21.0658698 27.301194,21.0270944 27.2707569,20.9990358 C27.2403197,20.9708798 27.201126,20.9568018 27.1605743,20.9593835 C27.1483526,20.9601142 27.136646,20.9627934 27.1252203,20.9663982 C27.1451684,20.8178728 27.206511,20.6786515 27.3043314,20.5638841 C27.3131348,20.553557 27.3227342,20.5442528 27.3320058,20.5344615 C27.330601,20.5449348 27.3300859,20.5556516 27.3307415,20.5664659 C27.3331765,20.6086999 27.3512515,20.6474266 27.3816887,20.6754852 C27.4097845,20.7014491 27.445279,20.7154784 27.4825528,20.7154784 C27.4856433,20.7154784 27.4887339,20.715381 27.4918244,20.7151861 C27.5756905,20.7099739 27.6398896,20.6347612 27.6348323,20.5475166 C27.6324442,20.5052825 27.6143223,20.4665071 27.5838383,20.4384485 C27.5607997,20.4172097 27.5327507,20.4039598 27.5029223,20.3999167 C27.5975117,20.3459429 27.7028243,20.3132078 27.8137561,20.3062906 C27.828881,20.3053651 27.8439591,20.3049267 27.8590372,20.3049267 C27.9543758,20.3049267 28.0472326,20.3242657 28.1338615,20.3605567 C28.1043141,20.3682046 28.0776698,20.384767 28.0570662,20.4089286 C28.0300474,20.4406406 28.0165145,20.4813645 28.0189963,20.5235499 C28.0214313,20.5657839 28.0395063,20.6045106 28.0698966,20.6326179 C28.0979925,20.6585818 28.1335338,20.6725624 28.1707608,20.6725624 C28.1738513,20.6725624 28.1769887,20.672465 28.1800792,20.6723188 C28.2207246,20.6697858 28.2579516,20.6509339 28.2849704,20.6192706 C28.3119893,20.5875585 28.3255221,20.5468833 28.3230871,20.5046006 C28.3224784,20.4936889 28.320699,20.4830208 28.3180299,20.4726937 C28.3283785,20.4813158 28.3390081,20.489597 28.3489821,20.4988037 C28.4593052,20.6005648 28.5361005,20.7311639 28.5729998,20.8761333 C28.5612463,20.8739412 28.5492588,20.8727234 28.5370371,20.8735515 C28.4532178,20.8788125 28.3891592,20.9540251 28.3941696,21.0412698 C28.3990396,21.1252507 28.4662823,21.1902337 28.5460746,21.1902337 C28.5491183,21.1902337 28.5522088,21.1901362 28.5552525,21.1899414 C28.5674742,21.189162 28.5792745,21.1864828 28.5907001,21.1828293 C28.5707521,21.3314034 28.5094563,21.4706734 28.4115891,21.5854409 Z M28.23599,21.6433117 C28.2218952,21.6443347 28.2082687,21.6393172 28.1976391,21.6294773 C28.1870564,21.6197347 28.1807816,21.6062412 28.1799856,21.5914812 C28.1782062,21.5611332 28.2004955,21.5348769 28.2296684,21.5330746 C28.2307454,21.5329771 28.2318224,21.5329284 28.2328526,21.5329284 C28.2607143,21.5329284 28.2841744,21.5555799 28.2859069,21.5848563 C28.2876395,21.6152531 28.2652565,21.6414606 28.23599,21.6433117 Z M27.4917308,21.6343485 C27.4908879,21.6196373 27.4955705,21.6054618 27.5049358,21.594404 C27.5143479,21.5833949 27.5273188,21.5768674 27.5414136,21.5759906 C27.5424906,21.5758931 27.5435676,21.5758444 27.5446446,21.5758444 C27.5576155,21.5758444 27.5700245,21.5807644 27.5798581,21.589825 C27.5904877,21.5996163 27.5968093,21.6131097 27.5976521,21.6277723 L27.5976521,21.627821 C27.5993847,21.6581691 27.5770017,21.6843766 27.5477352,21.686179 C27.5336404,21.6871532 27.5200139,21.6821845 27.5094312,21.6723933 C27.4988484,21.6626507 27.4925736,21.6491572 27.4917308,21.6343485 Z M27.1212401,21.1388416 C27.120725,21.1327525 27.1196948,21.1268095 27.119367,21.1206717 C27.1189924,21.1145339 27.119367,21.1084935 27.1191329,21.1024044 C27.1212869,21.0945617 27.1246584,21.0871573 27.1299966,21.0809221 C27.1393619,21.0698643 27.1523328,21.0633367 27.1664744,21.0624599 C27.1675983,21.0623625 27.1686753,21.0623138 27.1697523,21.0623138 C27.1827232,21.0623138 27.1950854,21.067185 27.2049189,21.0762456 C27.2155017,21.0860369 27.2218233,21.0995791 27.2226661,21.1142416 L27.2226661,21.1142904 C27.2235558,21.1290016 27.2188264,21.1431283 27.2094142,21.1541374 C27.2000021,21.1651953 27.1870312,21.1717228 27.1728428,21.1726483 C27.1587012,21.1736226 27.1450747,21.1686052 27.134492,21.1588626 C27.1284514,21.1533093 27.1242838,21.1463434 27.1212401,21.1388416 Z M27.4828806,20.5018239 C27.4958515,20.5018239 27.5082137,20.5066952 27.5180004,20.5157071 C27.52863,20.5254984 27.5349516,20.5389918 27.5357944,20.5536544 C27.537527,20.5840512 27.515144,20.6103074 27.4859243,20.6121098 C27.4717827,20.6128892 27.4581562,20.6080666 27.4475266,20.5982753 C27.4369438,20.5884841 27.4306691,20.5749906 27.4298262,20.5602793 C27.4289365,20.5455193 27.433666,20.5313926 27.4430313,20.5203835 C27.4524434,20.5093257 27.4654143,20.5027982 27.4796027,20.5019214 C27.4806797,20.5018239 27.4817567,20.5018239 27.4828806,20.5018239 Z M28.2240024,20.5107871 C28.2248453,20.5254984 28.2201158,20.5396738 28.2107037,20.5507316 C28.2012916,20.5617407 28.1883207,20.5683169 28.1741791,20.5691938 C28.1599907,20.5701193 28.146411,20.5651993 28.1358282,20.555408 C28.1252455,20.5456168 28.1189239,20.5321233 28.118081,20.5173633 C28.1172382,20.502652 28.1219208,20.4884766 28.1313329,20.4774675 C28.140745,20.4664097 28.1536691,20.4598822 28.1678107,20.4590053 C28.1688877,20.4589566 28.1699647,20.4589079 28.1710417,20.4589079 C28.1840126,20.4589079 28.1964216,20.4637792 28.2062552,20.4728398 C28.216838,20.4825824 28.2231595,20.4960758 28.2240024,20.5107871 Z M28.5946804,21.0105807 C28.5951487,21.0166211 28.5962257,21.0225154 28.5966003,21.0286045 L28.5966003,21.0286532 C28.5969281,21.0346936 28.5965534,21.0406853 28.5967408,21.0467744 C28.5946336,21.0546171 28.5912621,21.0620702 28.585877,21.0683542 C28.5764649,21.079412 28.563494,21.0859882 28.5493524,21.086865 C28.52032,21.0887161 28.4950338,21.0654314 28.4932075,21.0350833 C28.4914749,21.0046865 28.5138112,20.9784303 28.5429372,20.9766279 C28.544061,20.9765792 28.545138,20.9765305 28.546215,20.9765305 C28.559186,20.9765305 28.5715481,20.9814017 28.5813817,20.9904623 C28.5874691,20.9960643 28.5916367,21.0030302 28.5946804,21.0105807 Z M28.8938076,21.0100936 C28.877231,20.7222982 28.7539371,20.4583721 28.5465896,20.2670768 C28.3391954,20.0756841 28.0726594,19.9798172 27.7959152,19.9971103 C27.5191711,20.0143059 27.2654655,20.1426155 27.0815781,20.3583646 C26.8976439,20.5740651 26.8054895,20.8513872 26.8221129,21.1391826 C26.8386426,21.4270267 26.9619366,21.6909528 27.1693308,21.8822481 C27.3607573,22.0589296 27.6027562,22.1542119 27.8566023,22.1542119 C27.8776273,22.1542119 27.8988397,22.1535786 27.9200521,22.1522146 C28.1967494,22.1349703 28.450455,22.0067094 28.6343424,21.7909603 C28.8182766,21.5752599 28.910431,21.2979377 28.8938076,21.0100936 Z" id="Fill-1"></path>
        </g>
    </g>
</svg>