<?xml version="1.0" encoding="UTF-8"?>
<svg width="44px" height="53px" viewBox="0 0 44 53" version="1.1" xmlns="http://www.w3.org/2000/svg" xmlns:xlink="http://www.w3.org/1999/xlink">
    <!-- Generator: Sketch 49.2 (51160) - http://www.bohemiancoding.com/sketch -->
    <title>location-pin-selected</title>
    <desc>Created with Sketch.</desc>
    <defs>
        <path d="M7.52,2.74985211e-16 C3.36,2.74985211e-16 0,3.37272727 0,7.54848485 L0,32.2015152 C0,36.3772727 3.36,39.75 7.52,39.75 L13.04,39.75 C13.36,39.75 15.2,39.9106061 15.36,40.1515152 L21.76,52.8393939 L28.16,40.1515152 C28.32,39.9106061 30.16,39.75 30.48,39.75 L36.08,39.75 C40.24,39.75 43.6,36.3772727 43.6,32.2015152 L43.6,7.54848485 C43.6,3.37272727 40.24,0 36.08,0 C31.5534722,4.35829201e-17 28.1585764,7.62701102e-17 25.8953125,9.80615702e-17 C21.8119097,1.37377935e-16 15.6868056,1.96352482e-16 7.52,2.74985211e-16 Z" id="path-1"></path>
        <filter x="-18.3%" y="-13.2%" width="136.7%" height="130.3%" filterUnits="objectBoundingBox" id="filter-2">
            <feOffset dx="0" dy="1" in="SourceAlpha" result="shadowOffsetOuter1"></feOffset>
            <feGaussianBlur stdDeviation="2.5" in="shadowOffsetOuter1" result="shadowBlurOuter1"></feGaussianBlur>
            <feComposite in="shadowBlurOuter1" in2="SourceAlpha" operator="out" result="shadowBlurOuter1"></feComposite>
            <feColorMatrix values="0 0 0 0 0   0 0 0 0 0   0 0 0 0 0  0 0 0 0.271993886 0" type="matrix" in="shadowBlurOuter1"></feColorMatrix>
        </filter>
    </defs>
    <g id="location-pin-selected" stroke="none" stroke-width="1" fill="none" fill-rule="evenodd">
        <g id="location-pin-orange">
            <g id="Path">
                <use fill="black" fill-opacity="1" filter="url(#filter-2)" xlink:href="#path-1"></use>
                <use fill="#EC6607" fill-rule="evenodd" xlink:href="#path-1"></use>
                <path stroke="#FFFFFF" stroke-width="1.6" d="M21.7603516,51.0637612 L27.493587,39.7089163 C27.8561269,39.1630466 29.4327868,38.95 30.48,38.95 L36.08,38.95 C39.7974937,38.95 42.8,35.9361206 42.8,32.2015152 L42.8,7.54848485 C42.8,3.81387942 39.7974937,0.8 36.08,0.8 C29.8560243,0.8 29.8560243,0.8 25.8953125,0.8 C18.7493576,0.8 18.7493576,0.8 7.52,0.8 C3.80250629,0.8 0.8,3.81387942 0.8,7.54848485 L0.8,32.2015152 C0.8,35.9361206 3.80250629,38.95 7.52,38.95 L13.04,38.95 C14.0872132,38.95 15.6638731,39.1630466 16.0742749,39.7912217 L21.7603516,51.0637612 Z M28.6049411,40.8017139 C28.6026515,40.8025804 28.6005695,40.8034023 28.5987008,40.8041765 C28.6031444,40.8023356 28.6075985,40.8004198 28.6120829,40.798383 Z"></path>
            </g>
        </g>
        <g id="patinage-sur-glace" transform="translate(6.000000, 6.000000)" fill="#FFFFFF">
            <path d="M9.25741335,26.0573548 C8.93914892,26.0877231 8.71921088,25.8251478 8.66163368,25.741735 C8.50675738,25.5173198 6.99032959,23.3155232 6.99032959,23.3155232 C6.72665832,22.9326737 6.85154751,22.6702483 6.87214224,22.6325377 C6.87219116,22.6324878 6.87219116,22.6324378 6.87224008,22.6323879 L6.87972463,22.6206502 C6.95706494,22.499427 6.93989451,22.3327014 6.82840901,22.2433948 C6.70239469,22.1424504 6.52168937,22.1751163 6.43622857,22.309176 L6.41705248,22.3392446 C6.40232798,22.3626701 6.06190341,22.9225843 6.55011108,23.6315426 C6.55011108,23.6315426 8.06829994,25.8470249 8.22924214,26.0688428 C8.33153094,26.2097954 8.45231098,26.3258739 8.58473364,26.4139318 C8.80692193,26.5616273 9.06198353,26.6301056 9.3172408,26.6034335 C9.49691884,26.5846532 9.61716076,26.3893076 9.5296943,26.2033021 C9.48097137,26.0995607 9.36958371,26.046666 9.25741335,26.0573548 M20.6486483,26.926046 C20.4896628,27.2091998 20.1527604,27.241516 20.0528197,27.241516 C19.7839631,27.241516 17.1476906,27.2388688 17.1476906,27.2388688 C16.6893233,27.2384193 16.5511771,26.9829865 16.5328327,26.9440772 C16.5328327,26.9440272 16.5327837,26.9439773 16.5327837,26.9439273 L16.5276962,26.9309409 C16.4751576,26.7965815 16.3318261,26.714817 16.196077,26.7564734 C16.0426683,26.8034743 15.9647898,26.9730968 16.0228562,27.1216914 L16.0358686,27.1549566 C16.0461415,27.1807796 16.2983169,27.7873949 17.1471036,27.7883439 C17.1471036,27.7883439 19.7953122,27.7973845 20.0656364,27.7908413 C20.2373896,27.7866457 20.3998483,27.7527312 20.546653,27.6928938 C20.7929092,27.5924988 20.9946496,27.4190803 21.1203215,27.1906692 C21.2087663,27.0298375 21.1216912,26.8170101 20.9223968,26.7828459 C20.8112537,26.7638158 20.704709,26.8262504 20.6486483,26.926046 M24.8207692,10.8844281 C24.6768996,10.8276875 21.7087633,9.69702036 21.7087633,9.69702036 C21.7087633,9.69702036 20.1820137,5.77667168 20.0677888,5.49511623 C19.9370294,5.17290331 19.5763036,4.97670856 19.2559846,4.93360366 C18.9535208,4.89289625 16.947907,4.61708479 16.6487698,4.57667706 C16.3495836,4.53626933 15.7344811,4.42268816 15.1715258,4.74040578 C15.1715258,4.74040578 11.7970227,6.64766048 11.6442499,6.73636768 C11.4687299,6.83821113 11.3427156,6.97776514 11.2623912,7.15433042 C11.1941987,7.30422361 9.29713526,11.4748105 9.29713526,11.4748105 C9.41957852,11.6711551 10.078561,11.6755505 10.4302369,11.1726766 C10.7819616,10.6698027 12.4358507,8.25328075 12.4358507,8.25328075 L14.3561505,7.38583823 L14.6128753,11.8426757 C14.6128753,11.8426757 13.8765036,12.7053731 13.566751,14.0149032 C13.2121889,15.5139849 12.4129079,18.934956 12.4129079,18.934956 C12.4129079,18.934956 9.35916405,21.8745307 8.98914373,22.2332555 C7.95412392,23.2366058 8.36063751,24.3124303 8.57059616,24.526806 L13.9507131,20.2958823 L16.3861747,16.2237923 L17.383625,20.2753537 C17.383625,20.2753537 17.6136403,24.3826568 17.689513,25.3161303 C17.7653369,26.2494039 18.6964536,26.7945836 19.1604465,26.7390417 C19.1617673,26.7388918 19.3076426,17.7358105 19.3076426,17.2864306 C19.3076426,16.8370507 19.3046586,14.9143122 19.3046586,14.0025661 C19.3046586,13.0982621 18.9751429,11.9587542 18.9751429,11.9587542 L19.5780646,8.80959875 C19.5780646,8.80959875 20.2722686,10.4648671 20.30387,10.5407377 C20.4278786,10.838726 20.5096216,10.9204405 20.9087485,11.0067002 C21.2188435,11.0737801 25.2048781,11.9354786 25.3130371,11.9588541 C25.3144069,11.9591538 25.3154341,11.9583546 25.3156298,11.9569561 C25.3430242,11.7734481 25.2932251,11.0705834 24.8207692,10.8844281 M16.1250472,2.21999253 C16.0586646,1.88998777 16.0851296,1.54379994 16.1920657,1.20385557 C16.500155,0.221782978 17.5053345,-0.191834312 18.3481531,0.0835276157 C19.1903847,0.358839595 19.7611181,1.36683507 19.4573825,2.33552167 C19.3600344,2.64589697 19.0514559,3.6203775 18.8751532,4.18114086 C18.8003078,4.42044051 18.5254341,4.37873414 18.203403,4.33438054 C17.8460037,4.28543175 17.3706616,4.19322821 17.3706616,4.19322821 C17.3706616,4.19322821 16.2238628,2.71237742 16.1250472,2.21999253" id="Fill-1"></path>
        </g>
    </g>
</svg>