<?xml version="1.0" encoding="utf-8"?>
<!-- Generator: Adobe Illustrator 22.1.0, SVG Export Plug-In . SVG Version: 6.00 Build 0)  -->
<svg version="1.1" id="Calque_1" xmlns="http://www.w3.org/2000/svg" xmlns:xlink="http://www.w3.org/1999/xlink" x="0px" y="0px"
	 viewBox="0 0 60 60" style="enable-background:new 0 0 60 60;" xml:space="preserve">
<style type="text/css">
	.st0{fill:#0082C3;}
</style>
<title>icone blanc</title>
<desc>Created with Sketch.</desc>
<g id="icone-blanc">
	<g id="spelunking" transform="translate(-16.000000, -29.000000)">
		<g id="danse-classique" transform="translate(25.000000, 41.000000)">
			<path id="Fill-1" class="st0" d="M26.6,4.8c0.4,0.1,0.7,0,1-0.2c0.5,0.7,1.1,1.5,1.1,1.5s0.4,0.1,0.9,0.2
				c0.4,0.1,0.8,0.2,0.9-0.1c0.3-0.7,0.8-2.1,0.9-2.5c0.4-1.2-0.3-2.5-1.3-2.9c-1.1-0.4-2.5,0.1-2.9,1.3c0,0,0,0.1,0,0.1
				c-0.6-0.1-1.3,0.3-1.4,1C25.5,3.9,25.9,4.7,26.6,4.8 M37.9,2.4c-1.2,2-2.2,4-2.2,4l-3.6,3.3l-0.2-1.4l-0.2,0.2l0,0
				c0,0,0.1,1.8,0.1,2.3c0,0.7-0.1,0.8-0.4,1.2c-0.2,0.3-3.7,4.6-3.7,4.6l0,19.7c-1.6,0.1-1.8-1.5-1.9-2.3c-0.1-0.8-0.5-8.4-0.5-8.4
				l-2.1-8.1l1.7-0.3L24.5,17L22.7,17l-8.3-0.7c0,0-6.1-0.7-8.2-0.9c-2.1-0.2-2-2-2-2l10.4,0.3l6.2-0.7c0.9-0.5,2.3-0.9,3.7-0.9
				l0.7-0.9l0.1-1.9l-4.5,0c0,0-4.8-0.7-5.5-0.8c-0.7-0.1-1.7-0.5-1.7-1.8l7.5,0.7c0,0,4.4-0.6,4.9-0.7c0.5-0.1,0.9-0.1,1.4,0
				c0.4,0.1,3.6,0.6,3.6,0.6l3.2-2.1L37.5,0C37.5,0,38.6,1.2,37.9,2.4"/>
		</g>
	</g>
</g>
</svg>
