<?xml version="1.0" encoding="utf-8"?>
<!-- Generator: Adobe Illustrator 22.1.0, SVG Export Plug-In . SVG Version: 6.00 Build 0)  -->
<svg version="1.1" id="Calque_1" xmlns="http://www.w3.org/2000/svg" xmlns:xlink="http://www.w3.org/1999/xlink" x="0px" y="0px"
	 viewBox="0 0 60 60" style="enable-background:new 0 0 60 60;" xml:space="preserve">
<style type="text/css">
	.st0{fill:#0082C3;}
</style>
<title>icone blanc</title>
<desc>Created with Sketch.</desc>
<g id="icone-blanc">
	<g id="spelunking" transform="translate(-16.000000, -29.000000)">
		<g id="gymnastique-artistique" transform="translate(25.000000, 41.000000)">
			<path id="Fill-1" class="st0" d="M20.1,20.6l1.2-0.6l0.1,0.4c0,0-0.1,0-0.1,0.1c-0.4,0.2-0.8,0.3-0.7,0.7
				c0.2,0.8,0.7,2.3,0.8,2.8c0.1,0.5,0.4,0.9,0.7,1.2c0.1,0.9,0.4,3.6,0.6,5.7c0.1,0.9,0.7,1.3,1.1,1.5h-3.1L20.1,20.6z M24.5,32.1
				l0-6.6c1.2-0.4,2.2-1.7,1.8-3.1c0-0.1-0.1-0.2-0.1-0.3c0.3-0.2,0.4-0.6,0.4-1c-0.1-0.6-0.6-1.1-1.3-1c-0.3,0-0.6,0.2-0.8,0.5
				c0,0,0,0,0,0c0-1-0.2-1.8-0.4-2.2c-0.5-0.8-1.8-3.8-1.8-3.8l1.1-4.6c0,0,1.4-0.8,1.9-2.5l3.1-1.9c0,0,1.4,2.2,2.8,4.7
				c0.9,1.6,2.3,1.7,3.1,1.4c0,0-1.5-2.9-3.5-7.4c-1.2-2.5-1.8-2.6-3.6-1.7c-1.7,0.8-7.3,3.6-7.3,3.6L13,8.8c0,0,1.2-2.4,2.7-5.2
				C16.7,1.9,16,0.3,15.3,0c0,0-3.3,5.2-5.5,9c-1.4,2.4,0.7,3.7,3.4,3.1c3.3-0.7,4.1-0.9,4.1-0.9c-0.2,1.1-0.5,1.8-1,4.2
				c-0.1,0.4,0.1,2,0.4,2.9c0.3,1,0.7,2.2,0.7,2.2s1.2,8,1.6,9.9c0.2,0.8,0.5,1.4,1.1,1.7H6.9l-1.3,2.1h5.6v2.2h2.4v-2.2h13.9v2.2
				H30v-2.2h4.3l1.3-2.1H24.5z"/>
		</g>
	</g>
</g>
</svg>
