<?xml version="1.0" encoding="utf-8"?>
<!-- Generator: Adobe Illustrator 22.1.0, SVG Export Plug-In . SVG Version: 6.00 Build 0)  -->
<svg version="1.1" id="Calque_1" xmlns="http://www.w3.org/2000/svg" xmlns:xlink="http://www.w3.org/1999/xlink" x="0px" y="0px"
	 viewBox="0 0 60 60" style="enable-background:new 0 0 60 60;" xml:space="preserve">
<style type="text/css">
	.st0{fill:#0082C3;}
</style>
<title>icone blanc</title>
<desc>Created with Sketch.</desc>
<g id="icone-blanc">
	<g id="spelunking" transform="translate(-16.000000, -29.000000)">
		<g id="track_n_fiekd" transform="translate(25.000000, 41.000000)">
			<path id="Path-30" class="st0" d="M25,4.7c3.7,4.6,5.6,7.2,5.6,7.8c0,1,0.1,3-0.4,3.5c-0.3,0.3-0.3,0.7,0,1.1h5c0,3.2,0,4.9,0,5
				c0,0.3-1.4,0.6-1.4,0c0-0.6-0.4-2.3-1-2.7c-0.4-0.3-2.5-0.5-6.3-0.7c-4.4-0.3-6.5-0.6-6.5-0.9c0-0.4-5.6,0.9-5.6,0.9s-5.8,1-7,1
				S6,20.5,5.7,20.5c-0.3,0-2.3-2.8-2.3-3.4s0.6-1,1-0.5c0.4,0.5,0.5,0.9,1.4,0.9c0.5,0,2.6-0.3,6.1-0.9c2.3-0.6,3.8-1,4.4-1.1
				c0.9-0.2,4.8-2.2,5.7-2.2c0.9,0,2,0,2.3-0.4c0.3-0.4,0.2-1.6-0.9-1.8s-4.2-1.9-4.2-1.4s-2,4.4-2,4.4s-0.9,1-1.9,0
				s-4.7-3.2-4.7-3.5c0-0.2,0.3-0.8,0.9-1.7l4.3,3.4c0.5-0.6,0.8-1.3,0.9-2.1s0.2-1.9,0.2-3.2l1.4-1.6c0.8-1.2,1.6-1.9,2.6-2.2
				c1.4-0.3,5.2-1.8,6-2.1s2.3-0.6,3.8,1.3c1.5,1.9,3.3,3.7,3.3,4c0,0.2-0.3,0.8-0.8,1.8l-4.4-5L25,4.7z"/>
			<polygon id="Rectangle-2" class="st0" points="18.3,22.2 31.8,21 31.8,25.3 18.2,24 			"/>
			<path id="Path" class="st0" d="M15.2,7c-0.4,0-0.7,0-0.8-0.3C14.3,6,14.1,4.5,14,4.1c-0.2-1.3,0.6-2.5,1.7-2.7
				c1-0.2,2.2,0.5,2.5,1.8c0.1,0.5,0.1,0.9-0.1,1.3c-0.2,0.6-2,2.4-2,2.4S15.7,7,15.2,7z"/>
			<path id="Line-2" class="st0" d="M30.1,24.5v8.4"/>
			<path id="Line-2_1_" class="st0" d="M20.3,23.1v5.6"/>
		</g>
	</g>
</g>
</svg>
