<?xml version="1.0" encoding="utf-8"?>
<!-- Generator: Adobe Illustrator 22.1.0, SVG Export Plug-In . SVG Version: 6.00 Build 0)  -->
<svg version="1.1" id="Calque_1" xmlns="http://www.w3.org/2000/svg" xmlns:xlink="http://www.w3.org/1999/xlink" x="0px" y="0px"
	 viewBox="0 0 60 60" style="enable-background:new 0 0 60 60;" xml:space="preserve">
<style type="text/css">
	.st0{fill:#0082C3;}
</style>
<title>icone blanc</title>
<desc>Created with Sketch.</desc>
<g id="icone-blanc">
	<g id="spelunking" transform="translate(-16.000000, -29.000000)">
		<g id="boxe" transform="translate(25.000000, 41.000000)">
			<path id="Fill-1" class="st0" d="M30.9,6.3l0,0.6c0,0.8-0.7,1.4-1.5,1.4l-0.7,0c-0.6,0.6-1.2,1.3-1.4,1.5
				c-0.6,0.5-0.7,0.5-1.6,0.4C24.7,9.9,23,9.3,23,9.3l0.4,6.2l1.5,1.8l2.2,5.2l-1.8,0.8l0.1,0.3l1.2-0.3l0.4,1.3l-0.1,11.5
				c-1.4,0.1-2-1-2.1-2.3c-0.2-1.3-1.1-8.2-1.1-8.2l-1.5-3.3L21,25.6l-2.9-0.1L18,25.7l1.5,0.2l-0.4,1.2l-7,9.2
				c-1.2-0.7-1-2.1-0.4-3.3c0.7-1.2,4.5-7.6,4.5-7.6l0.6-4.3c0,0-0.5-1.6-0.5-2.7c0-1.1,0.4-2.3,0.4-2.3S15,9.6,15,9.5
				c0.5,0.6,1.5,1.4,3,2.7c0.2,0.2,0.5,0.3,0.7,0.3c0.2,0,0.4-0.1,0.6-0.3c0.7-0.7,1.7-2.1,1.8-2.2l-0.4,0c0,0-0.9,1.2-1.6,1.8
				c-0.2,0.2-0.5,0.4-1-0.1c-2.5-2.2-3.4-3.2-3.6-3.9c-0.1-0.7,0.1-1.5,1.2-2.3c1.1-0.8,2.5-1,2.5-1l0.9,1.1h0.3l-0.1-0.2
				c0,0-0.2-0.3-0.6-1c-0.3-0.6-0.8-1.5-0.8-1.8c0-0.5,0.1-1,0.3-1.4c0.6-1.3,2.2-1.7,3.4-1.2c1.1,0.5,1.7,1.8,1.3,3
				c-0.7,0-1.8,0.2-2.2,1c-0.5,0.8-0.2,1.8,0.2,2.3h0.4l-0.1-0.2c-0.3-0.5-0.6-1.3-0.1-2c0.4-0.6,1.3-0.8,1.9-0.8h0.8
				c0.8,0,1.5,0.6,1.5,1.4v0.6c0,0.4-0.2,0.8-0.5,1l1.5,1.2l0.5-0.5c-0.1-0.2-0.1-0.4-0.1-0.7l0-0.6c0-0.8,0.7-1.4,1.5-1.4l1.3,0.1
				C30.4,4.9,31,5.6,30.9,6.3"/>
		</g>
	</g>
</g>
</svg>
