<?xml version="1.0" encoding="utf-8"?>
<!-- Generator: Adobe Illustrator 22.1.0, SVG Export Plug-In . SVG Version: 6.00 Build 0)  -->
<svg version="1.1" id="Calque_1" xmlns="http://www.w3.org/2000/svg" xmlns:xlink="http://www.w3.org/1999/xlink" x="0px" y="0px"
	 viewBox="0 0 60 60" style="enable-background:new 0 0 60 60;" xml:space="preserve">
<style type="text/css">
	.st0{fill:#0082C3;}
</style>
<title>icone blanc</title>
<desc>Created with Sketch.</desc>
<g id="icone-blanc">
	<g id="spelunking" transform="translate(-16.000000, -29.000000)">
		<g id="badminton" transform="translate(25.000000, 41.000000)">
			<path id="Fill-1" class="st0" d="M17.8,1.3l0.2,0l0,0l0.2,0.6l0,0l-0.2,0c0,0-0.1,0-0.1,0c-0.1,0-0.3-0.1-0.3-0.2
				C17.5,1.5,17.6,1.3,17.8,1.3z M19.1,0.2C19.1,0.2,19.1,0.2,19.1,0.2C19.1,0.2,19.1,0.2,19.1,0.2C19.2,0.2,19.2,0.2,19.1,0.2
				c0.1,0.2,0,0.4,0,0.5l0.2,0.2c0,0,0,0,0,0c0,0,0,0,0,0c0,0,0,0,0,0c0,0,0,0,0,0c0,0,0,0,0,0c0,0,0,0,0,0c0,0,0,0,0,0c0,0,0,0,0,0
				l-0.1,0.3l0.2,0.2c0,0,0,0,0,0c0,0,0,0,0,0c0,0,0,0,0,0c0,0,0,0,0,0c0,0,0,0,0,0c0,0,0,0,0,0l-0.1,0.3c0.1,0,0.2,0.2,0.3,0.4
				c0,0,0,0,0,0c0,0,0,0,0,0c0,0,0,0,0,0l-1.3-0.2l-0.2-0.7L19.1,0.2z M17.9,2.1c0,0,0.1,0,0.1,0l0.2,0l0.1,0l1.3,0.3c0,0,0,0,0,0
				c0.1,0,0.1,0,0.2-0.1c0,0,0,0,0,0c0.1-0.1,0.1-0.1,0-0.2c0-0.2-0.1-0.3-0.2-0.4l0-0.1c0,0,0,0,0,0c0,0,0,0,0,0c0,0,0,0,0,0
				c0,0,0,0,0,0c0,0,0,0,0,0h0c0,0,0,0,0,0c0,0,0,0,0,0c0,0,0,0,0,0c0,0,0-0.1-0.1-0.1l-0.1-0.1l0.1-0.2c0,0,0,0,0-0.1c0,0,0,0,0,0
				c0,0,0,0,0,0c0,0,0,0,0,0c0,0,0,0,0,0c0,0,0,0,0,0c0,0,0,0,0,0c0,0,0,0,0,0c0,0,0,0,0,0l-0.1-0.1c0-0.1,0.1-0.3,0-0.4
				c0-0.1-0.1-0.1-0.2-0.2c0,0,0,0-0.1,0C19.1,0,19,0,19,0.1L18,1l-0.1,0l-0.2,0c-0.1,0-0.2,0.1-0.3,0.3c-0.1,0.1-0.1,0.3,0,0.4
				C17.5,1.9,17.7,2.1,17.9,2.1z M16.5,10.7c-0.6-1-0.1-2.2,0.8-2.7c0.9-0.5,2.1-0.2,2.7,0.8c0.2,0.3,0.8,1.4,1.1,2
				c0.1,0.2-0.1,0.4-0.4,0.6c-0.3,0.3-0.6,0.5-0.6,0.5s-2.3-0.1-2.8-0.4C17,11.3,16.7,11.1,16.5,10.7z M26.9,23.4L26.9,23.4
				L26.9,23.4L26.9,23.4z M11.6,8c-0.1,0-0.3,0.1-0.4,0.1l-0.1-0.2l0.5-0.2L11.8,8L11.6,8z M10.6,8.1L11,7.9l0,0.2
				C10.9,8.1,10.8,8.1,10.6,8.1z M9.2,7.1c0,0,0-0.1-0.1-0.1l0.1,0l0.1,0.4C9.3,7.3,9.3,7.2,9.2,7.1z M9.6,2.9l0,0.1L9.3,3.1
				C9.4,3,9.5,3,9.6,2.9z M11.7,7l0.5-0.2l0.2,0.5l-0.5,0.2L11.7,7z M11,7.2l0.5-0.2l0.2,0.5l-0.5,0.2L11,7.2z M10.3,7.4l0.5-0.2
				L11,7.8L10.5,8L10.3,7.4z M10.2,7.5L10.3,8c-0.2-0.1-0.5-0.2-0.7-0.4L10.2,7.5z M10,6.8l0.2,0.5L9.6,7.5L9.4,6.9L10,6.8z
				 M9.2,6.3l0.5-0.2l0.2,0.5L9.4,6.8L9.2,6.3z M9.1,6.3l0.2,0.5l-0.2,0C9,6.7,8.9,6.6,8.9,6.4L9.1,6.3z M9.2,4.1l0.2,0.5L8.8,4.8
				L8.7,4.5c0-0.1,0-0.2,0.1-0.3L9.2,4.1z M10.3,2.9L9.8,3L9.7,2.8c0.2-0.1,0.3-0.2,0.5-0.3L10.3,2.9z M11.1,2.6l0-0.2
				c0.1,0,0.2,0,0.4,0.1L11.1,2.6z M12,3.1l-0.1-0.4C12,2.8,12.2,2.9,12.3,3L12,3.1z M12.7,3.6l-0.5,0.2L12,3.2l0.4-0.1
				c0.1,0.1,0.1,0.1,0.2,0.2L12.7,3.6z M12.9,3.6L12.9,3.6C12.9,3.6,12.9,3.6,12.9,3.6L12.9,3.6z M13.5,5.6l-0.2-0.5L13.5,5
				c0,0.2,0.1,0.4,0.1,0.6L13.5,5.6z M12.5,7.5l0.4-0.1c-0.1,0.1-0.2,0.2-0.3,0.3L12.5,7.5z M12.9,6.7L13,7.2l-0.5,0.2l-0.2-0.5
				L12.9,6.7z M12.1,6.1L12.7,6l0.2,0.5l-0.5,0.2L12.1,6.1z M11.5,6.3L12,6.2l0.2,0.5l-0.5,0.2L11.5,6.3z M10.8,6.5l0.5-0.2l0.2,0.5
				l-0.5,0.2L10.8,6.5z M10.6,6.6l0.2,0.5l-0.5,0.2l-0.2-0.5L10.6,6.6z M10.4,5.9l0.2,0.5l-0.5,0.2L9.9,6.1L10.4,5.9z M9.7,5.4
				l0.5-0.2l0.2,0.5L9.9,5.9L9.7,5.4z M9.6,5.4L9.7,6L9.2,6.1L9,5.6L9.6,5.4z M9.5,5.3L9,5.4L8.8,4.9l0.5-0.2L9.5,5.3z M10,4.4
				L9.5,4.6L9.3,4l0.5-0.2L10,4.4z M10.5,3.5L10,3.7L9.8,3.1L10.3,3L10.5,3.5z M11.2,3.3l-0.5,0.2L10.5,3L11,2.8L11.2,3.3z M11.5,4
				l-0.2-0.5l0.5-0.2L12,3.8L11.5,4z M12.2,4.5l-0.5,0.2l-0.2-0.5L12.1,4L12.2,4.5z M12.4,4.4l-0.2-0.5l0.5-0.2l0.2,0.5L12.4,4.4z
				 M12.6,5.1l-0.2-0.5L13,4.4L13.1,5L12.6,5.1z M11.9,5.5l0.5-0.2l0.2,0.5L12.1,6L11.9,5.5z M11.3,5.7l0.5-0.2L12,6l-0.5,0.2
				L11.3,5.7z M11.1,5.7l0.2,0.5l-0.5,0.2l-0.2-0.5L11.1,5.7z M10.9,5l0.2,0.5l-0.5,0.2l-0.2-0.5L10.9,5z M10.2,4.5l0.5-0.2l0.2,0.5
				L10.3,5L10.2,4.5z M10.2,5.1L9.7,5.2L9.5,4.7l0.5-0.2L10.2,5.1z M10.7,4.2l-0.5,0.2L10,3.8l0.5-0.2L10.7,4.2z M10.8,4.2l-0.2-0.5
				l0.5-0.2L11.4,4L10.8,4.2z M11,4.8l-0.2-0.5l0.5-0.2l0.2,0.5L11,4.8z M11.7,4.8l0.5-0.2l0.2,0.5l-0.5,0.2L11.7,4.8z M11.8,5.4
				l-0.5,0.2L11.1,5l0.5-0.2L11.8,5.4z M13.4,5.8l0.2,0.5L13,6.5l-0.2-0.5L13.4,5.8z M12.8,5.8l-0.2-0.5l0.5-0.2l0.2,0.5L12.8,5.8z
				 M11.7,2.6l0.2,0.5l-0.5,0.2l-0.2-0.5L11.7,2.6C11.7,2.6,11.7,2.6,11.7,2.6z M13.2,7.1L13,6.6l0.5-0.1
				C13.4,6.7,13.3,6.9,13.2,7.1z M13.6,5.9C13.6,6,13.6,6,13.6,5.9l-0.1-0.2l0.1,0C13.6,5.8,13.6,5.9,13.6,5.9z M13.5,4.8
				C13.5,4.8,13.5,4.8,13.5,4.8l-0.2,0.1l-0.2-0.5l0.2-0.1C13.4,4.5,13.4,4.6,13.5,4.8z M13,3.7c0.1,0.2,0.2,0.3,0.3,0.5l-0.2,0.1
				L13,3.7L13,3.7C12.9,3.7,13,3.7,13,3.7z M10.9,2.4L11,2.7l-0.5,0.2l-0.1-0.3C10.5,2.5,10.7,2.4,10.9,2.4
				C10.9,2.4,10.9,2.4,10.9,2.4z M9.2,3.3l0.5-0.1l0.2,0.5L9.3,3.9L9.2,3.3C9.1,3.4,9.2,3.4,9.2,3.3z M9,3.6l0.1,0.4L8.8,4
				C8.9,3.9,8.9,3.7,9,3.6z M8.7,5L8.7,5l0.2,0.5L8.7,5.5C8.7,5.3,8.6,5.1,8.7,5z M8.8,6.1c0-0.1-0.1-0.3-0.1-0.4l0.2-0.1l0.2,0.5
				L8.8,6.2C8.8,6.2,8.8,6.1,8.8,6.1z M11.9,8l-0.1-0.3l0.5-0.2l0.1,0.2C12.3,7.8,12.1,7.9,11.9,8L11.9,8z M33.3,28
				c-0.1-1.4-0.2-1.5-0.8-2.7c-0.5-0.9-4.6-8.3-4.6-8.3L25.7,13l0.7-1.4c0,0,2-1.6,2.3-1.8c0.1-0.1,0.4-0.4,0.6-0.7
				c0.2-0.2,2.9-4.1,3.4-4.8c0.5-0.7,0-1.5-0.2-1.5l-5.3,5.8l-4.5,2.2c0,0-0.4,0.2-0.6,0.4c-0.6,0.5-2.2,1.9-2.5,2.2
				c-0.3,0.3-0.6,0.9-0.6,0.9l-1.3,2.7c0,0-2.2-1.5-3.2-2.2c-0.4-0.8-0.7-1.2-1-1.2l-0.2-0.5l-0.1,0l-1.1-4l0.1,0l-0.1-0.5
				c1-0.4,1.7-1.1,1.8-2.2c0-0.4,0-0.8-0.1-1.3c-0.1-0.4-0.3-0.8-0.5-1.2c-0.8-1.1-1.8-1.6-2.9-1.3C9.2,2.5,8.5,3.5,8.4,4.8
				c0,0.4,0,0.9,0.1,1.3C8.6,6.6,8.8,6.9,9,7.3c0.6,0.9,1.5,1.2,2.6,1l0.1,0.5l0.1,0l1.1,4l-0.1,0l0.1,0.6c-0.3,0.3-0.3,0.8-0.1,1
				c0.2,0.3,0.7,0.6,0.7,0.6s4.1,4.1,4.3,4.3c0.5,0.5,1,0.5,1.3,0.1c0.4-0.5,1.3-1.6,1.3-1.6L19.5,17l0.1-0.2l2.7,1.8l1.4,2.3
				L21.1,28l-4.3,8c0,0,1.1,1,2.3-0.7c1.2-1.7,8.2-11.3,8.2-11.3l3,3.5c0,0,1.5,5.7,1.8,7.3c0.4,1.6,1.6,1.7,2,1.5
				C34.1,36.3,33.4,29.2,33.3,28z"/>
		</g>
	</g>
</g>
</svg>
