<?xml version="1.0" encoding="utf-8"?>
<!-- Generator: Adobe Illustrator 22.1.0, SVG Export Plug-In . SVG Version: 6.00 Build 0)  -->
<svg version="1.1" id="Calque_1" xmlns="http://www.w3.org/2000/svg" xmlns:xlink="http://www.w3.org/1999/xlink" x="0px" y="0px"
	 viewBox="0 0 60 60" style="enable-background:new 0 0 60 60;" xml:space="preserve">
<style type="text/css">
	.st0{fill:#0082C3;}
</style>
<title>icone blanc</title>
<desc>Created with Sketch.</desc>
<g id="icone-blanc">
	<g id="spelunking" transform="translate(-16.000000, -29.000000)">
		<g id="tennis" transform="translate(25.000000, 41.000000)">
			<path id="Fill-1" class="st0" d="M27.7,8.8l-1-1.2c0.3,0,0.5,0,0.8-0.1c0.2,0,0.3-0.1,0.5-0.2L27.7,8.8z M26.3,6.6l0.9-0.2
				l0.2,0.7c-0.3,0.1-0.6,0-0.9,0L26.3,6.6z M26,5.6l0.9-0.2l0.2,0.9l-0.9,0.2L26,5.6z M25.7,6.7l0.4-0.1L26.2,7
				C26,6.9,25.9,6.8,25.7,6.7z M25.5,6.6c-0.2-0.1-0.3-0.3-0.5-0.4L25,5.8l0.9-0.2L26,6.5L25.5,6.6z M24.7,4.8l0.9-0.2l0.2,0.9
				l-0.9,0.2L24.7,4.8z M24.7,5.7c-0.2-0.2-0.3-0.5-0.4-0.8l0.2-0.1L24.7,5.7L24.7,5.7z M24.2,4.5c-0.1-0.2-0.1-0.4-0.1-0.6l0.2,0
				l0.2,0.9l-0.2,0.1C24.2,4.6,24.2,4.6,24.2,4.5z M24,3l0.2,0.6l-0.2,0C24,3.4,24,3.2,24,3z M24.6,1.5l0.2,0L25,2.3l-0.8,0.2
				C24.2,2.2,24.4,1.8,24.6,1.5z M25.7,0.7L25.8,1l-0.9,0.2l0-0.1C25.1,0.9,25.4,0.8,25.7,0.7z M26,2.1l-0.9,0.2l-0.2-0.9l0.9-0.2
				L26,2.1z M26.8,0.7L26.8,0.7L25.9,1l-0.1-0.3C26.2,0.6,26.5,0.6,26.8,0.7z M27.1,1.8L26.2,2L26,1.2l0.9-0.2L27.1,1.8z M27.2,0.8
				c0.3,0.2,0.6,0.4,0.9,0.7l0,0l-0.9,0.2L27,0.9L27.2,0.8z M28.4,2.6l-0.9,0.2l-0.2-0.9l0.9-0.2L28.4,2.6z M28.7,2.5l-0.2,0
				l-0.2-0.6C28.5,2.1,28.6,2.3,28.7,2.5z M29,3.2c0,0.1,0.1,0.2,0.1,0.3l-0.2,0.1l-0.2-0.9l0.2-0.1C28.9,2.8,28.9,3,29,3.2z
				 M29.1,4.6L29.1,4.6l-0.3-0.8l0.2-0.1C29.1,4,29.2,4.3,29.1,4.6z M29.1,4.8L29.1,4.8L29.1,4.8C29.1,4.8,29.1,4.8,29.1,4.8z
				 M28.9,5.7l-0.6,0.1L28.1,5l0.9-0.2L29,5.2C29,5.4,28.9,5.6,28.9,5.7z M28.4,6.4l-0.1-0.3L28.7,6C28.7,6.1,28.5,6.3,28.4,6.4z
				 M27.9,5.1l0.2,0.9l-0.9,0.2L27,5.3L27.9,5.1z M26.8,4.3l0.9-0.2l0.2,0.9L27,5.1L26.8,4.3z M26.6,4.3l0.2,0.9L26,5.4l-0.2-0.9
				L26.6,4.3z M25.5,3.5l0.9-0.2l0.2,0.9l-0.9,0.2L25.5,3.5z M25.3,3.5l0.2,0.9l-0.9,0.2l-0.2-0.9L25.3,3.5z M25.2,3.4l-0.9,0.2
				l-0.2-0.9L25,2.5L25.2,3.4z M26.3,3.1l-0.9,0.2l-0.2-0.9l0.9-0.2L26.3,3.1z M26.5,3l-0.2-0.9L27.1,2l0.2,0.9L26.5,3z M27.6,3.9
				l-0.9,0.2l-0.2-0.9L27.4,3L27.6,3.9z M28.7,3.8l0.2,0.9L28,4.9L27.8,4L28.7,3.8z M27.8,3.8L27.5,3l0.9-0.2l0.2,0.9L27.8,3.8z
				 M27.5,7l-0.2-0.7l0.9-0.2l0.1,0.5C28,6.8,27.8,6.9,27.5,7z M28.9,11.9l-0.7-2.4c0,0,0.2-1.5,0.8-2.6c0.6-1.1,0.9-2.3,0.6-3.8
				c-0.5-2.1-2.3-3.4-4-3c-1.6,0.4-2.5,2.5-2,4.5c0.3,1.3,1.2,2.4,2,2.9c0.8,0.5,1.9,2.2,1.9,2.2l0.5,2.7c-0.2,0.2-0.4,0.4-0.5,0.5
				L24,13.6c0,0-4.4-4-4.6-4.2c-0.4-0.4-0.7-0.5-1.1-0.5c-0.3,0-0.6-0.1-2-0.2c-1.7-0.1-2.3,1.2-2.6,2.2c-0.3,1.1-2,7-2,7L11,19.5
				c-0.7,1.6-0.3,3.5,0.1,4.3c0.4,0.8,2.4,4.6,2.4,4.6s-3.4,4.1-4.5,5.6c-1.2,1.4-0.2,2.4-0.2,2.4s8.2-7.3,8.7-7.7
				c0.5-0.5,0.7-1.1,0.4-1.7c-0.6-0.4-4-2.6-4-2.6l-0.2-0.4l7.5,4.1c0,0,3.6,5.2,4.9,7.1c1.3,1.9,2.7,1,2.7,1s-5-9.4-5.3-10
				c-0.4-0.8-0.5-0.8-1.1-1.4c-0.5-0.4-6.1-5.2-6.1-5.2l0.1-0.2c0.8-1.7,2.5-4,3-4.8l-1.2-0.7l0.1-0.2c0,0,4.5,2.2,4.7,2.2
				c0.2,0.1,0.4,0.1,0.6,0c0.1,0,4.4-1.5,5.1-1.8c0.7-0.3,1-1.2,0.9-1.6C29.5,12.3,29.2,12,28.9,11.9z M17,8.3c0,0,0.5,0,1,0.1
				c0.5,0,0.8,0.1,0.9-0.2c0.2-0.8,0.6-2.3,0.7-2.7c0.4-1.3-0.5-2.7-1.7-3c-1.2-0.3-2.6,0.3-3,1.7c-0.1,0.5-0.1,0.9,0,1.4
				C15.1,6.2,17,8.3,17,8.3z M33.7,19.6c-0.1-0.2-0.2-0.3-0.2-0.5c0-0.2,0.1-0.4,0.2-0.6c0.1,0.1,0.2,0.3,0.2,0.6
				S33.8,19.4,33.7,19.6z M32.5,19.8c0.2-0.2,0.3-0.5,0.3-0.8c0-0.3-0.1-0.5-0.2-0.7c0.1-0.1,0.3-0.1,0.4-0.1c0.2,0,0.3,0,0.5,0.1
				c-0.2,0.2-0.3,0.5-0.3,0.7c0,0.3,0.1,0.5,0.3,0.7c-0.1,0.1-0.3,0.1-0.5,0.1C32.8,19.9,32.7,19.9,32.5,19.8z M32.3,18.5
				c0.1,0.1,0.2,0.3,0.2,0.5c0,0.2-0.1,0.4-0.2,0.6c-0.1-0.1-0.2-0.3-0.2-0.5C32.1,18.8,32.2,18.6,32.3,18.5z M33,17.7
				c-0.8,0-1.4,0.6-1.4,1.3c0,0.7,0.6,1.3,1.4,1.3c0.8,0,1.4-0.6,1.4-1.3C34.4,18.3,33.8,17.7,33,17.7z"/>
		</g>
	</g>
</g>
</svg>
