<?xml version="1.0" encoding="utf-8"?>
<!-- Generator: Adobe Illustrator 22.1.0, SVG Export Plug-In . SVG Version: 6.00 Build 0)  -->
<svg version="1.1" id="Calque_1" xmlns="http://www.w3.org/2000/svg" xmlns:xlink="http://www.w3.org/1999/xlink" x="0px" y="0px"
	 viewBox="0 0 60 60" style="enable-background:new 0 0 60 60;" xml:space="preserve">
<style type="text/css">
	.st0{fill:#0082C3;}
</style>
<title>icone blanc</title>
<desc>Created with Sketch.</desc>
<g id="icone-blanc">
	<g id="spelunking" transform="translate(-16.000000, -29.000000)">
		<g id="tennis-de-table" transform="translate(25.000000, 41.000000)">
			<path id="Fill-1" class="st0" d="M39.7,33.9c-1.3,1.1-2.8-0.1-3.5-1c-0.7-0.9-5.2-6.5-5.2-6.5l-8.2-5.2l-7.2,3.9
				c0,0-2.8,8.5-3.2,9.7c-0.4,1.1-1.5,1.9-2.3,1.5c0,0,1.7-10.4,1.8-11.4c0.2-1.3,0.2-1.4,1.3-2.7c0.7-0.9,4.8-5.2,4.8-5.2l-0.6-1.8
				l-2.2-1.5c0,0,0.1,1.1,0.2,2c0.1,1.3,0.1,1.4-0.8,2c-1.6,1-4.6,2.9-5.5,3.6c-0.6,0.5-1.2,0.4-1.7,0.3l-0.7,0.5l0,0
				c0.4,1-0.3,2.3-1.5,3c-1.3,0.8-2.9,0.6-3.5-0.5c-0.6-1,0-2.5,1.3-3.3c1.2-0.7,2.5-0.6,3.2,0.1l1.2-1h0l5.1-4.5
				c0,0-0.5-2.5-0.8-3.7c-0.4-1.7-0.2-2.6,1-3.3C13.5,8.3,19,5.3,19,5.3c0.8-0.4,2-0.4,3.2,0.5c1,0.7,3.9,3.4,5.1,4.5
				c0.3,0.3,0.4,0.8,0.2,1.2L25,16.7l0.3,0.2l1-1.5l0.6,0.9l6.4,7.9L39.7,33.9z M7.5,14.8c0.4,0,0.7-0.4,0.7-0.8
				c0-0.4-0.4-0.8-0.8-0.7c-0.4,0-0.7,0.4-0.7,0.8C6.7,14.5,7.1,14.9,7.5,14.8z M11.6,5.1c0.6,0.6,3.5,1.5,3.5,1.5S16,6.2,16.5,6
				c0.5-0.2,0.7-0.7,0.6-1.1C16.8,4,16.4,2.5,16.2,2c-0.5-1.6-2.2-2.4-3.5-1.9c-1.4,0.4-2.4,2-1.9,3.6C11,4.2,11.2,4.7,11.6,5.1z
				 M24.5,12.6c0.3-0.7,0.5-1.2,0.5-1.2l-2-1.1L24.5,12.6z"/>
		</g>
	</g>
</g>
</svg>
