<?xml version="1.0" encoding="utf-8"?>
<!-- Generator: Adobe Illustrator 22.1.0, SVG Export Plug-In . SVG Version: 6.00 Build 0)  -->
<svg version="1.1" id="Calque_1" xmlns="http://www.w3.org/2000/svg" xmlns:xlink="http://www.w3.org/1999/xlink" x="0px" y="0px"
	 viewBox="0 0 60 60" style="enable-background:new 0 0 60 60;" xml:space="preserve">
<style type="text/css">
	.st0{fill:#0082C3;}
</style>
<title>icone blanc</title>
<desc>Created with Sketch.</desc>
<g id="icone-blanc">
	<g id="spelunking" transform="translate(-16.000000, -29.000000)">
		<g id="squash" transform="translate(25.000000, 41.000000)">
			<path id="Fill-1" class="st0" d="M40.2,20.7l-0.4,0l0,0.6l0.3,0C40.2,21.2,40.2,20.9,40.2,20.7z M40.1,21.5l-0.2,0l0,0.4
				C40,21.8,40,21.6,40.1,21.5z M39.8,20.6l0.4,0c0-0.2-0.1-0.4-0.2-0.6l-0.3,0L39.8,20.6z M39.8,22.1l0-0.5l-0.6,0l0,0.6L39.8,22.1
				C39.7,22.1,39.8,22.1,39.8,22.1z M39.5,22.3l-0.3,0l0,0.2c0,0,0.1,0,0.1,0C39.4,22.4,39.5,22.4,39.5,22.3z M39.1,21.4l0.6,0
				l0-0.6l-0.6,0L39.1,21.4z M39.1,20.7l0.6,0l0-0.6l-0.6,0L39.1,20.7z M39,22.6l0-0.2l-0.6,0l0,0.4C38.6,22.7,38.8,22.7,39,22.6z
				 M38.4,22.3l0.6,0l0-0.6l-0.6,0L38.4,22.3z M38.3,21.5l0.6,0l0-0.6l-0.6,0L38.3,21.5z M38.3,22.8l0-0.4l-0.6,0l0,0.5
				C37.9,22.9,38.1,22.9,38.3,22.8z M37.6,22.3l0.6,0l0-0.6l-0.6,0L37.6,22.3z M37.6,21.6l0.6,0l0-0.6l-0.6,0L37.6,21.6z M37.5,22.9
				l0-0.5l-0.6,0l0,0.4C37.1,22.9,37.3,23,37.5,22.9z M36.9,22.4l0.6,0l0-0.6l-0.6,0L36.9,22.4z M36.8,21.6l0.6,0l0-0.6l-0.6,0
				L36.8,21.6z M36.8,22.9l0-0.4l-0.6,0l0,0.2C36.3,22.8,36.6,22.9,36.8,22.9z M36.1,22.4l0.6,0l0-0.6l-0.6,0L36.1,22.4z M36,21.7
				l0.6,0l0-0.6l-0.6,0L36,21.7z M36,20.9l0.6,0l0-0.6l-0.6,0L36,20.9z M36,22.7l0-0.1l-0.4,0C35.7,22.7,35.9,22.7,36,22.7z
				 M35.3,22.5l0.6,0l0-0.6l-0.6,0L35.3,22.5z M35.3,21.7l0.6,0l0-0.6l-0.6,0L35.3,21.7z M35.2,21l0.6,0l0-0.6l-0.6,0L35.2,21z
				 M35.2,22.5l0-0.6l-0.6,0l0,0.3C34.8,22.3,35,22.4,35.2,22.5z M34.5,21.8l0.6,0l0-0.6l-0.6,0L34.5,21.8z M34.5,21l0.6,0l0-0.6
				l-0.6,0L34.5,21z M34.4,20.3l0.6,0l0-0.6l0,0c-0.2,0.1-0.4,0.2-0.5,0.3L34.4,20.3z M34.4,22.2l0-0.2L34,22c0,0,0,0,0.1,0
				C34.1,22.1,34.3,22.1,34.4,22.2z M33.8,21.9l0.6,0l0-0.6l-0.6,0L33.8,21.9z M34.3,21l0-0.6l-0.6,0l0,0.6L34.3,21z M33.6,21.8
				l0-0.6l-0.6,0l0,0.3C33.2,21.7,33.4,21.8,33.6,21.8z M32.9,21.1l0.6,0l0-0.6c-0.2,0.1-0.4,0.2-0.6,0.4L32.9,21.1z M32.8,21.5
				l0-0.2l-0.5,0C32.4,21.4,32.6,21.5,32.8,21.5z M32.3,21.2l0.5,0l0-0.2C32.6,21,32.4,21.1,32.3,21.2z M33.8,20.3l0.5,0l0-0.2
				c-0.1,0.1-0.2,0.1-0.3,0.2C33.9,20.2,33.8,20.3,33.8,20.3z M35.1,19.6l0,0.6l0.6,0l0-0.6L35.1,19.6z M35.2,19.4l0.5,0l0-0.2
				C35.5,19.3,35.4,19.3,35.2,19.4z M35.9,19.1l0,0.2l0.6,0l0-0.4C36.2,19,36,19,35.9,19.1z M36.5,19.5l-0.6,0l0,0.6l0.6,0
				L36.5,19.5z M36.6,18.9l0,0.4l0.6,0l0-0.5C37,18.8,36.8,18.8,36.6,18.9z M37.3,19.4l-0.6,0l0,0.6l0.6,0L37.3,19.4z M37.3,20.2
				l-0.6,0l0,0.6l0.6,0L37.3,20.2z M37.4,18.8l0,0.5l0.6,0l0-0.4C37.8,18.8,37.6,18.8,37.4,18.8z M38,19.4l-0.6,0l0,0.6l0.6,0
				L38,19.4z M38.1,20.1l-0.6,0l0,0.6l0.6,0L38.1,20.1z M38.1,18.8l0,0.4l0.6,0l0-0.2C38.5,18.9,38.3,18.8,38.1,18.8z M38.8,19.3
				l-0.6,0l0,0.6l0.6,0L38.8,19.3z M38.9,20.1l-0.6,0l0,0.6l0.6,0L38.9,20.1z M38.9,19l0,0.1l0.3,0c-0.1,0-0.1-0.1-0.2-0.1
				C39,19,39,19,38.9,19z M38.9,19.3l0,0.6l0.6,0l0-0.5l0-0.1l-0.1,0L38.9,19.3z M39.7,19.5l0,0.3l0.2,0
				C39.9,19.7,39.8,19.6,39.7,19.5z M39.7,23.2c-0.8,0.4-1.6,0.6-2.3,0.6c-1.3,0-2.5-0.5-3.7-1c-1.3-0.5-2.5-1-3.7-0.9
				c-0.3,0-0.6,0.1-0.9,0.1c-0.1,0.2-0.3,0.4-0.5,0.4L26,22.5c-0.3,0-0.6-0.2-0.6-0.5l0-0.5c0-0.2,0.1-0.5,0.3-0.6l-4-4.3l-1.7-4.4
				l-2.5,1.8l-0.8,2.2c0,0,4.5,4.6,5.1,5.2c1.1,1.2,1.2,1.2,1.5,3c0.2,1.3,1.8,11.8,1.8,11.8c-0.5,0.2-2.1,0.1-2.6-1.7
				c-0.5-1.7-3.2-10.1-3.2-10.1l-6.7-4.1c0,0-0.6,3-0.9,4.5c-0.4,1.9-0.7,2.1-2.1,3.3c-1.2,1-5.2,4.5-6,5.2
				c-0.8,0.6-2.7,1.8-3.9,0.7l7.6-9.1c0,0-0.2-4.8-0.3-7.1c-0.1-2.1,0.8-3.9,2.3-5.3c0.5-0.8,2.4-3.9,3.8-6.3L9.8,4.8
				c0,0-6.5-0.7-7.7-0.8C0.9,3.9,0.4,2.7,0.6,2.3h9.3c0,0,4,0.9,5.2,1.2c1.4,0.3,1.9,0.8,2.1,1L18,6.9L18.4,7c0,0-0.4-1.3-0.6-2.1
				c-0.3-0.9-0.4-1.7-0.3-2.3c0.1-0.6,0.3-1.1,0.7-1.6c1.1-1.4,3-1.4,4.2-0.4c1.2,1,1.5,2.9,0.4,4.2c-0.3,0.3-1.1,1.3-1.7,2.1
				l1.1,0.7c1,0.7,0.9,1,1.3,3.3c0.3,2,0.7,4.1,0.7,4.1l3.7,5.6l0.5,0c0.3,0,0.5,0.1,0.6,0.4c0.3,0,0.6,0,0.9-0.1
				c1.4-0.1,2.5-0.8,3.6-1.5c1.6-1,3.3-2.1,5.8-1.3c1,0.3,1.6,1.2,1.7,2.3C41.1,21.7,40.5,22.7,39.7,23.2z M37.2,28
				c0,0.5-0.4,0.9-0.9,0.9s-0.9-0.4-0.9-0.9c0-0.5,0.4-0.9,0.9-0.9S37.2,27.5,37.2,28z"/>
		</g>
	</g>
</g>
</svg>
