<?xml version="1.0" encoding="utf-8"?>
<!-- Generator: Adobe Illustrator 22.1.0, SVG Export Plug-In . SVG Version: 6.00 Build 0)  -->
<svg version="1.1" id="Calque_1" xmlns="http://www.w3.org/2000/svg" xmlns:xlink="http://www.w3.org/1999/xlink" x="0px" y="0px"
	 viewBox="0 0 60 60" style="enable-background:new 0 0 60 60;" xml:space="preserve">
<style type="text/css">
	.st0{fill:#0082C3;}
</style>
<title>icone blanc</title>
<desc>Created with Sketch.</desc>
<g id="icone-blanc">
	<g id="spelunking" transform="translate(-16.000000, -29.000000)">
		<g id="randonnee" transform="translate(25.000000, 41.000000)">
			<path id="Page-1" class="st0" d="M30.1,27.1l-4.2-16.8c0.2-0.1,0.2-0.3,0.2-0.5l-0.1-0.3c0.3-0.2,0.5-0.5,0.6-0.8
				c0.2-0.4,0.1-0.8,0.1-0.8l-1,0.2l0-0.1c-0.1-0.3-0.3-0.4-0.6-0.4l-0.1,0c-0.3,0.1-0.4,0.3-0.4,0.6l0,0.1l-2.7,0.6l0.3,1.7
				c0,0,1.9-0.4,2.8-0.8l0,0.1c0.1,0.2,0.2,0.4,0.4,0.4l4.2,16.8L30.1,27.1z M22.3,21l1.2-4c-0.1-0.1-0.2-0.3-0.2-0.5l0.1-0.2
				c-0.7-0.3-1.4-0.7-2.1-1l-0.2,2.5L22.3,21z M26.5,16.1c0,0-0.8,1.2-2,0.7c0,0-0.1,0-0.1,0l0,0c-0.1,0.2-0.2,0.3-0.4,0.4l-1.5,4.7
				c0.4,1.2,0.8,2.2,0.9,2.5c0.4,1.1,0.5,1.4,0.3,2.6c-0.1,0.9-0.9,9.4-0.9,9.4c-1.4-0.1-1.6-1.5-1.6-2.2c0-0.7-0.2-6.9-0.2-7.7
				l-2.6,8.4c0,0.1-0.1,0.2-0.3,0.2c0,0-0.1,0-0.1,0c-0.1,0-0.2-0.2-0.2-0.3l2.8-8.9l-1.4-2.2c0,0-0.2,1.5-0.4,2.3
				c-0.2,1-0.2,1.4-0.9,2c-1.8,1.4-2.7,2.1-6.6,5.2c-0.8-1.2,0.1-2.2,0.9-3.2c1.1-1.2,3.7-4.1,3.7-4.1s-0.4-3.3-0.5-5.6
				c-0.3-0.8-0.4-1.7-0.4-2.3c0-0.5,0.1-1.6,0.4-2.1l-0.3-0.1c-0.2,0.2-0.4,0.9-0.5,1.9c-0.4-0.2-0.9-0.3-1.6-0.6
				c-0.5-0.2-0.5-0.5-0.6-0.9c0-0.5-0.6-8.6-0.6-8.8c0-0.3,0-0.5,0.1-0.7c0.5-0.7,1.5-2.1,2-2.1c0.5,0,1.9,1,2.1,1.2l-0.2,2.7
				l0.3,0.1c0.1-0.7,0.1-1.3,0.2-1.6c0.1-0.7,0.6-1,1.4-0.8c0.5,0.1,1.8,0.4,2.4,0.5c0.7,0.1,0.9,0.9,1,1.6c0.1,0.5,0.3,2.5,0.3,2.5
				l-0.2,2.1l-1.6-1L19.6,10l-0.3-0.1l0.3,2.1c0,0,3.9,2.3,4.4,2.6c0.1-0.2,0.3-0.2,0.5-0.2l0.1,0c0.3,0.1,0.4,0.4,0.3,0.6l0,0.1
				C25.5,15.5,26.5,16.1,26.5,16.1z M16.5,2.9c-0.1-0.4-0.1-0.9,0.1-1.3c0.4-1.3,1.8-1.9,2.9-1.5C20.6,0.4,21.4,1.7,21,3
				c-0.1,0.4-0.5,1.8-0.8,2.5c-0.1,0.3-0.3,0.4-0.9,0.3c-0.6-0.1-1.1-0.2-1.1-0.2S16.6,3.6,16.5,2.9z"/>
		</g>
	</g>
</g>
</svg>
