<?xml version="1.0" encoding="utf-8"?>
<!-- Generator: Adobe Illustrator 22.1.0, SVG Export Plug-In . SVG Version: 6.00 Build 0)  -->
<svg version="1.1" id="Calque_1" xmlns="http://www.w3.org/2000/svg" xmlns:xlink="http://www.w3.org/1999/xlink" x="0px" y="0px"
	 viewBox="0 0 60 60" style="enable-background:new 0 0 60 60;" xml:space="preserve">
<style type="text/css">
	.st0{fill:#0082C3;}
</style>
<title>icone blanc</title>
<desc>Created with Sketch.</desc>
<g id="icone-blanc">
	<g id="spelunking" transform="translate(-16.000000, -29.000000)">
		<g id="camping" transform="translate(25.000000, 41.000000)">
			<g id="Page-1">
				<path id="Fill-6" class="st0" d="M20.6,4.5c0.8-1.2,1.4-2.3,2.1-3.3c0.2-0.4,0.4-0.6,0.6-0.8c0-0.2,0.2-0.4,0.4-0.2
					s0.8,0.2,0.4,0.8c-0.6,1-1.2,1.9-1.8,2.9c-0.4,0.6-0.6,1-1,1.6c0,0.2-0.2,0.2,0,0.4c1.2,1.8,2.3,3.5,3.5,5.3
					c1.6,2.3,3.1,4.7,4.5,7c1.9,3.1,3.9,6,5.8,9.1c1.9,2.9,3.7,5.8,5.6,8.8c0,0.2,0.2,0.4,0.4,0.4h-0.6H26.9c-0.4,0-0.6-0.2-0.6-0.6
					v-9.1c0-0.4,0-0.6-0.6-0.6H15.2c-0.4,0-0.4,0-0.4,0.4v9.3c0,0.4-0.2,0.6-0.6,0.6H0.6H0c0.8-1.2,1.4-2.1,1.9-3.3
					c1.6-2.5,3.1-4.9,4.7-7.4c2.5-4.1,5.1-8,7.8-12.1c1.8-2.7,3.3-5.3,5.1-8c0.2-0.2,0.2-0.4,0-0.6c-1-1.4-1.8-2.9-2.7-4.3
					c0-0.2-0.2-0.2-0.2-0.4C16.7,0.2,16.9,0,17.1,0s0,0.2,0.2,0.2c1,1.2,1.8,2.7,2.7,3.9C20.4,4.3,20.6,4.3,20.6,4.5"/>
			</g>
		</g>
	</g>
</g>
</svg>
