<?xml version="1.0" encoding="utf-8"?>
<!-- Generator: Adobe Illustrator 22.1.0, SVG Export Plug-In . SVG Version: 6.00 Build 0)  -->
<svg version="1.1" id="Calque_1" xmlns="http://www.w3.org/2000/svg" xmlns:xlink="http://www.w3.org/1999/xlink" x="0px" y="0px"
	 viewBox="0 0 60 60" style="enable-background:new 0 0 60 60;" xml:space="preserve">
<style type="text/css">
	.st0{fill:#0082C3;}
</style>
<title>icone blanc</title>
<desc>Created with Sketch.</desc>
<g id="icone-blanc">
	<g id="spelunking" transform="translate(-16.000000, -29.000000)">
		<g id="trottinette-ville" transform="translate(25.000000, 41.000000)">
			<path id="Fill-1" class="st0" d="M32.1,34.5c0,1-0.8,1.9-1.9,1.9c-1,0-1.9-0.8-1.9-1.9s0.8-1.9,1.9-1.9
				C31.3,32.6,32.1,33.4,32.1,34.5z M30.3,33.3c-0.6,0-1.1,0.5-1.1,1.1c0,0.6,0.5,1.1,1.1,1.1c0.6,0,1.1-0.5,1.1-1.1
				C31.4,33.9,30.9,33.3,30.3,33.3z M16.5,34.5c0,1-0.8,1.9-1.9,1.9c-1,0-1.9-0.8-1.9-1.9c0-1,0.8-1.9,1.9-1.9
				C15.7,32.6,16.5,33.4,16.5,34.5z M14.7,33.3c-0.6,0-1.1,0.5-1.1,1.1c0,0.6,0.5,1.1,1.1,1.1c0.6,0,1.1-0.5,1.1-1.1
				C15.8,33.8,15.3,33.3,14.7,33.3z M27.6,34.4v0.5h-9.8h-0.4c0-0.1,0-0.2,0-0.3c0-1.5-1.2-2.7-2.7-2.7c-1.5,0-2.7,1.2-2.7,2.7
				c0,0.1,0,0.2,0,0.3h-0.8c0-0.1,0-0.2,0-0.3c0-1.9,1.6-3.5,3.5-3.5c1.8,0,3.2,1.3,3.5,3.1h5.6v-1.3h0c0-0.1,0-0.1,0-0.2
				c0-1.2,0-8.2,0-8.2l-0.2-2.3l-0.8,2.3c0,0-6.5,2.4-9.4,3.4c-0.3-1.4,1.1-2.1,1.1-2.1l5.8-3.3c0,0,0-1,0-2.2l1.8,0.6l0.1-0.3
				l-2.3-0.9L16.4,18l2.2-4.6l0.8,0.4l3.3-7.3c0.1-0.2,0.1-0.3,0.1-0.5c0.3-1.2,1.7-1.5,2.1-1.3c0.4,0.2,2.6,1.6,2.6,1.6
				s0.4,2.2,0.2,3.1c-0.1,0.7-0.6,2.7-0.6,2.7l3.5,3.5v16.1h-0.3v0C28.9,31.8,27.7,32.9,27.6,34.4z M27,5.3c0.2,0.1,0.7,0.3,0.8,0
				c0.3-0.6,1.1-1.7,1.3-2.1c0.6-1,0.2-2.4-0.7-2.9c-0.9-0.6-2.3-0.4-2.9,0.7c-0.2,0.4-0.4,0.8-0.4,1.2c0,0.6,0.9,2.5,0.9,2.5
				S26.9,5.2,27,5.3z M29.9,15.8c-0.2,0-0.3,0-0.4,0c-0.4,0-0.8-0.3-1.3-0.6c-0.3-0.2-0.9-0.6-1.5-0.9L26.6,15l-0.5,9.6L25.4,33
				l-0.1,1.1h1.6c0.2-1.6,1.4-2.9,3-3.1V15.8z M20,14.1l1.4,0.6l0.5-1l-0.2-3.3L20,14.1z"/>
		</g>
	</g>
</g>
</svg>
