<?xml version="1.0" encoding="utf-8"?>
<!-- Generator: Adobe Illustrator 22.1.0, SVG Export Plug-In . SVG Version: 6.00 Build 0)  -->
<svg version="1.1" id="Calque_1" xmlns="http://www.w3.org/2000/svg" xmlns:xlink="http://www.w3.org/1999/xlink" x="0px" y="0px"
	 viewBox="0 0 60 60" style="enable-background:new 0 0 60 60;" xml:space="preserve">
<style type="text/css">
	.st0{fill:#0082C3;}
</style>
<title>icone blanc</title>
<desc>Created with Sketch.</desc>
<g id="icone-blanc">
	<g id="spelunking" transform="translate(-16.000000, -29.000000)">
		<g id="roller" transform="translate(25.000000, 41.000000)">
			<path id="Fill-1" class="st0" d="M20.7,3.7c0.5,0.7,1.3,1.7,1.3,1.7s0.7,0.1,1.2,0.2c0.4,0,0.8,0,0.8-0.3c0.2-0.7,0.5-2,0.6-2.4
				c0-0.2,0.1-0.3,0.1-0.5l0.7-0.1c-0.1-0.8-0.8-2.1-2.3-2.3c-1.6-0.2-3,0.6-3.2,1.5c-0.2,0.8,0.1,1.6,0.5,2.2L20.7,3.7z M10.1,26.9
				c0-0.4-0.3-0.8-0.8-0.8c-0.4,0-0.8,0.3-0.8,0.8c0,0.3,0.1,0.6,0.4,0.7c-0.2,0.1-0.4,0.4-0.4,0.7c0,0.3,0.1,0.6,0.4,0.7
				c-0.2,0.1-0.4,0.4-0.4,0.7c0,0.3,0.1,0.6,0.4,0.7c-0.2,0.1-0.4,0.4-0.4,0.7c0,0.4,0.3,0.8,0.8,0.8c0.4,0,0.8-0.3,0.8-0.8
				c0-0.3-0.1-0.6-0.4-0.7c0.2-0.1,0.4-0.4,0.4-0.7c0-0.3-0.1-0.6-0.4-0.7c0.2-0.1,0.4-0.4,0.4-0.7c0-0.3-0.1-0.6-0.4-0.7
				C9.9,27.4,10.1,27.2,10.1,26.9z M26.1,34.8c-0.3,0-0.5,0.2-0.7,0.4c-0.1-0.2-0.4-0.4-0.7-0.4c-0.3,0-0.5,0.2-0.7,0.4
				c-0.1-0.2-0.4-0.4-0.7-0.4c-0.3,0-0.5,0.2-0.7,0.4c-0.1-0.2-0.4-0.4-0.7-0.4c-0.4,0-0.8,0.4-0.8,0.8c0,0.4,0.4,0.8,0.8,0.8
				c0.3,0,0.5-0.2,0.7-0.4c0.1,0.2,0.4,0.4,0.7,0.4c0.3,0,0.5-0.2,0.7-0.4c0.1,0.2,0.4,0.4,0.7,0.4c0.3,0,0.5-0.2,0.7-0.4
				c0.1,0.2,0.4,0.4,0.7,0.4c0.4,0,0.8-0.4,0.8-0.8C26.9,35.1,26.6,34.8,26.1,34.8z M32.4,15.6c-0.5,0.5-1.4,0.6-2,0.3
				c-0.2-0.1-1.8-1-3-1.6c-0.1,0.1-0.3,0.1-0.4,0.1c-0.3-0.1-0.6-0.3-1-0.5c-0.4-0.3-0.6-0.4-0.7-0.7c0-0.2,0-0.4,0-0.6l-1-1.4
				l-1.9,4.3L22,17.6l2.7,5.4c0.2,0,0.5,0.2,0.6,0.4c0.2,0.3,0.2,0.7,0.3,1.1c0.1,0.5,0.1,0.8,0,1c-0.1,0.2-0.3,0.3-0.5,0.4
				l-0.7,8.1c-1.5,0.1-1.7-1.1-1.7-1.6c0-0.4-0.3-7.5-0.3-7.5l-1.8-2.1l-1-1.2l-0.7,1.5c0.1,0.1,0.3,0.5,0.2,0.8
				c-0.1,0.3-0.3,0.6-0.5,1c-0.3,0.4-0.4,0.6-0.7,0.7c-0.2,0-0.5,0-0.7-0.1l-5.9,4.2c-0.7-0.9-0.3-1.8,0.2-2.3
				c0.5-0.5,3.8-3.9,3.8-3.9l1.7-5c-1.3-1.9,0-3.4,0-3.4l1.7-5.3l-2.6,2L14.8,18c-0.9-0.5-1-1.4-1-2.2c0-0.5,0.1-2.3,0.2-3.7
				c-0.1-0.1-0.2-0.3-0.2-0.4c-0.1-0.3,0.1-0.7,0.2-1.1c0.1-0.5,0.1-0.8,0.4-0.9c0.2-0.1,0.5-0.2,0.7-0.2c1-1.1,2.4-2.6,2.6-2.9
				c0.8-0.9,1.4-1,1.9-0.9c0.6,0.1,3.2,0.4,4,0.5c0.6,0.1,1.1,0.3,1.3,0.8c0.2,0.5,2.5,5,2.5,5L32.4,15.6z"/>
		</g>
	</g>
</g>
</svg>
