<?xml version="1.0" encoding="utf-8"?>
<!-- Generator: Adobe Illustrator 22.1.0, SVG Export Plug-In . SVG Version: 6.00 Build 0)  -->
<svg version="1.1" id="Calque_1" xmlns="http://www.w3.org/2000/svg" xmlns:xlink="http://www.w3.org/1999/xlink" x="0px" y="0px"
	 viewBox="0 0 60 60" style="enable-background:new 0 0 60 60;" xml:space="preserve">
<style type="text/css">
	.st0{fill:#0082C3;}
</style>
<title>icone blanc</title>
<desc>Created with Sketch.</desc>
<g id="icone-blanc">
	<g id="spelunking" transform="translate(-16.000000, -29.000000)">
		<g id="hockey-sur-glace" transform="translate(25.000000, 41.000000)">
			<path id="Fill-1" class="st0" d="M6.9,34.5c0,0.2-0.1,0.4-0.3,0.4c-0.3,0-0.7-0.1-1-0.3c-0.2-0.1-0.3-0.3-0.4-0.5
				c-0.2-0.3-2-3.3-2-3.3C2.5,29.7,3,29,3,29l0,0c0.1-0.2,0.3-0.2,0.5-0.1c0.2,0.1,0.2,0.3,0.1,0.5l0,0c0,0-0.2,0.4,0.1,0.9
				c0,0,1.8,3,2,3.3c0.1,0.1,0.3,0.5,0.8,0.5C6.7,34.1,6.9,34.3,6.9,34.5z M20.7,35.5c0.1,0.2,0.1,0.4,0,0.5c-0.3,0.2-0.6,0.3-1,0.3
				c-0.2,0-0.4,0-0.6-0.1c-0.3-0.1-3.7-1.4-3.7-1.4c-1.1-0.4-1.1-1.3-1.1-1.3l0,0c0-0.2,0.2-0.4,0.4-0.4c0.2,0,0.4,0.2,0.4,0.4l0,0
				c0,0.1,0.1,0.4,0.6,0.7c0,0,3.3,1.3,3.6,1.4c0.1,0,0.6,0.2,0.9-0.1C20.3,35.3,20.5,35.3,20.7,35.5z M40.1,35v1h0
				c-0.1,0.2-0.8,0.4-1.6,0.4c-0.8,0-1.5-0.2-1.6-0.4h0v-1c0-0.2,0.7-0.4,1.6-0.4C39.4,34.5,40.1,34.7,40.1,35z M18.3,4.3
				c0.5,0.9,1.1,2.1,1.1,2.1h1.7c0.5,0,0.5-0.1,0.6-0.4c0.2-0.7,0.6-2.4,0.8-2.8L22.7,3c0,0,0.5-2-1-2.6c-0.6-0.3-1.8-0.6-2.9-0.1
				C17.8,0.8,17,2.2,17.8,4C17.9,4.1,18.1,4.2,18.3,4.3z M38.4,31.9c0,0-2,0.9-2.7,1.1c-0.3,0.1-0.6-0.1-0.6-0.1l-0.1-0.1l0,0
				L25.7,22c-0.2,0-0.4,0-0.6-0.1c-0.4-0.2-0.7-0.7-0.7-1.3L22.2,18c0.2,2,0.5,3.3,0.5,3.3l0.2,1.9c0,0-0.7,1.7-1.6,3.8l0,0l0.2,0.7
				l-2.1,4.9h-0.4l0,0c-0.3,0.7-0.5,1.4-0.8,2c0,0-1.4-0.4-1.1-1.9c0.1-0.3,0.1-0.7,0.2-1.1l-0.2-0.4l0.8-4.2l0.3-0.2
				c0.3-1.8,0.6-3.3,0.6-3.3l-2.6-4.9l-4.1,4.8l-1.7,2l0.1,0.3l-2.9,3.8l-0.5,0.2l-1.5,2.4c0,0-1.1-1-0.7-2.3
				c0.2-0.7,0.4-1.2,0.5-1.5l-0.2-0.4l1.7-3.9L7.6,24l3.8-8.1l0.8-1l4.9,1.9h0.6L12.8,14l-0.9-2.5c0,0,0.8-2.1,1.5-3.7l-0.2-0.5
				c0,0,0.2-1.2,1.3-1.8c0.6-0.4,1.5-0.5,2.5-0.1l0.2,0.4c0.9,0.5,2.2,1.1,2.2,1.1l3.1,0l0.4-0.3c2-0.2,3.1,1.8,2.9,2.9l-0.2,0.3
				l0,5c0,0,0.6,1.7,1.2,3.2c0.1,0,0.3,0.1,0.4,0.1c0.8,0.4,0.9,1.6,0.4,2.6c-0.2,0.4-0.5,0.8-0.8,1l8.7,10l2.9-1.4
				c0,0,0.3-0.1,0.4,0c0.3,0.3,0.2,1.1,0.1,1.3C38.8,31.8,38.4,31.9,38.4,31.9z M37.4,35c0.2,0.1,0.6,0.1,1.1,0.1
				c0.5,0,0.9-0.1,1.1-0.1c-0.2-0.1-0.6-0.1-1.1-0.1C38,34.8,37.6,34.9,37.4,35z M22.7,13l-0.8,2.5c0,0.3,0.1,0.6,0.1,0.8l2.6,3
				c0-0.1,0-0.1,0.1-0.2c0,0,0-0.1,0-0.1l-1.6-3.3L22.7,13z"/>
		</g>
	</g>
</g>
</svg>
