<?xml version="1.0" encoding="utf-8"?>
<!-- Generator: Adobe Illustrator 22.1.0, SVG Export Plug-In . SVG Version: 6.00 Build 0)  -->
<svg version="1.1" id="Calque_1" xmlns="http://www.w3.org/2000/svg" xmlns:xlink="http://www.w3.org/1999/xlink" x="0px" y="0px"
	 viewBox="0 0 60 60" style="enable-background:new 0 0 60 60;" xml:space="preserve">
<style type="text/css">
	.st0{fill:#0082C3;}
</style>
<title>icone blanc</title>
<desc>Created with Sketch.</desc>
<g id="icone-blanc">
	<g id="spelunking" transform="translate(-16.000000, -29.000000)">
		<g id="golf" transform="translate(25.000000, 41.000000)">
			<path id="Fill-1" class="st0" d="M12.3,7.8c-0.1-0.5-0.3-1.5-0.3-2l-0.7,0.1c-0.4,0.1-0.7,0.8-0.9,2.2c0,0.3,0,0.4,0.1,0.5
				c0.1,0.1,0.3,0.1,0.7,0.1l0.3,0c0.4-0.1,0.7-0.1,0.8-0.3C12.3,8.1,12.3,8,12.3,7.8z M12.8,7.7c0.1,0.4,0,0.7-0.1,0.9
				c-0.3,0.4-0.7,0.4-1.2,0.5l-0.3,0c-0.1,0-0.3,0-0.4,0c-0.3,0-0.5-0.1-0.7-0.2C9.7,8.6,9.8,8.1,9.8,8c0.1-0.7,0.3-2.4,1.3-2.6
				l1-0.2l7.6-1.4c0,0.1,0.1,0.2,0.1,0.3c0,0.1,0.1,0.1,0.1,0.2l-7.6,1.3C12.5,6.2,12.7,7.2,12.8,7.7z M10.6,7.5l0.1,0.9
				c0.1,0,0.1,0.1,0.2,0.1l-0.2-1.6C10.7,7.1,10.6,7.3,10.6,7.5z M10.9,6.5l0.2,2c0,0,0.1,0,0.1,0c0,0,0.1,0,0.1,0L11,6.3
				C11,6.3,10.9,6.4,10.9,6.5z M11.2,6.2C11.2,6.2,11.2,6.2,11.2,6.2l0.3,2.2c0.1,0,0.1,0,0.2,0l-0.3-2.2L11.2,6.2z M11.7,6.1
				l-0.1,0l0.3,2.1c0.1,0,0.1-0.1,0.1-0.1c0,0,0,0,0,0L11.7,6.1L11.7,6.1z M20.4,3.8c0.1,0.1,0.2,0.2,0.3,0.3
				C21.5,4.9,23.2,6,23.2,6s0.5-0.1,1-0.2c0.5-0.1,0.9-0.1,0.9-0.5c0-0.5,0-2.8,0-2.9c0-1.4-1.2-2.5-2.5-2.5h0c-1.3,0-2.5,1-2.5,2.4
				c0,0.5,0.1,0.9,0.3,1.3C20.4,3.8,20.4,3.8,20.4,3.8z M31.5,8.1c-1.5,0.3-6.6,1.4-6.6,1.4L25,9.8l4.2-0.6l1.2,5.7v5.7l-2.3,15.7
				c0,0-1.6,0-1.6-1.6v-9.1l0.8-4.5v-1.5L25.3,28l-5.6,8.2c-0.9-0.4-1.2-1.3-0.8-2.2c0.7-1.4,3.8-7.4,3.8-7.4v-6.3
				c0-2.9,1.2-4.2,1.2-4.2s-1.6-3.5-2.6-5.8c-0.6-1.2,0-3.2,2-3.6L31,5.4l-0.3-2.7l-1,0.2l-0.9,2.2l-2.4,0.4l1.5-2.3l-0.3,0.1
				c0,0-0.1,0-0.1,0c-0.2,0-0.3-0.1-0.4-0.2l-1.4,0.2l0-0.5l1.3-0.2c0.1-0.2,0.2-0.3,0.4-0.3l3.2-0.6l-0.1-0.5c1.3,0,1.6,1,1.8,1.8
				c0.2,0.8,0.4,1.7,0.6,2.3C33.3,6.9,33.1,7.8,31.5,8.1z"/>
		</g>
	</g>
</g>
</svg>
