<?xml version="1.0" encoding="utf-8"?>
<!-- Generator: Adobe Illustrator 22.1.0, SVG Export Plug-In . SVG Version: 6.00 Build 0)  -->
<svg version="1.1" id="Calque_1" xmlns="http://www.w3.org/2000/svg" xmlns:xlink="http://www.w3.org/1999/xlink" x="0px" y="0px"
	 viewBox="0 0 60 60" style="enable-background:new 0 0 60 60;" xml:space="preserve">
<style type="text/css">
	.st0{fill:#0082C3;}
</style>
<title>icone blanc</title>
<desc>Created with Sketch.</desc>
<g id="icone-blanc">
	<g id="spelunking" transform="translate(-16.000000, -29.000000)">
		<g id="tir-a-l-arc" transform="translate(25.000000, 41.000000)">
			<path id="Fill-1" class="st0" d="M11.9,11.5C11.9,11.5,11.9,11.5,11.9,11.5c0.3,0,5.5-0.3,6.2-0.3c0.5,0,1.5-0.5,1.4-1.4
				c0,0-4.4,0-5.7,0C11.9,9.7,11.5,11.5,11.9,11.5 M32.6,10.5h-1.6c-0.2-2.7-1.5-5.3-3.8-7.6C25.5,1,23.7,0,23.6,0l-0.3,0.5
				c0,0,0.2,0.1,0.6,0.4l-3.4,5.6v0.8l3.8-6.2C25,1.6,26,2.3,26.9,3.3c1.5,1.5,3.3,4,3.6,7.2H19.9c-0.2,0.5-0.9,1.1-1.8,1.2
				c-0.6,0-5.4,0.3-6.1,0.3c0,0,0,0,0,0c0.4,0.3,3.2,2.2,3.2,2.2s0.8,2.9,0.8,3.8s-0.1,2.1-0.1,2.1c-1.1,1.4-2.9,7.7-2.9,7.7
				l-4.6,7.8c0.2,0.3,1.5,0.6,2.4-0.5c0.9-1.2,8.4-10.8,8.4-10.8l3.4,3.6c0,0,0.6,5.3,0.8,6.6c0.2,1.3,1.1,2,1.8,1.7
				c0,0-0.1-7.3-0.1-8.1c0-1.3-0.1-1.6-0.6-2.3c-0.3-0.5-3.2-5.7-3.2-5.7v-5.8l0.4-1.3l8.7-1.4c-0.1,3-2,5.5-3.5,7.2
				c-0.9,1-1.9,1.7-2.6,2.3l-2.4-3.5v0.8l2,3c-0.5,0.3-0.7,0.5-0.7,0.5l0.3,0.5c0.1,0,1.9-1.2,3.8-3.1c2.5-2.6,3.7-5.4,3.7-8
				c0-0.1,0-0.1,0-0.2h1.6c0.1,0,0.2-0.1,0.2-0.2C32.9,10.6,32.8,10.5,32.6,10.5 M16.1,7.5c-0.1-0.4-0.1-0.8-0.1-1.2
				c0.2-1.2,1.3-1.8,2.3-1.6c1,0.2,1.8,1.3,1.6,2.4c-0.1,0.3-0.2,1.4-0.4,2.1l0,0c0,0-1,0-2.1,0C16.9,8.7,16.2,7.9,16.1,7.5"/>
		</g>
	</g>
</g>
</svg>
