<?xml version="1.0" encoding="utf-8"?>
<!-- Generator: Adobe Illustrator 22.1.0, SVG Export Plug-In . SVG Version: 6.00 Build 0)  -->
<svg version="1.1" id="Calque_1" xmlns="http://www.w3.org/2000/svg" xmlns:xlink="http://www.w3.org/1999/xlink" x="0px" y="0px"
	 viewBox="0 0 60 60" style="enable-background:new 0 0 60 60;" xml:space="preserve">
<style type="text/css">
	.st0{fill:#0082C3;}
</style>
<title>icone blanc</title>
<desc>Created with Sketch.</desc>
<g id="icone-blanc">
	<g id="spelunking" transform="translate(-16.000000, -29.000000)">
		<g id="petanque" transform="translate(25.000000, 41.000000)">
			<path id="Fill-1" class="st0" d="M26.2,8.7l-4.1-1.5c0,0-4.5-1-5.5-1.2c-1-0.2-1.9-0.5-3.8,0.3c-1.4,0.5-3.6,1.5-4.8,2
				C7.4,8.5,7.2,8.7,6.9,9.3c-0.2,0.5-2.7,5.8-2.7,5.8s1.5,0.6,2.8-1.5c1.2-2.1,2-3.3,2-3.3l2.7-1.1l2.2-0.4l-0.1,0.4l-1.6,0.5
				l-2.1,4c0,0-1.9,2.4,0.1,5.6c2,3.2,3.5,5.8,3.5,5.8s-0.5,7.4-0.6,8.9c-0.1,1.4,0.5,2.5,2.1,2.4l0.4-2c0.1,1.1,0.8,2,2,2
				c0,0,1.6-10.8,1.7-11.5c0.2-1,0.2-1.1-0.2-2c-0.3-0.7-2.8-6.8-2.8-6.8l1.1-2.6l4-3.3l5.1,0.7c0,0,5.1-1,6.1-1.2
				c1.1-0.2,2-0.6,2.1-1.8L26.2,8.7z M37.6,10.2c0-0.6-0.5-1.2-1.2-1.2s-1.2,0.5-1.2,1.2c0,0.6,0.5,1.2,1.2,1.2S37.6,10.8,37.6,10.2
				z M17.8,3.6c-0.2-0.5-0.2-1-0.1-1.5c0.2-1.5,1.7-2.3,3-2.1C22,0.3,23,1.6,22.8,3c-0.1,0.5-0.4,2.1-0.5,2.9
				c-0.1,0.4-0.3,0.5-0.7,0.4c-0.6-0.1-1.6-0.4-1.6-0.4S18,4.3,17.8,3.6z"/>
		</g>
	</g>
</g>
</svg>
