<?xml version="1.0" encoding="utf-8"?>
<!-- Generator: Adobe Illustrator 22.1.0, SVG Export Plug-In . SVG Version: 6.00 Build 0)  -->
<svg version="1.1" id="Calque_1" xmlns="http://www.w3.org/2000/svg" xmlns:xlink="http://www.w3.org/1999/xlink" x="0px" y="0px"
	 viewBox="0 0 60 60" style="enable-background:new 0 0 60 60;" xml:space="preserve">
<style type="text/css">
	.st0{fill:#0082C3;}
</style>
<title>icone blanc</title>
<desc>Created with Sketch.</desc>
<g id="icone-blanc">
	<g id="spelunking" transform="translate(-16.000000, -29.000000)">
		<g id="flechettes" transform="translate(25.000000, 41.000000)">
			<path id="Fill-1" class="st0" d="M29.5,4.1l0.4,0L30,4.3l1.2-0.4l-1.5-0.4l0.1,0.2l-2.5,0l-0.4-0.4l-0.8,0.1l0.3,0.5h0l-0.3,0.5
				l0.8,0.1l0.4-0.4l0.7,0l0.9,3.5c0,0-6.6-2.1-7.6-2.5c-1.1-0.3-2.7-0.7-3.7,1.3c-0.9,2-1.5,3.3-1.8,3.9c-0.3,0.6-0.2,1.3,0.5,1.8
				c0.7,0.5,2.4,1.8,2.4,1.8l-0.1,0.6l-2.1-1.3l-0.1,3.7c-1,1.5-2.5,10.1-2.5,10.1s-2.3,6.4-2.4,6.8c-0.3,1.1-0.2,2.6,1.2,2.7
				l3.8-8.4l2.9-6.3l1.4,4.6c0,0,0.3,7.2,0.3,8c0,0.8,0.3,2.3,1.9,2.1l0.7-10.6l-0.6-8l2-8.2c0,0,4.4,0.4,5,0.4
				c0.6,0,1.7-0.5,1.2-1.8C30.6,6.9,29.5,4.1,29.5,4.1 M27.6,2.7l0.2,0.8l1.5,0C29.1,3.1,28.7,2.6,27.6,2.7 M21.2,2.9
				c-0.1-0.4-0.1-0.8,0-1.3c0.3-1.2,1.6-1.8,2.7-1.6c1.1,0.3,1.9,1.5,1.6,2.7c-0.1,0.4-0.4,1.7-0.6,2.4c-0.1,0.3-0.6,0.4-1,0.2
				C23.4,5.2,22.8,5,22.8,5S21.4,3.5,21.2,2.9"/>
		</g>
	</g>
</g>
</svg>
