<?xml version="1.0" encoding="utf-8"?>
<!-- Generator: Adobe Illustrator 22.1.0, SVG Export Plug-In . SVG Version: 6.00 Build 0)  -->
<svg version="1.1" id="Calque_1" xmlns="http://www.w3.org/2000/svg" xmlns:xlink="http://www.w3.org/1999/xlink" x="0px" y="0px"
	 viewBox="0 0 60 60" style="enable-background:new 0 0 60 60;" xml:space="preserve">
<style type="text/css">
	.st0{fill:#0082C3;}
</style>
<title>icone blanc</title>
<desc>Created with Sketch.</desc>
<g id="icone-blanc">
	<g id="spelunking" transform="translate(-16.000000, -29.000000)">
		<g id="plongee" transform="translate(25.000000, 41.000000)">
			<path id="Fill-1" class="st0" d="M34.3,14l2.1-2.9l0.7-4.7c0,0-1.1-0.6-2.4-1.3c-0.9-0.5-1.7-0.5-2.4-0.2C31.9,5.2,31.1,6,30.6,7
				l-0.1-0.1c0.3-1,1.1-2.2,1.6-2.6c-0.1-0.3-0.2-0.6-0.4-0.9l0.7-1.2l-1.3-0.7l-0.7,1.3c-0.8-0.1-1.6,0.3-2,1.1l-5.6,11.2
				c-0.1,0.3,0,0.6,0.2,0.7l2.8,1.4l-2.2,5.4c-1.3,0-8.2,0-9.4,0c-0.3-1.5-0.9-1.3-0.9-1.3s-1.1,0.6-4.1,2.9c-3,2.3-6.4,2.3-6.4,2.3
				L2.8,27c2.2,0.8,7.4-2.2,7.4-2.2l11.2,0.6l-1.6,2.1c0,0-1.5,0.5-0.9,1.2c0.6,0.8,1.9,2.3,2.5,3c0.6,0.7,1.8,2.2,2.4,4.5l0.6-0.1
				c0,0-0.2-1.6-2.5-5.1l-0.5-2.5l2.5-2.6l-1.3-0.2l-0.1-0.2l0,0c0,0,1.1,0,1.6,0c0.6,0,1.2-0.4,1.6-0.9c0.4-0.4,5.4-6.1,5.4-6.1
				l1.7-2.3l-2.2-1.1l0.2-0.4c0,0,3.5,1.7,4.3,2.1c0.8,0.4,2.5,1,3.2-0.3C37.2,15.9,35.6,14.9,34.3,14 M37.8,2.5
				c0,0.4,0.4,0.7,0.8,0.6c0.1,0,0,0,0.7-0.2c0,0-0.1-0.5-0.2-1c0,0,0,0,0-0.1c0,0,0,0,0,0C38.6,1.8,37.8,2,37.8,2.5 M38.9,5.5
				c-0.6,0.1-1.4,0.2-1.4,0.2s-2.3-0.9-2.7-1.5c-0.3-0.4-0.5-0.8-0.6-1.3C34,1.5,35,0.2,36.3,0c1-0.2,2.1,0.4,2.6,1.4
				c-0.8,0.1-1.6,0.4-1.7,0.9c-0.1,0.8,0.7,1.4,1.5,1.3c0.2,0,0.5-0.1,0.7-0.2C39.5,4,39.6,4.6,39.7,5C39.7,5.3,39.3,5.4,38.9,5.5"
				/>
		</g>
	</g>
</g>
</svg>
