<?xml version="1.0" encoding="utf-8"?>
<!-- Generator: Adobe Illustrator 22.1.0, SVG Export Plug-In . SVG Version: 6.00 Build 0)  -->
<svg version="1.1" id="Calque_1" xmlns="http://www.w3.org/2000/svg" xmlns:xlink="http://www.w3.org/1999/xlink" x="0px" y="0px"
	 viewBox="0 0 60 60" style="enable-background:new 0 0 60 60;" xml:space="preserve">
<style type="text/css">
	.st0{fill:#0082C3;}
</style>
<title>icone blanc</title>
<desc>Created with Sketch.</desc>
<g id="icone-blanc">
	<g id="spelunking" transform="translate(-16.000000, -29.000000)">
		<g id="aquagym" transform="translate(25.000000, 41.000000)">
			<path id="Fill-1" class="st0" d="M24,17.3c0,0.8-0.2,2.9-0.2,4.3c0,0.8-0.7,1.2-1.5,1.2h-2.1c0,0-3.3-2.5-4-3.6
				c-0.4-0.7-0.5-1.5-0.5-2.3c0,0,0,0,0-0.1c-0.1,0-0.2-0.1-0.3-0.1c-1.1-0.5-1.6-1.8-1-3c0.5-1.2,1.8-1.8,2.9-1.4
				c0.5,0.2,0.8,0.5,1,1c0.6-0.2,1.2-0.3,1.8-0.3C22.2,13,24.1,14.9,24,17.3z M17.4,23.6l-5.4-6c0,0-1.7-6.9-2.6-9.9
				c1.4-1.4,2.9-2.5,4.7-3.4c4.8-2.3,8.6-2.4,13.5,0c2,0.9,3.7,2.2,5.1,3.9c-1,3.1-3,9.3-3,9.3l-5.5,6.2H17.4z M26.7,34.3
				c0.2-0.9,0.8-2.4,0.9-3.8c0.2-1.6,0.1-3,0.1-3s4.6-7,5-7.8c0.5-0.8,0.8-1.5,1-2.4c0.1-0.4,0.7-3.3,1.2-6.1
				c0.4,0.8,0.9,1.6,1.2,2.4l2.5-1c-0.8-1.9-1.8-3.6-3-5.2C36,6,36.2,4.9,36.2,4.9s-1.1-0.1-2.1,0.8c-1.5-1.5-3.3-2.8-5.2-3.7
				c-5.4-2.6-10.5-2.7-16,0c-1.9,0.9-3.5,2.1-5,3.5C6.9,4.9,6,5,6,5s0.1,0.8,0.3,2C5,8.7,3.8,10.5,2.9,12.7l2.5,1c0.5-1,1-2,1.5-2.9
				C7.5,14,8,17.5,8.1,17.8c0.1,0.7,0.4,1.3,0.8,1.9c1.3,2,6,8.4,6,8.4s0.7,1.5,0.6,4.1c-3.6-0.6-7.9-1-14.1-1v0.9
				c10,0,15,1.1,19.9,2.1c4.9,1,10.1,2.1,20.1,2.1v-0.9C34.8,35.4,30.4,35,26.7,34.3z"/>
		</g>
	</g>
</g>
</svg>
