<?xml version="1.0" encoding="utf-8"?>
<!-- Generator: Adobe Illustrator 22.1.0, SVG Export Plug-In . SVG Version: 6.00 Build 0)  -->
<svg version="1.1" id="Calque_1" xmlns="http://www.w3.org/2000/svg" xmlns:xlink="http://www.w3.org/1999/xlink" x="0px" y="0px"
	 viewBox="0 0 60 60" style="enable-background:new 0 0 60 60;" xml:space="preserve">
<style type="text/css">
	.st0{fill:#0082C3;}
</style>
<title>icone blanc</title>
<desc>Created with Sketch.</desc>
<g id="icone-blanc">
	<g id="spelunking" transform="translate(-16.000000, -29.000000)">
		<g id="luge" transform="translate(25.000000, 41.000000)">
			<path id="Fill-1" class="st0" d="M31.7,31.7L30,27.2l-2,0.6l1.2,3.8L31.7,31.7z M24.6,31.9l-0.9-2.6L17,31.5c0,0,1.2,0.6,2.2,1
				c0.8,0.3,1.5,0.5,3.1,0.3C23.1,32.7,24,32.2,24.6,31.9z M38.4,31.6c-0.2,2.6-2.5,4.7-4.5,4.7c-2,0-6.9,0.1-10.3,0.1
				c-1.8,0-3.5,0.1-6-1c-3.7-1.6-13-6.2-13.7-6.6c-0.8-0.4-1.1-0.9-1.1-1.9c0-0.6,0.1-1.7,0.1-1.7l7.4,3.4l0.1,0l4.5,3.3
				c0,0,0.6-0.8,0.8-1.5c0.1-0.6,0.2-1.6-0.5-2.7c-1.2-1.8-3.2-4.7-3.5-5.3l1.1-3.1l-0.3-1.2l-1.7,4.5c0,0,2.3,3.4,3.7,5.4
				c1,1.3,0.5,2.4,0.3,2.8l-4.6-3.4c0,0-1.1-0.9-1.7-1.3c-2.2-1.7-1.7-4-1-6.6c0.8-2.7,1.2-4.2,1.9-6.1c1-2.7,3-3,5.5-2.3
				c1.3,0.4,6.2,1.8,6.2,1.8c1.4,0.5,2.2,1.1,2.7,2.8c0.5,1.7,1.1,4.8,1.1,4.8c-0.7-0.3-1.6-0.2-2.1,0l-0.6-2.2l-0.4-0.1l0.6,3.2
				l0,0l0,0l0,0l0.3-0.1c0,0,2.7-1,3.7,1.3l3.8-0.8c0,0,2.7-0.5,3.6,2.4l2.2,7.5C36.1,31.6,37.6,31.6,38.4,31.6z M14.1,6.8
				c-1-3.5,0.7-5.9,2.9-6.6c2.2-0.6,4.3,0.3,5.4,1.1c1.6,1.3,1.7,4,1.7,4l-0.8,0c-0.1,0.4-0.2,0.9-0.4,1.3c-0.3,0.7-1.6,3.2-2.2,4.5
				c-0.3,0.5-0.9,0.3-1.7,0.1C18.2,11,17,10.6,17,10.6s-0.7-1.3-1.4-2.7C15.2,7.6,14.6,7.3,14.1,6.8z"/>
		</g>
	</g>
</g>
</svg>
