<?xml version="1.0" encoding="utf-8"?>
<!-- Generator: Adobe Illustrator 22.1.0, SVG Export Plug-In . SVG Version: 6.00 Build 0)  -->
<svg version="1.1" id="Calque_1" xmlns="http://www.w3.org/2000/svg" xmlns:xlink="http://www.w3.org/1999/xlink" x="0px" y="0px"
	 viewBox="0 0 60 60" style="enable-background:new 0 0 60 60;" xml:space="preserve">
<style type="text/css">
	.st0{fill:#0082C3;}
</style>
<title>icone blanc</title>
<desc>Created with Sketch.</desc>
<g id="icone-blanc">
	<g id="spelunking" transform="translate(-16.000000, -29.000000)">
		<g id="trail_running" transform="translate(25.000000, 41.000000)">
			<path id="Fill-1" class="st0" d="M27.2,14.2l-0.5,1.5c0,0,1.8,0.4,2.6,0.6c0.9,0.1,2,0.1,2.1-0.9L27.2,14.2z M10.9,27.9
				c0.8-0.4,7.3-3.8,7.3-3.8l1.5-3.6c-0.7-2,0.6-3.6,0.6-3.6l1-1.5l0-5.5l-2.7,1.3l1.2,5.5c0,0-1,0.6-1.6-0.9
				c-0.3-0.7-1.1-3-1.6-4.3c-0.5-1.2-0.3-1.6,0.7-2.2s4.4-2.7,4.4-2.7c1-0.6,1.9-0.5,2.6-0.2c0.1,0,1.4,0.5,2,0.8
				c0.2,0.1,0.4,0.2,0.4,0.4c0.2,1.3,0.6,3.7,0.3,4.9l-1.7,6.3l4.7,6.6l2.3,10.9c-1.1,0.4-1.8-0.2-2.3-1.4c-0.9-2.6-2.7-8-2.7-8
				l-5.7-5.4l-0.1,0.5l1.3,1.6c0,0-1.5,2.4-1.7,2.7c-0.3,0.5-0.9,0.7-1.6,0.9c-0.7,0.2-9.8,3.1-9.8,3.1C9.6,29,10.1,28.3,10.9,27.9z
				 M27.5,0.4C27,0.1,26.3-0.1,25.6,0C25,0.1,24.4,0.5,24,1.1c-0.3,0.4-0.4,0.9-0.5,1.4c0,0.7,1.2,3.4,1.2,3.4s0.4,0.2,0.9,0.4
				c0.3,0.1,0.6,0.3,0.8,0.2c0.1,0,0.2-0.1,0.2-0.1c0.5-0.7,1.3-2.1,1.6-2.5C29,2.7,28.6,1.1,27.5,0.4z"/>
			<polygon id="Path-23" class="st0" points="4.6,36.8 10.1,30.7 20.3,37.4 24.2,31.2 33.5,35.5 38.5,20.2 41.9,31.8 42.3,31.6 
				38.5,19.1 33.2,34.9 24.1,30.7 20.3,36.8 10.1,30.2 4.4,36.6 			"/>
		</g>
	</g>
</g>
</svg>
