<?xml version="1.0" encoding="utf-8"?>
<!-- Generator: Adobe Illustrator 22.1.0, SVG Export Plug-In . SVG Version: 6.00 Build 0)  -->
<svg version="1.1" id="Calque_1" xmlns="http://www.w3.org/2000/svg" xmlns:xlink="http://www.w3.org/1999/xlink" x="0px" y="0px"
	 viewBox="0 0 60 60" style="enable-background:new 0 0 60 60;" xml:space="preserve">
<style type="text/css">
	.st0{fill:#0082C3;}
</style>
<title>icone blanc</title>
<desc>Created with Sketch.</desc>
<g id="icone-blanc">
	<g id="spelunking" transform="translate(-16.000000, -29.000000)">
		<g id="BMX" transform="translate(25.000000, 41.000000)">
			<path id="Page-1" class="st0" d="M16,1.6l-0.3-0.7c0.2-0.2,2-1.2,3.7-0.8c2.3,0.5,2.2,2.6,2.2,2.8l-0.4,0.6c0,0-0.2,0-0.4,0.1
				c0,0,0,0.1,0,0.1c-0.2,0.4-0.7,1.5-1,2.1C19.6,6,19.3,6,19,5.9c-0.5-0.2-1.2-0.5-1.2-0.5S16.7,3.7,16.6,3c0-0.2,0-0.4,0-0.6
				c-0.3-0.2-0.5-0.3-0.5-0.3L16,1.6z M28.5,26c-2.2,0-4-1.8-4-4c0-0.9,0.3-1.7,0.8-2.4l2.4,2.1c0,0.1,0,0.2,0,0.3
				c0,0.5,0.4,0.9,0.9,0.9c0.5,0,0.9-0.4,0.9-0.9c0-0.5-0.4-0.9-0.9-0.9c-0.1,0-0.3,0-0.4,0.1l-2.4-2.1c0.7-0.7,1.7-1.1,2.8-1.1
				c2.2,0,4,1.8,4,4C32.5,24.2,30.7,26,28.5,26z M19.9,22.6c-0.1-1.1-0.2-2.3-0.2-3.3l2.4-2.5l0.5,0.4L19.9,22.6z M19.5,16.9
				c-0.1-1-0.2-1.2-0.9-1.7c-0.7-0.5-5.5-4-5.5-4l0.2-0.7c1.1,0.7,2.3,1.5,2.8,1.9c0.2,0.1,0.4,0.2,0.6,0.3c-0.1,0.1-0.1,0.3,0,0.4
				c0.1,0.2,0.3,0.2,0.5,0.1l1.6-0.8l3.5,3.4l-0.4,0.4c0,0,0,0-0.1,0.1l-0.2,0.2l-0.1,0.1l0,0l-1.9,2C19.5,17.6,19.5,17.1,19.5,16.9
				z M17.9,26.7L15.1,24l2.3-2.4c0.3,1.6,0.7,3.3,0.7,3.6c0,0.2,0.1,0.4,0.2,0.6L17.9,26.7z M14.4,16.7l2.3,1.3c0,0,0.3,1.3,0.6,2.9
				l-2.6,2.7l-0.2-0.2l0.7-4.2L14.4,16.7z M16.5,27.9c-0.6-0.7-1.3-1.3-2.2-1.6l0.5-1.6l2.7,2.5L16.5,27.9z M13.8,27.4
				c0.6,0.2,1.2,0.6,1.6,1.1l-2.5,1.7L13.8,27.4z M12.3,35.2c-2.2,0-4-1.8-4-4c0-2.2,1.8-4,4-4c0.3,0,0.6,0,0.9,0.1l-1,3.1
				c-0.4,0.1-0.7,0.4-0.7,0.9c0,0.5,0.4,0.9,0.9,0.9c0.5,0,0.9-0.4,0.9-0.9c0-0.1,0-0.2-0.1-0.3l2.6-1.7c0.4,0.6,0.6,1.3,0.6,2
				C16.4,33.4,14.6,35.2,12.3,35.2z M28.5,16.7c-1.5,0-2.8,0.6-3.8,1.6l-2.2-1.9l0.7-0.7l-4.3-4.2L18,11.9l-3.6-3.6l2.8-2.6
				c0,0-0.4-0.8-1.2-2c-0.7-1.1-3-0.4-5.1,1.7c-1.7,1.7-2.2,2.1-3,2.9s-1.8,2.5,0.7,5l3.6,5.7l-0.3,6.8c-2.7,0.2-4.8,2.5-4.8,5.2
				c0,2.9,2.4,5.3,5.3,5.3c2.9,0,5.3-2.4,5.3-5.3c0-1-0.3-1.9-0.8-2.7l1.4-0.9l0.4-0.9c0.3,0.4,0.8,0.6,1.5,0.5c0,0-0.1-1.3-0.2-3
				l3-6.3l1.3,1.1c-0.7,0.9-1.1,2-1.1,3.2c0,2.9,2.4,5.3,5.3,5.3c2.9,0,5.3-2.4,5.3-5.3C33.8,19.1,31.4,16.7,28.5,16.7z"/>
		</g>
	</g>
</g>
</svg>
