<?xml version="1.0" encoding="utf-8"?>
<!-- Generator: Adobe Illustrator 22.1.0, SVG Export Plug-In . SVG Version: 6.00 Build 0)  -->
<svg version="1.1" id="Calque_1" xmlns="http://www.w3.org/2000/svg" xmlns:xlink="http://www.w3.org/1999/xlink" x="0px" y="0px"
	 viewBox="0 0 60 60" style="enable-background:new 0 0 60 60;" xml:space="preserve">
<style type="text/css">
	.st0{fill:#0082C3;}
</style>
<title>icone blanc</title>
<desc>Created with Sketch.</desc>
<g id="icone-blanc">
	<g id="spelunking" transform="translate(-16.000000, -29.000000)">
		<g id="velo-de-route" transform="translate(25.000000, 41.000000)">
			<path id="Page-1" class="st0" d="M40.6,28c0-3.7-3-6.7-6.7-6.7c-0.6,0-1.2,0.1-1.7,0.2l2.1,6.2c0.1,0.2,0,0.4-0.2,0.5
				c0,0-0.1,0-0.1,0c-0.2,0-0.3-0.1-0.4-0.3l-2.1-6.2c-2.5,1-4.2,3.4-4.2,6.2c0,3.7,3,6.7,6.7,6.7C37.6,34.7,40.6,31.7,40.6,28z
				 M30.6,19.2l-0.3-0.8H24c0,0,0,0,0,0.1c-0.4,0.6-4.1,6.4-5.5,8.6l0.5,1.5L30.6,19.2z M16.2,28c0,0.1,0,0.3,0,0.4l2,0.2L18,27.9
				c0,0,0,0,0,0c-0.7-0.1-1.3-0.8-0.8-2.5L15,19.1L13.2,22C15,23.3,16.2,25.5,16.2,28z M15.5,28c0-2.2-1.1-4.2-2.7-5.4l-3.3,5.1
				l6,0.7C15.5,28.2,15.5,28.1,15.5,28z M15.4,29.1l-6.6-0.7c-0.1,0-0.2-0.1-0.3-0.2c-0.1-0.1,0-0.3,0-0.4l3.6-5.6
				c-1-0.6-2.1-0.9-3.3-0.9c-3.7,0-6.7,3-6.7,6.7c0,3.7,3,6.7,6.7,6.7C12.1,34.7,14.8,32.3,15.4,29.1z M17.6,24.3
				c0.7-1.8,1.9-4.5,2.5-5.9h-4.5L17.6,24.3z M14.7,15.6l0.7,2.1h5.1l-5-2.1H14.7z M18,11.4c0,0,5.1,3.6,5.8,4.1
				c0.5,0.4,0.8,1.2,0.6,2.1h5.8l-0.3-1h-0.8c-0.3,0-0.6-0.1-0.8-0.4l-5.4-5.8l-0.2,0l0.5,1.3L18,11.4z M41.3,28
				c0,4.1-3.3,7.4-7.4,7.4c-4.1,0-7.4-3.3-7.4-7.4c0-3.1,2-5.8,4.8-6.9L30.9,20L19,29.4c-0.1,0.1-0.2,0.1-0.2,0.1c0,0-0.1,0-0.1,0
				c0,0,0,0,0,0l-2.5-0.3c-0.6,3.5-3.6,6.2-7.3,6.2c-4.1,0-7.4-3.3-7.4-7.4c0-4.1,3.3-7.4,7.4-7.4c1.3,0,2.6,0.4,3.7,1l2.2-3.4
				l-0.9-2.6h-2.3c-0.2,0-0.4-0.2-0.4-0.4c0-0.2,0.2-0.4,0.4-0.4h1.9c0,0-1.2-0.4-1.8-0.7c-0.7-0.3-1-0.6-1.1-1.4
				c-0.1-0.6-0.3-2.1-0.3-2.1c0.2-0.6,2.4-5,10.2-5.1c4.2-0.1,4.4-0.1,5.3,1.5c0.3,0.5,4.3,7.6,4.3,7.6l4.7,0.6
				c0.4,0.1,0.8,0.4,0.8,0.9v0.6h0c0,0.5-0.1,1.2-0.5,1.6c-0.3,0.3-0.6,0.5-1.1,0.5c-0.2,0-0.4-0.2-0.4-0.4c0-0.2,0.2-0.4,0.4-0.4
				c0.2,0,0.4-0.1,0.5-0.2c0.2-0.3,0.3-0.7,0.3-1.1h-4.1l1.4,4.3c0.6-0.2,1.3-0.3,1.9-0.3C38,20.6,41.3,23.9,41.3,28z M24.8,3.5
				l-0.5-0.8c0.3-0.3,2.3-1.5,4.4-1.2c2.9,0.5,2.8,3.1,2.8,3.2l-0.4,0.8c0,0-0.2,0.1-0.6,0.1c-0.3,0.5-0.8,1.8-1.2,2.5
				c-0.2,0.3-0.6,0.3-1,0.2c-0.5-0.1-1-0.3-1-0.3s-1.6-2.7-1.7-3.3c0-0.1,0-0.1,0-0.2c-0.4-0.2-0.7-0.3-0.7-0.3L24.8,3.5z"/>
		</g>
	</g>
</g>
</svg>
