<?xml version="1.0" encoding="utf-8"?>
<!-- Generator: Adobe Illustrator 22.1.0, SVG Export Plug-In . SVG Version: 6.00 Build 0)  -->
<svg version="1.1" id="Calque_1" xmlns="http://www.w3.org/2000/svg" xmlns:xlink="http://www.w3.org/1999/xlink" x="0px" y="0px"
	 viewBox="0 0 60 60" style="enable-background:new 0 0 60 60;" xml:space="preserve">
<style type="text/css">
	.st0{fill:#0082C3;}
</style>
<title>icone blanc</title>
<desc>Created with Sketch.</desc>
<g id="icone-blanc">
	<g id="spelunking" transform="translate(-16.000000, -29.000000)">
		<g id="velo-de-ville" transform="translate(25.000000, 41.000000)">
			<path id="Fill-1" class="st0" d="M13.9,2.7C13.6,0.7,15,0,16.3,0c2.3,0,3,1.6,3.2,2.2c0.1,0.2,0.1,0.6,0.1,0.8
				c0,0.1-0.1,0.1-0.3,0.1c-0.1,0-0.3,0-0.5,0c0,0.3-0.1,0.6-0.3,0.9c-0.2,0.4-0.8,1.6-1.2,2.2c-0.1,0.3-0.5,0.2-0.8,0.1
				c-0.4-0.2-1.1-0.4-1.1-0.4s-1.1-2.2-1.1-2.8L13.9,2.7z M33,35.5c-3.6,0-6.5-2.9-6.5-6.5c0-2.5,1.5-4.7,3.6-5.8l2.5,6
				c0.1,0.2,0.2,0.3,0.4,0.3c0.1,0,0.1,0,0.2,0c0.2-0.1,0.3-0.3,0.2-0.6l-2.5-6c0.6-0.2,1.3-0.3,2.1-0.3c3.6,0,6.5,2.9,6.5,6.5
				C39.5,32.6,36.6,35.5,33,35.5z M19.2,18.2l-1.8-2l0.4-4l0.7-2.1c2,0.6,4.6,1.3,6.3,1.6c0.9,0.2,1.5,0,1.9-0.3h2.4l0.6,3l-2.1,1.6
				c-0.2,0.1-0.2,0.3-0.1,0.5l0.7,1.6H19.2z M21.6,27.2c0,0,0.9-3.1,1.1-3.6c0.3-1,0.1-1.5-0.3-2c-0.3-0.3-1.3-1.4-2.4-2.5h8.3
				L21.6,27.2z M16,28.7c-0.1-2.2-1.1-4.1-2.7-5.3l2-2.9l4.1,3.4l-0.9,4.8H16z M15.2,28.7H9.6l3.2-4.6
				C14.2,25.2,15.1,26.9,15.2,28.7z M8.7,35.5c-3.6,0-6.5-2.9-6.5-6.5s2.9-6.5,6.5-6.5c1.2,0,2.4,0.4,3.4,1l-3.7,5.3
				c-0.1,0.1-0.1,0.3,0,0.5c0.1,0.1,0.2,0.2,0.4,0.2h6.4C14.9,32.9,12.1,35.5,8.7,35.5z M33,21.8c-0.8,0-1.6,0.1-2.4,0.4l-2.3-5.6
				l1.6-1.2l0.5,2.9h5.1l1.3-7.7l-10.3,0c0,0-10.7-3.9-10.9-3.9c-0.6-0.2-1.2,0-1.9,0.7c-0.6,0.6-1.1,1.3-1.1,2.1
				c-0.2,3-0.3,4.6-0.4,6.3c-0.1,1.8,0,2.2,2,3.9c0.1,0.1,0.4,0.3,0.4,0.3l-2,2.9c-1.1-0.7-2.5-1.1-3.9-1.1c-4,0-7.3,3.3-7.3,7.3
				s3.3,7.3,7.3,7.3c3.9,0,7-3,7.3-6.8h2.3c-0.2,1.2-0.4,2.2-0.5,2.7c-0.2,1,0.2,2.3,1.5,2.6l1.6-5.6l7.8-9.3l1,2.5
				c-2.4,1.2-4.1,3.7-4.1,6.6c0,4,3.3,7.3,7.3,7.3c4,0,7.3-3.3,7.3-7.3C40.3,25,37,21.8,33,21.8z"/>
		</g>
	</g>
</g>
</svg>
