<?xml version="1.0" encoding="utf-8"?>
<!-- Generator: Adobe Illustrator 22.1.0, SVG Export Plug-In . SVG Version: 6.00 Build 0)  -->
<svg version="1.1" id="Calque_1" xmlns="http://www.w3.org/2000/svg" xmlns:xlink="http://www.w3.org/1999/xlink" x="0px" y="0px"
	 viewBox="0 0 60 60" style="enable-background:new 0 0 60 60;" xml:space="preserve">
<style type="text/css">
	.st0{fill:#0082C3;}
</style>
<title>icone blanc</title>
<desc>Created with Sketch.</desc>
<g id="icone-blanc">
	<g id="spelunking" transform="translate(-16.000000, -29.000000)">
		<g id="velo-tout-chemin" transform="translate(25.000000, 41.000000)">
			<path id="Fill-1" class="st0" d="M21.5,12.4c0,0,2.5,1.8,3.9,2.7c1.1,0.7,2.4-0.2,2.4-0.2l-4.6-3.8L21.5,12.4z M39.2,29.3
				c0-1.5-0.7-2.9-1.8-4c-1.1-1-2.4-1.5-3.9-1.5c-0.1,0-0.1,0-0.2,0c-0.7,0-1.4,0.2-2,0.4c0.8,1.9,1.6,3.3,2.1,4.2c0,0,0,0,0,0
				c0.6,0,1.1,0.5,1.1,1.1c0,0.6-0.5,1.1-1.1,1.1c-0.6,0-1.1-0.5-1.1-1.1c0-0.3,0.1-0.5,0.2-0.7c-0.5-0.9-1.3-2.4-2.1-4.2
				c-1.7,1-2.7,2.9-2.7,5c0,1.5,0.7,2.9,1.8,4c1.1,1,2.6,1.6,4.1,1.5c1.5,0,2.9-0.7,4-1.8C38.7,32.2,39.3,30.8,39.2,29.3z
				 M28.8,20.1l-0.2-0.6L24.6,20c-0.1,1-0.2,2.9-0.3,4.5L28.8,20.1z M22.8,25.9c0,0-0.5-4.6-0.6-5.7l-3.8,0.5
				c0.1,0.4,0.1,0.7,0.2,0.8c0.1,0.8,0.1,1.2-0.3,2.4l1.7,4.7L22.8,25.9z M19.2,29l-1.3-3.7L16.7,29H19.2z M16.9,16.9l0,0.3l0.9,0.6
				l0.5,2l3.5-0.4L16.9,16.9z M16.1,22.6l-0.2-0.4l-1.6,2c0.4,0.4,0.8,0.8,1.1,1.3L16.1,22.6z M15.3,30.7c-0.2-0.2-0.4-0.4-0.5-0.8
				h-4.1c-0.2,0.3-0.6,0.6-1,0.6c-0.6,0-1.1-0.5-1.1-1.1s0.5-1.1,1.1-1.1c0.1,0,0.2,0,0.2,0l2.8-3.7c-0.9-0.6-1.9-0.9-3.1-0.9
				c-3.1,0-5.7,2.6-5.7,5.7s2.6,5.7,5.7,5.7C12.4,35.1,14.7,33.2,15.3,30.7z M13.6,25.2l-2.8,3.7c0,0,0,0.1,0,0.1h4.1
				c0.1-0.4,0.1-1,0.3-1.6C14.8,26.6,14.2,25.8,13.6,25.2z M38.6,34.2c-1.3,1.4-3,2.1-4.8,2.2c-0.1,0-0.1,0-0.2,0
				c-1.8,0-3.5-0.7-4.8-1.9c-1.4-1.3-2.1-3-2.2-4.9c-0.1-2.6,1.3-5,3.4-6.2c-0.2-0.4-0.9-2.4-0.9-2.4l-4.9,4.8
				c0,0.8-0.1,1.3-0.1,1.3s-0.5-0.1-0.9-0.4c0,0-3,3-3.1,3.1C20.1,29.9,20,30,19.9,30h-3.2c-0.3,3.6-3.3,6.4-6.9,6.4
				c-3.8,0-7-3.1-7-7s3.1-7,7-7c1.4,0,2.7,0.4,3.8,1.2l1.9-2.4l-1.9-4c-0.4-0.4-1.5-1.9-0.8-3.6c0.8-2.1,6.1-7.3,6.8-8
				c0.7-0.7,1.8-0.8,2.8,0c1.1,1,9.8,8.5,9.8,8.5s-1.5,0.9-2.4,0.1c-1.2-0.9-4.5-3.4-5.5-4.2L19,13.7c1.1,0.8,4.7,3.3,5.1,3.7
				c0.5,0.4,0.6,0.7,0.6,1.6l3.5-0.4c-0.3-0.9-0.7-1.8-0.7-1.8l-0.4,0.1c0,0-0.1,0-0.1,0c-0.2,0-0.4-0.2-0.5-0.4
				c0-0.3,0.1-0.5,0.4-0.6l5.1-0.9c0.3,0,0.5,0.1,0.6,0.4c0,0.3-0.1,0.5-0.4,0.6l-3.7,0.7c0.3,0.8,2.3,6.1,2.5,6.5
				c0.8-0.3,1.6-0.5,2.4-0.5c1.9-0.1,3.6,0.6,5,1.9c1.4,1.3,2.1,3,2.2,4.9C40.6,31.1,39.9,32.9,38.6,34.2z M23,1.1l-0.1-0.9
				c0.3-0.1,2.5-0.5,4.2,0.5c2.3,1.3,1.4,3.6,1.4,3.7l-0.6,0.5c0,0-0.3,0-0.7-0.1c-0.1,0-1.7,1.2-2.4,1.6c-0.3,0.2-0.6-0.1-0.9-0.4
				c-0.4-0.4-0.7-0.7-0.7-0.7s0-2.3,0.2-3.2c-0.3-0.3-0.4-0.4-0.4-0.4L23,1.1z"/>
		</g>
	</g>
</g>
</svg>
