<?xml version="1.0" encoding="utf-8"?>
<!-- Generator: Adobe Illustrator 22.1.0, SVG Export Plug-In . SVG Version: 6.00 Build 0)  -->
<svg version="1.1" id="Calque_1" xmlns="http://www.w3.org/2000/svg" xmlns:xlink="http://www.w3.org/1999/xlink" x="0px" y="0px"
	 viewBox="0 0 60 60" style="enable-background:new 0 0 60 60;" xml:space="preserve">
<style type="text/css">
	.st0{fill:#0082C3;}
</style>
<title>icone blanc</title>
<desc>Created with Sketch.</desc>
<g id="icone-blanc">
	<g id="spelunking" transform="translate(-16.000000, -29.000000)">
		<g id="vtt" transform="translate(25.000000, 41.000000)">
			<path id="Fill-1" class="st0" d="M35.7,34.2c-1.3,1.4-3,2.1-4.9,2.2c-0.1,0-0.2,0-0.2,0c-1.8,0-3.5-0.7-4.8-1.9
				c-1.4-1.3-2.1-3-2.2-4.8c-0.1-1.9,0.6-3.6,1.9-5c1.2-1.2,2.7-2,4.3-2.1l0-1.6c0,0-7.9,4.6-8,4.7c-0.1,0.1-0.3,0.1-0.4,0
				c-0.2-0.1-2.4-0.9-2.4-0.9c-0.3,0.7-0.7,1.3-1.3,1.8c-1.3,1.4-3,2.1-4.9,2.2c-0.1,0-0.2,0-0.2,0c-1.8,0-3.5-0.7-4.8-1.9
				c-1.4-1.3-2.1-3-2.2-4.8c-0.1-1.9,0.6-3.6,1.9-5c1.3-1.4,3-2.1,4.9-2.2c2-0.1,3.9,0.7,5.2,2.1l-1.5-5.2c0,0-0.9-2.6,0.3-3.9
				c0.1-0.1,0.4-0.3,0.8-0.5c0,0,0,0,0,0l1.7-0.9l-0.1-0.2l-1.6,0.7c-0.1-0.5-0.1-1,0-1.4c0.2-1.4,1.2-1.7,1.8-1.9
				c1.6-0.5,4.7-1.2,5.5-1c0.7,0.1,1,0.8,1.1,1.2c0.1-0.1,0.3-0.1,0.4-0.2c0.7-0.3,1,0.1,1.9,1.2c1,1.4,1.3,2.8,1.3,2.8l2.2,8.9
				c0,0-1.4,0-1.8-0.8c-0.2-0.6-2.4-6.5-2.4-6.5l-4.3,1.3c1,1.5,2.6,3.8,2.9,4.3c0.4,0.6,0.6,1,0.5,1.7c0,0.2-0.1,0.5-0.2,0.9l3.8,1
				l0-0.8c0-0.2,0.1-0.3,0.2-0.4c0.1-0.1,0.3-0.1,0.4-0.1l1.5,0.4l0-0.7c0-0.3,0.2-0.5,0.5-0.5c0.3,0,0.5,0.2,0.5,0.5l0.1,2.8
				c0,0.3-0.2,0.5-0.5,0.5c0,0,0,0,0,0c-0.3,0-0.5-0.2-0.5-0.5l0-1.1l-1.1-0.3l0.1,4.2c3.7,0.1,6.7,3,6.8,6.7
				C37.6,31.1,37,32.9,35.7,34.2z M25.7,18.5c-0.3,1.4-0.8,3.3-1,4.4l5-3l0-0.4L25.7,18.5z M20.6,16.2l3.1,0.8c0-0.2,0-0.3,0-0.3
				L20,12.7L20.6,16.2z M30.8,24.3l0.1,4.1c0.4,0.1,0.7,0.5,0.8,1c0,0.6-0.5,1.1-1.1,1.1c-0.6,0-1.1-0.5-1.2-1.1
				c0-0.4,0.2-0.8,0.5-1l-0.1-4.2c-1.2,0.2-2.3,0.7-3.1,1.6c-0.9,1-1.4,2.3-1.4,3.7c0,1.4,0.6,2.7,1.6,3.6c1,0.9,2.3,1.4,3.7,1.4
				c1.4,0,2.7-0.6,3.6-1.6c0.9-1,1.4-2.3,1.4-3.7C35.7,26.6,33.5,24.4,30.8,24.3z M19.9,18.4c-0.2,0.2-0.4,0.6-0.8,1.1
				c0.3,0.7,0.4,1.4,0.4,2.2c0,0.8-0.1,1.5-0.3,2.2l1.6,0.6L19.9,18.4C19.9,18.4,19.9,18.4,19.9,18.4z M13.8,21.9l1.5,0.5
				c0.3-0.6,1-2.1,1.5-3.2l-3,2.5C13.7,21.7,13.8,21.8,13.8,21.9z M15.6,24.6c0,0-0.5-0.5-0.6-1.2l-1.6-0.6
				c-0.2,0.2-0.5,0.3-0.8,0.3c-0.6,0-1.1-0.5-1.2-1.1s0.5-1.1,1.1-1.1c0.2,0,0.4,0,0.5,0.1l3.2-2.6c-0.9-1-2.3-1.6-3.7-1.6
				c-0.1,0-0.1,0-0.2,0c-1.4,0-2.7,0.6-3.6,1.6c-0.9,1-1.4,2.3-1.4,3.7c0,1.4,0.6,2.7,1.6,3.6c1,0.9,2.3,1.4,3.7,1.4
				c1.4,0,2.7-0.6,3.6-1.6c0.4-0.4,0.7-0.8,0.9-1.3l-1.1-0.4C15.8,24.3,15.6,24.6,15.6,24.6z M17.8,21.5c-0.4,0.5-0.7,1-1,1.5
				l0.9,0.3c0.1-0.5,0.2-1,0.2-1.5C17.8,21.7,17.8,21.6,17.8,21.5z M21.9,24.5l1.2-0.7c0.1-1.4,0.4-4.2,0.5-5.9l-2.9-0.7L21.9,24.5z
				 M28.7,5.6c0.2,0.4,0.4,0.7,0.7,0.5c0.7-0.3,2-0.7,2.4-0.9c0.1,0,0.1,0,0.2-0.1c0.3,0.1,0.6,0.2,0.6,0.2l0.7-0.3
				c0.1-0.1,1.4-2-0.4-3.7C31.5,0.1,29.4,0,29.1,0L29,0.8l-0.2,0.5c0,0,0.1,0.2,0.3,0.5c-0.4,0.8-0.9,2.9-0.9,2.9S28.4,5.2,28.7,5.6
				z M29.9,9.4l3.4,6.1c0,0-1.4,0.3-1.9-0.5L29.9,9.4z"/>
		</g>
	</g>
</g>
</svg>
