<?xml version="1.0" encoding="utf-8"?>
<!-- Generator: Adobe Illustrator 22.1.0, SVG Export Plug-In . SVG Version: 6.00 Build 0)  -->
<svg version="1.1" id="Calque_1" xmlns="http://www.w3.org/2000/svg" xmlns:xlink="http://www.w3.org/1999/xlink" x="0px" y="0px"
	 viewBox="0 0 60 60" style="enable-background:new 0 0 60 60;" xml:space="preserve">
<style type="text/css">
	.st0{fill:#0082C3;}
</style>
<title>icone blanc</title>
<desc>Created with Sketch.</desc>
<g id="icone-blanc">
	<g id="spelunking" transform="translate(-16.000000, -29.000000)">
		<g id="equitation" transform="translate(25.000000, 41.000000)">
			<path id="Fill-1" class="st0" d="M42.4,6.7c-0.3,0.1-0.7,0.4-1,0.7l0.2-0.9c-0.4,0.3-0.7,0.6-1.1,1c-1.4-0.4-2.8-1-4.3-0.9
				c-1.5,0.1-2.6,0.7-3.9,1.8c-0.7,0.6-4,3.6-4,3.6c0.6,0.6,4.7,3.7,6.5,4.4l1.9-3.4l0.9,1.3l0.2,3.4c-1.3-0.3-2.3-0.6-3.2-0.9
				c-2-0.8-6-3.9-6.6-4.5c-0.6-0.6-1-1-1-1h0c0.2-0.2,0.3-0.4,0.3-0.4l-3.5-1.3c0-0.9,0-2,0-2.5c0-1-0.5-2.1-1.1-2.3
				c-0.2-0.1-1.3-0.4-1.6-0.5c0,0-0.1,0-0.2,0c-0.6,0-1.4,0.8-1.5,1.1c-0.1,0.3-0.2,1.5,0,2.6c0.3,1.8,1,2.7,1,2.7s-0.2,0.8-0.4,1.6
				c-0.2,1-0.1,1.5-0.1,1.5l-2.7,0c-4.6-2.3-8.7,0.5-8.7,0.5l0,0c0,0-1.2-0.5-2-0.5c-3.4,0-5.4,1.8-5.4,4.8v6.6C1.1,26,0,26,0,26
				s0.3,0.7,1.1,0.7c1.4,0,2.8-2.2,2.8-4.6c0-2.7,0.4-4.3,1.2-5.4s2.2-1.7,2.2-1.7l0.8,0c-2.7,2.5-2.5,5.9-2.5,7l0.3,1.9
				c0,0-1.9,3.5-2.1,3.8c-0.4,0.7-0.5,1-0.3,1.6c0.2,0.8,0.9,4.1,1.3,5.8c0.4,1.6,1.5,1.2,1.5,1.2l-0.8-7l4.9-5.1l1.4,1.7
				c0,0,0,2.7,0,2.8c0,0.5,0.1,0.8,0.5,1.2c0.2,0.2,3.4,4.7,4.2,5.7c0.8,1,1.9,0.5,1.9,0.5l-3.8-7l1.3-4.9L15.1,23l0.4,0
				c1.8,2,6.4,1.5,6.4,1.5c0,0,0,0.1,0,0.1c-0.2,1.1,1,1.7,1,1.7s0,0,0-0.1c0,0,0,0,0,0c0.1-0.2,0.3-0.9,0.6-1.7
				c0.7-2,1.8-5.1,2-5.5c0.3-0.8,0.2-1.2-0.1-1.9c-0.3-0.6-1.3-3.2-1.3-3.2l0,0l-0.5-2.3l-2-0.5l0-0.2c0,0,3.8,0.7,4,0.7
				c0.3,0,0.7,0,0.9,0c0.6,0.7,0.1,0.1,1.1,1.1l-2.3,1.2l-0.6,0c0.2,0.6,1,2.5,1.2,2.9c0.4,0.8,0.4,1.4,0.1,2.2
				c-0.2,0.4-1.9,5.3-1.9,5.3l1.5-0.1c0,0-2.2,8.8-2.6,10.2c-0.4,1.4,0.8,1.8,0.8,1.8l5.7-11.9l0.9-0.4l6.2,1.8c0,0-0.6,5.1-0.8,6.2
				c-0.2,1.2,1,1.7,1,1.7s2-7.8,2.1-8.2c0.1-0.5,0-1-0.4-1.2c-0.2-0.1-4.6-2.2-4.6-2.2l-0.4-2.1l0.8-2.7c1.5,0.6,3.5,1,6.3,1.4
				l1.3-7.2l0,0l-0.3-2.6L42.4,6.7z M20.4,2.8c-0.2-0.4-0.4-0.9-0.2-1.6c0.2-0.7,1.1-1.3,2.1-1.1c1.1,0.2,1.6,1.2,1.5,2.2
				c0.2,0.1,0.4,0.2,0.3,0.2c-0.2,0.1-0.5,0.2-0.8,0.2c0,0,0,0,0,0c-0.1,0.3-0.6,1.2-0.9,1.6c-0.1,0.2-0.3,0.1-0.6,0
				c-0.3-0.1-0.6-0.2-0.6-0.2s-0.4-0.8-0.7-1.4L20.4,2.8z"/>
		</g>
	</g>
</g>
</svg>
