<?xml version="1.0" encoding="utf-8"?>
<!-- Generator: Adobe Illustrator 22.1.0, SVG Export Plug-In . SVG Version: 6.00 Build 0)  -->
<svg version="1.1" id="Calque_1" xmlns="http://www.w3.org/2000/svg" xmlns:xlink="http://www.w3.org/1999/xlink" x="0px" y="0px"
	 viewBox="0 0 60 60" style="enable-background:new 0 0 60 60;" xml:space="preserve">
<style type="text/css">
	.st0{fill:#0082C3;}
</style>
<title>icone blanc</title>
<desc>Created with Sketch.</desc>
<g id="icone-blanc">
	<g id="spelunking" transform="translate(-16.000000, -29.000000)">
		<g id="equitation-western" transform="translate(25.000000, 41.000000)">
			<path id="Fill-1" class="st0" d="M27.7,28.8l5.3,7.5l-3.5,0l-6.6-4.5l-7.3,0.5c0,0,2.1-5.8,2.3-6.3c0.4-1,0.3-1.7-0.1-2.7
				c-0.2-0.6-1.1-2.8-1.4-3.5l0.7,0l3.2-1.7l0.8-0.7l10.3,3.4l-2.8,3.9L27.7,28.8z M21.8,32.5l-1.7,3.9l-3.9,0
				c0.4-1.5,0.7-2.8,0.9-3.6L21.8,32.5z M16.3,6.3c-0.3,0-0.7-0.2-1.4-0.3c0,0.2-0.1,0.3-0.2,0.5c-0.2,0.3-0.7,1.3-1,1.9
				c-0.1,0.2-0.4,0.2-0.8,0.1c-0.4-0.1-0.7-0.2-0.7-0.2s-0.9-1.6-1.1-2.3C10.7,6,10.4,6,10.2,6C8.7,6,9,5.2,10.1,4.9
				c0.4-0.1,0.8-0.1,1.2,0c0-0.3,0.1-0.7,0.2-1c0.2-0.5,1.1-0.2,1.7-0.2c0.6,0,0.7,0,1.1,0c0.5,0,0.5,0.2,0.8,1.5
				c0.3,0,0.7,0.1,1,0.2C17,5.7,16.7,6.3,16.3,6.3z M17.3,10.4c0.3-0.1,0.6-0.3,0.8-0.5c0.4-0.5,1.1-1.3,1.6-2
				c0.5,0.2,0.9,0.3,1.3,0.3c0.2,0,0.4,0,0.6,0c-1.3,0.9-3.4,2.7-4,4.3c-0.2,0-0.4-0.1-0.6-0.1c-0.6,0-1.1,0.2-1.3,0.6
				c-0.1,0.1-0.1,0.2-0.1,0.3l-0.4-2.1C15.1,11.2,17,10.5,17.3,10.4z M25,1.7c1.3-0.8,2.6-1.2,3.8-1.3c0,0,0.1,0,0.1,0
				c0.9,0,1.8,0.3,2.5,0.8C32.5,2,33,3.3,32.8,4.1c-0.1,0.4-0.3,0.8-1,1c-4.2,0.8-6.6,1.5-8.2,2c-1.8,0.6-2.5,0.8-3.5,0.4
				c0.5-0.7,0.5-1.6,0.2-1.9l-1.1,1C19.2,5.7,21.2,4.1,25,1.7z M18.4,13.3c0.4,0.3,0.8,0.7,0.9,1.1c0.1,0.4,0.1,0.7,0,0.9l-0.6-0.2
				c-0.3-0.3-0.7-0.9-0.9-1.9c0-0.1,0-0.2,0-0.3C18.1,13.1,18.3,13.2,18.4,13.3z M15.9,14.2c-0.1-0.3,0-0.6,0.1-0.9
				c0.2-0.3,0.5-0.4,1-0.4c0,0,0,0,0,0c0.1,0,0.3,0,0.5,0.1c0,0.2,0,0.3,0,0.5c0.1,0.6,0.3,1.1,0.5,1.5L15.9,14.2z M32.6,18.9
				l1.8,0.5l1.3,1.4l-3.6-1.2L32.6,18.9z M5.4,30.8l0.2,0c1.6,1.6,7.4,1.5,7.4,1.5c0,0.1,0,0.1,0,0.1c-0.3,1.3,1.1,2,1.1,2
				s3-8.2,3.1-8.7c0.3-0.9,0.3-1.4-0.1-2.2c-0.3-0.7-1.5-3.7-1.5-3.7l0,0L15.6,16c0,0,1.8,0.3,2.4,0.4c0.6,0.1,1.1,0,1.4-0.3l2,0.7
				c0,0,17.3,5.7,17.3,5.7c0.9-1.1,1.4-2.2,1-3c-0.4-0.7-3.4-6.3-3.4-6.3l0,0l-4.1-4l0.1,1.1l-1.2-0.9l0.1,1.6
				c-2.6,0-4.8,0.8-6.2,2.2c-0.5,0.5-3.1,3.1-3.1,3.1l-2.2-0.7c0.2-0.4,0.2-0.8,0-1.2c-0.2-0.5-0.6-1-1.1-1.4
				c-0.2-0.1-0.4-0.3-0.6-0.3c0.3-0.8,1-1.8,2.2-2.8c1.2-1,2.4-1.8,2.5-1.9c0.3-0.1,0.5-0.2,0.9-0.3c1.6-0.5,4-1.2,8.2-2
				c0.7-0.1,1.2-0.6,1.4-1.3c0.2-1.1-0.4-2.5-1.6-3.4C30.8,0.3,29.8,0,28.7,0c-1.3,0-2.6,0.5-4,1.3c-5.5,3.4-6.1,4.7-6.1,5.4
				c0,0.1,0,0.1,0,0.2l-2.3,1.9l-2.6,0.3c0,0-1.5-0.5-1.9-0.6c-0.1,0-0.1,0-0.2,0C11,8.6,10,9.5,9.9,9.9c-0.1,0.3-0.3,1.7,0,3.1
				c0.4,2.1,1.2,3.3,1.2,3.3s-0.2,0.9-0.4,1.9c-0.3,1.1-0.1,1.7-0.1,1.7l-2.8,0l-1.4,4.3c0.6,0.3,2.7,1.4,5.4,1.2l0,0.5
				c-0.3,0-0.5,0-0.8,0c-3,0-5-1.4-5.1-1.4l-0.2-0.1l1.5-4.6c-1.5-0.6-3-0.8-4.3-0.8v16.5l3-3.9L5.4,30.8z"/>
		</g>
	</g>
</g>
</svg>
