<?xml version="1.0" encoding="utf-8"?>
<!-- Generator: Adobe Illustrator 22.1.0, SVG Export Plug-In . SVG Version: 6.00 Build 0)  -->
<svg version="1.1" id="Calque_1" xmlns="http://www.w3.org/2000/svg" xmlns:xlink="http://www.w3.org/1999/xlink" x="0px" y="0px"
	 viewBox="0 0 60 60" style="enable-background:new 0 0 60 60;" xml:space="preserve">
<style type="text/css">
	.st0{fill:#0082C3;}
</style>
<title>icone blanc</title>
<desc>Created with Sketch.</desc>
<g id="icone-blanc">
	<g id="spelunking" transform="translate(-16.000000, -29.000000)">
		<g id="lacrosse" transform="translate(25.000000, 41.000000)">
			<path id="Path-17" class="st0" d="M23.2,22.8c1,1.5,1.5,2.5,1.5,3.1c0,0.9-1,7.3-1,8.3s-0.2,2.2,0.4,1.9
				c0.4-0.2,1.6-3.6,3.7-10.2c-0.7-2.6-1.2-3.8-1.5-3.8c-0.3,0,0-1,0.9-2.9c1.1,0.3,1.7,0.2,1.7-0.4c0-0.9,1.1-7.5,0.2-8.1
				c-0.8-0.7-3.8-0.4-5-0.9s-1.5-0.8-2.8,0.5s-2.1,1.9-2.5,1.4s0-3,0-3.4s-1.6,0.6-1.6,1.2c0,0.4,0,1.9,0,4.6
				c0.4,0.5,1.2,0.3,2.5-0.4c1.9-1.1,2.8,0.7,1.7,3.7c-1.1,3-3.4,7.3-4.4,7.3c-0.7,0-3.1,0.2-7.2,0.5c-0.2,0.6-0.2,1,0,1.2
				c0.3,0.3,6.2,0.7,7.6,0.7C18.2,27,20.2,25.6,23.2,22.8z"/>
			<path id="Path-18" class="st0" d="M20,11.4l-4.5-5.6c0.3-0.2,0.3-0.6,0-1.2c-0.4-0.9-1.3-2-1.3-2.4s-1.6-3.1-2.9-2.1
				C10.4,0.8,10,1.3,10,1.5c-0.6,1.2-0.4,2,0.5,2.3c0.9,0.3,1.6,0.7,2,1.1c1.1,0.8,1.8,1.3,2.3,1.3c0.5,0,3.2,3.4,8.3,10.3L20,11.4z
				"/>
			<path id="Path" class="st0" d="M26.8,9.8c0.4,0,0.7,0,0.8-0.3c0.1-0.7,0.4-2.2,0.4-2.6c0.2-1.3-0.6-2.5-1.7-2.7
				c-1-0.2-2.2,0.5-2.5,1.8c-0.1,0.5-0.1,0.9,0.1,1.3c0.2,0.6,2,2.4,2,2.4S26.3,9.8,26.8,9.8z"/>
		</g>
	</g>
</g>
</svg>
