<?xml version="1.0" encoding="utf-8"?>
<!-- Generator: Adobe Illustrator 22.1.0, SVG Export Plug-In . SVG Version: 6.00 Build 0)  -->
<svg version="1.1" id="Calque_1" xmlns="http://www.w3.org/2000/svg" xmlns:xlink="http://www.w3.org/1999/xlink" x="0px" y="0px"
	 viewBox="0 0 60 60" style="enable-background:new 0 0 60 60;" xml:space="preserve">
<style type="text/css">
	.st0{fill:#0082C3;}
</style>
<title>icone blanc</title>
<desc>Created with Sketch.</desc>
<g id="icone-blanc">
	<g id="spelunking" transform="translate(-16.000000, -29.000000)">
		<g id="netball" transform="translate(25.000000, 41.000000)">
			<path id="Fill-1" class="st0" d="M15.9,20.3c-0.5,0-0.9,0.1-1.3,0.3l0.6,0.8C15.6,21.2,15.8,20.8,15.9,20.3 M14.9,21.7l-0.6-0.8
				c-0.3,0.3-0.6,0.7-0.7,1.1C14.1,22,14.5,21.9,14.9,21.7 M13.3,21.9c0.1-0.5,0.4-1,0.8-1.4l-0.3-0.4l-1.6,1.2
				C12.5,21.6,12.9,21.8,13.3,21.9 M12,21l1.6-1.2l-0.4-0.5c-0.4,0.3-0.9,0.4-1.4,0.4c0,0-0.1,0-0.1,0C11.7,20.2,11.8,20.6,12,21
				 M11.8,19.4c0.4,0,0.9-0.1,1.3-0.3l-0.6-0.8C12.1,18.6,11.9,19,11.8,19.4 M12.7,18.1l0.6,0.8c0.3-0.3,0.6-0.7,0.7-1.1
				C13.6,17.7,13.1,17.8,12.7,18.1 M14.3,17.8c-0.1,0.5-0.4,1-0.8,1.3l0.4,0.5l1.6-1.2C15.1,18.2,14.7,17.9,14.3,17.8 M15.6,18.8
				l-1.6,1.2l0.3,0.4c0.5-0.3,1-0.4,1.5-0.4C15.9,19.5,15.8,19.1,15.6,18.8 M16.4,20.3c-0.1,0.7-0.5,1.3-1,1.7
				c-0.5,0.3-1,0.5-1.6,0.5c-0.8,0-1.6-0.4-2.1-1.1c-0.9-1.2-0.6-2.8,0.5-3.7c1.2-0.9,2.8-0.6,3.7,0.6
				C16.3,18.9,16.5,19.6,16.4,20.3 M18.3,11.8c0,0,0.4-0.1,0.8-0.1c0.4-0.1,0.7-0.1,0.7-0.4V8.8c0-1.2-1-2.1-2.1-2.1
				c-1.1,0-2.1,0.8-2.1,2.1c0,0.4,0.1,0.8,0.3,1.2C16.3,10.5,18.3,11.8,18.3,11.8 M19.2,12.2c0,0,1.2-0.2,2.1-0.4
				c0.5-0.1,0.9,0,1.3,0.3c0.7,0.4,3.2,2,4.7,2.8c0.5,0.3,0.7,0.8,0.6,1.3c-0.1,1-0.5,4-0.5,4.7c-0.1,1.2-1.3,1.2-1.3,1.2v-5.5
				L22,14.9v0.4l1.4,0.9c0,0,0.7,2.4,1.5,4.9c0.5,1.6,0.2,3.1-0.6,4.4c-1.2,1.8-2.6,4-2.6,4h0.5l0.9-1.2c0,0,1.8-0.4,2.3-0.5
				c1.3-0.2,1.6,1,1.6,1s-5.2,2.6-6.1,3.1c-1,0.6-2.2-0.4-1.9-1.4c0.7-2.3,1.5-5.1,1.5-5.1h-0.3l-1.5,2.4h-3.3l-0.2,0.3l1.8,0.2
				l-1.2,1.3c0,0-0.4,3.2-0.6,5.4c-0.2,1.8-1.5,1.6-1.5,1.6v-6.9c0-1,0.1-1.3,0.7-2.1c1.2-1.7,3.8-5.5,3.8-5.5l0.4-0.6v-2.6
				l-2.6-4.2v0.6l0.7,1.2L16,17.6c0,0-0.5-0.6-1.5-0.7v-2.2c0-1.1,0.5-1.7,1.6-1.9C17.1,12.6,19.2,12.2,19.2,12.2"/>
			<path id="Path-22" class="st0" d="M30,6.8l-0.6,0.3c-0.4-3-0.7-4.7-0.9-5.1s2.2-0.6,7.2-0.3c-0.6,3.1-0.9,4.8-0.9,5.1
				c0,0.4-0.2,0.5-0.7,0.3l0.7-4.8c-3.4-0.2-5.2-0.2-5.3,0C29.3,2.6,29.5,4.1,30,6.8z"/>
		</g>
	</g>
</g>
</svg>
