<?xml version="1.0" encoding="utf-8"?>
<!-- Generator: Adobe Illustrator 22.1.0, SVG Export Plug-In . SVG Version: 6.00 Build 0)  -->
<svg version="1.1" id="Calque_1" xmlns="http://www.w3.org/2000/svg" xmlns:xlink="http://www.w3.org/1999/xlink" x="0px" y="0px"
	 viewBox="0 0 60 60" style="enable-background:new 0 0 60 60;" xml:space="preserve">
<style type="text/css">
	.st0{fill:#0082C3;}
</style>
<title>icone blanc</title>
<desc>Created with Sketch.</desc>
<g id="icone-blanc">
	<g id="spelunking" transform="translate(-16.000000, -29.000000)">
		<g id="yoga" transform="translate(25.000000, 41.000000)">
			<path id="Fill-1" class="st0" d="M18.3,4.1c-0.6,0.3-1,1-1,1.7c0,0.2,0,0.5,0.1,0.7c0.2,0.6,1,2.1,1,2.1c0.1,0.2,0.2,0.2,0.3,0.2
				h1.1c0.2,0,0.3-0.1,0.3-0.2c0,0,0.8-1.5,1-2.1c0.1-0.2,0.1-0.4,0.1-0.7c0-0.7-0.4-1.4-1-1.7c0-0.5-0.5-1-1-1
				C18.8,3.1,18.3,3.5,18.3,4.1 M26.9,24.4c-1.3,0.5-6.1,2.7-6.1,2.7s-0.4-1.1,0.7-1.7c1-0.7,3.8-2.5,3.8-2.5l-5-3l-0.1,7.3
				c0,0,0.7,5.5,0.8,6.9c0.2,1.4-0.5,2.3-1.2,2.3c0,0-3.3-14.5-3.6-15.8C16,18.2,17,16,17,16l-0.3-2.8c0,0-2.4-5.4-2.7-8.9
				c0-0.4,0.1-0.7,0.4-0.9L18.9,0c0,0,0.3,0.9-0.3,1.5s-2.9,2.9-2.9,2.9s0.3,1.6,2.1,5.1h3.1C22.8,5.9,23,4.4,23,4.4
				s-2.3-2.3-2.9-2.9C19.5,0.9,19.8,0,19.8,0l4.5,3.3c0.2,0.2,0.3,0.4,0.3,0.7c-0.2,2-1.1,5.4-1.6,6.5c-0.9,2.3-1.6,3.9-1.6,3.9
				l0.5,1.7c0,0,4.5,3.9,5.3,4.6C28.6,21.6,29.2,23.5,26.9,24.4"/>
		</g>
	</g>
</g>
</svg>
