<?xml version="1.0" encoding="utf-8"?>
<!-- Generator: Adobe Illustrator 22.1.0, SVG Export Plug-In . SVG Version: 6.00 Build 0)  -->
<svg version="1.1" id="Calque_1" xmlns="http://www.w3.org/2000/svg" xmlns:xlink="http://www.w3.org/1999/xlink" x="0px" y="0px"
	 viewBox="0 0 30 26" style="enable-background:new 0 0 30 26;" xml:space="preserve">
<style type="text/css">
	.st0{fill:#0082C3;}
	.st1{fill:none;stroke:#FFFFFF;stroke-width:0.15;stroke-miterlimit:10;}
</style>
<title>jujitsu</title>
<desc>Created with Sketch.</desc>
<g id="jujitsu">
	<path id="Path" class="st0" d="M15.1,4c0.3,0,0.5,0,0.6-0.2c0.1-0.5,0.3-1.6,0.3-1.9C16.1,1,15.5,0.2,14.8,0
		C14-0.1,13.2,0.4,13,1.3C13,1.6,13,2,13.1,2.3C13.2,2.7,14.5,4,14.5,4S14.8,4,15.1,4z"/>
	<path id="Path-11" class="st0" d="M16.4,4.5c0.4,1.8,0.8,3,1.3,3.3C18.3,8.2,19,8.4,20,8.4l-1.1,1.8c-1.6-0.3-2.4-0.5-2.4-0.6
		c0-0.3-1.2,1.8-0.8,2.7c0.3,0.6,1.4,2.3,3.5,5v7.7h-2.1l-0.3-5.2l-2.3-4c-0.6-0.6-1-0.6-1.3,0c-0.5,0.9-1.5,2.3-1.5,2.8
		c0,0.3,0,2.3,0,5.9H9c-0.3-4.7-0.3-7.3,0-7.9s1.1-2.3,2.2-5.3l-1-2.3c0.2-2.7,0.4-4.2,0.6-4.5C11.2,4,11.8,4,12.3,4
		C12.6,4,14,4.2,16.4,4.5z"/>
	<path id="Path-12" class="st0" d="M20,9.4c1.2,0,1.9,0,2,0c0.2,0,0.8-0.4,0.6-0.8S22.5,8.1,22,8.1s-0.9,0.2-1.4,0.2L20,9.4z"/>
	<path id="Path-12_1_" class="st1" d="M12,10.4c1.2,0,1.9,0,2,0c0.2,0,0.8-0.4,0.6-0.8s-0.4-0.8-0.9-0.6c-0.3,0.1-0.7,0.2-1.1,0.2
		L12,10.4z"/>
	<path id="Path-13" class="st0" d="M17.3,25.2c0,0.3,0,0.5,0.2,0.6c0.2,0.1,2.3,0,2.6,0s0.8-0.2,0.4-0.3c-0.3-0.1-0.8-0.2-1.5-0.4
		c-0.8,0-1.2,0-1.3,0S17.5,25.2,17.3,25.2z"/>
	<path id="Path-13_1_" class="st0" d="M11.2,24.7c0.1,0.3,0,0.5-0.1,0.6c-0.2,0.2-2.3,0.4-2.5,0.4s-0.8,0-0.4-0.2
		c0.3-0.1,0.7-0.3,1.4-0.7c0.8-0.1,1.2-0.2,1.2-0.2C10.8,24.6,11,24.6,11.2,24.7z"/>
</g>
</svg>
