<?xml version="1.0" encoding="utf-8"?>
<!-- Generator: Adobe Illustrator 22.1.0, SVG Export Plug-In . SVG Version: 6.00 Build 0)  -->
<svg version="1.1" id="Calque_1" xmlns="http://www.w3.org/2000/svg" xmlns:xlink="http://www.w3.org/1999/xlink" x="0px" y="0px"
	 viewBox="0 0 60 60" style="enable-background:new 0 0 60 60;" xml:space="preserve">
<style type="text/css">
	.st0{filter:url(#Adobe_OpacityMaskFilter);}
	.st1{fill:#FFFFFF;}
	.st2{mask:url(#mask-2_1_);fill:#0082C3;}
	.st3{fill:#0082C3;}
	.st4{filter:url(#Adobe_OpacityMaskFilter_1_);}
	.st5{mask:url(#mask-4_1_);fill:#0082C3;}
</style>
<title>icone blanc</title>
<desc>Created with Sketch.</desc>
<g id="icone-blanc">
	<g id="spelunking" transform="translate(-16.000000, -29.000000)">
		<g id="aikido" transform="translate(25.000000, 41.000000)">
			<g id="Page-1" transform="translate(5.600000, 0.000000)">
				<g id="Group-3" transform="translate(0.000000, 19.420892)">
					<g id="Clip-2">
					</g>
					<defs>
						<filter id="Adobe_OpacityMaskFilter" filterUnits="userSpaceOnUse" x="0" y="0.3" width="24.6" height="16.4">
							<feColorMatrix  type="matrix" values="1 0 0 0 0  0 1 0 0 0  0 0 1 0 0  0 0 0 1 0"/>
						</filter>
					</defs>
					<mask maskUnits="userSpaceOnUse" x="0" y="0.3" width="24.6" height="16.4" id="mask-2_1_">
						<g class="st0">
							<polygon id="path-1_1_" class="st1" points="0,0.3 24.6,0.3 24.6,16.7 0,16.7 							"/>
						</g>
					</mask>
					<path id="Fill-1" class="st2" d="M11.3,0.3c0.2,0.7,0.4,1.2,0.5,1.8c0.1,0.3,0.2,0.4,0.5,0.3c0.3,0,0.7,0,1.1,0
						c-0.2-0.6-0.4-1.2-0.5-1.8c-0.1-0.3-0.1-0.4,0.3-0.4c1.1,0,2.3,0,3.4,0c0.2,0,0.4,0.1,0.5,0.2C18.8,2,20.6,3.5,22.4,5
						c0.7,0.6,1.1,1.3,1.3,2.2c0.3,1.5,0.6,2.9,0.9,4.4c0.1,0.3,0,0.4-0.3,0.5c-1,0.4-1,0.4-0.9,1.5c0.1,0.9,0.2,1.8,0.3,2.7
						c0,0.3-0.1,0.4-0.4,0.4c-0.8,0-1.4-0.4-1.7-1.3c-0.2-0.5-0.3-1.1-0.5-1.6c-0.1-0.3-0.2-0.4-0.5-0.2c-0.3,0.2-16.5-0.2-16.8-0.4
						c-0.2-0.1-0.7,1.4-0.9,2c-0.3,0.8-0.7,1.4-1.6,1.5c-0.4,0.1-0.5,0-0.5-0.5c0.1-1.2,0.2-2.5,0.3-3.7c0-0.4,0-0.6-0.4-0.7
						c-1-0.4-1-0.4-0.7-1.4c0.4-1.2,0.7-2.3,1.1-3.5C1.5,6,2,5.2,2.7,4.6c1.6-1.4,3.1-2.8,4.7-4.2c0.1-0.1,0.3-0.2,0.5-0.2
						c0.6,0,1.1,0,1.7,0c0.3,0,0.3,0.1,0.2,0.3C9.4,1.4,9.1,2.2,8.8,3C8.6,3.3,8.6,3.4,9,3.4c1.1,0,1.1,0,1.5-1.1
						C10.8,1.7,11,1.1,11.3,0.3"/>
				</g>
				<path id="Fill-4" class="st3" d="M29.4,7.8c-0.2,0.9-0.9,1.6-1.8,1.7c-0.5,0.1-0.9,0.1-1.4,0.1c-0.3,0-0.4,0.1-0.4,0.4
					c0,0.4-0.1,0.7-0.1,1.1c0,0.4-0.1,0.4-0.5,0.4c-2.6,0-5.2,0.1-7.8,0.1c-0.5,0-0.6,0.2-0.6,0.6c-0.2,2-0.4,3.9-0.6,5.9
					c0,0.3-0.1,0.5-0.5,0.5c-2.4,0-4.8,0-7.2,0c-0.4,0-0.4-0.1-0.3-0.5c0.2-0.8,0.2-0.8,1.1-0.5c1.2,0.4,2.4,0,3.1-1.1
					c0.1-0.2,0.1-0.3-0.1-0.4c-1.7-0.8-3.4-1.6-5.1-2.4c-0.2-0.1-0.3-0.1-0.4,0.1c-0.1,0.2,0,0.3,0.2,0.4c1.5,0.7,2.9,1.4,4.4,2.1
					c0.3,0.2,0.4,0.3,0.1,0.5c-0.5,0.4-1.1,0.6-1.8,0.4c-0.4-0.1-0.8-0.2-1.1-0.4c-0.2-0.1-0.3,0-0.4,0.2c-0.2,0.4-0.4,0.8-0.6,1.2
					c-0.1,0.2-0.2,0.3-0.4,0.1c-1-0.8-2-1.7-3.1-2.5c-0.6-0.5-0.8-1-0.5-1.7c0.6-1.5,1.2-3,2-4.4c0.6-1.2,1.6-1.8,3-1.7
					c6.8,0,13.5,0,20.3,0H29.4z"/>
				<g id="Group-8" transform="translate(9.249180, 0.027449)">
					<g id="Clip-7">
					</g>
					<defs>
						<filter id="Adobe_OpacityMaskFilter_1_" filterUnits="userSpaceOnUse" x="0.1" y="0.3" width="5.6" height="6.9">
							<feColorMatrix  type="matrix" values="1 0 0 0 0  0 1 0 0 0  0 0 1 0 0  0 0 0 1 0"/>
						</filter>
					</defs>
					<mask maskUnits="userSpaceOnUse" x="0.1" y="0.3" width="5.6" height="6.9" id="mask-4_1_">
						<g class="st4">
							<polygon id="path-3_1_" class="st1" points="0.1,0.3 5.7,0.3 5.7,7.2 0.1,7.2 							"/>
						</g>
					</mask>
					<path id="Fill-6" class="st5" d="M3.7,7.2C3.2,7.3,2.7,7,2.3,6.5C1.8,6,1.2,5.4,0.7,4.9C0,4-0.1,2.7,0.4,1.7
						c0.5-1,1.7-1.6,2.8-1.4c1.1,0.1,2,0.9,2.4,2c0.1,0.5,0.1,0.9,0.1,1.4c-0.2,1-0.4,1.9-0.5,2.9C5.1,7,4.9,7.2,4.4,7.2
						C4.2,7.2,4,7.2,3.7,7.2"/>
				</g>
			</g>
		</g>
	</g>
</g>
</svg>
