<?xml version="1.0" encoding="utf-8"?>
<!-- Generator: Adobe Illustrator 22.1.0, SVG Export Plug-In . SVG Version: 6.00 Build 0)  -->
<svg version="1.1" id="Calque_1" xmlns="http://www.w3.org/2000/svg" xmlns:xlink="http://www.w3.org/1999/xlink" x="0px" y="0px"
	 viewBox="0 0 60 60" style="enable-background:new 0 0 60 60;" xml:space="preserve">
<style type="text/css">
	.st0{fill:#0082C3;}
</style>
<title>icone blanc</title>
<desc>Created with Sketch.</desc>
<g id="icone-blanc">
	<g id="spelunking" transform="translate(-16.000000, -29.000000)">
		<g id="kendo" transform="translate(25.000000, 41.000000)">
			<path id="Path-15" class="st0" d="M15.5,7.6c-1,0-1.5-0.3-1.7-0.7c-0.2-0.4-0.4-0.7-0.6-0.9h3.2L15.5,7.6z"/>
			<path id="Path-16" class="st0" d="M25.3,34.9c1.1,0.5,1.8,0.7,2.2,0.7c0.6,0,0.6,0,0.6-0.4c0-0.2-0.5-0.5-1.4-0.8h-1.4V34.9z"/>
			<path id="Path-16_1_" class="st0" d="M15.5,34.9c-1.1,0.5-1.8,0.7-2.2,0.7c-0.6,0-0.6,0-0.6-0.4c0-0.2,0.5-0.5,1.4-0.8h1.4V34.9z
				"/>
			<path id="Path" class="st0" d="M18.3,2.7c-0.1-0.4-0.1-0.8,0-1.2c0.3-1.2,1.6-1.7,2.6-1.4c1,0.3,1.8,1.4,1.5,2.6
				c-0.1,0.4-0.4,1.6-0.6,2.2c-0.1,0.3-0.3,0.3-0.7,0.3c-0.4,0-1.1-0.1-1.1-0.1S18.4,3.3,18.3,2.7z"/>
			<path id="Path-14" class="st0" d="M16.4,21.8c0,0.9-0.9,11.1-1.7,11.5s2.2,1.5,3.4,1.2c0.8-0.2,1.6-0.9,2.3-2.2h0.9
				c0,1.4,0.3,2.2,0.8,2.2s2.5-0.2,5.8-0.6c-0.8-0.7-1.2-1.2-1.2-1.5s-0.5-3.9-1.5-10.6l2.4-0.4c-2.3-2.4-3.4-4.3-3.4-5.4
				c0-1.8,0.9-2.6,1.2-3.4s0.5-3.8-0.3-4.3c-0.9-0.5-2.6-2-3-2c-0.3,0-1.3,0-3.1,0c-0.8,0.7-1.3,1-1.5,1c-0.2,0-0.8,0.2-2,0.7
				c-0.5,2.6-0.4,4.4,0.5,5.3c1.3,1.4,1.5,2.5,1.3,2.7c-0.1,0.2-1,2-2.6,5.4C15.8,21.1,16.4,21.2,16.4,21.8z"/>
			<path id="Path-15_1_" class="st0" d="M25.2,7.6c1,0,1.5-0.3,1.7-0.7c0.2-0.4,0.4-0.7,0.6-0.9h-3.2L25.2,7.6z"/>
		</g>
	</g>
</g>
</svg>
