<?xml version="1.0" encoding="utf-8"?>
<!-- Generator: Adobe Illustrator 22.1.0, SVG Export Plug-In . SVG Version: 6.00 Build 0)  -->
<svg version="1.1" id="Calque_1" xmlns="http://www.w3.org/2000/svg" xmlns:xlink="http://www.w3.org/1999/xlink" x="0px" y="0px"
	 viewBox="0 0 60 60" style="enable-background:new 0 0 60 60;" xml:space="preserve">
<style type="text/css">
	.st0{fill:#0082C3;}
</style>
<title>icone blanc</title>
<desc>Created with Sketch.</desc>
<g id="icone-blanc">
	<g id="spelunking" transform="translate(-16.000000, -29.000000)">
		<g id="tai-chi" transform="translate(25.000000, 41.000000)">
			<g id="Group" transform="translate(7.000000, -1.400000)">
				<path id="Path-24" class="st0" d="M12.2,8.3c1.5,0.3,2.3,0.3,2.6,0c0.4-0.4,2.8,0,2.8,1.4c0,0.9,0.1,3.8,0.3,8.5l-7.1,0.7
					l-0.3-3.5l-5.1-1.8l0.7-1.8c0.8,0,1.2,0,1.2,0S3.7,9.4,3.7,8.3c0-0.7,0.3-1.4,0.8-2h2.3c0.1,1.5,0.4,2.2,1.1,2.2
					S10,8.4,12.2,8.3z"/>
				<path id="Path-25" class="st0" d="M6.2,6.1l0.3-2.1C7.2,3.8,7.7,3.7,8,3.5C8.3,3.3,8.6,3,8.7,2.6C8.5,2.4,8.2,2.4,8,2.6
					C7.7,3,8,1.6,8,1S5.8,3.7,6,3C5.6,3.6,5.6,4.1,6,4.6"/>
				<polygon id="Path-26" class="st0" points="6,3.2 5,5.9 5,6.5 6.4,6.5 6.6,4 				"/>
				<path id="Path-27" class="st0" d="M5.8,13c-1.1-0.7-2-1.1-2.5-1.1s-1.2-0.4-1.9-1.2c-0.2-0.6,0-0.8,0.7-0.6s1.3,0.4,1.6,0.6
					v-0.6C3.9,9.7,4,9.8,4,10.4c0,0.9,3.3,1.9,3.6,2.3C7.8,13,7.7,13,7.3,12.6L5.8,13z"/>
				<path id="Path-28" class="st0" d="M17.8,18.8L25,32.5l-1.8,1.1l-6.4-9.5c-1.8-2.3-3.1-2-3.8,0.8c-0.7,2.8-1.5,6.4-2.3,10.7
					l-2.5-0.8c0.9-10.5,1.9-15.6,3.1-15.4S14.7,19.4,17.8,18.8z"/>
				<path id="Path-29" class="st0" d="M24.1,33.6c0,0-0.3,0.7,0.2,1.2c0.5,0.4,0.7,0.9,1.7,1.5c0.9,0.6,1.4,0.2,1.4-0.3
					c0-0.5-1.7-1.8-1.7-1.8s-0.2-0.3-0.7-1C24.4,33.4,24.1,33.6,24.1,33.6z"/>
				<path id="Path-29_1_" class="st0" d="M10.1,34.9c0,0,0.2,0.8-0.3,1.1S9,36.8,8,37.3c-1,0.4-1.5,0-1.4-0.5
					c0.1-0.5,1.9-1.6,1.9-1.6s0.3-0.3,0.8-0.9C9.9,34.7,10.1,34.9,10.1,34.9z"/>
				<path id="Path" class="st0" d="M12.3,7.8c-0.4,0-0.8,0.1-0.9-0.3c-0.1-0.8-0.4-2.5-0.5-2.9c-0.2-1.4,0.7-2.8,1.9-3
					c1.2-0.2,2.5,0.6,2.7,2c0.1,0.5,0.1,1-0.1,1.5c-0.2,0.7-2.2,2.7-2.2,2.7S12.7,7.8,12.3,7.8z"/>
			</g>
		</g>
	</g>
</g>
</svg>
