<?xml version="1.0" encoding="utf-8"?>
<!-- Generator: Adobe Illustrator 22.1.0, SVG Export Plug-In . SVG Version: 6.00 Build 0)  -->
<svg version="1.1" id="Calque_1" xmlns="http://www.w3.org/2000/svg" xmlns:xlink="http://www.w3.org/1999/xlink" x="0px" y="0px"
	 viewBox="0 0 60 60" style="enable-background:new 0 0 60 60;" xml:space="preserve">
<style type="text/css">
	.st0{fill:#0082C3;}
</style>
<title>icone blanc</title>
<desc>Created with Sketch.</desc>
<g id="icone-blanc">
	<g id="spelunking" transform="translate(-16.000000, -29.000000)">
		<g id="kungfu" transform="translate(25.000000, 41.000000)">
			<g id="Group" transform="translate(11.200000, -1.400000)">
				<path id="Path" class="st0" d="M11.3,6.9c0,0-0.4,0.1-0.8,0.3c-0.4,0.1-0.7,0.3-0.8,0c-0.3-0.7-1-2-1.2-2.4
					C7.9,3.6,8.3,2.2,9.3,1.7c0.9-0.5,2.3-0.2,2.9,1c0.2,0.4,0.3,0.8,0.3,1.3C12.5,4.6,11.3,6.9,11.3,6.9z"/>
				<path id="Path-21" class="st0" d="M7.8,9.3c4-0.8,6.2-1.1,6.8-0.8c0.8,0.4,4.1,3.9,4.5,4.4c0.2,0.3,0.4,3,0.6,8l-1.5-1.6
					l-0.6-4.3l-2.1-2.9l0.3,9.7c-1.1,0-1.6,0-1.6,0s-0.2,4.8-0.5,14.4l-2.6,2.9V23.8L6.6,20v4.8l-2.1,2.2L4.3,16.1
					c0-0.7,0.2-1,0.5-1.1c0.4,0,0.9-0.2,1.4,0.3c1,0.9,1.8,1.5,2.3,1.9v-5l-2.6,2.1c-1.2,0.9-2.4,0.6-3.7-0.8s-2-2.4-2.2-3V8.5
					l4.3,4.4"/>
			</g>
		</g>
	</g>
</g>
</svg>
