<?xml version="1.0" encoding="utf-8"?>
<!-- Generator: Adobe Illustrator 22.1.0, SVG Export Plug-In . SVG Version: 6.00 Build 0)  -->
<svg version="1.1" id="Calque_1" xmlns="http://www.w3.org/2000/svg" xmlns:xlink="http://www.w3.org/1999/xlink" x="0px" y="0px"
	 viewBox="0 0 60 60" style="enable-background:new 0 0 60 60;" xml:space="preserve">
<style type="text/css">
	.st0{fill:#0082C3;}
</style>
<title>icone blanc</title>
<desc>Created with Sketch.</desc>
<g id="icone-blanc">
	<g id="spelunking" transform="translate(-16.000000, -29.000000)">
		<g id="capoeira" transform="translate(25.000000, 41.000000)">
			<g id="Group" transform="translate(8.400000, 0.000000)">
				<path id="Path-2" class="st0" d="M5.4,26.4c6.3-1,9.8-1.8,10.4-2.5c0.9-1.1,2.8,2.5,3.9,2.5s5.3-4.8,5.3-6.3
					c0-1.1-0.3-2.4-0.9-4l-3.8,4c-2.4-2.2-3.6-4.3-3.6-6.3s-0.2-5.4-0.6-10.1l-2.9,1c-0.4,8.7-0.4,13.4,0,13.9c0.6,0.8-6-2.7-6,0
					c0,1.8-0.7,2.7-2,2.7c-1.6,1.2-2.4,2-2.4,2.6c0,0.9-1,9.3-1,10.5c0,0.8-0.4,1.5-1.2,2c1.5,0,2.5,0,2.8,0s0.5-1.7,0.5-5.2
					L5.4,26.4z"/>
				<path id="Path-3" class="st0" d="M23.8,18.2c1.6-3.3,2.3-5,2.3-5s-0.5-1.8-1.2-0.5s-0.5,1.8-1.2,1.8s-1.3,0-1.3,0.8
					C22.4,15.8,22.9,16.8,23.8,18.2z"/>
				<path id="Path-3_1_" class="st0" d="M14.9,6c-1.6-3.3-2.3-5-2.3-5s0.5-1.8,1.2-0.5s0.5,1.8,1.2,1.8s1.3,0,1.3,0.8
					C16.2,3.6,15.7,4.6,14.9,6z"/>
				<path id="Path" class="st0" d="M3.9,20c0,0,0.4,0,0.9,0c0.4,0,0.8,0,0.9-0.3C5.9,19,6.1,17.5,6.2,17c0.2-1.3-0.7-2.6-1.9-2.8
					c-1.2-0.2-2.5,0.5-2.7,1.9c-0.1,0.5-0.1,0.9,0.1,1.3C1.9,18.1,3.9,20,3.9,20z"/>
			</g>
		</g>
	</g>
</g>
</svg>
