<?xml version="1.0" encoding="utf-8"?>
<!-- Generator: Adobe Illustrator 22.1.0, SVG Export Plug-In . SVG Version: 6.00 Build 0)  -->
<svg version="1.1" id="Calque_1" xmlns="http://www.w3.org/2000/svg" xmlns:xlink="http://www.w3.org/1999/xlink" x="0px" y="0px"
	 viewBox="0 0 60 60" style="enable-background:new 0 0 60 60;" xml:space="preserve">
<style type="text/css">
	.st0{fill:#0082C3;}
</style>
<title>icone blanc</title>
<desc>Created with Sketch.</desc>
<g id="icone-blanc">
	<g id="spelunking" transform="translate(-16.000000, -29.000000)">
		<g id="taekwando" transform="translate(25.000000, 41.000000)">
			<path id="Path-19" class="st0" d="M14.9,6.2l-2.1-2.9l1.3-1.2l0.8-0.8c-0.6-0.3-1.6,0-3.1,0.8c-0.9,0.5-0.9,0.7-0.8,1
				c0.1,0.1,0.3,0.4,0.6,0.8l1.7,3.5L14.9,6.2z"/>
			<path id="Path-19_1_" class="st0" d="M20,31.1l-0.5,3.5l1.8,0.4l1.1,0.3c-0.4,0.5-1.4,0.8-3.1,0.8c-1,0-1.1-0.1-1.2-0.5
				c0-0.2,0-0.5,0.1-1l-0.2-3.9L20,31.1z"/>
			<path id="Path" class="st0" d="M32.1,11.1c0.1-0.4,0.1-0.8,0-1.2c-0.3-1.2-1.6-1.7-2.6-1.4c-1,0.3-1.8,1.4-1.5,2.6
				c0.1,0.4,0.4,1.6,0.6,2.2c0.1,0.3,0.3,0.3,0.7,0.3c0.4,0,1.1-0.1,1.1-0.1S32,11.7,32.1,11.1z"/>
			<path id="Path-20" class="st0" d="M18.6,8.5h0.5l2.7,4.1l4.8,0.6c1.5,1.1,2.2,1.7,2.2,1.7s2.5,1.4,2.5,2.3s-0.8,5.2-2,5.8
				c-1.2,0.7-2.7,0-2.7-1.4c0-0.9-1.4-1.1-4.3-0.7l2.2,2.1l-0.4,0.8l-1.7-1.3L21.8,22v-5.9l0.5-1.3H21l-0.2-0.3
				c0.3,0.8,0.5,1.3,0.7,1.6c0.3,0.4,0.3,2.2,0,5.3l-1.3,11.8h-2.9c0-10.5,0-15.9,0-16.4s-0.3-1-1-1.4l-3.1-8c1.7-1.4,2.5-1.7,2.5-1
				c0,0.4,0.4,1.1,1.3,2.3L17,8.5h0.8c-1.1-0.8-1.5-1.2-1-1.2c0.7,0-0.7-1.2-0.4-1.4c0.3-0.2,0.4-0.3,1.1,0.2
				c0.5,0.4,0.9,1.1,1.1,2.2V8.5z"/>
		</g>
	</g>
</g>
</svg>
