<?xml version="1.0" encoding="utf-8"?>
<!-- Generator: Adobe Illustrator 22.1.0, SVG Export Plug-In . SVG Version: 6.00 Build 0)  -->
<svg version="1.1" id="Calque_1" xmlns="http://www.w3.org/2000/svg" xmlns:xlink="http://www.w3.org/1999/xlink" x="0px" y="0px"
	 viewBox="0 0 60 60" style="enable-background:new 0 0 60 60;" xml:space="preserve">
<style type="text/css">
	.st0{fill:#0082C3;}
</style>
<title>icone blanc</title>
<desc>Created with Sketch.</desc>
<g id="icone-blanc">
	<g id="spelunking" transform="translate(-16.000000, -29.000000)">
		<g id="karate" transform="translate(25.000000, 41.000000)">
			<path id="Path-6" class="st0" d="M16.8,19.6L18,33.4h3.9c-0.3-7.7-0.1-12.6,0.5-14.5C23.3,16,31.3,7.5,32.9,7.5
				c1.1,0,1.1-1.3,0-3.8c-6.9,3.8-10.6,6.2-11,7.1C21.5,11.7,19.8,14.7,16.8,19.6z"/>
			<path id="Path-7" class="st0" d="M21,11.5l-2.1-2.2c4.3-1.3,6.5-2.2,6.5-2.5s0-1.4,0-3.2L14.9,6.1l-4.2,2.7
				c-0.6,1-0.9,1.7-0.9,2.1c0,0.6,0,5.3,1.5,5.8c1,0.3,1.8-0.3,2.2-2.1l3.5,3.5L21,11.5z"/>
			<path id="Path-8" class="st0" d="M26.4,3.7C27.1,3.2,27.6,3,27.8,3c0.4,0,1.4,1.4,1.4,1.4s-1.4,0.7-2.3,0.7
				C26.3,5.1,26.1,4.6,26.4,3.7z"/>
			<path id="Path-9" class="st0" d="M34.3,4.6c0.7,0,1.2,0,1.6,0c0.5,0,1.7-0.2,2.3-0.9S37.6,1.5,37,2c-0.4,0.4-1.5,0.8-3.2,1.3
				L34.3,4.6z"/>
			<path id="Path-10" class="st0" d="M21.5,34.2c0,0.5,0.8,1.6,0.5,1.6c-0.3,0-5.1,0-5.1,0s-0.8-0.8,0-0.8c0.8,0,1.9-0.8,2.4-0.8
				S21.5,33.8,21.5,34.2z"/>
			<path id="Path" class="st0" d="M11.9,7c0,0,0.4,0,0.8,0c0.4,0,0.7,0,0.8-0.3C13.7,6,13.9,4.5,14,4.1c0.2-1.3-0.6-2.5-1.7-2.7
				c-1-0.2-2.2,0.5-2.5,1.8C9.8,3.7,9.8,4.1,9.9,4.6C10.1,5.2,11.9,7,11.9,7z"/>
		</g>
	</g>
</g>
</svg>
