<?xml version="1.0" encoding="utf-8"?>
<!-- Generator: Adobe Illustrator 22.1.0, SVG Export Plug-In . SVG Version: 6.00 Build 0)  -->
<svg version="1.1" id="Calque_1" xmlns="http://www.w3.org/2000/svg" xmlns:xlink="http://www.w3.org/1999/xlink" x="0px" y="0px"
	 viewBox="0 0 60 60" style="enable-background:new 0 0 60 60;" xml:space="preserve">
<style type="text/css">
	.st0{fill:#0082C3;}
</style>
<title>icone blanc</title>
<desc>Created with Sketch.</desc>
<g id="icone-blanc">
	<g id="spelunking" transform="translate(-16.000000, -29.000000)">
		<g id="judo-karate" transform="translate(25.000000, 41.000000)">
			<path id="Fill-1" class="st0" d="M32.2,7.6H13.9c-1.5,0-2.4,1.3-2.9,2.3c-0.5,1-1,2.3-1.6,3.6c-0.6,1.3,0,1.8,0.8,2.4
				c0.4,0.3,2.3,1.8,2.9,2.4l0.9-1.8l0.2,0.1c0,0,0.3,0.1,1.3,0.5c0.9,0.3,1.7-0.3,2-0.7l-5.2-2.4l0.2-0.5l5.8,2.7l-0.2,0.3
				c-0.4,0.6-1.5,1.7-2.8,1.2c-0.6-0.2-0.9-0.3-1.1-0.4L14,18.5h8.2l0.7-7l9-0.2l0.1-1.9c0.6,0,1.2-0.1,1.7-0.1c1.6-0.1,2-1.7,2-1.7
				H32.2z M18.2,7c0,0,0.5,0,1.1,0c0.5,0,1,0.1,1.1-0.3c0.2-0.9,0.5-2.7,0.6-3.3c0.3-1.6-0.9-3.1-2.3-3.3c-1.4-0.3-3.1,0.6-3.4,2.3
				c-0.1,0.6-0.1,1.1,0.1,1.6C15.7,4.7,18.2,7,18.2,7z M30.8,31.6l-1.4,0.5l0.4,4.2c-1.4,0.1-1.9-0.7-2.2-1.6
				c-0.2-0.9-0.5-1.7-0.5-1.7l-0.7,0.3l-1.3-5.6L20.4,25h-0.1h-3.7h0l-4.9,2.7L10,32.9l-0.6-0.2c0,0-0.4,1.5-0.6,2
				c-0.2,0.6-0.7,1.9-2.2,1.6l0.4-4.7L5.6,31c0,0,1.3-4.1,1.5-4.8c0.2-0.7,0.7-1.4,1.3-2s5.1-4.5,5.1-4.5h2.3l-1.3,3.2h1.6l1.2-3.2
				l0.7,2.2h1.4l-0.7-2.2h4.1c0,0,5.2,4.4,5.7,4.8c0.5,0.4,1.2,1.3,1.4,2.3C30,27.6,30.8,31.6,30.8,31.6z"/>
		</g>
	</g>
</g>
</svg>
