<?xml version="1.0" encoding="utf-8"?>
<!-- Generator: Adobe Illustrator 22.1.0, SVG Export Plug-In . SVG Version: 6.00 Build 0)  -->
<svg version="1.1" id="Calque_1" xmlns="http://www.w3.org/2000/svg" xmlns:xlink="http://www.w3.org/1999/xlink" x="0px" y="0px"
	 viewBox="0 0 60 60" style="enable-background:new 0 0 60 60;" xml:space="preserve">
<style type="text/css">
	.st0{fill:#0082C3;}
</style>
<title>icone blanc</title>
<desc>Created with Sketch.</desc>
<g id="icone-blanc">
	<g id="spelunking" transform="translate(-16.000000, -29.000000)">
		<g id="wrestling" transform="translate(25.000000, 41.000000)">
			<path id="Path-31" class="st0" d="M12,23.1c-2,3.5-3.4,5.7-4.1,6.6s-2.7,2.7-5.7,5.6c-0.3-1.4-0.4-2.4-0.4-3c0-0.8,7-9.2,7-9.6
				c0-0.4,6.1-13.4,6.6-13.8c0.5-0.4,2.6-1.6,3.5,0c0.6,1.1,2.4,1.9,5.2,2.5l5.5-1.3c0.8,0.4,1.2,0.9,1.2,1.3s-1.2,1.1-3.5,2.1
				l-4.4,1l-4-1c-1.1,4.3-2,6.4-2.6,6.4c-0.6,0,1.6,1.5,6.6,4.5L22.4,34l-2.1,0.8l-0.6-8.4L12,23.1z"/>
			<path id="Path-32" class="st0" d="M32.4,10.2c0.4,1.6,0.4,2.6,0,2.9c-0.6,0.6,2.1,4.6,1,5.6c-1,1.1-5.2,1.8-5.6,2.6
				c-0.4,0.8-0.6,6.6,0,9.7c0.4,2,0.6,3.3,0.6,3.7h1.2h1c0-5.2,0-8.3,0-9.2c0-0.9,0.9-1.9,2.8-3.1c-0.3,0.8-0.2,2.1,0.4,3.8
				c0.6,1.7,2.1,4.3,4.6,7.8l2.3-1.5c-2.4-5.9-3.6-8.8-3.6-8.8s1.8-5.4,1.8-6.3C39,16.7,36.8,14.3,32.4,10.2z"/>
			<path id="Path-33" class="st0" d="M27.1,15.6l3.9-1.4l-0.6,4.4c-5.2,2.3-8.2,3.5-8.8,3.5c-0.6,0-1.1-0.5-1.5-1.5l1.5-1.3l5.5-2.2
				V15.6z"/>
			<path id="Path" class="st0" d="M27.8,9.5c0.4,0.2,0.8-0.3,1.1-0.5l0.9-0.9c0,0-0.2-3-0.6-3.8c-0.2-0.5-0.6-0.9-1.1-1.3
				c-1.4-1-3.2-0.4-4.1,0.8c-0.9,1.2-0.6,3.1,0.8,4.1C25.3,8.2,27.8,9.5,27.8,9.5z"/>
			<path id="Path_1_" class="st0" d="M19,8.1c-0.4,0.2-0.8-0.3-1.1-0.5l-0.9-0.9c0,0,0.2-3,0.6-3.8c0.2-0.5,0.6-0.9,1.1-1.3
				c1.4-1,3.2-0.4,4.1,0.8c0.9,1.2,0.6,3.1-0.8,4.1C21.6,6.8,19,8.1,19,8.1z"/>
		</g>
	</g>
</g>
</svg>
