<?xml version="1.0" encoding="utf-8"?>
<!-- Generator: Adobe Illustrator 22.1.0, SVG Export Plug-In . SVG Version: 6.00 Build 0)  -->
<svg version="1.1" id="Calque_1" xmlns="http://www.w3.org/2000/svg" xmlns:xlink="http://www.w3.org/1999/xlink" x="0px" y="0px"
	 viewBox="0 0 60 60" style="enable-background:new 0 0 60 60;" xml:space="preserve">
<style type="text/css">
	.st0{fill:#0082C3;}
</style>
<title>icone blanc</title>
<desc>Created with Sketch.</desc>
<g id="icone-blanc">
	<g id="spelunking" transform="translate(-16.000000, -29.000000)">
		<g id="escrime" transform="translate(25.000000, 41.000000)">
			<path id="Fill-1" class="st0" d="M31.6,11.2c0-0.3-0.2-0.5-0.5-0.5c0,0,0,0,0,0l-1.1,0L21,12c0,0-0.1-0.1-0.3-0.2l0.4-0.1
				c3.2-3.1-0.2-6.2-0.2-6.2l-2.7,0.3c0,0-0.5,0.1-0.7,0.7c-0.2,0.6-1,2.6-1,2.6L17.8,9l1,1.7c-0.5-0.3-0.8-0.5-1-0.6
				c-0.4-0.2-0.9-0.2-1.3,0c-0.3,0.1-5.6,2.3-5.8,2.4c-0.4,0.2-0.6,0.4-0.7,0.8c-0.1,0.3-0.7,2.9-0.9,3.9c-0.2,1,0.3,1.6,0.6,1.7
				l2.2-4.8l3.5-1.1l0,0.3l-1.1,0.4l-0.7,4.7c-1.4,0.5-2.2,2.4-2.2,2.4l-4,3.6c0,0-5.8,3.4-6.9,4c-1.1,0.6-0.4,1.5-0.4,1.5L10.7,26
				l4.6-3.2l6.3-1.1c0,0,1.9,5.7,2.3,7c0.4,1.3,1.4,1.4,1.9,1.3c0,0-1.5-10.2-1.5-10.6c-0.1-0.5-0.3-0.7-0.7-0.7c-0.3,0-4.6,0-4.6,0
				l-0.8,1.1l-0.3,0l2.5-4.3l10.4-3.7h0.4v0C31.4,11.7,31.6,11.5,31.6,11.2 M45.5,11.2c0,0.1-0.1,0.2-0.2,0.2H32.8
				c-0.1,0.5-0.5,0.8-1,0.8c-0.2,0-0.5-0.1-0.7-0.2c0.1,0,0.2,0,0.3,0c0.5,0,0.9-0.4,0.8-0.9c0-0.4-0.3-0.7-0.7-0.7
				c-0.2,0-0.3,0-0.4,0c0.2-0.2,0.5-0.3,0.8-0.2c0.4,0,0.8,0.4,0.9,0.8h12.5C45.4,11,45.5,11.1,45.5,11.2"/>
		</g>
	</g>
</g>
</svg>
