<?xml version="1.0" encoding="utf-8"?>
<!-- Generator: Adobe Illustrator 22.1.0, SVG Export Plug-In . SVG Version: 6.00 Build 0)  -->
<svg version="1.1" id="Calque_1" xmlns="http://www.w3.org/2000/svg" xmlns:xlink="http://www.w3.org/1999/xlink" x="0px" y="0px"
	 viewBox="0 0 60 60" style="enable-background:new 0 0 60 60;" xml:space="preserve">
<style type="text/css">
	.st0{filter:url(#Adobe_OpacityMaskFilter);}
	.st1{fill:#FFFFFF;}
	.st2{mask:url(#mask-2_1_);fill:#0082C3;}
	.st3{fill:#0082C3;}
	.st4{filter:url(#Adobe_OpacityMaskFilter_1_);}
	.st5{mask:url(#mask-4_1_);fill:#0082C3;}
</style>
<title>icone blanc</title>
<desc>Created with Sketch.</desc>
<g id="icone-blanc">
	<g id="spelunking" transform="translate(-16.000000, -29.000000)">
		<g id="beach-tennis" transform="translate(25.000000, 41.000000)">
			<g id="Page-1" transform="translate(2.800000, 0.000000)">
				<g id="Group-3" transform="translate(0.000000, 0.364809)">
					<g id="Clip-2">
					</g>
					<defs>
						<filter id="Adobe_OpacityMaskFilter" filterUnits="userSpaceOnUse" x="0" y="0" width="29.8" height="36">
							<feColorMatrix  type="matrix" values="1 0 0 0 0  0 1 0 0 0  0 0 1 0 0  0 0 0 1 0"/>
						</filter>
					</defs>
					<mask maskUnits="userSpaceOnUse" x="0" y="0" width="29.8" height="36" id="mask-2_1_">
						<g class="st0">
							<polygon id="path-1_1_" class="st1" points="0,0 29.8,0 29.8,36 0,36 							"/>
						</g>
					</mask>
					<path id="Fill-1" class="st2" d="M18.2,6.9c-0.3-1.2-0.7-2.3-0.9-3.4c-0.2-1.3,0.6-2.7,1.7-3.2c1.2-0.5,2.8-0.2,3.6,0.8
						c0.9,1.1,0.9,2.6,0.1,3.7c-0.5,0.7-1,1.3-1.6,1.9c-0.2,0.2-0.2,0.4,0.1,0.5c1.4,0.6,1.8,1.8,1.9,3.3c0.1,1.4,0.4,2.8,0.7,4.2
						c0,0.2,0.1,0.5,0.3,0.7c1.1,1.6,2.2,3.2,3.2,4.8c0.2,0.3,0.9,0.3,1,0.4c1,0.7,2,1,1,1.1c-0.3,0-0.6,0-0.8,0.3
						c-0.1,0.2-0.3,0.2-0.5,0.2c-0.7,0-1.4,0.1-2.1,0.1c-0.8,0-1.2-0.6-0.8-1.3c0.2-0.3,0.1-0.4-0.1-0.6c-1.1-1.1-2.1-2.3-3.2-3.4
						c-0.3-0.3-0.5-0.6-0.6-1c-0.5-1.2-0.9-2.5-1.4-3.8c-0.8,0.6-1.6,1.1-2.3,1.7c-0.3,0.3-0.3,0.8-0.5,1.1c-0.5,0.8-0.3,1.3,0.4,2
						c1.4,1.3,2.6,2.7,4,4c1.1,1,1.6,2.3,1.8,3.7c0.5,3.6,1.1,7.1,1.7,10.7c0.1,0.6,0,0.7-0.6,0.6c-1.1-0.1-1.7-0.8-2-1.8
						c-1-3.1-1.9-6.2-2.9-9.3c-0.1-0.4-0.3-0.7-0.7-0.9c-1.9-1.1-3.8-2.3-5.6-3.4c-0.3-0.2-0.5-0.3-0.6,0.2c-0.3,1.5-0.6,3-0.9,4.6
						c-0.2,0.8-0.5,1.5-1.1,2c-2.2,1.9-4.5,3.9-6.7,5.8c-0.6,0.5-1.2,0.8-1.9,1c-0.3,0.1-0.7,0.1-1,0.1c-0.3,0-0.7-0.1-0.8-0.3
						c-0.1-0.3,0.2-0.4,0.4-0.6c2.2-2.7,4.5-5.4,6.7-8c0.2-0.3,0.3-0.5,0.3-0.9c-0.1-2-0.2-4.1-0.3-6.1c-0.1-2.2,0.5-4,2.1-5.5
						c0.1-0.1,0.3-0.3,0.4-0.4c1.1-1.9,2.3-3.7,3.4-5.6c0.2-0.3,0.1-0.4-0.2-0.5c-1-0.4-2-0.9-2.9-1.3C9.2,4.6,8.4,4.7,7.6,4.6
						C5.7,4.4,3.9,4.2,2,4C1.2,3.9,0.6,3.3,0.5,2.6c-0.1-0.3,0-0.4,0.3-0.4c3,0,5.9-0.1,8.9,0c1.4,0.1,2.7,0.6,4.1,0.9
						c0.8,0.2,1.7,0.3,2.5,0.7C16.6,4.2,17,4.5,17.1,5c0.1,0.5,0.4,1,0.5,1.5C17.8,6.7,17.8,6.9,18.2,6.9"/>
				</g>
				<path id="Fill-4" class="st3" d="M29.6,20.8l-1.7,0.1c-0.5,0-0.8,0.4-0.8,0.9c0,0.2,0.1,0.4,0.3,0.6c0.2,0.2,0.4,0.2,0.6,0.2
					l1.7-0.1c0.2,0.5,0.5,1,0.9,1.4h0c0.1,0.1,0.1,0.1,0.2,0.1l-0.2-4.9C30.1,19.6,29.7,20.1,29.6,20.8"/>
				<g id="Group-8" transform="translate(30.884848, 18.013294)">
					<g id="Clip-7">
					</g>
					<defs>
						<filter id="Adobe_OpacityMaskFilter_1_" filterUnits="userSpaceOnUse" x="0.2" y="0.2" width="5" height="6.5">
							<feColorMatrix  type="matrix" values="1 0 0 0 0  0 1 0 0 0  0 0 1 0 0  0 0 0 1 0"/>
						</filter>
					</defs>
					<mask maskUnits="userSpaceOnUse" x="0.2" y="0.2" width="5" height="6.5" id="mask-4_1_">
						<g class="st4">
							<polygon id="path-3_1_" class="st1" points="0.2,0.2 5.2,0.2 5.2,6.7 0.2,6.7 							"/>
						</g>
					</mask>
					<path id="Fill-6" class="st5" d="M5.2,3.3c0-0.9-0.4-1.7-1.1-2.3S2.6,0.2,1.8,0.2c-0.6,0-1.1,0.2-1.6,0.5l0.2,5.7
						c0.5,0.2,1,0.4,1.6,0.3C3.8,6.7,5.2,5.1,5.2,3.3"/>
				</g>
				<path id="Fill-9" class="st3" d="M31.4,16.6c0.2-0.2,0.6-0.2,0.8,0c0.2,0.2,0.2,0.6,0,0.8c-0.2,0.2-0.6,0.2-0.8,0
					C31.3,17.2,31.2,16.8,31.4,16.6 M32.7,17.7c0.4-0.5,0.4-1.2-0.1-1.6c-0.5-0.4-1.2-0.4-1.6,0.1c-0.4,0.5-0.4,1.2,0.1,1.6
					C31.6,18.2,32.3,18.2,32.7,17.7"/>
			</g>
		</g>
	</g>
</g>
</svg>
