<?xml version="1.0" encoding="utf-8"?>
<!-- Generator: Adobe Illustrator 22.1.0, SVG Export Plug-In . SVG Version: 6.00 Build 0)  -->
<svg version="1.1" id="Calque_1" xmlns="http://www.w3.org/2000/svg" xmlns:xlink="http://www.w3.org/1999/xlink" x="0px" y="0px"
	 viewBox="0 0 60 60" style="enable-background:new 0 0 60 60;" xml:space="preserve">
<style type="text/css">
	.st0{fill:#0082C3;}
</style>
<title>icone blanc</title>
<desc>Created with Sketch.</desc>
<g id="icone-blanc">
	<g id="spelunking" transform="translate(-16.000000, -29.000000)">
		<g id="speedball" transform="translate(25.000000, 41.000000)">
			<path id="Fill-1" class="st0" d="M36.3,17.5c-0.6-0.7-4.4-5.1-4.6-5.4c-0.3-0.3-0.4-0.4-0.7-0.5c-0.2-0.1-2.2-1.1-2.5-1.2
				c-1.3-0.6-1.6-0.7-2.4-0.8c-0.7,0-6.4-0.2-6.4-0.2l-4.4-0.8l1.3-3.9c-0.5,0-1.2-0.2-1.5-0.5c0,0-0.9,1.6-2.2,4.1
				c-0.5,1-0.5,1.8,0.5,2.1c1.7,0.6,4.9,1.7,4.9,1.7l1.1,6.5l-3.2,5.6c0,0-8.3,8-9.8,9.4C4.9,35.3,6,36.4,6,36.4l15.4-11.2h0.6
				l-2.4,1.8l-0.1,1.4l-2.4,0.6L14.2,31c0,0,6.3,0,6.8,0c0.7,0,1.3-0.4,1.6-0.8c0.2-0.4,3.1-6.6,3.5-7.4c0.6-1.1,0.5-2.1,0.3-3.5
				c-0.1-0.8-0.2-1.1-0.2-1.1l0.9-5.1l3.5,1.2l5.8,5.3C36.6,19.4,36.9,18.3,36.3,17.5z M19.9,6.1c-0.1-0.4-0.1-0.9,0-1.4
				c0.3-1.4,1.7-2.1,2.9-1.8c1.2,0.3,2.2,1.6,1.9,2.9c-0.1,0.4-0.4,2-0.6,2.8c-0.1,0.3-0.5,0.3-0.9,0.3c-0.5,0-1,0-1,0
				S20.1,6.8,19.9,6.1z"/>
			<g id="Oval-2">
				<g>
					<circle id="path-1" class="st0" cx="16.1" cy="3.5" r="2.1"/>
				</g>
				<g>
					<circle id="path-1_1_" class="st0" cx="16.1" cy="3.5" r="2.1"/>
				</g>
			</g>
		</g>
	</g>
</g>
</svg>
