<?xml version="1.0" encoding="utf-8"?>
<!-- Generator: Adobe Illustrator 22.1.0, SVG Export Plug-In . SVG Version: 6.00 Build 0)  -->
<svg version="1.1" id="Calque_1" xmlns="http://www.w3.org/2000/svg" xmlns:xlink="http://www.w3.org/1999/xlink" x="0px" y="0px"
	 viewBox="0 0 60 60" style="enable-background:new 0 0 60 60;" xml:space="preserve">
<style type="text/css">
	.st0{filter:url(#Adobe_OpacityMaskFilter);}
	.st1{fill:#FFFFFF;}
	.st2{mask:url(#mask-2_1_);fill:#0082C3;}
	.st3{filter:url(#Adobe_OpacityMaskFilter_1_);}
	.st4{mask:url(#mask-4_1_);fill:#0082C3;}
	.st5{fill:#0082C3;}
	.st6{filter:url(#Adobe_OpacityMaskFilter_2_);}
	.st7{mask:url(#mask-6_1_);fill:#0082C3;}
</style>
<title>icone blanc</title>
<desc>Created with Sketch.</desc>
<g id="icone-blanc">
	<g id="spelunking" transform="translate(-16.000000, -29.000000)">
		<g id="basque" transform="translate(25.000000, 41.000000)">
			<g id="Page-1" transform="translate(-1.400000, 0.000000)">
				<g id="Group-3" transform="translate(11.397980, 5.112582)">
					<g id="Clip-2">
					</g>
					<defs>
						<filter id="Adobe_OpacityMaskFilter" filterUnits="userSpaceOnUse" x="0.2" y="0.2" width="32.2" height="31.1">
							<feColorMatrix  type="matrix" values="1 0 0 0 0  0 1 0 0 0  0 0 1 0 0  0 0 0 1 0"/>
						</filter>
					</defs>
					<mask maskUnits="userSpaceOnUse" x="0.2" y="0.2" width="32.2" height="31.1" id="mask-2_1_">
						<g class="st0">
							<polygon id="path-1_1_" class="st1" points="0.2,0.2 32.4,0.2 32.4,31.3 0.2,31.3 							"/>
						</g>
					</mask>
					<path id="Fill-1" class="st2" d="M7.7,8.6c0.1,0.9,0.2,1.8,0.2,2.6c0.1,0.5-0.2,0.9-0.6,1.1c-2,1.2-4,2.5-5.9,3.8
						c-0.3,0.2-0.7,0.3-1.1,0.3c-0.7-0.1,2.6-3.8,4.6-5.5C5.1,10.7,5,10.5,5,10.3c-0.3-1.3-0.6-2.7-0.8-4C3.9,5.2,4.3,4.4,5.3,3.9
						c2.1-1.1,4.2-2.3,6.3-3.4c1.1-0.6,2.2-0.3,3.2,0.3c0.8,0.5,1.5,1.1,2.2,1.8c1,0.9,2,1.8,3,2.7c0.5,0.5,0.6,0.8,0.3,1.5
						c-0.8,1.5-1.6,3-2.3,4.6c-0.1,0.1-0.3,0.3-0.1,0.4c0.2,0.2,0.3-0.1,0.4-0.2c0.2-0.3,0.4-0.6,0.6-0.8c0.1-0.1,0.2-0.3,0.3,0
						c2.1,2.9,4.7,5.6,6.8,8.5c1.3,1.7,2.4,3.6,3.6,5.4c0.9,1.3,1.7,2.6,2.6,3.9c0.3,0.4,0.1,0.5-0.2,0.6c-0.5,0.2-1,0.2-1.5,0
						c-0.7-0.3-1.2-0.8-1.7-1.3c-1.6-2-3.2-3.9-4.8-5.9c-0.3-0.4-0.6-0.7-1-0.9c-2.4-1.5-4.8-3-7.3-4.6c-0.2-0.2-0.6-0.2-0.8,0
						c-2.1,1.1-4.3,2.3-6.4,3.4c-0.3,0.1-0.5,0.4-0.6,0.7c-1,3-2,6-3,9.1c-0.3,0.8-0.7,1.4-1.6,1.7c-0.6,0.2-0.8,0-0.7-0.6
						c0.6-3.7,1.2-7.5,1.8-11.2c0.1-0.8,0.5-1.5,1.1-2.1c1.6-1.7,3.1-3.4,4.7-5.1c0.2-0.2,0.3-0.5,0.2-0.8c-0.2-0.9-0.8-1.7-1.7-2.1
						C8.4,9.1,8.1,8.8,7.7,8.6"/>
				</g>
				<g id="Group-6" transform="translate(14.707071, 0.332784)">
					<g id="Clip-5">
					</g>
					<defs>
						<filter id="Adobe_OpacityMaskFilter_1_" filterUnits="userSpaceOnUse" x="0.1" y="0" width="6.4" height="6.4">
							<feColorMatrix  type="matrix" values="1 0 0 0 0  0 1 0 0 0  0 0 1 0 0  0 0 0 1 0"/>
						</filter>
					</defs>
					<mask maskUnits="userSpaceOnUse" x="0.1" y="0" width="6.4" height="6.4" id="mask-4_1_">
						<g class="st3">
							<polygon id="path-3_1_" class="st1" points="0.1,0 6.5,0 6.5,6.5 0.1,6.5 							"/>
						</g>
					</mask>
					<path id="Fill-4" class="st4" d="M0.1,3C0,1.6,1,0.4,2.3,0.1C3.7-0.2,5,0.6,5.5,1.8c0.4,1,0.6,2,0.9,2.9c0.1,0.4-0.1,0.9-0.5,1
						C5.6,6,5.2,6.2,4.8,6.4c-0.2,0.1-0.3,0.1-0.5,0c-0.9-0.3-1.7-0.6-2.6-1C0.7,5,0.1,4.1,0.1,3"/>
				</g>
				<path id="Fill-7" class="st5" d="M28.6,12.9l-1.3-2.2l0-0.1c0.5,0.3,1.1,0.7,1.6,1c0.1,0.1,0.1,0.2,0,0.3
					C28.8,12.2,28.7,12.5,28.6,12.9"/>
				<g id="Group-11" transform="translate(0.000000, 18.348946)">
					<g id="Clip-10">
					</g>
					<defs>
						<filter id="Adobe_OpacityMaskFilter_2_" filterUnits="userSpaceOnUse" x="0" y="0" width="14.8" height="10.4">
							<feColorMatrix  type="matrix" values="1 0 0 0 0  0 1 0 0 0  0 0 1 0 0  0 0 0 1 0"/>
						</filter>
					</defs>
					<mask maskUnits="userSpaceOnUse" x="0" y="0" width="14.8" height="10.4" id="mask-6_1_">
						<g class="st6">
							<polygon id="path-5_1_" class="st1" points="0,0 14.8,0 14.8,10.4 0,10.4 							"/>
						</g>
					</mask>
					<path id="Fill-9" class="st7" d="M0,5.8C-0.2,6,1.5,7.2,2,7.6C2.6,8,2.7,8.5,4.1,9.5c1.4,1,3.3,1.3,5.3,0.3
						c2.1-1,1.8-2.8,1.6-3.2c-0.1-0.4,0.3-1.4,0.4-1.6c0.1-0.1,0.5-0.2,0.5-0.2l1-1.4c0.3-0.3,1.9-2.3,1.9-2.6c0-0.3,0-0.7-0.4-0.8
						s0-0.7-2.5,2.7c-3.2,4-4.4,4.7-6,5.2C4.1,8.5,0.5,5.7,0.5,5.7C0.3,5.6,0.1,5.7,0,5.8"/>
				</g>
				<path id="Fill-12" class="st5" d="M3,22.9c0.3,0,0.6,0.3,0.6,0.6c0,0.3-0.3,0.6-0.6,0.6s-0.6-0.3-0.6-0.6
					C2.5,23.2,2.7,22.9,3,22.9"/>
			</g>
		</g>
	</g>
</g>
</svg>
