<?xml version="1.0" encoding="utf-8"?>
<!-- Generator: Adobe Illustrator 22.1.0, SVG Export Plug-In . SVG Version: 6.00 Build 0)  -->
<svg version="1.1" id="Calque_1" xmlns="http://www.w3.org/2000/svg" xmlns:xlink="http://www.w3.org/1999/xlink" x="0px" y="0px"
	 viewBox="0 0 60 60" style="enable-background:new 0 0 60 60;" xml:space="preserve">
<style type="text/css">
	.st0{fill:#0082C3;stroke:#FFFFFF;stroke-miterlimit:10;}
	.st1{fill:#FFFFFF;stroke:#0082C3;stroke-miterlimit:10;}
</style>
<title>icone blanc</title>
<desc>Created with Sketch.</desc>
<g id="icone-blanc">
	<g id="spelunking" transform="translate(-16.000000, -29.000000)">
		<g id="pool" transform="translate(25.000000, 41.000000)">
			<circle id="Oval" class="st0" cx="5.6" cy="28" r="1.4"/>
			<path id="Path-4" class="st0" d="M34.5,19.4c-3.1-4.1-5.1-6.2-6.1-6.2s-1.6-1.3-2-3.9c-0.8-1.5-1.7-1.7-2.6-0.5S22,11.2,21,12.5
				c-0.9,3.4-1.5,5.5-1.9,6.3c-0.6,1.1-1.5,3.7-2.2,3.7c-0.5,0-2.9,0.4-7.1,1.2l0.8,2.3l7.8-0.6c2.6-3,4-4.7,4.4-5.2
				C23.2,19.7,27.1,19.4,34.5,19.4z"/>
			<path id="Line" class="st1" d="M9.1,24.5l28-18.2"/>
			<path id="Path" class="st0" d="M18,15.1c0.4,0.2,0.8-0.3,1.1-0.5l0.9-0.9c0,0-0.2-3-0.6-3.8c-0.2-0.5-0.6-0.9-1.1-1.3
				c-1.4-1-3.2-0.4-4.1,0.8c-0.9,1.2-0.6,3.1,0.8,4.1C15.5,13.8,18,15.1,18,15.1z"/>
		</g>
	</g>
</g>
</svg>
