<?xml version="1.0" encoding="utf-8"?>
<!-- Generator: Adobe Illustrator 22.1.0, SVG Export Plug-In . SVG Version: 6.00 Build 0)  -->
<svg version="1.1" id="Calque_1" xmlns="http://www.w3.org/2000/svg" xmlns:xlink="http://www.w3.org/1999/xlink" x="0px" y="0px"
	 viewBox="0 0 60 60" style="enable-background:new 0 0 60 60;" xml:space="preserve">
<style type="text/css">
	.st0{fill:#0082C3;}
</style>
<title>icone blanc</title>
<desc>Created with Sketch.</desc>
<g id="icone-blanc">
	<g id="spelunking" transform="translate(-16.000000, -29.000000)">
		<g id="canoe" transform="translate(25.000000, 41.000000)">
			<path id="Fill-1" class="st0" d="M29.7,24.4c-0.1,0.1-0.1,0.2,0,0.3l3.3,3.5c0,0,0.1,0.1,0.1,0.1c0,0,0.1,0,0.1-0.1
				c0.1-0.1,0.1-0.2,0-0.3L30,24.4C29.9,24.3,29.8,24.3,29.7,24.4z M14.8,9C14.9,9,14.9,9,15,9c0,0,0.1,0,0.1-0.1
				c0.1-0.1,0.1-0.2,0-0.3l-3.3-3.5c-0.1-0.1-0.2-0.1-0.3,0c-0.1,0.1-0.1,0.2,0,0.3L14.8,9z M11.3,25.7l0.4-2.1
				c0.1-0.7,0.2-3.4,0.2-3.4s-0.8-2.6-1-3.2c-0.3-0.9-0.3-1.3,0.7-2.1c0.5-0.3,3.3-2.4,4.9-3.7l-1.2-1.2l-0.3,0.2
				c-0.2,0.2-0.4,0.3-0.7,0.3c-0.3,0-0.5-0.1-0.7-0.3l-4.3-4l0,0C9.3,6,9.2,5.8,9.2,5.5l0,0c0-0.3,0.1-0.5,0.3-0.7l2-1.8
				c0.2-0.2,0.4-0.3,0.7-0.3c0.3,0,0.5,0.1,0.7,0.3l0,0l3.6,4.7c0.2,0.2,0.2,0.4,0.2,0.7c0,0.3-0.1,0.5-0.3,0.7l-0.3,0.3l1.2,1.3
				c0.3-0.3,0.5-0.4,0.5-0.4s0.3,0.6,0.2,1.2l9,9.4l0.6-0.1c0,0,0.2,0.4,0.1,0.9l1.5,1.6l0.3-0.3c0.4-0.4,1-0.3,1.4,0.1l4.3,4l0,0
				c0.2,0.2,0.3,0.5,0.3,0.7l0,0c0,0.3-0.1,0.5-0.3,0.7l-0.7,0.6l-0.7-0.2l0.9-0.8c0.1-0.1,0.1-0.2,0.1-0.3c0-0.1,0-0.2-0.1-0.3
				l-4.3-4l0,0c-0.1-0.2-0.4-0.2-0.6,0l-1.3,1.1c-0.1,0.1-0.1,0.2-0.1,0.3c0,0.1,0,0.2,0.1,0.3l0,0l2.2,2.9l-1-0.3l-1.7-2.2
				c-0.2-0.2-0.2-0.4-0.2-0.7c0-0.3,0.1-0.5,0.3-0.7l0.3-0.2l-1.4-1.5c0,0-0.1,0-0.1,0c-0.3,0.1-0.6,0.2-0.9,0.3l0,0
				c0,0-2.2,0.9-2.6,1C22.9,24,22.8,24,22,23.9c-0.6-0.1-3.4-0.8-3.4-0.8L18,23.8L17.3,26c0,0-0.7,0.6-2.8,0.6
				C12.4,26.6,11.3,25.7,11.3,25.7z M39.3,31.3l-16.1-4.9c0,0-0.1,0-0.2,0l-4.9-0.2c-0.2,0.3-0.6,0.5-1.1,0.7c0,0,0,0,0,0
				c-0.1,0.1-0.3,0.1-0.4,0.1l0,0c-0.1,0-0.3,0.1-0.4,0.1c-0.5,0.1-1,0.1-1.5,0.1c-0.1,0-0.2,0-0.4,0c-1,0-2-0.3-2.7-0.7
				c-0.5-0.2-0.8-0.5-1-0.8l-8.7-0.4c-1,0-0.5,0.5,0.7,1.5c1.2,1.1,4.6,3.2,7.7,4.3c3.1,1.1,8,2.4,10.7,2.8c2.7,0.4,5.6,0.7,8,0.7
				c2.4,0,5.9,0.1,9.7-0.7C42.7,33.2,42.8,32.2,39.3,31.3z M11.5,5.5L14.8,9C14.9,9,14.9,9,15,9c0,0,0.1,0,0.1-0.1
				c0.1-0.1,0.1-0.2,0-0.3l-3.3-3.5c-0.1-0.1-0.2-0.1-0.3,0C11.4,5.3,11.4,5.4,11.5,5.5z M14.2,9.9L14.2,9.9c0.2,0.2,0.4,0.2,0.6,0
				L16,8.8c0.1-0.1,0.1-0.2,0.1-0.3c0-0.1,0-0.2-0.1-0.3l0,0l-3.6-4.7c-0.1-0.1-0.2-0.1-0.3-0.1c-0.1,0-0.2,0-0.3,0.1l-2,1.8
				C9.9,5.3,9.8,5.4,9.8,5.5c0,0.1,0,0.2,0.1,0.3L14.2,9.9z M16.7,13.3c0.9,0.1,1.6,0.6,2,1.1c0.7,0.8,0.4,2.1,0.4,2.1l-0.4-0.1
				c0,0.2-0.1,0.4-0.2,0.5c-0.2,0.3-0.8,1.5-1.1,2.1c-0.1,0.3-0.4,0.1-0.8,0c-0.4-0.1-0.8-0.2-0.8-0.2s-0.3-0.6-0.7-1.2h-0.3
				c0,0-0.5-1-0.8-1.6c-0.4,0.4-0.6,0.6-0.6,0.6l0.9,2.3l4.7,1.5l3.5,1.7l3.5-0.8l-8.4-8.8C17.4,12.6,17.1,12.9,16.7,13.3z"/>
		</g>
	</g>
</g>
</svg>
