<?xml version="1.0" encoding="utf-8"?>
<!-- Generator: Adobe Illustrator 22.1.0, SVG Export Plug-In . SVG Version: 6.00 Build 0)  -->
<svg version="1.1" id="Calque_1" xmlns="http://www.w3.org/2000/svg" xmlns:xlink="http://www.w3.org/1999/xlink" x="0px" y="0px"
	 viewBox="0 0 60 60" style="enable-background:new 0 0 60 60;" xml:space="preserve">
<style type="text/css">
	.st0{fill:#0082C3;}
</style>
<title>icone blanc</title>
<desc>Created with Sketch.</desc>
<g id="icone-blanc">
	<g id="spelunking" transform="translate(-16.000000, -29.000000)">
		<g id="paddleboard" transform="translate(25.000000, 41.000000)">
			<path id="Fill-1" class="st0" d="M34.9,35.3l-2-5.4c-0.1-0.1-0.2-0.2-0.4-0.2c-0.1,0.1-0.2,0.2-0.2,0.4l1.9,5.1
				c-0.5-0.1-1-0.1-1.5-0.2l-1.6-5.9l0,0c0,0,0-0.1,0-0.2c0-0.1,0.1-0.1,0.1-0.1l1.5-0.5c0.1,0,0.3,0,0.3,0.1l0,0l3.1,6.9
				C35.8,35.4,35.4,35.4,34.9,35.3z M30.5,29.4l0.4,1.6c-3.4-0.4-7.4-0.7-11.5-1L20,25c0-0.2,0-0.5,0-0.7l-1.4-6.2l0.9-3l1.6-2.6
				c0,0,1.5,2,1.9,2.5c0.3,0.4,0.4,0.5,0.9,0.6c0.8,0.1,2.5,0.3,3.3,0.4c0.1,0,0.1,0,0.2,0l4,11.9l-0.3,0.1
				c-0.3,0.1-0.5,0.3-0.6,0.5C30.4,28.9,30.4,29.2,30.5,29.4z M16.3,29.9c0.5-2,1-4.2,1.2-5.3l0.2,0.3c0,0,0.1,2.9,0.1,5.1
				C17.3,29.9,16.8,29.9,16.3,29.9z M19.4,6.1C19.7,6.7,20,7.2,20,7.2l1,0.5c0,0,0.6,0.3,0.8,0c0.3-0.6,0.8-1.7,1-2.1
				c0.5-1,0-2.2-0.9-2.6c0,0-0.1,0-0.1,0c0.4-0.5,0.8-1,1-1.1L27,14.8L24.3,14l-1.2-3.1c-0.3-1.1-0.6-1.9-1.7-2.4l-2.5-1.3L19.4,6.1
				z M41.2,34.9c-0.1-0.2-0.3-0.2-0.4-0.1c0,0-1.3,0.6-3.7,0.7l-0.7-1.5l0,0h4.3c0,0,0.1-0.8-1.3-1.4c-0.7-0.3-2.1-0.6-4-0.9
				l-1.5-3.4c-0.1-0.4-0.5-0.7-1-0.7c-0.1,0-0.2,0-0.3,0.1l-0.5,0.2l-4-11.9c0.3-0.3,0.3-0.7,0.3-0.7L27.8,15L23.2,1.1
				C23.4,0.3,22.8,0,22.8,0l-4.1,3.8l-2.9,3.6l-0.5,4.4c-0.3,2.3-2.5,4.5-1.6,6.9c0.6,1.8,1.6,4.9,1.6,4.9l-0.7,6.1
				c-0.8,0-1.5,0-2.3,0c-6.6,0-8.4,1-9.7,2.3c-0.7,0.7-1,1.7-1,1.7h30.3l0,0L32,35c-3.9-0.2-5.8,0.7-5.9,0.7
				c-0.2,0.1-0.2,0.3-0.1,0.4c0.1,0.1,0.2,0.2,0.3,0.2c0,0,0.1,0,0.1,0c0,0,2.5-1.2,7.9-0.4c4.4,0.6,6.7-0.5,6.8-0.6
				C41.2,35.2,41.3,35,41.2,34.9z"/>
		</g>
	</g>
</g>
</svg>
