<?xml version="1.0" encoding="utf-8"?>
<!-- Generator: Adobe Illustrator 22.1.0, SVG Export Plug-In . SVG Version: 6.00 Build 0)  -->
<svg version="1.1" id="Calque_1" xmlns="http://www.w3.org/2000/svg" xmlns:xlink="http://www.w3.org/1999/xlink" x="0px" y="0px"
	 viewBox="0 0 60 60" style="enable-background:new 0 0 60 60;" xml:space="preserve">
<style type="text/css">
	.st0{fill:#0082C3;}
</style>
<title>icone blanc</title>
<desc>Created with Sketch.</desc>
<g id="icone-blanc">
	<g id="spelunking" transform="translate(-16.000000, -29.000000)">
		<g id="planche-a-voile" transform="translate(25.000000, 41.000000)">
			<path id="Fill-1" class="st0" d="M35.5,35.7v0.7c-7.5,0-11.3-0.8-15-1.6C16.8,34,13,33.2,5.6,33.2v-0.7c4.2,0,7.2,0.3,9.7,0.6
				c0-0.2,0-0.4,0-0.7c0.1-1.3,1.5-2.8,2.8-3.7c-2-1.3-6.4-4.5-8.7-7.7l-0.1-0.1l0-0.2c0.4-2.3,8.5-16.5,9.1-17.6
				C19,2.4,20,1.7,21.7,1C22.9,0.5,24,0.2,24,0.2L24.6,0l-2.4,14.2l2.3,0.9h2.3c0.5,0,0.5,0,0.9,0.5c0.3,0.3,0.5,0.8,0.5,1.4
				c-0.1,1.1-0.9,4.1-0.9,4.1s0,0.6-0.1,1.3c-0.1,1.9-1.3,2.5-1.3,2.5l-2.4,3.2l-0.1,2.5c0.5,0.6,0.8,1.3,0.9,2
				c0.1,0.7-0.1,1.2-0.4,1.5c-1.4-0.2-3.6-0.7-4.3-1.6c-0.4,0.5-1.3,0.9-2.3,1.1c1.1,0.2,2.2,0.4,3.2,0.6
				C24.3,34.9,28.1,35.7,35.5,35.7z M25.6,14.5c0,0.2,0.3,0.2,0.6,0.2c0.3,0,0.6,0,0.6,0s1.3-1.2,1.5-1.7c0.1-0.3,0.1-0.6,0.1-0.9
				c-0.2-0.9-1-1.4-1.8-1.2c-0.8,0.1-1.4,0.9-1.2,1.8C25.3,13,25.5,14,25.6,14.5z M20.6,18.9c0,0-1.6-0.1-1.6-0.1l-8.5,2.2
				c2.4,3.1,8.5,7.2,8.5,7.2L20.6,18.9z M20.7,28.3c0.3,0.1,0.7,0.3,1,0.6c0-0.4,0-0.6,0-0.7c0-0.5,0-0.5,0.2-0.8
				c0.2-0.4,0.5-1.3,0.5-1.3l-1.5,1.4L20.7,28.3z M17.9,17.8l4.5-0.3l1.6-0.9l-2-1.1l-0.2,1.4l-0.8,0l2.7-15.9
				c-1.4,0.4-3.8,1.4-4.4,2.4c-1.3,2.2-7.7,13.5-8.8,16.7l7.7-2C18,18,17.9,17.8,17.9,17.8z M23.5,18.8c-0.6,0.2-0.7,0.3-1.3,0.2
				c-0.2,0-0.8,0-0.8,0l-1,6.2l2.9-3.2l0.5-1.8l0.2-1.5C23.8,18.7,23.6,18.8,23.5,18.8z"/>
		</g>
	</g>
</g>
</svg>
