<?xml version="1.0" encoding="utf-8"?>
<!-- Generator: Adobe Illustrator 22.1.0, SVG Export Plug-In . SVG Version: 6.00 Build 0)  -->
<svg version="1.1" id="Calque_1" xmlns="http://www.w3.org/2000/svg" xmlns:xlink="http://www.w3.org/1999/xlink" x="0px" y="0px"
	 viewBox="0 0 60 60" style="enable-background:new 0 0 60 60;" xml:space="preserve">
<style type="text/css">
	.st0{fill:#0082C3;}
</style>
<title>icone blanc</title>
<desc>Created with Sketch.</desc>
<g id="icone-blanc">
	<g id="spelunking" transform="translate(-16.000000, -29.000000)">
		<g id="landkite" transform="translate(25.000000, 41.000000)">
			<path id="Fill-1" class="st0" d="M17.2,15.8l-1.9-0.3c0.1,0.2,0.1,0.4,0,0.8c-0.1,0.4-0.5,1.7-0.5,1.7l2.2,0.9L17.2,15.8z
				 M14.5,27.2l-1.9,0.4l0.5,4.9l3.1-1.3L14.5,27.2z M31.7,10.2c-1.1,0.2-2.6,0.4-3.5,0.6c-2,0.3-2.9,0.1-3.3-1.3
				c-0.1-0.3-0.2-0.6-0.3-1l-6.4,7l1.2,0.2c0.1,0,0.2,0.1,0.2,0.3c0,0.1-0.1,0.2-0.2,0.2c0,0,0,0,0,0l-1.5-0.3
				c0.1,0.1,0.2,0.3,0.2,0.5c0,0.6,0.1,2.3,0.1,3.2c0,0.5-0.2,1.2-1,1c-0.5-0.1-0.9-0.2-1-0.2c0.3,0.8,1.4,3.2,1.6,3.6
				c0.5,1.1,0.7,2.3-0.7,2.6c-0.3,0.1-0.7,0.2-0.7,0.2s0.6,2.5,0.6,2.9c0.1,0.4,0.2,0.9,0.1,1.3l1.3-0.5c0,0,0-0.1,0-0.1
				c-0.3-0.7,0-1.5,0.7-1.8c0.7-0.3,1.5,0,1.8,0.7c0.2,0.4,0.1,0.8-0.1,1.2c0,0,0.1,0.1,0.1,0.1c0.3,0.7,0,1.5-0.7,1.8
				c-0.7,0.3-1.5,0-1.8-0.7c0,0,0-0.1,0-0.1L11,34.5c0.3,0.7,0,1.5-0.7,1.7c-0.7,0.3-1.5,0-1.8-0.7c-0.2-0.4-0.1-0.8,0.1-1.2
				c0,0-0.1-0.1-0.1-0.1c-0.3-0.7,0-1.5,0.7-1.8c0.7-0.3,1.5,0,1.8,0.7c0,0.1,0.1,0.1,0.1,0.2l0.7-0.3c0,0-0.9-4.6-1-5.2
				c-0.2-1-0.1-1.5,0.7-1.9c0.7-0.4,1.9-1,1.9-1S11,21,10.5,20.2c-0.5-0.9-0.5-1.7,0.1-1.8c0.4-0.1,1.9-0.5,2.5-0.7
				c0.2-0.1,0.4-0.1,0.6,0l1-2.4l-1-0.2c-0.1,0-0.2-0.1-0.2-0.3c0-0.1,0.1-0.2,0.3-0.2l1,0.2l1.4-8c0,0-0.1,0-0.1,0
				C15.2,6.9,15,6.7,15,5.7c0.1-2.6,1.5-4.8,3.3-4.8c0,0,0,0,0,0c1.5,0,2.9,1.1,3.8,2.6c0.1,0.1,0,0.2-0.1,0.2
				c-1.4-0.5-2,1.4-2.1,2.1c0,0.4-0.1,0.4-0.5,0.5c-0.7,0.1-1.8,0.3-2.6,0.4l-1.4,8.2l0.8,0.2l5.2-10.8c0.1-0.1,0.2-0.2,0.3-0.1
				c0.1,0.1,0.2,0.2,0.1,0.3l-5.1,10.7l1,0.2l6.9-7.5c-0.8-2.6-2.2-6.3-5.1-7.2c-0.1,0-0.1-0.2,0-0.2l4-0.3c1-0.1,2-0.1,2.5-0.2
				c4.2-0.3,6.1,6.8,6.5,8.7C32.7,9.8,32.6,10,31.7,10.2z M9.1,15.6c-0.1-0.7,0.5-1.4,1.5-1.7c1.1-0.3,1.8,0.4,2.1,0.9l-0.4,0.3
				c0,0.1,0.1,0.2,0.1,0.3c0,0.3,0.2,1.2,0.2,1.7c0,0.2-0.2,0.3-0.5,0.3c-0.3,0.1-0.7,0.2-0.7,0.2s-1-0.4-1.5-0.8L10,17
				C9.6,16.7,9.2,16.2,9.1,15.6z"/>
		</g>
	</g>
</g>
</svg>
