<?xml version="1.0" encoding="utf-8"?>
<!-- Generator: Adobe Illustrator 22.1.0, SVG Export Plug-In . SVG Version: 6.00 Build 0)  -->
<svg version="1.1" id="Calque_1" xmlns="http://www.w3.org/2000/svg" xmlns:xlink="http://www.w3.org/1999/xlink" x="0px" y="0px"
	 viewBox="0 0 60 60" style="enable-background:new 0 0 60 60;" xml:space="preserve">
<style type="text/css">
	.st0{fill:#0082C3;}
</style>
<title>icone blanc</title>
<desc>Created with Sketch.</desc>
<g id="icone-blanc">
	<g id="spelunking" transform="translate(-16.000000, -29.000000)">
		<g id="ski-nautique" transform="translate(25.000000, 41.000000)">
			<path id="Fill-1" class="st0" d="M19.1,33.5l-2.5-8.2l-2.4-2.1c0,0,0.9,2.2,1,2.3c0.1,0.2,0.1,0.3,0.1,0.4c0,0.2-0.1,7.5-0.1,7.5
				c0.8,0,1.6,0.1,2.4,0.1L19.1,33.5z M14,9.9l0.1,0.6l6.6,1.4l0.6-0.4L14,9.9z M39.4,34.1c-0.1,0-1.6,0.8-4.4,1.4
				c-2.6,0.5-6.8,0.9-12.2-0.1c-6.6-1.2-11.6-0.9-14.6-0.4c-3.3,0.5-5,1.4-5,1.4l-0.5-0.9c0.1,0,1.8-0.9,5.2-1.4
				c1.2-0.2,2.8-0.4,4.7-0.4l-0.2-7.2L9,21.6c0,0-1.8-1.7-2.1-3.4c-0.3-1.8,0.7-3.7,0.7-3.7l-1.5-0.4c0,0,1.1-4.7,1.3-5.7
				c0.2-1,1.1-1.9,2.1-2.1c1-0.2,2.4-0.1,3.6,0.4c1,0.5,3.6,2,3.6,2l6.1,1.9l0.6-0.4c0.2-0.1,0.5-0.1,0.6,0.1
				c0.1,0.2,0.1,0.5-0.1,0.6l-1.4,0.9H39l-0.3,0.6H21.5l-3.3,2.1c-0.1,0-0.2,0.1-0.2,0.1c-0.1,0-0.3-0.1-0.4-0.2
				c-0.1-0.2-0.1-0.5,0.1-0.6l1.1-0.7c-0.1,0-0.2,0-0.3,0c-1.1-0.1-3-0.4-4.4-0.6l-0.5,2.8L12,15.1l0,0.3l1,0.3l0,1.3
				c0,0,5.3,6,5.5,6.2c0.2,0.3,0.3,0.5,0.4,0.8c0.1,0.2,2.1,9.3,2.1,9.3l6.9-0.7c0.4-0.1,2.7,0,6.3-3c0.3-0.2,0.6-0.2,0.9,0.1
				c0.2,0.3,0.2,0.6-0.1,0.9c-4,3.2-6.6,3.2-6.9,3.2l0,0l-5,0.5c5.2,0.9,9.3,0.6,11.7,0.1c2.7-0.5,4.2-1.3,4.2-1.3L39.4,34.1z
				 M9.9,3.3C9.7,2.9,9.7,2.4,9.8,1.9C10,0.6,11.4-0.2,12.6,0c1.2,0.2,2.1,1.5,1.9,2.8c-0.1,0.4-0.3,1.9-0.5,2.7
				c-0.1,0.3-0.4,0.3-0.9,0.3c-0.5,0-1,0-1,0S10.1,3.9,9.9,3.3z"/>
		</g>
	</g>
</g>
</svg>
