<?xml version="1.0" encoding="utf-8"?>
<!-- Generator: Adobe Illustrator 22.1.0, SVG Export Plug-In . SVG Version: 6.00 Build 0)  -->
<svg version="1.1" id="Calque_1" xmlns="http://www.w3.org/2000/svg" xmlns:xlink="http://www.w3.org/1999/xlink" x="0px" y="0px"
	 viewBox="0 0 60 60" style="enable-background:new 0 0 60 60;" xml:space="preserve">
<style type="text/css">
	.st0{fill:#0082C3;}
</style>
<title>icone blanc</title>
<desc>Created with Sketch.</desc>
<g id="icone-blanc">
	<g id="spelunking" transform="translate(-16.000000, -29.000000)">
		<g id="wakeboard" transform="translate(25.000000, 41.000000)">
			<path id="Fill-1" class="st0" d="M38.7,34.2c-0.1,0-1.5,0.8-4.1,1.3c-2.4,0.5-6.4,0.9-11.5-0.1c-6.3-1.1-11-0.8-13.8-0.4
				c-3.1,0.5-4.7,1.3-4.7,1.3l-0.4-0.9c0.1,0,1.7-0.8,4.9-1.4c0.6-0.1,1.3-0.2,2-0.3l5.9-3.4c0,0-1.4-7.3-1.6-8.1
				c-0.2-1.2-0.2-2,0.9-2.6c0.9-0.5,3.5-1.9,3.5-1.9l-0.7-1.3l0.6-0.4L19.6,16l-1.7,0.4l-0.8-2.5c0,0-1.4,0.6-2.3,0.9
				c-0.8,0.3-1.6,0-1.7-0.8c-0.2-1.2-0.3-3.1-0.3-3.9c0-0.4,0-0.7,0.1-1l-0.3-0.4c0,0-0.1-1.2,0.7-2c0.5-0.5,1.2-0.8,2.2-0.8
				l0.3,0.4c0.6-0.1,2.2-0.4,2.8-0.6l0.1-0.5c0.9-0.5,1.7-0.7,2.3-0.5c1.1,0.3,1.6,1.4,1.6,1.4l0,0.4c0.8,0.8,1.6,2,2.5,3.2
				l13.3-3.5l0,0.7l-17.4,4.7L21,12l4.8-1.1c0.3,0.6,0.6,1.4-0.1,1.9l0.6,0.7l-1.8,0.8l0.2,0.2l1.2-0.4c0.3,0.7,0.8,1.6,1,2
				c0.4,1,1,3.5-1.1,4.2c-0.7,0.2-1.1,0.4-1.1,0.4l1.4,4.6l4.1-2.3c0,0,1.8-1.1,3.5-0.6c1.5,0.4,2.4,0.9,2.4,0.9s0.7,0.9-0.8,2.5
				c-1.8,1.9-7.2,5.2-14.8,8.3c0.9,0.1,1.8,0.3,2.8,0.4c4.9,0.9,8.7,0.5,11.1,0.1c2.5-0.5,3.9-1.2,3.9-1.2L38.7,34.2z M15.4,12.5
				l1.1-0.2l-0.8-2.2L15.4,12.5z M21.1,20.4L21.1,20.4c0,0-0.3-0.5,0.2-1c0.1-0.1,0.2-0.2,0.4-0.2l0-0.5c-0.2,0.1-0.5,0.3-0.6,0.4
				c-0.6,0.4-0.6,0.9-0.4,1.5c0.2,0.6,0.5,1.1,0.5,1.1l-2.6,0.6l0.8,6.9l1-0.6l3.4-1.9L21.1,20.4z M12.8,2.8c-0.2-1.4,0.8-2.6,2-2.8
				c1.2-0.2,2.6,0.6,2.8,2c0.1,0.4,0.3,1.9,0.5,2.7c0.1,0.3-0.3,0.6-0.8,0.7c-0.6,0.1-1.2,0.2-1.2,0.2s-2.3-1-2.8-1.5
				C13.1,3.7,12.9,3.3,12.8,2.8z"/>
		</g>
	</g>
</g>
</svg>
