<?xml version="1.0" encoding="utf-8"?>
<!-- Generator: Adobe Illustrator 22.1.0, SVG Export Plug-In . SVG Version: 6.00 Build 0)  -->
<svg version="1.1" id="Calque_1" xmlns="http://www.w3.org/2000/svg" xmlns:xlink="http://www.w3.org/1999/xlink" x="0px" y="0px"
	 viewBox="0 0 60 60" style="enable-background:new 0 0 60 60;" xml:space="preserve">
<style type="text/css">
	.st0{fill:#0082C3;}
</style>
<title>icone blanc</title>
<desc>Created with Sketch.</desc>
<g id="icone-blanc">
	<g id="spelunking" transform="translate(-16.000000, -29.000000)">
		<g id="bateau" transform="translate(25.000000, 41.000000)">
			<path id="Shape" class="st0" d="M25.3,32.3c-0.4-0.1-0.5,0-0.6,0.3c-0.1,0.2-0.1,0.5-0.1,0.7c0.1,0.4-0.1,0.7-0.5,0.9
				c-1.5,0.9-3.2,1.6-5,1.8c-0.6,0.1-1.1,0-1.7-0.1c-0.8-0.3-1.4-1.1-1.4-1.9c0-0.2,0-0.4,0-0.6c-0.1-1.1,0.8-2.1,1.9-2.2
				c0.2,0,0.5,0,0.7,0c2,0,4,0,5.9,0c0.2,0,0.4,0,0.4-0.3c0.1-3.1,0.3-6.1,0.4-9.2c0-0.3,0-0.4-0.4-0.4c-2.5,0.3-5,0.6-7.5,1
				c-1,0.2-2,0.1-3,0.2c-0.2,0-0.3,0-0.5-0.1l-1.6-0.8c0,0.6,0.1,1.3,0.3,1.9c0.1,0.6,0.6,1.1,1.2,1.3c0.7,0.2,1.4,0.5,2,0.8
				c0.4,0.1,0.8,0.4,1,0.8c0.8,1.3,1.5,2.7,2.3,4c0.1,0.3,0.1,0.3-0.2,0.3c-0.6,0-1.2-0.1-1.8,0.2c-0.2,0.1-0.3-0.1-0.3-0.2
				c-0.6-0.7-1.2-1.4-1.7-2.1c-0.1-0.2-0.3-0.3-0.6-0.4c-0.9-0.3-1.8-0.5-2.7-0.8c-1.1-0.3-1.8-0.9-2-2C10,25,9.9,24.7,9.8,24.4
				c-0.2-0.6-0.4-1.1,0-1.7c0.1-0.1,0.1-0.2,0-0.4c-0.3,0.5-0.6,1-0.8,1.5c-0.2,0.5-0.6,0.9-1,1.2c-0.4,0.3-0.7,0.6-1.1,0.9
				c-0.2,0.2-0.4,0.3-0.7,0.4c-0.2,0.1-0.5,0.1-0.6-0.1s0.1-0.3,0.3-0.4c1.2-1.1,2.2-2.4,2.7-4c0.1-0.2,0.2-0.4,0.3-0.6
				c0.2-0.4,0.6-0.7,1-0.8c0.6-0.1,1.2-0.3,1.7-0.5c0.3-0.1,0.5,0,0.8,0.1c0.3,0.2,0.6,0.3,0.9,0.5c0.9,0.8,2,0.9,3.2,1.1
				c1.5,0.2,3-0.1,4.5-0.3c1.5-0.2,2.9-0.4,4.3-0.5c0.3,0,0.3-0.1,0.4-0.4c0.2-4.2,0.3-8.5,0.5-12.7c0.1-2.5,0.2-5,0.3-7.5
				c0-0.2,0-0.4,0.3-0.2c1.3,0.7,2.5,1.5,3.5,2.4C31,3,31.5,3.8,31.7,4.6c1.6,5,3.1,10,4.4,15.1c0.2,0.8,0.4,1.7,0.5,2.6
				c0,0.3-0.1,0.5-0.3,0.7c-1.6,1.4-3.4,2.4-5.2,3.4c-1.6,0.8-3.2,1.5-4.8,2.1c-0.2,0-0.4,0.2-0.3,0.4c0,0.6,0,1.3-0.1,1.9
				c0,0.2,0.1,0.3,0.3,0.3c0.1,0,0.2,0,0.3,0h9.3c0.2,0,0.4-0.1,0.5,0.1c0.1,0.2-0.1,0.4-0.2,0.5c-0.7,0.9-1.6,1.6-2.5,2.2
				c-1.6,1.1-3.4,1.9-5.3,2.1c-0.6,0.1-1.3,0.1-1.9-0.2c-0.8-0.4-1.2-1-1.2-1.8C25.1,33.4,25,32.8,25.3,32.3z M9.6,19.5
				c0.3,0.1,0.6,0.2,0.9,0.3c0.4,0.1,0.7-0.1,1.1-0.2c0.2-0.1,0.2-0.2,0.1-0.4c-0.2-0.5-0.3-1-0.5-1.5c-0.3-0.5-0.8-0.8-1.4-0.7
				c-0.6,0.1-1,0.6-1,1.2C8.8,18.9,9.1,19.4,9.6,19.5z M35.7,21.5c0-0.2-0.1-0.5-0.1-0.7c-1.3-5.5-3-11-4.7-16.4
				c-0.1-0.3-0.2-0.6-0.5-0.8c-0.7-0.8-1.5-1.5-2.5-2c-0.3-0.2-0.5-0.3-0.8-0.5c0,0.2,0,0.3,0,0.4c-0.1,2.9-0.3,5.8-0.4,8.7
				c-0.1,2.2-0.2,4.4-0.3,6.6c0,0.2,0.1,0.5,0.3,0.5c0.4,0.2,0.8,0.4,1.2,0.6l7.6,3.9C35.9,21.8,35.7,21.6,35.7,21.5z M35.6,22.6
				c-1.4-0.7-2.8-1.4-4.1-2.1c-0.1-0.1-0.3-0.1-0.4-0.1c-1.5,0.2-3,0.4-4.5,0.6c-0.2,0-0.3,0.1-0.3,0.3c-0.1,2.1-0.2,4.3-0.3,6.5
				C29.4,26.5,32.7,25,35.6,22.6z M30.5,20.1c-1.3-0.6-2.5-1.3-3.8-1.9c-0.2-0.1-0.3-0.2-0.3,0.2c0,0.7,0,1.4-0.1,2.1
				c0,0.3,0,0.3,0.3,0.3c1.2-0.2,2.4-0.3,3.5-0.4C30.3,20.1,30.5,20.3,30.5,20.1z M30.5,20.1c-0.1,0.1-0.3,0-0.4,0.2
				C30.5,20.2,30.5,20.2,30.5,20.1z M35.8,21.9c0.1-0.1,0-0.3,0-0.4c0,0.1,0,0.3-0.1,0.4C35.7,21.9,35.7,21.9,35.8,21.9z"/>
		</g>
	</g>
</g>
</svg>
