<?xml version="1.0" encoding="utf-8"?>
<!-- Generator: Adobe Illustrator 22.1.0, SVG Export Plug-In . SVG Version: 6.00 Build 0)  -->
<svg version="1.1" id="Calque_1" xmlns="http://www.w3.org/2000/svg" xmlns:xlink="http://www.w3.org/1999/xlink" x="0px" y="0px"
	 viewBox="0 0 60 60" style="enable-background:new 0 0 60 60;" xml:space="preserve">
<style type="text/css">
	.st0{fill:#0082C3;}
</style>
<title>icone blanc</title>
<desc>Created with Sketch.</desc>
<g id="icone-blanc">
	<g id="spelunking" transform="translate(-16.000000, -29.000000)">
		<g id="aqua-learning" transform="translate(25.000000, 41.000000)">
			<path id="Fill-1" class="st0" d="M41.6,28.5v0.9c-10.1,0-15.2-1.1-20.2-2.1c-4.9-1-10-2.1-20-2.1v-0.9c5.2,0,9.1,0.3,12.4,0.7
				l1.3-0.4l2.8-2.9l-6-7.8l-6.8,9.8c-1.8-1.7-0.7-3.9-0.4-4.7c1.3-2.7,3-6.3,3.8-7.9c1.7-3.6,3.6-3,6.1-0.9
				c3.2,2.7,10.1,8.8,10.1,8.8c0.8,0.7,1.4,2.2,1.4,3.5l0.1,4.2l0,0.8c0.3,0.1,0.7,0.1,1.1,0.2c-0.3-0.3-0.2-0.9-0.3-1.6
				c0-1,0-1.9,0-1.9s3.8-4.2,5-4.6c0.8-0.3,1.8-0.4,2.7-0.2c2.7,0.5,4.2,3.2,3.8,5.5c-0.3,1.7-1.5,3.1-3.2,3.7
				C37.3,28.4,39.3,28.5,41.6,28.5"/>
			<path id="Path-5" class="st0" d="M18.6,14.6c2.3-2.5,3.8-3.2,4.4-2.1s2,2.7,4.1,4.6l-4.5,1.1l-4.6,2.9l-2.8,1.4l-2.8-5.2
				c2.3-0.9,3.6-1.4,3.9-1.4C16.4,15.9,17.2,15.4,18.6,14.6z"/>
		</g>
	</g>
</g>
</svg>
