<?xml version="1.0" encoding="utf-8"?>
<!-- Generator: Adobe Illustrator 22.1.0, SVG Export Plug-In . SVG Version: 6.00 Build 0)  -->
<svg version="1.1" id="Calque_1" xmlns="http://www.w3.org/2000/svg" xmlns:xlink="http://www.w3.org/1999/xlink" x="0px" y="0px"
	 viewBox="0 0 60 60" style="enable-background:new 0 0 60 60;" xml:space="preserve">
<style type="text/css">
	.st0{fill:#0082C3;}
</style>
<title>icone blanc</title>
<desc>Created with Sketch.</desc>
<g id="icone-blanc">
	<g id="spelunking" transform="translate(-16.000000, -29.000000)">
		<g id="musculation" transform="translate(25.000000, 41.000000)">
			<path id="Fill-1" class="st0" d="M28.5,8.8l-2.2-0.2c0.6,0.5,0.6,1,0.8,1.9c0.2,0.9,0.3,1.4,0.3,1.4L28.5,8.8z M16.9,7.7L15,7.5
				l-0.5,2.8L16.9,7.7z M37.4,13.8c-0.2,0-1,0-1.3-0.1c-1.7-0.2-2.9-2-3.1-4.5L30.5,9c-0.1,0.3-0.1,0.6-0.2,0.8
				c-0.5,1.8-0.8,2.6-1.2,3.7c-1.1,3.4-2.9,2-3.2,1.2c-0.5-1.3-0.9-2.4-0.9-2.4l-0.9,5.2c0,0,2.9,3.1,3.9,4c1.7,1.4,2,2.2,1.3,4.4
				c-0.4,1.1-3.6,10.5-3.6,10.5c-1.4-0.4-1.5-2.4-1.1-4.3c0.4-1.6,1.2-6.3,1.2-6.3l-3.7-3.5l-0.7,4.6l-5.7,9.2
				c-1.6-0.8-0.4-3.2-0.1-4.1c0.6-1.7,2.5-5.8,2.5-5.8s-0.8-2.8-1.1-5.2c-0.1-0.8-0.1-1.4,0.1-2c0.3-1,0.4-1.3,0.9-1.8l-0.6-5.2
				c0,0-1.8,1.2-3.1,2.2C12.8,15,11.5,14,11.7,13c0.4-2.1,0.9-4.1,1.3-5.7l-2.8-0.3c-0.2,2.1-1.3,3.8-2.8,3.8
				c-0.2,0-1.3-0.1-1.3-0.1s0.5,0.1,0,0c-1.5-0.2-2.9-2-3.1-4.4L1.4,6.2V5.1l1.5,0.1C3.1,3,4.3,1.2,5.8,1.1c0.2,0,1.1,0.1,1.4,0.1
				c1.5,0.1,2.9,2.2,3.1,4.6c0,0,0,0.1,0,0.1l3,0.3c0.3-1.3,0.5-2.1,0.5-2.1c1.3,0.2,1.4,1.6,1.4,2.3l13.6,1.3L29.4,6
				c0.9,0.3,1.2,0.9,1.3,1.9L33,8.2c0.1-2.2,1.3-4,2.8-4.1c0.2,0,1.2,0.1,1.4,0.1c1.5,0.1,2.9,2.2,3.1,4.6
				C40.4,11.5,39,13.8,37.4,13.8z M19.3,3.4c-0.1-0.5-0.1-1,0-1.5c0.4-1.5,2-2.2,3.3-1.8c1.3,0.3,2.2,1.8,1.9,3.3
				c-0.1,0.5-0.5,2-0.8,2.8c-0.1,0.4-0.4,0.4-0.9,0.4c-0.6-0.1-1.4-0.2-1.4-0.2S19.5,4.2,19.3,3.4z"/>
		</g>
	</g>
</g>
</svg>
