<?xml version="1.0" encoding="utf-8"?>
<!-- Generator: Adobe Illustrator 22.1.0, SVG Export Plug-In . SVG Version: 6.00 Build 0)  -->
<svg version="1.1" id="Calque_1" xmlns="http://www.w3.org/2000/svg" xmlns:xlink="http://www.w3.org/1999/xlink" x="0px" y="0px"
	 viewBox="0 0 60 60" style="enable-background:new 0 0 60 60;" xml:space="preserve">
<style type="text/css">
	.st0{fill:#0082C3;}
</style>
<title>icone blanc</title>
<desc>Created with Sketch.</desc>
<g id="icone-blanc">
	<g id="spelunking" transform="translate(-16.000000, -29.000000)">
		<g id="escalade" transform="translate(25.000000, 41.000000)">
			<path id="Fill-1" class="st0" d="M25,8.8c0.1,1-0.7,1.7-1.3,1.9c-0.3,0.1-3,1-3,1l0.3-1.8L25,8.8z M20.9,27.8
				c0.2-1.1,1.9-9.5,2-10.2c0.2-1.1-0.4-1.5-1.3-1.4c-0.7,0.1-3.4,0.7-3.4,0.7l2-4.9l0.6-3.3c0,0,6.1-2.7,6.4-2.9
				c0.4-0.2,0.8-0.7,0.9-1.3L29,8.6l-3.1,5.1l0,11.6L20.9,27.8z M26.3,13.8l3.1-5.1L27.8,0l-0.5,0l0.8,4l-7.5,2.1
				c0.1-0.7,0.1-1.4,0.1-1.7c0.1-0.6-0.2-1.2-0.5-1.7l1.2-0.6L21,1.8l-0.9,0.1c0,0-1.2-1.3-3.1-0.6c-1.7,0.7-1.8,2.6-1,3.8L16.3,5
				c0,0.1,0.1,0.3,0.1,0.4c0.2,0.4,1.5,1.5,1.5,1.5s-0.1,0-0.2,0.1c-1.1,0.3-1.9,1-2.4,3.2c-0.7,2.8-1.2,5-1.2,5s-0.4,0.8-0.8,1.5
				c-0.3,0.6-1.2,2.4-0.2,4.3s3.1,6,3.1,6s-0.7,6.3-0.8,7.4c-0.1,1.1,0.3,2.1,1.2,2.2c1.6-7.2,1.6-7.1,2-9c0.2-1,0.2-1.3,0-2.2
				c-0.2-0.8-1.2-4.5-1.2-4.5l2.6-0.8c0,0-0.4,5.1-0.5,5.8c-0.1,1.2,0.3,2,1.2,2.3l-1.3,0.7l2.1,7.9H22l-2-7.6l6.4-3.2L26.3,13.8z"
				/>
		</g>
	</g>
</g>
</svg>
