<?xml version="1.0" encoding="utf-8"?>
<!-- Generator: Adobe Illustrator 22.1.0, SVG Export Plug-In . SVG Version: 6.00 Build 0)  -->
<svg version="1.1" id="Calque_1" xmlns="http://www.w3.org/2000/svg" xmlns:xlink="http://www.w3.org/1999/xlink" x="0px" y="0px"
	 viewBox="0 0 60 60" style="enable-background:new 0 0 60 60;" xml:space="preserve">
<style type="text/css">
	.st0{fill:#0082C3;}
</style>
<title>icone blanc</title>
<desc>Created with Sketch.</desc>
<g id="icone-blanc">
	<g id="spelunking" transform="translate(-16.000000, -29.000000)">
		<g id="chasse" transform="translate(25.000000, 41.000000)">
			<path id="Fill-1" class="st0" d="M13.5,5.9c0.3-0.3,0.8-0.4,1.1-0.1C14.9,6.1,15,6.6,14.7,7c-0.3,0.3-0.8,0.4-1.1,0.1
				C13.2,6.7,13.2,6.2,13.5,5.9z M21.9,30.3c-0.7-0.2-1.4-0.6-2.4-0.8l-0.1-1.6l-0.2-1.6c2.1-0.2,4.4-0.6,5-1.1
				c1.6-1.4,2-2.3,2.3-2.7c0.4-0.6,0.6-1.1,1.1-1.1c0.2,0,0.5,0,0.8,0c0.5,0,0.7,0,0.7,0c0,0,0.3,0,0.5,0.3c0.2,0.2,0.2,0.4,0.3,0.4
				l1.6,0.3c0,0.3,0.1,1.2-1.2,1.2c-0.4,0-0.8,0.1-1.1,0.3v1l-0.8-0.3c-0.3,0.5-0.6,1.2-0.7,2c0,0,0,1.2,0,1.5
				c0,1.3-1.1,2.3-1.1,2.3l-0.2,5.9c-0.2,0-0.9-0.1-0.9-0.8c-0.2-2-0.4-4.8-0.4-4.8c-0.1,0-0.4,0-0.6,0l-0.1,5.6
				c-0.2,0-0.9-0.1-1-0.8c-0.1-1.4-0.2-4.1-0.3-5C22.6,30.4,22.2,30.3,21.9,30.3z M22,5.7c-0.3,0.9-1.1,3.2-1.1,3.2l-3.3-0.2
				c0,0,2.4-1.9,2.6-2c0.3-0.3,0.3-0.7,0.3-1c0.3-0.1,0.6-0.2,0.6-0.2l1.3-0.4C22.2,5.1,22.1,5.4,22,5.7z M33.2,0.6L33,0
				c0,0-10.6,3.5-12.8,4.2C19.6,4.4,19,5,19,5l-1.3,1.6l-0.9,0.5c0-0.4,0-0.8,0-1c0-0.4,0-0.7-0.1-1c0.4-0.3,0.8-0.6,0.9-0.8
				C17.5,4,16.6,4,16,4.2c-0.4-0.3-1-0.5-1.5-0.5c-0.3,0-0.7,0.1-1,0.2c0,0.3-0.1,1,0.2,1.5c0.4-0.1,0.8-0.1,1.1,0.2
				c0.5,0.4,0.5,1.2,0.1,1.6c-0.4,0.5-1.1,0.5-1.6,0.1c-0.4-0.4-0.5-1-0.2-1.5c-0.4-0.6-0.3-1.3-0.2-1.6c-0.5,0.4-0.8,1-0.8,1.7
				c0,0.5,0.1,0.9,0.3,1.3c0.3,0.5,1.4,1.5,1.4,1.5s-0.5,0.3-0.6,0.3c-1.3,0.8-1.9,1.5-1.8,2.9c0.1,0.7,0.5,6.1,0.5,6.1
				c-0.5,1.3-0.6,2.5-0.7,3.4c0,0.8-0.2,6.2-0.2,6.2s-1,5.5-1.2,6.4c-0.2,1.5,0.2,2.2,1.2,2.3l2.2-7.7l1.5-5.3l1.7,4.9
				c0,0,0.8,5.6,0.9,6.5c0.1,0.8,0.8,1.9,2,1.6L18.9,28l-1-7.3l-0.4-2.2c0,0,0.2-2.6,0.6-6.1c0-0.1-0.2-1.3-0.2-1.3h3.5
				c0.6,0,0.8-0.3,1-0.9c0.1-0.6,1.4-5.7,1.4-5.7l4.9-1.7l-0.1-0.5L33.2,0.6z"/>
		</g>
	</g>
</g>
</svg>
