<?xml version="1.0" encoding="utf-8"?>
<!-- Generator: Adobe Illustrator 22.1.0, SVG Export Plug-In . SVG Version: 6.00 Build 0)  -->
<svg version="1.1" id="Calque_1" xmlns="http://www.w3.org/2000/svg" xmlns:xlink="http://www.w3.org/1999/xlink" x="0px" y="0px"
	 viewBox="0 0 60 60" style="enable-background:new 0 0 60 60;" xml:space="preserve">
<style type="text/css">
	.st0{fill:#0082C3;}
</style>
<title>icone blanc</title>
<desc>Created with Sketch.</desc>
<g id="icone-blanc">
	<g id="spelunking" transform="translate(-16.000000, -29.000000)">
		<g id="waterpolo" transform="translate(25.000000, 41.000000)">
			<path id="Fill-1" class="st0" d="M41.1,33.3v0.9c-10,0-15-1.1-19.9-2.1c-4.9-1-9.9-2.1-19.7-2.1v-0.9c6,0,10.2,0.4,13.7,0.9
				l1.1-1.7l0.7-4.1l-2.8-4.5c0,0-7-1.1-8.3-1.3c-1.4-0.2-1.7-0.7-1.5-2c0.1-0.7,0.7-4.1,1.1-6.9C6.2,9.8,7.1,9.8,8,9.6l0,5.8
				l8.5-0.4c0,0,9.6,1.6,10.4,1.8c0.8,0.1,1.2,0.3,1.7,1.1c0.5,0.9,3.6,6.1,3.6,6.1l8.7,0.9c0,0-0.1,1.6-1.7,1.7
				c-1.1,0.1-5.7,0.3-7.7,0.4c-1,0-1.2,0-1.7-0.6c-0.5-0.7-2.3-2.9-2.3-2.9l0.2-1.5l-0.4-0.1l-0.9,4.7l-1,5.5
				C29.2,32.8,33.8,33.3,41.1,33.3z M19.3,11c-0.1-0.6,0-1.3,0.2-1.9c0.6-1.8,2.7-2.5,4.2-1.9c1.6,0.6,2.6,2.5,2,4.2
				C25.5,12,24.8,14,24.4,15c-0.2,0.4-0.7,0.3-1.3,0.2c-0.7-0.1-1.3-0.2-1.3-0.2S19.4,11.9,19.3,11z M9.1,7.3
				C9.1,7.3,9.1,7.3,9.1,7.3L7.6,4.6l0.9-0.5l1.2,2.2C9.6,6.6,9.4,7,9.1,7.3z M7,8.3c-0.3,0-0.6,0-0.9-0.1L4.9,6.1l0.9-0.5l1.5,2.7
				C7.2,8.3,7.1,8.3,7,8.3z M4.6,3.2c0.5-0.6,1.3-1,2.1-1c0.1,0,0.1,0,0.2,0c0.2,0,0.4,0,0.6,0.1l0.1,0.1L4,4.4l0-0.1
				C4,3.9,4.3,3.5,4.6,3.2z M3.9,6.1C3.8,5.8,3.8,5.6,3.8,5.4c0-0.1,0-0.2,0-0.3l0.4,0.7L3.9,6.1z M4.6,7.3C4.4,7.1,4.2,6.8,4.1,6.5
				l0.4-0.2l0.5,0.8L4.6,7.3z M5.3,7.9C5.2,7.8,5.1,7.8,5,7.7l0.2-0.1L5.3,7.9z M4.6,5.6L4.2,4.9l3.6-2l0.4,0.8L4.6,5.6z M7.1,4.8
				l1.6,2.8C8.4,7.9,8.1,8,7.8,8.1L6.2,5.3L7.1,4.8z M9.1,3.1L8.7,3.4L8.3,2.6l0.1,0C8.5,2.7,8.7,2.8,8.9,3C9,3,9,3.1,9.1,3.1z
				 M9,3.8l0.5-0.3c0.2,0.3,0.3,0.5,0.4,0.8L9.4,4.6L9,3.8z M9.9,5.1c0,0.1,0,0.3,0,0.4L9.7,5.1l0.2-0.1C9.9,5,9.9,5,9.9,5.1z
				 M10.7,5c-0.1-1-0.5-2-1.3-2.6c-0.8-0.7-1.7-1-2.8-1c-1,0.1-2,0.5-2.6,1.3C3.3,3.4,3,4.4,3,5.4c0.1,1,0.5,2,1.3,2.6l0,0
				c0.7,0.6,1.6,1,2.6,1c0.1,0,0.1,0,0.2,0c1-0.1,2-0.5,2.6-1.3C10.4,7,10.7,6,10.7,5z"/>
		</g>
	</g>
</g>
</svg>
