<?xml version="1.0" encoding="utf-8"?>
<!-- Generator: Adobe Illustrator 22.1.0, SVG Export Plug-In . SVG Version: 6.00 Build 0)  -->
<svg version="1.1" id="Calque_1" xmlns="http://www.w3.org/2000/svg" xmlns:xlink="http://www.w3.org/1999/xlink" x="0px" y="0px"
	 viewBox="0 0 60 60" style="enable-background:new 0 0 60 60;" xml:space="preserve">
<style type="text/css">
	.st0{filter:url(#Adobe_OpacityMaskFilter);}
	.st1{fill:#FFFFFF;}
	.st2{mask:url(#mask-2_1_);fill:#0082C3;}
	.st3{fill:#0082C3;}
</style>
<title>icone blanc</title>
<desc>Created with Sketch.</desc>
<g id="icone-blanc">
	<g id="spelunking" transform="translate(-16.000000, -29.000000)">
		<g id="lackline" transform="translate(25.000000, 41.000000)">
			<g id="Page-1" transform="translate(1.400000, 0.000000)">
				<g id="Group-3" transform="translate(0.000000, 24.313467)">
					<g id="Clip-2">
					</g>
					<defs>
						<filter id="Adobe_OpacityMaskFilter" filterUnits="userSpaceOnUse" x="0" y="0" width="36.4" height="12">
							<feColorMatrix  type="matrix" values="1 0 0 0 0  0 1 0 0 0  0 0 1 0 0  0 0 0 1 0"/>
						</filter>
					</defs>
					<mask maskUnits="userSpaceOnUse" x="0" y="0" width="36.4" height="12" id="mask-2_1_">
						<g class="st0">
							<polygon id="path-1_1_" class="st1" points="0,0 36.4,0 36.4,12 0,12 							"/>
						</g>
					</mask>
					<path id="Fill-1" class="st2" d="M26.5,10.2l-9.3-1.8L8.6,4.5C0.1,0.8-0.2,0.7,0.1,0.1c0.1-0.4,3.8,1.5,8.8,3.7l8.6,3.8
						l9.3,1.8c5.1,1,9.4,1.9,9.5,2c0.2,0.2,0,0.6-0.3,0.6C35.8,12,31.5,11.2,26.5,10.2L26.5,10.2z"/>
				</g>
				<path id="Fill-4" class="st3" d="M16.2,27.4c-0.2-2-0.5-4.6-0.7-6c0,0,0-0.1,0-0.1c0-4.2-0.3-4.4-0.5-5.2
					c-0.2-0.8-0.6-5.7-1.1-6.9c-0.2-0.4-0.2-0.4-0.9-0.3c-2,0.3-3.7,0.3-4.9,0C6.2,8.4,5.3,7.8,5.8,7.2c0.3-0.3,0.8-0.3,2.3,0.2
					c0.1,0,0.1,0,0.2,0l2.8,0.1c0.1,0,0.1,0,0.2,0c2-0.3,3-0.3,4.2,0.1c0.8,0.3,1.1,0.3,2,0.2c2-0.3,2.7-0.6,3.5-1.5
					c1.5-1.6,1.6-1.9,1.7-3.8C22.8,0.6,23,0,23.5,0c0.2,0,0.4,0.1,0.5,0.2c0.2,0.3,0.5,2.9,0.3,3.8c-0.2,1.2-1,2.5-2.6,4.2
					c-1.5,1.6-2.5,2.8-2.5,3.2c0,0.3,0.9,2.7,1.5,4c1.5,3.4,8.4,10.6,7.5,11.4c-1.2,1-1.8-1.2-4.6-4c-2.3-2.3-4.4-4.1-4.5-4.1
					c-0.7,0-2,1.6-1.1,7.5c0.9,5.9-0.7,5.9-0.8,5.2C17.2,31.4,16.8,30.3,16.2,27.4L16.2,27.4z"/>
				<path id="Fill-6" class="st3" d="M15.6,6.3c0.1,0.2,0.5,0.2,0.7,0.2l0.8-0.1c0,0,1-1.5,1.2-2c0.1-0.3,0-0.7-0.1-1
					c-0.3-1-1.4-1.4-2.2-1.2c-0.9,0.3-1.5,1.3-1.2,2.2C14.9,4.7,15.6,6.3,15.6,6.3"/>
			</g>
		</g>
	</g>
</g>
</svg>
