<?xml version="1.0" encoding="utf-8"?>
<!-- Generator: Adobe Illustrator 22.1.0, SVG Export Plug-In . SVG Version: 6.00 Build 0)  -->
<svg version="1.1" id="Calque_1" xmlns="http://www.w3.org/2000/svg" xmlns:xlink="http://www.w3.org/1999/xlink" x="0px" y="0px"
	 viewBox="0 0 60 60" style="enable-background:new 0 0 60 60;" xml:space="preserve">
<style type="text/css">
	.st0{fill:#0082C3;}
</style>
<title>icone blanc</title>
<desc>Created with Sketch.</desc>
<g id="icone-blanc">
	<g id="spelunking" transform="translate(-16.000000, -29.000000)">
		<g id="gym-pilates" transform="translate(25.000000, 41.000000)">
			<g id="Page-1" transform="translate(4.200000, 0.000000)">
				<g id="Clip-2">
				</g>
			</g>
			<path id="Fill-1" class="st0" d="M35.1,21.3c-2.4-0.1-9.2-0.2-9.2-0.2c-0.7-0.7-1.8-1-2.5-1.1c-1-0.1-7.1-0.9-7.1-0.9l0.2,0.3
				c0,0,4.2,0.6,6.9,0.9c2.6,0.4,2.7,2.4,2.7,2.8c0,0.4,0.6,13.1,0.6,13.1c-0.9,0.4-2-0.3-2.2-1.8c-0.3-1.6-0.9-5.6-1.6-10.1
				c-2.4,0-4.4-0.1-5.8-0.2c2,1.3,3.2,3.3,3.2,5.5c0,1.8-0.8,3.6-2.4,4.8c-1.5,1.2-3.5,1.9-5.6,1.9c-2.1,0-4.1-0.7-5.6-1.9
				c-1.5-1.3-2.4-3-2.4-4.8c0-3.5,3-6.3,6.8-6.8c-0.4-0.4-1.2-1.2-1.5-2.7l-0.7-3.4c-0.6-1.5-2.3-6.9-1.8-8c0.4-1,1.1-1.5,2.2-1.5
				c0.4,0,17.7,0,17.7,0s-0.2,1.6-1.7,1.8c-1.4,0.1-7.4,0.5-7.4,0.5l-5.6,0.7l0.1,0.2l2-0.1c0.2,0.4,0.4,0.8,0.4,1.1
				c0,0.9-0.5,1.7-0.5,1.7l0.3,2.4l0.9,2.2h10.5L38,19.5C38.1,20.3,37.5,21.4,35.1,21.3 M12.2,35.3c2.1,0,3.9-0.7,5.2-1.9H7
				C8.2,34.5,10.1,35.3,12.2,35.3 M11.7,3.3c-0.1,0.5-0.4,2.2-0.6,3.1c-0.1,0.4-0.5,0.3-1,0.3c-0.6,0-1.1,0-1.1,0S6.7,4.6,6.4,3.9
				C6.4,3.6,6.3,3.4,6.3,3.1C5.5,3,4.9,2.4,4.9,1.6C4.9,0.7,5.6,0,6.5,0c0.5,0,0.9,0.2,1.1,0.5C8.2,0.2,8.9,0,9.5,0.2
				C10.9,0.4,12,1.8,11.7,3.3"/>
		</g>
	</g>
</g>
</svg>
