<?xml version="1.0" encoding="utf-8"?>
<!-- Generator: Adobe Illustrator 22.1.0, SVG Export Plug-In . SVG Version: 6.00 Build 0)  -->
<svg version="1.1" id="Calque_1" xmlns="http://www.w3.org/2000/svg" xmlns:xlink="http://www.w3.org/1999/xlink" x="0px" y="0px"
	 viewBox="0 0 60 60" style="enable-background:new 0 0 60 60;" xml:space="preserve">
<style type="text/css">
	.st0{fill:#0082C3;}
</style>
<title>icone blanc</title>
<desc>Created with Sketch.</desc>
<g id="icone-blanc">
	<g id="spelunking" transform="translate(-16.000000, -29.000000)">
		<g id="triathlon" transform="translate(25.000000, 41.000000)">
			<path id="Fill-1" class="st0" d="M35.6,25.3c0-2.4-2-4.4-4.4-4.4c-0.4,0-0.8,0.1-1.1,0.1l1.4,4.1c0,0.1,0,0.3-0.2,0.3
				c0,0-0.1,0-0.1,0c-0.1,0-0.2-0.1-0.2-0.2l-1.4-4.1c-1.6,0.6-2.8,2.2-2.8,4.1c0,2.4,2,4.4,4.4,4.4C33.6,29.7,35.6,27.8,35.6,25.3z
				 M29,19.5l-0.2-0.5h-4.2c0,0,0,0,0,0c-0.2,0.4-2.7,4.2-3.6,5.7l0.3,1L29,19.5z M20.8,25.8l-0.2-0.5c0,0,0,0,0,0
				c-0.4,0-0.9-0.5-0.5-1.6l-1.4-4.2l-1.3,1.9c1.2,0.9,2,2.3,2,4c0,0.1,0,0.2,0,0.3L20.8,25.8z M19,25.3c0-1.5-0.7-2.8-1.8-3.6
				L15,25.1l4,0.4C18.9,25.5,19,25.4,19,25.3z M18.9,26.1l-4.4-0.5c-0.1,0-0.2-0.1-0.2-0.1c0-0.1,0-0.2,0-0.2l2.4-3.7
				c-0.6-0.4-1.4-0.6-2.2-0.6c-2.4,0-4.4,2-4.4,4.4c0,2.4,2,4.4,4.4,4.4C16.7,29.7,18.5,28.1,18.9,26.1z M19,18.9l1.3,3.9
				c0.5-1.2,1.3-3,1.7-3.9H19z M18.9,18.4h3.4c0,0,0-0.1,0-0.1s-1.8-0.7-3.3-1.3h-0.5L18.9,18.4z M20.6,14.3c0,0,3.5,2.4,4,2.8
				c0.3,0.2,0.5,0.7,0.3,1.3h3.8l-0.2-0.7h-0.5c-0.2,0-0.4-0.1-0.5-0.2l-3.6-3.9l-0.2,0l0.3,0.9L20.6,14.3z M36.1,25.3
				c0,2.7-2.2,4.9-4.9,4.9s-4.9-2.2-4.9-4.9c0-2.1,1.3-3.9,3.1-4.6L29.2,20l-7.9,6.3c0,0-0.1,0.1-0.2,0.1c0,0,0,0-0.1,0c0,0,0,0,0,0
				l-1.7-0.2c-0.4,2.3-2.4,4.1-4.8,4.1c-2.7,0-4.9-2.2-4.9-4.9c0-2.7,2.2-4.9,4.9-4.9c0.9,0,1.7,0.2,2.5,0.7l1.5-2.3l-0.6-1.7h-1.5
				c-0.1,0-0.2-0.1-0.2-0.2c0-0.1,0.1-0.2,0.2-0.2h1.3c-0.6-0.2-1.1-0.4-1.2-0.5c-0.4-0.2-0.7-0.4-0.7-0.9c-0.1-0.4-0.2-1.4-0.2-1.4
				c0.2-0.4,1.6-3.3,6.7-3.4c2.8-0.1,2.9-0.1,3.5,1c0.2,0.3,2.8,5,2.8,5l3.1,0.4c0.3,0,0.5,0.3,0.5,0.6v0.4h0c0,0.3-0.1,0.8-0.3,1.1
				c-0.2,0.2-0.4,0.3-0.7,0.3c-0.1,0-0.2-0.1-0.2-0.2s0.1-0.2,0.2-0.2c0.1,0,0.3,0,0.3-0.1c0.2-0.2,0.2-0.5,0.2-0.7H29l0.9,2.8
				c0.4-0.1,0.8-0.2,1.3-0.2C33.9,20.4,36.1,22.6,36.1,25.3z M29.6,9.9c0-0.1,0-1.8-1.9-2.2c-1.4-0.2-2.7,0.6-2.9,0.8l0.3,0.6
				l0.1,0.4c0,0,0.2,0.1,0.5,0.2c0,0,0,0.1,0,0.1c0.1,0.5,1.1,2.2,1.1,2.2s0.3,0.1,0.7,0.2c0.3,0.1,0.6,0.1,0.7-0.1
				c0.2-0.5,0.6-1.3,0.8-1.7c0.2,0,0.4-0.1,0.4-0.1L29.6,9.9z M13.3,19.4c0.6-0.2,1.1-0.8,1.2-1.4c0.2-0.9-0.4-2-1.5-2.2
				c-0.4-0.1-0.7,0-1.1,0.1c-0.5,0.2-2,1.8-2,1.8s0,0.4,0,0.7c0,0.3,0,0.5,0.1,0.6c-0.1,0-0.3,0-0.4-0.1l0-0.3l0-1.6
				c0-0.5-0.2-1.1-0.5-1.3c0,0-2.7-2.4-3.9-3.4c-1-0.8-1.7-1-2.4,0.4c-0.3,0.6-1,2-1.5,3.1c-0.1,0.3-0.5,1.2,0.2,1.8l2.6-3.8l2.3,3
				l-1.1,1.1l-0.5,0.2C3.6,17.9,2,17.8,0,17.8v0.4c3.9,0,5.9,0.4,7.8,0.8c1.9,0.4,3.9,0.8,7.9,0.8v-0.4C14.8,19.4,14,19.4,13.3,19.4
				z M38.5,16.9c0,0,1.1,0.3,1.6,0.3c0.4,0,0.9,0,1.1-0.2c0.2-0.2,0.3-0.4,0.3-0.4l-2.7-0.7L38.5,16.9z M40.6,22.9l-3-4.1l1-3.5
				c0.2-0.8-0.1-3.2-0.1-3.8c0,0-1.4-0.5-1.4-0.6c-0.5-0.2-1-0.3-1.7,0.1l-2.1,1.1c-1.1,0.6-1.5,0.8-1.5,1.1
				c0.1,0.7,0.8,2.4,1.1,2.9c0.7,1.1,1.3,0.8,1.3,0.8l-0.9-3.1l1.8-0.7l0,3.5l-0.6,0.9c0,0-0.9,1-0.4,2.3l-0.4,0.7
				c0.8,0.4,1.5,1,2,1.7c0.2-0.3,0.4-0.5,0.4-0.5l-0.8-1l0.1-0.3l3.6,3.4c0,0,1.1,3.4,1.7,5.1c0.3,0.8,0.8,1,1.1,1
				c0.2,0,0.4-0.1,0.4-0.1L40.6,22.9z M37.2,10.7c0,0-0.8-1.7-0.8-2.2c0-0.3,0.1-0.6,0.3-0.9c0.2-0.4,0.6-0.6,1-0.7
				C38.2,7,38.6,7,39,7.3c0.7,0.4,0.9,1.4,0.5,2.2c-0.2,0.2-0.7,1.1-1,1.5c0,0.1-0.1,0.1-0.1,0.1c-0.1,0-0.3-0.1-0.5-0.1
				C37.5,10.8,37.2,10.7,37.2,10.7z"/>
		</g>
	</g>
</g>
</svg>
