<?xml version="1.0" encoding="utf-8"?>
<!-- Generator: Adobe Illustrator 22.1.0, SVG Export Plug-In . SVG Version: 6.00 Build 0)  -->
<svg version="1.1" id="Calque_1" xmlns="http://www.w3.org/2000/svg" xmlns:xlink="http://www.w3.org/1999/xlink" x="0px" y="0px"
	 viewBox="0 0 60 60" style="enable-background:new 0 0 60 60;" xml:space="preserve">
<style type="text/css">
	.st0{filter:url(#Adobe_OpacityMaskFilter);}
	.st1{fill:#FFFFFF;}
	.st2{mask:url(#mask-2_1_);fill:#0082C3;}
	.st3{fill:#0082C3;}
</style>
<title>icone blanc</title>
<desc>Created with Sketch.</desc>
<g id="icone-blanc">
	<g id="spelunking" transform="translate(-16.000000, -29.000000)">
		<g id="mountaineering" transform="translate(25.000000, 41.000000)">
			<g id="Group" transform="translate(9.800000, 0.000000)">
				<g id="Page-1" transform="translate(2.800000, 0.000000)">
					<g id="Clip-2">
					</g>
					<defs>
						<filter id="Adobe_OpacityMaskFilter" filterUnits="userSpaceOnUse" x="0" y="0" width="16.8" height="36.4">
							<feColorMatrix  type="matrix" values="1 0 0 0 0  0 1 0 0 0  0 0 1 0 0  0 0 0 1 0"/>
						</filter>
					</defs>
					<mask maskUnits="userSpaceOnUse" x="0" y="0" width="16.8" height="36.4" id="mask-2_1_">
						<g class="st0">
							<polygon id="path-1_1_" class="st1" points="0,0 16.8,0 16.8,36.4 0,36.4 							"/>
						</g>
					</mask>
					<path id="Fill-1" class="st2" d="M12.4,8.8c0.1,1-0.7,1.7-1.2,1.9c-0.3,0.1-3,1-3,1l0.3-1.8L12.4,8.8z M8.3,27.8
						c0.2-1.1,1.9-9.5,2-10.2c0.2-1.1-0.4-1.5-1.3-1.4c-0.7,0.1-3.4,0.7-3.4,0.7l2-4.9l0.6-3.3c0,0,6-2.7,6.4-2.9
						c0.4-0.2,0.8-0.7,0.9-1.3l0.8,4.1l-3.1,5.1l0,11.6L8.3,27.8z M13.7,13.8l3.1-5.1L15.2,0l-0.5,0l0.7,4L8,6.2
						c0.1-0.7,0.1-1.4,0.1-1.7C8.2,3.9,8,3.3,7.6,2.8l1.2-0.6L8.4,1.8L7.5,1.9c0,0-1.2-1.3-3.1-0.6c-1.7,0.7-1.8,2.6-1,3.8L3.7,5
						c0,0.1,0.1,0.3,0.1,0.4C4,5.7,5.3,6.8,5.3,6.8S5.1,6.8,5,6.9c-1.1,0.3-1.9,1-2.4,3.2c-0.7,2.8-1.2,5-1.2,5S1,15.9,0.7,16.5
						c-0.3,0.6-1.2,2.4-0.2,4.3s4.3-0.2,4.3-0.2l2.6-0.8c0,0-0.4,5.1-0.5,5.8c-0.1,1.2,0.3,2,1.2,2.3l-1.3,0.7l2.1,7.9h0.5l-2-7.6
						l6.4-3.2L13.7,13.8z"/>
				</g>
				<path id="Page-1_1_" class="st3" d="M8.1,21.6L5.9,27c0,0-1.9,3.9-4,8c-0.6-0.2-1.2-1.1-0.7-2.4c0.5-1.3,2.2-6.1,2.2-6.1
					l0.7-6.1c-0.4-0.7-0.5-1.5-0.5-1.9c0-0.5,0.2-0.7,0.2-0.7l3.6-0.1l0.1-0.3l-3.9,0l-0.4,1c0,0-1.3-0.3-1.7-0.4
					C0.2,17.6-0.1,17,0,15.8c0.2-2.4,0.4-3.3,0.8-7.2C0.8,8.1,1.2,8,1.2,8S0.9,7.7,0.9,7.4C1,6.9,1.1,6.5,1.1,6.3
					c0.2-1.5,0.4-1.9,1.5-2c0.9-0.1,1.9-0.1,3.2-0.1c1.2,0,1.5,1.1,1.3,2.3C7,6.8,7,7.2,6.9,7.5C7.3,7,8.1,7,8.7,7.2
					C9.1,7.4,9.8,7.7,10.2,8c0.4,0.2,0.3,1.6-0.5,4.2L8.1,21.6z"/>
			</g>
		</g>
	</g>
</g>
</svg>
