<?xml version="1.0" encoding="utf-8"?>
<!-- Generator: Adobe Illustrator 22.1.0, SVG Export Plug-In . SVG Version: 6.00 Build 0)  -->
<svg version="1.1" id="Calque_1" xmlns="http://www.w3.org/2000/svg" xmlns:xlink="http://www.w3.org/1999/xlink" x="0px" y="0px"
	 viewBox="0 0 60 60" style="enable-background:new 0 0 60 60;" xml:space="preserve">
<style type="text/css">
	.st0{fill:#0082C3;}
</style>
<title>icone blanc</title>
<desc>Created with Sketch.</desc>
<g id="icone-blanc">
	<g id="spelunking" transform="translate(-16.000000, -29.000000)">
		<g id="pickleball" transform="translate(25.000000, 41.000000)">
			<path id="Fill-1" class="st0" d="M25.8,12.4l1.7-3.1l-0.6,0.3l-1.3,2.4L22,12.2v-3l-0.3,0.4l-0.3,2l-1.8,0.4
				c0.1,0,0.2,0.1,0.2,0.1l1.5,0.7L25.8,12.4z M14.5,11.2c0.2-0.2,0.4-0.4,0.5-0.6c0.1-0.2,0.3-0.5,0.4-0.7l0.3,1.1L14.5,11.2z
				 M31.5,24c0.7,1.2,0.5,2,0.5,2.3v10c0,0-1.8,0.2-2.1-2.1c-0.2-2.6-0.7-7.1-0.7-7.1l-1-1.1l1.7-0.7L30,25l-3.3,1.1l-2.2-3.9
				c0,0-2.6,5.7-2.8,6.3c-0.4,0.9-0.6,1.3-1.2,1.8c-0.5,0.4-8.2,5.3-8.2,5.3s-1-1.1,0.5-2.8c0.7-0.8,5.9-4.9,5.9-4.9l0.4-2.6
				l1.5,0.3l0.4-0.2l-2.5-0.8l1.5-5.7l0.9-2l-0.2-2.7h-1.6l0,0c0,0-0.1,0-0.1,0c-0.5,0-0.8-0.4-1-0.9c-0.1,0-0.1,0-0.2,0
				c-0.6,0-1-0.5-1.1-1.1l-1.2-0.8l-2.7,0.3c-0.2,0-0.4,0.1-0.6,0.1l-0.1,0l0,0c-0.7,0-1.5-0.2-2.2-0.7C8.4,10.2,7.9,8,9,6.4
				c1.1-1.6,3.3-1.9,4.9-0.8c0.9,0.6,1.5,1.6,1.6,2.6l0.6,2.5l1,0.7c0.2-0.2,0.5-0.3,0.8-0.3c0.6-1,2.2-3.3,2.8-3.8
				c0.8-0.8,1.3-1,1.9-0.9c0.9,0.2,5.7,1,6.2,1.1c0.7,0.1,1.8,0.6,1.4,1.9c-0.4,1.3-2.9,5-2.9,5l-1.9-0.1l0.5,0.4l1.6,0.1L27.1,18
				c0,0,2.9,3.7,4,5.4C31.3,23.7,31.4,23.9,31.5,24z M26.1,6.2c0,0,0.5,0.1,1,0.2c0.5,0.1,0.8,0.2,1-0.1c0.3-0.8,0.8-2.3,1-2.8
				c0.5-1.4-0.3-2.9-1.5-3.3c-1.2-0.4-2.8,0.1-3.3,1.5c-0.2,0.5-0.2,1-0.2,1.5C24.2,3.8,26.1,6.2,26.1,6.2z M13.6,9.6
				c-0.1,0.2-0.3,0.2-0.5,0.1C13,9.6,12.9,9.4,13,9.2C13.2,9,13.4,9,13.5,9.1C13.7,9.2,13.7,9.4,13.6,9.6z M14.3,8.5
				c-0.1,0.2-0.3,0.2-0.5,0.1c-0.2-0.1-0.2-0.3-0.1-0.5C13.9,8,14.1,7.9,14.2,8C14.4,8.1,14.4,8.3,14.3,8.5z M15.3,9.9l0.3,1.1
				l-1.2,0.1c0.2-0.2,0.4-0.4,0.5-0.6C15.1,10.3,15.3,10.1,15.3,9.9z M12.9,10.7c-0.1,0.2-0.3,0.2-0.5,0.1c-0.2-0.1-0.2-0.3-0.1-0.5
				c0.1-0.2,0.3-0.2,0.5-0.1C13,10.3,13,10.5,12.9,10.7z M27.5,9.3l-0.6,0.3l-1.3,2.4L22,12.2v-3l-0.3,0.4l-0.3,2l-1.8,0.4
				c0.1,0,0.2,0.1,0.2,0.1l1.5,0.7l4.6-0.5L27.5,9.3z M12.8,7.5c0.1-0.2,0.3-0.2,0.5-0.1c0.2,0.1,0.2,0.3,0.1,0.5
				c-0.1,0.2-0.3,0.2-0.5,0.1C12.8,7.9,12.7,7.7,12.8,7.5z M11,6.3c0.1-0.2,0.3-0.2,0.5-0.1c0.2,0.1,0.2,0.3,0.1,0.5
				c-0.1,0.2-0.3,0.2-0.5,0.1C10.9,6.7,10.9,6.5,11,6.3z M10.2,8.9C10.1,9,9.9,9.1,9.7,9C9.5,8.9,9.5,8.6,9.6,8.5
				c0.1-0.2,0.3-0.2,0.5-0.1C10.2,8.5,10.3,8.7,10.2,8.9z M11.9,6.9c0.1-0.2,0.3-0.2,0.5-0.1c0.2,0.1,0.2,0.3,0.1,0.5
				c-0.1,0.2-0.3,0.2-0.5,0.1C11.9,7.3,11.8,7.1,11.9,6.9z M11.3,8.5c-0.2-0.1-0.2-0.3-0.1-0.5c0.1-0.2,0.3-0.2,0.5-0.1
				c0.2,0.1,0.2,0.3,0.1,0.5C11.7,8.5,11.5,8.6,11.3,8.5z M12,10.1c-0.1,0.2-0.3,0.2-0.5,0.1c-0.2-0.1-0.2-0.3-0.1-0.5
				c0.1-0.2,0.3-0.2,0.5-0.1C12.1,9.7,12.1,9.9,12,10.1z M10.4,7.9c-0.2-0.1-0.2-0.3-0.1-0.5c0.1-0.2,0.3-0.2,0.5-0.1
				c0.2,0.1,0.2,0.3,0.1,0.5C10.8,7.9,10.6,8,10.4,7.9z M11.1,9.5c-0.1,0.2-0.3,0.2-0.5,0.1c-0.2-0.1-0.2-0.3-0.1-0.5
				C10.6,8.9,10.8,8.9,11,9C11.2,9.1,11.2,9.3,11.1,9.5z M12.2,9.1C12.1,9,12,8.8,12.1,8.6c0.1-0.2,0.3-0.2,0.5-0.1
				c0.2,0.1,0.2,0.3,0.1,0.5C12.6,9.1,12.4,9.2,12.2,9.1z M15.6,11l-1.2,0.1c0.2-0.2,0.4-0.4,0.5-0.6c0.1-0.2,0.3-0.5,0.4-0.7
				L15.6,11z M21.2,12.9l-1.5-0.7c-0.1-0.1-0.1-0.1-0.2-0.1l1.8-0.4l0.3-2L22,9.2v3l3.6-0.3l1.3-2.4l0.6-0.3l-1.7,3.1L21.2,12.9z"/>
			<path id="Fill-1_1_" class="st0" d="M38.4,13.6C38.4,13.6,38.4,13.6,38.4,13.6C38.3,13.5,38.3,13.5,38.4,13.6
				c-0.1-0.1-0.1-0.1-0.1-0.1c0,0,0,0,0,0c0,0,0,0,0,0C38.4,13.4,38.5,13.5,38.4,13.6C38.5,13.5,38.4,13.6,38.4,13.6z M38.4,13.3
				c-0.1,0-0.1,0-0.1,0.1s-0.1,0.1-0.1,0.1c0,0.1,0,0.1,0.1,0.1c0,0,0.1,0.1,0.1,0.1c0,0,0,0,0,0c0.1,0,0.2-0.1,0.2-0.2v0
				C38.6,13.4,38.5,13.3,38.4,13.3z M37.9,13.5C37.9,13.5,37.9,13.5,37.9,13.5C38,13.5,38,13.5,37.9,13.5c0.1,0.1,0,0.1,0,0.1
				C37.9,13.6,37.9,13.6,37.9,13.5C37.9,13.5,37.9,13.5,37.9,13.5z M37.9,13.7C37.9,13.7,37.9,13.7,37.9,13.7c0.1,0,0.2-0.1,0.2-0.2
				c0-0.1-0.1-0.2-0.2-0.2c-0.1,0-0.2,0.1-0.2,0.2C37.7,13.7,37.8,13.7,37.9,13.7z M37.5,13.6C37.5,13.6,37.5,13.6,37.5,13.6
				c-0.1,0-0.1,0-0.1,0c0,0,0-0.1,0.1-0.1c0,0,0,0,0,0C37.5,13.5,37.5,13.5,37.5,13.6C37.5,13.6,37.5,13.6,37.5,13.6z M37.4,13.4
				c-0.1,0-0.2,0.1-0.2,0.2c0,0.1,0.1,0.2,0.2,0.2c0,0,0,0,0,0c0.1,0,0.1,0,0.1-0.1c0,0,0.1-0.1,0.1-0.1
				C37.7,13.4,37.6,13.3,37.4,13.4z M37.7,13.5L37.7,13.5L37.7,13.5z M38,14.2C38,14.3,38,14.3,38,14.2c-0.1,0.1-0.1,0.1-0.1,0.1
				c0,0,0,0,0,0C37.9,14.2,37.9,14.2,38,14.2C38,14.2,38,14.2,38,14.2C38,14.2,38,14.2,38,14.2C38,14.2,38,14.2,38,14.2L38,14.2z
				 M38,14c-0.1,0-0.2,0.1-0.2,0.2c0,0.1,0,0.1,0.1,0.1c0,0,0.1,0.1,0.1,0.1c0,0,0,0,0,0c0.1,0,0.2-0.1,0.2-0.2c0-0.1,0-0.1-0.1-0.1
				C38.1,14,38,14,38,14z M37.8,12.8C37.8,12.8,37.9,12.8,37.8,12.8C37.9,12.8,37.9,12.8,37.8,12.8c0.1,0,0.1,0,0.1,0c0,0,0,0,0,0v0
				c0,0,0,0.1-0.1,0.1c0,0,0,0-0.1,0C37.8,12.9,37.8,12.9,37.8,12.8C37.8,12.8,37.8,12.8,37.8,12.8z M37.9,13
				C37.9,13,37.9,13,37.9,13c0.1,0,0.2-0.1,0.2-0.2c0-0.1,0-0.1-0.1-0.1c0,0-0.1-0.1-0.2-0.1c-0.1,0-0.1,0-0.1,0.1
				c0,0-0.1,0.1-0.1,0.1c0,0.1,0,0.1,0.1,0.1C37.8,13,37.8,13,37.9,13z M38.7,14.2C38.7,14.2,38.7,14.2,38.7,14.2
				C38.6,14.2,38.6,14.2,38.7,14.2L38.7,14.2c0-0.1-0.1-0.2-0.3-0.2c-0.1,0-0.2,0.1-0.2,0.2c0,0.1,0,0.1,0.1,0.1c0,0,0.1,0,0.1,0.1
				c-0.1,0.1-0.3,0.1-0.4,0.1c-0.2,0-0.3,0-0.4-0.1c0.1,0,0.2-0.1,0.2-0.2c0-0.1,0-0.1-0.1-0.1c0,0-0.1-0.1-0.2-0.1
				c-0.1,0-0.1,0-0.1,0.1s-0.1,0.1-0.1,0.1c0,0,0,0,0,0c0,0,0,0,0,0C37.1,14.2,37,14,37,13.8c0,0,0,0,0,0c0,0,0,0,0,0
				c0.1,0,0.1,0,0.1-0.1c0,0,0.1-0.1,0.1-0.1c0-0.1,0-0.1-0.1-0.1c0,0-0.1-0.1-0.2-0.1c0,0,0,0,0,0c0-0.2,0.1-0.4,0.2-0.5
				c0,0,0,0,0,0c0,0,0,0,0,0c0,0.1,0,0.1,0.1,0.1c0,0,0.1,0.1,0.1,0.1c0,0,0,0,0,0c0.1,0,0.2-0.1,0.2-0.2c0-0.1,0-0.1-0.1-0.1
				c0,0-0.1,0-0.1-0.1c0.1-0.1,0.3-0.1,0.4-0.1c0,0,0,0,0.1,0c0.1,0,0.3,0,0.4,0.1c0,0-0.1,0-0.1,0.1c0,0-0.1,0.1-0.1,0.1
				c0,0.1,0,0.1,0.1,0.1c0,0,0.1,0.1,0.1,0.1c0,0,0,0,0,0c0.1,0,0.1,0,0.1-0.1c0,0,0.1-0.1,0.1-0.1c0,0,0,0,0,0c0,0,0,0,0,0
				c0.2,0.1,0.3,0.3,0.3,0.5c0,0,0,0,0,0c-0.1,0-0.2,0.1-0.2,0.2c0,0.1,0.1,0.2,0.2,0.2c0,0,0,0,0,0c0,0,0,0,0,0
				C38.9,13.9,38.8,14,38.7,14.2z M38.4,14.3C38.4,14.3,38.4,14.3,38.4,14.3C38.4,14.2,38.4,14.2,38.4,14.3c-0.1-0.1,0-0.1,0-0.1
				c0,0,0,0,0,0C38.5,14.1,38.5,14.2,38.4,14.3C38.5,14.2,38.5,14.3,38.4,14.3z M37.4,14.3C37.4,14.2,37.4,14.2,37.4,14.3
				C37.5,14.2,37.5,14.2,37.4,14.3C37.5,14.2,37.5,14.2,37.4,14.3c0.1-0.1,0.1-0.1,0.1-0.1c0,0,0,0,0,0v0
				C37.6,14.3,37.5,14.3,37.4,14.3C37.5,14.3,37.5,14.3,37.4,14.3C37.4,14.3,37.4,14.3,37.4,14.3z M36.9,13.6
				C36.9,13.6,36.9,13.6,36.9,13.6C36.9,13.6,36.9,13.6,36.9,13.6C36.9,13.6,36.9,13.5,36.9,13.6C36.9,13.5,37,13.5,36.9,13.6
				C37,13.5,37,13.5,36.9,13.6c0.1-0.1,0.1-0.1,0.1-0.1c0,0,0,0,0,0v0c0,0,0,0,0,0.1C37,13.6,37,13.7,36.9,13.6
				C37,13.7,37,13.7,36.9,13.6C36.9,13.6,36.9,13.6,36.9,13.6z M37.4,12.8C37.4,12.8,37.5,12.8,37.4,12.8
				C37.5,12.8,37.5,12.8,37.4,12.8c0.1,0.1,0,0.1,0,0.1c0,0,0,0-0.1,0C37.4,12.9,37.3,12.9,37.4,12.8C37.3,12.8,37.3,12.8,37.4,12.8
				C37.4,12.8,37.4,12.8,37.4,12.8C37.4,12.8,37.4,12.8,37.4,12.8z M38.4,12.8C38.4,12.8,38.4,12.8,38.4,12.8
				C38.4,12.9,38.4,12.9,38.4,12.8c-0.1,0.1-0.1,0.1-0.1,0.1s0,0,0,0c0,0,0,0,0-0.1C38.3,12.7,38.3,12.7,38.4,12.8
				C38.4,12.7,38.4,12.7,38.4,12.8C38.4,12.7,38.4,12.7,38.4,12.8C38.4,12.8,38.4,12.8,38.4,12.8z M38.9,13.4
				C38.9,13.5,38.9,13.5,38.9,13.4L38.9,13.4C38.9,13.5,38.9,13.5,38.9,13.4C38.9,13.5,38.9,13.5,38.9,13.4
				C38.9,13.5,38.9,13.5,38.9,13.4c-0.1,0.1-0.1,0.1-0.1,0C38.8,13.4,38.8,13.4,38.9,13.4C38.9,13.4,38.9,13.4,38.9,13.4
				C38.9,13.4,38.9,13.4,38.9,13.4C38.9,13.4,38.9,13.4,38.9,13.4z M39.3,13.4c0-0.4-0.2-0.7-0.5-1c-0.3-0.3-0.6-0.4-1-0.4
				c-0.4,0-0.7,0.2-1,0.5c-0.3,0.3-0.4,0.6-0.4,1c0,0.4,0.2,0.7,0.5,1c0.3,0.2,0.6,0.4,0.9,0.4c0,0,0.1,0,0.1,0c0.4,0,0.7-0.2,1-0.5
				C39.2,14.2,39.4,13.8,39.3,13.4z"/>
		</g>
	</g>
</g>
</svg>
