<?xml version="1.0" encoding="utf-8"?>
<!-- Generator: Adobe Illustrator 22.1.0, SVG Export Plug-In . SVG Version: 6.00 Build 0)  -->
<svg version="1.1" id="Calque_1" xmlns="http://www.w3.org/2000/svg" xmlns:xlink="http://www.w3.org/1999/xlink" x="0px" y="0px"
	 viewBox="0 0 60 60" style="enable-background:new 0 0 60 60;" xml:space="preserve">
<style type="text/css">
	.st0{fill:#0082C3;}
</style>
<title>icone blanc</title>
<desc>Created with Sketch.</desc>
<g id="icone-blanc">
	<g id="spelunking" transform="translate(-16.000000, -29.000000)">
		<g id="surf" transform="translate(25.000000, 41.000000)">
			<path id="Page-1" class="st0" d="M18.2,2.8c0.3-1.2-0.5-2.4-1.5-2.7c-1.1-0.3-2.4,0.3-2.7,1.5c-0.1,0.4-0.1,0.9,0,1.3
				C14.1,3.5,15.5,5,15.5,5l1.1,0.2c0,0,0.8,0.2,0.9-0.2C17.8,4.3,18.1,3.2,18.2,2.8z M12.8,8.7l-2.7-0.3c0,0-2.5,0.9-4,1.3
				c-1.4,0.5-1.9-0.3-1.9-0.3l5.6-2.8L11.4,6c1.5-0.6,1.8-0.7,3-0.5c0.7,0.1,4.2,0.7,4.2,0.7c1.1,0.5,4.2,2.6,5,3.2
				c0.4,0.3,0.6,0.4,0.8,1c0.2,0.4,2.1,4.7,2.9,6.6c-1.1,0.2-1.7-0.4-2.1-1.2c-0.4-0.7-2.9-4.6-2.9-4.6L21,10.3l0.2,0.8l0.3,1.2
				c0.8,1.3,1.5,2.3,1.5,3.3c0.1,1.2-0.4,1.9-0.5,2.2c-0.2,0.3-2.8,3.9-2.8,3.9l1.7,4.9c6,2.9,11.7,6.4,15,8.4
				c0.2,0.1,0.3,0.2,0.3,0.2l0.9,0.5l-1,0.2c-1.6,0.3-3.2,0.5-4.8,0.5c-1.2,0-2.5-0.1-3.8-0.3c-2.4-0.4-4.9-1-7.4-2.1
				c-4.2-1.7-6.9-3.6-7.1-3.8c-5.5-3.6-8.5-6.4-8.6-8.1c0-0.6,0.2-0.8,0.3-0.9l0.1-0.1l0.2,0c2.1,0.1,4.7,0.8,7.4,1.7
				c0.2-1.5,0.6-3.4,0.6-3.6c0.1-0.4,0.3-0.9,0.6-1.3c0.2-0.2,2.7-3.2,2.7-3.2l0-1.3L12.8,8.7z M17.9,18.3l-1.8,1.3l-1.5,4
				c1.2,0.5,2.5,1,3.7,1.6c0,0-1.2-2.7-1.4-3.1c-0.1-0.3-0.2-0.7-0.1-1.1C16.9,20.7,17.9,18.3,17.9,18.3z M12.5,24.8
				c0,0,0.1-0.5,0.2-1.1c-2.8-1-5.1-1.5-7-1.7c0,0,0,0.1,0,0.2c0.1,0.3,0.3,1,1.6,2.3c1.4,1.4,3.6,3.1,6.6,5.1l0,0c0,0,2.8,2,7,3.7
				c2.4,1,4.8,1.6,7.2,2c2.5,0.4,5,0.4,7.3,0c-4.3-2.6-8.4-5-12.2-6.9c-0.5-0.2-1-0.5-1.4-0.7l0.9,2.7c0,0-1.7,0.3-2.4-1.5l-1.2-2.5
				c-1.6-0.8-3.2-1.4-4.6-2l-0.8,2.3C13.4,26.6,12.2,26.2,12.5,24.8z"/>
		</g>
	</g>
</g>
</svg>
