<?xml version="1.0" encoding="utf-8"?>
<!-- Generator: Adobe Illustrator 22.1.0, SVG Export Plug-In . SVG Version: 6.00 Build 0)  -->
<svg version="1.1" id="Calque_1" xmlns="http://www.w3.org/2000/svg" xmlns:xlink="http://www.w3.org/1999/xlink" x="0px" y="0px"
	 viewBox="0 0 60 60" style="enable-background:new 0 0 60 60;" xml:space="preserve">
<style type="text/css">
	.st0{fill:#0082C3;}
</style>
<title>icone blanc</title>
<desc>Created with Sketch.</desc>
<g id="icone-blanc">
	<g id="spelunking" transform="translate(-16.000000, -29.000000)">
		<g id="kitesurf" transform="translate(25.000000, 41.000000)">
			<path id="Fill-1" class="st0" d="M21.9,15.3l-2.6-1.7c0.1,0.2,0.1,0.4,0,0.7c-0.1,0.3-0.9,2.2-1.4,3.3l0.8,0.1L21.9,15.3z
				 M15.9,25.9l2.8,2l1.4,2c0.5-0.3,1-0.6,1.5-0.9c0.2-0.1,0.6-0.3,1-0.4l-3.1-2.7L15.9,25.9z M35.9,10.7c-1.2,0.2-2.7,0.5-3.6,0.6
				c-2.1,0.3-3,0.2-3.4-1.3l-5.7,5.2l1.6,1c0.1,0,0.1,0.1,0.1,0.1c0,0.1,0,0.2,0,0.3c-0.1,0.2-0.3,0.2-0.5,0.1l-1.8-1.2
				c-0.1,0.2-0.2,0.5-0.5,0.8c-0.3,0.3-1.5,1.6-2.3,2.4c-0.6,0.6-0.7,0.6-1.5,0.6c-0.4,0-1.9,0-2.9-0.1c-0.5,1.9-1,3-1,3l0.8,1.1
				c0,0,3.4-0.1,4-0.1c0.6,0,0.8,0,1.3,0.5c0.2,0.3,2.4,2.5,3.9,4c1.4-0.5,2.7-0.9,2.7-0.9l2.5,0.9c0,0-1.4,3-4.2,4.9
				c-0.5,0.4-2.3,1.5-3,2c2.8,0.5,6.2,1,11.6,1v0.6c-7.1,0-10.7-0.8-14.2-1.5c-3.5-0.7-7.1-1.5-14.1-1.5v-0.6c4.2,0,7.1,0.3,9.6,0.6
				c0.6-0.5,1.9-1.4,3.3-2.4l-1.6-1.6c0,0-4.2-1.9-5.3-2.3c-0.5-0.7-0.9-1.9-1.1-3.2c-0.4-2.5,0.1-5.1,1.1-6.2
				c0.2-0.3,0.6-0.5,1.2-0.5c0.1,0,0.6,0.1,1.3,0.2l2.7-0.8l2.2-3.1l-1.1-0.7c-0.2-0.1-0.2-0.3-0.1-0.5c0.1-0.2,0.3-0.2,0.5-0.1
				l1,0.6l0.8-5.6c-0.2,0-0.4,0.1-0.5,0.1c-0.9,0.1-1.2-0.1-1.1-1.2c0.1-2.7,1.5-5,3.4-5c0,0,0,0,0,0c1.6,0,3,1.2,4,2.8
				c0.1,0.1,0,0.2-0.1,0.2c-1.4-0.5-2.2,1.5-2.2,2.2c0,0.4-0.1,0.5-0.6,0.5c-0.6,0.1-1.6,0.2-2.4,0.4l-0.8,6l1,0.7l4.6-9.2
				c0.1-0.1,0.2-0.2,0.4-0.1c0.1,0.1,0.2,0.2,0.1,0.4L21.1,14l1.5,1l6-5.5c-0.8-2.7-2.3-7.6-5.7-8.7c-0.1,0-0.1-0.2,0-0.2l4.2-0.3
				c1.1-0.1,2.1-0.2,2.6-0.2c4.4-0.3,6.4,7.2,6.9,9.2C36.8,10.1,36.9,10.5,35.9,10.7z M11.5,15.1c-0.3-0.5-0.5-1.2-0.3-1.8
				c0.2-0.8,1.2-1.4,2.5-1.3c1.3,0.1,1.9,1.2,2,1.9l-0.6,0.2c0,0.1,0,0.3-0.1,0.4c-0.1,0.3-0.5,1.4-0.7,2c-0.1,0.2-0.4,0.2-0.7,0.1
				c-0.4-0.1-0.7-0.1-0.7-0.1s-0.6-0.8-1.1-1.4L11.5,15.1z"/>
		</g>
	</g>
</g>
</svg>
