<?xml version="1.0" encoding="utf-8"?>
<!-- Generator: Adobe Illustrator 22.1.0, SVG Export Plug-In . SVG Version: 6.00 Build 0)  -->
<svg version="1.1" id="Calque_1" xmlns="http://www.w3.org/2000/svg" xmlns:xlink="http://www.w3.org/1999/xlink" x="0px" y="0px"
	 viewBox="0 0 60 60" style="enable-background:new 0 0 60 60;" xml:space="preserve">
<style type="text/css">
	.st0{filter:url(#Adobe_OpacityMaskFilter);}
	.st1{fill:#FFFFFF;}
	.st2{mask:url(#mask-2_1_);fill:#0082C3;}
	.st3{filter:url(#Adobe_OpacityMaskFilter_1_);}
	.st4{mask:url(#mask-4_1_);fill:#0082C3;}
	.st5{fill:#0082C3;}
</style>
<title>icone blanc</title>
<desc>Created with Sketch.</desc>
<g id="icone-blanc">
	<g id="spelunking" transform="translate(-16.000000, -29.000000)">
		<g id="nordic-walk" transform="translate(25.000000, 41.000000)">
			<g id="Page-1" transform="translate(11.200000, 0.000000)">
				<g id="Group-3" transform="translate(5.130201, 0.204719)">
					<g id="Clip-2">
					</g>
					<defs>
						<filter id="Adobe_OpacityMaskFilter" filterUnits="userSpaceOnUse" x="0.1" y="0" width="4.6" height="5.8">
							<feColorMatrix  type="matrix" values="1 0 0 0 0  0 1 0 0 0  0 0 1 0 0  0 0 0 1 0"/>
						</filter>
					</defs>
					<mask maskUnits="userSpaceOnUse" x="0.1" y="0" width="4.6" height="5.8" id="mask-2_1_">
						<g class="st0">
							<polygon id="path-1_1_" class="st1" points="0.1,0 4.7,0 4.7,5.8 0.1,5.8 							"/>
						</g>
					</mask>
					<path id="Fill-1" class="st2" d="M4.7,2.4c0,0.6-0.2,1.1-0.4,1.6C4.2,4.4,4,4.9,3.9,5.4C3.8,5.7,3.6,5.9,3.3,5.8
						c-0.8-0.1-1.5-0.2-1.9-1C1.1,4.4,0.7,4.1,0.4,3.6c-0.6-0.8-0.5-1.9,0.1-2.7c0.6-0.8,1.7-1.1,2.6-0.8C4.1,0.5,4.7,1.4,4.7,2.4"
						/>
				</g>
				<g id="Group-6" transform="translate(10.504698, 7.777874)">
					<g id="Clip-5">
					</g>
					<defs>
						<filter id="Adobe_OpacityMaskFilter_1_" filterUnits="userSpaceOnUse" x="0.2" y="0" width="8.1" height="19.4">
							<feColorMatrix  type="matrix" values="1 0 0 0 0  0 1 0 0 0  0 0 1 0 0  0 0 0 1 0"/>
						</filter>
					</defs>
					<mask maskUnits="userSpaceOnUse" x="0.2" y="0" width="8.1" height="19.4" id="mask-4_1_">
						<g class="st3">
							<polygon id="path-3_1_" class="st1" points="0.2,0 8.2,0 8.2,19.5 0.2,19.5 							"/>
						</g>
					</mask>
					<path id="Fill-4" class="st4" d="M3.3,0.1c0.2,0,0.4,0,0.4,0.2c0.1,0.4,0.4,0.3,0.7,0.2C5,0.3,5.1,0.3,4.9,0.9
						c0,0.1-0.1,0.3-0.2,0.4c-0.6,0.3-0.4,1-0.6,1.4c0,0.1,0,0.2,0,0.3c1.3,5.3,2.6,10.6,3.9,15.9c0,0.2,0.3,0.4,0,0.5
						c-0.3,0.1-0.4-0.1-0.4-0.3c-0.4-1.8-0.9-3.5-1.3-5.3C5.5,10.3,4.6,6.8,3.7,3.3C3.6,2.7,3.2,2.5,2.6,2.6C2,2.8,1.4,2.9,0.7,3.1
						C0.5,3.2,0.4,3.2,0.4,2.9c0-0.4-0.1-0.8-0.2-1.2c-0.1-0.2,0-0.3,0.2-0.3c0.7-0.2,1.3-0.3,2-0.5c0.2,0,0.4-0.1,0.3-0.4
						C2.8,0.2,3,0.1,3.3,0.1"/>
				</g>
				<path id="Fill-7" class="st5" d="M11,20.9c0.3-1.1,0.7-2.2,1-3.3c0.3-0.9,0.1-1.2-0.7-1.6c-0.3-0.1-0.6-0.3-0.9-0.4
					c-0.3-0.2-0.5-0.2-0.4,0.2c0,0.1,0,0.1,0,0.2c0,0.7-0.3,1.3-0.1,2C10.2,19,10.6,19.9,11,20.9C11,20.9,11,20.9,11,20.9 M9.8,26.8
					c-0.4,1.2-0.7,2.4-1.1,3.5c-0.4,1.4-0.9,2.8-1.3,4.2c-0.1,0.2-0.1,0.6-0.4,0.5c-0.4-0.1-0.2-0.4-0.1-0.6
					c0.8-2.7,1.7-5.4,2.5-8.1c0.1-0.3,0.1-0.4-0.1-0.7c-0.4-0.6-0.7-1.2-1.2-1.8c-0.2,1-0.3,1.9-0.4,2.8c-0.1,0.7-0.4,1.2-0.9,1.6
					c-2.1,1.6-4.1,3.2-6.1,4.8c-0.3,0.2-0.4,0.1-0.5-0.1c-0.2-0.5-0.1-0.9,0.1-1.4c0.3-0.5,0.6-1,1-1.4c1.1-1.3,2.3-2.5,3.5-3.8
					c0.2-0.2,0.2-0.4,0.2-0.6c-0.2-1.6-0.4-3.3-0.4-5c0-0.4-0.2-0.7-0.3-1.1C4,18.4,4,17.3,4.3,16.3c0-0.1,0.9-7.8,0.9-7.9
					C5.3,7.9,5.4,7.5,5.4,7c0.1-0.6,0.4-0.9,1-0.8c1,0.1,1.9,0.3,2.9,0.5C9.8,6.8,9.9,7.3,10,7.7c0.2,0.8,0.2,1.6,0.4,2.4
					c0.2,0.9-0.1,1.8-0.1,2.7c-0.6-0.3-1.1-0.6-1.5-0.9c-0.1-0.1-0.1-0.2-0.1-0.3c-0.1-0.4-0.2-0.8-0.3-1.3c0-0.1-0.1-0.2-0.2-0.2
					c-0.2,0-0.1,0.2-0.1,0.3c0.1,0.5,0.1,1,0.2,1.5c0,0.2,0.1,0.3,0.3,0.4c1.3,0.8,2.6,1.5,3.9,2.3c0.1,0.1,0.2,0.1,0.4,0
					c0.4-0.2,0.8,0,0.8,0.5c0,0.2,0.1,0.2,0.2,0.3c0.4,0.2,0.7,0.4,1.1,0.6c0.2,0.1,0.2,0.2,0.1,0.4c-0.4,0.4-0.9,0.7-1.5,0.6
					c-0.1,0-0.3-0.2-0.4-0.1c-0.1,0.2-0.4,0.2-0.5,0.5c-0.4,1.4-0.9,2.9-1.3,4.3c-0.1,0.2,0,0.3,0.1,0.5c0.2,0.6,0.4,1.3,0.7,1.9
					c0.5,1.1,0.5,2.3,0.4,3.5c-0.3,2.8-0.6,5.6-0.8,8.4c0,0.4-0.1,0.5-0.5,0.3c-0.7-0.3-0.9-0.8-1.1-1.4c-0.1-0.4-0.1-0.8-0.1-1.2
					C10,31.4,9.9,29.1,9.8,26.8C9.8,26.8,9.8,26.8,9.8,26.8"/>
			</g>
		</g>
	</g>
</g>
</svg>
