<?xml version="1.0" encoding="utf-8"?>
<!-- Generator: Adobe Illustrator 22.1.0, SVG Export Plug-In . SVG Version: 6.00 Build 0)  -->
<svg version="1.1" id="Calque_1" xmlns="http://www.w3.org/2000/svg" xmlns:xlink="http://www.w3.org/1999/xlink" x="0px" y="0px"
	 viewBox="0 0 60 60" style="enable-background:new 0 0 60 60;" xml:space="preserve">
<style type="text/css">
	.st0{fill:#0082C3;}
	.st1{filter:url(#Adobe_OpacityMaskFilter);}
	.st2{fill:#FFFFFF;}
	.st3{mask:url(#mask-2_1_);fill:#0082C3;}
	.st4{filter:url(#Adobe_OpacityMaskFilter_1_);}
	.st5{mask:url(#mask-4_1_);fill:#0082C3;}
</style>
<title>icone blanc</title>
<desc>Created with Sketch.</desc>
<g id="icone-blanc">
	<g id="spelunking" transform="translate(-16.000000, -29.000000)">
		<g id="speluking" transform="translate(25.000000, 41.000000)">
			
				<g id="Page-1" transform="translate(20.166143, 19.093369) rotate(11.000000) translate(-20.166143, -19.093369) translate(-0.133857, 9.293369)">
				<g id="Group-6" transform="translate(27.773143, 0.015503)">
					<path id="Fill-1" class="st0" d="M0.6,6.5c0.2,0.6,1.1,1.9,1.1,1.9s0.5,0.1,0.9,0.2c0.3,0.1,0.6,0.1,0.7-0.1
						C3.5,7.9,3.9,6.9,4,6.6c0.1-0.3,0.1-0.6,0.1-0.8l1.1,0.2l0-0.3L4.7,5.2C4.4,4.2,3.6,3.5,2.6,3.4C1.3,3.3,0.1,4.3,0,5.5
						c0,0.4,0,0.8,0.2,1.1L0.6,6.5z"/>
					<g id="Group-5" transform="translate(4.683314, 0.000000)">
						<g id="Clip-4">
						</g>
						<defs>
							<filter id="Adobe_OpacityMaskFilter" filterUnits="userSpaceOnUse" x="0.3" y="-0.1" width="6.8" height="5.6">
								<feColorMatrix  type="matrix" values="1 0 0 0 0  0 1 0 0 0  0 0 1 0 0  0 0 0 1 0"/>
							</filter>
						</defs>
						<mask maskUnits="userSpaceOnUse" x="0.3" y="-0.1" width="6.8" height="5.6" id="mask-2_1_">
							<g class="st1">
								<polygon id="path-1_1_" class="st2" points="0.1,0 7.6,0 7.6,4.2 0.1,4.2 								"/>
							</g>
						</mask>
						<path id="Fill-3" class="st3" d="M0.1,4.2L6.3,0c0,0,2.1,1.5,1,4.1C4,4.2,0.1,4.2,0.1,4.2"/>
					</g>
				</g>
				<g id="Group-9" transform="translate(0.000000, 2.688516)">
					<g id="Clip-8">
					</g>
					<defs>
						<filter id="Adobe_OpacityMaskFilter_1_" filterUnits="userSpaceOnUse" x="2.3" y="-3.2" width="28.8" height="23.7">
							<feColorMatrix  type="matrix" values="1 0 0 0 0  0 1 0 0 0  0 0 1 0 0  0 0 0 1 0"/>
						</filter>
					</defs>
					<mask maskUnits="userSpaceOnUse" x="2.3" y="-3.2" width="28.8" height="23.7" id="mask-4_1_">
						<g class="st4">
							<polygon id="path-3_1_" class="st2" points="0,0 34.4,0 34.4,15.7 0,15.7 							"/>
						</g>
					</mask>
					<path id="Fill-7" class="st5" d="M26.1,11.6c-1,0.1-1.6-0.6-1.8-1.2c-0.1-0.3-0.9-2.8-0.9-2.8L25.1,8L26.1,11.6z M8.2,7.7
						c1.1,0.2,9,1.8,9.6,1.9c1,0.2,1.4-0.4,1.3-1.2c-0.1-0.7-0.6-3.1-0.6-3.1l4.6,1.9l3.1,0.6c0,0,2.5,5.6,2.7,5.9
						c0.2,0.4,0.6,0.8,1.2,0.8l-3.9,0.7l-4.8-2.9l-10.9,0L8.2,7.7z M21.3,12.8l4.8,2.9l8.3-1.5l0-0.4l-3.8,0.7l-2-6.9
						C29.2,7.6,28,5,28,5s0-0.1-0.1-0.2c-0.3-1.1-1-1.8-3-2.3c-2.7-0.7-4.8-1.1-4.8-1.1S19.4,1,18.8,0.7c-0.6-0.3-2.3-1.1-4.1-0.2
						C13,1.3,9.1,3.3,9.1,3.3s-5.9-0.7-7-0.8c-1-0.1-2,0.3-2.1,1.1c6.8,1.5,6.8,1.5,8.5,1.9c1,0.2,1.2,0.2,2.1,0
						c0.8-0.2,4.3-1.1,4.3-1.1l0.8,2.4c0,0-4.9-0.4-5.5-0.5C9.1,6.3,8.3,6.7,8.1,7.5L7.5,6.3L0,8.2l0,0.4l7.2-1.8l3,5.9L21.3,12.8z"
						/>
				</g>
			</g>
		</g>
	</g>
</g>
</svg>
