<?xml version="1.0" encoding="utf-8"?>
<!-- Generator: Adobe Illustrator 22.1.0, SVG Export Plug-In . SVG Version: 6.00 Build 0)  -->
<svg version="1.1" id="Calque_1" xmlns="http://www.w3.org/2000/svg" xmlns:xlink="http://www.w3.org/1999/xlink" x="0px" y="0px"
	 viewBox="0 0 60 60" style="enable-background:new 0 0 60 60;" xml:space="preserve">
<style type="text/css">
	.st0{fill:#0082C3;}
</style>
<title>icone blanc</title>
<desc>Created with Sketch.</desc>
<g id="icone-blanc">
	<g id="spelunking" transform="translate(-16.000000, -29.000000)">
		<g id="orienteering" transform="translate(25.000000, 41.000000)">
			<path id="Fill-1" class="st0" d="M20.4,6.1c0,0-0.1,0-0.1,0c-0.1,0-0.1,0-0.1,0S20.3,6.1,20.4,6.1z M19.8,2.9
				c-0.1-0.4-0.1-0.9,0.1-1.3c0.4-1.3,1.8-1.9,2.9-1.5c1.1,0.3,1.9,1.7,1.5,2.9c-0.1,0.4-0.6,1.8-0.8,2.6c-0.1,0.3-0.5,0.2-0.9,0.2
				c-0.5-0.1-0.9-0.1-0.9-0.1S19.9,3.6,19.8,2.9z M20,16.4l-3.3-4.8l3.2-1.9l-0.1,0.5l-1.4,1.1l0,2l1.8,2.8L20,16.4z M26.6,13
				c0.4,0.3,0.8,0.3,1,0l0,0c0,0,3.1-3.1,4-4.1c1-1,0-2.2,0-2.2l-4.3,3.6c0,0-2.3-2.8-2.5-3.1c-0.3-0.4-0.5-0.6-1.1-0.7
				c-0.4,0-2.7-0.3-3.5-0.4c0.2,0,0.6,0.1,0,0c0,0-0.1,0-0.1,0c0,0-0.1,0-0.1,0C19,6,18.7,6.4,17.4,7.7c0,0-2.8,2.7-3.1,3
				c-0.3,0.3-0.7,1-0.1,1.6c0.4,0.4,3.3,3.2,4,3.9c-0.8,0.9-0.9,2.3-0.3,3.5l-1.6,6c0,0-4,6.5-4.5,7.3c-0.4,0.7-1.2,2,0.4,3l6.6-8.6
				l2.4-3.6l-1.7-2l0.1-0.4c0,0,0.6,0.6,2,2.1c1.5,1.5,2.8,3.3,2.8,3.3s3.4,7,3.8,7.8c0.4,0.8,1.4,2.2,3.2,1.6l-3.9-10.8l-3.9-7
				l1.6-6.6L26.6,13z"/>
			<g id="noun_1446069_cc" transform="translate(29.400000, 12.600000)">
				<path id="Shape" class="st0" d="M1.9,6.6C0.8,6,0,4.8,0,3.5C0,1.6,1.6,0,3.5,0S7,1.6,7,3.5C7,4.8,6.2,6,5.1,6.6l-1.6,4.5
					L1.9,6.6z M3.5,5.7c1.2,0,2.3-1,2.3-2.3c0-1.2-1-2.3-2.3-2.3c-1.2,0-2.3,1-2.3,2.3C1.3,4.7,2.3,5.7,3.5,5.7z"/>
			</g>
		</g>
	</g>
</g>
</svg>
