<?xml version="1.0" encoding="utf-8"?>
<!-- Generator: Adobe Illustrator 22.1.0, SVG Export Plug-In . SVG Version: 6.00 Build 0)  -->
<svg version="1.1" id="Calque_1" xmlns="http://www.w3.org/2000/svg" xmlns:xlink="http://www.w3.org/1999/xlink" x="0px" y="0px"
	 viewBox="0 0 60 60" style="enable-background:new 0 0 60 60;" xml:space="preserve">
<style type="text/css">
	.st0{fill:#0082C3;}
</style>
<title>icone blanc</title>
<desc>Created with Sketch.</desc>
<g id="icone-blanc">
	<g id="spelunking" transform="translate(-16.000000, -29.000000)">
		<g id="canoying" transform="translate(25.000000, 41.000000)">
			<path id="Fill-1" class="st0" d="M31.3,30.7c-0.7-1.1-4.1-6.1-5.3-7.9c-0.3-0.5-0.6-0.9-1.2-1.2c-0.6-0.3-4-2-4-2l1.4-1.6
				c0,0,5.4,3,6.1,3.4c0.7,0.3,1.8,0.9,2.8,0l1.2,6.3C32.2,27.8,31.8,29.1,31.3,30.7z M35.1,0h-0.5v5.7l-4.3,11.9l0.7,3.6
				c-2.5-1.9-7.8-5.7-7.8-5.7s-1.5-1.5-3-0.4c-1.6,1.1-3.3,2.1-3.3,2.1l-0.3-0.4l2.6-3.9c0,0-0.7-0.3-1.5-0.1l5-12.7c0,0,0,0,0,0h-1
				l-5.4,14l-1,1.3l-1.6-1.8c0,0-3.5-0.8-4.3-1C8.4,12.2,7,12.1,7,13.7c0.1,1.6,2.5,6.1,2.5,6.1s3.5,3,4,3.4c0.2,0.2,0.6,0.4,1,0.6
				l1.4,12.7c0,0,0,0,0,0h0.9l-1.4-12.6c0.2,0,0.4-0.1,0.6-0.2l-0.8-1.3l8.2,2.5c0,0,4.1,4.7,4.7,5.3c0.5,0.6,1.5,1.6,3,1.1
				c-0.6,1.9-1.3,4.1-1.7,5.3H30c0.8-2.4,2.8-8.4,2.8-8.4l-1.9-10.3l4.3-11.9V0z M8.7,9.8C9,10.6,9.9,12,9.9,12s0.6,0.1,1,0.2
				c0.4,0.1,0.7,0.1,0.8-0.1c0.2-0.6,0.7-1.8,0.8-2.2c0.1-0.3,0.2-0.7,0.1-1L14,9.2l0-0.4l-0.6-0.5c-0.3-1.1-1.2-2-2.4-2.1
				c-1.5-0.1-2.8,1-2.9,2.5c0,0.5,0,0.9,0.2,1.3L8.7,9.8z"/>
		</g>
	</g>
</g>
</svg>
