<?xml version="1.0" encoding="utf-8"?>
<!-- Generator: Adobe Illustrator 22.1.0, SVG Export Plug-In . SVG Version: 6.00 Build 0)  -->
<svg version="1.1" id="Calque_1" xmlns="http://www.w3.org/2000/svg" xmlns:xlink="http://www.w3.org/1999/xlink" x="0px" y="0px"
	 viewBox="0 0 60 60" style="enable-background:new 0 0 60 60;" xml:space="preserve">
<style type="text/css">
	.st0{fill:#0082C3;}
</style>
<title>icone blanc</title>
<desc>Created with Sketch.</desc>
<g id="icone-blanc">
	<g id="spelunking" transform="translate(-16.000000, -29.000000)">
		<g id="snowboard" transform="translate(25.000000, 41.000000)">
			<path id="Fill-1" class="st0" d="M19.8,4.4c-0.9-2-0.2-3.5,1.1-4.1c1.2-0.6,2.5-0.2,3.3,0.1c1.7,0.6,1.2,2.9,1.2,2.9L25,3.6
				c0,0.6-0.1,1.9-0.2,2.6c0,0.4-0.4,0.3-0.9,0.4c-0.5,0.1-1,0.1-1,0.1s-1.4-1-2.2-1.8C20.5,4.8,20.1,4.7,19.8,4.4z M21.8,22.7
				l-2.1,8.2l-6.1-2.1l4.9-6.6l4.1-0.8L21.8,22.7z M32.3,9.7c0,0-2.6-1.4-3.7-2C27.3,7,26.7,6.9,25.8,7c-0.7,0.1-3.5,0.4-4.1,0.5
				c-0.9,0.1-1.4,0.3-1.9,0.9c-0.4,0.4-3,3.5-3,3.5L11,16.1c0.1,0.5,1.6,1.1,2.6,0.4c1-0.7,7.5-4.9,7.5-4.9l2.3,5c0,0-6.1,2.7-6.6,3
				c-0.9,0.4-1.2,0.7-1.6,1.6c-0.3,0.7-3,6-3.5,7c-1.5-0.5-2.6-0.9-2.9-1c-1.8-0.6-3-2.6-3.1-0.9c-0.2,2.2,1.4,2.8,2.3,3.2
				c1,0.4,17.9,6.5,20.9,6.9c1.9,0.2,2.5-0.5,2.6-1.2c0.2-1.4-1-2.2-4.1-2.2c-1.9,0-3.3-0.6-5.4-1.3l3.4-8.2c0,0,1.8-1.2,3.5-2.3
				c1.4-0.9,1.3-3.5,0.3-5.9l-0.9-4.6l2.8,1.2c0,0,3.4,2.4,4.3,3c0.8,0.5,2,0.5,2.1-0.1L32.3,9.7z"/>
		</g>
	</g>
</g>
</svg>
