<?xml version="1.0" encoding="utf-8"?>
<!-- Generator: Adobe Illustrator 22.1.0, SVG Export Plug-In . SVG Version: 6.00 Build 0)  -->
<svg version="1.1" id="Calque_1" xmlns="http://www.w3.org/2000/svg" xmlns:xlink="http://www.w3.org/1999/xlink" x="0px" y="0px"
	 viewBox="0 0 60 60" style="enable-background:new 0 0 60 60;" xml:space="preserve">
<style type="text/css">
	.st0{fill:#0082C3;}
</style>
<title>icone blanc</title>
<desc>Created with Sketch.</desc>
<g id="icone-blanc">
	<g id="spelunking" transform="translate(-16.000000, -29.000000)">
		<g id="baseball" transform="translate(25.000000, 41.000000)">
			<path id="Fill-1" class="st0" d="M31.6,17.6c0.5,0,0.9-0.4,0.9-0.9c0-0.5-0.4-0.9-0.9-0.9c-0.5,0-0.9,0.4-0.9,0.9
				C30.7,17.2,31.1,17.6,31.6,17.6z M16.4,8.9C16.1,10,17,11,17,11l0.4,0c0.4,0.6,0.9,1.2,0.9,1.2s0.5,0,0.8,0.1
				c0.4,0,0.6,0.1,0.7-0.1c0.2-0.6,0.5-1.8,0.6-2.1c0-0.2,0.1-0.3,0.1-0.5l1-0.1l0-0.2l-1-0.7c0-0.9-1.2-1.4-2.1-1.4
				C17.6,7.2,16.7,7.8,16.4,8.9z M30.7,36.3c-0.4,0.2-1.4,0.3-2.1-1c-0.7-1.3-3.7-6.6-3.7-6.6l-4.1-4.7l-4.1,5.1c0,0-3,5.9-3.1,6.3
				c-0.2,0.4-0.5,1.2-1.7,1c0.3-1.6,2.4-8.4,2.4-8.4l2.9-7.3l-0.8-3.1l-0.7,0.2L12.7,16l0.1,0.3l1.3,1.1c0,0-0.4,0.4-0.4,0.4
				c-0.7,0.6-1.1-0.2-1.1-0.2l-1.3-2.4l-0.5-0.3l-0.1,0.3c0,0,0,0,0,0c0,0,0,0,0,0l0,0l0,0c-0.1,0.1-0.2,0.2-0.4,0.2
				c-0.3,0-0.5-0.2-0.6-0.5c0-0.2,0-0.3,0.1-0.4l0.2-0.3c-0.5-0.6-0.3-1.1,0-1.4c0.2-0.2,0.6-0.2,0.9-0.2c0,0,1.2-2.1,7.4-12.4
				c0.2-0.3,0.5-0.4,1-0.1c0.5,0.3,0.6,0.6,0.3,1c-5.5,8.4-7.8,11.9-7.8,11.9l0.6,0.8l1.2,0.6c0,0,0.8-1.3,1-1.5
				c0.3-0.5,0.7-0.7,1.4-0.6c0.6,0.1,4.4,0.5,5.4,0.6c2.1,0.2,1.3,2.8,1.1,3.3l0.3,4.1l4.2,6.9L30.7,36.3z"/>
		</g>
	</g>
</g>
</svg>
