<?xml version="1.0" encoding="utf-8"?>
<!-- Generator: Adobe Illustrator 22.1.0, SVG Export Plug-In . SVG Version: 6.00 Build 0)  -->
<svg version="1.1" id="Calque_1" xmlns="http://www.w3.org/2000/svg" xmlns:xlink="http://www.w3.org/1999/xlink" x="0px" y="0px"
	 viewBox="0 0 60 60" style="enable-background:new 0 0 60 60;" xml:space="preserve">
<style type="text/css">
	.st0{fill:#0082C3;}
</style>
<title>icone blanc</title>
<desc>Created with Sketch.</desc>
<g id="icone-blanc">
	<g id="spelunking" transform="translate(-16.000000, -29.000000)">
		<g id="cricket" transform="translate(25.000000, 41.000000)">
			<path id="Fill-1" class="st0" d="M34.3,23c0.6,0,1.2-0.5,1.2-1.2c0-0.6-0.5-1.2-1.2-1.2c-0.6,0-1.2,0.5-1.2,1.2
				C33.2,22.5,33.7,23,34.3,23z M10.1,23.7c0,0-2.9,9.7-3,10.1c-0.5,2,0.8,2.6,0.8,2.6l5-10.5l-2.6-4.1L10.1,23.7z M23.2,13.3
				c-0.5-0.4-0.7-0.8-0.8-1.3l-3.9-3.1l-0.2,0.3l3.3,3.1l-1,2.3l2.2-0.8L23.2,13.3z M31.7,28.7l-3.1,1.2l-5-13.6l0.7-0.7l-0.1-0.2
				l-0.6,0c-1.6,0.7-4.4,1.9-4.6,2c-0.3,0.1-0.7,0.1-1-0.1s-0.5-0.4-0.5-0.9l0.2-2.2l-2.1,3l-0.6,2.2l1.9,4.7l2.8,12.2
				c-1.3,0.5-2.3-1.1-2.5-1.6c-0.3-0.6-4-9.4-4-9.4s-2-3.1-2.9-4.5c-0.8-1.2-1.6-2.4-1.9-3.3c-0.7-2,0.8-3.6,2.1-4.6
				c0,0,3.2-6.3,4.1-7.5c0.8-1.2,2.1-2.6,4.3-0.1c0.5,0.6,3,3.5,4.5,5.3c0,0,0.9,0.3,1.3,0.8c0.3,0.5,0.5,1,0.4,1.4
				c0.3,0.1,0.5,0.3,0.7,0.6c0.2,0.4,0,0.9-0.3,1.3l0.2,0.4l1,0L31.7,28.7z M20.2,3.5L19.8,3c0,0,0-1.7,1.2-2.5
				c1.2-0.8,2.6-0.7,3.5,0.1c0.9,0.8,1.5,2.4,0.7,3.3l0.4,1.5l-0.2,0.2l-1-0.8c-0.1,0.1-0.3,0.3-0.5,0.4c-0.4,0.2-1.7,1-2.4,1.4
				c-0.3,0.2-0.5-0.1-0.8-0.5C20.3,5.8,20,5.4,20,5.4S20.1,4.4,20.2,3.5z"/>
		</g>
	</g>
</g>
</svg>
