<?xml version="1.0" encoding="utf-8"?>
<!-- Generator: Adobe Illustrator 22.1.0, SVG Export Plug-In . SVG Version: 6.00 Build 0)  -->
<svg version="1.1" id="Calque_1" xmlns="http://www.w3.org/2000/svg" xmlns:xlink="http://www.w3.org/1999/xlink" x="0px" y="0px"
	 viewBox="0 0 60 60" style="enable-background:new 0 0 60 60;" xml:space="preserve">
<style type="text/css">
	.st0{fill:#0082C3;}
</style>
<title>icone blanc</title>
<desc>Created with Sketch.</desc>
<g id="icone-blanc">
	<g id="spelunking" transform="translate(-16.000000, -29.000000)">
		<g id="basketball" transform="translate(25.000000, 41.000000)">
			<path id="Fill-1" class="st0" d="M17,16.7c-0.6,0-1.1,0.1-1.6,0.4l0.8,1C16.5,17.7,16.8,17.2,17,16.7 M15.8,18.4l-0.8-1
				c-0.4,0.4-0.7,0.9-0.9,1.4C14.7,18.8,15.3,18.7,15.8,18.4 M13.8,18.7c0.2-0.7,0.5-1.2,1-1.7l-0.4-0.5l-1.9,1.4
				C12.8,18.3,13.3,18.5,13.8,18.7 M12.2,17.5l1.9-1.4l-0.4-0.6C13.2,15.8,12.6,16,12,16c-0.1,0-0.1,0-0.2,0
				C11.8,16.5,11.9,17.1,12.2,17.5 M11.9,15.6c0.5,0,1.1-0.1,1.5-0.4l-0.7-1C12.3,14.6,12,15.1,11.9,15.6 M13.1,13.9l0.7,1
				c0.4-0.4,0.7-0.8,0.8-1.4C14.1,13.5,13.5,13.6,13.1,13.9 M15,13.6c-0.2,0.6-0.5,1.2-1,1.6l0.4,0.6l1.9-1.4
				C16,14,15.5,13.7,15,13.6 M16.6,14.8l-1.9,1.4l0.4,0.5c0.6-0.4,1.2-0.5,1.9-0.5C17,15.7,16.9,15.2,16.6,14.8 M17.6,16.6
				c-0.1,0.9-0.6,1.6-1.3,2.1c-0.6,0.4-1.2,0.6-1.9,0.6c-1,0-2-0.5-2.6-1.3c-1.1-1.4-0.8-3.5,0.7-4.5c1.4-1.1,3.4-0.8,4.5,0.7
				C17.5,14.9,17.7,15.8,17.6,16.6 M20,6.2c0,0,0.5-0.1,1-0.2c0.5-0.1,0.9-0.1,0.9-0.5v-3c0-1.5-1.2-2.6-2.5-2.6
				c-1.3,0-2.6,1-2.6,2.5c0,0.5,0.1,1,0.4,1.4C17.4,4.6,20,6.2,20,6.2 M21,6.7c0,0,1.5-0.3,2.6-0.5c0.7-0.1,1.1,0,1.7,0.3
				c0.9,0.5,4,2.4,5.8,3.5c0.6,0.4,0.8,1,0.8,1.5c-0.1,1.2-0.6,4.9-0.7,5.8c-0.1,1.4-1.6,1.4-1.6,1.4v-6.7L24.5,10v0.5l1.7,1.1
				c0,0,0.9,2.9,1.8,6c0.6,1.9,0.3,3.8-0.7,5.4c-1.5,2.2-3.2,4.9-3.2,4.9h0.6l1.2-1.5c0,0,2.2-0.4,2.9-0.6c1.6-0.3,1.9,1.2,1.9,1.2
				S24.1,30,23,30.7c-1.2,0.7-2.7-0.5-2.4-1.7c0.8-2.9,1.9-6.2,1.9-6.2h-0.4l-1.8,2.9h-4L16,26l2.2,0.3l-1.4,1.6
				c0,0-0.5,3.9-0.8,6.6c-0.2,2.2-1.9,1.9-1.9,1.9v-8.4c0-1.3,0.1-1.6,0.8-2.5c1.4-2.1,4.7-6.7,4.7-6.7l0.5-0.7v-3.2l-3.2-5.2v0.8
				l0.9,1.5l-0.7,1.4c0,0-0.7-0.8-1.9-0.9V9.8c0-1.3,0.6-2.1,1.9-2.4C18.5,7.2,21,6.7,21,6.7"/>
		</g>
	</g>
</g>
</svg>
