<?xml version="1.0" encoding="utf-8"?>
<!-- Generator: Adobe Illustrator 22.1.0, SVG Export Plug-In . SVG Version: 6.00 Build 0)  -->
<svg version="1.1" id="Calque_1" xmlns="http://www.w3.org/2000/svg" xmlns:xlink="http://www.w3.org/1999/xlink" x="0px" y="0px"
	 viewBox="0 0 60 60" style="enable-background:new 0 0 60 60;" xml:space="preserve">
<style type="text/css">
	.st0{fill:#0082C3;}
</style>
<title>icone blanc</title>
<desc>Created with Sketch.</desc>
<g id="icone-blanc">
	<g id="spelunking" transform="translate(-16.000000, -29.000000)">
		<g id="football" transform="translate(25.000000, 41.000000)">
			<path id="Fill-1" class="st0" d="M30.2,9.4c-3.3-1.3-4.3-2.8-5.9-2.6c-1.2,0-4.5,0.4-5.7,0.5c-0.9,0.1-1.6,0.3-2,0.6
				c-2.7,1.4-9,5-9,5c0.2,0.6,1.3,1,2.1,0.7c0.8-0.3,8.9-3.4,8.9-3.4l0.9-0.1L18,10.8L16.4,16l-3.8,4.6l2.3,2.7l-0.4,0l-1.2-1
				c0,0-7.7,0.3-8.4,0.3c-1.8,0.1-2.1,0.8-2.1,1.4l9.8,1.8c0,0,0.7,0.1,1.7-0.5c0.9-0.6,3.9-2.2,3.9-2.2l0.1,0l-0.9,1L16.9,26l0,0
				l2.9,0.7L19.6,27l-1.4-0.2c0,0-1.8,4.3-2.5,6c-0.7,1.7-0.5,2.9,0.3,3.3c3.3-5.5,5.6-9,5.6-9l1-8.1l1-2.3l2.8-5.7l2.3,0.6
				c0.3,0.1,0.7,0.1,1,0.1c1.6-0.1,6.2-0.4,7.4-0.5c1.4-0.1,1.5-1.7,1.5-1.7L30.2,9.4z M25.2,32.6c-0.1-0.4-0.3-0.8-0.6-1.1l-0.5,0
				l-0.6,1l0.3,0.6l1.1,0L25.2,32.6z M25.2,34l-0.3-0.4l-1.1,0L23.4,34l0.6,1l0.6,0C24.8,34.7,25,34.4,25.2,34z M23.3,35.7l0.3-0.5
				l-0.6-1l-0.6,0l-0.6,1l0.3,0.5c0.2,0,0.4,0.1,0.6,0.1C23,35.8,23.2,35.8,23.3,35.7z M20.9,35l0.6,0l0.5-0.9l-0.3-0.5l-1.2,0
				L20.4,34C20.5,34.4,20.7,34.7,20.9,35z M20.4,32.6l0.3,0.6l1,0l0.4-0.6l-0.5-1l-0.5,0C20.7,31.8,20.5,32.2,20.4,32.6z M22.2,30.9
				l-0.3,0.4l0.5,1l0.6,0l0.6-1l-0.3-0.5c-0.2-0.1-0.4-0.1-0.7-0.1C22.6,30.8,22.4,30.8,22.2,30.9z M25.8,33
				c0.2,1.9-1.4,3.5-3.3,3.3c-1.5-0.1-2.6-1.3-2.8-2.8c-0.2-1.9,1.4-3.5,3.3-3.3C24.5,30.4,25.7,31.6,25.8,33z M20.9,6.1
				c0.2,0.4,0.7,0.3,1,0.2L23,6.3c0,0,1.5-2.2,1.7-3c0.1-0.5,0.1-1-0.1-1.5c-0.4-1.4-2-2.1-3.3-1.7c-1.3,0.4-2.1,1.8-1.7,3.3
				C19.8,3.8,20.9,6.1,20.9,6.1z"/>
		</g>
	</g>
</g>
</svg>
