<?xml version="1.0" encoding="utf-8"?>
<!-- Generator: Adobe Illustrator 22.1.0, SVG Export Plug-In . SVG Version: 6.00 Build 0)  -->
<svg version="1.1" id="Calque_1" xmlns="http://www.w3.org/2000/svg" xmlns:xlink="http://www.w3.org/1999/xlink" x="0px" y="0px"
	 viewBox="0 0 60 60" style="enable-background:new 0 0 60 60;" xml:space="preserve">
<style type="text/css">
	.st0{fill:#0082C3;}
</style>
<title>icone blanc</title>
<desc>Created with Sketch.</desc>
<g id="icone-blanc">
	<g id="spelunking" transform="translate(-16.000000, -29.000000)">
		<g id="footus" transform="translate(25.000000, 41.000000)">
			<path id="Page-1" class="st0" d="M22.8,3.2c0,0,0-1.6-1-2.5c-0.9-0.8-4-1.3-4.5,1.4c-0.2,1.2,0,2,0.2,2.2
				c0.7,0.7,1.2,1.2,1.2,1.2l0.3,0c0.5,0.4,0.8,0.8,0.8,0.8s0.5,0,1,0c0.5,0,0.8,0,0.9-0.3c0-0.1,0-0.3,0.1-0.4l0.8,0l0.1-1.1
				L22,4.4c0.1-0.5,0.1-1,0.2-1.2L22.8,3.2z M20.8,21L20.8,21L20.8,21L20.8,21z M33,13.2c-1.6-0.9-3.8-2.2-3.8-2.2l-4-0.7L24,13.5
				l-0.2,3.1c0,0,0.9,1.3,1.4,2.3c0.5,1.1,0.8,1.7,1.3,2.9H27l1.2,2.7l0.2,2.1L28,26.8c0.3,2.5,1.1,9.6,1.1,9.6
				c-0.5,0.2-1.8,0-2.2-1.7c-0.4-1.8-2-8-2-8L21,22c0,0-0.8,1.1-2,2.7l0.2,0.5l-2.3,3.5h-0.7c-1.8,2.5-3.6,4.9-4.2,5.7
				C10.6,36.2,9.4,35,9.4,35l4.8-8.9c0,0,1-4.5,1.7-6.5l1.2-3.2l-0.6-3.1l-1.4-2.8c0,0-3.5,0.1-4.3,0.1c-0.8,0-1.3-0.8-1.5-1.8
				c-0.2-1.1-0.6-4-0.6-4s0.5,0,1-0.1c0.5-0.1,0.9-0.3,0.9-0.3l0.9,3.7c0,0,1.7-0.4,3.1-0.7c0.2-0.6,0.8-1.3,1.8-1.3
				c0.3,0,1.9,0,1.9,0l0.3,0.6l3.7,0l0.3-0.6c0,0,0.9,0,1.5,0c0.9,0,1.5,0.2,1.8,1.1l3.8,1.5c1.6,1.2,5.9,4.3,5.9,4.3
				C35.5,13.2,34.5,14,33,13.2z M9.9,1.8L9.9,1.4L9.5,1.5l0.1,0.4l-0.2,0L9.3,1.5L8.9,1.6L9,2L8.7,2L8.7,1.6L8.3,1.7l0.1,0.4l-0.3,0
				l0.1,0.4l0.3,0l0.1,0.4l0.4-0.1L8.8,2.4l0.2,0l0.1,0.4l0.4-0.1L9.4,2.3l0.2,0l0.1,0.4l0.4-0.1L10,2.2l0.3,0l-0.1-0.4L9.9,1.8z
				 M12.2,1.7c0,0-0.1-0.1-0.2-0.2c-0.2-0.2-0.5-0.3-0.8-0.4l0.2,1.6C11.9,2.2,12.1,1.8,12.2,1.7z M9.4,3.6c0.7-0.1,1.3-0.5,1.7-0.7
				l-0.3-2C10.2,0.7,9.6,0.5,9,0.6C8.3,0.7,7.7,1.1,7.3,1.4l0.3,2C8.1,3.6,8.8,3.7,9.4,3.6z M7.2,3.2L6.9,1.7c0,0,0,0,0,0
				C6.5,2,6.2,2.4,6.2,2.6c0,0,0.1,0.1,0.2,0.2C6.6,2.9,6.9,3.1,7.2,3.2z M12.8,1.6C12.8,2,12.2,2.7,11.8,3
				c-0.1,0.1-0.1,0.1-0.2,0.2c-0.5,0.4-1.2,0.8-2.1,1C8.2,4.4,6.8,3.8,6.1,3.3C5.7,3,5.6,2.8,5.6,2.7l0,0c0-0.1,0-0.3,0.3-0.7
				c0.2-0.2,0.4-0.5,0.6-0.7c0.5-0.5,1.3-1,2.3-1.2c1.3-0.2,2.7,0.4,3.4,0.9C12.7,1.3,12.7,1.4,12.8,1.6z"/>
		</g>
	</g>
</g>
</svg>
