<?xml version="1.0" encoding="utf-8"?>
<!-- Generator: Adobe Illustrator 22.1.0, SVG Export Plug-In . SVG Version: 6.00 Build 0)  -->
<svg version="1.1" id="Calque_1" xmlns="http://www.w3.org/2000/svg" xmlns:xlink="http://www.w3.org/1999/xlink" x="0px" y="0px"
	 viewBox="0 0 60 60" style="enable-background:new 0 0 60 60;" xml:space="preserve">
<style type="text/css">
	.st0{fill:#0082C3;}
</style>
<title>icone blanc</title>
<desc>Created with Sketch.</desc>
<g id="icone-blanc">
	<g id="spelunking" transform="translate(-16.000000, -29.000000)">
		<g id="rugbdy" transform="translate(25.000000, 41.000000)">
			<path id="Fill-1" class="st0" d="M32.7,11.4c0,0-0.6,0.1-1.6,0.3c0.4-0.7,0.5-1.6,0.3-2.5c0-0.2-0.1-0.3-0.2-0.4c0,0-0.1,0-0.1,0
				c-0.1,0-0.2,0-0.3,0.1c-0.6,0.3-1.2,1-1.7,1.9c-0.5,0.9-0.7,1.8-0.6,2.5c0,0.2,0.1,0.3,0.2,0.3c0.1,0,0.1,0.1,0.2,0c0,0,0,0,0,0
				c0.1-0.4,0.5-0.9,1.1-1.1c0.6-0.2,2.9-0.8,2.9-0.8L32.7,11.4z M28.1,13.3c-0.1-0.8,0.1-1.7,0.7-2.7c0.5-1,1.2-1.7,1.9-2.1
				c0.2-0.1,0.3-0.1,0.5-0.1c-0.2-0.2-0.5-0.3-0.8-0.3c-0.1,0-0.2,0-0.3,0c-0.9,0.3-1.7,0.9-2.2,2c-0.5,1-0.7,2-0.4,3
				c0.1,0.4,0.5,0.7,1,0.8C28.2,13.8,28.1,13.6,28.1,13.3z M33.1,13.6c-0.8,0.1-4.2,0.6-4.6,0.6c-0.3,0-0.6-0.1-0.8-0.3l-1.6,3.2
				c2,2.2,3.4,4.2,4.4,5.6c0.7,0.9,1,1.5,1,2.6c0,0.8,0,10.9,0,10.9s-1.9,0.3-2.2-2c-0.3-2.9-1-8.8-1-8.8l-6.9-5l-0.1,0.3l1.5,1.7
				c0,0-2.3,2.7-2.6,3.1c-0.4,0.4-0.7,0.8-1.8,1.2L7.1,30.1c-0.4-0.8,0.2-1.9,1.2-2.4l8.1-3.8l2.9-4.9c-0.1-0.3-0.5-1.3-0.2-2.5
				c0.4-1.7,2-2.7,2-2.7l0.5-3.4l-0.2-2.7l-3.6,0.7l1.3,6c-0.4,0.2-1.3,0.2-1.9-1.3c-0.2-0.5-1.2-2.8-1.5-3.6
				c-0.8-2.2-0.7-2.7,0.6-3.3c1.6-0.6,2.3-1,3.3-1.4c1.8-0.7,2.4-0.8,3.7-0.6c0.5,0.1,1.1,0.2,1.8,0.3L25.7,6l1.8,0.9L28,6.7l-1.8-1
				l-0.3-1.1c-0.2-0.8-0.5-1.9-0.5-2.3C25.5,1.9,25.7,1.5,26,1c0.9-1.2,2.5-1.3,3.6-0.5c1.1,0.8,1.4,2.4,0.6,3.6
				c-0.2,0.2-0.6,0.8-1,1.4c0.6,0.1,1.1,0.3,1.7,0.4c0.9,0.2,1.4,1.3,2,2.2c0.8,1.4,1.3,2.3,1.9,3.4C35.2,12.6,34.2,13.4,33.1,13.6z
				"/>
		</g>
	</g>
</g>
</svg>
