<?xml version="1.0" encoding="utf-8"?>
<!-- Generator: Adobe Illustrator 22.1.0, SVG Export Plug-In . SVG Version: 6.00 Build 0)  -->
<svg version="1.1" id="Calque_1" xmlns="http://www.w3.org/2000/svg" xmlns:xlink="http://www.w3.org/1999/xlink" x="0px" y="0px"
	 viewBox="0 0 60 60" style="enable-background:new 0 0 60 60;" xml:space="preserve">
<style type="text/css">
	.st0{fill:#0082C3;}
</style>
<title>icone blanc</title>
<desc>Created with Sketch.</desc>
<g id="icone-blanc">
	<g id="spelunking" transform="translate(-16.000000, -29.000000)">
		<g id="volleyball" transform="translate(25.000000, 41.000000)">
			<path id="Fill-1" class="st0" d="M31.6,7c-1.1,0.8-7.1,5.3-7.1,5.3c0.2,0.9,1.5,3.3,1.2,6.2l-0.4,1.8c-0.4,2-1.6,5.2-2.4,7.4
				c-0.6,1.8-1.2,2.1-2,2.8c-0.8,0.7-6.4,5.9-6.4,5.9s-0.9-1,0.3-2.4c1.1-1.4,4.5-5.4,4.5-5.4l0.9-3.4l1.2-1.6l0.1-0.4
				c0,0-2.7,2.4-4.1,3.6c-0.3,0.3-1.1,0.5-1.4,0.3c-1.9-0.7-7.6-2.7-7.6-2.7s0.3-1.3,2.6-0.9s4.9,0.9,4.9,0.9s2.5-3.9,2.7-4.1
				c0.5-0.7,1.7-1.8,1.7-1.8l0.5-1.9l-2-3.1c0,0-3.8-1.1-4.3-1.3c-0.6-0.2-0.7-0.7-0.6-1.4c0.1-0.7,1.2-7.6,1.2-7.6s1-0.1,1,1.4
				c0,1.5,0,5.7,0,5.7l4.3,0.8L32,5.2C32,5.2,32.7,6.1,31.6,7z M26.5,3.2l-0.4-0.2l-0.7,0.2L25.7,4C26,3.8,26.3,3.6,26.5,3.2z
				 M25.4,4.1l-0.2-0.7l-0.7,0.2L24.3,4C24.6,4.1,25,4.2,25.4,4.1z M24,3.9l0.1-0.2c-0.1-0.1-1-0.7-0.7-1.9l-0.2-0.1
				c-0.2,0.4-0.2,0.8,0,1.2C23.4,3.3,23.6,3.6,24,3.9z M23.4,1.4l0.3,0.2l0.7-0.2l-0.2-0.7C23.9,0.8,23.6,1,23.4,1.4z M24.9,0.5
				c-0.1,0-0.3,0-0.4,0.1l0.2,0.7l0.7-0.2l0.2-0.3C25.4,0.5,25.2,0.5,24.9,0.5z M23.7,1.8c-0.1,0.3,0,0.5,0,0.7l2.4-0.8
				c-0.1-0.2-0.2-0.4-0.4-0.6L23.7,1.8z M26.2,2.7c0-0.1,0.1-0.4,0-0.7l-2.4,0.8c0.1,0.3,0.3,0.5,0.4,0.6L26.2,2.7z M25.9,0.7
				l-0.1,0.2c0.9,0.8,0.7,1.8,0.6,1.9L26.6,3c0.2-0.4,0.2-0.8,0-1.3C26.5,1.3,26.2,1,25.9,0.7z M25.7,4.5c-0.2,0.1-0.5,0.1-0.7,0.1
				c-0.3,0-0.7-0.1-1-0.2c-0.5-0.3-1-0.7-1.2-1.3v0c-0.2-0.6-0.2-1.2,0.1-1.8c0.3-0.5,0.7-1,1.3-1.2c1.2-0.4,2.5,0.2,2.9,1.4
				C27.5,2.7,26.9,4.1,25.7,4.5z M20.9,10.3c0,0,0.3-0.2,0.7-0.4c0.4-0.2,0.7-0.3,0.5-0.6c-0.3-0.6-1-2.1-1.1-2.4
				c-0.5-1.1-1.8-1.5-2.8-1c-1,0.5-1.6,1.7-1.1,2.8c0.2,0.4,0.4,0.7,0.8,0.9C18.4,10,20.9,10.3,20.9,10.3z"/>
		</g>
	</g>
</g>
</svg>
