<?xml version="1.0" encoding="utf-8"?>
<!-- Generator: Adobe Illustrator 22.1.0, SVG Export Plug-In . SVG Version: 6.00 Build 0)  -->
<svg version="1.1" id="Calque_1" xmlns="http://www.w3.org/2000/svg" xmlns:xlink="http://www.w3.org/1999/xlink" x="0px" y="0px"
	 viewBox="0 0 60 60" style="enable-background:new 0 0 60 60;" xml:space="preserve">
<style type="text/css">
	.st0{fill:#0082C3;}
</style>
<title>icone blanc</title>
<desc>Created with Sketch.</desc>
<g id="icone-blanc">
	<g id="spelunking" transform="translate(-16.000000, -29.000000)">
		<g id="handball" transform="translate(25.000000, 41.000000)">
			<path id="Fill-1" class="st0" d="M16.5,0.4c-0.1,0-0.2,0-0.4,0l-0.1,0l0.4,0.3L17,0.4l-0.1,0C16.8,0.4,16.6,0.4,16.5,0.4z
				 M16.7,0.9v0.2l0.7,0.5l0.2-0.1l0-0.9l0,0c-0.1,0-0.1-0.1-0.2-0.1l0,0L16.7,0.9z M15.7,0.6c-0.1,0-0.2,0.1-0.2,0.1l0,0l0,0.9
				l0.2,0.1l0.7-0.5V0.9L15.7,0.6L15.7,0.6z M15.2,1C15.1,1.1,15,1.2,15,1.4c-0.1,0.1-0.1,0.2-0.1,0.3l0,0.1l0.4-0.2L15.2,1L15.2,1z
				 M17.8,1.6l0.4,0.2l0-0.1c0-0.1,0-0.1,0-0.2C18.1,1.4,18,1.2,17.9,1l-0.1-0.1L17.8,1.6z M15.8,1.9l0.3,0.8h0.8l0.3-0.8l-0.7-0.5
				L15.8,1.9z M14.8,2.1L14.8,2.1c0,0.2,0,0.4,0.1,0.6C14.9,2.8,15,2.9,15,3l0,0L15.7,3l0.1-0.2L15.6,2l-0.2-0.1L14.8,2.1z M17.5,2
				l-0.3,0.9L17.3,3L18,3l0,0c0.1-0.3,0.2-0.5,0.2-0.8v0l-0.6-0.3L17.5,2z M15.3,3.3c0.1,0.1,0.3,0.3,0.5,0.4l0.1,0l-0.2-0.4
				L15.3,3.3L15.3,3.3z M17.4,3.3l-0.2,0.4l0.1,0c0.2-0.1,0.4-0.2,0.5-0.4l0.1-0.1L17.4,3.3z M15.9,3.2l0.3,0.6l0,0
				c0.1,0,0.2,0,0.3,0c0.1,0,0.2,0,0.3,0l0,0l0.3-0.6L17,3h-0.9L15.9,3.2z M16.5,4.2c-0.3,0-0.6-0.1-0.9-0.2
				c-0.5-0.2-0.9-0.7-1.1-1.2c-0.2-0.5-0.1-1.1,0.1-1.6c0.2-0.5,0.7-0.9,1.2-1.1C16.1,0,16.3,0,16.5,0c0.9,0,1.7,0.6,2,1.4
				c0.4,1.1-0.2,2.3-1.3,2.7C17,4.2,16.8,4.2,16.5,4.2L16.5,4.2z M36.3,17.5c-0.6-0.7-4.4-5.1-4.6-5.4c-0.3-0.3-0.4-0.4-0.7-0.5
				c-0.2-0.1-2.2-1.1-2.5-1.2c-1.3-0.6-1.6-0.7-2.4-0.8c-0.7,0-6.4-0.2-6.4-0.2l-4.4-0.8l1.3-3.9c-0.5,0-1.2-0.2-1.5-0.5
				c0,0-0.9,1.6-2.2,4.1c-0.5,1-0.5,1.8,0.5,2.1c1.7,0.6,4.9,1.7,4.9,1.7l1.1,6.5l-3.2,5.6c0,0-8.3,8-9.8,9.4
				C4.9,35.3,6,36.4,6,36.4l15.4-11.2h0.6l-2.4,1.8l-0.1,1.4l-2.4,0.6L14.2,31c0,0,6.3,0,6.8,0c0.7,0,1.3-0.4,1.6-0.8
				c0.2-0.4,3.1-6.6,3.5-7.4c0.6-1.1,0.5-2.1,0.3-3.5c-0.1-0.8-0.2-1.1-0.2-1.1l0.9-5.1l3.5,1.2l5.8,5.3
				C36.6,19.4,36.9,18.3,36.3,17.5z M19.9,6.1c-0.1-0.4-0.1-0.9,0-1.4c0.3-1.4,1.7-2.1,2.9-1.8c1.2,0.3,2.2,1.6,1.9,2.9
				c-0.1,0.4-0.4,2-0.6,2.8c-0.1,0.3-0.5,0.3-0.9,0.3c-0.5,0-1,0-1,0S20.1,6.8,19.9,6.1z"/>
		</g>
	</g>
</g>
</svg>
