<?xml version="1.0" encoding="utf-8"?>
<!-- Generator: Adobe Illustrator 22.1.0, SVG Export Plug-In . SVG Version: 6.00 Build 0)  -->
<svg version="1.1" id="Calque_1" xmlns="http://www.w3.org/2000/svg" xmlns:xlink="http://www.w3.org/1999/xlink" x="0px" y="0px"
	 viewBox="0 0 60 60" style="enable-background:new 0 0 60 60;" xml:space="preserve">
<style type="text/css">
	.st0{fill:#0082C3;}
</style>
<title>icone blanc</title>
<desc>Created with Sketch.</desc>
<g id="icone-blanc">
	<g id="spelunking" transform="translate(-16.000000, -29.000000)">
		<g id="hockey-sur-gazon" transform="translate(25.000000, 41.000000)">
			<path id="Fill-1" class="st0" d="M35.9,30.4c0,0.8-0.4,1.2-0.7,1.4c-0.3,0.2-0.6,0.3-0.9,0.3c-0.6,0-1.1-0.4-1.4-0.7l-8.7-9.2
				c0,0,0.1,0,0.1,0c0,0,0.1,0,0.1,0c0.5,0,0.9-0.3,1.2-0.5c0,0,8.1,8.6,8.3,8.7c0.1,0.1,0.3,0.3,0.6,0.2c0.1-0.1,0.1-0.2,0.1-0.3
				c0-0.4,0.3-0.7,0.7-0.7C35.6,29.7,35.9,30,35.9,30.4z M25.3,21.4c0,0-0.9,0.6-1.7,0.2c-1.1-0.6-4.4-3.3-4.4-3.3l-0.7,1.1
				c0,0,3.6,4.1,3.8,4.3c0.3,0.4,0.4,1.1,0.1,1.8c-0.2,0.4-5.7,10.9-5.7,10.9c-1.6-0.2-1.5-2.3-1.1-3.3c0.4-1,3.2-7.9,3.2-7.9
				c0,0-4-2.1-5.6-3.4l-0.2,0.4l1.9,1.7c0,0-1.9,2.6-2.2,2.9c-0.2,0.2-0.5,0.6-0.9,0.8C11.4,27.8,1.7,33,1.7,33
				c-0.7-0.7-0.2-2,0.7-2.7l7-5.4l2.5-5.1c-0.4-2,1.4-4,1.7-4.2l1.9-4.3c0.3,1.2,0.9,2.6,1.4,3.7l0.2-0.5C17,14,16.6,13,16.3,11.9
				c-0.4-1.2-0.5-2.1-0.5-2.5C16.3,7,18.6,6.4,20,6.8c1.5,0.4,3.5,0.9,4,1.1c1.1,0.3,1.3,1.4,0.6,2.7c-0.3,0.6-0.9,1.6-0.9,1.6l0,0
				l0.4,6.9L22.1,17L21.7,15l-1,1.5L25.3,21.4z M20.1,3.3c-0.1-0.5,0-1,0.2-1.6c0.6-1.5,2.3-2,3.6-1.5c1.3,0.5,2.1,2.1,1.5,3.6
				c-0.2,0.5-0.9,2.2-1.2,3.1c-0.1,0.4-0.5,0.2-1,0.1c-0.6-0.1-1.3-0.4-1.3-0.4S20.2,4,20.1,3.3z M38.4,27.6
				C38.4,27.6,38.4,27.6,38.4,27.6C38.3,27.5,38.3,27.5,38.4,27.6c-0.1-0.1-0.1-0.1-0.1-0.1c0,0,0,0,0,0c0,0,0,0,0,0
				C38.4,27.4,38.5,27.5,38.4,27.6C38.5,27.5,38.4,27.6,38.4,27.6z M38.4,27.3c-0.1,0-0.1,0-0.1,0.1s-0.1,0.1-0.1,0.1
				c0,0.1,0,0.1,0.1,0.1c0,0,0.1,0.1,0.1,0.1c0,0,0,0,0,0c0.1,0,0.2-0.1,0.2-0.2v0C38.6,27.4,38.5,27.3,38.4,27.3z M37.9,27.5
				C37.9,27.5,37.9,27.5,37.9,27.5C38,27.5,38,27.5,37.9,27.5c0.1,0.1,0,0.1,0,0.1C37.9,27.6,37.9,27.6,37.9,27.5
				C37.9,27.5,37.9,27.5,37.9,27.5z M37.9,27.7C37.9,27.7,37.9,27.7,37.9,27.7c0.1,0,0.2-0.1,0.2-0.2c0-0.1-0.1-0.2-0.2-0.2
				c-0.1,0-0.2,0.1-0.2,0.2C37.7,27.7,37.8,27.7,37.9,27.7z M37.5,27.6C37.5,27.6,37.5,27.6,37.5,27.6c-0.1,0-0.1,0-0.1,0
				c0,0,0-0.1,0.1-0.1c0,0,0,0,0,0C37.5,27.5,37.5,27.5,37.5,27.6C37.5,27.6,37.5,27.6,37.5,27.6z M37.4,27.4
				c-0.1,0-0.2,0.1-0.2,0.2c0,0.1,0.1,0.2,0.2,0.2c0,0,0,0,0,0c0.1,0,0.1,0,0.1-0.1c0,0,0.1-0.1,0.1-0.1
				C37.7,27.4,37.6,27.3,37.4,27.4z M37.7,27.5L37.7,27.5L37.7,27.5z M38,28.2C38,28.3,38,28.3,38,28.2c-0.1,0.1-0.1,0.1-0.1,0.1
				c0,0,0,0,0,0C37.9,28.2,37.9,28.2,38,28.2C38,28.2,38,28.2,38,28.2C38,28.2,38,28.2,38,28.2C38,28.2,38,28.2,38,28.2L38,28.2z
				 M38,28c-0.1,0-0.2,0.1-0.2,0.2c0,0.1,0,0.1,0.1,0.1c0,0,0.1,0.1,0.1,0.1c0,0,0,0,0,0c0.1,0,0.2-0.1,0.2-0.2c0-0.1,0-0.1-0.1-0.1
				C38.1,28,38,28,38,28z M37.8,26.8C37.8,26.8,37.9,26.8,37.8,26.8C37.9,26.8,37.9,26.8,37.8,26.8c0.1,0,0.1,0,0.1,0c0,0,0,0,0,0v0
				c0,0,0,0.1-0.1,0.1c0,0,0,0-0.1,0C37.8,26.9,37.8,26.9,37.8,26.8C37.8,26.8,37.8,26.8,37.8,26.8z M37.9,27
				C37.9,27,37.9,27,37.9,27c0.1,0,0.2-0.1,0.2-0.2c0-0.1,0-0.1-0.1-0.1c0,0-0.1-0.1-0.2-0.1c-0.1,0-0.1,0-0.1,0.1
				c0,0-0.1,0.1-0.1,0.1c0,0.1,0,0.1,0.1,0.1C37.8,27,37.8,27,37.9,27z M38.7,28.2C38.7,28.2,38.7,28.2,38.7,28.2
				C38.6,28.2,38.6,28.2,38.7,28.2L38.7,28.2c0-0.1-0.1-0.2-0.3-0.2c-0.1,0-0.2,0.1-0.2,0.2c0,0.1,0,0.1,0.1,0.1c0,0,0.1,0,0.1,0.1
				c-0.1,0.1-0.3,0.1-0.4,0.1c-0.2,0-0.3,0-0.4-0.1c0.1,0,0.2-0.1,0.2-0.2c0-0.1,0-0.1-0.1-0.1c0,0-0.1-0.1-0.2-0.1
				c-0.1,0-0.1,0-0.1,0.1c0,0-0.1,0.1-0.1,0.1c0,0,0,0,0,0c0,0,0,0,0,0C37.1,28.2,37,28,37,27.8c0,0,0,0,0,0c0,0,0,0,0,0
				c0.1,0,0.1,0,0.1-0.1c0,0,0.1-0.1,0.1-0.1c0-0.1,0-0.1-0.1-0.1c0,0-0.1-0.1-0.2-0.1c0,0,0,0,0,0c0-0.2,0.1-0.4,0.2-0.5
				c0,0,0,0,0,0c0,0,0,0,0,0c0,0.1,0,0.1,0.1,0.1c0,0,0.1,0.1,0.1,0.1c0,0,0,0,0,0c0.1,0,0.2-0.1,0.2-0.2c0-0.1,0-0.1-0.1-0.1
				c0,0-0.1,0-0.1-0.1c0.1-0.1,0.3-0.1,0.4-0.1c0,0,0,0,0.1,0c0.1,0,0.3,0,0.4,0.1c0,0-0.1,0-0.1,0.1c0,0-0.1,0.1-0.1,0.1
				c0,0.1,0,0.1,0.1,0.1c0,0,0.1,0.1,0.1,0.1c0,0,0,0,0,0c0.1,0,0.1,0,0.1-0.1c0,0,0.1-0.1,0.1-0.1c0,0,0,0,0,0c0,0,0,0,0,0
				c0.2,0.1,0.3,0.3,0.3,0.5c0,0,0,0,0,0c-0.1,0-0.2,0.1-0.2,0.2c0,0.1,0.1,0.2,0.2,0.2c0,0,0,0,0,0c0,0,0,0,0,0
				C38.9,27.9,38.8,28,38.7,28.2z M38.4,28.3C38.4,28.3,38.4,28.3,38.4,28.3C38.4,28.2,38.4,28.2,38.4,28.3c-0.1-0.1,0-0.1,0-0.1
				c0,0,0,0,0,0C38.5,28.1,38.5,28.2,38.4,28.3C38.5,28.2,38.5,28.3,38.4,28.3z M37.4,28.3C37.4,28.2,37.4,28.2,37.4,28.3
				C37.5,28.2,37.5,28.2,37.4,28.3C37.5,28.2,37.5,28.2,37.4,28.3c0.1-0.1,0.1-0.1,0.1-0.1c0,0,0,0,0,0v0
				C37.6,28.3,37.5,28.3,37.4,28.3C37.5,28.3,37.5,28.3,37.4,28.3C37.4,28.3,37.4,28.3,37.4,28.3z M36.9,27.6
				C36.9,27.6,36.9,27.6,36.9,27.6C36.9,27.6,36.9,27.6,36.9,27.6C36.9,27.6,36.9,27.5,36.9,27.6C36.9,27.5,37,27.5,36.9,27.6
				C37,27.5,37,27.5,36.9,27.6c0.1-0.1,0.1-0.1,0.1-0.1c0,0,0,0,0,0v0c0,0,0,0,0,0.1C37,27.6,37,27.7,36.9,27.6
				C37,27.7,37,27.7,36.9,27.6C36.9,27.6,36.9,27.6,36.9,27.6z M37.4,26.8C37.4,26.8,37.5,26.8,37.4,26.8
				C37.5,26.8,37.5,26.8,37.4,26.8c0.1,0.1,0,0.1,0,0.1c0,0,0,0-0.1,0C37.4,26.9,37.3,26.9,37.4,26.8C37.3,26.8,37.3,26.8,37.4,26.8
				C37.4,26.8,37.4,26.8,37.4,26.8C37.4,26.8,37.4,26.8,37.4,26.8z M38.4,26.8C38.4,26.8,38.4,26.8,38.4,26.8
				C38.4,26.9,38.4,26.9,38.4,26.8c-0.1,0.1-0.1,0.1-0.1,0.1c0,0,0,0,0,0c0,0,0,0,0-0.1C38.3,26.7,38.3,26.7,38.4,26.8
				C38.4,26.7,38.4,26.7,38.4,26.8C38.4,26.7,38.4,26.7,38.4,26.8C38.4,26.8,38.4,26.8,38.4,26.8z M38.9,27.4
				C38.9,27.5,38.9,27.5,38.9,27.4L38.9,27.4C38.9,27.5,38.9,27.5,38.9,27.4C38.9,27.5,38.9,27.5,38.9,27.4
				C38.9,27.5,38.9,27.5,38.9,27.4c-0.1,0.1-0.1,0.1-0.1,0C38.8,27.4,38.8,27.4,38.9,27.4C38.9,27.4,38.9,27.4,38.9,27.4
				C38.9,27.4,38.9,27.4,38.9,27.4C38.9,27.4,38.9,27.4,38.9,27.4z M39.3,27.4c0-0.4-0.2-0.7-0.5-1c-0.3-0.3-0.6-0.4-1-0.4
				c-0.4,0-0.7,0.2-1,0.5c-0.3,0.3-0.4,0.6-0.4,1c0,0.4,0.2,0.7,0.5,1c0.3,0.2,0.6,0.4,0.9,0.4c0,0,0.1,0,0.1,0c0.4,0,0.7-0.2,1-0.5
				C39.2,28.2,39.4,27.8,39.3,27.4z"/>
		</g>
	</g>
</g>
</svg>
