<?xml version="1.0" encoding="utf-8"?>
<!-- Generator: Adobe Illustrator 22.1.0, SVG Export Plug-In . SVG Version: 6.00 Build 0)  -->
<svg version="1.1" id="Calque_1" xmlns="http://www.w3.org/2000/svg" xmlns:xlink="http://www.w3.org/1999/xlink" x="0px" y="0px"
	 viewBox="0 0 60 60" style="enable-background:new 0 0 60 60;" xml:space="preserve">
<style type="text/css">
	.st0{fill:#0082C3;}
</style>
<title>icone blanc</title>
<desc>Created with Sketch.</desc>
<g id="icone-blanc">
	<g id="spelunking" transform="translate(-16.000000, -29.000000)">
		<g id="patinage-sur-glace" transform="translate(25.000000, 41.000000)">
			<path id="Fill-1" class="st0" d="M12.4,34.1c-0.4,0-0.7-0.3-0.8-0.4c-0.2-0.3-2.2-3.2-2.2-3.2C9,30,9.2,29.7,9.2,29.6
				c0,0,0,0,0,0l0,0c0.1-0.2,0.1-0.4-0.1-0.5C9,29,8.7,29,8.6,29.2l0,0c0,0-0.5,0.8,0.2,1.7c0,0,2,2.9,2.2,3.2
				c0.1,0.2,0.3,0.3,0.5,0.5c0.3,0.2,0.6,0.3,1,0.2c0.2,0,0.4-0.3,0.3-0.5C12.7,34.1,12.5,34.1,12.4,34.1 M27.6,35.2
				c-0.2,0.4-0.7,0.4-0.8,0.4c-0.4,0-3.9,0-3.9,0c-0.6,0-0.8-0.3-0.8-0.4c0,0,0,0,0,0l0,0C22,35.1,21.8,35,21.6,35
				c-0.2,0.1-0.3,0.3-0.2,0.5l0,0c0,0,0.4,0.8,1.5,0.8c0,0,3.5,0,3.9,0c0.2,0,0.4,0,0.6-0.1c0.3-0.1,0.6-0.4,0.8-0.7
				c0.1-0.2,0-0.5-0.3-0.5C27.8,35,27.7,35.1,27.6,35.2 M33.2,14.2C33,14.2,29,12.7,29,12.7s-2-5.1-2.2-5.5
				c-0.2-0.4-0.7-0.7-1.1-0.7C25.3,6.4,22.6,6,22.2,6c-0.4-0.1-1.2-0.2-2,0.2c0,0-4.5,2.5-4.7,2.6c-0.2,0.1-0.4,0.3-0.5,0.5
				C15,9.6,12.4,15,12.4,15c0.2,0.3,1,0.3,1.5-0.4c0.5-0.7,2.7-3.8,2.7-3.8l2.6-1.1l0.3,5.8c0,0-1,1.1-1.4,2.8
				c-0.5,2-1.5,6.4-1.5,6.4s-4.1,3.8-4.6,4.3c-1.4,1.3-0.8,2.7-0.6,3l7.2-5.5l3.3-5.3l1.3,5.3c0,0,0.3,5.4,0.4,6.6
				c0.1,1.2,1.3,1.9,2,1.9c0,0,0.2-11.8,0.2-12.4c0-0.6,0-3.1,0-4.3c0-1.2-0.4-2.7-0.4-2.7l0.8-4.1c0,0,0.9,2.2,1,2.3
				c0.2,0.4,0.3,0.5,0.8,0.6c0.4,0.1,5.7,1.2,5.9,1.2c0,0,0,0,0,0C33.9,15.4,33.8,14.5,33.2,14.2 M21.5,2.9
				c-0.1-0.4-0.1-0.9,0.1-1.3c0.4-1.3,1.8-1.8,2.9-1.5c1.1,0.4,1.9,1.7,1.5,2.9c-0.1,0.4-0.5,1.7-0.8,2.4c-0.1,0.3-0.5,0.3-0.9,0.2
				c-0.5-0.1-1.1-0.2-1.1-0.2S21.7,3.5,21.5,2.9"/>
		</g>
	</g>
</g>
</svg>
