<?xml version="1.0" encoding="UTF-8"?>
<svg width="44px" height="53px" viewBox="0 0 44 53" version="1.1" xmlns="http://www.w3.org/2000/svg" xmlns:xlink="http://www.w3.org/1999/xlink">
    <!-- Generator: Sketch 49.2 (51160) - http://www.bohemiancoding.com/sketch -->
    <title>location-pin-unselected</title>
    <desc>Created with Sketch.</desc>
    <defs>
        <linearGradient x1="50%" y1="0%" x2="50%" y2="100%" id="linearGradient-1">
            <stop stop-color="#19A4EA" offset="0%"></stop>
            <stop stop-color="#0082C3" offset="100%"></stop>
        </linearGradient>
        <path d="M7.52,2.74985211e-16 C3.36,2.74985211e-16 0,3.37272727 0,7.54848485 L0,32.2015152 C0,36.3772727 3.36,39.75 7.52,39.75 L13.04,39.75 C13.36,39.75 15.2,39.9106061 15.36,40.1515152 L21.76,52.8393939 L28.16,40.1515152 C28.32,39.9106061 30.16,39.75 30.48,39.75 L36.08,39.75 C40.24,39.75 43.6,36.3772727 43.6,32.2015152 L43.6,7.54848485 C43.6,3.37272727 40.24,0 36.08,0 C31.5534722,4.35829201e-17 28.1585764,7.62701102e-17 25.8953125,9.80615702e-17 C21.8119097,1.37377935e-16 15.6868056,1.96352482e-16 7.52,2.74985211e-16 Z" id="path-2"></path>
        <filter x="-18.3%" y="-13.2%" width="136.7%" height="130.3%" filterUnits="objectBoundingBox" id="filter-3">
            <feOffset dx="0" dy="1" in="SourceAlpha" result="shadowOffsetOuter1"></feOffset>
            <feGaussianBlur stdDeviation="2.5" in="shadowOffsetOuter1" result="shadowBlurOuter1"></feGaussianBlur>
            <feComposite in="shadowBlurOuter1" in2="SourceAlpha" operator="out" result="shadowBlurOuter1"></feComposite>
            <feColorMatrix values="0 0 0 0 0   0 0 0 0 0   0 0 0 0 0  0 0 0 0.271993886 0" type="matrix" in="shadowBlurOuter1"></feColorMatrix>
        </filter>
    </defs>
    <g id="location-pin-unselected" stroke="none" stroke-width="1" fill="none" fill-rule="evenodd">
        <g id="location-pin">
            <g id="Path">
                <use fill="black" fill-opacity="1" filter="url(#filter-3)" xlink:href="#path-2"></use>
                <use fill="url(#linearGradient-1)" fill-rule="evenodd" xlink:href="#path-2"></use>
                <path stroke="#FFFFFF" stroke-width="1.6" d="M21.7603516,51.0637612 L27.493587,39.7089163 C27.8561269,39.1630466 29.4327868,38.95 30.48,38.95 L36.08,38.95 C39.7974937,38.95 42.8,35.9361206 42.8,32.2015152 L42.8,7.54848485 C42.8,3.81387942 39.7974937,0.8 36.08,0.8 C29.8560243,0.8 29.8560243,0.8 25.8953125,0.8 C18.7493576,0.8 18.7493576,0.8 7.52,0.8 C3.80250629,0.8 0.8,3.81387942 0.8,7.54848485 L0.8,32.2015152 C0.8,35.9361206 3.80250629,38.95 7.52,38.95 L13.04,38.95 C14.0872132,38.95 15.6638731,39.1630466 16.0742749,39.7912217 L21.7603516,51.0637612 Z M28.6049411,40.8017139 C28.6026515,40.8025804 28.6005695,40.8034023 28.5987008,40.8041765 C28.6031444,40.8023356 28.6075985,40.8004198 28.6120829,40.798383 Z"></path>
            </g>
        </g>
        <g id="gymnastique-artistique" transform="translate(7.000000, 7.000000)" fill="#FFFFFF">
            <path d="M13.8149659,15.8922813 L14.6439448,15.4113552 L14.6851322,15.6945647 C14.6851322,15.6945647 14.6384694,15.7204199 14.6147703,15.7335088 C14.3279701,15.8920969 14.072796,15.991877 14.1393987,16.2539321 C14.2958129,16.8685128 14.6005917,18.067164 14.6871344,18.4072918 C14.7810728,18.7766855 14.9641689,19.0849206 15.1980547,19.3187239 C15.2600401,20.0173226 15.4503685,22.1115978 15.6393894,23.6862331 C15.718332,24.3439519 16.1180708,24.6656908 16.4273443,24.8181953 L14.3213916,24.8181953 L13.8149659,15.8922813 Z M16.8039151,24.8181953 L16.7926376,19.758678 C17.6288896,19.4880966 18.2745679,18.4628737 18.0008431,17.3869082 C17.9829871,17.3166704 17.9618622,17.2485988 17.9391437,17.1816793 C18.1300033,16.9974203 18.2386924,16.7127361 18.207148,16.4101237 C18.1568487,15.9275845 17.7692864,15.5823409 17.3414765,15.6390289 C17.1137606,15.6692164 16.9213074,15.8077102 16.7979903,16.0028459 C16.7884698,15.9985136 16.7787858,15.9941814 16.7692245,15.989803 C16.738007,15.2547489 16.6645397,14.5835264 16.5036718,14.2718347 C16.1706174,13.6266056 15.2369948,11.306869 15.2369948,11.306869 L16.0065215,7.75810938 C16.0065215,7.75810938 16.9327892,7.12822758 17.3234161,5.79251132 L19.4796681,4.30152531 C19.4796681,4.30152531 20.4253855,6.03442612 21.3743717,7.89890757 C22.0077102,9.14327783 22.9673611,9.23591429 23.4840019,9.00247964 C23.4840019,9.00247964 22.4890067,6.74012232 21.0529218,3.3124353 C20.2520959,1.40122083 19.7967051,1.27682989 18.5586305,1.97505988 C17.4022769,2.62715598 13.5617123,4.79314374 13.5617123,4.79314374 L8.9308637,6.75952528 C8.9308637,6.75952528 9.77553296,4.92960968 10.8150253,2.76583414 C11.4444412,1.45565051 11.0002462,0.204966218 10.5107777,1.38263363e-05 C10.5107777,1.38263363e-05 8.22606009,3.99301366 6.73751031,6.95585926 C5.81132425,8.79937076 7.21472065,9.80131926 9.06876805,9.33744568 C11.3437608,8.76826151 11.8677974,8.6739198 11.8677974,8.6739198 C11.7426006,9.48787622 11.5575023,10.0759103 11.2028736,11.9529276 C11.1463635,12.2521756 11.2815711,13.4808761 11.4642177,14.1643119 C11.6719527,14.9418589 11.9408969,15.8465161 11.9408969,15.8465161 C11.9408969,15.8465161 12.7484239,21.9949035 13.064562,23.5201327 C13.1983803,24.1658687 13.4319392,24.6119063 13.8231789,24.8181953 L4.75426186,24.8181953 L3.8396802,26.4032926 L7.70296335,26.4032926 L7.70296335,28.0811645 L9.35867364,28.0811645 L9.35867364,26.4032926 L18.8987537,26.4032926 L18.8987537,28.0811645 L20.554464,28.0811645 L20.554464,26.4032926 L23.5031655,26.4032926 L24.4177471,24.8181953 L16.8039151,24.8181953 Z" id="Fill-1"></path>
        </g>
    </g>
</svg>