<?xml version="1.0" encoding="UTF-8"?>
<svg width="44px" height="53px" viewBox="0 0 44 53" version="1.1" xmlns="http://www.w3.org/2000/svg" xmlns:xlink="http://www.w3.org/1999/xlink">
    <!-- Generator: Sketch 49.2 (51160) - http://www.bohemiancoding.com/sketch -->
    <title>location-pin-unselected</title>
    <desc>Created with Sketch.</desc>
    <defs>
        <linearGradient x1="50%" y1="0%" x2="50%" y2="100%" id="linearGradient-1">
            <stop stop-color="#19A4EA" offset="0%"></stop>
            <stop stop-color="#0082C3" offset="100%"></stop>
        </linearGradient>
        <path d="M7.52,2.74985211e-16 C3.36,2.74985211e-16 0,3.37272727 0,7.54848485 L0,32.2015152 C0,36.3772727 3.36,39.75 7.52,39.75 L13.04,39.75 C13.36,39.75 15.2,39.9106061 15.36,40.1515152 L21.76,52.8393939 L28.16,40.1515152 C28.32,39.9106061 30.16,39.75 30.48,39.75 L36.08,39.75 C40.24,39.75 43.6,36.3772727 43.6,32.2015152 L43.6,7.54848485 C43.6,3.37272727 40.24,0 36.08,0 C31.5534722,4.35829201e-17 28.1585764,7.62701102e-17 25.8953125,9.80615702e-17 C21.8119097,1.37377935e-16 15.6868056,1.96352482e-16 7.52,2.74985211e-16 Z" id="path-2"></path>
        <filter x="-18.3%" y="-13.2%" width="136.7%" height="130.3%" filterUnits="objectBoundingBox" id="filter-3">
            <feOffset dx="0" dy="1" in="SourceAlpha" result="shadowOffsetOuter1"></feOffset>
            <feGaussianBlur stdDeviation="2.5" in="shadowOffsetOuter1" result="shadowBlurOuter1"></feGaussianBlur>
            <feComposite in="shadowBlurOuter1" in2="SourceAlpha" operator="out" result="shadowBlurOuter1"></feComposite>
            <feColorMatrix values="0 0 0 0 0   0 0 0 0 0   0 0 0 0 0  0 0 0 0.271993886 0" type="matrix" in="shadowBlurOuter1"></feColorMatrix>
        </filter>
    </defs>
    <g id="location-pin-unselected" stroke="none" stroke-width="1" fill="none" fill-rule="evenodd">
        <g id="location-pin">
            <g id="Path">
                <use fill="black" fill-opacity="1" filter="url(#filter-3)" xlink:href="#path-2"></use>
                <use fill="url(#linearGradient-1)" fill-rule="evenodd" xlink:href="#path-2"></use>
                <path stroke="#FFFFFF" stroke-width="1.6" d="M21.7603516,51.0637612 L27.493587,39.7089163 C27.8561269,39.1630466 29.4327868,38.95 30.48,38.95 L36.08,38.95 C39.7974937,38.95 42.8,35.9361206 42.8,32.2015152 L42.8,7.54848485 C42.8,3.81387942 39.7974937,0.8 36.08,0.8 C29.8560243,0.8 29.8560243,0.8 25.8953125,0.8 C18.7493576,0.8 18.7493576,0.8 7.52,0.8 C3.80250629,0.8 0.8,3.81387942 0.8,7.54848485 L0.8,32.2015152 C0.8,35.9361206 3.80250629,38.95 7.52,38.95 L13.04,38.95 C14.0872132,38.95 15.6638731,39.1630466 16.0742749,39.7912217 L21.7603516,51.0637612 Z M28.6049411,40.8017139 C28.6026515,40.8025804 28.6005695,40.8034023 28.5987008,40.8041765 C28.6031444,40.8023356 28.6075985,40.8004198 28.6120829,40.798383 Z"></path>
            </g>
        </g>
        <g id="musculation" transform="translate(8.000000, 8.000000)" fill="#FFFFFF">
            <path d="M18.7212713,6.08287531 L17.2616443,5.9352472 C17.6306517,6.24938778 17.6621591,6.61241409 17.8135336,7.25991943 C17.9654642,7.90941516 18.0389969,8.21370092 18.0389969,8.21370092 L18.7212713,6.08287531 Z M11.1335,5.31541302 L9.90086535,5.19069858 L9.56772086,7.15010859 L11.1335,5.31541302 Z M24.6120444,9.52123645 C24.4508006,9.52123645 23.9640111,9.49011853 23.7517995,9.46298136 C22.6316648,9.31991657 21.8308207,8.06422807 21.6956632,6.38376286 L20.0804916,6.22040587 C20.0448604,6.40691926 19.9975066,6.60153981 19.9395886,6.80261697 C19.5857326,8.03160522 19.4038237,8.57677578 19.163487,9.34739355 C18.4356196,11.6809469 17.2744326,10.7384766 17.0516104,10.1904904 C16.6973837,9.31962529 16.4451855,8.52196745 16.4451855,8.52196745 L15.8274086,12.0819846 C15.8274086,12.0819846 17.7428736,14.2049944 18.4162981,14.8166243 C19.5032573,15.8038539 19.7504051,16.3540247 19.2526808,17.8366653 C19.0028456,18.5808741 16.9109391,25.0825307 16.9109391,25.0825307 C15.9895791,24.8252859 15.9200775,23.4417275 16.1983157,22.1358425 C16.4316558,21.0406954 16.962602,17.810402 16.962602,17.810402 L14.5391727,15.3892718 L14.0515492,18.5602907 L10.2945226,24.9144648 C9.22475347,24.3883728 10.0140603,22.7211606 10.2363266,22.0861315 C10.6517147,20.8994268 11.8658155,18.065268 11.8658155,18.065268 C11.8658155,18.065268 11.3295409,16.1488697 11.1322026,14.4769 C11.0703462,13.952944 11.0717825,13.535789 11.1939664,13.0771758 C11.3793041,12.3813673 11.4835565,12.1912129 11.7585977,11.8461001 L11.3329697,8.23069199 C11.3329697,8.23069199 10.1634425,9.08306107 9.27650902,9.72886731 C8.38962184,10.3746735 7.58956538,9.65095113 7.71888475,8.99931938 C8.00648251,7.55036961 8.2985747,6.14816956 8.54586151,5.05365348 L6.70847001,4.86781973 C6.56626967,6.32327465 5.82338988,7.50303735 4.86023624,7.50303735 C4.74124945,7.50303735 3.99999136,7.44541336 3.99999136,7.44541336 C3.99999136,7.44541336 4.32604669,7.48017223 3.99994503,7.4448308 C2.99726814,7.33628215 2.08587005,6.05670906 1.94529142,4.38600158 L0.92111535,4.28245315 L0.92111535,3.52610788 L1.9346345,3.62863684 C2.02276257,2.07215789 2.83412464,0.809430228 3.7986683,0.783506712 C3.9051448,0.780642503 4.4910899,0.825887291 4.71488516,0.84797568 C5.73099904,0.948174438 6.623261,2.33260669 6.72371403,4.03807304 C6.72524307,4.06326837 6.72584541,4.08822097 6.72700378,4.1133192 L8.71498215,4.31439636 C8.9184366,3.43615231 9.05461347,2.88768062 9.05461347,2.88768062 C9.89326651,3.0322018 9.99575825,3.99744012 9.99756529,4.44415958 L18.9558625,5.35022044 L19.3333953,4.17128302 C19.9097029,4.34376664 20.1503639,4.81786599 20.1563873,5.47163376 L21.6875083,5.62654376 C21.7811038,4.07967689 22.5754612,2.83709578 23.5504764,2.80165727 C23.6974955,2.79631722 24.3452508,2.85442667 24.4666933,2.86612624 C25.4490757,2.96074222 26.3751155,4.35075725 26.4755685,6.0562236 C26.5838984,7.89635631 25.644329,9.52123645 24.6120444,9.52123645 Z M12.7053489,2.37688056 C12.62292,2.04070014 12.6327892,1.68340224 12.7234657,1.32794909 C12.9848382,0.301834196 14.0218025,-0.179061586 14.880333,0.0606581166 C15.7381222,0.300426365 16.3591888,1.30809381 16.1013377,2.32042167 C16.0187234,2.64504817 15.7500765,3.69951387 15.6006016,4.28565718 C15.5369381,4.53552298 15.3116602,4.56134941 14.9869022,4.52770709 C14.6123347,4.48896745 14.0488155,4.42090609 14.0488155,4.42090609 C14.0488155,4.42090609 12.8292472,2.88331149 12.7053489,2.37688056 Z" id="Fill-1"></path>
        </g>
    </g>
</svg>