<?xml version="1.0" encoding="UTF-8"?>
<svg width="44px" height="53px" viewBox="0 0 44 53" version="1.1" xmlns="http://www.w3.org/2000/svg" xmlns:xlink="http://www.w3.org/1999/xlink">
    <!-- Generator: Sketch 49.2 (51160) - http://www.bohemiancoding.com/sketch -->
    <title>location-pin-unselected</title>
    <desc>Created with Sketch.</desc>
    <defs>
        <linearGradient x1="50%" y1="0%" x2="50%" y2="100%" id="linearGradient-1">
            <stop stop-color="#19A4EA" offset="0%"></stop>
            <stop stop-color="#0082C3" offset="100%"></stop>
        </linearGradient>
        <path d="M7.52,2.74985211e-16 C3.36,2.74985211e-16 0,3.37272727 0,7.54848485 L0,32.2015152 C0,36.3772727 3.36,39.75 7.52,39.75 L13.04,39.75 C13.36,39.75 15.2,39.9106061 15.36,40.1515152 L21.76,52.8393939 L28.16,40.1515152 C28.32,39.9106061 30.16,39.75 30.48,39.75 L36.08,39.75 C40.24,39.75 43.6,36.3772727 43.6,32.2015152 L43.6,7.54848485 C43.6,3.37272727 40.24,0 36.08,0 C31.5534722,4.35829201e-17 28.1585764,7.62701102e-17 25.8953125,9.80615702e-17 C21.8119097,1.37377935e-16 15.6868056,1.96352482e-16 7.52,2.74985211e-16 Z" id="path-2"></path>
        <filter x="-18.3%" y="-13.2%" width="136.7%" height="130.3%" filterUnits="objectBoundingBox" id="filter-3">
            <feOffset dx="0" dy="1" in="SourceAlpha" result="shadowOffsetOuter1"></feOffset>
            <feGaussianBlur stdDeviation="2.5" in="shadowOffsetOuter1" result="shadowBlurOuter1"></feGaussianBlur>
            <feComposite in="shadowBlurOuter1" in2="SourceAlpha" operator="out" result="shadowBlurOuter1"></feComposite>
            <feColorMatrix values="0 0 0 0 0   0 0 0 0 0   0 0 0 0 0  0 0 0 0.271993886 0" type="matrix" in="shadowBlurOuter1"></feColorMatrix>
        </filter>
    </defs>
    <g id="location-pin-unselected" stroke="none" stroke-width="1" fill="none" fill-rule="evenodd">
        <g id="location-pin">
            <g id="Path">
                <use fill="black" fill-opacity="1" filter="url(#filter-3)" xlink:href="#path-2"></use>
                <use fill="url(#linearGradient-1)" fill-rule="evenodd" xlink:href="#path-2"></use>
                <path stroke="#FFFFFF" stroke-width="1.6" d="M21.7603516,51.0637612 L27.493587,39.7089163 C27.8561269,39.1630466 29.4327868,38.95 30.48,38.95 L36.08,38.95 C39.7974937,38.95 42.8,35.9361206 42.8,32.2015152 L42.8,7.54848485 C42.8,3.81387942 39.7974937,0.8 36.08,0.8 C29.8560243,0.8 29.8560243,0.8 25.8953125,0.8 C18.7493576,0.8 18.7493576,0.8 7.52,0.8 C3.80250629,0.8 0.8,3.81387942 0.8,7.54848485 L0.8,32.2015152 C0.8,35.9361206 3.80250629,38.95 7.52,38.95 L13.04,38.95 C14.0872132,38.95 15.6638731,39.1630466 16.0742749,39.7912217 L21.7603516,51.0637612 Z M28.6049411,40.8017139 C28.6026515,40.8025804 28.6005695,40.8034023 28.5987008,40.8041765 C28.6031444,40.8023356 28.6075985,40.8004198 28.6120829,40.798383 Z"></path>
            </g>
        </g>
        <g id="boxe" transform="translate(8.000000, 7.000000)" fill="#FFFFFF">
            <path d="M21.4281208,4.39939827 L21.404683,4.79786003 C21.3724398,5.34580386 20.8943166,5.76790863 20.3421679,5.73591348 L19.8346071,5.70653105 C19.4227833,6.15626216 18.996888,6.61490224 18.8704187,6.72797749 C18.4832412,7.07422761 18.3727424,7.1078932 17.769747,6.98286795 C17.1525507,6.85484449 15.9213522,6.46447789 15.9213522,6.46447789 L16.1942756,10.7898204 L17.2372808,12.0351901 L18.7289284,15.6448606 L17.4707096,16.1937038 L17.5343327,16.4110739 L18.3837923,16.1849234 L18.6406157,17.1144962 L18.561281,25.1123002 C17.6066749,25.1985629 17.201455,24.4516238 17.0788704,23.5393549 C16.9562858,22.6270432 16.3240254,17.8334663 16.3240254,17.8334663 L15.3075659,15.5409513 L14.5517281,17.7142662 L12.5644329,17.6457357 L12.4548837,17.8206169 L13.514291,17.9638455 L13.2251381,18.7881812 L8.38166445,25.1985629 C7.5183925,24.6958063 7.67883159,23.7237018 8.13045231,22.8931555 C8.58207304,22.0626521 11.2262319,17.6041891 11.2262319,17.6041891 L11.6744858,14.5914618 C11.6744858,14.5914618 11.3466583,13.5085521 11.3466583,12.7482924 C11.3466583,11.9880326 11.6477244,11.1610413 11.6477244,11.1610413 C11.6477244,11.1610413 10.377506,6.62650958 10.3705567,6.60046801 C10.7458642,6.99336168 11.3940088,7.54417521 12.4484091,8.47541844 C12.6214088,8.6281557 12.7917756,8.70919296 12.9584734,8.70919296 C13.1054023,8.70919296 13.2474105,8.64854351 13.378153,8.52690195 C13.8718583,8.06766223 14.5816836,7.05675235 14.6080134,7.02064536 L14.3650024,7.02124501 C14.3586573,7.02993981 13.7255337,7.8517913 13.2452955,8.29852421 C13.1160205,8.41883799 12.9063749,8.54429155 12.5800149,8.24592708 C10.8794555,6.6911852 10.212319,6.02125716 10.1189993,5.52848035 C10.0284852,5.05082308 10.2047222,4.45829163 10.948172,3.90516519 C11.6915786,3.35208158 12.7041966,3.23300991 12.7046714,3.23262443 L13.3149184,4.02243793 L13.5530951,4.02243793 L13.465473,3.87736752 C13.4653867,3.87723903 13.3270042,3.66774999 13.0559368,3.19934432 C12.8328673,2.81386051 12.5345205,2.18188121 12.5185068,1.95333214 C12.4951985,1.62215872 12.567368,1.28751594 12.7195197,0.969705948 C13.1584072,0.0514835048 14.2723301,-0.212572907 15.0831583,0.168713416 C15.820522,0.515563184 16.2518559,1.42513366 15.997536,2.26857224 C15.5122045,2.30052457 14.7627118,2.43754265 14.4388121,2.96805404 C14.0837484,3.54966345 14.3044438,4.21552249 14.5757702,4.59243999 L14.8364783,4.59243999 L14.7338353,4.48043553 C14.4967808,4.15114669 14.3286586,3.58872581 14.634818,3.0872542 C14.8792535,2.68682218 15.5179884,2.56136861 15.9345171,2.52256324 L16.4842919,2.52256324 C17.0373902,2.52256324 17.4899174,2.97160905 17.4899174,3.52040951 L17.4899174,3.91959941 C17.4899174,4.20310134 17.368973,4.4597479 17.1759885,4.64186758 L18.1978004,5.45729434 L18.5580437,5.09266949 C18.4938163,4.95111127 18.4617889,4.79293441 18.4715007,4.62799017 L18.4949386,4.2295284 C18.5271818,3.68162741 19.0053049,3.25952263 19.5574537,3.29147496 L20.4827949,3.34505721 C21.0349436,3.37705236 21.4603641,3.85149727 21.4281208,4.39939827" id="Fill-1"></path>
        </g>
    </g>
</svg>