<?xml version="1.0" encoding="UTF-8"?>
<svg width="44px" height="53px" viewBox="0 0 44 53" version="1.1" xmlns="http://www.w3.org/2000/svg" xmlns:xlink="http://www.w3.org/1999/xlink">
    <!-- Generator: Sketch 49.2 (51160) - http://www.bohemiancoding.com/sketch -->
    <title>location-pin-unselected</title>
    <desc>Created with Sketch.</desc>
    <defs>
        <linearGradient x1="50%" y1="0%" x2="50%" y2="100%" id="linearGradient-1">
            <stop stop-color="#19A4EA" offset="0%"></stop>
            <stop stop-color="#0082C3" offset="100%"></stop>
        </linearGradient>
        <path d="M7.52,2.74985211e-16 C3.36,2.74985211e-16 0,3.37272727 0,7.54848485 L0,32.2015152 C0,36.3772727 3.36,39.75 7.52,39.75 L13.04,39.75 C13.36,39.75 15.2,39.9106061 15.36,40.1515152 L21.76,52.8393939 L28.16,40.1515152 C28.32,39.9106061 30.16,39.75 30.48,39.75 L36.08,39.75 C40.24,39.75 43.6,36.3772727 43.6,32.2015152 L43.6,7.54848485 C43.6,3.37272727 40.24,0 36.08,0 C31.5534722,4.35829201e-17 28.1585764,7.62701102e-17 25.8953125,9.80615702e-17 C21.8119097,1.37377935e-16 15.6868056,1.96352482e-16 7.52,2.74985211e-16 Z" id="path-2"></path>
        <filter x="-18.3%" y="-13.2%" width="136.7%" height="130.3%" filterUnits="objectBoundingBox" id="filter-3">
            <feOffset dx="0" dy="1" in="SourceAlpha" result="shadowOffsetOuter1"></feOffset>
            <feGaussianBlur stdDeviation="2.5" in="shadowOffsetOuter1" result="shadowBlurOuter1"></feGaussianBlur>
            <feComposite in="shadowBlurOuter1" in2="SourceAlpha" operator="out" result="shadowBlurOuter1"></feComposite>
            <feColorMatrix values="0 0 0 0 0   0 0 0 0 0   0 0 0 0 0  0 0 0 0.271993886 0" type="matrix" in="shadowBlurOuter1"></feColorMatrix>
        </filter>
    </defs>
    <g id="location-pin-unselected" stroke="none" stroke-width="1" fill="none" fill-rule="evenodd">
        <g id="location-pin">
            <g id="Path">
                <use fill="black" fill-opacity="1" filter="url(#filter-3)" xlink:href="#path-2"></use>
                <use fill="url(#linearGradient-1)" fill-rule="evenodd" xlink:href="#path-2"></use>
                <path stroke="#FFFFFF" stroke-width="1.6" d="M21.7603516,51.0637612 L27.493587,39.7089163 C27.8561269,39.1630466 29.4327868,38.95 30.48,38.95 L36.08,38.95 C39.7974937,38.95 42.8,35.9361206 42.8,32.2015152 L42.8,7.54848485 C42.8,3.81387942 39.7974937,0.8 36.08,0.8 C29.8560243,0.8 29.8560243,0.8 25.8953125,0.8 C18.7493576,0.8 18.7493576,0.8 7.52,0.8 C3.80250629,0.8 0.8,3.81387942 0.8,7.54848485 L0.8,32.2015152 C0.8,35.9361206 3.80250629,38.95 7.52,38.95 L13.04,38.95 C14.0872132,38.95 15.6638731,39.1630466 16.0742749,39.7912217 L21.7603516,51.0637612 Z M28.6049411,40.8017139 C28.6026515,40.8025804 28.6005695,40.8034023 28.5987008,40.8041765 C28.6031444,40.8023356 28.6075985,40.8004198 28.6120829,40.798383 Z"></path>
            </g>
        </g>
        <g id="badminton" transform="translate(5.000000, 6.000000)" fill="#FFFFFF">
            <path d="M13.9903473,0.990784535 L14.1185387,0.953649006 L14.1356796,0.948683209 L14.2742672,1.43179053 L14.2571693,1.43675632 L14.1289349,1.47389185 C14.1058227,1.48058488 14.0826245,1.48378027 14.059727,1.48378027 C13.9511682,1.48378027 13.8509435,1.41197052 13.8194112,1.3019889 C13.7811342,1.16881917 13.857903,1.02917231 13.9903473,0.990784535 Z M15.0306994,0.167757591 C15.0338354,0.164864474 15.0378736,0.163309963 15.0419978,0.163309963 C15.0435443,0.163309963 15.0450479,0.163525868 15.0465944,0.163957676 C15.0521362,0.165555367 15.0564322,0.169873452 15.0580646,0.175443781 C15.0992199,0.318761013 15.0323319,0.489670805 15.0111957,0.538206077 L15.1946761,0.665546395 C15.1951486,0.665848661 15.1954064,0.666237289 15.1957501,0.666539554 C15.1963945,0.667014544 15.1968241,0.667575895 15.1973825,0.668137246 C15.1983706,0.669173586 15.1991439,0.670296288 15.1997883,0.671548533 C15.2000031,0.67193716 15.2003038,0.672153065 15.2005186,0.672584873 C15.2005616,0.672800777 15.2005616,0.673016682 15.2006475,0.673232586 C15.2012919,0.675089362 15.2018074,0.676946139 15.2018503,0.678932458 C15.2018503,0.679018819 15.2018503,0.679105181 15.2019363,0.679148362 C15.2019363,0.680961957 15.2016355,0.682905096 15.2010771,0.68467551 L15.1206138,0.924847381 L15.315951,1.08504832 C15.319087,1.08763917 15.3209772,1.09118 15.3216646,1.09493674 C15.3217076,1.09519582 15.3218364,1.09532537 15.3218794,1.09558445 C15.3219224,1.09597308 15.3217505,1.09644807 15.3217935,1.09687988 C15.3219224,1.09826166 15.3218794,1.09960027 15.3215357,1.10102524 C15.3214068,1.10175931 15.3213209,1.10249339 15.3210632,1.10322746 C15.3208913,1.10370245 15.3208913,1.10417744 15.3207195,1.10460925 L15.2328672,1.31062507 C15.2764282,1.34033349 15.4235218,1.44932195 15.464677,1.592596 C15.4663095,1.59825269 15.4648059,1.60425483 15.4609825,1.60857291 C15.4578035,1.61202738 15.4533357,1.6140137 15.4486531,1.6140137 C15.447665,1.6140137 15.446634,1.61392734 15.445603,1.61375461 L14.4421102,1.42721336 L14.2801526,0.862753323 L15.0306994,0.167757591 Z M14.059727,1.64713341 C14.0983047,1.64713341 14.1367536,1.64164944 14.1739995,1.63085423 L14.3021479,1.5937187 L14.3576947,1.57761225 L15.4160897,1.77434418 C15.4259705,1.77624414 15.4373977,1.77736684 15.4486531,1.77736684 C15.498744,1.77736684 15.5469017,1.75607869 15.5807968,1.71889998 C15.5813982,1.71825226 15.5819996,1.71764773 15.5825581,1.71695684 C15.6237993,1.67027834 15.6380189,1.60662977 15.6206633,1.54678112 C15.5859949,1.42604747 15.5041998,1.32828603 15.4309538,1.26066483 L15.4700899,1.16894871 C15.4706484,1.16769646 15.4711639,1.16644422 15.4716365,1.16514879 C15.4741711,1.15880121 15.476362,1.15202182 15.4781234,1.14519924 C15.4794122,1.14027663 15.4805291,1.13531083 15.4814742,1.13017231 C15.4834504,1.11924755 15.4843955,1.10815008 15.4843096,1.09700942 C15.4843525,1.0918709 15.4841807,1.08677556 15.4837511,1.08168022 L15.483794,1.08168022 C15.4834074,1.07723259 15.482806,1.07278496 15.4821186,1.06838052 C15.4816461,1.06566012 15.4810876,1.06298291 15.4805291,1.0603057 C15.4800136,1.05806029 15.4794551,1.05581489 15.4788966,1.05356949 C15.4694455,1.0163476 15.4484383,0.983011982 15.4189251,0.958701165 L15.3104951,0.869791801 L15.3550871,0.736837973 C15.3612733,0.71831339 15.3644094,0.69892519 15.3644094,0.679148362 C15.3644094,0.673232586 15.3641087,0.667273629 15.3634643,0.661444215 C15.3622184,0.649224035 15.3597268,0.637176579 15.3560323,0.625345026 C15.3551731,0.622408729 15.354185,0.619515612 15.3531969,0.616665676 C15.3517793,0.612908942 15.3502757,0.609109028 15.3486003,0.605438656 C15.3458938,0.599263795 15.3426289,0.593132115 15.3390632,0.587216339 C15.3327911,0.576680212 15.3248006,0.565971362 15.3158221,0.556342033 C15.3120417,0.552196672 15.3080035,0.548267215 15.3037934,0.544510481 C15.2987242,0.53989013 15.2933113,0.535572045 15.2878984,0.531772131 L15.2053301,0.474427966 C15.2315354,0.377918773 15.248934,0.251226168 15.2141797,0.130147073 C15.1970818,0.0701688764 15.1509862,0.0239653701 15.0909717,0.00682257383 C15.074647,0.00224540404 15.0583654,0 15.0419978,0 C14.9968902,0 14.9538017,0.0168837112 14.920594,0.0475852934 L14.1290208,0.780580171 L14.0735171,0.796729808 L13.9453686,0.833865337 C13.8395592,0.864480557 13.7519217,0.934822157 13.6986088,1.03184952 C13.645253,1.12892006 13.6327089,1.24093118 13.6632531,1.34728561 C13.7139025,1.52380891 13.876934,1.64713341 14.059727,1.64713341 Z M13.0010312,8.42501506 C12.5575595,7.64996204 12.9186777,6.71798982 13.5946037,6.32724633 C14.270143,5.93684829 15.2517694,6.15201845 15.6893986,6.91696716 C15.8295757,7.16201847 16.3235249,8.0254195 16.5768575,8.46819591 C16.6848579,8.65698257 16.4820028,8.78950459 16.2626941,8.97453452 C16.0151181,9.18344346 15.7932319,9.37089151 15.7932319,9.37089151 C15.7932319,9.37089151 13.9855788,9.28755248 13.6092529,9.06236436 C13.3595719,8.91291545 13.1546117,8.69351357 13.0010312,8.42501506 Z M21.1432457,18.368571 L21.1540257,18.368571 L21.1618357,18.380011 L21.1432457,18.368571 Z M9.15262646,6.31303983 C9.04282178,6.33722111 8.935251,6.35272303 8.83012892,6.36019332 L8.78437697,6.20349002 L9.20705625,6.07973372 L9.26616862,6.28220871 L9.15262646,6.31303983 Z M8.34369764,6.33255758 L8.67513077,6.23544385 L8.71306408,6.36524548 C8.58568893,6.36679999 8.46239495,6.35578887 8.34369764,6.33255758 Z M7.25295399,5.59148788 C7.23469617,5.56514756 7.21716866,5.53807317 7.19994187,5.5107397 L7.3003384,5.48133354 L7.38118833,5.75842503 C7.33655333,5.70604667 7.29372263,5.65042974 7.25295399,5.59148788 Z M7.52097879,2.28038053 L7.55487389,2.39649383 L7.32950796,2.46247416 C7.38892105,2.39623474 7.45288786,2.33552247 7.52097879,2.28038053 Z M9.16083174,5.51492824 L9.58351101,5.39117193 L9.70710571,5.81468968 L9.28442644,5.93844599 L9.16083174,5.51492824 Z M8.62890627,5.67068155 L9.05158554,5.54692525 L9.17518024,5.97039981 L8.75250097,6.0941993 L8.62890627,5.67068155 Z M8.09693783,5.82639169 L8.51966006,5.70267856 L8.64325476,6.12619631 L8.22057549,6.24995262 L8.09693783,5.82639169 Z M7.98773459,5.8583887 L8.10724813,6.26787267 C7.92235011,6.20215142 7.75119916,6.10348318 7.59650172,5.97294748 L7.98773459,5.8583887 Z M7.83226388,5.3256234 L7.95585858,5.74909797 L7.53313635,5.87289746 L7.40954165,5.44933653 L7.83226388,5.3256234 Z M7.25407094,4.91657124 L7.67679317,4.79277175 L7.80038787,5.2162895 L7.37766564,5.34004581 L7.25407094,4.91657124 Z M7.14482474,4.94852507 L7.2684624,5.37204282 L7.13966959,5.40973969 C7.06865741,5.28317663 7.00812736,5.14728651 6.95812242,5.00319202 L7.14482474,4.94852507 Z M7.21033809,3.19430316 L7.33393279,3.61786409 L6.91125352,3.74166357 L6.84397882,3.51125057 C6.8580266,3.43417276 6.8750386,3.35929717 6.89505776,3.28662381 L7.21033809,3.19430316 Z M8.08679937,2.24074051 L7.66407714,2.36449682 L7.61823927,2.20744808 C7.74028743,2.12302952 7.87410651,2.05562422 8.01849364,2.0067435 L8.08679937,2.24074051 Z M8.72792809,2.05303337 L8.69111173,1.92681576 C8.78772782,1.93588373 8.88348472,1.95337198 8.97795282,1.97979865 L8.72792809,2.05303337 Z M9.41532427,2.43008853 L9.32420701,2.11776146 C9.44556781,2.18145321 9.5630193,2.26086279 9.67578818,2.35378797 L9.41532427,2.43008853 Z M9.99351721,2.83914069 L9.57079498,2.96285382 L9.44724324,2.53937925 L9.7774735,2.44269733 C9.82558823,2.48730315 9.8730156,2.53380892 9.91902531,2.58385552 L9.99351721,2.83914069 Z M10.1030557,2.80807915 L10.1025057,2.80653915 C10.1029457,2.80697915 10.1032757,2.80752915 10.1036057,2.80796915 L10.1030557,2.80807915 Z M10.5691755,4.4055691 L10.4455808,3.98209453 L10.6181924,3.93157294 C10.6513142,4.08089231 10.6712904,4.22857081 10.6779492,4.37374481 L10.5691755,4.4055691 Z M9.84822792,5.89202657 L10.1599426,5.80074226 C10.0773313,5.88067001 9.98578449,5.95342974 9.88500132,6.01798511 L9.84822792,5.89202657 Z M10.1154365,5.2354618 L10.2390312,5.65893636 L9.81635192,5.78273585 L9.69275722,5.35917492 L10.1154365,5.2354618 Z M9.53724355,4.82640963 L9.95996578,4.70261014 L10.0835605,5.12617107 L9.66088121,5.2498842 L9.53724355,4.82640963 Z M9.00531807,4.98211977 L9.42804031,4.85836346 L9.55163501,5.28188121 L9.12895574,5.40563751 L9.00531807,4.98211977 Z M8.4733926,5.13787308 L8.89611483,5.01407359 L9.01970953,5.43763452 L8.59703026,5.56139083 L8.4733926,5.13787308 Z M8.36418936,5.16982691 L8.48778406,5.59338784 L8.06506182,5.71714414 L7.94146712,5.2936264 L8.36418936,5.16982691 Z M8.20871865,4.63701844 L8.33231335,5.06057937 L7.90959112,5.18433567 L7.78599642,4.76081793 L8.20871865,4.63701844 Z M7.63052571,4.22800945 L8.05324794,4.10425315 L8.17684264,4.52772771 L7.75412041,4.65148402 L7.63052571,4.22800945 Z M7.52127951,4.25996328 L7.64491717,4.68348103 L7.22219493,4.80723734 L7.09860023,4.38371959 L7.52127951,4.25996328 Z M7.4894035,4.15071574 L7.06672423,4.27442886 L6.94312953,3.85091112 L7.3658088,3.72715481 L7.4894035,4.15071574 Z M7.86585827,3.46211077 L7.443179,3.58586708 L7.31954133,3.16234933 L7.74226357,3.03859302 L7.86585827,3.46211077 Z M8.24227008,2.77354898 L7.81954784,2.89730529 L7.69595314,2.47378754 L8.11867538,2.35007442 L8.24227008,2.77354898 Z M8.77419555,2.61779567 L8.35147332,2.74155198 L8.22787862,2.31807741 L8.65060085,2.1943211 L8.77419555,2.61779567 Z M9.03891246,3.11865031 L8.9152748,2.69508939 L9.33799703,2.57137626 L9.46159174,2.99485083 L9.03891246,3.11865031 Z M9.61706244,3.52770248 L9.19438317,3.65145879 L9.07078847,3.22794104 L9.49346774,3.10414155 L9.61706244,3.52770248 Z M9.72626569,3.49570547 L9.60271394,3.07218772 L10.0253932,2.94843141 L10.1489879,3.37194916 L9.72626569,3.49570547 Z M9.88177935,4.02851394 L9.75818465,3.60503937 L10.1808639,3.48123989 L10.3045016,3.90475763 L9.88177935,4.02851394 Z M9.38177284,4.29355798 L9.80445212,4.16980167 L9.92804682,4.59331942 L9.50536754,4.71707573 L9.38177284,4.29355798 Z M8.84984737,4.4493113 L9.2725696,4.32555499 L9.3961643,4.74907274 L8.97344207,4.87282904 L8.84984737,4.4493113 Z M8.74064412,4.4813083 L8.86423882,4.90478287 L8.44151659,5.02858236 L8.31792189,4.60502143 L8.74064412,4.4813083 Z M8.58513046,3.94845665 L8.70876812,4.37201758 L8.28604589,4.49573071 L8.16245118,4.07225614 L8.58513046,3.94845665 Z M8.00698048,3.53940449 L8.42965975,3.41569136 L8.55325445,3.83916593 L8.13057518,3.96296542 L8.00698048,3.53940449 Z M8.02132898,3.99491924 L7.5986497,4.11871873 L7.475055,3.6951578 L7.89773427,3.57140149 L8.02132898,3.99491924 Z M8.39774078,3.30635746 L7.97510447,3.43011376 L7.85146681,3.0066392 L8.27414608,2.88283971 L8.39774078,3.30635746 Z M8.50698699,3.27440363 L8.38339229,2.85088588 L8.80607156,2.72708639 L8.92966626,3.15064732 L8.50698699,3.27440363 Z M8.66245769,3.8072121 L8.53890595,3.38369435 L8.96154227,3.25989486 L9.08513697,3.68345579 L8.66245769,3.8072121 Z M9.22630214,3.76074951 L9.64893845,3.6369932 L9.77257611,4.06046777 L9.34985388,4.18426726 L9.22630214,3.76074951 Z M9.24065063,4.21626426 L8.81797136,4.34002057 L8.69437666,3.91645964 L9.11705593,3.79274652 L9.24065063,4.21626426 Z M10.4918483,4.54685683 L10.615443,4.97041776 L10.1928067,5.09417406 L10.069169,4.67061314 L10.4918483,4.54685683 Z M10.0372501,4.56132241 L9.91365536,4.13780466 L10.3363776,4.01404836 L10.4599723,4.4375661 L10.0372501,4.56132241 Z M9.18686524,2.05333564 L9.30612103,2.46208553 L8.8833988,2.58579866 L8.75980409,2.1623241 L9.16375299,2.04400857 C9.17144276,2.04716078 9.17921844,2.05009707 9.18686524,2.05333564 Z M10.3392129,5.59597869 L10.2246827,5.20346479 L10.591042,5.09616038 C10.5336909,5.28024033 10.4489746,5.44726385 10.3392129,5.59597869 Z M10.7021729,4.6616747 C10.6993722,4.68684913 10.6944264,4.71111677 10.6905532,4.73581622 L10.6010515,4.51485982 L10.7110515,4.49167171 C10.710694,4.54875679 10.7083105,4.6055396 10.7021729,4.6616747 Z M10.5743307,3.75742458 C10.5804309,3.77862638 10.5856291,3.79965545 10.5912138,3.82081407 L10.4137048,3.87280381 L10.2901101,3.44924288 L10.4465689,3.40347118 C10.4967027,3.51932539 10.5398771,3.6379 10.5743307,3.75742458 Z M10.1781145,2.91246177 C10.2605969,3.03405903 10.3344874,3.16407656 10.3989267,3.29875763 L10.2581482,3.33995215 L10.1346394,2.91647759 L10.1729594,2.90525057 C10.1746348,2.90771188 10.1764391,2.91000046 10.1781145,2.91246177 Z M8.57061012,1.92003636 L8.61872485,2.0849872 L8.19600261,2.20878669 L8.12743913,1.97392606 C8.26589784,1.93735188 8.4047432,1.9190432 8.54264344,1.9190432 C8.55200862,1.9190432 8.56128789,1.91986364 8.57061012,1.92003636 Z M7.2054407,2.61740704 L7.5867499,2.50574137 L7.7103446,2.9293023 L7.28766533,3.05305861 L7.17395133,2.66343782 C7.18430459,2.6479359 7.19470081,2.63252034 7.2054407,2.61740704 Z M7.0937458,2.79466442 L7.17846209,3.08505561 L6.93458057,3.15643355 C6.97805566,3.027366 7.03132554,2.90654599 7.0937458,2.79466442 Z M6.80101925,3.89253745 L6.83388332,3.88290813 L6.95747802,4.30642587 L6.81412192,4.34839766 C6.79826983,4.19653062 6.79380204,4.04336815 6.80101925,3.89253745 Z M6.88556369,4.75995431 C6.86137745,4.66284058 6.84256116,4.56335191 6.82821266,4.46287008 L6.98935403,4.41567342 L7.11294873,4.83923434 L6.9230674,4.89485127 C6.90970698,4.85050454 6.8970339,4.80568283 6.88556369,4.75995431 Z M9.3759733,6.25232756 L9.31630245,6.04773671 L9.73898172,5.9239804 L9.78421815,6.0788701 C9.66539197,6.14506634 9.53586884,6.20141734 9.39569175,6.24697314 L9.3759733,6.25232756 Z M26.1538359,21.9741717 C26.0477687,20.9000913 25.9869379,20.7705919 25.4880484,19.8756689 C25.0828966,19.1489784 21.8723556,13.3897761 21.8723556,13.3897761 L20.2139012,10.1901617 L20.7817408,9.05774401 C20.7817408,9.05774401 22.3761855,7.78628397 22.5874607,7.62012407 C22.6798238,7.54749389 22.8765787,7.34372347 23.0957155,7.03778717 C23.2241216,6.85850029 25.3781148,3.85086794 25.7833525,3.28563065 C26.1885472,2.72035018 25.7705935,2.09910733 25.6140058,2.07129887 L21.4229555,6.63516895 L17.857998,8.36024379 C17.857998,8.36024379 17.5828419,8.49747252 17.4241063,8.63750801 C16.9539567,9.05226004 15.6721718,10.1523785 15.462615,10.3393084 C15.204342,10.5695486 15.0122268,11.0162545 15.0122268,11.0162545 L13.9538746,13.1062075 C13.9538746,13.1062075 12.2268567,11.9256431 11.4058562,11.3640331 C11.0966332,10.7504764 10.8898688,10.4446696 10.6354192,10.3885345 L10.4717003,9.96423953 L10.4012466,9.98332547 L9.56250378,6.86545241 L9.60851349,6.85288678 L9.49690451,6.43809157 C10.3198382,6.15901375 10.8093625,5.54144128 10.8766802,4.69561485 C10.9020263,4.3769402 10.8654248,4.04405905 10.7678636,3.70616892 C10.6743835,3.38239893 10.525142,3.06406972 10.3361198,2.78551008 C9.74611301,1.9156751 8.8950838,1.53201327 8.059563,1.75905816 C7.22399924,1.98614624 6.68124795,2.74872 6.60770115,3.7988782 C6.5841593,4.13555926 6.61483244,4.48614456 6.69641268,4.81267812 C6.78164448,5.15410908 6.91692418,5.46013174 7.09851431,5.72249857 C7.58077852,6.41891927 8.31328226,6.70430149 9.16396779,6.5286418 L9.27553381,6.94356656 L9.32154352,6.93100093 L10.1603292,10.0488308 L10.0899615,10.0679599 L10.1615751,10.5196316 C9.90111116,10.7323404 9.94982732,11.1121592 10.0604482,11.3252135 C10.189327,11.5735033 10.5736433,11.7916098 10.5736433,11.7916098 C10.5736433,11.7916098 13.7656687,14.9760245 13.9586861,15.1700361 C14.3510789,15.5644931 14.7100491,15.5699339 14.9842171,15.2377868 C15.3206765,14.8302028 16.0131419,14.0012169 16.0131419,14.0012169 L15.3072731,13.3196936 L15.4004525,13.1401908 L17.4867413,14.5877855 L18.5914898,16.3725795 L16.5631534,22.0129049 L13.1701631,28.2695506 C13.1701631,28.2695506 14.0291828,29.0723689 14.9893723,27.7516827 C15.9495188,26.4309965 21.4687934,18.8395445 21.4687934,18.8395445 L23.8272311,21.603205 C23.8272311,21.603205 24.9711158,26.1135741 25.2628113,27.3502735 C25.5545068,28.5869298 26.4866008,28.6828776 26.8224587,28.5598122 C26.8224587,28.5598122 26.2518696,22.9675903 26.1538359,21.9741717 Z" id="Fill-1"></path>
        </g>
    </g>
</svg>