<?xml version="1.0" encoding="UTF-8"?>
<svg width="44px" height="53px" viewBox="0 0 44 53" version="1.1" xmlns="http://www.w3.org/2000/svg" xmlns:xlink="http://www.w3.org/1999/xlink">
    <!-- Generator: Sketch 49.2 (51160) - http://www.bohemiancoding.com/sketch -->
    <title>location-pin-unselected</title>
    <desc>Created with Sketch.</desc>
    <defs>
        <linearGradient x1="50%" y1="0%" x2="50%" y2="100%" id="linearGradient-1">
            <stop stop-color="#19A4EA" offset="0%"></stop>
            <stop stop-color="#0082C3" offset="100%"></stop>
        </linearGradient>
        <path d="M7.52,2.74985211e-16 C3.36,2.74985211e-16 0,3.37272727 0,7.54848485 L0,32.2015152 C0,36.3772727 3.36,39.75 7.52,39.75 L13.04,39.75 C13.36,39.75 15.2,39.9106061 15.36,40.1515152 L21.76,52.8393939 L28.16,40.1515152 C28.32,39.9106061 30.16,39.75 30.48,39.75 L36.08,39.75 C40.24,39.75 43.6,36.3772727 43.6,32.2015152 L43.6,7.54848485 C43.6,3.37272727 40.24,0 36.08,0 C31.5534722,4.35829201e-17 28.1585764,7.62701102e-17 25.8953125,9.80615702e-17 C21.8119097,1.37377935e-16 15.6868056,1.96352482e-16 7.52,2.74985211e-16 Z" id="path-2"></path>
        <filter x="-18.3%" y="-13.2%" width="136.7%" height="130.3%" filterUnits="objectBoundingBox" id="filter-3">
            <feOffset dx="0" dy="1" in="SourceAlpha" result="shadowOffsetOuter1"></feOffset>
            <feGaussianBlur stdDeviation="2.5" in="shadowOffsetOuter1" result="shadowBlurOuter1"></feGaussianBlur>
            <feComposite in="shadowBlurOuter1" in2="SourceAlpha" operator="out" result="shadowBlurOuter1"></feComposite>
            <feColorMatrix values="0 0 0 0 0   0 0 0 0 0   0 0 0 0 0  0 0 0 0.271993886 0" type="matrix" in="shadowBlurOuter1"></feColorMatrix>
        </filter>
    </defs>
    <g id="location-pin-unselected" stroke="none" stroke-width="1" fill="none" fill-rule="evenodd">
        <g id="location-pin">
            <g id="Path">
                <use fill="black" fill-opacity="1" filter="url(#filter-3)" xlink:href="#path-2"></use>
                <use fill="url(#linearGradient-1)" fill-rule="evenodd" xlink:href="#path-2"></use>
                <path stroke="#FFFFFF" stroke-width="1.6" d="M21.7603516,51.0637612 L27.493587,39.7089163 C27.8561269,39.1630466 29.4327868,38.95 30.48,38.95 L36.08,38.95 C39.7974937,38.95 42.8,35.9361206 42.8,32.2015152 L42.8,7.54848485 C42.8,3.81387942 39.7974937,0.8 36.08,0.8 C29.8560243,0.8 29.8560243,0.8 25.8953125,0.8 C18.7493576,0.8 18.7493576,0.8 7.52,0.8 C3.80250629,0.8 0.8,3.81387942 0.8,7.54848485 L0.8,32.2015152 C0.8,35.9361206 3.80250629,38.95 7.52,38.95 L13.04,38.95 C14.0872132,38.95 15.6638731,39.1630466 16.0742749,39.7912217 L21.7603516,51.0637612 Z M28.6049411,40.8017139 C28.6026515,40.8025804 28.6005695,40.8034023 28.5987008,40.8041765 C28.6031444,40.8023356 28.6075985,40.8004198 28.6120829,40.798383 Z"></path>
            </g>
        </g>
        <g id="tennis" transform="translate(4.000000, 6.000000)" fill="#FFFFFF">
            <path d="M23.6578772,7.13269298 L22.8441197,6.17049446 C23.0705124,6.18603049 23.2987896,6.16847231 23.5240307,6.11323307 C23.677402,6.07565065 23.822555,6.02208832 23.959804,5.95580123 L23.6578772,7.13269298 Z M22.4202288,5.32380513 L23.1491348,5.14906171 L23.2995224,5.70618891 C23.0389483,5.75580559 22.7732968,5.74140393 22.5144501,5.6728974 L22.4202288,5.32380513 Z M22.1946736,4.48836093 L22.9235796,4.31361751 L23.1089861,5.00045829 L22.3800801,5.17520171 L22.1946736,4.48836093 Z M21.9562415,5.43502342 L22.2625129,5.36158483 L22.330928,5.61524145 C22.2031012,5.56804149 22.0777346,5.50752493 21.9562415,5.43502342 Z M21.7799954,5.31902102 C21.6389253,5.21766687 21.504503,5.09993824 21.3797645,4.96701882 L21.307947,4.70088405 L22.0369054,4.52614063 L22.2223119,5.2129814 L21.7799954,5.31902102 Z M21.0823918,3.86543985 L21.8113502,3.69069643 L21.9967567,4.37753721 L21.2678506,4.55228063 L21.0823918,3.86543985 Z M21.0833864,4.59647202 C20.9493828,4.39948494 20.8342759,4.18153654 20.7426195,3.94691773 L20.9246759,3.90326887 L21.11003,4.59006032 L21.0833864,4.59647202 Z M20.6338463,3.62302836 C20.5856888,3.45006049 20.552659,3.27758583 20.5333437,3.1075772 L20.6991207,3.06782467 L20.8845272,3.75461613 L20.6894892,3.8013722 C20.6696504,3.74272983 20.6507015,3.6834956 20.6338463,3.62302836 Z M20.5294178,2.43962627 L20.6589197,2.91922125 L20.5195246,2.95266072 C20.5083227,2.77762138 20.5119345,2.60598516 20.5294178,2.43962627 Z M20.9764453,1.22239015 L21.1346323,1.18441317 L21.3200387,1.87125394 L20.5997697,2.04392589 C20.6774498,1.73675625 20.805486,1.45755148 20.9764453,1.22239015 Z M21.9062519,0.545758767 L21.9811578,0.823286631 L21.2521471,0.99803005 L21.234088,0.931101792 C21.4264041,0.754089617 21.6526397,0.621811364 21.9062519,0.545758767 Z M22.2066607,1.65873083 L21.477807,1.83347425 L21.2923482,1.14663347 L22.0213065,0.971890052 L22.2066607,1.65873083 Z M22.8472081,0.534316352 L22.8677797,0.610763516 L22.1388737,0.785506936 L22.0634967,0.506351487 C22.323495,0.455156548 22.5886231,0.467536056 22.8472081,0.534316352 Z M23.0933349,1.44620771 L22.3644812,1.62095113 L22.1790224,0.934110357 L22.9079808,0.759366938 L23.0933349,1.44620771 Z M23.2404771,0.679664605 C23.5060763,0.808737009 23.7568619,0.995021485 23.9784388,1.22766747 L23.9800615,1.23363528 L23.2511032,1.4083787 L23.0656967,0.721587243 L23.2404771,0.679664605 Z M24.2055644,2.06907947 L23.4766584,2.24377357 L23.2911995,1.55698212 L24.0201579,1.3822387 L24.2055644,2.06907947 Z M24.5121498,1.99554223 L24.3633326,2.03125046 L24.2263454,1.52403586 C24.3328677,1.66923615 24.4286593,1.82721051 24.5121498,1.99554223 Z M24.7391707,2.5872926 C24.7623596,2.66378908 24.7819367,2.74013761 24.7991582,2.81628884 L24.5888878,2.86664533 L24.403429,2.17985388 L24.5784711,2.13793124 C24.6412853,2.28120802 24.6956195,2.43109378 24.7391707,2.5872926 Z M24.8709757,3.68857564 L24.8144953,3.70208953 L24.6290889,3.01529807 L24.8297278,2.96716102 C24.8732789,3.21361681 24.8859465,3.45588034 24.8709757,3.68857564 Z M24.8571014,3.86016728 L24.8545917,3.85113778 L24.858177,3.8503477 C24.8576989,3.85362089 24.8574599,3.85689408 24.8571014,3.86016728 Z M24.6318108,4.63538609 L24.1533763,4.75005684 L23.9679698,4.06326538 L24.6968758,3.88857129 L24.7855485,4.21704748 C24.7462373,4.36387536 24.694625,4.50384765 24.6318108,4.63538609 Z M24.2674363,5.1723411 L24.193525,4.89870958 L24.5346582,4.81688645 C24.4573445,4.94664935 24.367939,5.06575896 24.2674363,5.1723411 Z M23.8102016,4.1010944 L23.995608,4.78788585 L23.266702,4.96262927 L23.0812955,4.2757885 L23.8102016,4.1010944 Z M22.8557403,3.4403443 L23.5846987,3.2656502 L23.7701052,3.95249098 L23.0411992,4.12718508 L22.8557403,3.4403443 Z M22.6979721,3.47817332 L22.8833786,4.16501409 L22.1544726,4.33975751 L21.9690137,3.65291674 L22.6979721,3.47817332 Z M21.7434585,2.81747254 L22.4724693,2.64272912 L22.6578757,3.3295699 L21.9289174,3.50431332 L21.7434585,2.81747254 Z M21.5857426,2.85525224 L21.7711491,3.54209301 L21.0422431,3.71683643 L20.8567843,3.02999566 L21.5857426,2.85525224 Z M21.5455416,2.70669814 L20.8166879,2.88144156 L20.6312291,2.19460078 L21.3601875,2.01985736 L21.5455416,2.70669814 Z M22.4322682,2.4941257 L21.7033622,2.66886912 L21.5179034,1.98207767 L22.2468617,1.80733425 L22.4322682,2.4941257 Z M22.5900364,2.45634601 L22.4045776,1.76950523 L23.1334836,1.59481113 L23.3188901,2.28160259 L22.5900364,2.45634601 Z M23.5444976,3.11704678 L22.8155916,3.2917902 L22.6301328,2.60494943 L23.3590912,2.43020601 L23.5444976,3.11704678 Z M24.4713206,3.05307777 L24.6567271,3.73991854 L23.9278211,3.91461264 L23.7424146,3.22782119 L24.4713206,3.05307777 Z M23.7022659,3.07916845 L23.5168071,2.39242631 L24.2457131,2.21768289 L24.4311196,2.90447435 L23.7022659,3.07916845 Z M23.457186,5.66786669 L23.3069031,5.11123269 L24.0358091,4.9365386 L24.1341133,5.30057506 C23.9400698,5.46944931 23.7125779,5.59566111 23.457186,5.66786669 Z M24.6825333,9.57584569 L24.0909285,7.60602423 C24.0909285,7.60602423 24.2622542,6.43199308 24.7374433,5.52000308 C25.2125801,4.60796375 25.5464374,3.64482814 25.2301681,2.47346031 C24.7750271,0.788120935 23.2534587,-0.279574675 21.8502426,0.06438824 C20.4469742,0.408400476 19.6877603,2.05152128 20.1442099,3.70411168 C20.4310089,4.74285601 21.2030997,5.62194907 21.8743737,6.03639134 C22.5455431,6.4508336 23.528166,7.78288844 23.528166,7.78288844 L23.9772349,9.95216302 C23.8039725,10.1153161 23.6410744,10.2687529 23.5109444,10.3912657 L20.4736179,10.949034 C20.4736179,10.949034 16.7251303,7.74964625 16.5527054,7.59976049 C16.2258101,7.31557433 15.9894718,7.20539177 15.6207003,7.17575 C15.3547347,7.15434479 15.0664176,7.12781023 13.8879192,7.03597499 C12.4394246,6.92307979 11.9274369,7.97025797 11.6652401,8.81911741 C11.3856647,9.72405454 9.96637867,14.4350247 9.96637867,14.4350247 L9.38670863,15.7028146 C8.80703859,16.9706045 9.09504153,18.526033 9.4337669,19.1352922 C9.77243994,19.7446008 11.514015,22.8772083 11.514015,22.8772083 C11.514015,22.8772083 8.63592234,26.2060137 7.65010638,27.3595767 C6.66429043,28.5132384 7.50359235,29.3035048 7.50359235,29.3035048 C7.50359235,29.3035048 14.5412912,23.4177637 14.9562835,23.0603362 C15.4202708,22.6606408 15.5828548,22.1734505 15.3394499,21.6784181 C14.7920768,21.346736 11.9447631,19.6034941 11.9447631,19.6034941 L11.780347,19.2943023 L18.2149252,22.6155124 C18.2149252,22.6155124 21.2559683,26.8148784 22.3789808,28.346337 C23.5019411,29.8777463 24.6616475,29.161609 24.6616475,29.161609 C24.6616475,29.161609 20.4152531,21.5848566 20.1378762,21.1025983 C19.7826097,20.4847573 19.7458635,20.4264108 19.1890682,19.976359 C18.7703071,19.6378214 13.9567531,15.7469073 13.9567531,15.7469073 L14.0359513,15.5897221 C14.7508812,14.179198 16.12782,12.3689291 16.6269832,11.7299295 L15.5732233,11.1523342 L15.6370843,10.9583556 C15.6370843,10.9583556 19.5136081,12.6961723 19.6494437,12.7570341 C19.8007735,12.8248995 20.015755,12.8348129 20.1375621,12.7958002 C20.2420953,12.7623114 23.8955241,11.5640638 24.4986448,11.3705292 C25.1325444,11.1671304 25.3791423,10.379626 25.2390667,10.0739359 C25.1981329,9.93504871 24.9509591,9.65214489 24.6825333,9.57584569 Z M14.5378365,6.67918868 C14.5378365,6.67918868 14.9267608,6.71031007 15.3604403,6.74527849 C15.7447059,6.77625192 16.0635401,6.83948112 16.1391265,6.57398752 C16.3162101,5.95116508 16.6617927,4.73664159 16.7597305,4.39198819 C17.0658448,3.31590805 16.3328559,2.24416814 15.319454,1.98819344 C14.3050053,1.7321201 13.0790299,2.2419487 12.7689896,3.3321839 C12.661525,3.70988221 12.649381,4.08979995 12.7463242,4.4469315 C12.8922624,4.98541546 14.5378365,6.67918868 14.5378365,6.67918868 Z M28.7675477,15.7948471 C28.6597691,15.6717425 28.5990487,15.5161355 28.5990487,15.3514536 C28.5990487,15.1861304 28.6602402,15.0305728 28.7674954,14.9080107 C28.8786241,15.028452 28.9456782,15.1830232 28.9456782,15.3514536 C28.9456782,15.5198839 28.8786764,15.6744058 28.7675477,15.7948471 Z M27.7584905,15.9368909 C27.917515,15.7674741 28.0092761,15.5472569 28.0092761,15.3120956 C28.0092761,15.1016933 27.9357311,14.9024374 27.8049206,14.7406161 C27.9144267,14.6869551 28.0399503,14.6563762 28.173221,14.6563762 C28.3158092,14.6563762 28.4490275,14.6919365 28.5638728,14.7528476 C28.4196096,14.9184667 28.337323,15.1283265 28.337323,15.3514536 C28.337323,15.5736929 28.4189291,15.7837006 28.5639775,15.9500102 C28.4491322,16.0109706 28.3158615,16.0465802 28.173221,16.0465802 C28.0205303,16.0465802 27.8784656,16.0059892 27.7584905,15.9368909 Z M27.5968487,14.8902552 C27.6933208,15.0097594 27.7475504,15.1567846 27.7475504,15.3120956 C27.7475504,15.4861978 27.6795017,15.6491536 27.5616204,15.7744283 C27.4611701,15.6570942 27.4007638,15.5106609 27.4007638,15.3514536 C27.4007638,15.1744414 27.4753557,15.0131132 27.5968487,14.8902552 Z M28.173221,14.2800096 C27.5270203,14.2800096 27.0013181,14.7606896 27.0013181,15.3514536 C27.0013181,15.9422668 27.5270203,16.4228975 28.173221,16.4228975 C28.8193694,16.4228975 29.3450716,15.9422668 29.3450716,15.3514536 C29.3450716,14.7606896 28.8193694,14.2800096 28.173221,14.2800096 Z" id="Fill-1"></path>
        </g>
    </g>
</svg>