<?xml version="1.0" encoding="UTF-8"?>
<svg width="44px" height="53px" viewBox="0 0 44 53" version="1.1" xmlns="http://www.w3.org/2000/svg" xmlns:xlink="http://www.w3.org/1999/xlink">
    <!-- Generator: Sketch 49.2 (51160) - http://www.bohemiancoding.com/sketch -->
    <title>location-pin-unselected</title>
    <desc>Created with Sketch.</desc>
    <defs>
        <linearGradient x1="50%" y1="0%" x2="50%" y2="100%" id="linearGradient-1">
            <stop stop-color="#19A4EA" offset="0%"></stop>
            <stop stop-color="#0082C3" offset="100%"></stop>
        </linearGradient>
        <path d="M7.52,2.74985211e-16 C3.36,2.74985211e-16 0,3.37272727 0,7.54848485 L0,32.2015152 C0,36.3772727 3.36,39.75 7.52,39.75 L13.04,39.75 C13.36,39.75 15.2,39.9106061 15.36,40.1515152 L21.76,52.8393939 L28.16,40.1515152 C28.32,39.9106061 30.16,39.75 30.48,39.75 L36.08,39.75 C40.24,39.75 43.6,36.3772727 43.6,32.2015152 L43.6,7.54848485 C43.6,3.37272727 40.24,0 36.08,0 C31.5534722,4.35829201e-17 28.1585764,7.62701102e-17 25.8953125,9.80615702e-17 C21.8119097,1.37377935e-16 15.6868056,1.96352482e-16 7.52,2.74985211e-16 Z" id="path-2"></path>
        <filter x="-18.3%" y="-13.2%" width="136.7%" height="130.3%" filterUnits="objectBoundingBox" id="filter-3">
            <feOffset dx="0" dy="1" in="SourceAlpha" result="shadowOffsetOuter1"></feOffset>
            <feGaussianBlur stdDeviation="2.5" in="shadowOffsetOuter1" result="shadowBlurOuter1"></feGaussianBlur>
            <feComposite in="shadowBlurOuter1" in2="SourceAlpha" operator="out" result="shadowBlurOuter1"></feComposite>
            <feColorMatrix values="0 0 0 0 0   0 0 0 0 0   0 0 0 0 0  0 0 0 0.271993886 0" type="matrix" in="shadowBlurOuter1"></feColorMatrix>
        </filter>
    </defs>
    <g id="location-pin-unselected" stroke="none" stroke-width="1" fill="none" fill-rule="evenodd">
        <g id="location-pin">
            <g id="Path">
                <use fill="black" fill-opacity="1" filter="url(#filter-3)" xlink:href="#path-2"></use>
                <use fill="url(#linearGradient-1)" fill-rule="evenodd" xlink:href="#path-2"></use>
                <path stroke="#FFFFFF" stroke-width="1.6" d="M21.7603516,51.0637612 L27.493587,39.7089163 C27.8561269,39.1630466 29.4327868,38.95 30.48,38.95 L36.08,38.95 C39.7974937,38.95 42.8,35.9361206 42.8,32.2015152 L42.8,7.54848485 C42.8,3.81387942 39.7974937,0.8 36.08,0.8 C29.8560243,0.8 29.8560243,0.8 25.8953125,0.8 C18.7493576,0.8 18.7493576,0.8 7.52,0.8 C3.80250629,0.8 0.8,3.81387942 0.8,7.54848485 L0.8,32.2015152 C0.8,35.9361206 3.80250629,38.95 7.52,38.95 L13.04,38.95 C14.0872132,38.95 15.6638731,39.1630466 16.0742749,39.7912217 L21.7603516,51.0637612 Z M28.6049411,40.8017139 C28.6026515,40.8025804 28.6005695,40.8034023 28.5987008,40.8041765 C28.6031444,40.8023356 28.6075985,40.8004198 28.6120829,40.798383 Z"></path>
            </g>
        </g>
        <g id="squash" transform="translate(7.000000, 8.000000)" fill="#FFFFFF">
            <path d="M28.5670606,13.7497094 L28.3054653,13.7688574 L28.3395396,14.1763531 L28.5240464,14.1628137 C28.558542,14.0327218 28.5733325,13.8936036 28.5670606,13.7497094 Z M28.4915167,14.2678424 L28.3480582,14.2783584 L28.3679973,14.5166777 C28.4179386,14.4399546 28.4595486,14.3566151 28.4915167,14.2678424 Z M28.2969467,13.666852 L28.558776,13.6476164 C28.5415985,13.4966239 28.5030776,13.3628952 28.448877,13.2457293 L28.2628256,13.2593563 L28.2969467,13.666852 Z M28.2691911,14.647383 L28.2390016,14.2863769 L27.8038519,14.3182755 L27.8379262,14.7257274 L28.2216368,14.697597 C28.2379251,14.681341 28.2539325,14.6646906 28.2691911,14.647383 Z M28.0891776,14.809987 L27.8464448,14.8277766 L27.8556655,14.9380195 C27.8790682,14.9275473 27.9023773,14.9175571 27.9259204,14.9064714 C27.9837718,14.8791736 28.0380661,14.8465739 28.0891776,14.809987 Z M27.7952865,14.2161825 L28.230483,14.1843277 L28.1963619,13.7768758 L27.7612122,13.8087744 L27.7952865,14.2161825 Z M27.7527404,13.7067252 L28.1878433,13.6748704 L28.153769,13.2673747 L27.7185725,13.2992295 L27.7527404,13.7067252 Z M27.7497449,14.9831945 L27.7373415,14.835795 L27.3021918,14.8676498 L27.3236286,15.1243721 C27.4638108,15.0887053 27.6058183,15.0418652 27.7497449,14.9831945 Z M27.2936732,14.7656006 L27.7288229,14.7337458 L27.6947486,14.3262501 L27.2595521,14.3581487 L27.2936732,14.7656006 Z M27.2510335,14.2560995 L27.68623,14.2242448 L27.6521557,13.8167929 L27.2169592,13.8486476 L27.2510335,14.2560995 Z M27.216023,15.1495667 L27.1931352,14.8756244 L26.7579387,14.9075669 L26.783354,15.2115674 C26.9259701,15.2013581 27.0701775,15.1811586 27.216023,15.1495667 Z M26.7493733,14.8055177 L27.1846166,14.7736191 L27.1504487,14.3661672 L26.715299,14.398022 L26.7493733,14.8055177 Z M26.7067804,14.2959728 L27.1419769,14.264118 L27.1079026,13.8566223 L26.6726593,13.8885647 L26.7067804,14.2959728 Z M26.6741571,15.2175703 L26.6488822,14.9155415 L26.2136856,14.9474401 L26.2352161,15.2049949 C26.3803128,15.2184905 26.5265329,15.2230036 26.6741571,15.2175703 Z M26.2051203,14.8453909 L26.6403168,14.8135361 L26.6062424,14.4060404 L26.1710927,14.437939 L26.2051203,14.8453909 Z M26.1625274,14.3358898 L26.5976771,14.3039912 L26.5636027,13.8965832 L26.128453,13.9284379 L26.1625274,14.3358898 Z M26.1244278,15.1929453 L26.1045823,14.9554585 L25.6694326,14.9873571 L25.6799638,15.1136808 C25.8274476,15.1474635 25.9754462,15.1746299 26.1244278,15.1929453 Z M25.660914,14.8852641 L26.0960637,14.8534094 L26.0619894,14.4459137 L25.6267929,14.4778561 L25.660914,14.8852641 Z M25.6182743,14.3758069 L26.053424,14.3439083 L26.0193497,13.9364564 L25.5842,13.9683112 L25.6182743,14.3758069 Z M25.5756346,13.866262 L26.0108779,13.8344072 L25.9767568,13.4269553 L25.5415603,13.4588101 L25.5756346,13.866262 Z M25.5680521,15.0953318 L25.560376,14.9953318 L25.3047718,15.0158495 C25.3924383,15.0445648 25.4801516,15.0710748 25.5680521,15.0953318 Z M25.1166141,14.925225 L25.5518106,14.8932826 L25.5177363,14.4858307 L25.0825866,14.5177293 L25.1166141,14.925225 Z M25.0739744,14.4156801 L25.5092177,14.3838253 L25.4750966,13.9763296 L25.0399469,14.0082282 L25.0739744,14.4156801 Z M25.0314283,13.9062228 L25.466578,13.8742804 L25.4325037,13.4667847 L24.9972604,13.4987271 L25.0314283,13.9062228 Z M25.006247,14.9179514 L24.9734833,14.5257039 L24.5383336,14.5576025 L24.5546686,14.7537263 C24.7056628,14.8112577 24.8560485,14.866642 25.006247,14.9179514 Z M24.5297214,14.4555533 L24.9649179,14.4236986 L24.9308435,14.0162467 L24.4956938,14.0481015 L24.5297214,14.4555533 Z M24.4871753,13.9460523 L24.922325,13.9141975 L24.8882038,13.5067456 L24.4530541,13.5386004 L24.4871753,13.9460523 Z M24.4445356,13.4365512 L24.8797321,13.4046964 L24.8456109,12.9972445 L24.8146258,12.9994792 C24.6846472,13.0700241 24.5555579,13.1443812 24.4264687,13.2207976 L24.4445356,13.4365512 Z M24.441306,14.7101724 L24.4292302,14.5656648 L24.1273354,14.5877485 C24.1404409,14.592875 24.1535933,14.5980016 24.166652,14.6031281 C24.2585777,14.6391455 24.3500355,14.6749 24.441306,14.7101724 Z M23.9855151,14.4954704 L24.4206648,14.4635718 L24.3866373,14.0561199 L23.9514408,14.0880185 L23.9855151,14.4954704 Z M24.3780719,13.9540707 L24.3439508,13.5466188 L23.9088479,13.5785174 L23.9428754,13.9859693 L24.3780719,13.9540707 Z M23.8752884,14.4896428 L23.8423842,14.0959932 L23.4071877,14.1278917 L23.4233356,14.321737 C23.5751723,14.3755002 23.7256984,14.4319361 23.8752884,14.4896428 Z M23.3986223,14.0258426 L23.8338188,13.9939878 L23.8005402,13.5960441 C23.6632132,13.6771927 23.5241076,13.7568078 23.3825213,13.8334871 L23.3986223,14.0258426 Z M23.3103006,14.2820829 L23.2980844,14.1359102 L22.9337512,14.1626384 C23.0602194,14.1995321 23.1857514,14.239493 23.3103006,14.2820829 Z M22.9301472,14.0601949 L23.2895658,14.033861 L23.27749,13.8896601 C23.1637997,13.9492947 23.0481436,14.0063879 22.9301472,14.0601949 Z M24.0146281,13.4680554 L24.335479,13.4445697 L24.3219991,13.2830173 C24.2560503,13.3224962 24.189961,13.3623256 24.1236846,13.4023303 C24.0874572,13.4242387 24.0510427,13.4461471 24.0146281,13.4680554 Z M24.9547143,12.9892261 L24.9887886,13.396678 L25.4239851,13.3647794 L25.389864,12.9573275 L24.9547143,12.9892261 Z M25.0443466,12.8799471 L25.3813454,12.8552783 L25.3709546,12.7307511 C25.2606343,12.7765396 25.1519522,12.8264907 25.0443466,12.8799471 Z M25.4770624,12.6882489 L25.4904488,12.8473036 L25.9255985,12.8153612 L25.9035531,12.5515845 C25.757848,12.5885658 25.6160276,12.6347486 25.4770624,12.6882489 Z M25.9341639,12.9174104 L25.4989206,12.949309 L25.5330885,13.3567609 L25.9682382,13.3249061 L25.9341639,12.9174104 Z M26.0111587,12.5261707 L26.0347018,12.8074304 L26.4698047,12.775488 L26.4436405,12.4619354 C26.2949866,12.4733278 26.1512473,12.495499 26.0111587,12.5261707 Z M26.4784169,12.8775372 L26.0432204,12.9094358 L26.0773415,13.3168877 L26.5124912,13.2850329 L26.4784169,12.8775372 Z M26.520963,13.3870821 L26.0858133,13.4189369 L26.1199345,13.8263887 L26.555131,13.7944902 L26.520963,13.3870821 Z M26.5528843,12.4557134 L26.5789081,12.7674695 L27.0141046,12.7356148 L26.9918252,12.4689899 C26.8406906,12.4542237 26.6945174,12.4499296 26.5528843,12.4557134 Z M27.0226232,12.837664 L26.5874735,12.8695187 L26.6215478,13.2769706 L27.0567443,13.2451158 L27.0226232,12.837664 Z M27.0652629,13.3471212 L26.6300664,13.3790636 L26.6641875,13.7865155 L27.0993372,13.7546169 L27.0652629,13.3471212 Z M27.1026136,12.4816529 L27.123208,12.7275963 L27.5583577,12.6956977 L27.5478264,12.5693741 C27.3943516,12.5295446 27.2461189,12.5005379 27.1026136,12.4816529 Z M27.566923,12.7977031 L27.1317265,12.8296455 L27.1658477,13.2370974 L27.6009974,13.2051988 L27.566923,12.7977031 Z M27.609516,13.307248 L27.1743663,13.3391466 L27.2084406,13.7465985 L27.6436371,13.7147437 L27.609516,13.307248 Z M27.6601126,12.600221 L27.6674142,12.700221 L27.8703156,12.6832371 C27.8305778,12.6629465 27.7907932,12.6451609 27.7515235,12.6310327 C27.7207256,12.6200106 27.6904893,12.6102411 27.6601126,12.600221 Z M27.6760264,12.7897284 L27.7100539,13.1972241 L28.1452036,13.1653256 L28.1165587,12.8226348 L28.1111761,12.7578737 L28.0353514,12.7634384 L27.6760264,12.7897284 Z M28.2353508,12.930906 L28.254307,13.1573071 L28.3975315,13.1468349 C28.3502112,13.0656863 28.2954021,12.993783 28.2353508,12.930906 Z M28.1786695,15.3760555 C27.6102648,15.6441701 27.0727986,15.7484539 26.5573308,15.7484539 C25.6353115,15.7484539 24.7835002,15.4147456 23.9498962,15.0881795 C23.0527305,14.7367254 22.2055998,14.4048136 21.2965923,14.48456 C21.076607,14.503927 20.8607874,14.521147 20.6557329,14.5363952 C20.6132805,14.6948366 20.4659839,14.8179178 20.2831152,14.8302303 L18.5098463,14.9491489 C18.2823253,14.9643972 18.0827939,14.8025819 18.0664588,14.5895449 L18.0430561,14.2840546 C18.0309335,14.1247808 18.1244975,13.9802731 18.2675348,13.9110427 L15.4460123,11.0689135 L14.2678271,8.15974478 L12.5190373,9.3412194 L11.9458586,10.8142506 C11.9458586,10.8142506 15.1203872,13.8322602 15.5805778,14.2630226 C16.3972383,15.0275809 16.4367888,15.0752097 16.6408603,16.251032 C16.7914332,17.1183406 17.9468243,24.0944479 17.9468243,24.0944479 C17.6222289,24.2113071 16.4746076,24.1335762 16.0849995,22.980933 C15.6954851,21.828246 13.8420385,16.2859977 13.8420385,16.2859977 L9.10364813,13.5784298 C9.10364813,13.5784298 8.6890928,15.5388347 8.47622189,16.5682652 C8.21729448,17.8205477 8.01172521,17.9352599 6.98364484,18.7768919 C6.13745022,19.4696346 3.28653399,21.7754468 2.74134482,22.1936776 C2.19615565,22.6119522 0.842496999,23.3641542 0,22.6834173 L5.38261971,16.6382843 C5.38261971,16.6382843 5.22802151,13.4529387 5.1436782,11.9547566 C5.06364099,10.5336482 5.70365788,9.34165757 6.81177546,8.4649722 C7.19155438,7.91060278 8.50056069,5.86199483 9.50706377,4.28016663 L6.96356533,3.20578012 C6.96356533,3.20578012 2.35491953,2.74938493 1.49880216,2.65237466 C0.642684794,2.55540821 0.300490596,1.80119064 0.397845805,1.4996 L6.98181943,1.4996 C6.98181943,1.4996 9.80474604,2.10852126 10.6642802,2.30057004 C11.6944668,2.53078321 12.0080161,2.86313319 12.1575125,2.97749489 L12.7928489,4.56164538 L13.0775192,4.67434204 C13.0775192,4.67434204 12.8168132,3.79353789 12.6716697,3.28806796 C12.4910009,2.65916626 12.3624265,2.15996212 12.4372215,1.74479849 C12.5041064,1.37275053 12.6835115,1.0219537 12.9520808,0.710504295 C13.7267568,-0.188483799 15.1071881,-0.186818763 15.9491703,0.448655446 C16.7904035,1.0837353 17.0062232,2.37260477 16.2418912,3.25971852 C16.0488657,3.48388498 15.4717553,4.15366769 15.0191472,4.67872371 L15.773416,5.16377505 C16.4569151,5.60330078 16.4393163,5.8428031 16.6705349,7.32722668 C16.876385,8.64865198 17.1775777,10.065773 17.1775777,10.065773 L19.8251713,13.7752546 L20.2004569,13.75006 C20.3822959,13.7378351 20.5459743,13.8389203 20.6128124,13.988686 C20.8180072,13.9764173 21.0341077,13.9647182 21.2547015,13.9544651 C22.2487544,13.9084137 23.0116822,13.4479435 23.8193092,12.9604385 C24.9566333,12.2739178 26.1326187,11.5641304 27.9301797,12.1286653 C28.6111981,12.3425786 29.069142,12.9309936 29.1252617,13.6643106 C29.1820366,14.4060842 28.8104486,15.078014 28.1786695,15.3760555 Z M26.4660603,18.5881294 C26.4660603,18.9269204 26.1727309,19.2015637 25.8108317,19.2015637 C25.4489324,19.2015637 25.1555562,18.9269204 25.1555562,18.5881294 C25.1555562,18.2493821 25.4489324,17.974695 25.8108317,17.974695 C26.1727309,17.974695 26.4660603,18.2493821 26.4660603,18.5881294 Z" id="Fill-1"></path>
        </g>
    </g>
</svg>