<?xml version="1.0" encoding="UTF-8"?>
<svg width="44px" height="53px" viewBox="0 0 44 53" version="1.1" xmlns="http://www.w3.org/2000/svg" xmlns:xlink="http://www.w3.org/1999/xlink">
    <!-- Generator: Sketch 49.2 (51160) - http://www.bohemiancoding.com/sketch -->
    <title>location-pin-unselected</title>
    <desc>Created with Sketch.</desc>
    <defs>
        <linearGradient x1="50%" y1="0%" x2="50%" y2="100%" id="linearGradient-1">
            <stop stop-color="#19A4EA" offset="0%"></stop>
            <stop stop-color="#0082C3" offset="100%"></stop>
        </linearGradient>
        <path d="M7.52,2.74985211e-16 C3.36,2.74985211e-16 0,3.37272727 0,7.54848485 L0,32.2015152 C0,36.3772727 3.36,39.75 7.52,39.75 L13.04,39.75 C13.36,39.75 15.2,39.9106061 15.36,40.1515152 L21.76,52.8393939 L28.16,40.1515152 C28.32,39.9106061 30.16,39.75 30.48,39.75 L36.08,39.75 C40.24,39.75 43.6,36.3772727 43.6,32.2015152 L43.6,7.54848485 C43.6,3.37272727 40.24,0 36.08,0 C31.5534722,4.35829201e-17 28.1585764,7.62701102e-17 25.8953125,9.80615702e-17 C21.8119097,1.37377935e-16 15.6868056,1.96352482e-16 7.52,2.74985211e-16 Z" id="path-2"></path>
        <filter x="-18.3%" y="-13.2%" width="136.7%" height="130.3%" filterUnits="objectBoundingBox" id="filter-3">
            <feOffset dx="0" dy="1" in="SourceAlpha" result="shadowOffsetOuter1"></feOffset>
            <feGaussianBlur stdDeviation="2.5" in="shadowOffsetOuter1" result="shadowBlurOuter1"></feGaussianBlur>
            <feComposite in="shadowBlurOuter1" in2="SourceAlpha" operator="out" result="shadowBlurOuter1"></feComposite>
            <feColorMatrix values="0 0 0 0 0   0 0 0 0 0   0 0 0 0 0  0 0 0 0.271993886 0" type="matrix" in="shadowBlurOuter1"></feColorMatrix>
        </filter>
    </defs>
    <g id="location-pin-unselected" stroke="none" stroke-width="1" fill="none" fill-rule="evenodd">
        <g id="location-pin">
            <g id="Path">
                <use fill="black" fill-opacity="1" filter="url(#filter-3)" xlink:href="#path-2"></use>
                <use fill="url(#linearGradient-1)" fill-rule="evenodd" xlink:href="#path-2"></use>
                <path stroke="#FFFFFF" stroke-width="1.6" d="M21.7603516,51.0637612 L27.493587,39.7089163 C27.8561269,39.1630466 29.4327868,38.95 30.48,38.95 L36.08,38.95 C39.7974937,38.95 42.8,35.9361206 42.8,32.2015152 L42.8,7.54848485 C42.8,3.81387942 39.7974937,0.8 36.08,0.8 C29.8560243,0.8 29.8560243,0.8 25.8953125,0.8 C18.7493576,0.8 18.7493576,0.8 7.52,0.8 C3.80250629,0.8 0.8,3.81387942 0.8,7.54848485 L0.8,32.2015152 C0.8,35.9361206 3.80250629,38.95 7.52,38.95 L13.04,38.95 C14.0872132,38.95 15.6638731,39.1630466 16.0742749,39.7912217 L21.7603516,51.0637612 Z M28.6049411,40.8017139 C28.6026515,40.8025804 28.6005695,40.8034023 28.5987008,40.8041765 C28.6031444,40.8023356 28.6075985,40.8004198 28.6120829,40.798383 Z"></path>
            </g>
        </g>
        <g id="pickleball" transform="translate(5.000000, 6.000000)" fill="#FFFFFF">
            <path d="M19.8307494,9.57325717 L21.1297508,7.17237751 L20.6451288,7.38182134 L19.6314563,9.21956064 L16.8935393,9.47750322 L16.8935393,7.13000088 L16.6250884,7.42214131 L16.4324713,8.98864152 L15.0423564,9.32947202 C15.1027226,9.35788253 15.1593747,9.392463 15.2112783,9.43321343 L16.3270186,9.98401389 L19.8307494,9.57325717 Z M11.1255121,8.6305447 C11.274359,8.49523604 11.4095717,8.34065224 11.5262139,8.16602803 C11.6405994,7.99494317 11.7307725,7.81414899 11.7992722,7.62766315 L12.0239999,8.51604172 L11.1255121,8.6305447 Z M24.2195689,18.5964648 C24.7333397,19.5409948 24.6389823,20.1576082 24.6389823,20.3818312 L24.6389823,28.1477062 C24.6389823,28.1477062 23.2181671,28.3287396 23.0594943,26.5104667 C22.8818278,24.4753844 22.5126725,21.0290552 22.5126725,21.0290552 L21.740982,20.1981194 L23.0357051,19.6290483 L23.1003496,19.3738798 L20.5389238,20.2458529 L18.8811572,17.2404129 C18.8811572,17.2404129 16.8965952,21.6855581 16.7318105,22.0933494 C16.457906,22.7712797 16.278829,23.1347334 15.8057255,23.5069398 C15.4471484,23.7889405 9.46741649,27.6215856 9.46741649,27.6215856 C9.46741649,27.6215856 8.71006527,26.7639134 9.85283864,25.4896014 C10.3993783,24.8800189 14.4065839,21.7329089 14.4065839,21.7329089 L14.6766802,19.7541215 L15.8045501,19.9553387 L16.1082616,19.8330874 L14.1729234,19.1871548 L15.3575864,14.7658763 L16.0534901,13.2119552 L15.9124476,11.1347353 L14.6712266,11.1347353 L14.6722609,11.1254565 C14.6482837,11.132583 14.6241654,11.1367441 14.5998591,11.1347353 C14.241,11.1052726 13.9497942,10.8135626 13.8364901,10.4638837 C13.7961989,10.4661795 13.7555317,10.4667535 13.7142062,10.4634054 C13.2593912,10.4260509 12.9133669,10.0456657 12.900391,9.59219752 L12.0034077,8.97175783 L9.95509445,9.23290497 C9.79590448,9.26820288 9.63295338,9.28886507 9.46816872,9.29493937 L9.41485465,9.30177894 L9.41429048,9.29709168 C8.84170494,9.3071358 8.25083089,9.13911201 7.72972586,8.77871939 C6.45042336,7.89383235 6.07609656,6.18489695 6.89362591,4.96171435 C7.71110825,3.73848393 9.41085845,3.46418377 10.6901139,4.34902299 C11.3983354,4.83893693 11.828609,5.5814366 11.9334036,6.35425995 L12.4295441,8.3151593 L13.2268574,8.86662936 C13.3969546,8.72577253 13.6179682,8.64819365 13.8538383,8.66675136 C14.3444311,7.92056885 15.5470535,6.11564034 15.9750235,5.69211325 C16.6159206,5.05775528 17.0046808,4.8812179 17.466689,4.96147521 C18.1632509,5.08238729 21.8696128,5.72602411 22.2238645,5.78858464 C22.7307713,5.87807297 23.6103593,6.28155965 23.2909451,7.29003721 C22.9715308,8.29846693 21.0635078,11.1825645 21.0635078,11.1825645 L19.6244982,11.1353571 L20.0005645,11.4471553 L21.2304081,11.5589799 L20.858244,13.9602422 C20.858244,13.9602422 23.0958363,16.8086591 23.9386122,18.1321873 C24.0627296,18.3271867 24.1600019,18.4868404 24.2195689,18.5964648 Z M20.0369535,4.80335205 C20.0369535,4.80335205 20.3990096,4.86787357 20.8027203,4.94014341 C21.16031,5.00413881 21.4538195,5.0952055 21.5481769,4.83271914 C21.7694726,4.21706237 22.2010626,3.01645513 22.3235345,2.67576812 C22.7059478,1.6120479 22.1133342,0.46453102 21.1854156,0.11930024 C20.2566977,-0.226265344 19.0616916,0.1860219 18.6743419,1.26375606 C18.5401635,1.63715821 18.4952179,2.02074796 18.5544088,2.39075424 C18.6436887,2.94844209 20.0369535,4.80335205 20.0369535,4.80335205 Z M10.4818882,7.41898459 C10.401541,7.54434478 10.2365213,7.57969052 10.1133441,7.49795051 C9.99016702,7.4162105 9.95542355,7.24833019 10.0357708,7.12301783 C10.116118,6.99765763 10.2811377,6.96231189 10.4043148,7.04405191 C10.5274919,7.12579192 10.5622354,7.29367222 10.4818882,7.41898459 Z M11.0196362,6.58020484 C10.939289,6.70551721 10.7742693,6.74086295 10.6510452,6.65912293 C10.527868,6.57738292 10.4930776,6.40955045 10.5734248,6.28419025 C10.653772,6.15887789 10.8187917,6.12348432 10.9419688,6.20522433 C11.065193,6.28696435 11.0999364,6.45484465 11.0196362,6.58020484 Z M11.7992722,7.62766315 L12.0239999,8.51604172 L11.1255121,8.6305447 C11.274359,8.49523604 11.4095717,8.34065224 11.5262139,8.16602803 C11.6405994,7.99494317 11.7307725,7.81414899 11.7992722,7.62766315 Z M9.94423418,8.25781216 C9.86388697,8.38317235 9.69886724,8.41847026 9.57569012,8.33673025 C9.45246599,8.25503807 9.4176755,8.08715776 9.49802272,7.96179757 C9.57836993,7.83648521 9.74338966,7.80113947 9.86661379,7.88287948 C9.98979091,7.96461949 10.0245814,8.13245196 9.94423418,8.25781216 Z M21.1297508,7.17237751 L20.6451288,7.38182134 L19.6314563,9.21956064 L16.8935393,9.47750322 L16.8935393,7.13000088 L16.6250884,7.42214131 L16.4324713,8.98864152 L15.0423564,9.32947202 C15.1027226,9.35788253 15.1593747,9.392463 15.2112783,9.43321343 L16.3270186,9.98401389 L19.8307494,9.57325717 L21.1297508,7.17237751 Z M9.87070402,5.81795173 C9.95105123,5.69263937 10.116071,5.65729363 10.2392481,5.73903364 C10.3624722,5.82077365 10.3971687,5.98860613 10.3168215,6.11396632 C10.2364742,6.23927869 10.0715015,6.27467225 9.94832441,6.19293224 C9.82510028,6.11119223 9.79035681,5.94331193 9.87070402,5.81795173 Z M8.46521549,4.88552252 C8.5455627,4.76016233 8.71053542,4.72481659 8.83380656,4.8065566 C8.95698368,4.88829661 8.99172715,5.05617692 8.91137994,5.18148928 C8.83103273,5.30684947 8.666013,5.34219521 8.54283588,5.2604552 C8.41961175,5.17871519 8.38486828,5.01083489 8.46521549,4.88552252 Z M7.83597788,6.85914443 C7.75563067,6.98445679 7.59061094,7.01980253 7.46743382,6.93806252 C7.34420969,6.85632251 7.30951323,6.6884422 7.38986045,6.56312984 C7.47020766,6.43781747 7.63518037,6.4024239 7.7584045,6.48416392 C7.88158162,6.56590393 7.91632509,6.73378423 7.83597788,6.85914443 Z M9.16798326,5.35176104 C9.24833047,5.22640085 9.41330319,5.19105511 9.53652732,5.27279512 C9.65970444,5.35453513 9.69444791,5.52241544 9.6141007,5.6477278 C9.53375348,5.77308799 9.36873376,5.8083859 9.24555664,5.72664589 C9.12233251,5.64495371 9.08763605,5.47707341 9.16798326,5.35176104 Z M8.70785561,6.56547347 C8.58467849,6.48378128 8.54988801,6.31590098 8.63023522,6.19054079 C8.71058243,6.06522842 8.87560216,6.02983485 8.99877928,6.11162269 C9.12200341,6.19336271 9.15679389,6.36119518 9.07644668,6.48655537 C8.99609947,6.61186774 8.83107974,6.64721348 8.70785561,6.56547347 Z M9.24146641,7.79157364 C9.16111919,7.916886 8.99614648,7.95227957 8.87292235,7.87053956 C8.74969822,7.78879955 8.71495475,7.62091924 8.79530196,7.49555905 C8.87564917,7.37024669 9.0406689,7.33490095 9.16384602,7.41664096 C9.28707015,7.49838097 9.32181362,7.66626127 9.24146641,7.79157364 Z M8.00513485,6.09928277 C7.88191072,6.01754276 7.84716725,5.84966246 7.92751446,5.72430227 C8.00786167,5.5989899 8.1728814,5.56364416 8.29605852,5.64538417 C8.41928265,5.72712418 8.45397911,5.89500449 8.37363189,6.02031685 C8.29328468,6.14562922 8.12835898,6.18102279 8.00513485,6.09928277 Z M8.53869864,7.32533512 C8.45835142,7.45069531 8.29337871,7.48604105 8.17015458,7.40430104 C8.04697746,7.32256103 8.01223399,7.15468072 8.0925812,7.02936836 C8.17292841,6.90400816 8.33794814,6.86866243 8.46112526,6.95040244 C8.58434939,7.03214245 8.61904585,7.20002275 8.53869864,7.32533512 Z M9.41062338,7.03171199 C9.28739925,6.94997197 9.25270279,6.78209167 9.33305,6.65677931 C9.4133502,6.53141911 9.57832291,6.49607337 9.70159406,6.57781339 C9.82477118,6.6595534 9.85951465,6.8274337 9.77916744,6.95274607 C9.69882022,7.07810626 9.5338005,7.113452 9.41062338,7.03171199 Z M12.0239999,8.51604172 L11.1255121,8.6305447 C11.274359,8.49523604 11.4095717,8.34065224 11.5262139,8.16602803 C11.6405994,7.99494317 11.7307725,7.81414899 11.7992722,7.62766315 L12.0239999,8.51604172 Z M16.3270186,9.98401389 L15.2112783,9.43321343 C15.1593747,9.392463 15.1027226,9.35788253 15.0423564,9.32947202 L16.4324713,8.98864152 L16.6250884,7.42214131 L16.8935393,7.13000088 L16.8935393,9.47750322 L19.6314563,9.21956064 L20.6451288,7.38182134 L21.1297508,7.17237751 L19.8307494,9.57325717 L16.3270186,9.98401389 Z" id="Fill-1"></path>
            <path d="M29.5498205,10.5344301 C29.5313318,10.5359723 29.513396,10.5293102 29.4995142,10.5169113 C29.4856324,10.5045124 29.4774015,10.4874254 29.4762959,10.4687345 C29.4751903,10.4501053 29.4813327,10.4321547 29.4936789,10.418152 C29.5059637,10.4042109 29.5229782,10.395945 29.5414668,10.394773 C29.5428795,10.3947113 29.5442923,10.3946496 29.5456436,10.3946496 C29.5821295,10.3946496 29.6129029,10.4233336 29.6151756,10.4604069 C29.6174483,10.498899 29.588149,10.532086 29.5498205,10.5344301 Z M29.5220681,10.2905338 C29.4795556,10.293144 29.4405735,10.312204 29.4123299,10.344217 C29.3840863,10.3762299 29.3699645,10.4174034 29.3725142,10.4600545 C29.375015,10.5027548 29.3939421,10.541909 29.4258142,10.5703267 C29.4552347,10.5965772 29.4924025,10.6107614 29.5314827,10.6107614 C29.5346699,10.6107614 29.5379061,10.6106629 29.5411424,10.6104659 C29.6289624,10.6051469 29.696139,10.5291039 29.6908924,10.4409452 L29.6908924,10.440896 C29.6855477,10.3526881 29.6098391,10.2854117 29.5220681,10.2905338 Z M29.1810043,10.4164926 C29.1824152,10.4163691 29.1838261,10.4163691 29.185237,10.4163691 C29.2217368,10.4163691 29.2524703,10.4450813 29.2546787,10.4821293 C29.2570098,10.5206592 29.2276872,10.5539407 29.1894084,10.5562253 C29.1511297,10.5586952 29.1181265,10.5290568 29.1157954,10.4905886 C29.113587,10.4520587 29.1428482,10.418839 29.1810043,10.4164926 Z M29.1712294,10.6324317 C29.1744166,10.6324317 29.1776038,10.6323332 29.1808401,10.6321362 C29.268611,10.6268171 29.3358367,10.5508234 29.3305411,10.4626155 C29.3252944,10.3744569 29.2495368,10.3069342 29.1616678,10.3122533 C29.0739948,10.3175724 29.0068672,10.3935661 29.0120648,10.4818233 C29.0171644,10.5667314 29.0876263,10.6324317 29.1712294,10.6324317 Z M28.876917,10.5544936 C28.8645918,10.5684483 28.8476065,10.5767841 28.8290268,10.5778956 C28.7907638,10.5803654 28.7577741,10.5507271 28.755444,10.5123824 C28.7532365,10.4737907 28.7824857,10.4404476 28.8206261,10.4381629 C28.8220364,10.4381012 28.8234468,10.4380394 28.8247958,10.4380394 C28.8613419,10.4380394 28.8921241,10.4667516 28.8943315,10.5038614 C28.8954353,10.5225088 28.8892421,10.5404771 28.876917,10.5544936 Z M28.8013164,10.3339236 C28.7136925,10.3391934 28.6465649,10.4152364 28.6516645,10.5035428 C28.6568621,10.5884509 28.727275,10.654102 28.8108781,10.654102 C28.8140162,10.654102 28.8172525,10.6540035 28.8204397,10.6538065 C28.8630013,10.6512947 28.9019834,10.6322347 28.930325,10.6002218 C28.9585687,10.5681596 28.9727395,10.5270353 28.9702388,10.484335 C28.9649921,10.3961271 28.8892345,10.328703 28.8013164,10.3339236 Z M28.9702388,10.4844258 L28.9702388,10.4842858 L28.9702388,10.4844258 Z M29.2869933,11.023064 C29.2892631,11.0615953 29.2600019,11.0948162 29.2217231,11.0971009 C29.2030745,11.0982741 29.1852847,11.0919757 29.1713596,11.0795642 C29.1574958,11.0672144 29.1492143,11.05011 29.1481101,11.0314618 C29.1458404,10.9929305 29.1751016,10.9597097 29.213319,10.9573632 C29.2147912,10.9573015 29.2162022,10.9572397 29.2176131,10.9572397 C29.2346054,10.9572397 29.2508616,10.9634146 29.2636825,10.9749616 C29.2776077,10.9873114 29.2858891,11.0044158 29.2869933,11.0230022 L29.2869933,11.023064 Z M29.1939812,10.8531238 C29.1062593,10.8584429 29.0391316,10.9344859 29.0443783,11.0226446 C29.046879,11.0653449 29.0658062,11.1044991 29.0977273,11.1329167 C29.1271478,11.1591673 29.1643156,11.1733023 29.2033957,11.1733023 C29.206632,11.1733023 29.2098682,11.1732038 29.2131045,11.1730068 C29.3009245,11.1677369 29.3680521,11.0917432 29.3628545,11.0035353 C29.3603538,10.960835 29.3413286,10.9216315 29.3094074,10.8932139 C29.2775352,10.8647962 29.2365428,10.8505628 29.1939812,10.8531238 Z M29.1007044,9.89490633 C29.1131012,9.88088579 29.1301008,9.87260935 29.148696,9.87149759 C29.1501075,9.87137406 29.151519,9.87131229 29.1529305,9.87131229 C29.1699914,9.87131229 29.1861932,9.87748874 29.1990196,9.88897694 C29.2128893,9.9013916 29.2211742,9.9184386 29.2222175,9.93709148 L29.2222175,9.93715325 C29.2244882,9.97563253 29.1952146,10.0088618 29.1569196,10.0112089 C29.1383857,10.0121971 29.120527,10.0060824 29.1066573,9.99372953 C29.0927263,9.9812531 29.0844413,9.96414433 29.0833366,9.94542969 C29.082232,9.92683858 29.0884303,9.90886511 29.1007044,9.89490633 Z M29.1385727,10.0873749 C29.141809,10.0873749 29.1450452,10.0872764 29.1483305,10.0870794 C29.2361015,10.0817603 29.3032781,10.0057665 29.2980805,9.9176079 C29.2955307,9.87490759 29.2766036,9.83570408 29.2447315,9.80733571 C29.2128593,9.77891809 29.1718668,9.7647339 29.1293053,9.76719644 C29.0867437,9.76975747 29.0477616,9.78881747 29.019469,9.82078113 C28.9911763,9.8528433 28.9770055,9.89401684 28.9795552,9.9366679 C28.982105,9.9793682 29.0010812,10.0185717 29.0329533,10.0469401 C29.0623738,10.0732399 29.0995416,10.0873749 29.1385727,10.0873749 Z M29.7510572,10.9886124 C29.7412994,10.9996445 29.7307081,11.0096424 29.7204109,11.0200343 C29.7227155,11.0076724 29.7239904,10.9949657 29.7232058,10.981865 L29.7232058,10.9817665 C29.7179102,10.8936079 29.6420545,10.8263807 29.5543325,10.8314536 C29.4666106,10.8367726 29.399483,10.9128156 29.4047296,11.000925 C29.4072794,11.0436253 29.4261575,11.0828288 29.4580296,11.1111972 C29.4840667,11.1344435 29.5163311,11.1475442 29.5504098,11.1504007 C29.4494977,11.2073837 29.3366703,11.2418592 29.2177137,11.2490498 C29.098659,11.2562896 28.9824973,11.2355551 28.8754559,11.1909832 C28.9517529,11.1751245 29.0072595,11.1055334 29.0025032,11.0252056 C28.9999534,10.9825053 28.9809772,10.9433018 28.949007,10.9148841 C28.9171349,10.8865158 28.8761424,10.8725286 28.8336299,10.8748434 C28.7911173,10.8774044 28.7521353,10.8964644 28.7238916,10.9284773 C28.695648,10.9604902 28.6814772,11.0016638 28.684076,11.0443148 C28.6848605,11.0573663 28.6876064,11.0698759 28.691333,11.0820408 C28.6799081,11.0729295 28.6681399,11.0642613 28.6571072,11.0544112 C28.5417301,10.9515759 28.4613142,10.8196827 28.4226754,10.6732112 C28.4317467,10.6748365 28.4410141,10.6757723 28.4503306,10.6757723 C28.4535668,10.6757723 28.4568521,10.6756738 28.4601374,10.6754768 C28.5026499,10.6729157 28.541632,10.6538557 28.5699247,10.6218921 C28.5982664,10.5898299 28.6124372,10.5487056 28.6098384,10.5060053 C28.6072886,10.463305 28.5883124,10.4241015 28.5564403,10.3957331 C28.5245682,10.3672663 28.4835267,10.3530328 28.4410632,10.3556431 C28.4282653,10.3563819 28.4160067,10.3590907 28.4040424,10.3627352 C28.4249309,10.21257 28.4891656,10.0718117 28.5915977,9.95577714 C28.6008161,9.94533601 28.6108681,9.93592914 28.6205769,9.92602976 C28.6191058,9.93661864 28.6185665,9.94745379 28.6192529,9.95838743 C28.6218027,10.0010877 28.6407299,10.040242 28.672602,10.0686104 C28.7020224,10.094861 28.7391903,10.1090451 28.7782214,10.1090451 C28.7814576,10.1090451 28.7846939,10.1089466 28.7879301,10.1087496 C28.8757501,10.1034798 28.9429758,10.0274368 28.9376801,9.93922893 C28.9351794,9.89652862 28.9162032,9.85732511 28.8842821,9.82895674 C28.8601573,9.80748346 28.8307859,9.79408729 28.7995512,9.78999948 C28.8986,9.73542977 29.0088776,9.70233334 29.1250393,9.69533975 C29.1408773,9.69440399 29.1566663,9.69396073 29.1724552,9.69396073 C29.2722886,9.69396073 29.3695231,9.71351324 29.4602362,9.75020496 C29.4292957,9.75793731 29.4013953,9.77468253 29.3798203,9.79911085 C29.3515276,9.83117302 29.3373568,9.87234656 29.3399556,9.91499761 C29.3425054,9.95769792 29.3614325,9.99685218 29.3932556,10.0252698 C29.4226761,10.0515204 29.4598929,10.0656553 29.498875,10.0656553 C29.5021113,10.0656553 29.5053965,10.0655568 29.5086328,10.0654091 C29.5511943,10.062848 29.5901764,10.043788 29.6184691,10.0117751 C29.6467617,9.97971296 29.6609326,9.93858867 29.6583828,9.89583911 C29.6577454,9.88480697 29.6558821,9.87402108 29.6530871,9.86357994 C29.6639237,9.87229731 29.6750544,9.88066991 29.6854986,9.88997829 C29.8010229,9.99286288 29.8814388,10.1249038 29.9200776,10.2714738 C29.9077701,10.2692575 29.8952173,10.2680262 29.8824194,10.2688635 C29.7946485,10.2741825 29.7275699,10.3502255 29.7328165,10.4384334 C29.7379161,10.5233415 29.808329,10.5890419 29.891883,10.5890419 C29.8950702,10.5890419 29.8983065,10.5889434 29.9014937,10.5887464 C29.9142916,10.5879584 29.9266482,10.5852496 29.9386125,10.5815558 C29.917724,10.7317703 29.8535384,10.8725778 29.7510572,10.9886124 Z M29.5819899,11.0753546 C29.5635099,11.0766505 29.5456438,11.0702944 29.5317071,11.057829 C29.5178317,11.0454871 29.5096047,11.0283934 29.508561,11.0096954 C29.506228,10.9712502 29.5354522,10.9379886 29.5737015,10.9357053 C29.5751136,10.9355819 29.5765257,10.9355202 29.5778764,10.9355202 C29.6144067,10.9355202 29.6451658,10.9642152 29.6474374,11.0013028 C29.6497091,11.0398098 29.6203621,11.0730096 29.5819899,11.0753546 Z M28.7878576,11.0530631 C28.7867525,11.0344167 28.7928922,11.0164496 28.8051716,11.002434 C28.8175124,10.9884801 28.8345193,10.9802066 28.8529998,10.9790952 C28.854412,10.9789717 28.8558241,10.97891 28.8572362,10.97891 C28.8742432,10.97891 28.8905134,10.985146 28.9034068,10.9966302 C28.9173439,11.0090405 28.9256325,11.0261432 28.9267376,11.0447278 L28.9267376,11.0447895 C28.9290093,11.0832553 28.8996616,11.1164729 28.8612884,11.1187574 C28.8428079,11.1199922 28.8249414,11.1136945 28.8110657,11.1012842 C28.79719,11.0889356 28.7889628,11.0718329 28.7878576,11.0530631 Z M28.4004968,10.5567084 C28.3998053,10.5489905 28.3984224,10.5414578 28.3979823,10.5336782 C28.3974794,10.5258985 28.3979823,10.5182423 28.397668,10.5105244 C28.4005597,10.5005838 28.4050857,10.4911988 28.412252,10.4832956 C28.4248244,10.4692799 28.4422372,10.4610063 28.4612215,10.4598949 C28.4627302,10.4597715 28.464176,10.4597097 28.4656219,10.4597097 C28.4830347,10.4597097 28.4996302,10.465884 28.5128313,10.4773683 C28.5270381,10.4897787 28.5355245,10.5069433 28.536656,10.5255281 L28.536656,10.5255898 C28.5378504,10.5442363 28.5315013,10.5621418 28.518866,10.5760958 C28.5062308,10.5901115 28.488818,10.5983851 28.4697708,10.5995582 C28.4507864,10.6007931 28.4324936,10.5944336 28.4182868,10.5820849 C28.4101776,10.5750462 28.4045828,10.5662169 28.4004968,10.5567084 Z M28.792563,9.89303183 C28.809561,9.89303183 28.8257612,9.899211 28.8385864,9.91064248 C28.8525161,9.92306263 28.8608003,9.94017895 28.8619049,9.95877827 C28.8641754,9.99733633 28.8348431,10.0306421 28.7965517,10.0329284 C28.7780196,10.0339171 28.7601625,10.0277997 28.7462328,10.0153795 C28.7323644,10.0029594 28.7241415,9.98584306 28.723037,9.96718195 C28.721871,9.94845904 28.7280689,9.93053943 28.7403418,9.91657449 C28.752676,9.90254776 28.769674,9.89426766 28.7882675,9.89315541 C28.7896788,9.89303183 28.7910902,9.89303183 28.792563,9.89303183 Z M29.5826149,9.91543304 C29.58372,9.93408928 29.577519,9.95206599 29.5651784,9.96608905 C29.5528378,9.98005034 29.5358312,9.98839005 29.5172896,9.98950201 C29.4986866,9.99067575 29.4808818,9.98443641 29.4670063,9.97201951 C29.4531308,9.95960261 29.4448424,9.94249076 29.4437372,9.92377275 C29.4426321,9.90511652 29.4487717,9.88713981 29.4611123,9.87317852 C29.4734529,9.85915546 29.4903982,9.85087752 29.5089397,9.84976556 C29.5103518,9.84970379 29.511764,9.84964201 29.5131761,9.84964201 C29.5301827,9.84964201 29.5464527,9.85581957 29.5593458,9.86730984 C29.5732213,9.87966496 29.5815098,9.89677681 29.5826149,9.91543304 Z M29.9727889,10.4161443 C29.9734176,10.4238016 29.9748636,10.4312736 29.9753666,10.4389927 L29.9753666,10.4390544 C29.9758067,10.4467117 29.9753037,10.4543073 29.9755552,10.4620263 C29.9727261,10.4719685 29.9681995,10.4814166 29.9609695,10.4893826 C29.9483328,10.5034004 29.9309181,10.511737 29.9119316,10.5128486 C29.8729527,10.5151952 29.8390033,10.4856775 29.8365514,10.4472057 C29.8342253,10.4086722 29.8642139,10.3753877 29.9033185,10.3731028 C29.9048274,10.3730411 29.9062734,10.3729793 29.9077193,10.3729793 C29.9251341,10.3729793 29.9417316,10.3791546 29.9549341,10.3906405 C29.9631071,10.3977421 29.9687024,10.4065726 29.9727889,10.4161443 Z M30.25601,10.406913 C30.2386519,10.1159402 30.1095452,9.84910025 29.8924224,9.65569298 C29.6752505,9.46218721 29.3961486,9.36526194 29.1063573,9.38274592 C28.816566,9.4001314 28.5508995,9.52985759 28.3583427,9.74798868 C28.1657369,9.96607053 28.0692379,10.2464544 28.0866449,10.5374272 C28.103954,10.8284493 28.2330607,11.0952893 28.4502325,11.2886965 C28.6506838,11.4673286 28.9040918,11.5636629 29.1699055,11.5636629 C29.1919218,11.5636629 29.2141342,11.5630226 29.2363466,11.5616436 C29.5260889,11.5442089 29.7917555,11.4145319 29.9843122,11.1964008 C30.176918,10.978319 30.2734171,10.6979351 30.25601,10.406913 Z" id="Fill-1"></path>
        </g>
    </g>
</svg>