<?xml version="1.0" encoding="UTF-8"?>
<svg width="44px" height="53px" viewBox="0 0 44 53" version="1.1" xmlns="http://www.w3.org/2000/svg" xmlns:xlink="http://www.w3.org/1999/xlink">
    <!-- Generator: Sketch 49.2 (51160) - http://www.bohemiancoding.com/sketch -->
    <title>location-pin-unselected</title>
    <desc>Created with Sketch.</desc>
    <defs>
        <linearGradient x1="50%" y1="0%" x2="50%" y2="100%" id="linearGradient-1">
            <stop stop-color="#19A4EA" offset="0%"></stop>
            <stop stop-color="#0082C3" offset="100%"></stop>
        </linearGradient>
        <path d="M7.52,2.74985211e-16 C3.36,2.74985211e-16 0,3.37272727 0,7.54848485 L0,32.2015152 C0,36.3772727 3.36,39.75 7.52,39.75 L13.04,39.75 C13.36,39.75 15.2,39.9106061 15.36,40.1515152 L21.76,52.8393939 L28.16,40.1515152 C28.32,39.9106061 30.16,39.75 30.48,39.75 L36.08,39.75 C40.24,39.75 43.6,36.3772727 43.6,32.2015152 L43.6,7.54848485 C43.6,3.37272727 40.24,0 36.08,0 C31.5534722,4.35829201e-17 28.1585764,7.62701102e-17 25.8953125,9.80615702e-17 C21.8119097,1.37377935e-16 15.6868056,1.96352482e-16 7.52,2.74985211e-16 Z" id="path-2"></path>
        <filter x="-18.3%" y="-13.2%" width="136.7%" height="130.3%" filterUnits="objectBoundingBox" id="filter-3">
            <feOffset dx="0" dy="1" in="SourceAlpha" result="shadowOffsetOuter1"></feOffset>
            <feGaussianBlur stdDeviation="2.5" in="shadowOffsetOuter1" result="shadowBlurOuter1"></feGaussianBlur>
            <feComposite in="shadowBlurOuter1" in2="SourceAlpha" operator="out" result="shadowBlurOuter1"></feComposite>
            <feColorMatrix values="0 0 0 0 0   0 0 0 0 0   0 0 0 0 0  0 0 0 0.271993886 0" type="matrix" in="shadowBlurOuter1"></feColorMatrix>
        </filter>
    </defs>
    <g id="location-pin-unselected" stroke="none" stroke-width="1" fill="none" fill-rule="evenodd">
        <g id="location-pin">
            <g id="Path">
                <use fill="black" fill-opacity="1" filter="url(#filter-3)" xlink:href="#path-2"></use>
                <use fill="url(#linearGradient-1)" fill-rule="evenodd" xlink:href="#path-2"></use>
                <path stroke="#FFFFFF" stroke-width="1.6" d="M21.7603516,51.0637612 L27.493587,39.7089163 C27.8561269,39.1630466 29.4327868,38.95 30.48,38.95 L36.08,38.95 C39.7974937,38.95 42.8,35.9361206 42.8,32.2015152 L42.8,7.54848485 C42.8,3.81387942 39.7974937,0.8 36.08,0.8 C29.8560243,0.8 29.8560243,0.8 25.8953125,0.8 C18.7493576,0.8 18.7493576,0.8 7.52,0.8 C3.80250629,0.8 0.8,3.81387942 0.8,7.54848485 L0.8,32.2015152 C0.8,35.9361206 3.80250629,38.95 7.52,38.95 L13.04,38.95 C14.0872132,38.95 15.6638731,39.1630466 16.0742749,39.7912217 L21.7603516,51.0637612 Z M28.6049411,40.8017139 C28.6026515,40.8025804 28.6005695,40.8034023 28.5987008,40.8041765 C28.6031444,40.8023356 28.6075985,40.8004198 28.6120829,40.798383 Z"></path>
            </g>
        </g>
        <g id="randonnee" transform="translate(6.000000, 6.000000)" fill="#FFFFFF">
            <path d="M24.0319075,21.2176383 L20.7125464,8.09636018 C20.8420494,8.0038702 20.9096441,7.84063264 20.8697894,7.67918677 L20.80709,7.42442771 C21.0445863,7.25818786 21.233723,7.0595523 21.319465,6.81263794 C21.441452,6.46132127 21.3789503,6.18404501 21.3789503,6.18404501 L20.5497652,6.37798343 L20.5245964,6.27566336 C20.471836,6.06211319 20.2502123,5.92967334 20.0321488,5.98134183 L19.933501,6.00473066 C19.7154376,6.05644757 19.5801987,6.27343585 19.6329591,6.48698603 L19.6574851,6.58664277 L17.5053816,7.08991419 L17.7525696,8.45000121 C17.7525696,8.45000121 19.2346101,8.11669829 19.9681637,7.85007533 L19.9781521,7.89055786 C20.0194408,8.0575725 20.1640747,8.17451664 20.3294766,8.19301464 L23.6479477,21.3108062 L24.0319075,21.2176383 Z M17.7850567,16.3923728 L18.779347,13.2732813 C18.6637387,13.1736245 18.6099893,13.0138251 18.6561238,12.8603207 L18.70211,12.7071554 C18.1307441,12.4521542 17.5651142,12.1985089 17.0341964,11.9596814 L16.8615752,13.8955791 L17.7850567,16.3923728 Z M21.1995053,12.577282 C21.1995053,12.577282 20.5896199,13.5457635 19.6253937,13.1180337 C19.5982964,13.1060245 19.5710509,13.0938701 19.5439042,13.0818125 L19.5344597,13.1133365 C19.4887702,13.2653881 19.3573388,13.3706137 19.2069195,13.3944383 L18.0354093,17.0693898 C18.3755587,17.9890115 18.6796114,18.8111554 18.767974,19.0500798 C19.0861192,19.9101882 19.1274079,20.1569573 19.0341994,21.1225818 C18.9647256,21.8420667 18.3162711,28.4705479 18.3162711,28.4705479 C17.210724,28.3796559 17.0612442,27.2816884 17.053382,26.7332373 C17.0460143,26.2202327 16.8969796,21.3305148 16.8777939,20.7010018 L14.7947686,27.235395 C14.7650507,27.3286598 14.6771825,27.3884151 14.5823916,27.3884151 C14.5604369,27.3884151 14.5381361,27.3852191 14.5160331,27.3784881 C14.3987436,27.3426059 14.3333246,27.2203835 14.3699651,27.1055216 L16.5782904,20.1778765 L15.4699742,18.4783852 C15.4699742,18.4783852 15.2860295,19.6344131 15.1803108,20.298743 C15.0504122,21.1150277 14.9932509,21.4243122 14.4652999,21.8400329 C13.0579252,22.948121 12.3078067,23.4963784 9.18376312,25.8777776 C8.56566939,24.9738454 9.26841724,24.1284579 9.93783748,23.3758509 C10.7977789,22.4090158 12.9252576,20.1959871 12.9252576,20.1959871 C12.9252576,20.1959871 12.5835754,17.6503819 12.5412977,15.8281839 C12.2800666,15.1683575 12.1820617,14.4953112 12.2020385,14.041384 C12.2188506,13.6601412 12.2843685,12.7765955 12.5384792,12.4169983 L12.2742318,12.3170026 C12.1465584,12.4817413 11.9390767,13.0063193 11.881767,13.8201828 C11.544634,13.6958297 11.1852495,13.5640194 10.6018185,13.357636 C10.1940744,13.2133807 10.1629719,12.9981357 10.1391382,12.6412987 C10.115354,12.2844616 9.68773203,5.92628365 9.67912817,5.75563721 C9.665629,5.4879005 9.67690303,5.36364432 9.79592316,5.21222223 C10.2254736,4.66551442 11.0154468,3.59466441 11.4191857,3.60502716 C11.8334074,3.61558361 12.8971219,4.37022441 13.0940713,4.51244592 L12.9534426,6.5864975 L13.1704677,6.627319 C13.2309915,6.07814156 13.2867188,5.59172172 13.3188102,5.35691337 C13.392487,4.81771129 13.7916766,4.56348489 14.4032433,4.69432674 C14.828294,4.78526716 15.8122498,4.97886661 16.3434643,5.06530359 C16.8747282,5.15174056 17.0477944,5.78125355 17.1126696,6.29730892 C17.1587052,6.66358863 17.362775,8.27412496 17.362775,8.27412496 L17.2151248,9.93003466 L15.9172268,9.18086578 L15.6293435,7.80034381 L15.3984237,7.75598735 L15.6216791,9.40138902 C15.6216791,9.40138902 18.7689135,11.220391 19.1224137,11.4246922 C19.2235833,11.30615 19.3907653,11.2503655 19.5510741,11.2965136 L19.6467055,11.3240669 C19.8619505,11.3860982 19.9862615,11.6092848 19.9229193,11.8200748 L19.9078378,11.8702905 C20.3915827,12.1361871 21.1995053,12.577282 21.1995053,12.577282 Z M13.1650779,2.30479231 C13.0884343,1.96809971 13.1105374,1.61310281 13.2188274,1.26304517 C13.5302477,0.252047314 14.648404,-0.190742434 15.5529966,0.0763647673 C16.4571935,0.343326697 17.0840889,1.36555893 16.7770694,2.36275592 C16.6786194,2.68225798 16.3537988,3.73606271 16.1754911,4.31337454 C16.0991442,4.56212902 15.9075846,4.61006885 15.4950441,4.533123 C15.0162934,4.44378058 14.6389595,4.37133816 14.6389595,4.37133816 C14.6389595,4.37133816 13.2803401,2.81179238 13.1650779,2.30479231 Z" id="Page-1"></path>
        </g>
    </g>
</svg>