<?xml version="1.0" encoding="UTF-8"?>
<svg width="44px" height="53px" viewBox="0 0 44 53" version="1.1" xmlns="http://www.w3.org/2000/svg" xmlns:xlink="http://www.w3.org/1999/xlink">
    <!-- Generator: Sketch 49.2 (51160) - http://www.bohemiancoding.com/sketch -->
    <title>location-pin-unselected</title>
    <desc>Created with Sketch.</desc>
    <defs>
        <linearGradient x1="50%" y1="0%" x2="50%" y2="100%" id="linearGradient-1">
            <stop stop-color="#19A4EA" offset="0%"></stop>
            <stop stop-color="#0082C3" offset="100%"></stop>
        </linearGradient>
        <path d="M7.52,2.74985211e-16 C3.36,2.74985211e-16 0,3.37272727 0,7.54848485 L0,32.2015152 C0,36.3772727 3.36,39.75 7.52,39.75 L13.04,39.75 C13.36,39.75 15.2,39.9106061 15.36,40.1515152 L21.76,52.8393939 L28.16,40.1515152 C28.32,39.9106061 30.16,39.75 30.48,39.75 L36.08,39.75 C40.24,39.75 43.6,36.3772727 43.6,32.2015152 L43.6,7.54848485 C43.6,3.37272727 40.24,0 36.08,0 C31.5534722,4.35829201e-17 28.1585764,7.62701102e-17 25.8953125,9.80615702e-17 C21.8119097,1.37377935e-16 15.6868056,1.96352482e-16 7.52,2.74985211e-16 Z" id="path-2"></path>
        <filter x="-18.3%" y="-13.2%" width="136.7%" height="130.3%" filterUnits="objectBoundingBox" id="filter-3">
            <feOffset dx="0" dy="1" in="SourceAlpha" result="shadowOffsetOuter1"></feOffset>
            <feGaussianBlur stdDeviation="2.5" in="shadowOffsetOuter1" result="shadowBlurOuter1"></feGaussianBlur>
            <feComposite in="shadowBlurOuter1" in2="SourceAlpha" operator="out" result="shadowBlurOuter1"></feComposite>
            <feColorMatrix values="0 0 0 0 0   0 0 0 0 0   0 0 0 0 0  0 0 0 0.271993886 0" type="matrix" in="shadowBlurOuter1"></feColorMatrix>
        </filter>
    </defs>
    <g id="location-pin-unselected" stroke="none" stroke-width="1" fill="none" fill-rule="evenodd">
        <g id="location-pin">
            <g id="Path">
                <use fill="black" fill-opacity="1" filter="url(#filter-3)" xlink:href="#path-2"></use>
                <use fill="url(#linearGradient-1)" fill-rule="evenodd" xlink:href="#path-2"></use>
                <path stroke="#FFFFFF" stroke-width="1.6" d="M21.7603516,51.0637612 L27.493587,39.7089163 C27.8561269,39.1630466 29.4327868,38.95 30.48,38.95 L36.08,38.95 C39.7974937,38.95 42.8,35.9361206 42.8,32.2015152 L42.8,7.54848485 C42.8,3.81387942 39.7974937,0.8 36.08,0.8 C29.8560243,0.8 29.8560243,0.8 25.8953125,0.8 C18.7493576,0.8 18.7493576,0.8 7.52,0.8 C3.80250629,0.8 0.8,3.81387942 0.8,7.54848485 L0.8,32.2015152 C0.8,35.9361206 3.80250629,38.95 7.52,38.95 L13.04,38.95 C14.0872132,38.95 15.6638731,39.1630466 16.0742749,39.7912217 L21.7603516,51.0637612 Z M28.6049411,40.8017139 C28.6026515,40.8025804 28.6005695,40.8034023 28.5987008,40.8041765 C28.6031444,40.8023356 28.6075985,40.8004198 28.6120829,40.798383 Z"></path>
            </g>
        </g>
        <g id="camping" transform="translate(10.000000, 10.000000)" fill="#FFFFFF">
            <g id="Page-1">
                <path d="M11.9375879,2.60642029 C12.3880629,1.92648456 12.7259192,1.24654883 13.1763942,0.679935727 C13.289013,0.453290485 13.4016317,0.339967864 13.5131243,0.226645242 C13.5131243,0.113322621 13.6268692,0 13.739488,0.113322621 C13.8521067,0.226645242 14.189963,0.226645242 13.9647255,0.566613106 C13.6268692,1.13322621 13.289013,1.69983932 12.9500305,2.26645242 C12.7259192,2.60642029 12.6133004,2.83306553 12.3880629,3.17303339 C12.3880629,3.28635601 12.2754442,3.28635601 12.3880629,3.39967864 C13.0637755,4.41958223 13.739488,5.43948582 14.4152005,6.45938941 C15.3161505,7.81926086 16.2171006,9.17913232 17.0054318,10.5390038 C18.1316194,12.3521657 19.2578069,14.052005 20.3839945,15.865167 C21.510182,17.5650063 22.5226246,19.2648456 23.6488121,20.9646849 C23.6488121,21.0780075 23.7625571,21.1913302 23.8751758,21.1913302 L23.5373196,21.1913302 L15.541388,21.1913302 C15.3161505,21.1913302 15.2024056,21.0780075 15.2024056,20.8513623 L15.2024056,15.5251991 C15.2024056,15.2985539 15.2024056,15.1852312 14.8656755,15.1852312 L8.78426281,15.1852312 C8.5590253,15.1852312 8.5590253,15.1852312 8.5590253,15.4118765 L8.5590253,20.8513623 C8.5590253,21.0780075 8.44640655,21.1913302 8.22116904,21.1913302 L0.337856262,21.1913302 L0,21.1913302 C0.450475016,20.5113944 0.788331278,19.9447813 1.12618754,19.2648456 C2.02713757,17.7916515 2.9280876,16.4317801 3.82903763,14.958586 C5.29308144,12.578811 6.75712524,10.3123585 8.33378779,7.93258348 C9.34735658,6.34606679 10.2483066,4.87287271 11.2618754,3.28635601 C11.3744942,3.17303339 11.3744942,3.05971077 11.2618754,2.94638815 C10.6987816,2.1531298 10.2483066,1.24654883 9.68521284,0.453290485 C9.68521284,0.339967864 9.57259409,0.339967864 9.57259409,0.226645242 C9.68521284,0.113322621 9.79783159,0 9.91045035,0 C10.0230691,0 9.91045035,0.113322621 10.0230691,0.113322621 C10.5861629,0.793258348 11.0366379,1.69983932 11.5997317,2.37977504 C11.8249692,2.49309767 11.9375879,2.49309767 11.9375879,2.60642029" id="Fill-6"></path>
            </g>
        </g>
    </g>
</svg>