<?xml version="1.0" encoding="UTF-8"?>
<svg width="44px" height="53px" viewBox="0 0 44 53" version="1.1" xmlns="http://www.w3.org/2000/svg" xmlns:xlink="http://www.w3.org/1999/xlink">
    <!-- Generator: Sketch 49.2 (51160) - http://www.bohemiancoding.com/sketch -->
    <title>location-pin-unselected</title>
    <desc>Created with Sketch.</desc>
    <defs>
        <linearGradient x1="50%" y1="0%" x2="50%" y2="100%" id="linearGradient-1">
            <stop stop-color="#19A4EA" offset="0%"></stop>
            <stop stop-color="#0082C3" offset="100%"></stop>
        </linearGradient>
        <path d="M7.52,2.74985211e-16 C3.36,2.74985211e-16 0,3.37272727 0,7.54848485 L0,32.2015152 C0,36.3772727 3.36,39.75 7.52,39.75 L13.04,39.75 C13.36,39.75 15.2,39.9106061 15.36,40.1515152 L21.76,52.8393939 L28.16,40.1515152 C28.32,39.9106061 30.16,39.75 30.48,39.75 L36.08,39.75 C40.24,39.75 43.6,36.3772727 43.6,32.2015152 L43.6,7.54848485 C43.6,3.37272727 40.24,0 36.08,0 C31.5534722,4.35829201e-17 28.1585764,7.62701102e-17 25.8953125,9.80615702e-17 C21.8119097,1.37377935e-16 15.6868056,1.96352482e-16 7.52,2.74985211e-16 Z" id="path-2"></path>
        <filter x="-18.3%" y="-13.2%" width="136.7%" height="130.3%" filterUnits="objectBoundingBox" id="filter-3">
            <feOffset dx="0" dy="1" in="SourceAlpha" result="shadowOffsetOuter1"></feOffset>
            <feGaussianBlur stdDeviation="2.5" in="shadowOffsetOuter1" result="shadowBlurOuter1"></feGaussianBlur>
            <feComposite in="shadowBlurOuter1" in2="SourceAlpha" operator="out" result="shadowBlurOuter1"></feComposite>
            <feColorMatrix values="0 0 0 0 0   0 0 0 0 0   0 0 0 0 0  0 0 0 0.271993886 0" type="matrix" in="shadowBlurOuter1"></feColorMatrix>
        </filter>
    </defs>
    <g id="location-pin-unselected" stroke="none" stroke-width="1" fill="none" fill-rule="evenodd">
        <g id="location-pin">
            <g id="Path">
                <use fill="black" fill-opacity="1" filter="url(#filter-3)" xlink:href="#path-2"></use>
                <use fill="url(#linearGradient-1)" fill-rule="evenodd" xlink:href="#path-2"></use>
                <path stroke="#FFFFFF" stroke-width="1.6" d="M21.7603516,51.0637612 L27.493587,39.7089163 C27.8561269,39.1630466 29.4327868,38.95 30.48,38.95 L36.08,38.95 C39.7974937,38.95 42.8,35.9361206 42.8,32.2015152 L42.8,7.54848485 C42.8,3.81387942 39.7974937,0.8 36.08,0.8 C29.8560243,0.8 29.8560243,0.8 25.8953125,0.8 C18.7493576,0.8 18.7493576,0.8 7.52,0.8 C3.80250629,0.8 0.8,3.81387942 0.8,7.54848485 L0.8,32.2015152 C0.8,35.9361206 3.80250629,38.95 7.52,38.95 L13.04,38.95 C14.0872132,38.95 15.6638731,39.1630466 16.0742749,39.7912217 L21.7603516,51.0637612 Z M28.6049411,40.8017139 C28.6026515,40.8025804 28.6005695,40.8034023 28.5987008,40.8041765 C28.6031444,40.8023356 28.6075985,40.8004198 28.6120829,40.798383 Z"></path>
            </g>
        </g>
        <g id="patinage-sur-glace" transform="translate(6.000000, 6.000000)" fill="#FFFFFF">
            <path d="M9.1809058,25.8420048 C8.86527165,25.872122 8.64715128,25.6117168 8.59004993,25.5289934 C8.4364536,25.3064329 6.93255827,23.122833 6.93255827,23.122833 C6.6710661,22.7431475 6.79492315,22.4828909 6.81534768,22.445492 C6.81539619,22.4454424 6.81539619,22.4453929 6.81544471,22.4453434 L6.8228674,22.4337027 C6.89956854,22.3134813 6.88254001,22.1481336 6.77197588,22.0595651 C6.647003,21.959455 6.46779111,21.9918509 6.3830366,22.1248027 L6.36401898,22.1546227 C6.34941617,22.1778546 6.01180504,22.7331415 6.49597793,23.4362406 C6.49597793,23.4362406 8.00161977,25.6334131 8.16123188,25.8533978 C8.26267532,25.9931855 8.38245717,26.1083047 8.51378542,26.1956348 C8.73413745,26.3421097 8.98709111,26.4100221 9.24023881,26.3835705 C9.4184319,26.3649453 9.5376801,26.1712141 9.4509365,25.9867459 C9.40261624,25.8838618 9.29214913,25.8314043 9.1809058,25.8420048 M20.4779983,26.7035167 C20.3203268,26.9843304 19.9862087,27.0163795 19.8870939,27.0163795 C19.6204592,27.0163795 17.0059741,27.0137542 17.0059741,27.0137542 C16.551395,27.0133083 16.4143906,26.7599866 16.3961977,26.7213989 C16.3961977,26.7213493 16.3961492,26.7212998 16.3961492,26.7212503 L16.3911037,26.7083712 C16.3389993,26.5751221 16.1968524,26.4940334 16.0622251,26.5353456 C15.9100842,26.581958 15.8328494,26.7501787 15.8904359,26.8975452 L15.9033407,26.9305354 C15.9135287,26.956145 16.16362,27.557747 17.005392,27.5586882 C17.005392,27.5586882 19.6317145,27.567654 19.8998047,27.561165 C20.0701384,27.557004 20.2312545,27.5233698 20.376846,27.4640269 C20.621067,27.3644616 20.8211401,27.1924763 20.9457734,26.9659529 C21.0334872,26.8064504 20.9471318,26.5953819 20.7494844,26.5615 C20.6392599,26.5426272 20.5335957,26.6045459 20.4779983,26.7035167 M24.6156389,10.7944742 C24.4729583,10.7382025 21.5293521,9.6168797 21.5293521,9.6168797 C21.5293521,9.6168797 20.0152202,5.72893059 19.9019393,5.44970204 C19.7722605,5.13015205 19.4145159,4.93557874 19.0968442,4.89283008 C18.7968802,4.85245909 16.8078417,4.57892706 16.5111766,4.53885328 C16.214463,4.49877951 15.604444,4.38613702 15.0461413,4.70122887 C15.0461413,4.70122887 11.6995266,6.59272114 11.5480164,6.68069522 C11.373947,6.78169699 11.2489741,6.92009766 11.1693136,7.09520373 C11.1016847,7.24385813 9.22029943,11.3799774 9.22029943,11.3799774 C9.34173077,11.5746993 9.99526714,11.5790584 10.3440366,11.0803404 C10.6928545,10.5816225 12.3330751,8.18507181 12.3330751,8.18507181 L14.2375046,7.32479824 L14.4921077,11.7448023 C14.4921077,11.7448023 13.7618217,12.6003701 13.4546291,13.8990775 C13.1029973,15.3857701 12.3103219,18.7784688 12.3103219,18.7784688 C12.3103219,18.7784688 9.28181558,21.6937495 8.91485329,22.0495095 C7.88838736,23.0445677 8.29154133,24.1115011 8.49976479,24.3241052 L13.8354179,20.1281477 L16.2507518,16.0897114 L17.2399587,20.1077888 C17.2399587,20.1077888 17.468073,24.1811473 17.5433187,25.1069061 C17.6185159,26.0324667 18.5419374,26.5731407 19.0020957,26.5180579 C19.0034056,26.5179093 19.1480753,17.5892336 19.1480753,17.1435676 C19.1480753,16.6979016 19.1451159,14.7910535 19.1451159,13.8868424 C19.1451159,12.990012 18.8183235,11.8599215 18.8183235,11.8599215 L19.4162625,8.73679215 C19.4162625,8.73679215 20.1047291,10.3783806 20.1360694,10.4536242 C20.2590532,10.7491497 20.3401206,10.8301889 20.7359489,10.9157358 C21.0434812,10.9822612 24.9965733,11.8368383 25.1038385,11.8600206 C25.1051969,11.8603178 25.1062157,11.8595253 25.1064097,11.8581383 C25.1335778,11.6761469 25.0841902,10.979091 24.6156389,10.7944742 M15.9917823,2.20164549 C15.9259484,1.87436804 15.9521946,1.53104126 16.0582469,1.19390635 C16.3637901,0.219950061 17.3606623,-0.190248904 18.1965155,0.0828373047 C19.0317865,0.355873979 19.597803,1.35553891 19.2965776,2.31621984 C19.2000341,2.62403005 18.8940058,3.59045703 18.7191602,4.14658597 C18.6449333,4.38390794 18.3723314,4.34254626 18.0529616,4.29855922 C17.698516,4.25001496 17.2271024,4.15857343 17.2271024,4.15857343 C17.2271024,4.15857343 16.0897813,2.68996108 15.9917823,2.20164549" id="Fill-1"></path>
        </g>
    </g>
</svg>