<?xml version="1.0" encoding="UTF-8"?>
<svg width="44px" height="53px" viewBox="0 0 44 53" version="1.1" xmlns="http://www.w3.org/2000/svg" xmlns:xlink="http://www.w3.org/1999/xlink">
    <!-- Generator: Sketch 49.2 (51160) - http://www.bohemiancoding.com/sketch -->
    <title>location-pin-unselected</title>
    <desc>Created with Sketch.</desc>
    <defs>
        <linearGradient x1="50%" y1="0%" x2="50%" y2="100%" id="linearGradient-1">
            <stop stop-color="#19A4EA" offset="0%"></stop>
            <stop stop-color="#0082C3" offset="100%"></stop>
        </linearGradient>
        <path d="M7.52,2.74985211e-16 C3.36,2.74985211e-16 0,3.37272727 0,7.54848485 L0,32.2015152 C0,36.3772727 3.36,39.75 7.52,39.75 L13.04,39.75 C13.36,39.75 15.2,39.9106061 15.36,40.1515152 L21.76,52.8393939 L28.16,40.1515152 C28.32,39.9106061 30.16,39.75 30.48,39.75 L36.08,39.75 C40.24,39.75 43.6,36.3772727 43.6,32.2015152 L43.6,7.54848485 C43.6,3.37272727 40.24,0 36.08,0 C31.5534722,4.35829201e-17 28.1585764,7.62701102e-17 25.8953125,9.80615702e-17 C21.8119097,1.37377935e-16 15.6868056,1.96352482e-16 7.52,2.74985211e-16 Z" id="path-2"></path>
        <filter x="-18.3%" y="-13.2%" width="136.7%" height="130.3%" filterUnits="objectBoundingBox" id="filter-3">
            <feOffset dx="0" dy="1" in="SourceAlpha" result="shadowOffsetOuter1"></feOffset>
            <feGaussianBlur stdDeviation="2.5" in="shadowOffsetOuter1" result="shadowBlurOuter1"></feGaussianBlur>
            <feComposite in="shadowBlurOuter1" in2="SourceAlpha" operator="out" result="shadowBlurOuter1"></feComposite>
            <feColorMatrix values="0 0 0 0 0   0 0 0 0 0   0 0 0 0 0  0 0 0 0.271993886 0" type="matrix" in="shadowBlurOuter1"></feColorMatrix>
        </filter>
    </defs>
    <g id="location-pin-unselected" stroke="none" stroke-width="1" fill="none" fill-rule="evenodd">
        <g id="location-pin">
            <g id="Path">
                <use fill="black" fill-opacity="1" filter="url(#filter-3)" xlink:href="#path-2"></use>
                <use fill="url(#linearGradient-1)" fill-rule="evenodd" xlink:href="#path-2"></use>
                <path stroke="#FFFFFF" stroke-width="1.6" d="M21.7603516,51.0637612 L27.493587,39.7089163 C27.8561269,39.1630466 29.4327868,38.95 30.48,38.95 L36.08,38.95 C39.7974937,38.95 42.8,35.9361206 42.8,32.2015152 L42.8,7.54848485 C42.8,3.81387942 39.7974937,0.8 36.08,0.8 C29.8560243,0.8 29.8560243,0.8 25.8953125,0.8 C18.7493576,0.8 18.7493576,0.8 7.52,0.8 C3.80250629,0.8 0.8,3.81387942 0.8,7.54848485 L0.8,32.2015152 C0.8,35.9361206 3.80250629,38.95 7.52,38.95 L13.04,38.95 C14.0872132,38.95 15.6638731,39.1630466 16.0742749,39.7912217 L21.7603516,51.0637612 Z M28.6049411,40.8017139 C28.6026515,40.8025804 28.6005695,40.8034023 28.5987008,40.8041765 C28.6031444,40.8023356 28.6075985,40.8004198 28.6120829,40.798383 Z"></path>
            </g>
        </g>
        <g id="patinage-artistique" transform="translate(6.000000, 7.000000)" fill="#FFFFFF">
            <path d="M2.5498648,19.6841933 C2.50112045,19.8124671 2.35479491,19.8779772 2.22303719,19.8305218 C1.99554815,19.7485328 1.80704535,19.5895976 1.67875614,19.3799653 C1.60230984,19.2550233 1.54722965,19.1120717 1.5179553,18.9566034 C1.47189327,18.7118072 1.08781187,16.3032413 1.08781187,16.3032413 C0.962898699,15.5315277 1.48026398,15.2166289 1.50237005,15.203617 L1.53085821,15.1870931 C1.6515629,15.1170806 1.8076928,15.1556212 1.87956065,15.2730892 C1.95147475,15.3906022 1.91188731,15.5426036 1.79122887,15.6125711 L1.76889156,15.6255381 C1.73624118,15.6475549 1.52281123,15.8091465 1.59033186,16.226115 C1.59033186,16.226115 1.97852925,18.6228845 2.01834793,18.8673205 C2.03323946,18.9586295 2.11347802,19.2629926 2.39956202,19.3660078 C2.5312735,19.4134632 2.59870164,19.5559646 2.5498648,19.6841933 Z M16.5885605,25.1304923 C16.630969,25.2608822 16.5567425,25.4000518 16.4228112,25.4413389 C16.1915299,25.5125671 15.942536,25.4997352 15.7090811,25.4108576 C15.5699238,25.3579092 15.4363162,25.2779914 15.3151491,25.1727249 C15.1244727,25.0069911 13.3027567,23.33502 13.3027567,23.33502 C12.7175933,22.8004035 12.9275085,22.2426446 12.9367579,22.219187 L12.9488284,22.1891109 C12.9999776,22.0617376 13.1475518,21.9988839 13.2783383,22.0486356 C13.4091711,22.0984323 13.4737782,22.2420592 13.422629,22.3694325 L13.4131484,22.3930252 C13.4013091,22.4298999 13.3346672,22.6850066 13.6509042,22.9738364 C13.6509042,22.9738364 15.4684117,24.6340562 15.6539547,24.8032119 C15.7232789,24.8664258 15.9785162,25.0587689 16.2693174,24.9690808 C16.4032024,24.9278837 16.5462907,25.0001024 16.5885605,25.1304923 Z M27.2368879,7.90317926 L18.4018132,4.45824793 L15.3270346,3.65758381 L9.99355205,1.04015099 C9.99355205,1.04015099 9.61187549,1.87543866 10.7037674,2.5612012 C11.9284344,3.33034843 14.087106,4.62915953 14.087106,4.62915953 L18.0928831,6.41292555 L17.6905342,8.95931029 L16.8228478,9.68334334 C16.9943317,10.0290386 17.3968194,10.8014726 17.7638819,11.2152894 L17.3710598,11.1642771 C17.3710598,11.1642771 16.8390805,10.4758131 16.6043769,9.86560102 L16.6013246,9.8681674 L16.1886163,9.85060799 C15.8876408,9.78978039 15.5720975,9.78127083 15.247166,9.84772644 L11.0665751,10.7880104 L11.8339055,12.016944 C10.3525676,13.1181442 8.79963928,14.3169567 8.79963928,14.3169567 C8.79963928,14.3169567 6.5291424,15.0870495 3.4643069,16.1097276 C2.54926359,16.4150812 2.35174261,17.4795868 2.39613974,17.6091662 L9.24962267,16.3147225 L13.7616658,14.3879148 C14.6090497,15.1649863 16.9604326,16.22616 19.0285989,16.0923933 L18.7348379,16.3881568 C18.7348379,16.3881568 17.9583506,16.4309297 17.3460865,16.2948668 L18.0461274,17.1822474 C18.0461274,17.1822474 16.7257291,19.4445749 15.3596849,21.7654338 C14.9005909,22.5453868 14.7186089,23.252941 15.4468143,23.9007482 C15.4468143,23.9007482 19.4869067,18.694608 19.8863421,18.1919586 C20.3200003,17.6463111 20.352142,17.3026419 20.2402242,16.7986868 C20.1640554,16.455693 19.3723991,12.8905022 19.3723991,12.8905022 C19.3723991,12.8905022 22.365598,10.7265074 22.8694592,8.15860115 L23.0119,7.12813387 L23.2426725,7.20345924 L23.2509507,8.28120186 C24.9439612,8.8074439 26.9987621,9.08627834 26.9987621,9.08627834 C26.9987621,9.08627834 29.6286445,8.87425971 30.0437114,8.83432331 C30.5015567,8.79028971 31.2466423,8.66296146 31.2977452,7.88453927 L27.2368879,7.90317926 Z M18.9091428,3.03539535 C18.9091428,2.51941881 19.3387776,2.10114463 19.8687683,2.10114463 C19.9320804,2.10114463 19.9938664,2.10749303 20.0538026,2.11888414 C20.3179192,1.7956559 20.6970984,1.56531245 21.1081419,1.48737568 C21.9705098,1.32384803 22.9398009,1.89520425 23.1288124,2.84102617 C23.1894885,3.1440836 23.3626835,3.99305861 23.4719652,4.54077716 C23.5237618,4.79962089 23.3957039,5.0466683 23.0563433,5.13523076 C22.6216677,5.24869157 22.2013286,5.35823528 22.2013286,5.35823528 C22.2013286,5.35823528 20.4496769,4.68602501 20.1300639,4.31970868 C20.0369686,4.21295646 19.9588112,4.09485817 19.8938342,3.96843041 C19.8854172,3.96865553 19.8772315,3.96964606 19.8687683,3.96964606 C19.3387776,3.96964606 18.9091428,3.55137189 18.9091428,3.03539535 Z" id="Fill-1"></path>
        </g>
    </g>
</svg>