<?xml version="1.0" encoding="UTF-8"?>
<svg width="44px" height="53px" viewBox="0 0 44 53" version="1.1" xmlns="http://www.w3.org/2000/svg" xmlns:xlink="http://www.w3.org/1999/xlink">
    <!-- Generator: Sketch 49.2 (51160) - http://www.bohemiancoding.com/sketch -->
    <title>location-pin-unselected</title>
    <desc>Created with Sketch.</desc>
    <defs>
        <linearGradient x1="50%" y1="0%" x2="50%" y2="100%" id="linearGradient-1">
            <stop stop-color="#19A4EA" offset="0%"></stop>
            <stop stop-color="#0082C3" offset="100%"></stop>
        </linearGradient>
        <path d="M7.52,2.74985211e-16 C3.36,2.74985211e-16 0,3.37272727 0,7.54848485 L0,32.2015152 C0,36.3772727 3.36,39.75 7.52,39.75 L13.04,39.75 C13.36,39.75 15.2,39.9106061 15.36,40.1515152 L21.76,52.8393939 L28.16,40.1515152 C28.32,39.9106061 30.16,39.75 30.48,39.75 L36.08,39.75 C40.24,39.75 43.6,36.3772727 43.6,32.2015152 L43.6,7.54848485 C43.6,3.37272727 40.24,0 36.08,0 C31.5534722,4.35829201e-17 28.1585764,7.62701102e-17 25.8953125,9.80615702e-17 C21.8119097,1.37377935e-16 15.6868056,1.96352482e-16 7.52,2.74985211e-16 Z" id="path-2"></path>
        <filter x="-18.3%" y="-13.2%" width="136.7%" height="130.3%" filterUnits="objectBoundingBox" id="filter-3">
            <feOffset dx="0" dy="1" in="SourceAlpha" result="shadowOffsetOuter1"></feOffset>
            <feGaussianBlur stdDeviation="2.5" in="shadowOffsetOuter1" result="shadowBlurOuter1"></feGaussianBlur>
            <feComposite in="shadowBlurOuter1" in2="SourceAlpha" operator="out" result="shadowBlurOuter1"></feComposite>
            <feColorMatrix values="0 0 0 0 0   0 0 0 0 0   0 0 0 0 0  0 0 0 0.271993886 0" type="matrix" in="shadowBlurOuter1"></feColorMatrix>
        </filter>
    </defs>
    <g id="location-pin-unselected" stroke="none" stroke-width="1" fill="none" fill-rule="evenodd">
        <g id="location-pin">
            <g id="Path">
                <use fill="black" fill-opacity="1" filter="url(#filter-3)" xlink:href="#path-2"></use>
                <use fill="url(#linearGradient-1)" fill-rule="evenodd" xlink:href="#path-2"></use>
                <path stroke="#FFFFFF" stroke-width="1.6" d="M21.7603516,51.0637612 L27.493587,39.7089163 C27.8561269,39.1630466 29.4327868,38.95 30.48,38.95 L36.08,38.95 C39.7974937,38.95 42.8,35.9361206 42.8,32.2015152 L42.8,7.54848485 C42.8,3.81387942 39.7974937,0.8 36.08,0.8 C29.8560243,0.8 29.8560243,0.8 25.8953125,0.8 C18.7493576,0.8 18.7493576,0.8 7.52,0.8 C3.80250629,0.8 0.8,3.81387942 0.8,7.54848485 L0.8,32.2015152 C0.8,35.9361206 3.80250629,38.95 7.52,38.95 L13.04,38.95 C14.0872132,38.95 15.6638731,39.1630466 16.0742749,39.7912217 L21.7603516,51.0637612 Z M28.6049411,40.8017139 C28.6026515,40.8025804 28.6005695,40.8034023 28.5987008,40.8041765 C28.6031444,40.8023356 28.6075985,40.8004198 28.6120829,40.798383 Z"></path>
            </g>
        </g>
        <g id="trottinette-ville" transform="translate(4.000000, 6.000000)" fill="#FFFFFF">
            <path d="M25.5352444,26.9381522 C25.5352444,27.7503179 24.8707029,28.4087758 24.0509732,28.4087758 C23.2311947,28.4087758 22.5666044,27.7503179 22.5666044,26.9381522 C22.5666044,26.1259865 23.2311947,25.4675287 24.0509732,25.4675287 C24.8707029,25.4675287 25.5352444,26.1259865 25.5352444,26.9381522 Z M24.0509732,26.0479234 C23.5554839,26.0479234 23.1524046,26.4472834 23.1524046,26.9381522 C23.1524046,27.4290211 23.5554839,27.828381 24.0509732,27.828381 C24.5463649,27.828381 24.9494443,27.4290211 24.9494443,26.9381522 C24.9494443,26.4472834 24.5463649,26.0479234 24.0509732,26.0479234 Z M13.1348311,26.9358306 C13.1348311,27.7479964 12.4702896,28.4064058 11.650511,28.4064058 C10.8307813,28.4064058 10.1662398,27.7479964 10.1662398,26.9358306 C10.1662398,26.1236166 10.8307813,25.4652071 11.650511,25.4652071 C12.4702896,25.4652071 13.1348311,26.1236166 13.1348311,26.9358306 Z M11.650511,26.0456018 C11.1550705,26.0456018 10.75204,26.4449618 10.75204,26.9358306 C10.75204,27.4266995 11.1550705,27.8260111 11.650511,27.8260111 C12.1460004,27.8260111 12.5489821,27.4266995 12.5489821,26.9358306 C12.5489821,26.4449618 12.1460004,26.0456018 11.650511,26.0456018 Z M21.9599595,26.8630395 L21.9599595,27.229462 L14.1819489,27.229462 L13.8260264,27.229462 C13.8338371,27.1552682 13.8379865,27.0800104 13.8379865,27.0037368 C13.8379865,25.8177485 12.8675597,24.8562763 11.6704771,24.8562763 C10.4734432,24.8562763 9.50301642,25.8177485 9.50301642,27.0037368 C9.50301642,27.0800104 9.50716584,27.1552682 9.5149765,27.229462 L8.8919292,27.229462 C8.8857783,27.1549297 8.88182415,27.0798169 8.88182415,27.0037368 C8.88182415,25.4887614 10.1214261,24.2606462 11.650511,24.2606462 C13.0619966,24.2606462 14.2259815,25.3073881 14.3967911,26.6600464 L18.875624,26.6600464 L18.875624,25.6064365 L18.8758192,25.6064365 C18.872939,25.5637291 18.871084,25.5198126 18.871084,25.4736228 C18.8711328,24.548135 18.871084,19.0988571 18.871084,19.0988571 L18.6869963,17.3175773 L18.0569682,19.1305854 C18.0569682,19.1305854 12.9086634,21.0237363 10.5689775,21.8196993 C10.3508645,20.7617848 11.4805802,20.1973509 11.4805802,20.1973509 L16.1276841,17.6195276 C16.1276841,17.6195276 16.1297344,16.8153423 16.1427685,15.8688152 L17.554254,16.3401441 L17.6396832,16.0762096 L15.8418625,15.3580679 L13.0020985,14.0770399 L14.7433407,10.4817847 L15.374638,10.7627441 L17.9774458,5.04382446 C18.0185007,4.90361077 18.0554061,4.77374744 18.0861118,4.65960314 C18.3416183,3.71051263 19.408995,3.45489711 19.7466112,3.64734634 C20.0841785,3.83969883 21.8406515,4.9114461 21.8406515,4.9114461 C21.8406515,4.9114461 22.1918387,6.64474664 22.0373339,7.35326353 C21.9255926,7.86551026 21.5705977,9.49946657 21.5705977,9.49946657 L24.3763852,12.2108774 L24.3763852,24.8223715 L24.0995458,24.8223715 L24.0995458,24.8284173 C22.9481556,24.8284173 22.0064818,25.7333978 21.9599595,26.8630395 Z M21.4740383,4.16186628 C21.5963729,4.24974772 22.0019419,4.41549878 22.1471715,4.15896431 C22.4196662,3.67752686 22.9835477,2.81148117 23.144838,2.55098066 C23.6480403,1.73808945 23.339226,0.690283471 22.6109788,0.247877576 C21.8819993,-0.19491525 20.7993917,-0.057651892 20.2894039,0.766170084 C20.1124922,1.0514341 20.0099772,1.36059104 19.9977242,1.67603558 C19.9793203,2.15176581 20.6999521,3.60899192 20.6999521,3.60899192 C20.6999521,3.60899192 21.3516548,4.07403321 21.4740383,4.16186628 Z M23.8016176,12.3745487 C23.682212,12.3816585 23.5783301,12.3745003 23.5060814,12.365746 C23.2259713,12.3283106 22.8550622,12.1360064 22.4473453,11.8858563 C22.1882263,11.7268765 21.7343288,11.4478034 21.2407433,11.1443053 L21.1177741,11.7575407 L20.7550174,19.2887913 L20.155158,25.8088975 L20.0828605,26.6600464 L21.3878768,26.6600464 C21.5241242,25.4030565 22.533702,24.4016337 23.8016176,24.2644671 L23.8016176,12.3745487 Z M15.9134766,11.0011412 L17.0114613,11.4868349 L17.388619,10.6688652 L17.2255713,8.09181584 L15.9134766,11.0011412 Z" id="Fill-1"></path>
        </g>
    </g>
</svg>