<?xml version="1.0" encoding="UTF-8"?>
<svg width="44px" height="53px" viewBox="0 0 44 53" version="1.1" xmlns="http://www.w3.org/2000/svg" xmlns:xlink="http://www.w3.org/1999/xlink">
    <!-- Generator: Sketch 49.2 (51160) - http://www.bohemiancoding.com/sketch -->
    <title>location-pin-unselected</title>
    <desc>Created with Sketch.</desc>
    <defs>
        <linearGradient x1="50%" y1="0%" x2="50%" y2="100%" id="linearGradient-1">
            <stop stop-color="#19A4EA" offset="0%"></stop>
            <stop stop-color="#0082C3" offset="100%"></stop>
        </linearGradient>
        <path d="M7.52,2.74985211e-16 C3.36,2.74985211e-16 0,3.37272727 0,7.54848485 L0,32.2015152 C0,36.3772727 3.36,39.75 7.52,39.75 L13.04,39.75 C13.36,39.75 15.2,39.9106061 15.36,40.1515152 L21.76,52.8393939 L28.16,40.1515152 C28.32,39.9106061 30.16,39.75 30.48,39.75 L36.08,39.75 C40.24,39.75 43.6,36.3772727 43.6,32.2015152 L43.6,7.54848485 C43.6,3.37272727 40.24,0 36.08,0 C31.5534722,4.35829201e-17 28.1585764,7.62701102e-17 25.8953125,9.80615702e-17 C21.8119097,1.37377935e-16 15.6868056,1.96352482e-16 7.52,2.74985211e-16 Z" id="path-2"></path>
        <filter x="-18.3%" y="-13.2%" width="136.7%" height="130.3%" filterUnits="objectBoundingBox" id="filter-3">
            <feOffset dx="0" dy="1" in="SourceAlpha" result="shadowOffsetOuter1"></feOffset>
            <feGaussianBlur stdDeviation="2.5" in="shadowOffsetOuter1" result="shadowBlurOuter1"></feGaussianBlur>
            <feComposite in="shadowBlurOuter1" in2="SourceAlpha" operator="out" result="shadowBlurOuter1"></feComposite>
            <feColorMatrix values="0 0 0 0 0   0 0 0 0 0   0 0 0 0 0  0 0 0 0.271993886 0" type="matrix" in="shadowBlurOuter1"></feColorMatrix>
        </filter>
    </defs>
    <g id="location-pin-unselected" stroke="none" stroke-width="1" fill="none" fill-rule="evenodd">
        <g id="location-pin">
            <g id="Path">
                <use fill="black" fill-opacity="1" filter="url(#filter-3)" xlink:href="#path-2"></use>
                <use fill="url(#linearGradient-1)" fill-rule="evenodd" xlink:href="#path-2"></use>
                <path stroke="#FFFFFF" stroke-width="1.6" d="M21.7603516,51.0637612 L27.493587,39.7089163 C27.8561269,39.1630466 29.4327868,38.95 30.48,38.95 L36.08,38.95 C39.7974937,38.95 42.8,35.9361206 42.8,32.2015152 L42.8,7.54848485 C42.8,3.81387942 39.7974937,0.8 36.08,0.8 C29.8560243,0.8 29.8560243,0.8 25.8953125,0.8 C18.7493576,0.8 18.7493576,0.8 7.52,0.8 C3.80250629,0.8 0.8,3.81387942 0.8,7.54848485 L0.8,32.2015152 C0.8,35.9361206 3.80250629,38.95 7.52,38.95 L13.04,38.95 C14.0872132,38.95 15.6638731,39.1630466 16.0742749,39.7912217 L21.7603516,51.0637612 Z M28.6049411,40.8017139 C28.6026515,40.8025804 28.6005695,40.8034023 28.5987008,40.8041765 C28.6031444,40.8023356 28.6075985,40.8004198 28.6120829,40.798383 Z"></path>
            </g>
        </g>
        <g id="roller" transform="translate(5.000000, 5.000000)" fill="#FFFFFF">
            <path d="M16.6335779,3.15376358 C17.0177127,3.75954193 17.7089292,4.61507481 17.7089292,4.61507481 C17.7089292,4.61507481 18.2404405,4.69423347 18.6385475,4.74454296 C18.9666391,4.78599667 19.2608273,4.74247842 19.3192848,4.48528069 C19.4576206,3.88227316 19.7089674,2.78328801 19.7852498,2.44959379 C19.8166874,2.31192183 19.8322008,2.17479317 19.8341014,2.03983771 L20.418317,1.98116142 C20.3341238,1.27671998 19.7923901,0.180940288 18.5330363,0.0240355463 C17.2736826,-0.132923525 16.1359185,0.499856782 15.9794496,1.32545389 C15.8511821,2.00207843 16.0863991,2.70923636 16.3474546,3.15686038 L16.6335779,3.15376358 Z M8.10787249,22.8340081 C8.11557779,22.4566869 7.83258792,22.1443444 7.47593542,22.1363579 C7.11918018,22.1282084 6.82386183,22.4275661 6.8162079,22.8047786 C6.81122515,23.0539355 6.93343115,23.2741889 7.11953976,23.3977894 C6.9286025,23.5127515 6.79761246,23.7273002 6.79257833,23.9765115 C6.7875442,24.2257227 6.90975021,24.4459761 7.09585881,24.5695766 C6.90492156,24.684593 6.77398288,24.8991418 6.76894875,25.148353 C6.76386325,25.3975099 6.88606926,25.6177633 7.0721265,25.7413638 C6.88124061,25.8563802 6.75030193,26.0708747 6.74526781,26.3200859 C6.73761388,26.6973527 7.02065511,27.0096409 7.37741036,27.0177361 C7.73401149,27.0257769 8.0293812,26.7265278 8.03688103,26.3492067 C8.04196652,26.1000498 7.91981188,25.8798507 7.73375465,25.7563045 C7.92464054,25.6411795 8.05563058,25.4266851 8.06056197,25.1775282 C8.0655961,24.9283169 7.94344146,24.7080635 7.75738423,24.5845173 C7.94827011,24.4694466 8.07926016,24.2549522 8.08424292,24.0057409 C8.08927704,23.7565297 7.96707104,23.5363306 7.78106517,23.4127845 C7.97189969,23.2977137 8.10288974,23.083165 8.10787249,22.8340081 Z M20.9697594,29.5323954 C20.7340287,29.5323954 20.5284514,29.6663186 20.4156972,29.8657093 C20.3028403,29.6663186 20.097263,29.5323954 19.8615323,29.5323954 C19.6259043,29.5323954 19.420327,29.6663186 19.3075214,29.8657093 C19.1946645,29.6663186 18.9890872,29.5323954 18.7535106,29.5323954 C18.5178312,29.5323954 18.3122025,29.6663186 18.1993456,29.8657093 C18.0865401,29.6663186 17.8809114,29.5323954 17.6452834,29.5323954 C17.2885282,29.5323954 16.9993227,29.8382727 16.9993227,30.2156481 C16.9993227,30.5929693 17.2885282,30.8989009 17.6452834,30.8989009 C17.8809114,30.8989009 18.0865401,30.7649777 18.1993456,30.5655327 C18.3122025,30.7649777 18.5178312,30.8989009 18.7535106,30.8989009 C18.9890872,30.8989009 19.1946645,30.7649777 19.3075214,30.565587 C19.420327,30.7649777 19.6259043,30.8989009 19.8615323,30.8989009 C20.097263,30.8989009 20.3028403,30.7649777 20.4156972,30.565587 C20.5284514,30.7649777 20.7340287,30.8989009 20.9697594,30.8989009 C21.3265147,30.8989009 21.6157201,30.5929693 21.6157201,30.2156481 C21.6157201,29.8382727 21.3265147,29.5323954 20.9697594,29.5323954 Z M26.0076366,13.2200069 C25.5895985,13.6360652 24.8952486,13.7609153 24.4298486,13.4946988 C24.2900232,13.4147252 22.9957902,12.6542153 22.0531755,12.1000504 C21.9353872,12.1472087 21.8029588,12.1731241 21.7010948,12.1516638 C21.4548335,12.09967 21.203384,11.9001707 20.9185449,11.7048547 C20.5723716,11.4674874 20.4063995,11.3379106 20.3676675,11.0924481 C20.3443975,10.9450511 20.3571883,10.740662 20.4049612,10.5795739 L19.5734055,9.39197665 L18.008357,13.048759 L17.6421499,14.9183594 L19.8251119,19.4967942 C19.987745,19.5261866 20.2166437,19.6482116 20.307823,19.7959346 C20.4450287,20.0183612 20.4863291,20.3479806 20.5537248,20.6998211 C20.6357091,21.127506 20.6643214,21.343576 20.5256775,21.5445966 C20.4338817,21.6777049 20.2646734,21.8260798 20.1097456,21.896926 L19.5289716,28.7809586 C18.347801,28.9003757 18.1607164,27.8052479 18.1507509,27.4279268 C18.1407854,27.0506057 17.9290952,21.027376 17.9290952,21.027376 L16.5196937,19.246931 L15.7146442,18.2000482 L15.1926874,19.4896769 C15.3089861,19.5954029 15.4307811,19.9277932 15.3873746,20.1353878 C15.3332834,20.3947044 15.1395209,20.6565745 14.9490973,20.953759 C14.7176302,21.3149985 14.5917257,21.4878219 14.3589743,21.5237883 C14.1848346,21.5506816 13.9280428,21.5167254 13.7723444,21.4278417 L9.0702127,24.9832444 C8.52683517,24.1950263 8.83987569,23.4210969 9.20772656,23.0320949 C9.57557743,22.6430385 12.2759758,19.7584469 12.2759758,19.7584469 L13.637964,15.5121852 C12.631755,13.9155925 13.6616963,12.6630711 13.6616963,12.6630711 L15.0289756,8.19470872 L12.9057553,9.91517356 L11.9214807,15.3232801 C11.2005732,14.8900535 11.1348727,14.1623589 11.1573208,13.4578631 C11.1708821,13.0301782 11.2520445,11.4888933 11.3137383,10.3434561 C11.2210693,10.2395774 11.1405746,10.1061431 11.1221846,9.98868191 C11.0810383,9.72664882 11.1934329,9.40865593 11.2654004,9.05779346 C11.3528812,8.63141243 11.3839592,8.4200148 11.5872763,8.29489305 C11.7338311,8.20465109 11.9714111,8.13690171 12.145859,8.15097315 C12.9212687,7.25827862 14.0418243,5.96767192 14.2681546,5.70384594 C14.8954171,4.97267419 15.3774605,4.85744048 15.7781873,4.90101306 C16.2271492,4.94985564 18.3309007,5.22335234 19.0089155,5.29419852 C19.5204958,5.34765914 19.869443,5.58106038 20.0645925,5.99815099 C20.259742,6.41535027 22.0790139,10.2744028 22.0790139,10.2744028 L26.0076366,13.2200069 Z" id="Fill-1"></path>
        </g>
    </g>
</svg>