<?xml version="1.0" encoding="UTF-8"?>
<svg width="44px" height="53px" viewBox="0 0 44 53" version="1.1" xmlns="http://www.w3.org/2000/svg" xmlns:xlink="http://www.w3.org/1999/xlink">
    <!-- Generator: Sketch 49.2 (51160) - http://www.bohemiancoding.com/sketch -->
    <title>location-pin-unselected</title>
    <desc>Created with Sketch.</desc>
    <defs>
        <linearGradient x1="50%" y1="0%" x2="50%" y2="100%" id="linearGradient-1">
            <stop stop-color="#19A4EA" offset="0%"></stop>
            <stop stop-color="#0082C3" offset="100%"></stop>
        </linearGradient>
        <path d="M7.52,2.74985211e-16 C3.36,2.74985211e-16 0,3.37272727 0,7.54848485 L0,32.2015152 C0,36.3772727 3.36,39.75 7.52,39.75 L13.04,39.75 C13.36,39.75 15.2,39.9106061 15.36,40.1515152 L21.76,52.8393939 L28.16,40.1515152 C28.32,39.9106061 30.16,39.75 30.48,39.75 L36.08,39.75 C40.24,39.75 43.6,36.3772727 43.6,32.2015152 L43.6,7.54848485 C43.6,3.37272727 40.24,0 36.08,0 C31.5534722,4.35829201e-17 28.1585764,7.62701102e-17 25.8953125,9.80615702e-17 C21.8119097,1.37377935e-16 15.6868056,1.96352482e-16 7.52,2.74985211e-16 Z" id="path-2"></path>
        <filter x="-18.3%" y="-13.2%" width="136.7%" height="130.3%" filterUnits="objectBoundingBox" id="filter-3">
            <feOffset dx="0" dy="1" in="SourceAlpha" result="shadowOffsetOuter1"></feOffset>
            <feGaussianBlur stdDeviation="2.5" in="shadowOffsetOuter1" result="shadowBlurOuter1"></feGaussianBlur>
            <feComposite in="shadowBlurOuter1" in2="SourceAlpha" operator="out" result="shadowBlurOuter1"></feComposite>
            <feColorMatrix values="0 0 0 0 0   0 0 0 0 0   0 0 0 0 0  0 0 0 0.271993886 0" type="matrix" in="shadowBlurOuter1"></feColorMatrix>
        </filter>
    </defs>
    <g id="location-pin-unselected" stroke="none" stroke-width="1" fill="none" fill-rule="evenodd">
        <g id="location-pin">
            <g id="Path">
                <use fill="black" fill-opacity="1" filter="url(#filter-3)" xlink:href="#path-2"></use>
                <use fill="url(#linearGradient-1)" fill-rule="evenodd" xlink:href="#path-2"></use>
                <path stroke="#FFFFFF" stroke-width="1.6" d="M21.7603516,51.0637612 L27.493587,39.7089163 C27.8561269,39.1630466 29.4327868,38.95 30.48,38.95 L36.08,38.95 C39.7974937,38.95 42.8,35.9361206 42.8,32.2015152 L42.8,7.54848485 C42.8,3.81387942 39.7974937,0.8 36.08,0.8 C29.8560243,0.8 29.8560243,0.8 25.8953125,0.8 C18.7493576,0.8 18.7493576,0.8 7.52,0.8 C3.80250629,0.8 0.8,3.81387942 0.8,7.54848485 L0.8,32.2015152 C0.8,35.9361206 3.80250629,38.95 7.52,38.95 L13.04,38.95 C14.0872132,38.95 15.6638731,39.1630466 16.0742749,39.7912217 L21.7603516,51.0637612 Z M28.6049411,40.8017139 C28.6026515,40.8025804 28.6005695,40.8034023 28.5987008,40.8041765 C28.6031444,40.8023356 28.6075985,40.8004198 28.6120829,40.798383 Z"></path>
            </g>
        </g>
        <g id="hockey-sur-glace" transform="translate(6.000000, 6.000000)" fill="#FFFFFF">
            <path d="M5.11181726,26.1272592 C5.11736758,26.2778682 5.00207679,26.4045584 4.85431178,26.4102652 C4.59909458,26.4200411 4.35006063,26.3354321 4.13866172,26.1745013 C4.01265979,26.0785781 3.8999981,25.95556 3.80724939,25.8091691 C3.66133448,25.578715 2.29259715,23.2829577 2.29259715,23.2829577 C1.85227202,22.5481249 2.22550648,22.0152618 2.24167056,21.992931 L2.26255728,21.9644468 C2.35102154,21.8437115 2.51884559,21.8188995 2.63730103,21.909116 C2.75575648,21.9992829 2.78009997,22.170337 2.69158703,22.2911219 L2.6752282,22.3134527 C2.65254006,22.3492317 2.5116886,22.6013218 2.74962192,22.9983638 C2.74962192,22.9983638 4.11748288,25.2804745 4.25721454,25.513112 C4.30945568,25.6000037 4.51325942,25.8771044 4.83415536,25.864748 C4.98187169,25.8591405 5.10636432,25.9766006 5.11181726,26.1272592 Z M15.3369614,26.8741012 C15.4313168,26.9901222 15.4155422,27.1621687 15.3016633,27.2583898 C15.1050653,27.4245311 14.8569564,27.511919 14.5930729,27.5153927 C14.4358139,27.5174769 14.2730046,27.4897371 14.1119967,27.4311311 C13.858581,27.33888 11.4014947,26.3667449 11.4014947,26.3667449 C10.6132523,26.056942 10.5911484,25.4025993 10.5906129,25.3749091 L10.5901747,25.3393286 C10.5882759,25.1886204 10.7065853,25.064858 10.8544477,25.0629227 C11.00231,25.0609377 11.1237354,25.1815242 11.1256829,25.332282 L11.1260237,25.3601707 C11.1294805,25.4025993 11.1682353,25.6900218 11.5941978,25.8574037 C11.5941978,25.8574037 14.0423743,26.819217 14.2921873,26.9170756 C14.3855202,26.9536485 14.7126481,27.047041 14.9598806,26.8381237 C15.0737108,26.7420019 15.2426547,26.7579809 15.3369614,26.8741012 Z M29.7583884,26.5034591 L29.7583884,27.2456364 L29.7533737,27.2456364 C29.6997693,27.4126709 29.195226,27.5436784 28.580358,27.5436784 C27.96549,27.5436784 27.4609468,27.4126709 27.4073911,27.2456364 L27.402425,27.2456364 L27.402425,26.5034591 C27.402425,26.3225795 27.9298025,26.1759901 28.580358,26.1759901 C29.2309623,26.1759901 29.7583884,26.3225795 29.7583884,26.5034591 Z M13.5900722,3.2386638 C13.9258664,3.9419358 14.4018791,4.7960649 14.4018791,4.7960649 L15.6346823,4.7960649 C15.998861,4.7960649 16.0164857,4.71636868 16.0879095,4.50313415 C16.2691712,3.96272827 16.5439118,2.72173011 16.6476151,2.401655 L16.8559468,2.29079488 C16.8559468,2.29079488 17.2009428,0.74123439 16.1443864,0.304989393 C15.67704,0.0473413408 14.8219991,-0.182467621 14.0093646,0.212192425 C13.1863597,0.611914124 12.6308898,1.66622663 13.181491,2.99476161 C13.3087101,3.09609392 13.4509735,3.17603826 13.5900722,3.2386638 Z M28.5167728,24.1855199 C28.5167728,24.1855199 27.0163372,24.856834 26.5487473,24.9911167 C26.317971,25.0573648 26.1250732,24.9191122 26.1250732,24.9191122 L26.0321784,24.8103859 L26.0287216,24.8134626 L19.0854214,16.6774016 C18.9421356,16.677749 18.8029395,16.6457415 18.6746492,16.577161 C18.3423605,16.3995566 18.1576908,16.0180965 18.1415754,15.5714305 L16.4788173,13.6230415 C16.6546261,15.1620321 16.8177762,16.0873221 16.8177762,16.0873221 L16.9440215,17.5007142 C16.9440215,17.5007142 16.4388453,18.7640432 15.7907241,20.412951 L15.8121464,20.4148863 L15.9742254,20.9430847 L14.4479856,24.6694536 L14.1694961,24.6694536 L14.1456881,24.66201 C13.9358959,25.2160129 13.7415374,25.7367676 13.5752227,26.1937058 C13.5752227,26.1937058 12.5463692,25.8948202 12.7415067,24.7805122 C12.7830367,24.5433093 12.8313342,24.2688883 12.8842082,23.9696057 L12.7168711,23.6867486 L13.3053507,20.5209329 L13.5226407,20.3786111 C13.7704575,18.9899318 13.970415,17.8737877 13.970415,17.8737877 L12.0754687,14.1552098 L9.06111109,17.8137427 L7.81219244,19.3631046 L7.8871704,19.5863632 L5.74713379,22.4630196 L5.38908967,22.6478692 L4.26889942,24.4888717 C4.26889942,24.4888717 3.4202852,23.7381591 3.75077248,22.7286075 C3.93266707,22.1728182 4.04980797,21.818304 4.11709339,21.6152424 L3.97122717,21.3067793 L5.24974751,18.3297335 L5.6336931,18.1912824 L8.48032399,12.0335833 L9.06958262,11.2784045 L12.6992464,12.7183455 L13.1323658,12.7183455 L9.49559378,10.6266919 L8.81197976,8.73919167 C8.81197976,8.73919167 9.41745116,7.1574748 9.92194575,5.93429166 L9.79633331,5.52940906 C9.79633331,5.52940906 9.9703893,4.6225296 10.742711,4.15179589 C11.2203791,3.86065161 11.8362208,3.79911779 12.5756788,4.06336584 L12.6909696,4.36627102 C13.3405027,4.72465589 14.3262195,5.21886178 14.3262195,5.21886178 L16.6176726,5.22367531 L16.9097946,4.96627538 C18.3854485,4.84578819 19.2229134,6.34775922 19.0851779,7.14715299 L18.9114628,7.39656345 L18.8908195,11.1668993 C18.8908195,11.1668993 19.3603081,12.4577696 19.8069139,13.5817543 C19.9118343,13.5941107 20.0136388,13.6245799 20.1092601,13.6757422 C20.6758306,13.9785482 20.8139069,14.8735179 20.4177408,15.6747477 C20.2588752,15.9960138 20.0381771,16.2532649 19.7943039,16.4268498 L26.2742501,24.0199245 L28.4095641,22.98963 C28.4095641,22.98963 28.632161,22.8816481 28.7321154,22.9765293 C28.9361625,23.1699638 28.9097742,23.8167636 28.831096,23.9570012 C28.7695557,24.0667199 28.5167728,24.1855199 28.5167728,24.1855199 Z M27.7325715,26.5034591 C27.8935307,26.5577479 28.1831209,26.6125824 28.580358,26.6125824 C28.9775952,26.6125824 29.2672828,26.5577479 29.4281933,26.5034591 C29.2672828,26.4491208 28.9775952,26.3942862 28.580358,26.3942862 C28.1831209,26.3942862 27.8935307,26.4491208 27.7325715,26.5034591 Z M16.880485,9.88059438 L16.2931738,11.7624375 C16.3116749,11.9785502 16.3307115,12.1877652 16.3499916,12.3908764 L18.3140247,14.6922908 C18.3303349,14.6540803 18.3475214,14.6160187 18.3661685,14.5781555 C18.3761006,14.5580578 18.386471,14.5384067 18.3968413,14.5188548 L17.1924712,12.0335833 L16.880485,9.88059438 Z" id="Fill-1"></path>
        </g>
    </g>
</svg>