<?xml version="1.0" encoding="UTF-8"?>
<svg width="44px" height="53px" viewBox="0 0 44 53" version="1.1" xmlns="http://www.w3.org/2000/svg" xmlns:xlink="http://www.w3.org/1999/xlink">
    <!-- Generator: Sketch 49.2 (51160) - http://www.bohemiancoding.com/sketch -->
    <title>location-pin-unselected</title>
    <desc>Created with Sketch.</desc>
    <defs>
        <linearGradient x1="50%" y1="0%" x2="50%" y2="100%" id="linearGradient-1">
            <stop stop-color="#19A4EA" offset="0%"></stop>
            <stop stop-color="#0082C3" offset="100%"></stop>
        </linearGradient>
        <path d="M7.52,2.74985211e-16 C3.36,2.74985211e-16 0,3.37272727 0,7.54848485 L0,32.2015152 C0,36.3772727 3.36,39.75 7.52,39.75 L13.04,39.75 C13.36,39.75 15.2,39.9106061 15.36,40.1515152 L21.76,52.8393939 L28.16,40.1515152 C28.32,39.9106061 30.16,39.75 30.48,39.75 L36.08,39.75 C40.24,39.75 43.6,36.3772727 43.6,32.2015152 L43.6,7.54848485 C43.6,3.37272727 40.24,0 36.08,0 C31.5534722,4.35829201e-17 28.1585764,7.62701102e-17 25.8953125,9.80615702e-17 C21.8119097,1.37377935e-16 15.6868056,1.96352482e-16 7.52,2.74985211e-16 Z" id="path-2"></path>
        <filter x="-18.3%" y="-13.2%" width="136.7%" height="130.3%" filterUnits="objectBoundingBox" id="filter-3">
            <feOffset dx="0" dy="1" in="SourceAlpha" result="shadowOffsetOuter1"></feOffset>
            <feGaussianBlur stdDeviation="2.5" in="shadowOffsetOuter1" result="shadowBlurOuter1"></feGaussianBlur>
            <feComposite in="shadowBlurOuter1" in2="SourceAlpha" operator="out" result="shadowBlurOuter1"></feComposite>
            <feColorMatrix values="0 0 0 0 0   0 0 0 0 0   0 0 0 0 0  0 0 0 0.271993886 0" type="matrix" in="shadowBlurOuter1"></feColorMatrix>
        </filter>
    </defs>
    <g id="location-pin-unselected" stroke="none" stroke-width="1" fill="none" fill-rule="evenodd">
        <g id="location-pin">
            <g id="Path">
                <use fill="black" fill-opacity="1" filter="url(#filter-3)" xlink:href="#path-2"></use>
                <use fill="url(#linearGradient-1)" fill-rule="evenodd" xlink:href="#path-2"></use>
                <path stroke="#FFFFFF" stroke-width="1.6" d="M21.7603516,51.0637612 L27.493587,39.7089163 C27.8561269,39.1630466 29.4327868,38.95 30.48,38.95 L36.08,38.95 C39.7974937,38.95 42.8,35.9361206 42.8,32.2015152 L42.8,7.54848485 C42.8,3.81387942 39.7974937,0.8 36.08,0.8 C29.8560243,0.8 29.8560243,0.8 25.8953125,0.8 C18.7493576,0.8 18.7493576,0.8 7.52,0.8 C3.80250629,0.8 0.8,3.81387942 0.8,7.54848485 L0.8,32.2015152 C0.8,35.9361206 3.80250629,38.95 7.52,38.95 L13.04,38.95 C14.0872132,38.95 15.6638731,39.1630466 16.0742749,39.7912217 L21.7603516,51.0637612 Z M28.6049411,40.8017139 C28.6026515,40.8025804 28.6005695,40.8034023 28.5987008,40.8041765 C28.6031444,40.8023356 28.6075985,40.8004198 28.6120829,40.798383 Z"></path>
            </g>
        </g>
        <g id="golf" transform="translate(4.000000, 6.000000)" fill="#FFFFFF">
            <path d="M9.02710998,6.38354909 C8.96199327,5.97059405 8.84199051,5.16609073 8.77664338,4.7189672 L8.26898193,4.81879683 C7.95169352,4.88116462 7.7295225,5.47988511 7.60869023,6.59833717 C7.58385095,6.80427438 7.60366707,6.93230331 7.67062714,7.00419093 C7.74814044,7.08657611 7.91828261,7.10299139 8.17552355,7.05251053 L8.38386936,7.01154951 C8.65548852,6.96523679 8.89010222,6.92515056 8.98627955,6.77556049 C9.04181078,6.68936739 9.05512906,6.56118408 9.02710998,6.38354909 Z M9.41039069,6.30816228 C9.45758072,6.60723951 9.4221882,6.84307414 9.3022776,7.02914834 C9.11112113,7.32647597 8.78756529,7.38225706 8.44488459,7.44076546 L8.2431288,7.48049148 C8.14796532,7.49917094 8.03694893,7.51604935 7.92312143,7.51604935 C7.73823238,7.51604935 7.54587772,7.47158914 7.40158869,7.31813968 C7.16047714,7.05940598 7.20725241,6.67099668 7.22264447,6.54332796 C7.28716209,5.94615123 7.4390089,4.5407147 8.20151494,4.39076442 L8.93706182,4.24611438 L14.5411079,3.13471214 C14.5735049,3.22003045 14.6087131,3.30390792 14.6491288,3.38495517 C14.67065,3.428026 14.6989456,3.47747768 14.740283,3.53655213 L9.15987801,4.6433231 C9.2247643,5.08735912 9.34518182,5.89469266 9.41039069,6.30816228 Z M7.81468575,6.14282589 L7.89883516,6.87806597 C7.93708488,6.91043341 7.97874483,6.9274662 8.03570467,6.93127413 L7.88837409,5.6443467 C7.84961743,5.8160125 7.8289718,5.99740397 7.81468575,6.14282589 Z M7.99883746,5.31835665 L8.18225182,6.92036492 C8.20031675,6.91743178 8.21925728,6.91408697 8.2396725,6.91002174 C8.26354401,6.90533901 8.28709294,6.90070774 8.31022712,6.89617939 L8.11188154,5.16331197 C8.06791739,5.2033982 8.03058934,5.25650344 7.99883746,5.31835665 Z M8.25570973,5.08771933 C8.25303686,5.08828537 8.25054832,5.08926308 8.24787545,5.08977767 L8.45170503,6.86993552 C8.4964526,6.86165069 8.53921856,6.85249106 8.57921948,6.84117017 L8.37571249,5.06420276 L8.25570973,5.08771933 Z M8.61244605,5.01768421 L8.51695999,5.03641513 L8.71687242,6.78235303 C8.75687334,6.75739562 8.79180502,6.72631464 8.81876417,6.68442736 C8.82392558,6.67639983 8.82858006,6.66610811 8.83305021,6.65478723 L8.6448892,5.01130335 L8.61244605,5.01768421 Z M15.0269255,3.14999533 C15.0662813,3.22898424 15.1432416,3.32711574 15.2450411,3.4364652 C15.8009065,4.03364193 17.0999686,4.96674022 17.0999686,4.96674022 C17.0999686,4.96674022 17.4411286,4.899947 17.8215982,4.82584665 C18.1586105,4.76023697 18.447419,4.74397606 18.4484329,4.45493326 C18.4499075,4.02679794 18.4564515,2.14603859 18.4566819,2.07975995 C18.4608295,0.908511384 17.5745418,0.00412697749 16.6435987,1.02917144e-05 L16.6368704,1.02917144e-05 C15.707402,1.02917144e-05 14.7826803,0.827001006 14.7785788,2.01090838 C14.7772884,2.38135864 14.8435112,2.73369548 14.9800581,3.04764423 C14.9950354,3.08212147 15.010197,3.1164958 15.0269255,3.14999533 Z M23.1399694,6.67542211 C22.0165334,6.9352879 18.2542348,7.78435434 18.2542348,7.78435434 L18.3847908,8.07015525 L21.5098858,7.57898318 L22.4284784,12.2624337 L22.4284784,16.9681143 L20.7358127,29.8810255 C20.7358127,29.8810255 19.5293794,29.8848849 19.5293794,28.5648181 L19.5293794,21.0866011 L20.1393013,17.4204866 L20.1393013,16.1672645 L18.6128606,23.0362635 L14.4623503,29.7919507 C13.7992014,29.4640567 13.5708551,28.7390054 13.9013236,27.9778816 C14.4068652,26.8135285 16.7071946,21.8787029 16.7071946,21.8787029 L16.7071946,16.675984 C16.7071946,14.2797126 17.5847724,13.2232167 17.5847724,13.2232167 C17.5847724,13.2232167 16.4431332,10.3090663 15.6592442,8.44148031 C15.23564,7.43268646 15.6419627,5.79954576 17.1378958,5.50628335 L22.7965975,4.40074739 L22.5765924,2.2052674 L21.8741338,2.34430847 L21.1865604,4.16439817 L19.3946758,4.51915356 L20.4957611,2.61714182 L20.2475987,2.66623329 C20.2246489,2.67076165 20.2017912,2.67297437 20.17921,2.67297437 C20.0625714,2.67297437 19.9543661,2.61410576 19.8818299,2.51792969 L18.8868761,2.71486164 L18.8883969,2.27324418 L19.8142247,2.0900002 C19.8602165,1.94910663 19.9700347,1.83852216 20.111743,1.81042578 L22.4898162,1.33973422 L22.4448843,0.891324221 C23.3987312,0.891324221 23.6017312,1.68306581 23.751919,2.37240485 C23.9021068,3.06164096 24.0567647,3.7717178 24.1674585,4.27981974 C24.4648847,5.64527296 24.3583846,6.39384081 23.1399694,6.67542211 Z" id="Fill-1"></path>
        </g>
    </g>
</svg>