<?xml version="1.0" encoding="UTF-8"?>
<svg width="44px" height="53px" viewBox="0 0 44 53" version="1.1" xmlns="http://www.w3.org/2000/svg" xmlns:xlink="http://www.w3.org/1999/xlink">
    <!-- Generator: Sketch 49.2 (51160) - http://www.bohemiancoding.com/sketch -->
    <title>location-pin-unselected</title>
    <desc>Created with Sketch.</desc>
    <defs>
        <linearGradient x1="50%" y1="0%" x2="50%" y2="100%" id="linearGradient-1">
            <stop stop-color="#19A4EA" offset="0%"></stop>
            <stop stop-color="#0082C3" offset="100%"></stop>
        </linearGradient>
        <path d="M7.52,2.74985211e-16 C3.36,2.74985211e-16 0,3.37272727 0,7.54848485 L0,32.2015152 C0,36.3772727 3.36,39.75 7.52,39.75 L13.04,39.75 C13.36,39.75 15.2,39.9106061 15.36,40.1515152 L21.76,52.8393939 L28.16,40.1515152 C28.32,39.9106061 30.16,39.75 30.48,39.75 L36.08,39.75 C40.24,39.75 43.6,36.3772727 43.6,32.2015152 L43.6,7.54848485 C43.6,3.37272727 40.24,0 36.08,0 C31.5534722,4.35829201e-17 28.1585764,7.62701102e-17 25.8953125,9.80615702e-17 C21.8119097,1.37377935e-16 15.6868056,1.96352482e-16 7.52,2.74985211e-16 Z" id="path-2"></path>
        <filter x="-18.3%" y="-13.2%" width="136.7%" height="130.3%" filterUnits="objectBoundingBox" id="filter-3">
            <feOffset dx="0" dy="1" in="SourceAlpha" result="shadowOffsetOuter1"></feOffset>
            <feGaussianBlur stdDeviation="2.5" in="shadowOffsetOuter1" result="shadowBlurOuter1"></feGaussianBlur>
            <feComposite in="shadowBlurOuter1" in2="SourceAlpha" operator="out" result="shadowBlurOuter1"></feComposite>
            <feColorMatrix values="0 0 0 0 0   0 0 0 0 0   0 0 0 0 0  0 0 0 0.271993886 0" type="matrix" in="shadowBlurOuter1"></feColorMatrix>
        </filter>
    </defs>
    <g id="location-pin-unselected" stroke="none" stroke-width="1" fill="none" fill-rule="evenodd">
        <g id="location-pin">
            <g id="Path">
                <use fill="black" fill-opacity="1" filter="url(#filter-3)" xlink:href="#path-2"></use>
                <use fill="url(#linearGradient-1)" fill-rule="evenodd" xlink:href="#path-2"></use>
                <path stroke="#FFFFFF" stroke-width="1.6" d="M21.7603516,51.0637612 L27.493587,39.7089163 C27.8561269,39.1630466 29.4327868,38.95 30.48,38.95 L36.08,38.95 C39.7974937,38.95 42.8,35.9361206 42.8,32.2015152 L42.8,7.54848485 C42.8,3.81387942 39.7974937,0.8 36.08,0.8 C29.8560243,0.8 29.8560243,0.8 25.8953125,0.8 C18.7493576,0.8 18.7493576,0.8 7.52,0.8 C3.80250629,0.8 0.8,3.81387942 0.8,7.54848485 L0.8,32.2015152 C0.8,35.9361206 3.80250629,38.95 7.52,38.95 L13.04,38.95 C14.0872132,38.95 15.6638731,39.1630466 16.0742749,39.7912217 L21.7603516,51.0637612 Z M28.6049411,40.8017139 C28.6026515,40.8025804 28.6005695,40.8034023 28.5987008,40.8041765 C28.6031444,40.8023356 28.6075985,40.8004198 28.6120829,40.798383 Z"></path>
            </g>
        </g>
        <g id="petanque" transform="translate(6.000000, 6.000000)" fill="#FFFFFF">
            <path d="M19.9365479,6.68060944 L16.8347949,5.51633369 C16.8347949,5.51633369 13.4018954,4.73172215 12.6613229,4.56657369 C11.9207503,4.40142524 11.217323,4.21844826 9.75456917,4.76920375 C8.70455698,5.16455914 7.02431989,5.92633766 6.12687756,6.32607199 C5.62668673,6.54882431 5.5099669,6.67654328 5.28792466,7.14524585 C5.10079993,7.54023633 3.19805433,11.5568678 3.19805433,11.5568678 C3.19805433,11.5568678 4.3749404,12.042252 5.29253543,10.4088045 C6.19728246,8.79819004 6.81222447,7.9143226 6.81222447,7.9143226 L8.858422,7.04901352 L10.5144137,6.72408602 L10.4328186,7.03665866 L9.24417248,7.3873906 L7.66506149,10.4687021 C7.66506149,10.4687021 6.2331843,12.3043105 7.73582904,14.7942049 C9.23852558,17.2840472 10.4108009,19.2265746 10.4108009,19.2265746 C10.4108009,19.2265746 10.0501247,24.9175236 9.9853667,26.0209113 C9.92060869,27.124299 10.3674389,27.9518658 11.5505936,27.8628796 L11.8774402,26.3500092 C11.9225636,27.2000963 12.45819,27.8909256 13.4175409,27.8628796 C13.4175409,27.8628796 14.6343179,19.623911 14.7250828,19.0212338 C14.8407147,18.2534603 14.840093,18.1622846 14.5618926,17.4796397 C14.330318,16.9113685 12.4486058,12.2933631 12.4486058,12.2933631 L13.319316,10.3047005 L16.327403,7.81006221 L20.1782766,8.38359861 C20.1782766,8.38359861 24.0383718,7.62333186 24.8475878,7.46256234 C25.6568038,7.30179283 26.3561903,7.0210196 26.4336408,6.04795741 L19.9365479,6.68060944 Z M28.6634403,7.77722019 C28.6634403,7.28917732 28.2702815,6.89350915 27.7852181,6.89350915 C27.3001547,6.89350915 26.9069441,7.28917732 26.9069441,7.77722019 C26.9069441,8.2653152 27.3001547,8.6610355 27.7852181,8.6610355 C28.2702815,8.6610355 28.6634403,8.2653152 28.6634403,7.77722019 Z M13.5442594,2.73831567 C13.4184217,2.38701029 13.3936064,2.00281076 13.4592451,1.61245987 C13.6479758,0.484988044 14.7565293,-0.139635937 15.7382606,0.0265029905 C16.7194221,0.192485527 17.5133552,1.20646993 17.3273702,2.31851122 C17.2676374,2.67482109 17.0470976,3.90123603 16.9214153,4.5410299 C16.8677438,4.81424424 16.7057452,4.93184996 16.3513376,4.84192538 C15.9005183,4.72744747 15.1519675,4.55015268 15.1519675,4.55015268 C15.1519675,4.55015268 13.7334046,3.26754139 13.5442594,2.73831567 Z" id="Fill-1"></path>
        </g>
    </g>
</svg>