<?xml version="1.0" encoding="UTF-8"?>
<svg width="44px" height="53px" viewBox="0 0 44 53" version="1.1" xmlns="http://www.w3.org/2000/svg" xmlns:xlink="http://www.w3.org/1999/xlink">
    <!-- Generator: Sketch 49.2 (51160) - http://www.bohemiancoding.com/sketch -->
    <title>location-pin-unselected</title>
    <desc>Created with Sketch.</desc>
    <defs>
        <linearGradient x1="50%" y1="0%" x2="50%" y2="100%" id="linearGradient-1">
            <stop stop-color="#19A4EA" offset="0%"></stop>
            <stop stop-color="#0082C3" offset="100%"></stop>
        </linearGradient>
        <path d="M7.52,2.74985211e-16 C3.36,2.74985211e-16 0,3.37272727 0,7.54848485 L0,32.2015152 C0,36.3772727 3.36,39.75 7.52,39.75 L13.04,39.75 C13.36,39.75 15.2,39.9106061 15.36,40.1515152 L21.76,52.8393939 L28.16,40.1515152 C28.32,39.9106061 30.16,39.75 30.48,39.75 L36.08,39.75 C40.24,39.75 43.6,36.3772727 43.6,32.2015152 L43.6,7.54848485 C43.6,3.37272727 40.24,0 36.08,0 C31.5534722,4.35829201e-17 28.1585764,7.62701102e-17 25.8953125,9.80615702e-17 C21.8119097,1.37377935e-16 15.6868056,1.96352482e-16 7.52,2.74985211e-16 Z" id="path-2"></path>
        <filter x="-18.3%" y="-13.2%" width="136.7%" height="130.3%" filterUnits="objectBoundingBox" id="filter-3">
            <feOffset dx="0" dy="1" in="SourceAlpha" result="shadowOffsetOuter1"></feOffset>
            <feGaussianBlur stdDeviation="2.5" in="shadowOffsetOuter1" result="shadowBlurOuter1"></feGaussianBlur>
            <feComposite in="shadowBlurOuter1" in2="SourceAlpha" operator="out" result="shadowBlurOuter1"></feComposite>
            <feColorMatrix values="0 0 0 0 0   0 0 0 0 0   0 0 0 0 0  0 0 0 0.271993886 0" type="matrix" in="shadowBlurOuter1"></feColorMatrix>
        </filter>
    </defs>
    <g id="location-pin-unselected" stroke="none" stroke-width="1" fill="none" fill-rule="evenodd">
        <g id="location-pin">
            <g id="Path">
                <use fill="black" fill-opacity="1" filter="url(#filter-3)" xlink:href="#path-2"></use>
                <use fill="url(#linearGradient-1)" fill-rule="evenodd" xlink:href="#path-2"></use>
                <path stroke="#FFFFFF" stroke-width="1.6" d="M21.7603516,51.0637612 L27.493587,39.7089163 C27.8561269,39.1630466 29.4327868,38.95 30.48,38.95 L36.08,38.95 C39.7974937,38.95 42.8,35.9361206 42.8,32.2015152 L42.8,7.54848485 C42.8,3.81387942 39.7974937,0.8 36.08,0.8 C29.8560243,0.8 29.8560243,0.8 25.8953125,0.8 C18.7493576,0.8 18.7493576,0.8 7.52,0.8 C3.80250629,0.8 0.8,3.81387942 0.8,7.54848485 L0.8,32.2015152 C0.8,35.9361206 3.80250629,38.95 7.52,38.95 L13.04,38.95 C14.0872132,38.95 15.6638731,39.1630466 16.0742749,39.7912217 L21.7603516,51.0637612 Z M28.6049411,40.8017139 C28.6026515,40.8025804 28.6005695,40.8034023 28.5987008,40.8041765 C28.6031444,40.8023356 28.6075985,40.8004198 28.6120829,40.798383 Z"></path>
            </g>
        </g>
        <g id="flechettes" transform="translate(6.000000, 6.000000)" fill="#FFFFFF">
            <path d="M22.3213729,3.32970357 L22.6245607,3.33045703 L22.6744607,3.47939132 L23.593892,3.16509728 L22.4639642,2.85070277 L22.5183538,3.01314914 L20.6406749,3.00852791 L20.3431458,2.67524662 L19.747807,2.76847497 L19.9375391,3.16509728 L19.9374924,3.16509728 L19.7459364,3.56086566 L20.3408075,3.65745947 L20.6399734,3.32558465 L21.1417322,3.32679019 L21.8125055,6.20019225 C21.8125055,6.20019225 16.8529547,4.48752326 16.0533394,4.20924469 C15.2537242,3.93101635 13.9879862,3.62114261 13.2805011,5.26384011 C12.5729693,6.9065376 12.1206895,7.9438034 11.9219315,8.44907491 C11.7231735,8.95434641 11.7896756,9.4778517 12.299525,9.87849247 C12.8093745,10.2791332 14.1095326,11.300727 14.1095326,11.300727 L14.0233885,11.7696817 L12.4150385,10.7013733 L12.3467125,13.6790544 C11.598447,14.9150835 10.430498,21.8426125 10.430498,21.8426125 C10.430498,21.8426125 8.68797458,27.0095022 8.58041141,27.3748307 C8.32478519,28.2429694 8.41350142,29.5039129 9.51354531,29.5356086 L12.3472737,22.6928189 L14.5141572,17.5922841 L15.5591568,21.3071021 C15.5591568,21.3071021 15.7692324,27.1357824 15.7785389,27.8085233 C15.7877987,28.4813648 15.9960036,29.69263 17.1870553,29.4897981 L17.6982609,20.8937529 L17.2119819,14.3907243 L18.7354038,7.72771054 C18.7354038,7.72771054 22.0943678,8.03291282 22.5500148,8.06666791 C23.0056149,8.100423 23.8050899,7.67431522 23.4475593,6.62745534 C23.0900754,5.58059546 22.3213729,3.32970357 22.3213729,3.32970357 M20.8671188,2.15038511 L21.015556,2.78625666 L22.1306587,2.7895719 C22.015192,2.54635442 21.6831959,2.07318038 20.8671188,2.15038511 M16.0260277,2.33583718 C15.9445136,2.00888497 15.95064,1.66003214 16.033791,1.31248531 C16.273236,0.308823915 17.2553813,-0.170428044 18.0742176,0.0547063524 C18.8924928,0.279690057 19.4923211,1.25622683 19.2562901,2.24617522 C19.1806218,2.56328219 18.9271,3.62571361 18.7899336,4.19879669 C18.7318495,4.4433704 18.3659009,4.4965648 18.0719728,4.38982438 C17.6964838,4.25344778 17.2579534,4.09486918 17.2579534,4.09486918 C17.2579534,4.09486918 16.1485562,2.82814914 16.0260277,2.33583718" id="Fill-1"></path>
        </g>
    </g>
</svg>