<?xml version="1.0" encoding="UTF-8"?>
<svg width="44px" height="53px" viewBox="0 0 44 53" version="1.1" xmlns="http://www.w3.org/2000/svg" xmlns:xlink="http://www.w3.org/1999/xlink">
    <!-- Generator: Sketch 49.2 (51160) - http://www.bohemiancoding.com/sketch -->
    <title>location-pin-unselected</title>
    <desc>Created with Sketch.</desc>
    <defs>
        <linearGradient x1="50%" y1="0%" x2="50%" y2="100%" id="linearGradient-1">
            <stop stop-color="#19A4EA" offset="0%"></stop>
            <stop stop-color="#0082C3" offset="100%"></stop>
        </linearGradient>
        <path d="M7.52,2.74985211e-16 C3.36,2.74985211e-16 0,3.37272727 0,7.54848485 L0,32.2015152 C0,36.3772727 3.36,39.75 7.52,39.75 L13.04,39.75 C13.36,39.75 15.2,39.9106061 15.36,40.1515152 L21.76,52.8393939 L28.16,40.1515152 C28.32,39.9106061 30.16,39.75 30.48,39.75 L36.08,39.75 C40.24,39.75 43.6,36.3772727 43.6,32.2015152 L43.6,7.54848485 C43.6,3.37272727 40.24,0 36.08,0 C31.5534722,4.35829201e-17 28.1585764,7.62701102e-17 25.8953125,9.80615702e-17 C21.8119097,1.37377935e-16 15.6868056,1.96352482e-16 7.52,2.74985211e-16 Z" id="path-2"></path>
        <filter x="-18.3%" y="-13.2%" width="136.7%" height="130.3%" filterUnits="objectBoundingBox" id="filter-3">
            <feOffset dx="0" dy="1" in="SourceAlpha" result="shadowOffsetOuter1"></feOffset>
            <feGaussianBlur stdDeviation="2.5" in="shadowOffsetOuter1" result="shadowBlurOuter1"></feGaussianBlur>
            <feComposite in="shadowBlurOuter1" in2="SourceAlpha" operator="out" result="shadowBlurOuter1"></feComposite>
            <feColorMatrix values="0 0 0 0 0   0 0 0 0 0   0 0 0 0 0  0 0 0 0.271993886 0" type="matrix" in="shadowBlurOuter1"></feColorMatrix>
        </filter>
    </defs>
    <g id="location-pin-unselected" stroke="none" stroke-width="1" fill="none" fill-rule="evenodd">
        <g id="location-pin">
            <g id="Path">
                <use fill="black" fill-opacity="1" filter="url(#filter-3)" xlink:href="#path-2"></use>
                <use fill="url(#linearGradient-1)" fill-rule="evenodd" xlink:href="#path-2"></use>
                <path stroke="#FFFFFF" stroke-width="1.6" d="M21.7603516,51.0637612 L27.493587,39.7089163 C27.8561269,39.1630466 29.4327868,38.95 30.48,38.95 L36.08,38.95 C39.7974937,38.95 42.8,35.9361206 42.8,32.2015152 L42.8,7.54848485 C42.8,3.81387942 39.7974937,0.8 36.08,0.8 C29.8560243,0.8 29.8560243,0.8 25.8953125,0.8 C18.7493576,0.8 18.7493576,0.8 7.52,0.8 C3.80250629,0.8 0.8,3.81387942 0.8,7.54848485 L0.8,32.2015152 C0.8,35.9361206 3.80250629,38.95 7.52,38.95 L13.04,38.95 C14.0872132,38.95 15.6638731,39.1630466 16.0742749,39.7912217 L21.7603516,51.0637612 Z M28.6049411,40.8017139 C28.6026515,40.8025804 28.6005695,40.8034023 28.5987008,40.8041765 C28.6031444,40.8023356 28.6075985,40.8004198 28.6120829,40.798383 Z"></path>
            </g>
        </g>
        <g id="plongee" transform="translate(7.000000, 7.000000)" fill="#FFFFFF">
            <path d="M23.3366863,9.90625562 L24.7514899,7.87298255 L25.256486,4.53188151 C25.256486,4.53188151 24.5228486,4.10902237 23.6339474,3.6285482 C22.9973384,3.28442802 22.4687371,3.25607247 22.0047756,3.4903863 C21.6735248,3.66884542 21.1667903,4.25912595 20.8049351,4.94127653 L20.7278979,4.90121719 C20.9258432,4.2104077 21.4640056,3.37263468 21.8355591,3.05810703 C21.7941127,2.84705807 21.703626,2.65370754 21.5349585,2.45488571 L21.9891302,1.58238191 L21.1298728,1.09867254 L20.6673752,1.98716202 C20.1206124,1.92531268 19.5700527,2.21643274 19.3102581,2.75832806 L15.5171372,10.70749 C15.4321401,10.8855209 15.5018579,11.1015178 15.6729042,11.1902002 L17.56489,12.1712734 L16.0988046,16.0128783 C15.2366651,16.0168271 10.5478726,16.0369995 9.71551413,16.0123074 C9.53234495,14.9508301 9.11362679,15.0596373 9.11362679,15.0596373 C9.11362679,15.0596373 8.38085857,15.4951518 6.33955606,17.1281645 C4.29829929,18.7612248 2.02149355,18.7612248 2.02149355,18.7612248 L1.90374193,19.1150506 C3.38245338,19.6593723 6.91532212,17.5908451 6.91532212,17.5908451 L14.536377,18.0432968 L13.4777103,19.5233513 C13.4777103,19.5233513 12.4365189,19.8493925 12.8744048,20.3998991 C13.3123365,20.9504534 14.1891149,22.0029387 14.5920505,22.5191428 C14.9950319,23.035442 15.8269329,24.1084804 16.2468862,25.7058584 L16.6359606,25.6523825 C16.6359606,25.6523825 16.5117129,24.4969418 14.9442989,22.0251569 L14.5903579,20.2411842 L16.2798237,18.4130131 L15.3918374,18.2621958 L15.300939,18.087638 L15.2892279,18.0651343 C15.2892279,18.0651343 16.0221334,18.0660383 16.3651867,18.0660383 C16.7569144,18.0660383 17.1520731,17.8184982 17.4577973,17.4547766 C17.703502,17.1625147 21.0954257,13.1273214 21.0954257,13.1273214 L22.2424746,11.4788939 L20.7570384,10.7085842 L20.9204451,10.42265 C20.9204451,10.42265 23.3033371,11.6400352 23.8316183,11.9074146 C24.3598537,12.1746989 25.5049355,12.6380456 26.0207736,11.719916 C25.3155448,11.2618503 24.205459,10.504196 23.3366863,9.90625562 M25.7233295,1.77563729 C25.7235125,2.03535692 25.9797847,2.26534129 26.250833,2.19340576 C26.3400845,2.16966513 26.2554534,2.20767868 26.7369816,2.07808054 C26.7369816,2.07808054 26.6774196,1.71659497 26.611636,1.35425302 C26.6093945,1.34164527 26.6070614,1.32903752 26.6047741,1.31642978 C26.6039506,1.3163822 26.6031729,1.3163822 26.6023495,1.31623947 C26.2340898,1.28731301 25.7231008,1.43151711 25.7233295,1.77563729 M26.4406354,3.90420592 C26.0404904,3.99550505 25.4915318,4.03703926 25.4915318,4.03703926 C25.4915318,4.03703926 23.9604863,3.37244438 23.6540759,2.9795108 C23.4507325,2.71888722 23.3205378,2.4004583 23.2628057,2.04958227 C23.095968,1.03653775 23.827867,0.175024101 24.6814976,0.0227320092 C25.3784463,-0.10149 26.1341793,0.291966919 26.4773242,0.985060074 C25.9064987,1.04971642 25.3936342,1.25396195 25.3418948,1.63742782 C25.2685631,2.18003679 25.8478974,2.63767428 26.3345949,2.54328269 C26.4885321,2.51345228 26.6591667,2.46573314 26.7940733,2.42457954 C26.8583014,2.81480126 26.9273787,3.23456794 26.9744062,3.52021671 C27.0150748,3.76694798 26.751346,3.83331707 26.4406354,3.90420592" id="Fill-1"></path>
        </g>
    </g>
</svg>