<?xml version="1.0" encoding="UTF-8"?>
<svg width="44px" height="53px" viewBox="0 0 44 53" version="1.1" xmlns="http://www.w3.org/2000/svg" xmlns:xlink="http://www.w3.org/1999/xlink">
    <!-- Generator: Sketch 49.2 (51160) - http://www.bohemiancoding.com/sketch -->
    <title>location-pin-unselected</title>
    <desc>Created with Sketch.</desc>
    <defs>
        <linearGradient x1="50%" y1="0%" x2="50%" y2="100%" id="linearGradient-1">
            <stop stop-color="#19A4EA" offset="0%"></stop>
            <stop stop-color="#0082C3" offset="100%"></stop>
        </linearGradient>
        <path d="M7.52,2.74985211e-16 C3.36,2.74985211e-16 0,3.37272727 0,7.54848485 L0,32.2015152 C0,36.3772727 3.36,39.75 7.52,39.75 L13.04,39.75 C13.36,39.75 15.2,39.9106061 15.36,40.1515152 L21.76,52.8393939 L28.16,40.1515152 C28.32,39.9106061 30.16,39.75 30.48,39.75 L36.08,39.75 C40.24,39.75 43.6,36.3772727 43.6,32.2015152 L43.6,7.54848485 C43.6,3.37272727 40.24,0 36.08,0 C31.5534722,4.35829201e-17 28.1585764,7.62701102e-17 25.8953125,9.80615702e-17 C21.8119097,1.37377935e-16 15.6868056,1.96352482e-16 7.52,2.74985211e-16 Z" id="path-2"></path>
        <filter x="-18.3%" y="-13.2%" width="136.7%" height="130.3%" filterUnits="objectBoundingBox" id="filter-3">
            <feOffset dx="0" dy="1" in="SourceAlpha" result="shadowOffsetOuter1"></feOffset>
            <feGaussianBlur stdDeviation="2.5" in="shadowOffsetOuter1" result="shadowBlurOuter1"></feGaussianBlur>
            <feComposite in="shadowBlurOuter1" in2="SourceAlpha" operator="out" result="shadowBlurOuter1"></feComposite>
            <feColorMatrix values="0 0 0 0 0   0 0 0 0 0   0 0 0 0 0  0 0 0 0.271993886 0" type="matrix" in="shadowBlurOuter1"></feColorMatrix>
        </filter>
    </defs>
    <g id="location-pin-unselected" stroke="none" stroke-width="1" fill="none" fill-rule="evenodd">
        <g id="location-pin">
            <g id="Path">
                <use fill="black" fill-opacity="1" filter="url(#filter-3)" xlink:href="#path-2"></use>
                <use fill="url(#linearGradient-1)" fill-rule="evenodd" xlink:href="#path-2"></use>
                <path stroke="#FFFFFF" stroke-width="1.6" d="M21.7603516,51.0637612 L27.493587,39.7089163 C27.8561269,39.1630466 29.4327868,38.95 30.48,38.95 L36.08,38.95 C39.7974937,38.95 42.8,35.9361206 42.8,32.2015152 L42.8,7.54848485 C42.8,3.81387942 39.7974937,0.8 36.08,0.8 C29.8560243,0.8 29.8560243,0.8 25.8953125,0.8 C18.7493576,0.8 18.7493576,0.8 7.52,0.8 C3.80250629,0.8 0.8,3.81387942 0.8,7.54848485 L0.8,32.2015152 C0.8,35.9361206 3.80250629,38.95 7.52,38.95 L13.04,38.95 C14.0872132,38.95 15.6638731,39.1630466 16.0742749,39.7912217 L21.7603516,51.0637612 Z M28.6049411,40.8017139 C28.6026515,40.8025804 28.6005695,40.8034023 28.5987008,40.8041765 C28.6031444,40.8023356 28.6075985,40.8004198 28.6120829,40.798383 Z"></path>
            </g>
        </g>
        <g id="trail_running" transform="translate(4.000000, 7.000000)" fill="#FFFFFF">
            <path d="M21.0456565,10.3070252 L20.6911104,11.3696003 C20.6911104,11.3696003 22.0620402,11.668235 22.6802964,11.7687953 C23.348619,11.8775067 24.2010626,11.8335331 24.3280878,11.118929 L21.0456565,10.3070252 Z M8.45228545,20.2465728 C9.04305959,19.9577195 14.0700138,17.4687248 14.0700138,17.4687248 L15.2238079,14.8581483 C14.6499947,13.4249504 15.715311,12.2443114 15.715311,12.2443114 L16.472066,11.1727699 L16.4951945,7.14718555 L14.4231541,8.06767213 L15.3204034,12.0602226 C15.3204034,12.0602226 14.5232868,12.4734463 14.0905573,11.4282461 C13.8909267,10.9459945 13.2343498,9.24359203 12.8634323,8.34172453 C12.5109723,7.48464582 12.6072957,7.16872192 13.3821907,6.72911407 C14.1570858,6.28950622 16.8223039,4.7774989 16.8223039,4.7774989 C17.6077201,4.34788702 18.2560434,4.41760135 18.8718507,4.66037883 C18.9591494,4.69478553 19.9592071,5.05691394 20.4146116,5.22169717 C20.5521581,5.27141958 20.6899313,5.38991249 20.7119714,5.52762511 C20.8646648,6.48208938 21.1851984,8.24356676 20.9661127,9.11621858 L19.6465644,13.6610353 L23.2850837,18.4311258 L25.0855685,26.3169535 C24.2087267,26.6107834 23.6640281,26.2049387 23.3214091,25.281878 C22.6298219,23.4186821 21.2136782,19.4449652 21.2136782,19.4449652 L16.79718,15.5300229 L16.6813108,15.8746476 L17.695563,17.0410864 C17.695563,17.0410864 16.5260325,18.7796974 16.3869441,18.9831346 C16.1503986,19.3291322 15.700799,19.480616 15.1864849,19.6323144 C14.6722161,19.7840128 7.63784521,21.8589258 7.63784521,21.8589258 C7.43231912,21.0218819 7.84899471,20.541518 8.45228545,20.2465728 Z M21.2783019,0.296390387 C20.863531,0.0428018255 20.3422784,-0.0526531821 19.848916,0.0278293322 C19.3586827,0.107754132 18.8958862,0.361342693 18.591996,0.805969974 C18.3807558,1.11507259 18.254048,1.45206095 18.231237,1.79844465 C18.1970431,2.32046556 19.1479867,4.28550878 19.1479867,4.28550878 C19.1479867,4.28550878 19.4855266,4.41931739 19.8618861,4.56869912 C20.0955745,4.66149426 20.29584,4.75973784 20.4458124,4.73524129 C20.5097558,4.72481632 20.5644933,4.69212566 20.6088909,4.62721626 C20.9572694,4.11755087 21.6365667,3.12366046 21.8292588,2.84158555 C22.431053,1.96099702 22.1044878,0.801508256 21.2783019,0.296390387 Z" id="Fill-1"></path>
            <polygon id="Path-23" transform="translate(18.257946, 20.351742) rotate(2.000000) translate(-18.257946, -20.351742) " points="3.8146838 27.1871215 7.8906526 22.6204055 15.9500026 27.1871215 18.8487868 22.6204055 26.1298723 25.5081453 29.5598444 14.2795893 32.5432801 22.6204055 32.8452478 22.4859882 29.5598444 13.516362 25.908588 25.0709171 18.7038211 22.2698542 15.9500026 26.7703535 7.8906526 22.2698542 3.67064401 27.0501001"></polygon>
        </g>
    </g>
</svg>