<?xml version="1.0" encoding="UTF-8"?>
<svg width="44px" height="53px" viewBox="0 0 44 53" version="1.1" xmlns="http://www.w3.org/2000/svg" xmlns:xlink="http://www.w3.org/1999/xlink">
    <!-- Generator: Sketch 49.2 (51160) - http://www.bohemiancoding.com/sketch -->
    <title>location-pin-unselected</title>
    <desc>Created with Sketch.</desc>
    <defs>
        <linearGradient x1="50%" y1="0%" x2="50%" y2="100%" id="linearGradient-1">
            <stop stop-color="#19A4EA" offset="0%"></stop>
            <stop stop-color="#0082C3" offset="100%"></stop>
        </linearGradient>
        <path d="M7.52,2.74985211e-16 C3.36,2.74985211e-16 0,3.37272727 0,7.54848485 L0,32.2015152 C0,36.3772727 3.36,39.75 7.52,39.75 L13.04,39.75 C13.36,39.75 15.2,39.9106061 15.36,40.1515152 L21.76,52.8393939 L28.16,40.1515152 C28.32,39.9106061 30.16,39.75 30.48,39.75 L36.08,39.75 C40.24,39.75 43.6,36.3772727 43.6,32.2015152 L43.6,7.54848485 C43.6,3.37272727 40.24,0 36.08,0 C31.5534722,4.35829201e-17 28.1585764,7.62701102e-17 25.8953125,9.80615702e-17 C21.8119097,1.37377935e-16 15.6868056,1.96352482e-16 7.52,2.74985211e-16 Z" id="path-2"></path>
        <filter x="-18.3%" y="-13.2%" width="136.7%" height="130.3%" filterUnits="objectBoundingBox" id="filter-3">
            <feOffset dx="0" dy="1" in="SourceAlpha" result="shadowOffsetOuter1"></feOffset>
            <feGaussianBlur stdDeviation="2.5" in="shadowOffsetOuter1" result="shadowBlurOuter1"></feGaussianBlur>
            <feComposite in="shadowBlurOuter1" in2="SourceAlpha" operator="out" result="shadowBlurOuter1"></feComposite>
            <feColorMatrix values="0 0 0 0 0   0 0 0 0 0   0 0 0 0 0  0 0 0 0.271993886 0" type="matrix" in="shadowBlurOuter1"></feColorMatrix>
        </filter>
    </defs>
    <g id="location-pin-unselected" stroke="none" stroke-width="1" fill="none" fill-rule="evenodd">
        <g id="location-pin">
            <g id="Path">
                <use fill="black" fill-opacity="1" filter="url(#filter-3)" xlink:href="#path-2"></use>
                <use fill="url(#linearGradient-1)" fill-rule="evenodd" xlink:href="#path-2"></use>
                <path stroke="#FFFFFF" stroke-width="1.6" d="M21.7603516,51.0637612 L27.493587,39.7089163 C27.8561269,39.1630466 29.4327868,38.95 30.48,38.95 L36.08,38.95 C39.7974937,38.95 42.8,35.9361206 42.8,32.2015152 L42.8,7.54848485 C42.8,3.81387942 39.7974937,0.8 36.08,0.8 C29.8560243,0.8 29.8560243,0.8 25.8953125,0.8 C18.7493576,0.8 18.7493576,0.8 7.52,0.8 C3.80250629,0.8 0.8,3.81387942 0.8,7.54848485 L0.8,32.2015152 C0.8,35.9361206 3.80250629,38.95 7.52,38.95 L13.04,38.95 C14.0872132,38.95 15.6638731,39.1630466 16.0742749,39.7912217 L21.7603516,51.0637612 Z M28.6049411,40.8017139 C28.6026515,40.8025804 28.6005695,40.8034023 28.5987008,40.8041765 C28.6031444,40.8023356 28.6075985,40.8004198 28.6120829,40.798383 Z"></path>
            </g>
        </g>
        <g id="velo-de-route" transform="translate(7.000000, 8.000000)" fill="#FFFFFF">
            <path d="M28.3427229,17.9864764 C28.3427229,15.6284462 26.2564284,13.7100145 23.6920267,13.7100145 C23.2798758,13.7100145 22.8801878,13.7598497 22.4994134,13.8528215 L23.9378603,17.8629982 C23.9834111,17.9899871 23.9083708,18.1268623 23.7702704,18.168748 C23.7428873,18.1770606 23.7151093,18.1810151 23.68777,18.1810151 C23.5772283,18.1810151 23.4742783,18.1164917 23.4377675,18.0146827 L21.9989256,14.0034972 C20.2693576,14.6273446 19.0414622,16.1774803 19.0414622,17.9864764 C19.0414622,20.3445873 21.1277127,22.2629786 23.6920267,22.2629786 C26.2564284,22.2629786 28.3427229,20.3445873 28.3427229,17.9864764 Z M21.3967605,12.3247989 L21.2104325,11.8052623 L16.7778358,11.8052623 C16.7699807,11.8170452 16.7624328,11.8288281 16.7542705,11.8405707 C16.5080859,12.1945819 13.8978701,15.9467456 12.9109811,17.3654133 L13.2474774,18.2978755 L21.3967605,12.3247989 Z M11.3324152,17.9864764 C11.3324152,18.0822729 11.3289484,18.1773431 11.3228486,18.2717676 L12.7352728,18.4160272 L12.5456536,17.8905589 C12.5392466,17.8997188 12.5356482,17.9049243 12.5356482,17.9049243 C12.0724612,17.8612631 11.612346,17.4018515 11.9757427,16.3113695 L10.5102637,12.2504295 L9.18679066,14.1298404 C10.4857768,14.9956002 11.3324152,16.4017184 11.3324152,17.9864764 Z M10.8058169,17.9864764 C10.8058169,16.5718036 10.0547562,15.3156347 8.90018957,14.5367536 L6.60900455,17.7903236 L10.7989273,18.21822 C10.8034033,18.1414698 10.8058169,18.0642354 10.8058169,17.9864764 Z M10.7408259,18.6995025 L6.12729882,18.2283081 C6.03654839,18.219027 5.95755866,18.167255 5.91841485,18.0913925 C5.87931494,18.0155705 5.88572188,17.9265128 5.93535376,17.856098 L8.45885637,14.2726071 C7.77928135,13.9148027 6.99276301,13.7100145 6.15516464,13.7100145 C3.59080679,13.7100145 1.50455625,15.6284462 1.50455625,17.9864764 C1.50455625,20.3445873 3.59080679,22.2629786 6.15516464,22.2629786 C8.4553896,22.2629786 10.3705835,20.7193396 10.7408259,18.6995025 Z M12.271647,15.5938239 C12.7764792,14.4539909 13.6117078,12.6906737 14.0337763,11.8052623 L10.9044663,11.8052623 L12.271647,15.5938239 Z M10.2539859,10.0028841 L10.7296796,11.3210341 L14.2651724,11.3210341 L10.7826027,10.0028841 L10.2539859,10.0028841 Z M12.5448637,7.34556043 C12.5448637,7.34556043 16.1263021,9.63874441 16.6269654,9.96535637 C17.0101973,10.2152989 17.2178086,10.7123188 17.0176135,11.3210341 L21.0367429,11.3210341 L20.7998176,10.6605871 L20.2214811,10.6605871 C20.0075066,10.6605871 19.8031865,10.57847 19.6578893,10.434049 L15.899075,6.69120664 L15.7338109,6.6826923 L16.0696928,7.5275899 L12.5448637,7.34556043 Z M28.8693211,17.9864764 C28.8693211,20.6115585 26.5468035,22.7472069 23.6920267,22.7472069 C20.8373377,22.7472069 18.514864,20.6115585 18.514864,17.9864764 C18.514864,15.9634111 19.8944197,14.2313266 21.8337932,13.5431576 L21.5726444,12.8151204 L13.2805653,18.8928307 C13.233347,18.927453 13.1753334,18.9456115 13.1163983,18.9456115 C13.091341,18.9456115 13.0661082,18.942343 13.0414458,18.9356042 C13.0398222,18.9351603 13.0383301,18.9344743 13.0366626,18.9339901 L11.2649667,18.7530501 C10.8650592,21.0149206 8.72614886,22.7472069 6.15516464,22.7472069 C3.30043175,22.7472069 0.977958017,20.6115585 0.977958017,17.9864764 C0.977958017,15.3614347 3.30043175,13.2257863 6.15516464,13.2257863 C7.09817043,13.2257863 7.98303099,13.4589825 8.74536969,13.8657343 L10.2976496,11.6614465 L9.69912686,10.0028841 L8.09462593,10.0028841 C7.94924093,10.0028841 7.83132681,9.89445728 7.83132681,9.76076993 C7.83132681,9.62704222 7.94924093,9.5186558 8.09462593,9.5186558 L9.42735829,9.5186558 C9.42735829,9.5186558 8.62135581,9.23102421 8.18243618,9.07477989 C7.71613345,8.90877031 7.48706322,8.68259536 7.39253884,8.1735504 C7.31947333,7.78027635 7.1590364,6.8147252 7.1590364,6.8147252 C7.33180451,6.43061114 8.80597237,3.61663967 14.2527095,3.51123932 C17.198149,3.45422144 17.334889,3.45744963 17.9375806,4.44850347 C18.1261906,4.75869202 20.9266839,9.31249562 20.9266839,9.31249562 L24.1883017,9.68422151 C24.4964494,9.71936841 24.7278015,9.96011056 24.7278015,10.2456035 L24.7278015,10.6605871 L24.7240715,10.6605871 C24.7183667,10.9580243 24.6557453,11.3998019 24.3697147,11.6955846 C24.1813242,11.8904462 23.9202193,11.9934254 23.6147045,11.9934254 C23.4692757,11.9934254 23.3514054,11.8850389 23.3514054,11.7513112 C23.3514054,11.6176239 23.4692757,11.5091971 23.6147045,11.5091971 C23.7720258,11.5091971 23.886868,11.4662219 23.9761703,11.373815 C24.141215,11.2031649 24.1892232,10.8937833 24.196069,10.6605871 L21.3543255,10.6605871 L22.3341932,13.3922801 C22.7671447,13.2839744 23.2223011,13.2257863 23.6920267,13.2257863 C26.5468035,13.2257863 28.8693211,15.3614347 28.8693211,17.9864764 Z M17.3061894,2.23251354 L16.9882996,1.69029895 C17.1764707,1.52888953 18.6113631,0.718937065 20.0662662,0.935992382 C22.0622929,1.23371206 22.0307848,2.91224896 22.0559299,3.02059504 L21.7622197,3.50288638 C21.7622197,3.50288638 21.6004663,3.54440895 21.3750823,3.59218614 C21.198979,3.94284811 20.7980184,4.7507426 20.5647792,5.21104192 C20.4557734,5.42640243 20.1733412,5.3898432 19.8434713,5.30934025 C19.4709908,5.2185071 19.1107537,5.13683393 19.1107537,5.13683393 C19.1107537,5.13683393 17.9749691,3.42298872 17.9120845,2.98597271 C17.9064236,2.94650811 17.902869,2.9068821 17.9012893,2.86721573 C17.6078863,2.74268837 17.408876,2.65556763 17.408876,2.65556763 L17.3061894,2.23251354 Z" id="Page-1"></path>
        </g>
    </g>
</svg>