<?xml version="1.0" encoding="UTF-8"?>
<svg width="44px" height="53px" viewBox="0 0 44 53" version="1.1" xmlns="http://www.w3.org/2000/svg" xmlns:xlink="http://www.w3.org/1999/xlink">
    <!-- Generator: Sketch 49.2 (51160) - http://www.bohemiancoding.com/sketch -->
    <title>location-pin-unselected</title>
    <desc>Created with Sketch.</desc>
    <defs>
        <linearGradient x1="50%" y1="0%" x2="50%" y2="100%" id="linearGradient-1">
            <stop stop-color="#19A4EA" offset="0%"></stop>
            <stop stop-color="#0082C3" offset="100%"></stop>
        </linearGradient>
        <path d="M7.52,2.74985211e-16 C3.36,2.74985211e-16 0,3.37272727 0,7.54848485 L0,32.2015152 C0,36.3772727 3.36,39.75 7.52,39.75 L13.04,39.75 C13.36,39.75 15.2,39.9106061 15.36,40.1515152 L21.76,52.8393939 L28.16,40.1515152 C28.32,39.9106061 30.16,39.75 30.48,39.75 L36.08,39.75 C40.24,39.75 43.6,36.3772727 43.6,32.2015152 L43.6,7.54848485 C43.6,3.37272727 40.24,0 36.08,0 C31.5534722,4.35829201e-17 28.1585764,7.62701102e-17 25.8953125,9.80615702e-17 C21.8119097,1.37377935e-16 15.6868056,1.96352482e-16 7.52,2.74985211e-16 Z" id="path-2"></path>
        <filter x="-18.3%" y="-13.2%" width="136.7%" height="130.3%" filterUnits="objectBoundingBox" id="filter-3">
            <feOffset dx="0" dy="1" in="SourceAlpha" result="shadowOffsetOuter1"></feOffset>
            <feGaussianBlur stdDeviation="2.5" in="shadowOffsetOuter1" result="shadowBlurOuter1"></feGaussianBlur>
            <feComposite in="shadowBlurOuter1" in2="SourceAlpha" operator="out" result="shadowBlurOuter1"></feComposite>
            <feColorMatrix values="0 0 0 0 0   0 0 0 0 0   0 0 0 0 0  0 0 0 0.271993886 0" type="matrix" in="shadowBlurOuter1"></feColorMatrix>
        </filter>
    </defs>
    <g id="location-pin-unselected" stroke="none" stroke-width="1" fill="none" fill-rule="evenodd">
        <g id="location-pin">
            <g id="Path">
                <use fill="black" fill-opacity="1" filter="url(#filter-3)" xlink:href="#path-2"></use>
                <use fill="url(#linearGradient-1)" fill-rule="evenodd" xlink:href="#path-2"></use>
                <path stroke="#FFFFFF" stroke-width="1.6" d="M21.7603516,51.0637612 L27.493587,39.7089163 C27.8561269,39.1630466 29.4327868,38.95 30.48,38.95 L36.08,38.95 C39.7974937,38.95 42.8,35.9361206 42.8,32.2015152 L42.8,7.54848485 C42.8,3.81387942 39.7974937,0.8 36.08,0.8 C29.8560243,0.8 29.8560243,0.8 25.8953125,0.8 C18.7493576,0.8 18.7493576,0.8 7.52,0.8 C3.80250629,0.8 0.8,3.81387942 0.8,7.54848485 L0.8,32.2015152 C0.8,35.9361206 3.80250629,38.95 7.52,38.95 L13.04,38.95 C14.0872132,38.95 15.6638731,39.1630466 16.0742749,39.7912217 L21.7603516,51.0637612 Z M28.6049411,40.8017139 C28.6026515,40.8025804 28.6005695,40.8034023 28.5987008,40.8041765 C28.6031444,40.8023356 28.6075985,40.8004198 28.6120829,40.798383 Z"></path>
            </g>
        </g>
        <g id="velo-de-ville" transform="translate(8.000000, 8.000000)" fill="#FFFFFF">
            <path d="M8.82017631,1.81235244 C8.66633444,0.459050208 9.53167497,0 10.3324612,0 C11.7928784,0 12.2530833,1.07100578 12.3969199,1.45015761 C12.4481071,1.58510358 12.4867277,1.86873655 12.4454257,1.98112888 C12.4238942,2.03964306 12.376429,2.07067521 12.2447589,2.07067521 C12.1747216,2.07067521 12.0849538,2.06925516 11.9411973,2.06800218 C11.92751,2.26739311 11.8754023,2.46799525 11.7786308,2.65811413 C11.6556854,2.89960519 11.2477883,3.70088608 11.02551,4.13738265 C10.9308196,4.32349198 10.7389175,4.29726293 10.4876237,4.20387413 C10.2083151,4.1000856 9.78516988,3.93197741 9.78516988,3.93197741 C9.78516988,3.93197741 9.07235052,2.47434369 9.06266536,2.04858099 L8.82017631,1.81235244 Z M20.9783269,23.5738216 C18.7160029,23.5738216 16.8755034,21.6530446 16.8755034,19.2920956 C16.8755034,17.6100113 17.8099207,16.1516258 19.1653621,15.4518781 L20.7243918,19.4012719 C20.768055,19.5119519 20.8704695,19.5788192 20.978407,19.5788192 C21.0133055,19.5788192 21.0487244,19.5718443 21.0829426,19.5571427 C21.2232172,19.4968326 21.2900528,19.3293091 21.2322621,19.1829192 L19.6729122,15.2326901 C20.0831705,15.0885973 20.5221641,15.0104114 20.9783269,15.0104114 C23.2406509,15.0104114 25.0811505,16.9311884 25.0811505,19.2920956 C25.0811505,21.6530446 23.2406509,23.5738216 20.9783269,23.5738216 Z M12.2096202,12.0763492 L11.0512037,10.7658989 L11.3296319,8.08072041 L11.7656239,6.7199003 C13.0282158,7.09328842 14.6691291,7.55455223 15.7647122,7.77294669 C16.3471422,7.92054777 16.7335478,7.77165194 16.9749563,7.58474905 L18.5012886,7.58474905 L18.8550769,9.59139697 L17.4954733,10.6580591 C17.3954601,10.7364956 17.3589207,10.8756182 17.406546,10.996322 L17.8328929,12.0763492 L12.2096202,12.0763492 Z M13.7546424,18.0256667 C13.7546424,18.0256667 14.3201034,15.9926644 14.4238786,15.6282977 C14.6093773,14.9769986 14.5106848,14.62796 14.2264135,14.3293331 C14.0439564,14.1389218 13.3933302,13.410272 12.7280961,12.6610734 L18.0289973,12.6610734 L13.7546424,18.0256667 Z M10.1887847,19.0512728 C10.1231898,17.6219564 9.46251817,16.3528962 8.46030479,15.5081787 L9.73426279,13.6114589 L12.3586595,15.8934283 L11.7816724,19.0512728 L10.1887847,19.0512728 Z M9.63877197,19.0512728 L6.08063832,19.0512728 L8.14449671,15.9784639 C9.00583512,16.7178058 9.57441772,17.8156672 9.63877197,19.0512728 Z M5.54215174,23.5679326 C3.27982772,23.5679326 1.4393282,21.6471556 1.4393282,19.2862066 C1.4393282,16.9252576 3.27982772,15.0045224 5.54215174,15.0045224 C6.32845021,15.0045224 7.0636815,15.2367414 7.68853405,15.6386139 L5.31274965,19.175819 C5.25275772,19.2651147 5.2453938,19.3818507 5.29361947,19.4785808 C5.34184513,19.5753109 5.43765612,19.6359969 5.54215174,19.6359969 L9.63124797,19.6359969 C9.46015691,21.8339331 7.69161569,23.5679326 5.54215174,23.5679326 Z M20.9783269,14.4371729 C20.4481247,14.4371729 19.9384535,14.5304364 19.4633206,14.7017188 L17.9953794,10.9830404 L19.0270885,10.1736151 L19.3444574,12.1070055 L22.5687734,12.1070055 L23.4204266,7.0226621 L16.8993161,7.01146881 C16.8993161,7.01146881 10.0830484,4.43805615 9.96902773,4.39495363 C9.61471917,4.26101003 9.22271054,4.39850374 8.76158513,4.85605037 C8.37910157,5.23561986 8.07830148,5.72211034 8.04152191,6.27204338 C7.90721043,8.27906719 7.84141541,9.33988206 7.76045232,10.4474331 C7.67364612,11.6348407 7.75989202,11.9198938 9.05077904,13.0144973 C9.13222238,13.0857501 9.30295325,13.2349383 9.30295325,13.2349383 L8.00414202,15.1687046 C7.28960173,14.7017188 6.44563257,14.4312421 5.54215174,14.4312421 C2.97698655,14.4312421 0.890035867,16.6091724 0.890035867,19.2862066 C0.890035867,21.9632407 2.97698655,24.141171 5.54215174,24.141171 C7.99465697,24.141171 10.0097694,22.1503524 10.1821412,19.6359969 L11.6754959,19.6359969 C11.530899,20.4336442 11.4067529,21.1243286 11.3570865,21.4164819 C11.2475482,22.0605973 11.4605415,22.9265737 12.3380886,23.1395386 L13.3653553,19.4287957 L18.2936181,13.2435004 L18.9556504,14.9205727 C17.400823,15.7072355 16.326171,17.3711515 16.326171,19.2920956 C16.326171,21.9691297 18.4131217,24.14706 20.9783269,24.14706 C23.5435321,24.14706 25.6304828,21.9691297 25.6304828,19.2920956 C25.6304828,16.6151032 23.5435321,14.4371729 20.9783269,14.4371729 Z" id="Fill-1"></path>
        </g>
    </g>
</svg>