<?xml version="1.0" encoding="UTF-8"?>
<svg width="44px" height="53px" viewBox="0 0 44 53" version="1.1" xmlns="http://www.w3.org/2000/svg" xmlns:xlink="http://www.w3.org/1999/xlink">
    <!-- Generator: Sketch 49.2 (51160) - http://www.bohemiancoding.com/sketch -->
    <title>location-pin-unselected</title>
    <desc>Created with Sketch.</desc>
    <defs>
        <linearGradient x1="50%" y1="0%" x2="50%" y2="100%" id="linearGradient-1">
            <stop stop-color="#19A4EA" offset="0%"></stop>
            <stop stop-color="#0082C3" offset="100%"></stop>
        </linearGradient>
        <path d="M7.52,2.74985211e-16 C3.36,2.74985211e-16 0,3.37272727 0,7.54848485 L0,32.2015152 C0,36.3772727 3.36,39.75 7.52,39.75 L13.04,39.75 C13.36,39.75 15.2,39.9106061 15.36,40.1515152 L21.76,52.8393939 L28.16,40.1515152 C28.32,39.9106061 30.16,39.75 30.48,39.75 L36.08,39.75 C40.24,39.75 43.6,36.3772727 43.6,32.2015152 L43.6,7.54848485 C43.6,3.37272727 40.24,0 36.08,0 C31.5534722,4.35829201e-17 28.1585764,7.62701102e-17 25.8953125,9.80615702e-17 C21.8119097,1.37377935e-16 15.6868056,1.96352482e-16 7.52,2.74985211e-16 Z" id="path-2"></path>
        <filter x="-18.3%" y="-13.2%" width="136.7%" height="130.3%" filterUnits="objectBoundingBox" id="filter-3">
            <feOffset dx="0" dy="1" in="SourceAlpha" result="shadowOffsetOuter1"></feOffset>
            <feGaussianBlur stdDeviation="2.5" in="shadowOffsetOuter1" result="shadowBlurOuter1"></feGaussianBlur>
            <feComposite in="shadowBlurOuter1" in2="SourceAlpha" operator="out" result="shadowBlurOuter1"></feComposite>
            <feColorMatrix values="0 0 0 0 0   0 0 0 0 0   0 0 0 0 0  0 0 0 0.271993886 0" type="matrix" in="shadowBlurOuter1"></feColorMatrix>
        </filter>
    </defs>
    <g id="location-pin-unselected" stroke="none" stroke-width="1" fill="none" fill-rule="evenodd">
        <g id="location-pin">
            <g id="Path">
                <use fill="black" fill-opacity="1" filter="url(#filter-3)" xlink:href="#path-2"></use>
                <use fill="url(#linearGradient-1)" fill-rule="evenodd" xlink:href="#path-2"></use>
                <path stroke="#FFFFFF" stroke-width="1.6" d="M21.7603516,51.0637612 L27.493587,39.7089163 C27.8561269,39.1630466 29.4327868,38.95 30.48,38.95 L36.08,38.95 C39.7974937,38.95 42.8,35.9361206 42.8,32.2015152 L42.8,7.54848485 C42.8,3.81387942 39.7974937,0.8 36.08,0.8 C29.8560243,0.8 29.8560243,0.8 25.8953125,0.8 C18.7493576,0.8 18.7493576,0.8 7.52,0.8 C3.80250629,0.8 0.8,3.81387942 0.8,7.54848485 L0.8,32.2015152 C0.8,35.9361206 3.80250629,38.95 7.52,38.95 L13.04,38.95 C14.0872132,38.95 15.6638731,39.1630466 16.0742749,39.7912217 L21.7603516,51.0637612 Z M28.6049411,40.8017139 C28.6026515,40.8025804 28.6005695,40.8034023 28.5987008,40.8041765 C28.6031444,40.8023356 28.6075985,40.8004198 28.6120829,40.798383 Z"></path>
            </g>
        </g>
        <g id="velo-tout-chemin" transform="translate(6.000000, 8.000000)" fill="#FFFFFF">
            <path d="M15.9980431,9.02349788 C15.9980431,9.02349788 17.8384298,10.304261 18.9008163,11.0143719 C19.6914538,11.5428567 20.705524,10.9037058 20.705524,10.9037058 L17.2690872,8.1615753 L15.9980431,9.02349788 Z M29.1982021,21.2564362 C29.1633309,20.1515871 28.6903831,19.1261965 27.8665371,18.3690885 C27.0753295,17.6419342 26.051235,17.2458956 24.9702251,17.2458956 C24.9256146,17.2458956 24.8810991,17.2465458 24.8362985,17.247939 C24.3146545,17.2636356 23.818,17.3720261 23.3615377,17.5555097 C23.9647539,18.9047251 24.5366145,19.9789704 24.888748,20.6080438 C24.8982972,20.6074401 24.9076564,20.6060469 24.9173006,20.6057683 C25.3726227,20.5920221 25.7531187,20.9417138 25.7671813,21.3867928 C25.7812438,21.8319182 25.4235043,22.2038545 24.9681823,22.2176007 C24.5128602,22.2313004 24.1323166,21.8816088 24.1182541,21.4365298 C24.1125056,21.2533712 24.1704185,21.0831229 24.2714692,20.9446395 C23.9145374,20.3070675 23.3392562,19.2263671 22.7318117,17.8719969 C21.4945462,18.6272009 20.6873757,19.9866794 20.7355019,21.5116694 C20.7703732,22.6165185 21.2432734,23.6418627 22.0671669,24.3990171 C22.8909654,25.1561251 23.965419,25.5551822 25.0974056,25.5202131 C26.2276343,25.4861263 27.2766233,25.0238181 28.0512029,24.2185521 C28.825735,23.4132396 29.2330734,22.3612854 29.1982021,21.2564362 Z M21.4008593,14.5878676 L21.2251727,14.132061 L18.3219244,14.4921552 C18.2785491,15.2154085 18.194744,16.586497 18.1239562,17.7419655 L21.4008593,14.5878676 Z M16.9792849,18.8437032 C16.9792849,18.8437032 16.6348004,15.500781 16.5452942,14.712512 L13.7327873,15.0613213 C13.7932657,15.3300684 13.8388264,15.5364468 13.8539817,15.6128867 C13.9655793,16.1759692 13.9356489,16.5063883 13.6467493,17.3675679 L14.9423553,20.8042984 L16.9792849,18.8437032 Z M14.2931983,21.0805687 L13.2893899,18.4178967 L12.4156124,21.0805687 L14.2931983,21.0805687 Z M12.5764289,12.2702432 L12.5921067,12.5107549 L13.2413588,12.9340072 L13.5789071,14.3838576 L16.1587171,14.0638874 L12.5764289,12.2702432 Z M11.955682,16.3809545 L11.8250335,16.1090959 L10.6684375,17.5909433 C10.9838944,17.862709 11.2651451,18.1714407 11.5053484,18.5099404 L11.955682,16.3809545 Z M11.3746998,22.3213472 C11.2218648,22.1932662 11.0796717,22.0141479 11.0215212,21.7716393 L7.9755097,21.7716393 C7.83526442,22.0211603 7.56403804,22.1903869 7.25223934,22.1903869 C6.79667974,22.1903869 6.42734818,21.8294104 6.42734818,21.3840992 C6.42734818,20.9387881 6.79667974,20.5778115 7.25223934,20.5778115 C7.31419051,20.5778115 7.37438386,20.5850561 7.43248683,20.5976878 L9.53602345,17.9025543 C8.8766046,17.4877541 8.09295087,17.2459421 7.25223934,17.2459421 C4.91795364,17.2459421 3.01884636,19.10228 3.01884636,21.3840992 C3.01884636,23.6659185 4.91795364,25.52221 7.25223934,25.52221 C9.2566731,25.52221 10.9390938,24.1530255 11.3746998,22.3213472 Z M10.0974321,18.3225094 L7.98923967,21.0236336 C7.9988364,21.0423024 8.00800556,21.0611105 8.01612952,21.0805687 L11.0359638,21.0805687 C11.0766311,20.7803355 11.1434757,20.3866653 11.223195,19.9543573 C10.9855572,19.3245408 10.5964146,18.765963 10.0974321,18.3225094 Z M28.7361814,24.847997 C27.7896683,25.8321956 26.5076497,26.3971357 25.1263858,26.4388386 C25.0717509,26.4405105 25.0171636,26.4413464 24.9627663,26.4413464 C23.6415057,26.4413464 22.3901301,25.9573044 21.4231409,25.0685861 C20.4163394,24.1433196 19.8383502,22.8901882 19.7957826,21.5399976 C19.7353042,19.6252849 20.7774045,17.9228949 22.3601047,17.0167617 C22.2439938,16.7403985 21.6746037,15.2942168 21.6746037,15.2942168 L18.0607699,18.7726039 C18.0263261,19.3335966 18.0030945,19.7113843 18.0030945,19.7113843 C18.0030945,19.7113843 17.6516736,19.6696814 17.3572156,19.4497889 C17.3572156,19.4497889 15.109823,21.6120258 15.0481569,21.6723046 C14.9718581,21.7468869 14.9162731,21.7716393 14.7991645,21.7716393 L12.4090563,21.7716393 C12.2056721,24.3796053 9.97134441,26.4413464 7.25223934,26.4413464 C4.39954021,26.4413464 2.07865191,24.1726231 2.07865191,21.3840992 C2.07865191,18.5955754 4.39954021,16.3268521 7.25223934,16.3268521 C8.30716697,16.3268521 9.28888391,16.6377665 10.107884,17.1698272 L11.4860599,15.404047 L10.0775736,12.4737424 C9.81228574,12.1734627 8.99452085,11.1032576 9.51545224,9.8226803 C10.1316383,8.30799997 14.0929022,4.51196476 14.5873238,4.02866583 C15.0718162,3.55502637 15.9578508,3.45299814 16.6561317,4.04738106 C17.4712836,4.74114515 23.9306428,10.2360409 23.9306428,10.2360409 C23.9306428,10.2360409 22.8390385,10.8607955 22.1182861,10.3333323 C21.2590463,9.7045839 18.8006682,7.84011905 18.0442369,7.25748539 L14.1427862,9.95475507 C14.9933795,10.5462587 17.606398,12.3651197 17.9375802,12.6155695 C18.2776464,12.8727531 18.3774619,13.1046734 18.3588386,13.7910071 L20.9707168,13.4670896 C20.7195866,12.8079696 20.4661759,12.1236792 20.4661759,12.1236792 L20.1409798,12.1812646 C20.1196959,12.1850262 20.0984596,12.1868373 20.0775558,12.1868373 C19.9099456,12.1868373 19.7611013,12.0699019 19.7301732,11.9029044 C19.6953495,11.7151483 19.8228624,11.535287 20.0149396,11.5013395 L23.8193302,10.8276839 C24.0113598,10.7938757 24.195313,10.9182879 24.2301368,11.106044 C24.2649605,11.2937537 24.1374476,11.473615 23.9453704,11.5076089 L21.1715355,11.9988026 C21.3762974,12.5529222 22.8876398,16.4519609 22.9952942,16.7092374 C23.5558477,16.4826576 24.1660952,16.3485859 24.8073183,16.329267 C26.1877271,16.2860315 27.5037143,16.7741138 28.5105632,17.6994731 C29.5174122,18.624786 30.0953063,19.8779174 30.1379215,21.228108 C30.1805842,22.578345 29.682742,23.8638914 28.7361814,24.847997 Z M17.1024746,0.77523317 L17.0198097,0.137754116 C17.2540745,0.0456640047 18.8788198,-0.246813819 20.1272973,0.466965817 C21.8400285,1.44619532 21.166072,3.06870884 21.1474962,3.18281142 L20.6932668,3.55066103 C20.6932668,3.55066103 20.4600473,3.528695 20.1686773,3.48392704 C20.1309555,3.51290547 18.8801975,4.33739758 18.3849208,4.65838943 C18.1737452,4.79543327 17.9577238,4.62151624 17.7264521,4.38471973 C17.4653926,4.11736583 17.2093689,3.8643154 17.2093689,3.8643154 C17.2093689,3.8643154 17.212647,2.20260668 17.3482839,1.54292941 C17.1583447,1.35090086 17.0338248,1.22235551 17.0338248,1.22235551 L17.1024746,0.77523317 Z" id="Fill-1"></path>
        </g>
    </g>
</svg>