<?xml version="1.0" encoding="UTF-8"?>
<svg width="44px" height="53px" viewBox="0 0 44 53" version="1.1" xmlns="http://www.w3.org/2000/svg" xmlns:xlink="http://www.w3.org/1999/xlink">
    <!-- Generator: Sketch 49.2 (51160) - http://www.bohemiancoding.com/sketch -->
    <title>location-pin-unselected</title>
    <desc>Created with Sketch.</desc>
    <defs>
        <linearGradient x1="50%" y1="0%" x2="50%" y2="100%" id="linearGradient-1">
            <stop stop-color="#19A4EA" offset="0%"></stop>
            <stop stop-color="#0082C3" offset="100%"></stop>
        </linearGradient>
        <path d="M7.52,2.74985211e-16 C3.36,2.74985211e-16 0,3.37272727 0,7.54848485 L0,32.2015152 C0,36.3772727 3.36,39.75 7.52,39.75 L13.04,39.75 C13.36,39.75 15.2,39.9106061 15.36,40.1515152 L21.76,52.8393939 L28.16,40.1515152 C28.32,39.9106061 30.16,39.75 30.48,39.75 L36.08,39.75 C40.24,39.75 43.6,36.3772727 43.6,32.2015152 L43.6,7.54848485 C43.6,3.37272727 40.24,0 36.08,0 C31.5534722,4.35829201e-17 28.1585764,7.62701102e-17 25.8953125,9.80615702e-17 C21.8119097,1.37377935e-16 15.6868056,1.96352482e-16 7.52,2.74985211e-16 Z" id="path-2"></path>
        <filter x="-18.3%" y="-13.2%" width="136.7%" height="130.3%" filterUnits="objectBoundingBox" id="filter-3">
            <feOffset dx="0" dy="1" in="SourceAlpha" result="shadowOffsetOuter1"></feOffset>
            <feGaussianBlur stdDeviation="2.5" in="shadowOffsetOuter1" result="shadowBlurOuter1"></feGaussianBlur>
            <feComposite in="shadowBlurOuter1" in2="SourceAlpha" operator="out" result="shadowBlurOuter1"></feComposite>
            <feColorMatrix values="0 0 0 0 0   0 0 0 0 0   0 0 0 0 0  0 0 0 0.271993886 0" type="matrix" in="shadowBlurOuter1"></feColorMatrix>
        </filter>
    </defs>
    <g id="location-pin-unselected" stroke="none" stroke-width="1" fill="none" fill-rule="evenodd">
        <g id="location-pin">
            <g id="Path">
                <use fill="black" fill-opacity="1" filter="url(#filter-3)" xlink:href="#path-2"></use>
                <use fill="url(#linearGradient-1)" fill-rule="evenodd" xlink:href="#path-2"></use>
                <path stroke="#FFFFFF" stroke-width="1.6" d="M21.7603516,51.0637612 L27.493587,39.7089163 C27.8561269,39.1630466 29.4327868,38.95 30.48,38.95 L36.08,38.95 C39.7974937,38.95 42.8,35.9361206 42.8,32.2015152 L42.8,7.54848485 C42.8,3.81387942 39.7974937,0.8 36.08,0.8 C29.8560243,0.8 29.8560243,0.8 25.8953125,0.8 C18.7493576,0.8 18.7493576,0.8 7.52,0.8 C3.80250629,0.8 0.8,3.81387942 0.8,7.54848485 L0.8,32.2015152 C0.8,35.9361206 3.80250629,38.95 7.52,38.95 L13.04,38.95 C14.0872132,38.95 15.6638731,39.1630466 16.0742749,39.7912217 L21.7603516,51.0637612 Z M28.6049411,40.8017139 C28.6026515,40.8025804 28.6005695,40.8034023 28.5987008,40.8041765 C28.6031444,40.8023356 28.6075985,40.8004198 28.6120829,40.798383 Z"></path>
            </g>
        </g>
        <g id="vtt" transform="translate(3.000000, 5.000000)" fill="#FFFFFF">
            <path d="M29.6069067,27.2040237 C28.5466862,28.2792818 27.1099836,28.897028 25.5617619,28.9434103 C25.4992692,28.9453137 25.4369342,28.9462153 25.3747044,28.9462153 C23.8950249,28.9462153 22.4934087,28.418629 21.4097272,27.4497096 C20.2804911,26.440068 19.6317341,25.0721405 19.5830234,23.5978744 C19.5342601,22.1236583 20.0913821,20.7195667 21.1517604,19.6443086 C22.108247,18.6742371 23.3712008,18.0767268 24.7460944,17.9349753 L24.707694,16.660714 C24.707694,16.660714 18.1773041,20.355721 18.0334866,20.4336092 C17.9119203,20.4994761 17.7907221,20.5008786 17.6824118,20.4660167 C17.4996152,20.4071122 15.6888502,19.7478924 15.6888502,19.7478924 C15.4303574,20.2812388 15.0804925,20.7772691 14.6458837,21.2179511 C13.5856632,22.2932092 12.1489606,22.9109554 10.6006863,22.9573878 C10.5382461,22.9592411 10.4758586,22.9601427 10.4136814,22.9601427 C8.93400188,22.9601427 7.5323331,22.4325564 6.44870416,21.4636371 C5.31946812,20.4540455 4.67071105,19.0860679 4.62200035,17.6118519 C4.57318444,16.1375857 5.13030649,14.7334941 6.19073735,13.658236 C7.2509578,12.5829779 8.6876078,11.9652817 10.2358821,11.9188494 C11.9243443,11.8683097 13.4690942,12.513755 14.5656636,13.5824515 L13.3128623,9.459435 C13.3128623,9.459435 12.5514814,7.40133279 13.5752478,6.36183816 C13.6882397,6.24708452 13.9052811,6.10688573 14.1982818,5.94905566 C14.1982292,5.94870503 14.198124,5.94830432 14.1980714,5.9479537 L15.61873,5.24716011 L15.505738,5.12334038 L14.1577772,5.65889074 C14.1141164,5.29815059 14.0926017,4.89127858 14.1361046,4.50970145 C14.2628787,3.39883016 15.1251002,3.15634986 15.6390348,2.98594747 C16.9547498,2.54972337 19.5084844,2.0354107 20.2220488,2.17901553 C20.7632847,2.28795886 21.0288263,2.8533622 21.124354,3.11542724 C21.2479719,3.0669412 21.3639623,3.02100969 21.470221,2.97823379 C22.0613774,2.7402114 22.3399648,3.05877671 23.0164964,3.95586865 C23.8560458,5.0691943 24.1180105,6.21362515 24.1180105,6.21362515 L25.9719102,13.3097676 C25.9719102,13.3097676 24.7941739,13.3017033 24.4970176,12.6570093 C24.2915489,12.2111681 22.4881484,7.46750021 22.4881484,7.46750021 L18.9365282,8.47769285 C19.760244,9.65528254 21.0735392,11.5319127 21.3060986,11.8586926 C21.6386569,12.3259217 21.7818959,12.6729876 21.6957316,13.2131461 C21.6639066,13.353946 21.6026237,13.6130057 21.5228244,13.9454456 L24.6490413,14.7129075 L24.6295254,14.0650579 C24.6258432,13.9442936 24.6833912,13.8292895 24.7840741,13.7559093 C24.8848621,13.682479 25.0165808,13.6597386 25.1379368,13.6946506 L26.3627531,14.0468756 L26.3509699,13.5063164 C26.3463408,13.2965942 26.5210892,13.1230863 26.7412868,13.1186785 C26.9593802,13.1137197 27.1438076,13.2807661 27.1483841,13.4904883 L27.1971474,15.7189929 C27.2017765,15.928665 27.0269229,16.102223 26.8067253,16.1065807 C26.8039374,16.1066308 26.8010968,16.1066809 26.7982562,16.1066809 C26.5817934,16.1066809 26.4042045,15.9417883 26.399628,15.7347709 L26.380007,14.8366772 L25.4339358,14.5645944 L25.5345134,17.904371 C28.5798789,17.9801054 31.0786431,20.3149486 31.1755911,23.2504579 C31.224407,24.7246739 30.6672849,26.1287656 29.6069067,27.2040237 Z M21.3443938,14.6860098 C21.0682789,15.8269845 20.7063678,17.3072113 20.498269,18.1569191 L24.6814975,15.7921227 L24.672818,15.5031098 L21.3443938,14.6860098 Z M17.0391255,12.8446923 L19.6297877,13.480721 C19.6412027,13.3405723 19.6475677,13.2611313 19.6475677,13.2611313 L16.5948903,10.1274204 L17.0391255,12.8446923 Z M25.5772799,19.3246413 L25.675543,22.5848767 C26.033614,22.6995302 26.2970515,23.0155911 26.3095711,23.3962666 C26.3257729,23.8855348 25.9224105,24.2946108 25.408581,24.309988 C24.8948041,24.3254154 24.4651926,23.9412838 24.4490433,23.4520656 C24.4381544,23.1243841 24.6161116,22.8333677 24.8888073,22.671781 L24.7889662,19.3588019 C23.8137001,19.4854767 22.9203375,19.9221015 22.2371778,20.6148308 C21.4491797,21.4140491 21.0351387,22.4576009 21.0713299,23.5532953 C21.107521,24.6489896 21.5897358,25.6656938 22.4289696,26.4160754 C23.2682034,27.1665071 24.3656144,27.560907 25.514945,27.5262455 C26.6656432,27.4917843 27.7333333,27.0326696 28.5214366,26.2335014 C29.3094874,25.4343332 29.7235283,24.3907313 29.6873372,23.295037 C29.6160597,21.1399126 27.8029801,19.4206116 25.5772799,19.3246413 Z M16.5214034,14.6308119 C16.3841613,14.8174931 16.14813,15.1388133 15.8607054,15.5305084 C16.0708031,16.0728208 16.1944736,16.655605 16.2145681,17.2643853 C16.2347151,17.8735663 16.151181,18.4706759 15.9716458,19.037632 L17.3238674,19.5247965 L16.5232445,14.6276062 C16.5226659,14.6287081 16.5220872,14.6297099 16.5214034,14.6308119 Z M11.3994155,17.3906594 L12.6051894,17.8249801 C12.8717832,17.3214365 13.4264329,16.1931343 13.8857653,15.2503613 L11.3636979,17.2012232 C11.3831611,17.261981 11.3955755,17.3252433 11.3994155,17.3906594 Z M12.9046603,19.5601091 C12.9046603,19.5601091 12.4906193,19.1287938 12.4321244,18.5747606 L11.0750633,18.0859432 C10.9039972,18.2271938 10.6821163,18.316903 10.447558,18.3239155 C9.93383369,18.3393428 9.50416955,17.9552112 9.48802032,17.465993 C9.4718711,16.9767749 9.87518095,16.567699 10.3890104,16.5522716 C10.5418232,16.5477135 10.6915849,16.5791192 10.8273541,16.6375229 L13.4983417,14.5714064 C12.7131841,13.8072003 11.6202444,13.3339605 10.420099,13.3339605 C10.3744393,13.3339605 10.3286744,13.3346117 10.2826991,13.3360142 C9.13200087,13.3705254 8.06431075,13.8296401 7.27615481,14.6288083 C6.48815667,15.4279765 6.07411573,16.4715283 6.11025423,17.5672227 C6.14649794,18.6629671 6.62866021,19.6796212 7.46794661,20.4300028 C8.30728561,21.1804345 9.40448621,21.5747843 10.5539219,21.540223 C11.7046201,21.5057117 12.7723103,21.046597 13.5604136,20.2474288 C13.8589902,19.9446415 14.1035432,19.6066918 14.2906007,19.2442486 L13.377617,18.9153149 C13.0897189,19.3077613 12.9046603,19.5601091 12.9046603,19.5601091 Z M14.7131633,17.0944337 C14.4123248,17.5045114 14.1139586,17.9112832 13.8487326,18.272925 L14.5735015,18.5340383 C14.6874403,18.14049 14.7401489,17.7286591 14.7262616,17.3089644 C14.7238944,17.2369366 14.7193705,17.1654597 14.7131633,17.0944337 Z M18.1268049,19.4975481 L19.1530962,18.9173686 C19.2692444,17.8047442 19.4592477,15.5513454 19.5667163,14.2496354 L17.172738,13.6618925 L18.1268049,19.4975481 Z M23.7637795,4.43256457 C23.9407372,4.7253341 24.1182735,4.95143533 24.3708748,4.86468138 C24.9631358,4.66152086 26.0387165,4.28294907 26.3664353,4.17044943 C26.4152512,4.15366966 26.462489,4.13473606 26.50878,4.11465041 C26.7970463,4.22935396 27.0313416,4.30724218 27.0313416,4.30724218 L27.5935136,4.04733095 C27.6419613,3.93738585 28.7531018,2.47243622 27.2425967,1.08056628 C26.1416612,0.065965822 24.3943885,-0.030054571 24.1296358,0.00610960417 L24.0506256,0.664878622 L23.8649358,1.0966949 C23.8649358,1.0966949 23.9598322,1.25522622 24.1060169,1.49334878 C23.796604,2.12216465 23.3655196,3.78701902 23.3655196,3.78701902 C23.3655196,3.78701902 23.5638342,4.1020781 23.7637795,4.43256457 Z M24.8398862,7.51378234 L27.656322,12.3563758 C27.656322,12.3563758 26.4593854,12.6284085 26.0890579,11.9728452 L24.8398862,7.51378234 Z" id="Fill-1"></path>
        </g>
    </g>
</svg>