<?xml version="1.0" encoding="UTF-8"?>
<svg width="44px" height="53px" viewBox="0 0 44 53" version="1.1" xmlns="http://www.w3.org/2000/svg" xmlns:xlink="http://www.w3.org/1999/xlink">
    <!-- Generator: Sketch 49.2 (51160) - http://www.bohemiancoding.com/sketch -->
    <title>location-pin-unselected</title>
    <desc>Created with Sketch.</desc>
    <defs>
        <linearGradient x1="50%" y1="0%" x2="50%" y2="100%" id="linearGradient-1">
            <stop stop-color="#19A4EA" offset="0%"></stop>
            <stop stop-color="#0082C3" offset="100%"></stop>
        </linearGradient>
        <path d="M7.52,2.74985211e-16 C3.36,2.74985211e-16 0,3.37272727 0,7.54848485 L0,32.2015152 C0,36.3772727 3.36,39.75 7.52,39.75 L13.04,39.75 C13.36,39.75 15.2,39.9106061 15.36,40.1515152 L21.76,52.8393939 L28.16,40.1515152 C28.32,39.9106061 30.16,39.75 30.48,39.75 L36.08,39.75 C40.24,39.75 43.6,36.3772727 43.6,32.2015152 L43.6,7.54848485 C43.6,3.37272727 40.24,0 36.08,0 C31.5534722,4.35829201e-17 28.1585764,7.62701102e-17 25.8953125,9.80615702e-17 C21.8119097,1.37377935e-16 15.6868056,1.96352482e-16 7.52,2.74985211e-16 Z" id="path-2"></path>
        <filter x="-18.3%" y="-13.2%" width="136.7%" height="130.3%" filterUnits="objectBoundingBox" id="filter-3">
            <feOffset dx="0" dy="1" in="SourceAlpha" result="shadowOffsetOuter1"></feOffset>
            <feGaussianBlur stdDeviation="2.5" in="shadowOffsetOuter1" result="shadowBlurOuter1"></feGaussianBlur>
            <feComposite in="shadowBlurOuter1" in2="SourceAlpha" operator="out" result="shadowBlurOuter1"></feComposite>
            <feColorMatrix values="0 0 0 0 0   0 0 0 0 0   0 0 0 0 0  0 0 0 0.271993886 0" type="matrix" in="shadowBlurOuter1"></feColorMatrix>
        </filter>
    </defs>
    <g id="location-pin-unselected" stroke="none" stroke-width="1" fill="none" fill-rule="evenodd">
        <g id="location-pin">
            <g id="Path">
                <use fill="black" fill-opacity="1" filter="url(#filter-3)" xlink:href="#path-2"></use>
                <use fill="url(#linearGradient-1)" fill-rule="evenodd" xlink:href="#path-2"></use>
                <path stroke="#FFFFFF" stroke-width="1.6" d="M21.7603516,51.0637612 L27.493587,39.7089163 C27.8561269,39.1630466 29.4327868,38.95 30.48,38.95 L36.08,38.95 C39.7974937,38.95 42.8,35.9361206 42.8,32.2015152 L42.8,7.54848485 C42.8,3.81387942 39.7974937,0.8 36.08,0.8 C29.8560243,0.8 29.8560243,0.8 25.8953125,0.8 C18.7493576,0.8 18.7493576,0.8 7.52,0.8 C3.80250629,0.8 0.8,3.81387942 0.8,7.54848485 L0.8,32.2015152 C0.8,35.9361206 3.80250629,38.95 7.52,38.95 L13.04,38.95 C14.0872132,38.95 15.6638731,39.1630466 16.0742749,39.7912217 L21.7603516,51.0637612 Z M28.6049411,40.8017139 C28.6026515,40.8025804 28.6005695,40.8034023 28.5987008,40.8041765 C28.6031444,40.8023356 28.6075985,40.8004198 28.6120829,40.798383 Z"></path>
            </g>
        </g>
        <g id="equitation" transform="translate(8.000000, 8.000000)" fill="#FFFFFF">
            <path d="M28.7297871,4.58362419 C28.5314026,4.68497465 28.2825049,4.87261295 28.0436391,5.07282563 L28.1530621,4.45983535 C27.8931603,4.6346771 27.6804128,4.84493152 27.4367741,5.14587261 C26.5160913,4.84226557 25.5401223,4.44330647 24.5111654,4.54305735 C23.5119507,4.63992013 22.7427189,5.04483318 21.8835091,5.79120973 C21.4142185,6.19892203 19.1474463,8.22850816 19.1474463,8.22850816 C19.5662679,8.60467341 22.3118324,10.7601812 23.5445213,11.220146 L24.8138024,8.9054812 L25.4164689,9.77902346 L25.5565181,12.1011974 C24.6827687,11.9239563 23.9780594,11.7187672 23.3924515,11.4974935 C22.028066,10.9820325 19.344505,8.82532503 18.9138837,8.43791837 C18.4794617,8.04709041 18.2111631,7.78182859 18.2078044,7.77667443 L18.2077602,7.77667443 C18.3596532,7.64679833 18.3817499,7.48875205 18.3817499,7.48875205 L16.0151888,6.61241055 C16.0093994,5.99488815 16.0034333,5.27214967 16.0034333,4.91269103 C16.0034333,4.21354619 15.6928415,3.49156307 15.290946,3.37177314 C15.1364897,3.32574111 14.4343436,3.10868852 14.2233197,3.04390598 C14.1909701,3.03399755 14.1565434,3.02937657 14.1206583,3.02937657 C13.7308717,3.0292877 13.16356,3.57420745 13.0734494,3.77930771 C12.9898796,3.96965639 12.9215122,4.77206228 13.0613404,5.56829205 C13.2736459,6.77703283 13.7363959,7.43729926 13.7363959,7.43729926 C13.7363959,7.43729926 13.6114609,7.9727549 13.4857305,8.5269166 C13.3364449,9.18482811 13.4156838,9.52291473 13.4156838,9.52291473 L11.6050325,9.54873 C8.46495278,7.99012799 5.71359896,9.89179306 5.71359896,9.89179306 L5.71435025,9.89041565 C5.71435025,9.89041565 4.8829824,9.51727181 4.35672637,9.51727181 C2.03603807,9.51727181 0.735114437,10.7137492 0.735114437,12.7867015 L0.735114437,17.2660715 C0.735114437,17.6684075 0,17.6684075 0,17.6684075 C0,17.6684075 0.189987794,18.1423686 0.751289252,18.1423686 C1.69406888,18.1423686 2.64418462,16.6651669 2.64418462,14.9839757 C2.64418462,13.127143 2.91270424,12.0900448 3.42866318,11.284973 C3.94462212,10.4799012 4.90914494,10.1186208 4.90914494,10.1186208 L5.42231969,10.1278627 C3.59438875,11.8292707 3.75728594,14.1293172 3.75728594,14.9142612 L3.99213012,16.1947604 C3.99213012,16.1947604 2.69947067,18.5917586 2.56512247,18.8088556 C2.26765612,19.2895704 2.25439808,19.4976032 2.35498245,19.9194006 C2.48389485,20.4600104 2.94814741,22.6819003 3.23540507,23.8926849 C3.48925245,24.962752 4.27395198,24.7146855 4.27395198,24.7146855 L3.76572689,19.9604118 L7.1161676,16.4896587 L8.08033687,17.6522341 C8.08033687,17.6522341 8.05793078,19.4759646 8.05793078,19.5660737 C8.05793078,19.883277 8.15436096,20.1328098 8.37280936,20.4047364 C8.48881726,20.549142 10.6874432,23.5927658 11.217765,24.2592528 C11.7480868,24.9257398 12.5214728,24.6147125 12.5214728,24.6147125 L9.96563096,19.8568841 L10.8721277,16.5163181 L10.2418402,15.6393546 L10.4996208,15.6282465 C11.692845,16.9723285 14.8558169,16.6589463 14.8558169,16.6589463 C14.8491879,16.6900491 14.843045,16.7186191 14.8376534,16.7440345 C14.6822691,17.4713495 15.4853089,17.8859044 15.4853089,17.8859044 C15.4853089,17.8859044 15.4938824,17.8621331 15.5096595,17.8183227 C15.510234,17.816812 15.5107202,17.8154345 15.5112947,17.8138794 C15.5712652,17.6474354 15.7297873,17.2076429 15.9289231,16.6549919 C16.4250834,15.2781631 17.1736768,13.2005899 17.2806251,12.9013372 C17.4632325,12.3903194 17.443699,12.0806252 17.2351942,11.6137732 C17.0629279,11.2281883 16.386856,9.46533026 16.386856,9.46533026 L16.3862815,9.46390842 L16.0646413,7.9245901 L14.68386,7.59014694 L14.6539853,7.44272002 C14.6539853,7.44272002 17.2174284,7.89397614 17.3645485,7.91699215 C17.5562156,7.94698407 17.8202717,7.94405152 17.9483444,7.90908317 C18.3871857,8.36544902 18.0213521,8.008212 18.6995895,8.62697851 L17.1445091,9.47279491 L16.7355426,9.4783934 C16.8945066,9.8915709 17.3854962,11.1634946 17.5276224,11.48172 C17.7741337,12.0335712 17.7884524,12.4335522 17.582334,13.01033 C17.4790096,13.2993632 16.2741184,16.6433505 16.2741184,16.6433505 L17.2602519,16.5880321 C17.2602519,16.5880321 15.7601924,22.5535793 15.4898166,23.5111878 C15.2194851,24.4688407 16.0569958,24.7257048 16.0569958,24.7257048 L19.8902504,16.653259 L20.4718808,16.3608045 L24.696778,17.594383 C24.696778,17.594383 24.2783541,21.0282572 24.1664562,21.8154672 C24.0545583,22.6026772 24.873552,22.9929275 24.873552,22.9929275 C24.873552,22.9929275 26.2032898,17.6820927 26.2877435,17.3944369 C26.3874882,17.054573 26.2927374,16.6978692 26.0392877,16.5733694 C25.8720596,16.4912582 22.9174599,15.0565784 22.9174599,15.0565784 L22.6740864,13.6388717 L23.2451104,11.7849715 C24.2372984,12.1614478 25.5810455,12.487671 27.5408056,12.7034794 L28.4510588,7.80071239 L28.452473,7.79307001 L28.2366762,6.0211033 L28.7297871,4.58362419 Z M13.8174468,1.87244404 C13.6976824,1.59740709 13.5444636,1.24905656 13.6926444,0.793090605 C13.8431674,0.32992659 14.4126446,-0.110932328 15.1300375,0.0250310148 C15.8961757,0.170191878 16.1980614,0.857873139 16.1698218,1.53564596 C16.2790239,1.58105594 16.446473,1.66005686 16.3868118,1.69573613 C16.2603301,1.77131575 16.0620781,1.81739222 15.8324045,1.84360738 C15.83183,1.84476262 15.8313439,1.84591786 15.8307252,1.84707311 C15.7373002,2.02386989 15.4080587,2.64694634 15.2391954,2.9664602 C15.1672484,3.10269014 15.0116873,3.03035408 14.818827,2.96779317 C14.6007763,2.89705669 14.4053527,2.83405145 14.4053527,2.83405145 C14.4053527,2.83405145 14.1138525,2.31570232 13.9248369,1.88586265 L13.8174468,1.87244404 Z" id="Fill-1"></path>
        </g>
    </g>
</svg>