<?xml version="1.0" encoding="UTF-8"?>
<svg width="44px" height="53px" viewBox="0 0 44 53" version="1.1" xmlns="http://www.w3.org/2000/svg" xmlns:xlink="http://www.w3.org/1999/xlink">
    <!-- Generator: Sketch 49.2 (51160) - http://www.bohemiancoding.com/sketch -->
    <title>location-pin-unselected</title>
    <desc>Created with Sketch.</desc>
    <defs>
        <linearGradient x1="50%" y1="0%" x2="50%" y2="100%" id="linearGradient-1">
            <stop stop-color="#19A4EA" offset="0%"></stop>
            <stop stop-color="#0082C3" offset="100%"></stop>
        </linearGradient>
        <path d="M7.52,2.74985211e-16 C3.36,2.74985211e-16 0,3.37272727 0,7.54848485 L0,32.2015152 C0,36.3772727 3.36,39.75 7.52,39.75 L13.04,39.75 C13.36,39.75 15.2,39.9106061 15.36,40.1515152 L21.76,52.8393939 L28.16,40.1515152 C28.32,39.9106061 30.16,39.75 30.48,39.75 L36.08,39.75 C40.24,39.75 43.6,36.3772727 43.6,32.2015152 L43.6,7.54848485 C43.6,3.37272727 40.24,0 36.08,0 C31.5534722,4.35829201e-17 28.1585764,7.62701102e-17 25.8953125,9.80615702e-17 C21.8119097,1.37377935e-16 15.6868056,1.96352482e-16 7.52,2.74985211e-16 Z" id="path-2"></path>
        <filter x="-18.3%" y="-13.2%" width="136.7%" height="130.3%" filterUnits="objectBoundingBox" id="filter-3">
            <feOffset dx="0" dy="1" in="SourceAlpha" result="shadowOffsetOuter1"></feOffset>
            <feGaussianBlur stdDeviation="2.5" in="shadowOffsetOuter1" result="shadowBlurOuter1"></feGaussianBlur>
            <feComposite in="shadowBlurOuter1" in2="SourceAlpha" operator="out" result="shadowBlurOuter1"></feComposite>
            <feColorMatrix values="0 0 0 0 0   0 0 0 0 0   0 0 0 0 0  0 0 0 0.271993886 0" type="matrix" in="shadowBlurOuter1"></feColorMatrix>
        </filter>
    </defs>
    <g id="location-pin-unselected" stroke="none" stroke-width="1" fill="none" fill-rule="evenodd">
        <g id="location-pin">
            <g id="Path">
                <use fill="black" fill-opacity="1" filter="url(#filter-3)" xlink:href="#path-2"></use>
                <use fill="url(#linearGradient-1)" fill-rule="evenodd" xlink:href="#path-2"></use>
                <path stroke="#FFFFFF" stroke-width="1.6" d="M21.7603516,51.0637612 L27.493587,39.7089163 C27.8561269,39.1630466 29.4327868,38.95 30.48,38.95 L36.08,38.95 C39.7974937,38.95 42.8,35.9361206 42.8,32.2015152 L42.8,7.54848485 C42.8,3.81387942 39.7974937,0.8 36.08,0.8 C29.8560243,0.8 29.8560243,0.8 25.8953125,0.8 C18.7493576,0.8 18.7493576,0.8 7.52,0.8 C3.80250629,0.8 0.8,3.81387942 0.8,7.54848485 L0.8,32.2015152 C0.8,35.9361206 3.80250629,38.95 7.52,38.95 L13.04,38.95 C14.0872132,38.95 15.6638731,39.1630466 16.0742749,39.7912217 L21.7603516,51.0637612 Z M28.6049411,40.8017139 C28.6026515,40.8025804 28.6005695,40.8034023 28.5987008,40.8041765 C28.6031444,40.8023356 28.6075985,40.8004198 28.6120829,40.798383 Z"></path>
            </g>
        </g>
        <g id="equitation-western" transform="translate(7.000000, 9.000000)" fill="#FFFFFF">
            <path d="M19.0408349,18.4106974 L22.6785734,23.2349581 L20.2504828,23.241276 L15.6968774,20.3507113 L10.6461664,20.6653479 C10.6461664,20.6653479 12.0958615,16.9412564 12.2201861,16.6194045 C12.4681795,15.9771007 12.4509754,15.5316197 12.1543785,14.9170283 C11.9833406,14.5626538 11.3925769,13.1461249 11.2013261,12.6859621 L11.6933784,12.6797519 L13.8960801,11.5708956 L14.4146329,11.0908818 L21.4961975,13.2602412 L19.5916357,15.7617909 L19.0408349,18.4106974 Z M14.9791661,20.7865719 L13.8157686,23.2580758 L11.1384116,23.2650398 C11.393657,22.3021404 11.6190459,21.4502344 11.7396289,20.9926203 L14.9791661,20.7865719 Z M11.2001689,4.05235461 C10.9819161,4.04869312 10.7028319,3.93680238 10.2404046,3.84354215 C10.2163343,3.95579186 10.1750599,4.06710825 10.1138427,4.17429649 C10.0014761,4.37115528 9.62911946,5.02336667 9.42594922,5.37921298 C9.33938875,5.53094932 9.12842653,5.49207294 8.89632566,5.42239699 C8.6340212,5.34367501 8.39887297,5.27342471 8.39887297,5.27342471 C8.39887297,5.27342471 7.7840776,4.26170553 7.65481551,3.80649651 C7.38888508,3.83995245 7.17275392,3.86974691 6.98713494,3.86773668 C6.00210455,3.8570035 6.22035729,3.35889764 6.91642846,3.15532613 C7.18945654,3.07549135 7.45403688,3.08611684 7.70812503,3.13411104 C7.74037305,2.91496026 7.78832077,2.65445621 7.85185245,2.4836227 C7.97868437,2.14249414 8.60948802,2.33360942 8.99866297,2.33360942 C9.38779935,2.33360942 9.47952877,2.33762987 9.78056171,2.33762987 C10.0905439,2.33762987 10.1531498,2.47834585 10.3172058,3.29327805 C10.5348799,3.31671874 10.7658621,3.36047711 11.0035948,3.43424531 C11.6929541,3.64808334 11.4951071,4.05734428 11.2001689,4.05235461 Z M11.9023733,6.66435911 C12.1384859,6.58538585 12.3064765,6.46006966 12.4450736,6.3143999 C12.7251221,6.02008094 13.1912912,5.47010401 13.5756829,5.05068424 C13.8939585,5.17320047 14.1691082,5.22765612 14.4574502,5.22765612 C14.5799618,5.22765612 14.7050193,5.21774857 14.8367116,5.19926165 C13.9538257,5.80189937 12.479366,6.93204254 12.1026119,7.98166889 C11.9644778,7.95252058 11.8263436,7.93816181 11.6914883,7.94031562 C11.2899696,7.9463822 10.9631691,8.092734 10.7713011,8.35237653 C10.7291781,8.40938086 10.6958114,8.47008257 10.6699281,8.53336887 L10.3671593,7.1619983 C10.3671593,7.1619983 11.6852007,6.7369786 11.9023733,6.66435911 Z M17.1635836,1.10159075 C18.0712342,0.579074979 18.940542,0.305324961 19.7473597,0.288022639 C19.7738216,0.287412391 19.8001292,0.287161112 19.8264368,0.287161112 C20.4632966,0.287161112 21.0523244,0.453758782 21.5341545,0.770908193 C22.3551675,1.31137243 22.6607136,2.12411491 22.5381248,2.64763579 C22.483118,2.88261712 22.3160918,3.18056167 21.8326801,3.26549382 C18.9243023,3.77663026 17.2616392,4.25596202 16.1614263,4.57314733 C14.9346129,4.92683982 14.470874,5.06008923 13.7825177,4.81825159 C14.1125584,4.38511919 14.1553372,3.77831742 13.9128213,3.63146306 L13.1432663,4.24246477 C13.223192,3.64808334 14.5736742,2.5924981 17.1635836,1.10159075 Z M12.6652936,8.52392797 C12.9715726,8.71992523 13.2003561,8.98121901 13.3094439,9.25963563 C13.3975473,9.48449403 13.396853,9.69610645 13.3098682,9.86611433 L12.91564,9.74094172 C12.6806075,9.5432932 12.4027577,9.1827085 12.3268822,8.55426088 C12.3190131,8.48900026 12.3194374,8.42086787 12.3271908,8.3503304 C12.4427591,8.39620668 12.5563986,8.45425202 12.6652936,8.52392797 Z M10.9335441,9.07013572 C10.8843234,8.86642062 10.9104382,8.67089002 11.0255821,8.51509733 C11.1593188,8.33414088 11.397553,8.23197821 11.6965029,8.2274552 C11.7035234,8.22731161 11.7105053,8.22727571 11.7175258,8.22727571 C11.8196703,8.22727571 11.9242449,8.23869094 12.0292438,8.26048037 C12.0113454,8.37086345 12.0073337,8.47977474 12.0202175,8.58635274 C12.0700553,8.99902389 12.1978516,9.31290668 12.3511454,9.54989824 L10.9335441,9.07013572 Z M22.3824008,12.0962472 L23.5998021,12.4400681 L24.4807208,13.3092764 L22.0332273,12.5549024 L22.3824008,12.0962472 Z M3.69810704,19.7404993 L3.85556686,19.744771 C4.98390035,20.7947923 8.93964447,20.682722 8.93964447,20.682722 C8.93165961,20.7173626 8.92433052,20.7491673 8.91777291,20.7774899 C8.73088098,21.5874325 9.6970486,22.0491029 9.6970486,22.0491029 C9.6970486,22.0491029 11.7284809,16.8312682 11.8571644,16.4980011 C12.076883,15.928927 12.0533913,15.5839933 11.8025048,15.064098 C11.5952457,14.6346989 10.7817933,12.6714597 10.7817933,12.6714597 L10.7810989,12.6698802 L10.7430648,10.2571037 C10.7430648,10.2571037 11.9882009,10.4495831 12.3981288,10.5117925 C12.8080566,10.5740378 13.1348957,10.4820339 13.3889067,10.3442615 L14.7634592,10.7679171 C14.7595632,10.7715068 26.6663341,14.4283633 26.6663341,14.4283633 C27.2776964,13.7128298 27.613909,13.012696 27.3260298,12.539359 C27.0367235,12.0637246 25.0185992,8.50795384 25.0185992,8.50795384 L25.0142789,8.50027189 L22.2085084,5.91939004 L22.2728116,6.60143178 L21.4370247,6.01509126 L21.5109714,7.04152819 C19.6992962,7.04152819 18.2241808,7.55711585 17.2581675,8.45608277 C16.9468353,8.74580692 15.1311484,10.4274706 15.1311484,10.4274706 L13.6047679,9.95700537 C13.7122741,9.72392657 13.7115026,9.44752018 13.5993675,9.16127803 C13.4684853,8.82722117 13.1988131,8.51682038 12.8401504,8.28729538 C12.6980431,8.19633255 12.5481438,8.12234897 12.3951971,8.06617027 C12.5769201,7.55873121 13.0910754,6.94561158 13.9140171,6.26163141 C14.71393,5.59682019 15.5444322,5.08636579 15.6622377,5.01493089 C15.8414148,4.96593158 16.036253,4.90986057 16.2527699,4.8474358 C17.3463095,4.53218892 18.9988276,4.05576482 21.8899628,3.54771551 C22.3965961,3.45865522 22.7338502,3.16071067 22.8396592,2.70876827 C23.0077655,1.99068601 22.5336888,1.07710904 21.7123287,0.536429421 C21.1561661,0.170316592 20.4742516,-0.0146244109 19.7402235,0.000883064573 C18.8777432,0.0194417794 17.9562445,0.307586468 17.0012249,0.85734801 C13.2506954,3.01644089 12.802502,3.84986001 12.8310854,4.33468399 C12.8338242,4.38178077 12.8422334,4.4271186 12.8556186,4.47087696 L11.3045892,5.70242897 L9.48840083,5.89361604 C9.48840083,5.89361604 8.43254823,5.59229718 8.17865295,5.52014434 C8.13973159,5.50908808 8.09830292,5.50395482 8.0551384,5.50395482 C7.58611489,5.50388303 6.90358325,6.1107207 6.79515122,6.33916878 C6.69454974,6.55114018 6.61230958,7.44475845 6.78057018,8.33144861 C7.03600843,9.67758363 7.59278822,10.4129323 7.59278822,10.4129323 C7.59278822,10.4129323 7.44242605,11.0092163 7.29113809,11.6263923 C7.11157526,12.3590487 7.20689207,12.7355716 7.20689207,12.7355716 L5.2752126,12.7610585 L4.28474325,15.5262352 C4.68734202,15.7478269 6.10937935,16.4371558 7.98516483,16.2915578 L8.01552272,16.6306761 C7.8244262,16.6454657 7.63799717,16.6522861 7.45681422,16.652322 C5.4079078,16.652322 4.02471466,15.7799188 3.96187732,15.7395707 L3.8489321,15.6669871 L4.90486185,12.719059 C3.84117869,12.3338849 2.83022645,12.1964356 1.92485174,12.1983022 L1.92485174,22.7702364 L3.98309312,20.3045119 L3.69810704,19.7404993 Z" id="Fill-1"></path>
        </g>
    </g>
</svg>