<?xml version="1.0" encoding="UTF-8"?>
<svg width="44px" height="53px" viewBox="0 0 44 53" version="1.1" xmlns="http://www.w3.org/2000/svg" xmlns:xlink="http://www.w3.org/1999/xlink">
    <!-- Generator: Sketch 49.2 (51160) - http://www.bohemiancoding.com/sketch -->
    <title>location-pin-unselected</title>
    <desc>Created with Sketch.</desc>
    <defs>
        <linearGradient x1="50%" y1="0%" x2="50%" y2="100%" id="linearGradient-1">
            <stop stop-color="#19A4EA" offset="0%"></stop>
            <stop stop-color="#0082C3" offset="100%"></stop>
        </linearGradient>
        <path d="M7.52,2.74985211e-16 C3.36,2.74985211e-16 0,3.37272727 0,7.54848485 L0,32.2015152 C0,36.3772727 3.36,39.75 7.52,39.75 L13.04,39.75 C13.36,39.75 15.2,39.9106061 15.36,40.1515152 L21.76,52.8393939 L28.16,40.1515152 C28.32,39.9106061 30.16,39.75 30.48,39.75 L36.08,39.75 C40.24,39.75 43.6,36.3772727 43.6,32.2015152 L43.6,7.54848485 C43.6,3.37272727 40.24,0 36.08,0 C31.5534722,4.35829201e-17 28.1585764,7.62701102e-17 25.8953125,9.80615702e-17 C21.8119097,1.37377935e-16 15.6868056,1.96352482e-16 7.52,2.74985211e-16 Z" id="path-2"></path>
        <filter x="-18.3%" y="-13.2%" width="136.7%" height="130.3%" filterUnits="objectBoundingBox" id="filter-3">
            <feOffset dx="0" dy="1" in="SourceAlpha" result="shadowOffsetOuter1"></feOffset>
            <feGaussianBlur stdDeviation="2.5" in="shadowOffsetOuter1" result="shadowBlurOuter1"></feGaussianBlur>
            <feComposite in="shadowBlurOuter1" in2="SourceAlpha" operator="out" result="shadowBlurOuter1"></feComposite>
            <feColorMatrix values="0 0 0 0 0   0 0 0 0 0   0 0 0 0 0  0 0 0 0.271993886 0" type="matrix" in="shadowBlurOuter1"></feColorMatrix>
        </filter>
    </defs>
    <g id="location-pin-unselected" stroke="none" stroke-width="1" fill="none" fill-rule="evenodd">
        <g id="location-pin">
            <g id="Path">
                <use fill="black" fill-opacity="1" filter="url(#filter-3)" xlink:href="#path-2"></use>
                <use fill="url(#linearGradient-1)" fill-rule="evenodd" xlink:href="#path-2"></use>
                <path stroke="#FFFFFF" stroke-width="1.6" d="M21.7603516,51.0637612 L27.493587,39.7089163 C27.8561269,39.1630466 29.4327868,38.95 30.48,38.95 L36.08,38.95 C39.7974937,38.95 42.8,35.9361206 42.8,32.2015152 L42.8,7.54848485 C42.8,3.81387942 39.7974937,0.8 36.08,0.8 C29.8560243,0.8 29.8560243,0.8 25.8953125,0.8 C18.7493576,0.8 18.7493576,0.8 7.52,0.8 C3.80250629,0.8 0.8,3.81387942 0.8,7.54848485 L0.8,32.2015152 C0.8,35.9361206 3.80250629,38.95 7.52,38.95 L13.04,38.95 C14.0872132,38.95 15.6638731,39.1630466 16.0742749,39.7912217 L21.7603516,51.0637612 Z M28.6049411,40.8017139 C28.6026515,40.8025804 28.6005695,40.8034023 28.5987008,40.8041765 C28.6031444,40.8023356 28.6075985,40.8004198 28.6120829,40.798383 Z"></path>
            </g>
        </g>
        <g id="lacrosse" transform="translate(4.000000, 5.000000)" fill="#FFFFFF">
            <path d="M19.6761202,19.0873244 C20.4998967,20.3400538 20.911785,21.2073133 20.911785,21.6891031 C20.911785,22.4117876 20.0289602,27.7588254 20.0289602,28.6317004 C20.0289602,29.5045755 19.900523,30.5109373 20.406154,30.2094142 C20.7432413,30.0083988 21.7907441,27.1682951 23.5486623,21.6891031 C22.9850461,19.5544567 22.570935,18.4871336 22.3063292,18.4871336 C22.0417234,18.4871336 22.2959885,17.6838335 23.0691246,16.0772332 C24.0233678,16.3631472 24.5004894,16.2587372 24.5004894,15.7640033 C24.5004894,15.0219025 25.3972307,9.49997561 24.6819831,8.95574931 C23.9667356,8.411523 21.4556862,8.61910564 20.406154,8.16339463 C19.3566217,7.70768362 19.1452657,7.45355906 17.9988981,8.61910564 C16.8525306,9.78465223 16.2051258,10.1835421 15.8575044,9.78465223 C15.5098831,9.38576233 15.8575044,7.24026575 15.8575044,6.92560814 C15.8575044,6.61095054 14.4680339,7.4307164 14.4680339,7.88642741 C14.4680339,8.19023475 14.4680339,9.46790072 14.4680339,11.7194253 C14.8202941,12.1063228 15.5214802,11.9958215 16.5715923,11.3879212 C18.1467604,10.4760709 18.912745,11.9849712 17.9988981,14.480817 C17.0850513,16.9766629 15.1290653,20.5523953 14.2552282,20.5523953 C13.6726702,20.5523953 11.6414967,20.6851207 8.16170779,20.9505714 C7.96977675,21.4429258 7.96977675,21.7689572 8.16170779,21.9286654 C8.44960434,22.1682278 13.4145877,22.5274286 14.6360461,22.5274286 C15.4503516,22.5274286 17.1303764,21.3807272 19.6761202,19.0873244 Z" id="Path-17"></path>
            <path d="M16.980098,9.51182524 L13.178298,4.80709445 C13.4078227,4.66575551 13.4078227,4.33834409 13.178298,3.82486019 C12.8340108,3.05463434 12.065127,2.17733354 12.065127,1.79500456 C12.065127,1.41267558 10.6778309,-0.784645276 9.57886624,0.0755235355 C8.84622316,0.64896941 8.47990161,1.05533076 8.47990161,1.2946076 C8.01080129,2.29787614 8.15987159,2.94175354 8.92711252,3.2262398 C9.69435345,3.51072606 10.272176,3.82999979 10.6605803,4.18406097 C11.5633389,4.89113639 12.2086482,5.2446741 12.5965081,5.2446741 C12.984368,5.2446741 15.3219144,8.09948278 19.6091473,13.8091001 L16.980098,9.51182524 Z" id="Path-18"></path>
            <path d="M22.705084,8.18484993 C23.0364579,8.1852235 23.3144768,8.22225372 23.3587149,7.95683156 C23.4627332,7.33404211 23.6653432,6.12002994 23.7228224,5.77564422 C23.9022062,4.69975991 23.1923551,3.70914316 22.3047699,3.53781419 C21.4163164,3.36643852 20.4059583,3.96008944 20.223796,5.04998267 C20.1610204,5.42766289 20.1798617,5.79978625 20.2902618,6.14151027 C20.4564046,6.65647781 21.9955368,8.18414948 21.9955368,8.18414948 C21.9955368,8.18414948 22.3310783,8.18447636 22.705084,8.18484993 Z" id="Path"></path>
        </g>
    </g>
</svg>