<?xml version="1.0" encoding="UTF-8"?>
<svg width="44px" height="53px" viewBox="0 0 44 53" version="1.1" xmlns="http://www.w3.org/2000/svg" xmlns:xlink="http://www.w3.org/1999/xlink">
    <!-- Generator: Sketch 49.2 (51160) - http://www.bohemiancoding.com/sketch -->
    <title>location-pin-unselected</title>
    <desc>Created with Sketch.</desc>
    <defs>
        <linearGradient x1="50%" y1="0%" x2="50%" y2="100%" id="linearGradient-1">
            <stop stop-color="#19A4EA" offset="0%"></stop>
            <stop stop-color="#0082C3" offset="100%"></stop>
        </linearGradient>
        <path d="M7.52,2.74985211e-16 C3.36,2.74985211e-16 0,3.37272727 0,7.54848485 L0,32.2015152 C0,36.3772727 3.36,39.75 7.52,39.75 L13.04,39.75 C13.36,39.75 15.2,39.9106061 15.36,40.1515152 L21.76,52.8393939 L28.16,40.1515152 C28.32,39.9106061 30.16,39.75 30.48,39.75 L36.08,39.75 C40.24,39.75 43.6,36.3772727 43.6,32.2015152 L43.6,7.54848485 C43.6,3.37272727 40.24,0 36.08,0 C31.5534722,4.35829201e-17 28.1585764,7.62701102e-17 25.8953125,9.80615702e-17 C21.8119097,1.37377935e-16 15.6868056,1.96352482e-16 7.52,2.74985211e-16 Z" id="path-2"></path>
        <filter x="-18.3%" y="-13.2%" width="136.7%" height="130.3%" filterUnits="objectBoundingBox" id="filter-3">
            <feOffset dx="0" dy="1" in="SourceAlpha" result="shadowOffsetOuter1"></feOffset>
            <feGaussianBlur stdDeviation="2.5" in="shadowOffsetOuter1" result="shadowBlurOuter1"></feGaussianBlur>
            <feComposite in="shadowBlurOuter1" in2="SourceAlpha" operator="out" result="shadowBlurOuter1"></feComposite>
            <feColorMatrix values="0 0 0 0 0   0 0 0 0 0   0 0 0 0 0  0 0 0 0.271993886 0" type="matrix" in="shadowBlurOuter1"></feColorMatrix>
        </filter>
    </defs>
    <g id="location-pin-unselected" stroke="none" stroke-width="1" fill="none" fill-rule="evenodd">
        <g id="location-pin">
            <g id="Path">
                <use fill="black" fill-opacity="1" filter="url(#filter-3)" xlink:href="#path-2"></use>
                <use fill="url(#linearGradient-1)" fill-rule="evenodd" xlink:href="#path-2"></use>
                <path stroke="#FFFFFF" stroke-width="1.6" d="M21.7603516,51.0637612 L27.493587,39.7089163 C27.8561269,39.1630466 29.4327868,38.95 30.48,38.95 L36.08,38.95 C39.7974937,38.95 42.8,35.9361206 42.8,32.2015152 L42.8,7.54848485 C42.8,3.81387942 39.7974937,0.8 36.08,0.8 C29.8560243,0.8 29.8560243,0.8 25.8953125,0.8 C18.7493576,0.8 18.7493576,0.8 7.52,0.8 C3.80250629,0.8 0.8,3.81387942 0.8,7.54848485 L0.8,32.2015152 C0.8,35.9361206 3.80250629,38.95 7.52,38.95 L13.04,38.95 C14.0872132,38.95 15.6638731,39.1630466 16.0742749,39.7912217 L21.7603516,51.0637612 Z M28.6049411,40.8017139 C28.6026515,40.8025804 28.6005695,40.8034023 28.5987008,40.8041765 C28.6031444,40.8023356 28.6075985,40.8004198 28.6120829,40.798383 Z"></path>
            </g>
        </g>
        <g id="chasse-avec-fusil" transform="translate(7.000000, 5.000000)" fill="#FFFFFF">
            <path d="M11.5842591,4.82023952 C11.8304634,4.54553478 12.2598143,4.51636053 12.5431085,4.75516927 C12.8264516,4.99393133 12.8564861,5.41021286 12.6101838,5.68496427 C12.3639795,5.959669 11.9346776,5.98879658 11.6513344,5.75003452 C11.3680402,5.51122578 11.3380058,5.09494425 11.5842591,4.82023952 Z M18.8829305,4.63408447 C18.6538258,5.34000795 17.9577903,7.21901633 17.9577903,7.21901633 L15.1413601,7.04289722 C15.1413601,7.04289722 17.2273597,5.47229566 17.355239,5.37394343 C17.6543588,5.14400367 17.6453436,4.79657337 17.5749365,4.52719002 C17.8734684,4.41558101 18.0909121,4.36250721 18.0909121,4.36250721 L19.2274696,3.996172 C19.0787181,4.16262859 18.9660766,4.37777118 18.8829305,4.63408447 Z M28.5307096,0.489053779 L28.3530995,0 C28.3530995,0 19.2510856,2.83573705 17.3601875,3.41698146 C16.8501894,3.56803405 16.3344588,4.07039129 16.3344588,4.07039129 L15.1867302,5.37912478 L14.3914781,5.82542078 C14.3985825,5.46734771 14.404756,5.15572005 14.4077937,5.0049942 C14.4138692,4.6934599 14.4113214,4.41674798 14.3441971,4.17028392 C14.6500784,3.95028674 14.9917756,3.68421758 15.1116686,3.51510029 C15.0508647,3.24002213 14.2532607,3.2590204 13.7184217,3.39718965 C13.3396835,3.16430912 12.8388966,3.00527445 12.45325,2.99817927 C12.155894,2.99276453 11.8578031,3.05498737 11.5839161,3.17322477 C11.549521,3.39224169 11.5248271,3.95192049 11.751727,4.36456108 C12.0773536,4.24571686 12.4582476,4.29939748 12.739288,4.53629238 C13.1472767,4.88012842 13.19054,5.47957756 12.8359568,5.87518038 C12.4813737,6.2707832 11.8631436,6.31274744 11.4551549,5.96891141 C11.096897,5.66689958 11.0200715,5.16790321 11.2468734,4.7828498 C10.9121826,4.26886954 10.9986113,3.73295025 11.0654417,3.4906406 C10.6653413,3.82327372 10.3919443,4.30560576 10.3805772,4.88092196 C10.3725909,5.27181022 10.4326599,5.65593006 10.6356008,5.96839794 C10.9268323,6.41679448 11.8796062,7.23367347 11.8796062,7.23367347 C11.8796062,7.23367347 11.4705886,7.46165273 11.3820041,7.511459 C10.2501502,8.14801779 9.70874572,8.74583317 9.80855033,9.86089632 C9.85793817,10.4126397 10.2473574,14.83807 10.2473574,14.83807 C9.79243068,15.9309607 9.70673688,16.920878 9.67459559,17.6154118 C9.64250328,18.3099457 9.49091003,22.649907 9.49091003,22.649907 C9.49091003,22.649907 8.59237456,27.1552514 8.46768004,27.8817135 C8.254009,29.1261703 8.67370772,29.658402 9.49982728,29.7223519 L11.3854338,23.4672061 L12.6826977,19.1285985 L14.1204329,23.1272444 C14.1204329,23.1272444 14.7877078,27.7146968 14.8839357,28.4039093 C14.975901,29.0625004 15.582127,29.9268051 16.5620936,29.7299139 L16.259887,22.8783064 L15.4168639,16.8750861 L15.0699731,15.0528391 C15.0699731,15.0528391 15.273159,12.9269932 15.5437632,10.0530729 C15.5524845,9.96032217 15.3608616,8.99845883 15.3608616,8.99845883 L18.3381453,8.99845883 C18.8648511,8.99845883 19.0650972,8.75857648 19.1882239,8.2774581 C19.3082638,7.80856956 20.3814696,3.62418865 20.3814696,3.62418865 L24.6155957,2.25944059 L24.5056979,1.85464205 L28.5307096,0.489053779 Z" id="Fill-1"></path>
        </g>
    </g>
</svg>