<?xml version="1.0" encoding="UTF-8"?>
<svg width="44px" height="53px" viewBox="0 0 44 53" version="1.1" xmlns="http://www.w3.org/2000/svg" xmlns:xlink="http://www.w3.org/1999/xlink">
    <!-- Generator: Sketch 49.2 (51160) - http://www.bohemiancoding.com/sketch -->
    <title>location-pin-unselected</title>
    <desc>Created with Sketch.</desc>
    <defs>
        <linearGradient x1="50%" y1="0%" x2="50%" y2="100%" id="linearGradient-1">
            <stop stop-color="#19A4EA" offset="0%"></stop>
            <stop stop-color="#0082C3" offset="100%"></stop>
        </linearGradient>
        <path d="M7.52,2.74985211e-16 C3.36,2.74985211e-16 0,3.37272727 0,7.54848485 L0,32.2015152 C0,36.3772727 3.36,39.75 7.52,39.75 L13.04,39.75 C13.36,39.75 15.2,39.9106061 15.36,40.1515152 L21.76,52.8393939 L28.16,40.1515152 C28.32,39.9106061 30.16,39.75 30.48,39.75 L36.08,39.75 C40.24,39.75 43.6,36.3772727 43.6,32.2015152 L43.6,7.54848485 C43.6,3.37272727 40.24,0 36.08,0 C31.5534722,4.35829201e-17 28.1585764,7.62701102e-17 25.8953125,9.80615702e-17 C21.8119097,1.37377935e-16 15.6868056,1.96352482e-16 7.52,2.74985211e-16 Z" id="path-2"></path>
        <filter x="-18.3%" y="-13.2%" width="136.7%" height="130.3%" filterUnits="objectBoundingBox" id="filter-3">
            <feOffset dx="0" dy="1" in="SourceAlpha" result="shadowOffsetOuter1"></feOffset>
            <feGaussianBlur stdDeviation="2.5" in="shadowOffsetOuter1" result="shadowBlurOuter1"></feGaussianBlur>
            <feComposite in="shadowBlurOuter1" in2="SourceAlpha" operator="out" result="shadowBlurOuter1"></feComposite>
            <feColorMatrix values="0 0 0 0 0   0 0 0 0 0   0 0 0 0 0  0 0 0 0.271993886 0" type="matrix" in="shadowBlurOuter1"></feColorMatrix>
        </filter>
    </defs>
    <g id="location-pin-unselected" stroke="none" stroke-width="1" fill="none" fill-rule="evenodd">
        <g id="location-pin">
            <g id="Path">
                <use fill="black" fill-opacity="1" filter="url(#filter-3)" xlink:href="#path-2"></use>
                <use fill="url(#linearGradient-1)" fill-rule="evenodd" xlink:href="#path-2"></use>
                <path stroke="#FFFFFF" stroke-width="1.6" d="M21.7603516,51.0637612 L27.493587,39.7089163 C27.8561269,39.1630466 29.4327868,38.95 30.48,38.95 L36.08,38.95 C39.7974937,38.95 42.8,35.9361206 42.8,32.2015152 L42.8,7.54848485 C42.8,3.81387942 39.7974937,0.8 36.08,0.8 C29.8560243,0.8 29.8560243,0.8 25.8953125,0.8 C18.7493576,0.8 18.7493576,0.8 7.52,0.8 C3.80250629,0.8 0.8,3.81387942 0.8,7.54848485 L0.8,32.2015152 C0.8,35.9361206 3.80250629,38.95 7.52,38.95 L13.04,38.95 C14.0872132,38.95 15.6638731,39.1630466 16.0742749,39.7912217 L21.7603516,51.0637612 Z M28.6049411,40.8017139 C28.6026515,40.8025804 28.6005695,40.8034023 28.5987008,40.8041765 C28.6031444,40.8023356 28.6075985,40.8004198 28.6120829,40.798383 Z"></path>
            </g>
        </g>
        <g id="netball" transform="translate(3.000000, 3.000000)" fill="#FFFFFF">
            <path d="M14.0077315,18.6262189 C13.6043396,18.6045119 13.2085938,18.7126304 12.8661946,18.9378465 L13.4091628,19.7057381 C13.7177507,19.4239634 13.9267614,19.0481867 14.0077315,18.6262189 M13.1663851,19.8938347 L12.6233286,19.1258506 C12.3173482,19.4024878 12.1025035,19.767249 12.0038985,20.1773682 C12.3998211,20.2181903 12.8090029,20.1267802 13.1663851,19.8938347 M11.7064483,20.1206244 C11.8195943,19.6312677 12.0756755,19.1966645 12.4432231,18.8711055 L12.1537285,18.4616806 L10.7861207,19.5221772 C11.0362794,19.8220025 11.3589222,20.0239842 11.7064483,20.1206244 M10.6064131,19.2680339 L11.9739767,18.2075372 L11.6616319,17.7657601 C11.2945704,18.0135163 10.8721293,18.1438973 10.4385062,18.1438973 C10.4021315,18.1438973 10.3656243,18.1419534 10.3291612,18.140102 C10.3097584,18.5264777 10.3999216,18.920629 10.6064131,19.2680339 M10.3697788,17.8262528 C10.7629169,17.8404156 11.1477901,17.7310474 11.4813939,17.5108299 L10.9613202,16.7754294 C10.6522902,17.0581298 10.4521633,17.4293707 10.3697788,17.8262528 M11.2040095,16.587194 L11.7239064,17.3224556 C12.0214008,17.0524832 12.2328865,16.6986449 12.3340108,16.3010686 C11.9482537,16.2683461 11.5516682,16.3605893 11.2040095,16.587194 M12.633052,16.3516103 C12.5176962,16.8308772 12.2644437,17.2568717 11.904056,17.5772006 L12.2167102,18.019348 L13.584318,16.9588514 C13.3267783,16.6501397 12.9923789,16.4446867 12.633052,16.3516103 M13.7641141,17.2129485 L12.3964178,18.2734914 L12.686045,18.6831014 C13.0913375,18.4103521 13.5629706,18.2814059 14.043178,18.3118142 C14.0574539,17.9235872 13.9611472,17.5437376 13.7641141,17.2129485 M14.4723372,18.5976619 C14.3812017,19.2373941 14.0576749,19.801684 13.5612469,20.1865786 C13.1484408,20.5067224 12.6662003,20.6611246 12.1881143,20.6611246 C11.4795818,20.6611246 10.779933,20.3222822 10.3268629,19.681578 C9.56807769,18.608446 9.78442518,17.089001 10.8091477,16.2944501 C11.833826,15.4998528 13.284879,15.7264112 14.04362,16.7995432 C14.4111677,17.3193083 14.5634286,17.9579297 14.4723372,18.5976619 M16.1649746,10.8132197 C16.1649746,10.8132197 16.5051197,10.7494871 16.8844681,10.6786269 C17.2205028,10.6159126 17.5085831,10.5994356 17.5085831,10.3290004 L17.5085831,8.10650723 C17.5085831,7.01051108 16.6211827,6.16796405 15.6923691,6.16796405 C14.7627158,6.16796405 13.8385429,6.94668597 13.8385429,8.0571226 C13.8385429,8.44183206 13.920618,8.80566761 14.0903369,9.12187731 C14.3461087,9.59855232 16.1649746,10.8132197 16.1649746,10.8132197 M16.8955617,11.2048254 C16.8955617,11.2048254 17.9889231,10.9949292 18.746736,10.8554766 C19.2225679,10.7680469 19.5339403,10.8673252 19.9328241,11.1108234 C20.585314,11.5087236 22.7927656,12.9004258 24.1129052,13.7008548 C24.5468377,13.963792 24.7199157,14.4468542 24.6781931,14.8579453 C24.5843615,15.783016 24.2512438,18.5151845 24.1939195,19.188102 C24.1024745,20.2595679 23.0581725,20.2471639 23.0581725,20.2471639 L23.0581725,15.2291399 L19.4066069,13.6349469 L19.4066069,14.0096591 L20.6014462,14.7987486 C20.6014462,14.7987486 21.2155283,16.9729217 21.8801725,19.2508163 C22.3051771,20.7070379 22.0961664,22.08143 21.3461323,23.270086 C20.2960404,24.9359724 19.0397664,26.9338049 19.0397664,26.9338049 L19.4698096,26.9338049 L20.3040844,25.8131395 C20.3040844,25.8131395 21.8685044,25.4815174 22.3631644,25.3940876 C23.495906,25.1936796 23.7390815,26.2812521 23.7390815,26.2812521 C23.7390815,26.2812521 19.112781,28.6336171 18.3200519,29.1252418 C17.4282318,29.6782385 16.3548035,28.7764484 16.6225528,27.8223578 C17.2272651,25.6694752 17.9663823,23.1885343 17.9663823,23.1885343 L17.7067211,23.1885343 L16.3875539,25.3550243 L13.4976023,25.3550243 L13.337651,25.5873218 L14.9396831,25.775511 L13.9217229,26.9486619 C13.9217229,26.9486619 13.5848926,29.8442578 13.3753958,31.9016573 C13.2070469,33.5520387 12.0186605,33.3399208 12.0186605,33.3399208 L12.0186605,27.0483105 C12.0186605,26.1060686 12.1139065,25.8794177 12.6006994,25.1436933 C13.62635,23.5943028 15.967853,20.1179863 15.967853,20.1179863 L16.3106942,19.609931 L16.3106942,17.248448 L13.9937651,13.3760363 L13.9937651,13.9685592 L14.6053279,15.0890394 L14.1093419,16.1290787 C14.1093419,16.1290787 13.6282947,15.5619655 12.745977,15.4847644 L12.745977,13.506047 C12.745977,12.5159478 13.1781858,11.9156955 14.1248995,11.7253773 C15.0851376,11.5323283 16.8955617,11.2048254 16.8955617,11.2048254" id="Fill-1"></path>
            <path d="M26.4656404,6.25709886 L25.8982526,6.55997549 C25.5418901,3.82363458 25.2701487,2.25291929 25.0830282,1.84782964 C24.8959078,1.44273998 27.0050053,1.33916829 31.4103207,1.53711458 C30.8562915,4.36135034 30.5792769,5.93467843 30.5792769,6.25709886 C30.5792769,6.57951929 30.3774419,6.68047817 29.973772,6.55997549 L30.5792769,2.16951848 C27.5667683,1.96916841 26.0064269,1.96916841 25.8982526,2.16951848 C25.7900783,2.36986855 25.9792076,3.73239534 26.4656404,6.25709886 Z" id="Path-22"></path>
        </g>
    </g>
</svg>