<?xml version="1.0" encoding="UTF-8"?>
<svg width="44px" height="53px" viewBox="0 0 44 53" version="1.1" xmlns="http://www.w3.org/2000/svg" xmlns:xlink="http://www.w3.org/1999/xlink">
    <!-- Generator: Sketch 49.2 (51160) - http://www.bohemiancoding.com/sketch -->
    <title>location-pin-unselected</title>
    <desc>Created with Sketch.</desc>
    <defs>
        <linearGradient x1="50%" y1="0%" x2="50%" y2="100%" id="linearGradient-1">
            <stop stop-color="#19A4EA" offset="0%"></stop>
            <stop stop-color="#0082C3" offset="100%"></stop>
        </linearGradient>
        <path d="M7.52,2.74985211e-16 C3.36,2.74985211e-16 0,3.37272727 0,7.54848485 L0,32.2015152 C0,36.3772727 3.36,39.75 7.52,39.75 L13.04,39.75 C13.36,39.75 15.2,39.9106061 15.36,40.1515152 L21.76,52.8393939 L28.16,40.1515152 C28.32,39.9106061 30.16,39.75 30.48,39.75 L36.08,39.75 C40.24,39.75 43.6,36.3772727 43.6,32.2015152 L43.6,7.54848485 C43.6,3.37272727 40.24,0 36.08,0 C31.5534722,4.35829201e-17 28.1585764,7.62701102e-17 25.8953125,9.80615702e-17 C21.8119097,1.37377935e-16 15.6868056,1.96352482e-16 7.52,2.74985211e-16 Z" id="path-2"></path>
        <filter x="-18.3%" y="-13.2%" width="136.7%" height="130.3%" filterUnits="objectBoundingBox" id="filter-3">
            <feOffset dx="0" dy="1" in="SourceAlpha" result="shadowOffsetOuter1"></feOffset>
            <feGaussianBlur stdDeviation="2.5" in="shadowOffsetOuter1" result="shadowBlurOuter1"></feGaussianBlur>
            <feComposite in="shadowBlurOuter1" in2="SourceAlpha" operator="out" result="shadowBlurOuter1"></feComposite>
            <feColorMatrix values="0 0 0 0 0   0 0 0 0 0   0 0 0 0 0  0 0 0 0.271993886 0" type="matrix" in="shadowBlurOuter1"></feColorMatrix>
        </filter>
    </defs>
    <g id="location-pin-unselected" stroke="none" stroke-width="1" fill="none" fill-rule="evenodd">
        <g id="location-pin">
            <g id="Path">
                <use fill="black" fill-opacity="1" filter="url(#filter-3)" xlink:href="#path-2"></use>
                <use fill="url(#linearGradient-1)" fill-rule="evenodd" xlink:href="#path-2"></use>
                <path stroke="#FFFFFF" stroke-width="1.6" d="M21.7603516,51.0637612 L27.493587,39.7089163 C27.8561269,39.1630466 29.4327868,38.95 30.48,38.95 L36.08,38.95 C39.7974937,38.95 42.8,35.9361206 42.8,32.2015152 L42.8,7.54848485 C42.8,3.81387942 39.7974937,0.8 36.08,0.8 C29.8560243,0.8 29.8560243,0.8 25.8953125,0.8 C18.7493576,0.8 18.7493576,0.8 7.52,0.8 C3.80250629,0.8 0.8,3.81387942 0.8,7.54848485 L0.8,32.2015152 C0.8,35.9361206 3.80250629,38.95 7.52,38.95 L13.04,38.95 C14.0872132,38.95 15.6638731,39.1630466 16.0742749,39.7912217 L21.7603516,51.0637612 Z M28.6049411,40.8017139 C28.6026515,40.8025804 28.6005695,40.8034023 28.5987008,40.8041765 C28.6031444,40.8023356 28.6075985,40.8004198 28.6120829,40.798383 Z"></path>
            </g>
        </g>
        <g id="yoga" transform="translate(4.000000, 6.000000)" fill="#FFFFFF">
            <path d="M15.4327156,3.2283631 C14.9298034,3.500838 14.5921188,4.00347195 14.5921188,4.57884826 C14.5921188,4.76260049 14.6284925,4.97677923 14.6725502,5.10270406 C14.8411424,5.58462753 15.5319704,6.76738338 15.5319704,6.76738338 C15.6083098,6.8981236 15.6883774,6.96123517 15.8265521,6.96123517 L16.7673586,6.96123517 C16.8977129,6.96123517 16.9953309,6.8800552 17.0492095,6.78566485 C17.0492095,6.78566485 17.7365365,5.58190022 17.9108121,5.10270406 C17.9565521,4.97694969 18.0018828,4.76260049 18.0018828,4.57884826 C18.0018828,4.00347195 17.6641982,3.50088061 17.161286,3.22840571 C17.1477368,2.79992039 16.7664492,2.45619462 16.2970008,2.45619462 C15.8275524,2.45619462 15.4462648,2.79992039 15.4327156,3.2283631 M22.7190095,19.3751218 C21.6416652,19.7897149 17.5576687,21.4851191 17.5576687,21.4851191 C17.5576687,21.4851191 17.2426268,20.6241001 18.1177331,20.094534 C18.9928395,19.5649253 21.3549948,18.1354761 21.3549948,18.1354761 L17.1727437,15.7327622 L17.1265491,21.5724355 C17.1265491,21.5724355 17.688796,25.9103007 17.8350638,27.0639511 C17.9722382,28.1460949 17.4000795,28.9215447 16.8055055,28.9186895 C16.8055055,28.9186895 13.981222,17.4258226 13.792306,16.3525851 C13.4588499,14.4582155 14.3379119,12.7032368 14.3379119,12.7032368 L14.0499229,10.4508656 C14.0499229,10.4508656 12.0228606,6.13238987 11.8068916,3.34312301 C11.7830213,3.03451131 11.8771384,2.7930169 12.1456674,2.60692089 L15.9079383,0 C15.9079383,0 16.1786953,0.739824332 15.6623247,1.18420473 C15.1459542,1.62858513 13.1971864,3.46849386 13.1971864,3.46849386 C13.1971864,3.46849386 13.420521,4.73600926 14.9771801,7.54854344 L17.5968159,7.54854344 C19.1953048,4.71163396 19.4029988,3.46896261 19.4029988,3.46896261 C19.4029988,3.46896261 17.4731452,1.66749186 16.957093,1.19323893 C16.4410862,0.71898601 16.7114794,0.00899158654 16.7114794,0.00899158654 L20.530266,2.62362563 C20.7262749,2.75943694 20.8250296,2.98056179 20.7982495,3.20484008 C20.6047867,4.82656434 19.8337546,7.47482095 19.4713814,8.35655042 C18.73545,10.1471972 18.0909075,11.4489317 18.0909075,11.4489317 L18.5288927,12.7646864 C18.5288927,12.7646864 22.2911181,15.8779486 23.0239578,16.4228558 C24.0804327,17.2084478 24.5923929,18.6542182 22.7190095,19.3751218" id="Fill-1"></path>
        </g>
    </g>
</svg>