<?xml version="1.0" encoding="UTF-8"?>
<svg width="44px" height="53px" viewBox="0 0 44 53" version="1.1" xmlns="http://www.w3.org/2000/svg" xmlns:xlink="http://www.w3.org/1999/xlink">
    <!-- Generator: Sketch 49.2 (51160) - http://www.bohemiancoding.com/sketch -->
    <title>location-pin-unselected</title>
    <desc>Created with Sketch.</desc>
    <defs>
        <linearGradient x1="50%" y1="0%" x2="50%" y2="100%" id="linearGradient-1">
            <stop stop-color="#19A4EA" offset="0%"></stop>
            <stop stop-color="#0082C3" offset="100%"></stop>
        </linearGradient>
        <path d="M7.52,2.74985211e-16 C3.36,2.74985211e-16 0,3.37272727 0,7.54848485 L0,32.2015152 C0,36.3772727 3.36,39.75 7.52,39.75 L13.04,39.75 C13.36,39.75 15.2,39.9106061 15.36,40.1515152 L21.76,52.8393939 L28.16,40.1515152 C28.32,39.9106061 30.16,39.75 30.48,39.75 L36.08,39.75 C40.24,39.75 43.6,36.3772727 43.6,32.2015152 L43.6,7.54848485 C43.6,3.37272727 40.24,0 36.08,0 C31.5534722,4.35829201e-17 28.1585764,7.62701102e-17 25.8953125,9.80615702e-17 C21.8119097,1.37377935e-16 15.6868056,1.96352482e-16 7.52,2.74985211e-16 Z" id="path-2"></path>
        <filter x="-18.3%" y="-13.2%" width="136.7%" height="130.3%" filterUnits="objectBoundingBox" id="filter-3">
            <feOffset dx="0" dy="1" in="SourceAlpha" result="shadowOffsetOuter1"></feOffset>
            <feGaussianBlur stdDeviation="2.5" in="shadowOffsetOuter1" result="shadowBlurOuter1"></feGaussianBlur>
            <feComposite in="shadowBlurOuter1" in2="SourceAlpha" operator="out" result="shadowBlurOuter1"></feComposite>
            <feColorMatrix values="0 0 0 0 0   0 0 0 0 0   0 0 0 0 0  0 0 0 0.271993886 0" type="matrix" in="shadowBlurOuter1"></feColorMatrix>
        </filter>
    </defs>
    <g id="location-pin-unselected" stroke="none" stroke-width="1" fill="none" fill-rule="evenodd">
        <g id="location-pin">
            <g id="Path">
                <use fill="black" fill-opacity="1" filter="url(#filter-3)" xlink:href="#path-2"></use>
                <use fill="url(#linearGradient-1)" fill-rule="evenodd" xlink:href="#path-2"></use>
                <path stroke="#FFFFFF" stroke-width="1.6" d="M21.7603516,51.0637612 L27.493587,39.7089163 C27.8561269,39.1630466 29.4327868,38.95 30.48,38.95 L36.08,38.95 C39.7974937,38.95 42.8,35.9361206 42.8,32.2015152 L42.8,7.54848485 C42.8,3.81387942 39.7974937,0.8 36.08,0.8 C29.8560243,0.8 29.8560243,0.8 25.8953125,0.8 C18.7493576,0.8 18.7493576,0.8 7.52,0.8 C3.80250629,0.8 0.8,3.81387942 0.8,7.54848485 L0.8,32.2015152 C0.8,35.9361206 3.80250629,38.95 7.52,38.95 L13.04,38.95 C14.0872132,38.95 15.6638731,39.1630466 16.0742749,39.7912217 L21.7603516,51.0637612 Z M28.6049411,40.8017139 C28.6026515,40.8025804 28.6005695,40.8034023 28.5987008,40.8041765 C28.6031444,40.8023356 28.6075985,40.8004198 28.6120829,40.798383 Z"></path>
            </g>
        </g>
        <g id="jujitsu" transform="translate(6.000000, 6.000000)" fill="#FFFFFF">
            <path d="M16.0825486,4.5246008 C16.3793659,4.52496226 16.6283922,4.56079185 16.6680171,4.30397547 C16.7611881,3.70137871 16.9426694,2.52672845 16.9941545,2.19350876 C17.1548317,1.15250783 16.5190057,0.194009845 15.7239802,0.0282358692 C14.9281769,-0.137583289 14.0231816,0.436819696 13.8600157,1.49137532 C13.8037865,1.85681002 13.820663,2.21686802 13.9195503,2.54751233 C14.0683672,3.04578308 15.4469948,4.52392306 15.4469948,4.52392306 C15.4469948,4.52392306 15.7475452,4.52423934 16.0825486,4.5246008 Z" id="Path"></path>
            <path d="M17.4718043,5.10418754 C17.8459336,7.18896151 18.3206502,8.44260707 18.8959541,8.8651242 C19.471258,9.28764134 20.2603748,9.49889991 21.2633045,9.49889991 L20.0609315,11.4966471 C18.3348467,11.2124519 17.4718043,10.9731053 17.4718043,10.7786074 C17.4718043,10.4868607 16.21152,12.825808 16.6428681,13.8234383 C16.9304334,14.4885253 18.1669992,16.3861687 20.3525653,19.5163687 L20.3525653,28.1825746 L18.1599875,28.1825746 L17.8727684,22.3307859 L15.432964,17.8391009 C14.8124737,17.1410451 14.3379302,17.1410451 14.0093336,17.8391009 C13.5164385,18.8861846 12.3722365,20.4355369 12.3722365,20.98643 C12.3722365,21.353692 12.3722365,23.5894045 12.3722365,27.6935672 L9.57068141,27.6935672 C9.21559616,22.3988418 9.21559616,19.4327494 9.57068141,18.79529 C9.92576665,18.1578306 10.689174,16.1692005 11.8609033,12.8293995 L10.8286285,10.248435 C11.0538678,7.22561404 11.2822235,5.51086489 11.5136954,5.10418754 C11.8609033,4.49417151 12.5153267,4.49417151 13.0715865,4.49417151 C13.4424264,4.49417151 14.9091656,4.69751019 17.4718043,5.10418754 Z" id="Path-11"></path>
            <path d="M21.2739518,10.6727172 C22.5611575,10.6727172 23.2719339,10.6727172 23.4062812,10.6727172 C23.607802,10.6727172 24.2824813,10.1737639 24.0701832,9.79429968 C23.8578852,9.41483546 23.9200814,9.15195944 23.4062812,9.15195944 C22.8924809,9.15195944 23.6209483,8.92928149 23.1567173,9.15195944 C22.8472301,9.3004114 22.4452272,9.37463739 21.9507086,9.37463739 L21.2739518,10.6727172 Z" id="Path-12"></path>
            <path d="M18.4285088,28.5710178 C18.3995965,28.9322479 18.4657097,29.1603592 18.6268484,29.2553519 C18.8685566,29.3978409 21.0607449,29.2553519 21.35556,29.2553519 C21.6503751,29.2553519 22.2087774,29.0774229 21.7821687,28.9448491 C21.4977629,28.8564666 20.9635436,28.6884118 20.1795107,28.4406849 C19.3626735,28.4406849 18.9163832,28.4406849 18.8406397,28.4406849 C18.7648963,28.4406849 18.6275193,28.4841292 18.4285088,28.5710178 Z" id="Path-13"></path>
            <path d="M8.47235537,28.1915536 C8.44344302,28.5527836 8.50955622,28.780895 8.67069498,28.8758877 C8.91240312,29.0183767 11.1045914,28.8758877 11.3994065,28.8758877 C11.6942216,28.8758877 12.2526239,28.6979587 11.8260152,28.5653849 C11.5416094,28.4770023 11.0073901,28.3089476 10.2233572,28.0612207 C9.40652002,28.0612207 8.96022969,28.0612207 8.88448625,28.0612207 C8.80874281,28.0612207 8.67136585,28.104665 8.47235537,28.1915536 Z" id="Path-13" transform="translate(10.223357, 28.627033) scale(-1, 1) rotate(9.000000) translate(-10.223357, -28.627033) "></path>
        </g>
    </g>
</svg>