<?xml version="1.0" encoding="UTF-8"?>
<svg width="44px" height="53px" viewBox="0 0 44 53" version="1.1" xmlns="http://www.w3.org/2000/svg" xmlns:xlink="http://www.w3.org/1999/xlink">
    <!-- Generator: Sketch 49.2 (51160) - http://www.bohemiancoding.com/sketch -->
    <title>location-pin-unselected</title>
    <desc>Created with Sketch.</desc>
    <defs>
        <linearGradient x1="50%" y1="0%" x2="50%" y2="100%" id="linearGradient-1">
            <stop stop-color="#19A4EA" offset="0%"></stop>
            <stop stop-color="#0082C3" offset="100%"></stop>
        </linearGradient>
        <path d="M7.52,2.74985211e-16 C3.36,2.74985211e-16 0,3.37272727 0,7.54848485 L0,32.2015152 C0,36.3772727 3.36,39.75 7.52,39.75 L13.04,39.75 C13.36,39.75 15.2,39.9106061 15.36,40.1515152 L21.76,52.8393939 L28.16,40.1515152 C28.32,39.9106061 30.16,39.75 30.48,39.75 L36.08,39.75 C40.24,39.75 43.6,36.3772727 43.6,32.2015152 L43.6,7.54848485 C43.6,3.37272727 40.24,0 36.08,0 C31.5534722,4.35829201e-17 28.1585764,7.62701102e-17 25.8953125,9.80615702e-17 C21.8119097,1.37377935e-16 15.6868056,1.96352482e-16 7.52,2.74985211e-16 Z" id="path-2"></path>
        <filter x="-18.3%" y="-13.2%" width="136.7%" height="130.3%" filterUnits="objectBoundingBox" id="filter-3">
            <feOffset dx="0" dy="1" in="SourceAlpha" result="shadowOffsetOuter1"></feOffset>
            <feGaussianBlur stdDeviation="2.5" in="shadowOffsetOuter1" result="shadowBlurOuter1"></feGaussianBlur>
            <feComposite in="shadowBlurOuter1" in2="SourceAlpha" operator="out" result="shadowBlurOuter1"></feComposite>
            <feColorMatrix values="0 0 0 0 0   0 0 0 0 0   0 0 0 0 0  0 0 0 0.271993886 0" type="matrix" in="shadowBlurOuter1"></feColorMatrix>
        </filter>
    </defs>
    <g id="location-pin-unselected" stroke="none" stroke-width="1" fill="none" fill-rule="evenodd">
        <g id="location-pin">
            <g id="Path">
                <use fill="black" fill-opacity="1" filter="url(#filter-3)" xlink:href="#path-2"></use>
                <use fill="url(#linearGradient-1)" fill-rule="evenodd" xlink:href="#path-2"></use>
                <path stroke="#FFFFFF" stroke-width="1.6" d="M21.7603516,51.0637612 L27.493587,39.7089163 C27.8561269,39.1630466 29.4327868,38.95 30.48,38.95 L36.08,38.95 C39.7974937,38.95 42.8,35.9361206 42.8,32.2015152 L42.8,7.54848485 C42.8,3.81387942 39.7974937,0.8 36.08,0.8 C29.8560243,0.8 29.8560243,0.8 25.8953125,0.8 C18.7493576,0.8 18.7493576,0.8 7.52,0.8 C3.80250629,0.8 0.8,3.81387942 0.8,7.54848485 L0.8,32.2015152 C0.8,35.9361206 3.80250629,38.95 7.52,38.95 L13.04,38.95 C14.0872132,38.95 15.6638731,39.1630466 16.0742749,39.7912217 L21.7603516,51.0637612 Z M28.6049411,40.8017139 C28.6026515,40.8025804 28.6005695,40.8034023 28.5987008,40.8041765 C28.6031444,40.8023356 28.6075985,40.8004198 28.6120829,40.798383 Z"></path>
            </g>
        </g>
        <g id="kendo" transform="translate(6.000000, 5.000000)" fill="#FFFFFF">
            <path d="M11.1064889,6.18659077 C11.8634233,6.15520058 12.3217816,5.97830764 12.4815639,5.65591193 C12.6413461,5.33351623 12.8018505,5.09402755 12.9630771,4.9374459 L10.4310706,4.9374459 L11.1064889,6.18659077 Z" id="Path-15" transform="translate(11.697074, 5.562018) scale(-1, 1) translate(-11.697074, -5.562018) "></path>
            <path d="M20.0496892,28.265988 C20.8941878,28.6516257 21.4738272,28.8444446 21.7886072,28.8444446 C22.2607771,28.8444446 22.2607771,28.8444446 22.2607771,28.5552163 C22.2607771,28.3623974 21.8922625,28.1382115 21.1552332,27.8826584 L20.0496892,27.8826584 L20.0496892,28.265988 Z" id="Path-16"></path>
            <path d="M10.0662796,28.265988 C10.9107783,28.6516257 11.4904176,28.8444446 11.8051976,28.8444446 C12.2773676,28.8444446 12.2773676,28.8444446 12.2773676,28.5552163 C12.2773676,28.3623974 11.9088529,28.1382115 11.1718236,27.8826584 L10.0662796,27.8826584 L10.0662796,28.265988 Z" id="Path-16" transform="translate(11.171824, 28.449898) scale(-1, 1) translate(-11.171824, -28.449898) "></path>
            <path d="M14.4738202,2.19809611 C14.395697,1.88720036 14.4050507,1.55677542 14.4909906,1.22805648 C14.7387102,0.279117353 15.7215082,-0.165609476 16.5351929,0.0560805182 C17.348175,0.277815407 17.9367999,1.20969455 17.6924178,2.14588358 C17.6141189,2.4460944 17.3595048,3.42125202 17.2178379,3.96331055 C17.1574999,4.19438353 16.9439894,4.21826751 16.6361954,4.18715549 C16.2811936,4.15132952 15.7471101,4.08838716 15.7471101,4.08838716 C15.7471101,4.08838716 14.5912466,2.66643755 14.4738202,2.19809611 Z" id="Path"></path>
            <path d="M12.9580669,17.6765078 C12.9580669,18.3953893 12.2169753,26.6650884 11.6299788,26.988315 C11.0429823,27.3115416 13.3670011,28.2283198 14.3393707,27.9973249 C14.987617,27.8433284 15.6019661,27.2579475 16.1824179,26.2411823 L16.9262177,26.2411823 C16.9170099,27.4119441 17.1258552,27.9973249 17.5527535,27.9973249 C17.9796519,27.9973249 19.5016452,27.8257406 22.1187335,27.482572 C21.5028949,26.9486618 21.1949756,26.5348653 21.1949756,26.2411823 C21.1949756,25.9474994 20.8009815,23.0926079 20.0129934,17.6765078 L21.9410773,17.3368013 C20.1357188,15.3600503 19.2330396,13.8916819 19.2330396,12.9316961 C19.2330396,11.4917173 19.9314774,10.8491417 20.2013469,10.1733294 C20.4712163,9.49751711 20.6299153,7.12192608 19.9314774,6.72599424 C19.2330396,6.3300624 17.9092845,5.07274685 17.5527535,5.07274685 C17.3150662,5.07274685 16.4922329,5.07274685 15.0842537,5.07274685 C14.4221053,5.60868816 14.0181813,5.87665882 13.8724816,5.87665882 C13.7267819,5.87665882 13.2000422,6.0552136 12.2922626,6.41232316 C11.872586,8.5192511 12.001495,9.95004361 12.6789897,10.7047007 C13.6952317,11.8366863 13.866659,12.7048558 13.6952317,12.9316961 C13.5809468,13.0829229 12.8925291,14.5512914 11.6299788,17.3368013 C12.5153709,17.084018 12.9580669,17.1972535 12.9580669,17.6765078 Z" id="Path-14"></path>
            <path d="M19.9806308,6.18659077 C20.7375651,6.15520058 21.1959235,5.97830764 21.3557057,5.65591193 C21.5154879,5.33351623 21.6759923,5.09402755 21.8372189,4.9374459 L19.3052124,4.9374459 L19.9806308,6.18659077 Z" id="Path-15"></path>
        </g>
    </g>
</svg>