<?xml version="1.0" encoding="UTF-8"?>
<svg width="44px" height="53px" viewBox="0 0 44 53" version="1.1" xmlns="http://www.w3.org/2000/svg" xmlns:xlink="http://www.w3.org/1999/xlink">
    <!-- Generator: Sketch 49.2 (51160) - http://www.bohemiancoding.com/sketch -->
    <title>location-pin-unselected</title>
    <desc>Created with Sketch.</desc>
    <defs>
        <linearGradient x1="50%" y1="0%" x2="50%" y2="100%" id="linearGradient-1">
            <stop stop-color="#19A4EA" offset="0%"></stop>
            <stop stop-color="#0082C3" offset="100%"></stop>
        </linearGradient>
        <path d="M7.52,2.74985211e-16 C3.36,2.74985211e-16 0,3.37272727 0,7.54848485 L0,32.2015152 C0,36.3772727 3.36,39.75 7.52,39.75 L13.04,39.75 C13.36,39.75 15.2,39.9106061 15.36,40.1515152 L21.76,52.8393939 L28.16,40.1515152 C28.32,39.9106061 30.16,39.75 30.48,39.75 L36.08,39.75 C40.24,39.75 43.6,36.3772727 43.6,32.2015152 L43.6,7.54848485 C43.6,3.37272727 40.24,0 36.08,0 C31.5534722,4.35829201e-17 28.1585764,7.62701102e-17 25.8953125,9.80615702e-17 C21.8119097,1.37377935e-16 15.6868056,1.96352482e-16 7.52,2.74985211e-16 Z" id="path-2"></path>
        <filter x="-18.3%" y="-13.2%" width="136.7%" height="130.3%" filterUnits="objectBoundingBox" id="filter-3">
            <feOffset dx="0" dy="1" in="SourceAlpha" result="shadowOffsetOuter1"></feOffset>
            <feGaussianBlur stdDeviation="2.5" in="shadowOffsetOuter1" result="shadowBlurOuter1"></feGaussianBlur>
            <feComposite in="shadowBlurOuter1" in2="SourceAlpha" operator="out" result="shadowBlurOuter1"></feComposite>
            <feColorMatrix values="0 0 0 0 0   0 0 0 0 0   0 0 0 0 0  0 0 0 0.271993886 0" type="matrix" in="shadowBlurOuter1"></feColorMatrix>
        </filter>
    </defs>
    <g id="location-pin-unselected" stroke="none" stroke-width="1" fill="none" fill-rule="evenodd">
        <g id="location-pin">
            <g id="Path">
                <use fill="black" fill-opacity="1" filter="url(#filter-3)" xlink:href="#path-2"></use>
                <use fill="url(#linearGradient-1)" fill-rule="evenodd" xlink:href="#path-2"></use>
                <path stroke="#FFFFFF" stroke-width="1.6" d="M21.7603516,51.0637612 L27.493587,39.7089163 C27.8561269,39.1630466 29.4327868,38.95 30.48,38.95 L36.08,38.95 C39.7974937,38.95 42.8,35.9361206 42.8,32.2015152 L42.8,7.54848485 C42.8,3.81387942 39.7974937,0.8 36.08,0.8 C29.8560243,0.8 29.8560243,0.8 25.8953125,0.8 C18.7493576,0.8 18.7493576,0.8 7.52,0.8 C3.80250629,0.8 0.8,3.81387942 0.8,7.54848485 L0.8,32.2015152 C0.8,35.9361206 3.80250629,38.95 7.52,38.95 L13.04,38.95 C14.0872132,38.95 15.6638731,39.1630466 16.0742749,39.7912217 L21.7603516,51.0637612 Z M28.6049411,40.8017139 C28.6026515,40.8025804 28.6005695,40.8034023 28.5987008,40.8041765 C28.6031444,40.8023356 28.6075985,40.8004198 28.6120829,40.798383 Z"></path>
            </g>
        </g>
        <g id="tai-chi" transform="translate(4.000000, 6.000000)" fill="#FFFFFF">
            <g id="Group" transform="translate(5.975399, -1.128686)">
                <path d="M10.4097785,6.65318754 C11.6545452,6.86881367 12.3995249,6.86881367 12.6447177,6.65318754 C13.0125068,6.32974834 15.068171,6.6576626 15.068171,7.76238647 C15.068171,8.49886905 15.1410049,10.7907197 15.2866725,14.6379385 L9.24595035,15.2304988 L9.00978076,12.371858 L4.63035041,10.8825422 L5.22117962,9.41831493 C5.87949358,9.41831493 6.20865056,9.41831493 6.20865056,9.41831493 C6.20865056,9.41831493 3.20036542,7.54604021 3.20036542,6.65318754 C3.20036542,6.05795242 3.41594919,5.52819728 3.84711673,5.06392212 L5.84134768,5.06392212 C5.90423979,6.26457698 6.21578265,6.86490442 6.77597627,6.86490442 C7.3361699,6.86490442 8.54743732,6.79433212 10.4097785,6.65318754 Z" id="Path-24"></path>
                <path d="M5.33188918,4.8822962 L5.56951761,3.16402545 C6.14624473,3.10106591 6.57244142,2.97987909 6.84810769,2.80046498 C7.12377395,2.62105086 7.31920416,2.39734904 7.43439829,2.1293595 C7.21665328,1.95745527 7.02122308,1.95745527 6.84810769,2.1293595 C6.5884346,2.38721585 6.84810769,1.26366584 6.84810769,0.779124293 C6.84810769,0.294582744 4.9506463,2.9882634 5.12246495,2.42517674 C4.81157045,2.91774255 4.81157045,3.341022 5.12246495,3.69501509" id="Path-25"></path>
                <polygon id="Path-26" points="5.08372471 2.57239096 4.24716241 4.75174774 4.24716241 5.22039509 5.42574107 5.22039509 5.66709764 3.19519659"></polygon>
                <path d="M4.9717184,10.5015893 C3.99300049,9.93207299 3.26779613,9.64731482 2.79610532,9.64731482 C2.32441451,9.64731482 1.76962399,9.31333093 1.13173376,8.64536314 C0.921336965,8.14950533 1.12924833,7.99154067 1.75546786,8.17146916 C2.38168739,8.35139765 2.82355308,8.50936231 3.08106492,8.64536314 L3.08106492,8.17146916 C3.32431258,7.83331883 3.44593641,7.91700769 3.44593641,8.42253575 C3.44593641,9.18082784 6.26084452,9.98892619 6.52343528,10.3076184 C6.69849579,10.5200799 6.59956499,10.4578405 6.22664289,10.1209002 L4.9717184,10.5015893 Z" id="Path-27"></path>
                <path d="M15.2036808,15.1695453 L21.3669453,26.2053649 L19.8311136,27.0797001 L14.3846246,19.4430784 C12.8608418,17.6250702 11.7809778,17.8433711 11.1450327,20.097981 C10.5090876,22.3525909 9.85066554,25.2372077 9.16976661,28.7518313 L7.05234494,28.0753249 C7.79743272,19.6380266 8.66911518,15.5041465 9.66739231,15.6736846 C10.6656695,15.8432227 12.511099,15.6751763 15.2036808,15.1695453 Z" id="Path-28"></path>
                <path d="M20.5512931,27.0567075 C20.5512931,27.0567075 20.2942135,27.638003 20.7206803,28.0000204 C21.1471472,28.3620377 21.341983,28.7651022 22.1331593,29.2092139 C22.9243355,29.6533255 23.3615005,29.3681558 23.3615005,28.9704923 C23.3615005,28.5728287 21.9179908,27.4829189 21.9179908,27.4829189 C21.9179908,27.4829189 21.7259882,27.21889 21.341983,26.6908323 C20.8148564,26.9347491 20.5512931,27.0567075 20.5512931,27.0567075 Z" id="Path-29"></path>
                <path d="M5.80745007,27.9350548 C5.80745007,27.9350548 5.55037048,28.5163503 5.97683732,28.8783677 C6.40330417,29.240385 6.59814003,29.6434495 7.38931626,30.0875612 C8.1804925,30.5316728 8.61765749,30.2465031 8.61765749,29.8488396 C8.61765749,29.451176 7.1741478,28.3612662 7.1741478,28.3612662 C7.1741478,28.3612662 6.98214521,28.0972373 6.59814003,27.5691796 C6.07101339,27.8130964 5.80745007,27.9350548 5.80745007,27.9350548 Z" id="Path-29" transform="translate(7.174148, 28.940808) scale(-1, 1) rotate(-7.000000) translate(-7.174148, -28.940808) "></path>
                <path d="M12.1094434,6.31852708 C12.4799752,6.31893087 12.7908471,6.35895584 12.8403128,6.07206815 C12.9566228,5.39891174 13.1831748,4.08671857 13.2474463,3.71448129 C13.4480276,2.55158681 12.6542945,1.48085575 11.6618248,1.29567086 C10.6683841,1.1104355 9.53863368,1.75209685 9.33494559,2.93013319 C9.26475184,3.33835761 9.28581967,3.74057575 9.40926553,4.10993608 C9.59504111,4.66655068 11.3160501,6.31776999 11.3160501,6.31776999 C11.3160501,6.31776999 11.691242,6.3181233 12.1094434,6.31852708 Z" id="Path" transform="translate(11.286864, 3.792386) scale(-1, 1) translate(-11.286864, -3.792386) "></path>
            </g>
        </g>
    </g>
</svg>