<?xml version="1.0" encoding="UTF-8"?>
<svg width="44px" height="53px" viewBox="0 0 44 53" version="1.1" xmlns="http://www.w3.org/2000/svg" xmlns:xlink="http://www.w3.org/1999/xlink">
    <!-- Generator: Sketch 49.2 (51160) - http://www.bohemiancoding.com/sketch -->
    <title>location-pin-unselected</title>
    <desc>Created with Sketch.</desc>
    <defs>
        <linearGradient x1="50%" y1="0%" x2="50%" y2="100%" id="linearGradient-1">
            <stop stop-color="#19A4EA" offset="0%"></stop>
            <stop stop-color="#0082C3" offset="100%"></stop>
        </linearGradient>
        <path d="M7.52,2.74985211e-16 C3.36,2.74985211e-16 0,3.37272727 0,7.54848485 L0,32.2015152 C0,36.3772727 3.36,39.75 7.52,39.75 L13.04,39.75 C13.36,39.75 15.2,39.9106061 15.36,40.1515152 L21.76,52.8393939 L28.16,40.1515152 C28.32,39.9106061 30.16,39.75 30.48,39.75 L36.08,39.75 C40.24,39.75 43.6,36.3772727 43.6,32.2015152 L43.6,7.54848485 C43.6,3.37272727 40.24,0 36.08,0 C31.5534722,4.35829201e-17 28.1585764,7.62701102e-17 25.8953125,9.80615702e-17 C21.8119097,1.37377935e-16 15.6868056,1.96352482e-16 7.52,2.74985211e-16 Z" id="path-2"></path>
        <filter x="-18.3%" y="-13.2%" width="136.7%" height="130.3%" filterUnits="objectBoundingBox" id="filter-3">
            <feOffset dx="0" dy="1" in="SourceAlpha" result="shadowOffsetOuter1"></feOffset>
            <feGaussianBlur stdDeviation="2.5" in="shadowOffsetOuter1" result="shadowBlurOuter1"></feGaussianBlur>
            <feComposite in="shadowBlurOuter1" in2="SourceAlpha" operator="out" result="shadowBlurOuter1"></feComposite>
            <feColorMatrix values="0 0 0 0 0   0 0 0 0 0   0 0 0 0 0  0 0 0 0.271993886 0" type="matrix" in="shadowBlurOuter1"></feColorMatrix>
        </filter>
    </defs>
    <g id="location-pin-unselected" stroke="none" stroke-width="1" fill="none" fill-rule="evenodd">
        <g id="location-pin">
            <g id="Path">
                <use fill="black" fill-opacity="1" filter="url(#filter-3)" xlink:href="#path-2"></use>
                <use fill="url(#linearGradient-1)" fill-rule="evenodd" xlink:href="#path-2"></use>
                <path stroke="#FFFFFF" stroke-width="1.6" d="M21.7603516,51.0637612 L27.493587,39.7089163 C27.8561269,39.1630466 29.4327868,38.95 30.48,38.95 L36.08,38.95 C39.7974937,38.95 42.8,35.9361206 42.8,32.2015152 L42.8,7.54848485 C42.8,3.81387942 39.7974937,0.8 36.08,0.8 C29.8560243,0.8 29.8560243,0.8 25.8953125,0.8 C18.7493576,0.8 18.7493576,0.8 7.52,0.8 C3.80250629,0.8 0.8,3.81387942 0.8,7.54848485 L0.8,32.2015152 C0.8,35.9361206 3.80250629,38.95 7.52,38.95 L13.04,38.95 C14.0872132,38.95 15.6638731,39.1630466 16.0742749,39.7912217 L21.7603516,51.0637612 Z M28.6049411,40.8017139 C28.6026515,40.8025804 28.6005695,40.8034023 28.5987008,40.8041765 C28.6031444,40.8023356 28.6075985,40.8004198 28.6120829,40.798383 Z"></path>
            </g>
        </g>
        <g id="kungfu" transform="translate(4.000000, 6.000000)" fill="#FFFFFF">
            <g id="Group" transform="translate(9.500296, -1.169544)">
                <path d="M8.93262942,5.84506138 C8.93262942,5.84506138 9.26817094,5.84538826 9.64217665,5.84576183 C9.97355048,5.8461354 10.2515694,5.88316562 10.2958075,5.61774346 C10.3998258,4.99495401 10.6024358,3.78094184 10.659915,3.43655612 C10.8392988,2.36067181 10.1294477,1.37005506 9.24186247,1.19872609 C8.35340897,1.02735042 7.34305089,1.62100134 7.16088861,2.71089457 C7.09811296,3.08857479 7.11695434,3.46069815 7.2273544,3.80242216 C7.39349716,4.31738971 8.93262942,5.84506138 8.93262942,5.84506138 Z" id="Path" transform="translate(8.906528, 3.508632) scale(-1, 1) rotate(18.000000) translate(-8.906528, -3.508632) "></path>
                <path d="M6.61992091,7.78371506 C9.99512313,7.1024255 11.9071096,6.87532898 12.3558803,7.1024255 C13.0290364,7.44307028 15.8317217,10.3804788 16.1353762,10.8097403 C16.3378126,11.0959147 16.5011933,13.3262319 16.6255185,17.5006919 L15.3663708,16.1683684 L14.851753,12.5860693 L13.1108321,10.1648497 L13.4076966,18.3008539 C12.5116289,18.3008539 12.0635951,18.3008539 12.0635951,18.3008539 C12.0635951,18.3008539 11.9187157,22.3002304 11.628957,30.2989835 L9.41660576,32.7472334 L9.41660576,19.9077819 L5.61231851,16.6888576 L5.61231851,20.6601799 L3.86918689,22.4931805 L3.62774761,13.4639437 C3.66326001,12.8948183 3.80379694,12.6021935 4.04935839,12.5860693 C4.41090974,12.5623288 4.78795902,12.4355531 5.22149952,12.8001625 C6.09672351,13.5362296 6.74477244,14.0539032 7.16564632,14.3531832 L7.16564632,10.1648497 L4.95084751,11.890343 C3.93371808,12.6456591 2.90048217,12.4257809 1.85113977,11.2307085 C0.801797384,10.0356361 0.184750792,9.19441652 2.02036221e-16,8.70704978 L0,7.1024255 L3.62774761,10.8097403" id="Path-21"></path>
            </g>
        </g>
    </g>
</svg>