<?xml version="1.0" encoding="UTF-8"?>
<svg width="44px" height="53px" viewBox="0 0 44 53" version="1.1" xmlns="http://www.w3.org/2000/svg" xmlns:xlink="http://www.w3.org/1999/xlink">
    <!-- Generator: Sketch 49.2 (51160) - http://www.bohemiancoding.com/sketch -->
    <title>location-pin-unselected</title>
    <desc>Created with Sketch.</desc>
    <defs>
        <linearGradient x1="50%" y1="0%" x2="50%" y2="100%" id="linearGradient-1">
            <stop stop-color="#19A4EA" offset="0%"></stop>
            <stop stop-color="#0082C3" offset="100%"></stop>
        </linearGradient>
        <path d="M7.52,2.74985211e-16 C3.36,2.74985211e-16 0,3.37272727 0,7.54848485 L0,32.2015152 C0,36.3772727 3.36,39.75 7.52,39.75 L13.04,39.75 C13.36,39.75 15.2,39.9106061 15.36,40.1515152 L21.76,52.8393939 L28.16,40.1515152 C28.32,39.9106061 30.16,39.75 30.48,39.75 L36.08,39.75 C40.24,39.75 43.6,36.3772727 43.6,32.2015152 L43.6,7.54848485 C43.6,3.37272727 40.24,0 36.08,0 C31.5534722,4.35829201e-17 28.1585764,7.62701102e-17 25.8953125,9.80615702e-17 C21.8119097,1.37377935e-16 15.6868056,1.96352482e-16 7.52,2.74985211e-16 Z" id="path-2"></path>
        <filter x="-18.3%" y="-13.2%" width="136.7%" height="130.3%" filterUnits="objectBoundingBox" id="filter-3">
            <feOffset dx="0" dy="1" in="SourceAlpha" result="shadowOffsetOuter1"></feOffset>
            <feGaussianBlur stdDeviation="2.5" in="shadowOffsetOuter1" result="shadowBlurOuter1"></feGaussianBlur>
            <feComposite in="shadowBlurOuter1" in2="SourceAlpha" operator="out" result="shadowBlurOuter1"></feComposite>
            <feColorMatrix values="0 0 0 0 0   0 0 0 0 0   0 0 0 0 0  0 0 0 0.271993886 0" type="matrix" in="shadowBlurOuter1"></feColorMatrix>
        </filter>
    </defs>
    <g id="location-pin-unselected" stroke="none" stroke-width="1" fill="none" fill-rule="evenodd">
        <g id="location-pin">
            <g id="Path">
                <use fill="black" fill-opacity="1" filter="url(#filter-3)" xlink:href="#path-2"></use>
                <use fill="url(#linearGradient-1)" fill-rule="evenodd" xlink:href="#path-2"></use>
                <path stroke="#FFFFFF" stroke-width="1.6" d="M21.7603516,51.0637612 L27.493587,39.7089163 C27.8561269,39.1630466 29.4327868,38.95 30.48,38.95 L36.08,38.95 C39.7974937,38.95 42.8,35.9361206 42.8,32.2015152 L42.8,7.54848485 C42.8,3.81387942 39.7974937,0.8 36.08,0.8 C29.8560243,0.8 29.8560243,0.8 25.8953125,0.8 C18.7493576,0.8 18.7493576,0.8 7.52,0.8 C3.80250629,0.8 0.8,3.81387942 0.8,7.54848485 L0.8,32.2015152 C0.8,35.9361206 3.80250629,38.95 7.52,38.95 L13.04,38.95 C14.0872132,38.95 15.6638731,39.1630466 16.0742749,39.7912217 L21.7603516,51.0637612 Z M28.6049411,40.8017139 C28.6026515,40.8025804 28.6005695,40.8034023 28.5987008,40.8041765 C28.6031444,40.8023356 28.6075985,40.8004198 28.6120829,40.798383 Z"></path>
            </g>
        </g>
        <g id="karate" transform="translate(5.000000, 6.000000)" fill="#FFFFFF">
            <path d="M13.4236456,16.4908607 L14.3478556,28.1423786 L17.4494323,28.1423786 C17.2352174,21.6167682 17.3626571,17.5470699 17.8317513,15.9332836 C18.5353926,13.5126042 24.9016578,6.32083899 26.1893976,6.32083899 C27.0478908,6.32083899 27.0478908,5.24437345 26.1893976,3.09144237 C20.6592056,6.30211869 17.7458838,8.30547933 17.4494323,9.1015243 C17.1529807,9.89756927 15.8110518,12.3606814 13.4236456,16.4908607 Z" id="Path-6"></path>
            <path d="M16.7305418,9.70028606 L15.0822676,7.8371837 C18.5117019,6.7264456 20.226419,6.01142595 20.226419,5.69212475 C20.226419,5.37282354 20.226419,4.48423307 20.226419,3.02635331 L11.8750358,5.14491583 L8.49733979,7.38876039 C7.99393493,8.25987859 7.74223249,8.85364826 7.74223249,9.17006942 C7.74223249,9.64470115 7.70710489,13.6615026 8.92622331,14.0955257 C9.73896892,14.3848744 10.3233397,13.8023369 10.6793357,12.3479132 L13.4846424,15.3356739 L16.7305418,9.70028606 Z" id="Path-7"></path>
            <path d="M20.9965032,3.10123453 C21.5648987,2.72337237 21.9556592,2.5344413 22.1687848,2.5344413 C22.4884732,2.5344413 23.2607359,3.69423619 23.2607359,3.69423619 C23.2607359,3.69423619 22.1268495,4.3082622 21.4131329,4.3082622 C20.9373218,4.3082622 20.7984452,3.90591964 20.9965032,3.10123453 Z" id="Path-8"></path>
            <path d="M27.3611346,3.90015955 C27.917367,3.90015955 28.3306383,3.90015955 28.6009483,3.90015955 C29.0064135,3.90015955 29.9837233,3.77142145 30.3940899,3.12168286 C30.8044565,2.47194428 29.9585618,1.23698016 29.4418323,1.69202757 C29.097346,1.99539251 28.2545559,2.34701871 26.9134619,2.74690616 L27.3611346,3.90015955 Z" id="Path-9"></path>
            <path d="M17.0948886,28.8546142 C17.0948886,29.2526366 17.7316785,30.2105403 17.5194152,30.2105403 C17.3071519,30.2105403 13.4800132,30.2105403 13.4800132,30.2105403 C13.4800132,30.2105403 12.8117718,29.5325772 13.4800132,29.5325772 C14.1482546,29.5325772 14.9769977,28.8546142 15.3728756,28.8546142 C15.7687535,28.8546142 17.0948886,28.4565917 17.0948886,28.8546142 Z" id="Path-10"></path>
            <path d="M9.50515578,5.89565422 C9.50515578,5.89565422 9.82030617,5.89598392 10.1715833,5.89636073 C10.4828192,5.89673753 10.7439427,5.93408827 10.7854925,5.66636872 C10.8831895,5.03818861 11.0734867,3.81366837 11.1274728,3.46630177 C11.2959553,2.38110497 10.6292424,1.38191379 9.79559649,1.20910185 C8.96113503,1.03624281 8.01217722,1.63503217 7.84108509,2.73435914 C7.78212437,3.11530843 7.79982074,3.49065276 7.9035117,3.83533462 C8.05955783,4.35475955 9.50515578,5.89565422 9.50515578,5.89565422 Z" id="Path"></path>
        </g>
    </g>
</svg>