<?xml version="1.0" encoding="UTF-8"?>
<svg width="44px" height="53px" viewBox="0 0 44 53" version="1.1" xmlns="http://www.w3.org/2000/svg" xmlns:xlink="http://www.w3.org/1999/xlink">
    <!-- Generator: Sketch 49.2 (51160) - http://www.bohemiancoding.com/sketch -->
    <title>location-pin-unselected</title>
    <desc>Created with Sketch.</desc>
    <defs>
        <linearGradient x1="50%" y1="0%" x2="50%" y2="100%" id="linearGradient-1">
            <stop stop-color="#19A4EA" offset="0%"></stop>
            <stop stop-color="#0082C3" offset="100%"></stop>
        </linearGradient>
        <path d="M7.52,2.74985211e-16 C3.36,2.74985211e-16 0,3.37272727 0,7.54848485 L0,32.2015152 C0,36.3772727 3.36,39.75 7.52,39.75 L13.04,39.75 C13.36,39.75 15.2,39.9106061 15.36,40.1515152 L21.76,52.8393939 L28.16,40.1515152 C28.32,39.9106061 30.16,39.75 30.48,39.75 L36.08,39.75 C40.24,39.75 43.6,36.3772727 43.6,32.2015152 L43.6,7.54848485 C43.6,3.37272727 40.24,0 36.08,0 C31.5534722,4.35829201e-17 28.1585764,7.62701102e-17 25.8953125,9.80615702e-17 C21.8119097,1.37377935e-16 15.6868056,1.96352482e-16 7.52,2.74985211e-16 Z" id="path-2"></path>
        <filter x="-18.3%" y="-13.2%" width="136.7%" height="130.3%" filterUnits="objectBoundingBox" id="filter-3">
            <feOffset dx="0" dy="1" in="SourceAlpha" result="shadowOffsetOuter1"></feOffset>
            <feGaussianBlur stdDeviation="2.5" in="shadowOffsetOuter1" result="shadowBlurOuter1"></feGaussianBlur>
            <feComposite in="shadowBlurOuter1" in2="SourceAlpha" operator="out" result="shadowBlurOuter1"></feComposite>
            <feColorMatrix values="0 0 0 0 0   0 0 0 0 0   0 0 0 0 0  0 0 0 0.271993886 0" type="matrix" in="shadowBlurOuter1"></feColorMatrix>
        </filter>
    </defs>
    <g id="location-pin-unselected" stroke="none" stroke-width="1" fill="none" fill-rule="evenodd">
        <g id="location-pin">
            <g id="Path">
                <use fill="black" fill-opacity="1" filter="url(#filter-3)" xlink:href="#path-2"></use>
                <use fill="url(#linearGradient-1)" fill-rule="evenodd" xlink:href="#path-2"></use>
                <path stroke="#FFFFFF" stroke-width="1.6" d="M21.7603516,51.0637612 L27.493587,39.7089163 C27.8561269,39.1630466 29.4327868,38.95 30.48,38.95 L36.08,38.95 C39.7974937,38.95 42.8,35.9361206 42.8,32.2015152 L42.8,7.54848485 C42.8,3.81387942 39.7974937,0.8 36.08,0.8 C29.8560243,0.8 29.8560243,0.8 25.8953125,0.8 C18.7493576,0.8 18.7493576,0.8 7.52,0.8 C3.80250629,0.8 0.8,3.81387942 0.8,7.54848485 L0.8,32.2015152 C0.8,35.9361206 3.80250629,38.95 7.52,38.95 L13.04,38.95 C14.0872132,38.95 15.6638731,39.1630466 16.0742749,39.7912217 L21.7603516,51.0637612 Z M28.6049411,40.8017139 C28.6026515,40.8025804 28.6005695,40.8034023 28.5987008,40.8041765 C28.6031444,40.8023356 28.6075985,40.8004198 28.6120829,40.798383 Z"></path>
            </g>
        </g>
        <g id="judo-karate" transform="translate(6.000000, 6.000000)" fill="#FFFFFF">
            <path d="M24.4650446,6.1542931 L10.5482635,6.1542931 C9.40925616,6.1542931 8.70902403,7.21784149 8.35885478,8.02257597 C8.00873872,8.82731046 7.58767403,9.87205348 7.12863533,10.9343595 C6.68246738,11.9667915 7.10055372,12.3662786 7.71999801,12.866174 C8.0422452,13.1262303 9.4576544,14.3603824 9.95392251,14.7937531 L10.6614941,13.3493535 L10.8341854,13.411191 C10.836366,13.4119817 11.0604871,13.4923986 11.8492189,13.7817642 C12.5603007,14.0426111 13.1144872,13.5162865 13.3664239,13.2053484 L9.43872058,11.2532037 L9.61912369,10.8440033 L14.0031001,13.0229419 L13.8752969,13.239232 C13.5791635,13.7406522 12.7455437,14.5886447 11.7102468,14.2087535 C11.2814171,14.0514208 11.0199602,13.9560386 10.8705107,13.901712 L10.6257007,14.9452126 L16.8586495,14.9452126 L17.416027,9.29936489 L24.2523051,9.16614603 L24.3586217,7.64257188 C24.8458483,7.61868397 25.2946755,7.59135124 25.6141039,7.56142076 C26.8196456,7.44847557 27.1242354,6.1542931 27.1242354,6.1542931 L24.4650446,6.1542931 Z M13.8067416,5.65434121 C13.8067416,5.65434121 14.2178075,5.65473652 14.6759952,5.6551883 C15.0819554,5.65564008 15.4225514,5.70042285 15.4767468,5.37943262 C15.6041777,4.62625761 15.8523916,3.15808307 15.9228084,2.74159768 C16.1425683,1.44046908 15.2729423,0.242459441 14.1855775,0.0352614886 C13.0971489,-0.171992937 11.8593772,0.545943169 11.6362134,1.86401355 C11.5593081,2.3207639 11.5823903,2.77079401 11.7176395,3.18406047 C11.921178,3.80684025 13.8067416,5.65434121 13.8067416,5.65434121 Z M23.4367681,25.5204403 L22.4108318,25.953811 L22.692233,29.3645298 C21.6176857,29.483687 21.213587,28.7729794 21.025738,28.0468548 C20.837889,27.3207301 20.6763665,26.6865994 20.6763665,26.6865994 L20.1393056,26.9134498 L19.1153903,22.361928 L15.5299317,20.1783586 L15.4768,20.1783586 L12.6402376,20.1783586 L12.622527,20.1783586 L8.90841414,22.361928 L7.62314834,26.5785673 L7.16219499,26.3902877 C7.16219499,26.3902877 6.86393419,27.5738968 6.73671596,28.0468548 C6.60949772,28.5198128 6.16801004,29.5444515 5.07022094,29.3645298 L5.37528941,25.5484507 L4.25479037,25.0349454 C4.25479037,25.0349454 5.23562592,21.7021022 5.40129682,21.1394093 C5.56686135,20.5766598 5.9018729,20.0354265 6.38176007,19.5258743 C6.86164724,19.016322 10.2203256,15.9052467 10.2203256,15.9052467 L11.9664915,15.9052467 L11.0003882,18.4995413 L12.2249701,18.4995413 L13.1041693,15.9238827 L13.6065537,17.6660058 L14.7056192,17.6660058 L14.19898,15.9052467 L17.3116783,15.9052467 C17.3116783,15.9052467 21.2561881,19.4442149 21.6643288,19.771643 C22.0724696,20.099184 22.5858101,20.8559733 22.7085608,21.5978538 C22.8313115,22.3396778 23.4367681,25.5204403 23.4367681,25.5204403 Z" id="Fill-1"></path>
        </g>
    </g>
</svg>