<?xml version="1.0" encoding="UTF-8"?>
<svg width="44px" height="53px" viewBox="0 0 44 53" version="1.1" xmlns="http://www.w3.org/2000/svg" xmlns:xlink="http://www.w3.org/1999/xlink">
    <!-- Generator: Sketch 49.2 (51160) - http://www.bohemiancoding.com/sketch -->
    <title>location-pin-unselected</title>
    <desc>Created with Sketch.</desc>
    <defs>
        <linearGradient x1="50%" y1="0%" x2="50%" y2="100%" id="linearGradient-1">
            <stop stop-color="#19A4EA" offset="0%"></stop>
            <stop stop-color="#0082C3" offset="100%"></stop>
        </linearGradient>
        <path d="M7.52,2.74985211e-16 C3.36,2.74985211e-16 0,3.37272727 0,7.54848485 L0,32.2015152 C0,36.3772727 3.36,39.75 7.52,39.75 L13.04,39.75 C13.36,39.75 15.2,39.9106061 15.36,40.1515152 L21.76,52.8393939 L28.16,40.1515152 C28.32,39.9106061 30.16,39.75 30.48,39.75 L36.08,39.75 C40.24,39.75 43.6,36.3772727 43.6,32.2015152 L43.6,7.54848485 C43.6,3.37272727 40.24,0 36.08,0 C31.5534722,4.35829201e-17 28.1585764,7.62701102e-17 25.8953125,9.80615702e-17 C21.8119097,1.37377935e-16 15.6868056,1.96352482e-16 7.52,2.74985211e-16 Z" id="path-2"></path>
        <filter x="-18.3%" y="-13.2%" width="136.7%" height="130.3%" filterUnits="objectBoundingBox" id="filter-3">
            <feOffset dx="0" dy="1" in="SourceAlpha" result="shadowOffsetOuter1"></feOffset>
            <feGaussianBlur stdDeviation="2.5" in="shadowOffsetOuter1" result="shadowBlurOuter1"></feGaussianBlur>
            <feComposite in="shadowBlurOuter1" in2="SourceAlpha" operator="out" result="shadowBlurOuter1"></feComposite>
            <feColorMatrix values="0 0 0 0 0   0 0 0 0 0   0 0 0 0 0  0 0 0 0.271993886 0" type="matrix" in="shadowBlurOuter1"></feColorMatrix>
        </filter>
    </defs>
    <g id="location-pin-unselected" stroke="none" stroke-width="1" fill="none" fill-rule="evenodd">
        <g id="location-pin">
            <g id="Path">
                <use fill="black" fill-opacity="1" filter="url(#filter-3)" xlink:href="#path-2"></use>
                <use fill="url(#linearGradient-1)" fill-rule="evenodd" xlink:href="#path-2"></use>
                <path stroke="#FFFFFF" stroke-width="1.6" d="M21.7603516,51.0637612 L27.493587,39.7089163 C27.8561269,39.1630466 29.4327868,38.95 30.48,38.95 L36.08,38.95 C39.7974937,38.95 42.8,35.9361206 42.8,32.2015152 L42.8,7.54848485 C42.8,3.81387942 39.7974937,0.8 36.08,0.8 C29.8560243,0.8 29.8560243,0.8 25.8953125,0.8 C18.7493576,0.8 18.7493576,0.8 7.52,0.8 C3.80250629,0.8 0.8,3.81387942 0.8,7.54848485 L0.8,32.2015152 C0.8,35.9361206 3.80250629,38.95 7.52,38.95 L13.04,38.95 C14.0872132,38.95 15.6638731,39.1630466 16.0742749,39.7912217 L21.7603516,51.0637612 Z M28.6049411,40.8017139 C28.6026515,40.8025804 28.6005695,40.8034023 28.5987008,40.8041765 C28.6031444,40.8023356 28.6075985,40.8004198 28.6120829,40.798383 Z"></path>
            </g>
        </g>
        <g id="wrestling" transform="translate(5.000000, 7.000000)" fill="#FFFFFF">
            <path d="M8.99958113,15.4893151 C7.50007888,17.8544001 6.46215287,19.3268375 5.88580309,19.9066273 C5.30945331,20.4864172 3.88869204,21.7413571 1.6235193,23.671447 C1.43077506,22.7216597 1.33440294,22.0578766 1.33440294,21.6800977 C1.33440294,21.1134294 6.55980881,15.4888574 6.55980881,15.2442013 C6.55980881,14.9995453 11.1343177,6.29445816 11.5012336,6.02874657 C11.8681495,5.76303498 13.4267075,4.95674563 14.1502686,6.02874657 C14.6326428,6.74341387 15.9306708,7.29093385 18.0443527,7.67130652 L22.1423075,6.78766099 C22.7540907,7.07923426 23.0599823,7.37378277 23.0599823,7.67130652 C23.0599823,7.96883027 22.1746598,8.43083124 20.4040147,9.05730945 L17.1328402,9.74138521 L14.1502686,9.05730945 C13.3121907,11.9324569 12.6611653,13.3700306 12.1971926,13.3700306 C11.7332199,13.3700306 13.3784358,14.3673455 17.1328402,16.3619752 L16.855535,22.7958118 L15.2851659,23.3155629 L14.8437884,17.7035784 L8.99958113,15.4893151 Z" id="Path-31"></path>
            <path d="M24.3607492,6.80185059 C24.6803349,7.86500211 24.6803349,8.52085125 24.3607492,8.76939801 C23.8813706,9.14221815 25.9223883,11.8348081 25.1415688,12.5392528 C24.3607492,13.2436974 21.2243759,13.7595578 20.9049614,14.2635173 C20.5855469,14.7674768 20.4196773,18.6925016 20.9049614,20.7493061 C21.2284841,22.1205092 21.3902455,22.94732 21.3902455,23.2297387 L22.2925145,23.2297387 L23.0461171,23.2297387 C23.0461171,19.725977 23.0461171,17.6823703 23.0461171,17.0989186 C23.0461171,16.5154669 23.744601,15.8210923 25.1415688,15.0157946 C24.8978141,15.5659847 24.9904203,16.4130119 25.4193875,17.5568763 C25.8483547,18.7007407 27.0122663,20.4504855 28.9111223,22.8061107 L30.6699562,21.8041422 C28.8691841,17.8640124 27.9687981,15.8939474 27.9687981,15.8939474 C27.9687981,15.8939474 29.3152689,12.2998606 29.3152689,11.6478258 C29.3152689,11.213136 27.6637624,9.59781093 24.3607492,6.80185059 Z" id="Path-32"></path>
            <path d="M20.3747436,10.4286651 L23.2967188,9.51274965 L22.8794772,12.4403833 C18.9537255,14.0135973 16.7516312,14.8002044 16.2731941,14.8002044 C15.794757,14.8002044 15.4110659,14.455916 15.1221207,13.7673392 L16.2731941,12.9006297 L20.3747436,11.4496292 L20.3747436,10.4286651 Z" id="Path-33"></path>
            <path d="M19.1595738,6.24769308 C19.3102304,6.51517863 19.7569891,6.44382749 20.0143196,6.4191308 L20.9457747,6.32976779 C20.9457747,6.32976779 22.2372214,4.64203701 22.37115,4.09801355 C22.4600536,3.73707982 22.4325904,3.35711292 22.3043942,2.98220606 C21.93398,1.90019405 20.6156433,1.42905367 19.5510413,1.71845056 C18.4872732,2.00738324 17.7518645,3.10457537 18.1176407,4.17247499 C18.2348933,4.51451483 19.1595738,6.24769308 19.1595738,6.24769308 Z" id="Path" transform="translate(20.222812, 4.040645) rotate(-38.000000) translate(-20.222812, -4.040645) "></path>
            <path d="M13.9010454,5.31026441 C14.051702,5.57774997 14.4984607,5.50639882 14.7557912,5.48170213 L15.6872462,5.39233912 C15.6872462,5.39233912 16.978693,3.70460834 17.1126216,3.16058488 C17.2015252,2.79965115 17.174062,2.41968425 17.0458658,2.0447774 C16.6754516,0.962765378 15.3571149,0.491624998 14.2925129,0.781021897 C13.2287447,1.06995457 12.4933361,2.1671467 12.8591123,3.23504632 C12.9763649,3.57708616 13.9010454,5.31026441 13.9010454,5.31026441 Z" id="Path" transform="translate(14.964283, 3.103216) scale(-1, 1) rotate(-38.000000) translate(-14.964283, -3.103216) "></path>
        </g>
    </g>
</svg>