<?xml version="1.0" encoding="UTF-8"?>
<svg width="44px" height="53px" viewBox="0 0 44 53" version="1.1" xmlns="http://www.w3.org/2000/svg" xmlns:xlink="http://www.w3.org/1999/xlink">
    <!-- Generator: Sketch 49.2 (51160) - http://www.bohemiancoding.com/sketch -->
    <title>location-pin-unselected</title>
    <desc>Created with Sketch.</desc>
    <defs>
        <linearGradient x1="50%" y1="0%" x2="50%" y2="100%" id="linearGradient-1">
            <stop stop-color="#19A4EA" offset="0%"></stop>
            <stop stop-color="#0082C3" offset="100%"></stop>
        </linearGradient>
        <path d="M7.52,2.74985211e-16 C3.36,2.74985211e-16 0,3.37272727 0,7.54848485 L0,32.2015152 C0,36.3772727 3.36,39.75 7.52,39.75 L13.04,39.75 C13.36,39.75 15.2,39.9106061 15.36,40.1515152 L21.76,52.8393939 L28.16,40.1515152 C28.32,39.9106061 30.16,39.75 30.48,39.75 L36.08,39.75 C40.24,39.75 43.6,36.3772727 43.6,32.2015152 L43.6,7.54848485 C43.6,3.37272727 40.24,0 36.08,0 C31.5534722,4.35829201e-17 28.1585764,7.62701102e-17 25.8953125,9.80615702e-17 C21.8119097,1.37377935e-16 15.6868056,1.96352482e-16 7.52,2.74985211e-16 Z" id="path-2"></path>
        <filter x="-18.3%" y="-13.2%" width="136.7%" height="130.3%" filterUnits="objectBoundingBox" id="filter-3">
            <feOffset dx="0" dy="1" in="SourceAlpha" result="shadowOffsetOuter1"></feOffset>
            <feGaussianBlur stdDeviation="2.5" in="shadowOffsetOuter1" result="shadowBlurOuter1"></feGaussianBlur>
            <feComposite in="shadowBlurOuter1" in2="SourceAlpha" operator="out" result="shadowBlurOuter1"></feComposite>
            <feColorMatrix values="0 0 0 0 0   0 0 0 0 0   0 0 0 0 0  0 0 0 0.271993886 0" type="matrix" in="shadowBlurOuter1"></feColorMatrix>
        </filter>
    </defs>
    <g id="location-pin-unselected" stroke="none" stroke-width="1" fill="none" fill-rule="evenodd">
        <g id="location-pin">
            <g id="Path">
                <use fill="black" fill-opacity="1" filter="url(#filter-3)" xlink:href="#path-2"></use>
                <use fill="url(#linearGradient-1)" fill-rule="evenodd" xlink:href="#path-2"></use>
                <path stroke="#FFFFFF" stroke-width="1.6" d="M21.7603516,51.0637612 L27.493587,39.7089163 C27.8561269,39.1630466 29.4327868,38.95 30.48,38.95 L36.08,38.95 C39.7974937,38.95 42.8,35.9361206 42.8,32.2015152 L42.8,7.54848485 C42.8,3.81387942 39.7974937,0.8 36.08,0.8 C29.8560243,0.8 29.8560243,0.8 25.8953125,0.8 C18.7493576,0.8 18.7493576,0.8 7.52,0.8 C3.80250629,0.8 0.8,3.81387942 0.8,7.54848485 L0.8,32.2015152 C0.8,35.9361206 3.80250629,38.95 7.52,38.95 L13.04,38.95 C14.0872132,38.95 15.6638731,39.1630466 16.0742749,39.7912217 L21.7603516,51.0637612 Z M28.6049411,40.8017139 C28.6026515,40.8025804 28.6005695,40.8034023 28.5987008,40.8041765 C28.6031444,40.8023356 28.6075985,40.8004198 28.6120829,40.798383 Z"></path>
            </g>
        </g>
        <g id="escrime" transform="translate(4.000000, 6.000000)" fill="#FFFFFF">
            <path d="M25.519007,9.37317445 C25.519007,9.15891537 25.3512721,8.9851759 25.144254,8.9851759 C25.144112,8.9851759 25.14397,8.9852249 25.143828,8.9852249 L24.2252145,8.98370603 L16.9509919,10.0607829 C16.9509919,10.0607829 16.8636694,10.0089943 16.7210663,9.92437834 L17.0317356,9.84554393 C19.5971706,7.27164225 16.9009648,4.68877431 16.9009648,4.68877431 L14.713596,4.93267591 C14.713596,4.93267591 14.3040086,4.97863406 14.1129404,5.50759381 C13.9218722,6.03655356 13.3253342,7.65993476 13.3253342,7.65993476 L14.3291404,7.5674795 L15.1538054,8.99443613 C14.7896541,8.7783642 14.4817299,8.59565849 14.364448,8.52598632 C14.0451176,8.33642117 13.6655843,8.3444565 13.2982146,8.50207632 C13.0598644,8.60437976 8.78901439,10.4368755 8.6267697,10.5149749 C8.32026544,10.6625996 8.15106335,10.8411896 8.08082673,11.1693642 C8.02029262,11.4522175 7.55551933,13.5799625 7.39417389,14.4362639 C7.23244983,15.2944761 7.60715554,15.7652777 7.89340288,15.8438672 L9.66593084,11.8221856 L12.5170925,10.9109598 L12.4828735,11.1406036 L11.5834283,11.5108166 L11.0192162,15.4289209 C9.85131953,15.8851217 9.28275318,17.4222701 9.28275318,17.4222701 L6.04282898,20.4425735 C6.04282898,20.4425735 1.35940981,23.2599358 0.493142447,23.7844369 C-0.37312492,24.308889 0.16543468,25.0428476 0.16543468,25.0428476 L8.62691169,21.7435616 L12.3285801,19.0786746 L17.3992946,18.128448 C17.3992946,18.128448 18.9227287,22.9127998 19.2679956,23.9814004 C19.6132625,25.05005 20.4144048,25.1494137 20.7790767,25.0428476 C20.7790767,25.0428476 19.5790434,16.4810099 19.5383403,16.1658682 C19.4851422,15.7535187 19.2785027,15.5743897 18.9582729,15.5743897 C18.7216266,15.5743897 15.2150494,15.582327 15.2150494,15.582327 L14.5976866,16.4739544 L14.3518111,16.479295 L16.3892883,12.8432112 L24.7898052,9.7622509 L25.144254,9.7622509 L25.144254,9.76117299 C25.3512721,9.76117299 25.519007,9.58738453 25.519007,9.37317445 M36.7363246,9.37317445 C36.7363246,9.48140639 36.6515579,9.56915805 36.5470076,9.56915805 L26.4885468,9.56915805 C26.4027862,9.94985621 26.0737532,10.2336895 25.6798792,10.2336895 C25.4790611,10.2336895 25.2948557,10.1599506 25.1511641,10.0372159 C25.2187976,10.0606849 25.2909747,10.0739628 25.3662282,10.0739628 C25.7599129,10.0739628 26.0750785,9.72614092 26.0406228,9.31109664 C26.0151123,9.0043823 25.7909136,8.74656586 25.4992707,8.68615392 C25.375694,8.66057806 25.2577969,8.6720431 25.1511641,8.709133 C25.3161538,8.56812279 25.5346257,8.49183617 25.7703727,8.51760802 C26.1223604,8.5560698 26.4096963,8.82902597 26.4891148,9.17719084 L36.5470076,9.17719084 C36.6515579,9.17719084 36.7363246,9.2649425 36.7363246,9.37317445" id="Fill-1"></path>
        </g>
    </g>
</svg>