<?xml version="1.0" encoding="UTF-8"?>
<svg width="44px" height="53px" viewBox="0 0 44 53" version="1.1" xmlns="http://www.w3.org/2000/svg" xmlns:xlink="http://www.w3.org/1999/xlink">
    <!-- Generator: Sketch 49.2 (51160) - http://www.bohemiancoding.com/sketch -->
    <title>location-pin-unselected</title>
    <desc>Created with Sketch.</desc>
    <defs>
        <linearGradient x1="50%" y1="0%" x2="50%" y2="100%" id="linearGradient-1">
            <stop stop-color="#19A4EA" offset="0%"></stop>
            <stop stop-color="#0082C3" offset="100%"></stop>
        </linearGradient>
        <path d="M7.52,2.74985211e-16 C3.36,2.74985211e-16 0,3.37272727 0,7.54848485 L0,32.2015152 C0,36.3772727 3.36,39.75 7.52,39.75 L13.04,39.75 C13.36,39.75 15.2,39.9106061 15.36,40.1515152 L21.76,52.8393939 L28.16,40.1515152 C28.32,39.9106061 30.16,39.75 30.48,39.75 L36.08,39.75 C40.24,39.75 43.6,36.3772727 43.6,32.2015152 L43.6,7.54848485 C43.6,3.37272727 40.24,0 36.08,0 C31.5534722,4.35829201e-17 28.1585764,7.62701102e-17 25.8953125,9.80615702e-17 C21.8119097,1.37377935e-16 15.6868056,1.96352482e-16 7.52,2.74985211e-16 Z" id="path-2"></path>
        <filter x="-18.3%" y="-13.2%" width="136.7%" height="130.3%" filterUnits="objectBoundingBox" id="filter-3">
            <feOffset dx="0" dy="1" in="SourceAlpha" result="shadowOffsetOuter1"></feOffset>
            <feGaussianBlur stdDeviation="2.5" in="shadowOffsetOuter1" result="shadowBlurOuter1"></feGaussianBlur>
            <feComposite in="shadowBlurOuter1" in2="SourceAlpha" operator="out" result="shadowBlurOuter1"></feComposite>
            <feColorMatrix values="0 0 0 0 0   0 0 0 0 0   0 0 0 0 0  0 0 0 0.271993886 0" type="matrix" in="shadowBlurOuter1"></feColorMatrix>
        </filter>
    </defs>
    <g id="location-pin-unselected" stroke="none" stroke-width="1" fill="none" fill-rule="evenodd">
        <g id="location-pin">
            <g id="Path">
                <use fill="black" fill-opacity="1" filter="url(#filter-3)" xlink:href="#path-2"></use>
                <use fill="url(#linearGradient-1)" fill-rule="evenodd" xlink:href="#path-2"></use>
                <path stroke="#FFFFFF" stroke-width="1.6" d="M21.7603516,51.0637612 L27.493587,39.7089163 C27.8561269,39.1630466 29.4327868,38.95 30.48,38.95 L36.08,38.95 C39.7974937,38.95 42.8,35.9361206 42.8,32.2015152 L42.8,7.54848485 C42.8,3.81387942 39.7974937,0.8 36.08,0.8 C29.8560243,0.8 29.8560243,0.8 25.8953125,0.8 C18.7493576,0.8 18.7493576,0.8 7.52,0.8 C3.80250629,0.8 0.8,3.81387942 0.8,7.54848485 L0.8,32.2015152 C0.8,35.9361206 3.80250629,38.95 7.52,38.95 L13.04,38.95 C14.0872132,38.95 15.6638731,39.1630466 16.0742749,39.7912217 L21.7603516,51.0637612 Z M28.6049411,40.8017139 C28.6026515,40.8025804 28.6005695,40.8034023 28.5987008,40.8041765 C28.6031444,40.8023356 28.6075985,40.8004198 28.6120829,40.798383 Z"></path>
            </g>
        </g>
        <g id="squash" transform="translate(9.000000, 7.000000)" fill="#FFFFFF">
            <path d="M26.977282,15.0920291 L26.7302447,15.1130464 L26.7624227,15.560324 L26.9366616,15.5454628 C26.9692375,15.4026706 26.9832049,15.249971 26.977282,15.0920291 Z M26.9059422,15.660745 L26.7704672,15.6722877 L26.7892967,15.9338729 C26.8364588,15.8496597 26.8757531,15.7581842 26.9059422,15.660745 Z M26.7222001,15.0010827 L26.9694585,14.9799693 C26.9532368,14.8142361 26.9168597,14.6674521 26.8656754,14.5388478 L26.6899779,14.5538051 L26.7222001,15.0010827 Z M26.6959892,16.0773384 L26.6674798,15.6810889 L26.2565465,15.7161016 L26.2887245,16.1633311 L26.6510813,16.1324545 C26.6664631,16.1146115 26.6815798,16.0963357 26.6959892,16.0773384 Z M26.5259935,16.2558166 L26.296769,16.2753429 L26.3054766,16.3963483 C26.3275769,16.3848538 26.3495888,16.3738883 26.3718217,16.3617204 C26.4264537,16.3317576 26.4777264,16.2959754 26.5259935,16.2558166 Z M26.2484577,15.6040418 L26.6594352,15.5690771 L26.627213,15.1218476 L26.2162797,15.1568603 L26.2484577,15.6040418 Z M26.2082794,15.0448486 L26.6191685,15.009884 L26.5869904,14.5626064 L26.1760129,14.597571 L26.2082794,15.0448486 Z M26.2054505,16.4459336 L26.1937374,16.2841442 L25.7828041,16.3191088 L25.803048,16.6008937 C25.9354289,16.5617448 26.0695336,16.510332 26.2054505,16.4459336 Z M25.7747596,16.207097 L26.1856928,16.1721324 L26.1535148,15.7248548 L25.7425373,15.7598675 L25.7747596,16.207097 Z M25.7344928,15.6478557 L26.1454703,15.6128911 L26.1132922,15.1656616 L25.7023147,15.2006262 L25.7344928,15.6478557 Z M25.7014307,16.6285479 L25.6798166,16.3278619 L25.2688391,16.3629227 L25.2928401,16.6966014 C25.4275194,16.6853955 25.5637015,16.663224 25.7014307,16.6285479 Z M25.2607504,16.250911 L25.6717721,16.2158983 L25.6395056,15.7686688 L25.2285723,15.8036334 L25.2607504,16.250911 Z M25.2205278,15.6916216 L25.6315053,15.656657 L25.5993272,15.2093794 L25.1883056,15.2444402 L25.2205278,15.6916216 Z M25.18972,16.7031904 L25.1658516,16.3716759 L24.7548741,16.4066886 L24.7752064,16.6893873 C24.9122284,16.7042004 25.0503112,16.7091541 25.18972,16.7031904 Z M24.7467854,16.2946768 L25.1577629,16.2597122 L25.1255849,15.8124346 L24.7146516,15.8474473 L24.7467854,16.2946768 Z M24.7065629,15.7354356 L25.1174961,15.7004229 L25.0853181,15.2532415 L24.6743848,15.2882061 L24.7065629,15.7354356 Z M24.6705835,16.6761613 L24.6518425,16.4154899 L24.2409092,16.4505026 L24.2508543,16.5891586 C24.3901305,16.6262394 24.5298929,16.6560579 24.6705835,16.6761613 Z M24.2328647,16.3384427 L24.643798,16.3034781 L24.6116199,15.8562005 L24.2006424,15.8912613 L24.2328647,16.3384427 Z M24.1925979,15.7792495 L24.6035312,15.7442368 L24.5713531,15.2970073 L24.1604198,15.3319719 L24.1925979,15.7792495 Z M24.1523311,15.2199602 L24.5633528,15.1849955 L24.5311305,14.737766 L24.120153,14.7727307 L24.1523311,15.2199602 Z M24.1451706,16.5717558 L24.1379217,16.4592558 L23.896542,16.4823382 C23.9793298,16.5146429 24.0621618,16.5444667 24.1451706,16.5717558 Z M23.7188555,16.3823048 L24.129833,16.347244 L24.0976549,15.9000145 L23.6867216,15.9350272 L23.7188555,16.3823048 Z M23.6785887,15.8230154 L24.0896104,15.7880508 L24.0573881,15.3407732 L23.6464549,15.3757859 L23.6785887,15.8230154 Z M23.6384103,15.2638222 L24.0493436,15.2287614 L24.0171656,14.7814838 L23.6061439,14.8165446 L23.6384103,15.2638222 Z M23.6146304,16.3743211 L23.58369,15.9437803 L23.1727567,15.978793 L23.1881827,16.1940634 C23.3307739,16.2572113 23.4727906,16.3180026 23.6146304,16.3743211 Z M23.1646238,15.8667813 L23.5756012,15.8318167 L23.5434232,15.3845872 L23.1324899,15.4195518 L23.1646238,15.8667813 Z M23.1244454,15.30754 L23.5353787,15.2725754 L23.5031564,14.8253459 L23.0922231,14.8603105 L23.1244454,15.30754 Z M23.0841786,14.7482987 L23.4951561,14.7133341 L23.4629338,14.2661046 L23.433673,14.2685574 C23.3109279,14.3459893 23.1890225,14.4276055 23.0671172,14.5114821 L23.0841786,14.7482987 Z M23.0811288,16.1462576 L23.069725,15.9876424 L22.7846309,16.011882 C22.7970071,16.017509 22.8094275,16.0231361 22.8217594,16.0287631 C22.9085695,16.0682967 22.9949375,16.1075417 23.0811288,16.1462576 Z M22.650703,15.9105952 L23.0616363,15.8755825 L23.0295024,15.428353 L22.6185249,15.4633657 L22.650703,15.9105952 Z M23.0214137,15.3163413 L22.9891914,14.8691118 L22.5783024,14.9041245 L22.6104362,15.351354 L23.0214137,15.3163413 Z M22.5466105,15.9041987 L22.5155375,15.4721189 L22.10456,15.5071316 L22.1198092,15.7199011 C22.263196,15.7789129 22.4053453,15.8408584 22.5466105,15.9041987 Z M22.0964712,15.3951198 L22.5074487,15.3601552 L22.4760221,14.9233622 C22.3463374,15.012433 22.2149731,15.0998204 22.0812662,15.1839856 L22.0964712,15.3951198 Z M22.0130647,15.6763757 L22.0015283,15.5159329 L21.6574706,15.5452704 C21.7769007,15.5857659 21.8954468,15.629628 22.0130647,15.6763757 Z M21.6540671,15.4328258 L21.9934838,15.4039211 L21.98208,15.2456425 C21.8747167,15.311099 21.7654969,15.3737659 21.6540671,15.4328258 Z M22.6781958,14.7828786 L22.9811911,14.7571 L22.9684613,14.5797761 C22.9061827,14.6231091 22.8437714,14.6668269 22.7811833,14.710737 C22.746972,14.7347842 22.7125839,14.7588314 22.6781958,14.7828786 Z M23.5659655,14.2573033 L23.5981436,14.7045328 L24.0091211,14.6695201 L23.9768988,14.2222906 L23.5659655,14.2573033 Z M23.6506097,14.137356 L23.9688543,14.1102789 L23.9590417,13.9735947 C23.8548608,14.0238533 23.752227,14.0786809 23.6506097,14.137356 Z M24.0592446,13.9269431 L24.071886,14.1015257 L24.4828192,14.0664649 L24.4620007,13.7769368 C24.3244042,13.8175285 24.1904763,13.8682199 24.0592446,13.9269431 Z M24.490908,14.1784767 L24.0798863,14.2134894 L24.1121527,14.6607189 L24.523086,14.6257543 L24.490908,14.1784767 Z M24.563618,13.7490421 L24.5858509,14.0577598 L24.99674,14.022699 L24.9720319,13.6785358 C24.8316506,13.6910403 24.6959105,13.715376 24.563618,13.7490421 Z M25.0048729,14.1347108 L24.5938954,14.1697235 L24.6261177,14.616953 L25.037051,14.5819884 L25.0048729,14.1347108 Z M25.0450513,14.6940002 L24.634118,14.7289648 L24.6663403,15.1761943 L25.0773178,15.1411816 L25.0450513,14.6940002 Z M25.0751961,13.6717064 L25.0997717,14.0138978 L25.5107492,13.9789332 L25.4897097,13.6862789 C25.3469858,13.6700711 25.2089473,13.6653579 25.0751961,13.6717064 Z M25.5187937,14.0909449 L25.1078604,14.1259095 L25.1400385,14.573139 L25.551016,14.5381744 L25.5187937,14.0909449 Z M25.5590605,14.6501381 L25.148083,14.6851989 L25.1803052,15.1324284 L25.5912385,15.0974157 L25.5590605,14.6501381 Z M25.5943326,13.7001782 L25.6137809,13.9701319 L26.0247141,13.9351192 L26.014769,13.7964631 C25.8698351,13.7527454 25.7298517,13.7209069 25.5943326,13.7001782 Z M26.0328029,14.0470829 L25.6218254,14.0821437 L25.6540476,14.5293732 L26.0649809,14.4943605 L26.0328029,14.0470829 Z M26.0730254,14.6063722 L25.6620921,14.6413849 L25.6942702,15.0886144 L26.1052477,15.0536498 L26.0730254,14.6063722 Z M26.1208063,13.8303216 L26.1277016,13.9428216 L26.3193114,13.9237146 C26.281785,13.9008877 26.2442145,13.8808789 26.2071302,13.8649846 C26.1780461,13.8525848 26.1494925,13.8415941 26.1208063,13.8303216 Z M26.1358345,14.0383297 L26.1679684,14.4856073 L26.5789017,14.4505946 L26.5518509,14.0744486 L26.5467678,14.0033651 L26.4751628,14.0094731 L26.1358345,14.0383297 Z M26.6640321,14.1932897 L26.6819334,14.4417933 L26.8171873,14.4302988 C26.7725005,14.341228 26.7207415,14.2623052 26.6640321,14.1932897 Z M26.6105051,16.8771477 C26.0737326,17.1714371 25.5661768,17.2859017 25.0793952,17.2859017 C24.2086869,17.2859017 23.4042796,16.919615 22.6170663,16.5611677 C21.7698286,16.1754028 20.9698413,15.811088 20.1114208,15.8986197 C19.9036778,15.9198774 19.6998687,15.9387785 19.5062257,15.9555154 C19.4661358,16.1294246 19.3270364,16.2645217 19.1543445,16.2780362 L17.4797593,16.4085643 C17.2649,16.4253011 17.0764727,16.2476886 17.0610467,16.0138538 L17.0389464,15.6785399 C17.0274984,15.5037169 17.1158555,15.3451017 17.2509326,15.2691126 L14.58643,12.1495197 L13.4738117,8.95634242 L11.8223434,10.2531589 L11.2810625,11.8699952 C11.2810625,11.8699952 14.2789262,15.1826389 14.7135068,15.6554546 C15.4847195,16.4946532 15.522069,16.5469318 15.7147838,17.8375441 C15.8569772,18.7895239 16.9480699,26.4466759 16.9480699,26.4466759 C16.6415385,26.5749436 15.5577831,26.4896242 15.1898571,25.2244538 C14.8220194,23.9592353 13.0717185,17.8759234 13.0717185,17.8759234 L8.5970232,14.9040283 C8.5970232,14.9040283 8.20553819,17.0558183 8.00451371,18.1857473 C7.7599958,19.5602842 7.56586662,19.6861953 6.59499971,20.6099918 C5.79589646,21.3703638 3.10363588,23.9012816 2.5887869,24.3603423 C2.07393792,24.8194511 0.795611401,25.6450871 0,24.8978931 L5.08307284,18.2626021 C5.08307284,18.2626021 4.93707815,14.766286 4.85742861,13.1218435 C4.78184553,11.5619989 5.38624499,10.2536398 6.43269498,9.29136777 C6.79133892,8.68287786 8.02749804,6.43427391 8.97798846,4.69801924 L6.57603764,3.5187454 C6.57603764,3.5187454 2.22386647,3.0177945 1.41539268,2.91131357 C0.606918897,2.80488074 0.283768066,1.97703244 0.375705384,1.64599892 L6.59327588,1.64599892 C6.59327588,1.64599892 9.25910449,2.31436631 10.0708049,2.52516392 C11.0436609,2.77785171 11.3397609,3.14264747 11.4809377,3.26817376 L12.0809171,5.00697744 L12.3497454,5.13067615 C12.3497454,5.13067615 12.1035478,4.16388322 11.9664817,3.60906662 C11.7958672,2.9187682 11.6744481,2.3708291 11.7450807,1.91513499 C11.8082434,1.50676573 11.9776644,1.12172225 12.2312877,0.7798675 C12.9628524,-0.206884589 14.2664616,-0.205057003 15.0615868,0.492455574 C15.8560048,1.1895353 16.0598139,2.60423105 15.3380176,3.57794957 C15.1557342,3.82400034 14.6107404,4.5591708 14.1833203,5.13548558 L14.8956135,5.6678902 C15.5410753,6.15032478 15.5244559,6.41320858 15.742807,8.04254948 C15.9372014,9.49297934 16.2216325,11.0484473 16.2216325,11.0484473 L18.7218855,15.1200682 L19.0762862,15.0924139 C19.2480056,15.0789956 19.4025752,15.1899493 19.4656937,15.3543358 C19.6594693,15.3408694 19.8635437,15.3280282 20.0718612,15.3167741 C21.0105943,15.2662269 21.7310646,14.7608032 22.4937465,14.2257053 C23.5677777,13.4721628 24.6783186,12.6930822 26.375844,13.31273 C27.0189632,13.5475267 27.4514222,14.1933859 27.5044187,14.9982932 C27.5580341,15.8124827 27.2071253,16.5500098 26.6105051,16.8771477 Z M24.993204,20.4028013 C24.993204,20.7746669 24.7161986,21.0761224 24.3744393,21.0761224 C24.03268,21.0761224 23.7556304,20.7746669 23.7556304,20.4028013 C23.7556304,20.0309838 24.03268,19.7294802 24.3744393,19.7294802 C24.7161986,19.7294802 24.993204,20.0309838 24.993204,20.4028013 Z" id="Fill-1"></path>
        </g>
    </g>
</svg>