<?xml version="1.0" encoding="UTF-8"?>
<svg width="44px" height="53px" viewBox="0 0 44 53" version="1.1" xmlns="http://www.w3.org/2000/svg" xmlns:xlink="http://www.w3.org/1999/xlink">
    <!-- Generator: Sketch 49.2 (51160) - http://www.bohemiancoding.com/sketch -->
    <title>location-pin-unselected</title>
    <desc>Created with Sketch.</desc>
    <defs>
        <linearGradient x1="50%" y1="0%" x2="50%" y2="100%" id="linearGradient-1">
            <stop stop-color="#19A4EA" offset="0%"></stop>
            <stop stop-color="#0082C3" offset="100%"></stop>
        </linearGradient>
        <path d="M7.52,2.74985211e-16 C3.36,2.74985211e-16 0,3.37272727 0,7.54848485 L0,32.2015152 C0,36.3772727 3.36,39.75 7.52,39.75 L13.04,39.75 C13.36,39.75 15.2,39.9106061 15.36,40.1515152 L21.76,52.8393939 L28.16,40.1515152 C28.32,39.9106061 30.16,39.75 30.48,39.75 L36.08,39.75 C40.24,39.75 43.6,36.3772727 43.6,32.2015152 L43.6,7.54848485 C43.6,3.37272727 40.24,0 36.08,0 C31.5534722,4.35829201e-17 28.1585764,7.62701102e-17 25.8953125,9.80615702e-17 C21.8119097,1.37377935e-16 15.6868056,1.96352482e-16 7.52,2.74985211e-16 Z" id="path-2"></path>
        <filter x="-18.3%" y="-13.2%" width="136.7%" height="130.3%" filterUnits="objectBoundingBox" id="filter-3">
            <feOffset dx="0" dy="1" in="SourceAlpha" result="shadowOffsetOuter1"></feOffset>
            <feGaussianBlur stdDeviation="2.5" in="shadowOffsetOuter1" result="shadowBlurOuter1"></feGaussianBlur>
            <feComposite in="shadowBlurOuter1" in2="SourceAlpha" operator="out" result="shadowBlurOuter1"></feComposite>
            <feColorMatrix values="0 0 0 0 0   0 0 0 0 0   0 0 0 0 0  0 0 0 0.271993886 0" type="matrix" in="shadowBlurOuter1"></feColorMatrix>
        </filter>
    </defs>
    <g id="location-pin-unselected" stroke="none" stroke-width="1" fill="none" fill-rule="evenodd">
        <g id="location-pin">
            <g id="Path">
                <use fill="black" fill-opacity="1" filter="url(#filter-3)" xlink:href="#path-2"></use>
                <use fill="url(#linearGradient-1)" fill-rule="evenodd" xlink:href="#path-2"></use>
                <path stroke="#FFFFFF" stroke-width="1.6" d="M21.7603516,51.0637612 L27.493587,39.7089163 C27.8561269,39.1630466 29.4327868,38.95 30.48,38.95 L36.08,38.95 C39.7974937,38.95 42.8,35.9361206 42.8,32.2015152 L42.8,7.54848485 C42.8,3.81387942 39.7974937,0.8 36.08,0.8 C29.8560243,0.8 29.8560243,0.8 25.8953125,0.8 C18.7493576,0.8 18.7493576,0.8 7.52,0.8 C3.80250629,0.8 0.8,3.81387942 0.8,7.54848485 L0.8,32.2015152 C0.8,35.9361206 3.80250629,38.95 7.52,38.95 L13.04,38.95 C14.0872132,38.95 15.6638731,39.1630466 16.0742749,39.7912217 L21.7603516,51.0637612 Z M28.6049411,40.8017139 C28.6026515,40.8025804 28.6005695,40.8034023 28.5987008,40.8041765 C28.6031444,40.8023356 28.6075985,40.8004198 28.6120829,40.798383 Z"></path>
            </g>
        </g>
        <g id="badminton" transform="translate(2.000000, 5.000000)" fill="#FFFFFF">
            <path d="M15.4702375,1.03472304 L15.6119889,0.995940659 L15.6309429,0.990754642 L15.7841902,1.49528641 L15.7652837,1.50047243 L15.6234848,1.53925481 C15.5979278,1.54624466 15.5722757,1.54958175 15.5469562,1.54958175 C15.4269141,1.54958175 15.3160877,1.47458744 15.2812199,1.35972845 C15.238894,1.22065301 15.3237833,1.07481321 15.4702375,1.03472304 Z M16.6206374,0.175197168 C16.6241052,0.17217575 16.6285705,0.170552301 16.6331309,0.170552301 C16.634841,0.170552301 16.6365037,0.17077778 16.6382138,0.171228738 C16.6443418,0.172897283 16.6490922,0.177406862 16.6508973,0.18322422 C16.696406,0.332897167 16.6224425,0.511386329 16.5990707,0.562074004 L16.8019594,0.695061506 C16.802482,0.695377177 16.802767,0.695783039 16.803147,0.69609871 C16.8038596,0.696594764 16.8043346,0.697181009 16.8049522,0.697767254 C16.8060448,0.698849553 16.8068998,0.700022044 16.8076124,0.701329822 C16.8078499,0.701735684 16.8081824,0.701961163 16.80842,0.702412121 C16.8084675,0.7026376 16.8084675,0.702863079 16.8085625,0.703088558 C16.809275,0.705027677 16.8098451,0.706966797 16.8098926,0.709041203 C16.8098926,0.709131395 16.8098926,0.709221586 16.8099876,0.709266682 C16.8099876,0.711160706 16.8096551,0.713190017 16.8090375,0.715038944 L16.7200629,0.965861762 L16.9360627,1.13316717 C16.9395305,1.13587291 16.9416207,1.13957077 16.9423807,1.1434941 C16.9424282,1.14376468 16.9425707,1.14389997 16.9426182,1.14417054 C16.9426657,1.1445764 16.9424757,1.14507246 16.9425232,1.14552341 C16.9426657,1.14696648 16.9426182,1.14836445 16.9422382,1.14985261 C16.9420957,1.15061924 16.9420007,1.15138587 16.9417157,1.1521525 C16.9415257,1.15264855 16.9415257,1.1531446 16.9413356,1.15359556 L16.8441903,1.36874761 C16.8923592,1.39977351 17.0550123,1.5135953 17.1005209,1.66322315 C17.1023261,1.6691307 17.1006634,1.67539902 17.0964356,1.6799086 C17.0929203,1.68351626 17.0879799,1.68559067 17.082802,1.68559067 C17.0817094,1.68559067 17.0805693,1.68550048 17.0794292,1.68532009 L15.9697876,1.49050626 L15.7906983,0.901014008 L16.6206374,0.175197168 Z M15.5469562,1.72017915 C15.5896146,1.72017915 15.6321305,1.71445198 15.6733163,1.70317803 L15.8150202,1.66439565 L15.8764426,1.64757491 L17.0467941,1.85303136 C17.05772,1.85501558 17.070356,1.85618807 17.082802,1.85618807 C17.1381914,1.85618807 17.1914432,1.83395584 17.2289237,1.79512836 C17.2295888,1.79445192 17.2302538,1.79382058 17.2308714,1.79309905 C17.276475,1.74435049 17.2921988,1.67787929 17.2730073,1.61537651 C17.2346717,1.48928867 17.1442244,1.38719179 17.0632304,1.31657177 L17.1065064,1.2207883 C17.1071239,1.21948052 17.107694,1.21817274 17.1082165,1.21681987 C17.1110193,1.21019079 17.113442,1.20311075 17.1153896,1.19598561 C17.1168147,1.19084469 17.1180498,1.18565867 17.1190949,1.18029227 C17.1212801,1.16888304 17.1223252,1.15729342 17.1222302,1.1456587 C17.1222777,1.1402923 17.1220876,1.134971 17.1216126,1.12964969 L17.1216601,1.12964969 C17.1212326,1.12500483 17.1205675,1.12035996 17.1198075,1.11576019 C17.1192849,1.11291915 17.1186674,1.11012321 17.1180498,1.10732728 C17.1174798,1.10498229 17.1168622,1.10263731 17.1162447,1.10029233 C17.1057938,1.06141975 17.0825645,1.0266058 17.0499294,1.00121687 L16.9300297,0.908364622 L16.9793387,0.769514666 C16.9861792,0.750168569 16.989647,0.729920557 16.989647,0.709266682 C16.989647,0.703088558 16.9893145,0.696865338 16.9886019,0.690777406 C16.9872243,0.678015295 16.9844691,0.665433568 16.9803838,0.65307732 C16.9794337,0.650010806 16.9783411,0.646989388 16.9772485,0.644013065 C16.9756809,0.640089731 16.9740183,0.636121301 16.9721656,0.632288158 C16.9691729,0.625839459 16.9655626,0.619435856 16.9616198,0.613257732 C16.9546842,0.602254358 16.9458485,0.5910706 16.9359202,0.581014238 C16.9317399,0.576685041 16.9272745,0.572581324 16.9226191,0.56865799 C16.9170137,0.56383274 16.9110282,0.55932316 16.9050427,0.55535473 L16.8137404,0.495467513 C16.8427177,0.394678408 16.8619568,0.262367342 16.8235262,0.13591873 C16.8046197,0.0732806688 16.7536481,0.0250281669 16.6872852,0.0071251358 C16.6692338,0.0023449814 16.6512298,0 16.6331309,0 C16.5832519,0 16.5356056,0.0176324563 16.4988851,0.0496955674 L15.6235798,0.815196707 L15.5622049,0.832062535 L15.420501,0.87084492 C15.3034992,0.902817839 15.2065914,0.976278891 15.1476391,1.07760915 C15.0886394,1.1789845 15.0747683,1.29596299 15.1085435,1.40703394 C15.1645505,1.59138555 15.3448275,1.72017915 15.5469562,1.72017915 Z M14.3762722,8.79864079 C13.8858903,7.98921635 14.2852074,7.01591378 15.0326324,6.60784192 C15.7796299,6.20013082 16.865092,6.42484318 17.3490134,7.22371521 C17.5040183,7.47963385 18.0502172,8.38132429 18.3303471,8.84373659 C18.4497717,9.04089541 18.2254587,9.17929441 17.9829518,9.37252989 C17.7091873,9.59070336 17.4638301,9.78646421 17.4638301,9.78646421 C17.4638301,9.78646421 15.4649646,9.69942932 15.0488312,9.46425474 C14.772739,9.30817819 14.5460983,9.07904645 14.3762722,8.79864079 Z M23.379765,19.1831654 L23.3916853,19.1831654 L23.4003215,19.1951128 L23.379765,19.1831654 Z M10.1207856,6.5930054 C9.99936583,6.61825905 9.88041628,6.63444844 9.76417445,6.64225001 L9.71358289,6.47859737 L10.1809729,6.34935281 L10.2463382,6.560807 L10.1207856,6.5930054 Z M9.22628877,6.6133887 L9.59278069,6.51196826 L9.63472656,6.64752622 C9.49387775,6.64914967 9.3575418,6.63765024 9.22628877,6.6133887 Z M8.02016694,5.83945465 C7.99997782,5.81194621 7.98059626,5.78367115 7.96154723,5.75512551 L8.07256365,5.72441527 L8.16196582,6.01379499 C8.11260936,5.95909379 8.06524806,5.90101041 8.02016694,5.83945465 Z M8.31654323,2.381509 L8.35402374,2.50277159 L8.10481873,2.57167797 C8.17051651,2.50250102 8.24124969,2.43909633 8.31654323,2.381509 Z M10.1298588,5.7594998 L10.5972488,5.63025525 L10.7339173,6.07255482 L10.2665273,6.20179937 L10.1298588,5.7594998 Z M9.54166659,5.92216034 L10.0090566,5.79291579 L10.1457251,6.23517026 L9.67833506,6.36445991 L9.54166659,5.92216034 Z M8.95342686,6.08477578 L9.42086439,5.95557632 L9.55753286,6.39787589 L9.09014284,6.52712044 L8.95342686,6.08477578 Z M8.83267217,6.11819176 L8.96482778,6.5458352 C8.76037136,6.4771994 8.57111617,6.3741555 8.40005494,6.23783091 L8.83267217,6.11819176 Z M8.66075587,5.56179983 L8.79742434,6.0040543 L8.32998681,6.13334395 L8.19331834,5.69099929 L8.66075587,5.56179983 Z M8.02140204,5.13460735 L8.48883956,5.0053177 L8.62550804,5.44761727 L8.15807051,5.57686183 L8.02140204,5.13460735 Z M7.90059984,5.16797824 L8.03731582,5.61027781 L7.89489938,5.64964644 C7.81637558,5.51747066 7.7494427,5.37555419 7.69414827,5.22506952 L7.90059984,5.16797824 Z M7.97304316,3.33596152 L8.10971163,3.77830619 L7.64232161,3.90759583 L7.56793063,3.66696467 C7.58346438,3.58646867 7.60227589,3.50827256 7.62441267,3.43237633 L7.97304316,3.33596152 Z M8.94221596,2.34011106 L8.47477844,2.46935561 L8.42409187,2.3053422 C8.5590502,2.21717991 8.70702458,2.14678538 8.8666849,2.09573694 L8.94221596,2.34011106 Z M9.65116288,2.14407963 L9.61045211,2.01226462 C9.71728819,2.02173473 9.82317419,2.03999853 9.92763507,2.06759716 L9.65116288,2.14407963 Z M10.4112714,2.53785612 L10.3105158,2.21167823 C10.4447141,2.27819453 10.5745895,2.3611257 10.699287,2.45817185 L10.4112714,2.53785612 Z M11.0506252,2.9650486 L10.5831877,3.09424805 L10.4465667,2.65199358 L10.8117285,2.55102409 C10.8649328,2.59760805 10.917377,2.64617622 10.9682536,2.69844225 L11.0506252,2.9650486 Z M11.1717506,2.93260957 L11.1711424,2.93100127 C11.1716289,2.93146079 11.1719939,2.93203518 11.1723588,2.93249469 L11.1717506,2.93260957 Z M11.6871763,4.6009437 L11.5505079,4.15868923 L11.7413782,4.10592715 C11.7780036,4.26186841 11.8000929,4.41609603 11.807456,4.5677081 L11.6871763,4.6009437 Z M10.8899673,6.15332139 L11.234655,6.05798887 C11.1433052,6.14146119 11.0420745,6.21744761 10.9306306,6.28486583 L10.8899673,6.15332139 Z M11.185441,5.46763981 L11.3221095,5.90989428 L10.8547195,6.03918393 L10.718051,5.59683926 L11.185441,5.46763981 Z M10.5460872,5.04044733 L11.0135247,4.91115768 L11.1501932,5.35350235 L10.6828032,5.4827018 L10.5460872,5.04044733 Z M9.957895,5.20306277 L10.4253325,5.07381822 L10.562001,5.51611779 L10.094611,5.64536234 L9.957895,5.20306277 Z M9.36970278,5.36572331 L9.83714031,5.23643366 L9.97380878,5.67877832 L9.50641876,5.80802288 L9.36970278,5.36572331 Z M9.24894809,5.3990942 L9.38561656,5.84143886 L8.91817903,5.97068341 L8.78151056,5.52838384 L9.24894809,5.3990942 Z M9.07703178,4.84265717 L9.21370026,5.28500183 L8.74626273,5.41424638 L8.60959426,4.97194682 L9.07703178,4.84265717 Z M8.43767796,4.41550979 L8.90511548,4.28626523 L9.04178396,4.72851971 L8.57434643,4.85776426 L8.43767796,4.41550979 Z M8.31687576,4.44888068 L8.45359173,4.89118024 L7.98615421,5.0204248 L7.84948574,4.57812523 L8.31687576,4.44888068 Z M8.28162793,4.33478831 L7.81423791,4.46398777 L7.67756943,4.0216882 L8.14495946,3.89244365 L8.28162793,4.33478831 Z M8.69790385,3.61564565 L8.23051383,3.7448902 L8.09379785,3.30259063 L8.56123538,3.17334608 L8.69790385,3.61564565 Z M9.11413226,2.89654808 L8.64669474,3.02579264 L8.51002627,2.58349307 L8.97746379,2.45429361 L9.11413226,2.89654808 Z M9.70232448,2.73388755 L9.23488696,2.8631321 L9.09821849,2.42087763 L9.56565601,2.29163307 L9.70232448,2.73388755 Z M9.99504298,3.25695369 L9.85832701,2.81460902 L10.3257645,2.68540957 L10.462433,3.12766404 L9.99504298,3.25695369 Z M10.6343493,3.68414616 L10.1669593,3.81339072 L10.0302908,3.37109115 L10.4976808,3.2418015 L10.6343493,3.68414616 Z M10.755104,3.65073018 L10.618483,3.20843061 L11.0858731,3.07918606 L11.2225415,3.52148563 L10.755104,3.65073018 Z M10.9270678,4.20716721 L10.7903993,3.76491274 L11.2577894,3.63562309 L11.3945053,4.07792266 L10.9270678,4.20716721 Z M10.3741709,4.48396521 L10.8415609,4.35472065 L10.9782294,4.79702022 L10.5108394,4.92626477 L10.3741709,4.48396521 Z M9.7859787,4.64662574 L10.2534162,4.51738119 L10.3900847,4.95968076 L9.92264717,5.08892531 L9.7859787,4.64662574 Z M9.66522401,4.68004173 L9.80189248,5.1222962 L9.33445495,5.25158585 L9.19778648,4.80924118 L9.66522401,4.68004173 Z M9.4932602,4.1235596 L9.62997618,4.56590427 L9.16253865,4.69510372 L9.02587018,4.25284925 L9.4932602,4.1235596 Z M8.85395388,3.69636713 L9.3213439,3.56716767 L9.45801237,4.00942214 L8.99062235,4.13871179 L8.85395388,3.69636713 Z M8.86982015,4.17208268 L8.40243013,4.30137233 L8.26576166,3.85902766 L8.73315168,3.72978311 L8.86982015,4.17208268 Z M9.28604856,3.45298511 L8.81870605,3.58222966 L8.68199007,3.13997519 L9.14938009,3.01068554 L9.28604856,3.45298511 Z M9.40685076,3.41961422 L9.27018229,2.97731466 L9.73757231,2.84802501 L9.87424079,3.29036967 L9.40685076,3.41961422 Z M9.57876706,3.97605125 L9.4421461,3.53375168 L9.90948862,3.40446204 L10.0461571,3.8468067 L9.57876706,3.97605125 Z M10.2022546,3.92752818 L10.6695971,3.79828362 L10.8063131,4.2405381 L10.3388756,4.36982775 L10.2022546,3.92752818 Z M10.2181209,4.40324373 L9.75073087,4.53248828 L9.6140624,4.09014362 L10.0814524,3.96094416 L10.2181209,4.40324373 Z M11.6016695,4.74849715 L11.7383379,5.19084181 L11.2709954,5.32008636 L11.1342794,4.8777417 L11.6016695,4.74849715 Z M11.0989841,4.76360424 L10.9623156,4.32130467 L11.4297532,4.19206012 L11.5664216,4.63435969 L11.0989841,4.76360424 Z M10.1586461,2.1443953 L10.2905167,2.57127211 L9.82307918,2.70047156 L9.68641071,2.25821709 L10.1330891,2.13465461 C10.1415922,2.1379466 10.1501904,2.14101311 10.1586461,2.1443953 Z M11.4328884,5.84414461 L11.3062432,5.43422382 L11.7113558,5.32216077 C11.6479382,5.51440415 11.5542607,5.68883469 11.4328884,5.84414461 Z M11.8342421,4.86840687 C11.8311452,4.89469772 11.8256762,4.92004155 11.8213932,4.94583635 L11.7224242,4.71508116 L11.8440599,4.69086472 C11.8436645,4.75048136 11.8410289,4.80978233 11.8342421,4.86840687 Z M11.6928768,3.9240558 C11.6996223,3.94619784 11.7053703,3.96815949 11.7115458,3.99025643 L11.51526,4.04455177 L11.3785916,3.6022071 L11.5516004,3.55440556 C11.6070374,3.67539758 11.6547787,3.79923064 11.6928768,3.9240558 Z M11.2547491,3.04162126 C11.3459564,3.16861102 11.427663,3.30439446 11.4989187,3.44504825 L11.3432487,3.48806964 L11.2066753,3.04581517 L11.2490487,3.03409026 C11.2509013,3.03666072 11.2528965,3.0390508 11.2547491,3.04162126 Z M9.47720391,2.00518458 L9.53040818,2.17745052 L9.06297066,2.30674017 L8.98715457,2.06146413 C9.14025936,2.02326799 9.29379169,2.00414737 9.44627893,2.00414737 C9.45663476,2.00414737 9.46689558,2.00500419 9.47720391,2.00518458 Z M7.96762772,2.73348169 L8.38927157,2.61686396 L8.52594004,3.05920862 L8.05855002,3.18845317 L7.93280743,2.7815538 C7.94425584,2.76536441 7.95575177,2.74926521 7.96762772,2.73348169 Z M7.84411781,2.91859993 L7.93779533,3.22186916 L7.66811618,3.29641251 C7.71619004,3.16162117 7.77509476,3.03544314 7.84411781,2.91859993 Z M7.52042682,4.06516055 L7.55676724,4.05510418 L7.69343571,4.49740375 L7.53491548,4.54123687 C7.51738658,4.38263495 7.51244618,4.22268016 7.52042682,4.06516055 Z M7.61391432,4.9710449 C7.58716968,4.86962445 7.56636301,4.76572374 7.55049673,4.66078582 L7.72868354,4.61149612 L7.86535201,5.05384078 L7.65538515,5.11192417 C7.64061147,5.06561078 7.62659784,5.01880135 7.61391432,4.9710449 Z M10.3677579,6.52960071 L10.3017751,6.31593683 L10.7691651,6.18669228 L10.8191866,6.3484509 C10.6877911,6.41758275 10.5445671,6.47643277 10.3895622,6.52400883 L10.3677579,6.52960071 Z M28.9203723,22.9486644 C28.8030854,21.8269516 28.73582,21.6917093 28.1841582,20.7570989 C27.7361498,19.9981818 24.1859997,13.9835751 24.1859997,13.9835751 L22.352115,10.6420667 L22.9800204,9.45942949 C22.9800204,9.45942949 24.7431245,8.13158377 24.9767482,7.95805515 C25.0788814,7.88220402 25.2964489,7.66939696 25.5387658,7.34989324 C25.6807547,7.1626555 28.062596,4.0216431 28.5106994,3.43133913 C28.9587554,2.84099006 28.4965908,2.19219684 28.3234394,2.16315515 L23.6890623,6.92942004 L19.7470059,8.7309971 C19.7470059,8.7309971 19.442744,8.87431154 19.2672174,9.0205572 C18.7473356,9.45370233 17.3299643,10.6026079 17.0982407,10.7978276 C16.8126478,11.0382784 16.6002108,11.5047944 16.6002108,11.5047944 L15.4299068,13.687431 C15.4299068,13.687431 13.520206,12.4545119 12.6123606,11.867996 C12.2704282,11.2272298 12.0417923,10.9078614 11.7604272,10.8492368 L11.5793902,10.4061255 L11.5014839,10.4260579 L10.5740195,7.16991592 L10.624896,7.15679304 L10.5014811,6.72360283 C11.4114642,6.4321487 11.9527702,5.78718862 12.0272086,4.90385216 C12.0552359,4.57104519 12.0147626,4.22340169 11.9068815,3.87052709 C11.8035132,3.53239881 11.6384849,3.1999526 11.4294681,2.90903962 C10.7770508,2.0006299 9.83600022,1.59995375 8.91209854,1.83706745 C7.98814937,2.07422624 7.38798619,2.870618 7.30665966,3.96734776 C7.28062757,4.31895969 7.31454529,4.68509246 7.40475503,5.02610687 C7.4990026,5.38267933 7.64859211,5.70227323 7.84939073,5.97627529 C8.38266854,6.70358029 9.19265607,7.00161841 10.1333266,6.81816871 L10.256694,7.25149422 L10.3075706,7.23837134 L11.2350825,10.4944682 L11.1572713,10.5144456 L11.2364601,10.9861477 C10.9484445,11.2082896 11.0023138,11.6049522 11.1246362,11.8274548 C11.2671476,12.0867557 11.6921167,12.3145345 11.6921167,12.3145345 C11.6921167,12.3145345 15.2217926,15.6401691 15.4352272,15.8427845 C15.8691271,16.2547346 16.2660689,16.2604167 16.5692383,15.9135398 C16.9412881,15.4878806 17.7070021,14.6221315 17.7070021,14.6221315 L16.9264669,13.9103846 L17.0295027,13.7229214 L19.3364779,15.2347128 L20.558086,17.0986574 L18.3151934,22.9891154 L14.5632947,29.5232256 C14.5632947,29.5232256 15.513181,30.3616467 16.5749387,28.9823918 C17.636649,27.6031368 23.7397489,19.6750253 23.7397489,19.6750253 L26.3476608,22.5612464 C26.3476608,22.5612464 27.6125448,27.2716376 27.9350957,28.5631812 C28.2576466,29.8546798 29.2883369,29.9548826 29.6597217,29.8263596 C29.6597217,29.8263596 29.028776,23.9861383 28.9203723,22.9486644 Z" id="Fill-1"></path>
        </g>
    </g>
</svg>