<?xml version="1.0" encoding="UTF-8"?>
<svg width="44px" height="53px" viewBox="0 0 44 53" version="1.1" xmlns="http://www.w3.org/2000/svg" xmlns:xlink="http://www.w3.org/1999/xlink">
    <!-- Generator: Sketch 49.2 (51160) - http://www.bohemiancoding.com/sketch -->
    <title>location-pin-unselected</title>
    <desc>Created with Sketch.</desc>
    <defs>
        <linearGradient x1="50%" y1="0%" x2="50%" y2="100%" id="linearGradient-1">
            <stop stop-color="#19A4EA" offset="0%"></stop>
            <stop stop-color="#0082C3" offset="100%"></stop>
        </linearGradient>
        <path d="M7.52,2.74985211e-16 C3.36,2.74985211e-16 0,3.37272727 0,7.54848485 L0,32.2015152 C0,36.3772727 3.36,39.75 7.52,39.75 L13.04,39.75 C13.36,39.75 15.2,39.9106061 15.36,40.1515152 L21.76,52.8393939 L28.16,40.1515152 C28.32,39.9106061 30.16,39.75 30.48,39.75 L36.08,39.75 C40.24,39.75 43.6,36.3772727 43.6,32.2015152 L43.6,7.54848485 C43.6,3.37272727 40.24,0 36.08,0 C31.5534722,4.35829201e-17 28.1585764,7.62701102e-17 25.8953125,9.80615702e-17 C21.8119097,1.37377935e-16 15.6868056,1.96352482e-16 7.52,2.74985211e-16 Z" id="path-2"></path>
        <filter x="-18.3%" y="-13.2%" width="136.7%" height="130.3%" filterUnits="objectBoundingBox" id="filter-3">
            <feOffset dx="0" dy="1" in="SourceAlpha" result="shadowOffsetOuter1"></feOffset>
            <feGaussianBlur stdDeviation="2.5" in="shadowOffsetOuter1" result="shadowBlurOuter1"></feGaussianBlur>
            <feComposite in="shadowBlurOuter1" in2="SourceAlpha" operator="out" result="shadowBlurOuter1"></feComposite>
            <feColorMatrix values="0 0 0 0 0   0 0 0 0 0   0 0 0 0 0  0 0 0 0.271993886 0" type="matrix" in="shadowBlurOuter1"></feColorMatrix>
        </filter>
    </defs>
    <g id="location-pin-unselected" stroke="none" stroke-width="1" fill="none" fill-rule="evenodd">
        <g id="location-pin">
            <g id="Path">
                <use fill="black" fill-opacity="1" filter="url(#filter-3)" xlink:href="#path-2"></use>
                <use fill="url(#linearGradient-1)" fill-rule="evenodd" xlink:href="#path-2"></use>
                <path stroke="#FFFFFF" stroke-width="1.6" d="M21.7603516,51.0637612 L27.493587,39.7089163 C27.8561269,39.1630466 29.4327868,38.95 30.48,38.95 L36.08,38.95 C39.7974937,38.95 42.8,35.9361206 42.8,32.2015152 L42.8,7.54848485 C42.8,3.81387942 39.7974937,0.8 36.08,0.8 C29.8560243,0.8 29.8560243,0.8 25.8953125,0.8 C18.7493576,0.8 18.7493576,0.8 7.52,0.8 C3.80250629,0.8 0.8,3.81387942 0.8,7.54848485 L0.8,32.2015152 C0.8,35.9361206 3.80250629,38.95 7.52,38.95 L13.04,38.95 C14.0872132,38.95 15.6638731,39.1630466 16.0742749,39.7912217 L21.7603516,51.0637612 Z M28.6049411,40.8017139 C28.6026515,40.8025804 28.6005695,40.8034023 28.5987008,40.8041765 C28.6031444,40.8023356 28.6075985,40.8004198 28.6120829,40.798383 Z"></path>
            </g>
        </g>
        <g id="badminton" transform="translate(4.000000, 5.000000)" fill="#FFFFFF">
            <path d="M14.1410246,1.05194892 L14.2705966,1.01252089 L14.287922,1.00724854 L14.4280022,1.52017965 L14.4107202,1.52545201 L14.2811047,1.56488003 C14.2577436,1.57198625 14.2342956,1.57537889 14.2111515,1.57537889 C14.1014235,1.57537889 14.0001193,1.49913609 13.9682474,1.38236495 C13.9295582,1.24097421 14.0071537,1.09270649 14.1410246,1.05194892 Z M15.1925813,0.178113817 C15.1957511,0.175042099 15.1998328,0.173391623 15.2040013,0.173391623 C15.2055645,0.173391623 15.2070843,0.173620856 15.2086475,0.174079322 C15.214249,0.175775644 15.2185912,0.180360298 15.2202413,0.186274502 C15.2618398,0.338439176 15.1942313,0.519899791 15.1728676,0.571431305 L15.358324,0.706632758 C15.3588017,0.706953684 15.3590622,0.707366303 15.3594096,0.707687229 C15.3600609,0.708191541 15.3604952,0.708787546 15.3610596,0.709383551 C15.3620584,0.710483868 15.36284,0.711675878 15.3634913,0.713005428 C15.3637084,0.713418047 15.3640124,0.713647279 15.3642295,0.714105745 C15.3642729,0.714334978 15.3642729,0.71456421 15.3643597,0.714793443 C15.3650111,0.716764844 15.3655321,0.718736246 15.3655756,0.720845187 C15.3655756,0.72093688 15.3655756,0.721028573 15.3656624,0.721074419 C15.3656624,0.722999974 15.3653584,0.725063069 15.364794,0.726942777 L15.2834641,0.981941246 L15.4809051,1.15203192 C15.4840749,1.15478271 15.4859855,1.15854213 15.4866802,1.16253078 C15.4867236,1.16280586 15.4868539,1.1629434 15.4868973,1.16321847 C15.4869408,1.16363109 15.4867671,1.16413541 15.4868105,1.16459387 C15.4869408,1.16606096 15.4868973,1.1674822 15.48655,1.16899514 C15.4864197,1.16977453 15.4863328,1.17055392 15.4860723,1.17133331 C15.4858986,1.17183762 15.4858986,1.17234194 15.4857249,1.1728004 L15.3969264,1.39153426 C15.4409566,1.42307668 15.5896344,1.53879335 15.6312329,1.69091218 C15.632883,1.69691807 15.6313632,1.70329074 15.6274986,1.7078754 C15.6242853,1.71154312 15.6197694,1.71365206 15.6150364,1.71365206 C15.6140377,1.71365206 15.6129956,1.71356037 15.6119534,1.71337698 L14.597653,1.51531992 L14.4339511,0.916013918 L15.1925813,0.178113817 Z M14.2111515,1.74881636 C14.2501447,1.74881636 14.2890076,1.74299385 14.3266547,1.73153221 L14.4561833,1.69210419 L14.5123283,1.67500343 L15.5821223,1.88388027 C15.5921095,1.88589752 15.6036598,1.88708953 15.6150364,1.88708953 C15.6656668,1.88708953 15.7143431,1.86448719 15.7486033,1.82501331 C15.7492112,1.82432562 15.7498191,1.82368376 15.7503836,1.82295022 C15.7920689,1.77339011 15.8064417,1.7058123 15.7888991,1.642269 C15.7538574,1.51408206 15.6711814,1.41028549 15.5971464,1.33848981 L15.6367041,1.24111175 C15.6372686,1.2397822 15.6377897,1.23845265 15.6382673,1.23707725 C15.6408292,1.23033781 15.6430438,1.22313991 15.6448241,1.21589615 C15.6461267,1.21066965 15.6472557,1.20539729 15.648211,1.19994155 C15.6502084,1.18834238 15.6511637,1.17655982 15.6510769,1.16473141 C15.6511203,1.15927567 15.6509466,1.15386578 15.6505124,1.14845589 L15.6505558,1.14845589 C15.650165,1.14373369 15.6495571,1.1390115 15.6488623,1.13433515 C15.6483847,1.13144682 15.6478202,1.12860433 15.6472557,1.12576185 C15.6467347,1.12337783 15.6461702,1.12099381 15.6456057,1.11860979 C15.6360528,1.07909007 15.6148193,1.04369654 15.5849882,1.01788493 L15.4753904,0.923486904 L15.5204627,0.7823254 C15.5267155,0.762657233 15.5298854,0.742072136 15.5298854,0.721074419 C15.5298854,0.714793443 15.5295814,0.70846662 15.5289301,0.702277337 C15.5276708,0.689302765 15.5251523,0.67651158 15.521418,0.663949627 C15.5205496,0.660832063 15.5195509,0.657760344 15.5185522,0.654734472 C15.5171192,0.650745823 15.5155994,0.646711327 15.513906,0.642814371 C15.5111704,0.636258316 15.5078703,0.629748107 15.5042662,0.62346713 C15.4979266,0.612280574 15.48985,0.600910632 15.4807748,0.590686853 C15.4769536,0.586285585 15.4728719,0.582113549 15.4686166,0.5781249 C15.4634927,0.57321932 15.4580215,0.568634666 15.4525503,0.56460017 L15.3690928,0.503715962 C15.3955803,0.401248939 15.4131663,0.266735184 15.3780377,0.138181479 C15.3607557,0.0745006314 15.3141636,0.025444831 15.2535027,0.0072437537 C15.2370023,0.00238402021 15.2205452,0 15.2040013,0 C15.158408,0 15.1148555,0.0179259981 15.0812901,0.0505228898 L14.2811916,0.828767947 L14.22509,0.845914554 L14.0955614,0.885342581 C13.9886124,0.917847779 13.900031,0.992531797 13.846144,1.09554898 C13.7922136,1.19861201 13.7795343,1.31753794 13.8104075,1.43045797 C13.8616023,1.61787864 14.0263898,1.74881636 14.2111515,1.74881636 Z M13.1410534,8.94511889 C12.6928055,8.1222193 13.057813,7.13271338 13.7410187,6.71784802 C14.4238337,6.30334943 15.4160322,6.53180275 15.8583747,7.34397425 C16.0000615,7.60415337 16.4993306,8.52085499 16.7553917,8.99096544 C16.8645552,9.19140652 16.6595153,9.33210956 16.4378447,9.52856199 C16.1876023,9.75036756 15.9633263,9.94938741 15.9633263,9.94938741 C15.9633263,9.94938741 14.1362047,9.86090358 13.7558257,9.62181386 C13.5034556,9.46313898 13.296288,9.23019269 13.1410534,8.94511889 Z M21.3709602,19.5025231 L21.3842882,19.5025231 L21.3939442,19.5173803 L21.3709602,19.5025231 Z M9.25120102,6.7027645 C9.14021374,6.72843857 9.03148441,6.74489748 8.92523016,6.75282893 L8.87898546,6.58645182 L9.30621702,6.45505563 L9.36596604,6.67003007 L9.25120102,6.7027645 Z M8.43355997,6.72714104 L8.76856266,6.62037827 L8.80690451,6.76307676 C8.67815753,6.76478572 8.55353566,6.75268056 8.43355997,6.72714104 Z M7.33106892,5.93666878 C7.31261446,5.90870239 7.29489818,5.87995661 7.27748586,5.85093574 L7.37896367,5.81971425 L7.46068435,6.11391151 C7.41556863,6.05829966 7.37227664,5.99924931 7.33106892,5.93666878 Z M7.60198037,2.42115591 L7.63624053,2.54443726 L7.40844738,2.61449078 C7.46850036,2.54416218 7.53315609,2.47970194 7.60198037,2.42115591 Z M9.25949467,5.85538286 L9.68672624,5.72398667 L9.81165207,6.17364956 L9.3844205,6.30504575 L9.25949467,5.85538286 Z M8.72184032,6.02075134 L9.14907188,5.88935515 L9.27399771,6.33897219 L8.84676614,6.47041423 L8.72184032,6.02075134 Z M8.18414254,6.18607397 L8.61141752,6.05472363 L8.73634335,6.50438651 L8.30911179,6.6357827 L8.18414254,6.18607397 Z M8.07376316,6.22004626 L8.19456388,6.65480902 C8.00767449,6.58503058 7.83468023,6.48027123 7.67831669,6.34167713 L8.07376316,6.22004626 Z M7.91661802,5.65439162 L8.04154385,6.10400866 L7.61426887,6.2354507 L7.48934304,5.78574196 L7.91661802,5.65439162 Z M7.3321979,5.22008732 L7.75947288,5.08864528 L7.88439871,5.53830817 L7.45712373,5.66970436 L7.3321979,5.22008732 Z M7.2217751,5.25401376 L7.34674435,5.70367665 L7.21656443,5.74370068 C7.14478745,5.60932447 7.08360549,5.4650454 7.03306199,5.31205548 L7.2217751,5.25401376 Z M7.28799404,3.39149798 L7.41291987,3.84120671 L6.98568831,3.97264875 L6.91768905,3.7280116 C6.93188813,3.64617552 6.94908334,3.56667761 6.96931812,3.48951788 L7.28799404,3.39149798 Z M8.17389488,2.37906878 L7.7466199,2.51046497 L7.70028835,2.3437211 C7.82365098,2.25409111 7.9589113,2.18252465 8.1048535,2.13062637 L8.17389488,2.37906878 Z M8.82192861,2.18862156 L8.78471574,2.04576442 C8.88237239,2.05602784 8.9791606,2.0758216 9.07464614,2.10573216 L8.82192861,2.18862156 Z M9.51672811,2.58010587 L9.42462951,2.24849783 C9.54729738,2.31612148 9.66601382,2.40043327 9.77999724,2.49909503 L9.51672811,2.58010587 Z M10.1011482,3.01441016 L9.67387325,3.14576051 L9.54899085,2.69614347 L9.88277772,2.59349306 C9.93141064,2.64085254 9.97934881,2.69022926 10.025854,2.74336541 L10.1011482,3.01441016 Z M10.2119905,2.98179603 L10.2113105,2.97979603 C10.2118545,2.98036745 10.2122625,2.98108174 10.2126705,2.98165317 L10.2119905,2.98179603 Z M10.6830065,4.67753934 L10.5580806,4.2279223 L10.7325512,4.17428184 C10.7660298,4.33281919 10.7862212,4.48961436 10.7929516,4.64375044 L10.6830065,4.67753934 Z M9.95429417,6.25576071 L10.2693661,6.15884112 C10.1858651,6.24370307 10.0933322,6.3209545 9.99146362,6.38949508 L9.95429417,6.25576071 Z M10.2243806,5.55866404 L10.3493064,6.00828108 L9.92207486,6.13972312 L9.79714903,5.69001438 L10.2243806,5.55866404 Z M9.63996047,5.12435974 L10.0672355,4.9929177 L10.1921613,5.44262644 L9.76492972,5.57397678 L9.63996047,5.12435974 Z M9.10230611,5.28968237 L9.5295811,5.15828618 L9.65450693,5.60794907 L9.22727536,5.73934526 L9.10230611,5.28968237 Z M8.56465175,5.45505085 L8.99192674,5.32360881 L9.11685257,5.77331755 L8.689621,5.90471374 L8.56465175,5.45505085 Z M8.45427238,5.48897729 L8.57919821,5.93868603 L8.15192322,6.07008222 L8.0269974,5.62041933 L8.45427238,5.48897729 Z M8.29712724,4.92327681 L8.42205307,5.37298554 L7.99477808,5.50438173 L7.86985226,5.05471884 L8.29712724,4.92327681 Z M7.71270712,4.48901836 L8.1399821,4.35762216 L8.26490793,4.80723921 L7.83763294,4.9386354 L7.71270712,4.48901836 Z M7.60228432,4.5229448 L7.72725357,4.97260768 L7.29997859,5.10400388 L7.17505276,4.65434099 L7.60228432,4.5229448 Z M7.57006501,4.40695304 L7.14283345,4.53830339 L7.01790762,4.0886405 L7.44513918,3.95724431 L7.57006501,4.40695304 Z M7.95057423,3.67583823 L7.52334266,3.80723442 L7.39837341,3.35757153 L7.8256484,3.22617534 L7.95057423,3.67583823 Z M8.33104002,2.94476927 L7.90376504,3.07616546 L7.77883921,2.62650257 L8.2061142,2.49515223 L8.33104002,2.94476927 Z M8.86869438,2.77940079 L8.4414194,2.91079698 L8.31649357,2.46117994 L8.74376856,2.32978375 L8.86869438,2.77940079 Z M9.13626232,3.31117483 L9.01129307,2.8614661 L9.43856805,2.73011576 L9.56349388,3.1797328 L9.13626232,3.31117483 Z M9.72063902,3.74547913 L9.29340746,3.87687532 L9.16848163,3.42721243 L9.59571319,3.2957704 L9.72063902,3.74547913 Z M9.83101839,3.71150684 L9.70613599,3.26184395 L10.1333676,3.13044776 L10.2582934,3.58011065 L9.83101839,3.71150684 Z M9.98820695,4.27720733 L9.86328113,3.82759029 L10.2905127,3.69614825 L10.4154819,4.14581114 L9.98820695,4.27720733 Z M9.48281533,4.55861341 L9.91004689,4.42721722 L10.0349727,4.8768801 L9.60774116,5.00827629 L9.48281533,4.55861341 Z M8.94516097,4.72398189 L9.37243596,4.59258569 L9.49736179,5.04224858 L9.0700868,5.17364477 L8.94516097,4.72398189 Z M8.8347816,4.75795417 L8.95970743,5.20757121 L8.53243244,5.33901325 L8.40750661,4.88930452 L8.8347816,4.75795417 Z M8.67759304,4.19220784 L8.80256229,4.64191657 L8.3752873,4.77326692 L8.25036147,4.32364988 L8.67759304,4.19220784 Z M8.09321633,3.75790354 L8.5204479,3.6265532 L8.64537373,4.07617024 L8.21814216,4.20761228 L8.09321633,3.75790354 Z M8.10771937,4.24153872 L7.6804878,4.37298076 L7.55556198,3.92327202 L7.98279354,3.79187583 L8.10771937,4.24153872 Z M8.48818516,3.51046975 L8.06099702,3.64186594 L7.93602777,3.1922489 L8.36325934,3.06080687 L8.48818516,3.51046975 Z M8.59860796,3.47654331 L8.47368213,3.02688042 L8.90091369,2.89543839 L9.02583952,3.34514712 L8.59860796,3.47654331 Z M8.7557531,4.0422438 L8.63087069,3.59258091 L9.05805883,3.46113887 L9.18298466,3.91084761 L8.7557531,4.0422438 Z M9.32567019,3.99291292 L9.75285833,3.86151673 L9.87782758,4.31113377 L9.4505526,4.44257581 L9.32567019,3.99291292 Z M9.34017322,4.4765481 L8.91294166,4.60794429 L8.78801583,4.15823555 L9.2152474,4.02688521 L9.34017322,4.4765481 Z M10.6048464,4.82754922 L10.7297722,5.27725796 L10.3025841,5.40865415 L10.1776148,4.95894542 L10.6048464,4.82754922 Z M10.1453521,4.84290782 L10.0204263,4.39324493 L10.4477013,4.26184874 L10.5726271,4.71151163 L10.1453521,4.84290782 Z M9.28580856,2.18009479 L9.40634874,2.61407816 L8.97907375,2.7454285 L8.85414793,2.29581146 L9.26244739,2.17019193 C9.27021997,2.17353873 9.2780794,2.17665629 9.28580856,2.18009479 Z M10.4505671,5.94143682 L10.3348034,5.52469175 L10.7051084,5.41076309 C10.6471397,5.6062069 10.561511,5.78354133 10.4505671,5.94143682 Z M10.8402485,4.94945518 C10.8367859,4.97618372 10.8306711,5.00194947 10.8258823,5.02817369 L10.7152258,4.79357694 L10.8512258,4.76895734 C10.8507837,4.82956647 10.8478368,4.88985468 10.8402485,4.94945518 Z M10.6882171,3.98938274 C10.6943831,4.01189339 10.6996372,4.03422065 10.7052821,4.05668546 L10.5258613,4.1118847 L10.4009355,3.66217596 L10.5590793,3.61357863 C10.6097531,3.7365849 10.6533925,3.86247951 10.6882171,3.98938274 Z M10.2877337,3.09225759 C10.3711044,3.22136146 10.4457907,3.3594054 10.5109241,3.50240076 L10.3686293,3.54613836 L10.2437903,3.09652132 L10.282523,3.08460122 C10.2842165,3.08721447 10.2860402,3.08964434 10.2877337,3.09225759 Z M8.66291632,2.03856651 L8.71154924,2.2137003 L8.28427426,2.34514234 L8.21497234,2.09578299 C8.35492226,2.05695097 8.49526299,2.03751204 8.63464843,2.03751204 C8.64411448,2.03751204 8.65349369,2.03838312 8.66291632,2.03856651 Z M7.28304391,2.77898817 L7.66845984,2.66042901 L7.79338567,3.11013775 L7.3661541,3.24153394 L7.25121539,2.82786058 C7.26168016,2.81140167 7.27218834,2.79503446 7.28304391,2.77898817 Z M7.17014604,2.96718823 L7.25577473,3.27550622 L7.00926659,3.35129056 C7.05320991,3.21425524 7.10705351,3.08597662 7.17014604,2.96718823 Z M6.8742668,4.13283657 L6.90748482,4.12261279 L7.03241065,4.57227568 L6.88751059,4.61683852 C6.87148778,4.45559623 6.86697186,4.29297854 6.8742668,4.13283657 Z M6.9597218,5.05380191 C6.93527507,4.95069304 6.91625612,4.8450626 6.90175309,4.7383777 L7.06462996,4.68826743 L7.18955579,5.13797616 L6.99762943,5.19702651 C6.9841251,5.14994211 6.97131554,5.1023534 6.9597218,5.05380191 Z M9.47695333,6.63830426 L9.41663981,6.42108335 L9.84387138,6.28968716 L9.88959501,6.4541387 C9.76948906,6.52442145 9.63857096,6.58425119 9.49688414,6.63261929 L9.47695333,6.63830426 Z M26.4355149,23.3307094 C26.3283054,22.1903225 26.2668194,22.0528288 25.7625568,21.1026592 C25.3530415,20.3311077 22.1079227,14.216371 22.1079227,14.216371 L20.4316066,10.8192339 L21.005562,9.61690828 C21.005562,9.61690828 22.6171789,8.26695684 22.8307296,8.09053934 C22.9240874,8.01342546 23.1229614,7.79707562 23.3444583,7.47225287 C23.4742474,7.28189803 25.6514393,4.08859465 26.0610414,3.48846341 C26.4706001,2.88828633 26.048145,2.22869212 25.8898709,2.19916695 L21.6536825,7.04477971 L18.0503301,8.87634908 C18.0503301,8.87634908 17.7722106,9.02204939 17.6117654,9.17072973 C17.1365522,9.61108577 15.8409624,10.7791181 15.6291486,10.9775878 C15.368094,11.2220416 15.1739097,11.6963241 15.1739097,11.6963241 L14.1041591,13.9152967 C14.1041591,13.9152967 12.358541,12.6618522 11.5286983,12.0655721 C11.2161449,11.4141386 11.0071536,11.0894534 10.7499636,11.0298529 L10.5844814,10.5793647 L10.5132689,10.5996289 L9.66549276,7.28927932 L9.71199799,7.27593798 L9.59918697,6.83553609 C10.4309837,6.53922989 10.9257803,5.88353264 10.993823,4.98549056 C11.0194421,4.64714308 10.9824463,4.29371208 10.8838344,3.93496289 C10.7893476,3.59120551 10.6384986,3.2532248 10.4474407,2.95746876 C9.85107947,2.03393601 8.99088461,1.62658948 8.14636517,1.8676506 C7.30180232,2.10875757 6.75320555,2.9184075 6.67886665,4.03339542 C6.65507126,4.39086091 6.68607475,4.76308899 6.76853361,5.10978054 C6.85468336,5.47228915 6.99142004,5.7972036 7.17496591,6.07576719 C7.66242415,6.81518023 8.40281701,7.11818002 9.2626645,6.93167629 L9.37543209,7.37221572 L9.42193733,7.35887437 L10.2697569,10.6691781 L10.1986312,10.6894881 L10.2710161,11.169043 C10.007747,11.394883 10.0569878,11.7981492 10.1688001,12.0243561 C10.2990669,12.2879737 10.6875224,12.5195446 10.6875224,12.5195446 C10.6875224,12.5195446 13.9139262,15.9005437 14.1090223,16.1065322 C14.5056412,16.5253404 14.8684776,16.531117 15.1455984,16.1784654 C15.4856815,15.7457199 16.1856048,14.865558 16.1856048,14.865558 L15.4721338,14.141962 L15.5663166,13.9513779 L17.675075,15.4883374 L18.7917217,17.3833126 L16.74154,23.3718338 L13.3120069,30.0147227 C13.3120069,30.0147227 14.1802783,30.8671016 15.1508091,29.4648851 C16.1212965,28.0626686 21.7000141,20.0025714 21.7000141,20.0025714 L24.0838524,22.9368418 C24.0838524,22.9368418 25.2400568,27.7256507 25.5348939,29.0386957 C25.829731,30.3516948 26.7718637,30.4535658 27.1113389,30.3229032 C27.1113389,30.3229032 26.5346045,24.385455 26.4355149,23.3307094 Z" id="Fill-1"></path>
        </g>
    </g>
</svg>