<?xml version="1.0" encoding="UTF-8"?>
<svg width="44px" height="53px" viewBox="0 0 44 53" version="1.1" xmlns="http://www.w3.org/2000/svg" xmlns:xlink="http://www.w3.org/1999/xlink">
    <!-- Generator: Sketch 49.2 (51160) - http://www.bohemiancoding.com/sketch -->
    <title>location-pin-unselected</title>
    <desc>Created with Sketch.</desc>
    <defs>
        <linearGradient x1="50%" y1="0%" x2="50%" y2="100%" id="linearGradient-1">
            <stop stop-color="#19A4EA" offset="0%"></stop>
            <stop stop-color="#0082C3" offset="100%"></stop>
        </linearGradient>
        <path d="M7.52,2.74985211e-16 C3.36,2.74985211e-16 0,3.37272727 0,7.54848485 L0,32.2015152 C0,36.3772727 3.36,39.75 7.52,39.75 L13.04,39.75 C13.36,39.75 15.2,39.9106061 15.36,40.1515152 L21.76,52.8393939 L28.16,40.1515152 C28.32,39.9106061 30.16,39.75 30.48,39.75 L36.08,39.75 C40.24,39.75 43.6,36.3772727 43.6,32.2015152 L43.6,7.54848485 C43.6,3.37272727 40.24,0 36.08,0 C31.5534722,4.35829201e-17 28.1585764,7.62701102e-17 25.8953125,9.80615702e-17 C21.8119097,1.37377935e-16 15.6868056,1.96352482e-16 7.52,2.74985211e-16 Z" id="path-2"></path>
        <filter x="-18.3%" y="-13.2%" width="136.7%" height="130.3%" filterUnits="objectBoundingBox" id="filter-3">
            <feOffset dx="0" dy="1" in="SourceAlpha" result="shadowOffsetOuter1"></feOffset>
            <feGaussianBlur stdDeviation="2.5" in="shadowOffsetOuter1" result="shadowBlurOuter1"></feGaussianBlur>
            <feComposite in="shadowBlurOuter1" in2="SourceAlpha" operator="out" result="shadowBlurOuter1"></feComposite>
            <feColorMatrix values="0 0 0 0 0   0 0 0 0 0   0 0 0 0 0  0 0 0 0.271993886 0" type="matrix" in="shadowBlurOuter1"></feColorMatrix>
        </filter>
        <polygon id="path-4" points="0 0.00214141375 19.9818977 0.00214141375 19.9818977 26.2322514 0 26.2322514"></polygon>
        <polygon id="path-6" points="0.134748681 0.161009929 3.46951327 0.161009929 3.46951327 4.91174597 0.134748681 4.91174597"></polygon>
    </defs>
    <g id="location-pin-unselected" stroke="none" stroke-width="1" fill="none" fill-rule="evenodd">
        <g id="location-pin">
            <g id="Path">
                <use fill="black" fill-opacity="1" filter="url(#filter-3)" xlink:href="#path-2"></use>
                <use fill="url(#linearGradient-1)" fill-rule="evenodd" xlink:href="#path-2"></use>
                <path stroke="#FFFFFF" stroke-width="1.6" d="M21.7603516,51.0637612 L27.493587,39.7089163 C27.8561269,39.1630466 29.4327868,38.95 30.48,38.95 L36.08,38.95 C39.7974937,38.95 42.8,35.9361206 42.8,32.2015152 L42.8,7.54848485 C42.8,3.81387942 39.7974937,0.8 36.08,0.8 C29.8560243,0.8 29.8560243,0.8 25.8953125,0.8 C18.7493576,0.8 18.7493576,0.8 7.52,0.8 C3.80250629,0.8 0.8,3.81387942 0.8,7.54848485 L0.8,32.2015152 C0.8,35.9361206 3.80250629,38.95 7.52,38.95 L13.04,38.95 C14.0872132,38.95 15.6638731,39.1630466 16.0742749,39.7912217 L21.7603516,51.0637612 Z M28.6049411,40.8017139 C28.6026515,40.8025804 28.6005695,40.8034023 28.5987008,40.8041765 C28.6031444,40.8023356 28.6075985,40.8004198 28.6120829,40.798383 Z"></path>
            </g>
        </g>
        <g id="beach-tennis" transform="translate(9.000000, 7.000000)">
            <g id="Page-1" transform="translate(1.879075, 0.000000)">
                <g id="Group-3" transform="translate(0.000000, 0.265589)">
                    <mask id="mask-5" fill="white">
                        <use xlink:href="#path-4"></use>
                    </mask>
                    <g id="Clip-2"></g>
                    <path d="M12.187933,5.01719858 C12.0006519,4.16786035 11.7400868,3.36911302 11.6159729,2.53449701 C11.4792749,1.61395678 11.9976909,0.568679189 12.7788927,0.189381279 C13.5956262,-0.207315619 14.62777,0.0437651435 15.1723412,0.771845819 C15.7462753,1.53873962 15.7840277,2.66164345 15.2397032,3.45610796 C14.9080749,3.94033514 14.5532523,4.40636031 14.1930013,4.86596124 C14.0565501,5.03968343 14.0617318,5.14621876 14.2467922,5.23803187 C15.1844318,5.70378937 15.4644899,6.57427406 15.552332,7.60804154 C15.640174,8.64234439 15.8360913,9.66272804 16.0181908,10.6831117 C16.0507614,10.8648642 16.110721,11.0219904 16.2052252,11.1742985 C16.9316492,12.3459195 17.6578264,13.5178081 18.3731467,14.6974594 C18.4910919,14.8920604 18.9873006,14.9322119 19.0391176,14.9688836 C19.7119973,15.448025 20.3579817,15.6784946 19.7203867,15.7542471 C19.5207682,15.7780704 19.3231237,15.768434 19.1975293,15.9983683 C19.1351022,16.1126663 18.9971705,16.1169491 18.8760176,16.1249794 C18.4150937,16.1552269 17.9549101,16.19404 17.4939862,16.221343 C16.9647133,16.2526612 16.6735515,15.8053734 16.9326362,15.2994644 C17.0476204,15.0748836 16.9735962,14.9919038 16.8591055,14.8591362 C16.1403307,14.0234495 15.4282181,13.1808032 14.7032746,12.3515407 C14.5113053,12.1315104 14.3763345,11.889263 14.2801031,11.6082024 C13.9721625,10.7072026 13.6555858,9.80968256 13.3281521,8.87013727 C12.7865419,9.29494023 12.2570223,9.68066238 11.7615538,10.1121573 C11.5372605,10.3075613 11.5626755,10.6817733 11.4207958,10.9432935 C11.106193,11.5228136 11.2416573,11.9211165 11.6951787,12.3742932 C12.6259094,13.3042021 13.451279,14.3588484 14.3896589,15.2788533 C15.1533416,16.0275451 15.482996,16.9197116 15.6224082,17.9928275 C15.9611922,20.5970543 16.3584553,23.1919124 16.7337579,25.790518 C16.794211,26.2107705 16.7530042,26.2715331 16.360676,26.2137149 C15.6310444,26.1061089 15.2130545,25.6157251 15.0008518,24.8785435 C14.3528935,22.6257762 13.6970393,20.3756857 13.0582106,18.119974 C12.9720958,17.8156255 12.8279954,17.6191508 12.577547,17.4566711 C11.308279,16.6332975 10.0461668,15.7968077 8.78849599,14.9522877 C8.56173525,14.7999796 8.47512696,14.765717 8.41763485,15.1147675 C8.23479513,16.2258935 8.01420307,17.3292569 7.81063658,18.4363679 C7.70502875,19.0099991 7.45877498,19.4926202 7.04769404,19.8767363 C5.54105525,21.2847158 4.03861116,22.6983166 2.52851791,24.1020133 C2.14803363,24.4556142 1.71400519,24.715796 1.22519886,24.8616798 C1.00460681,24.9275283 0.783274513,24.9457303 0.557500767,24.9259222 C0.352700539,24.9079879 0.113108946,24.8702455 0.0215657108,24.6820687 C-0.0724449966,24.4890738 0.164432376,24.3643365 0.268312974,24.2283567 C1.76384814,22.2705692 3.2640715,20.3173322 4.77169728,18.3705194 C4.92764155,18.1692265 4.99228934,17.9756962 4.97847149,17.7120347 C4.90123959,16.237939 4.85608485,14.7617019 4.76774933,13.2884092 C4.67324512,11.7125964 5.12183165,10.3859905 6.20357165,9.31769275 C6.29807585,9.22427357 6.38098293,9.11024329 6.44735795,8.99139483 C7.20832651,7.63079407 7.96041217,6.26430442 8.72705592,4.90745113 C8.85042955,4.68902692 8.8047813,4.61809259 8.60689,4.52547645 C7.94486709,4.21550681 7.29764902,3.8672594 6.63143141,3.5682645 C6.14361207,3.3498403 5.60693677,3.39989585 5.09246872,3.33217364 C3.84762878,3.16808781 2.59933437,3.03612318 1.35400093,2.87658786 C0.814611416,2.80752727 0.424503992,2.41591623 0.320870142,1.91295167 C0.280897085,1.71861837 0.303597833,1.62894667 0.51308626,1.62948203 C2.50211595,1.63510324 4.49385986,1.56470426 6.4784481,1.66508303 C7.39659467,1.71112343 8.30141689,2.08265871 9.21068055,2.31366372 C9.77351106,2.45687076 10.3479387,2.55805256 10.8685754,2.85811817 C11.173555,3.03371409 11.3998223,3.25990092 11.4997549,3.63973419 C11.5967266,4.00832503 11.7415672,4.362729 11.8666681,4.72248651 C11.916511,4.86649659 11.9567308,5.02362282 12.187933,5.01719858" id="Fill-1" fill="#FFFFFF" mask="url(#mask-5)"></path>
                </g>
                <path d="M19.8679416,15.1393669 L18.732164,15.1926346 C18.4220026,15.2070892 18.1806838,15.4927002 18.1940082,15.8294375 C18.2004236,15.9924526 18.2650714,16.142887 18.3758609,16.2531698 C18.4866504,16.3634526 18.6305041,16.4202 18.7807732,16.4132404 L19.9165508,16.3599728 C20.0310416,16.7582757 20.2400365,17.1156242 20.5267568,17.4012352 L20.5270036,17.4012352 C20.5637689,17.4379069 20.601768,17.4729726 20.6402605,17.5066998 L20.4978874,13.9292005 C20.1879728,14.2485388 19.9634328,14.6661145 19.8679416,15.1393669" id="Fill-4" fill="#FFFFFF"></path>
                <g id="Group-8" transform="translate(20.726770, 13.114071)">
                    <mask id="mask-7" fill="white">
                        <use xlink:href="#path-6"></use>
                    </mask>
                    <g id="Clip-7"></g>
                    <path d="M3.46756397,2.4337435 C3.442149,1.79988503 3.19096029,1.21447604 2.75989282,0.785657938 C2.32882535,0.356839834 1.76969605,0.135738864 1.18515178,0.163309566 C0.802693523,0.18097623 0.443676255,0.305981257 0.134748681,0.512092331 L0.300069347,4.66161683 C0.629230197,4.84096023 0.996636872,4.92715213 1.37465368,4.90948547 C2.5807543,4.85300568 3.51962764,3.74241498 3.46756397,2.4337435" id="Fill-6" fill="#FFFFFF" mask="url(#mask-7)"></path>
                </g>
                <path d="M21.1031337,12.0809463 C21.2430394,11.9155221 21.4809038,11.9042797 21.6333936,12.0560524 C21.7861302,12.2078251 21.7962468,12.4658654 21.6563411,12.6315573 C21.5164354,12.7969815 21.278571,12.8079563 21.1260812,12.6561836 C20.9735914,12.5046785 20.963228,12.2463705 21.1031337,12.0809463 M21.9329448,12.906729 C22.2130029,12.5756129 22.1922762,12.0595321 21.8872965,11.7559867 C21.5820702,11.4524413 21.1063415,11.4746585 20.8265301,11.8057746 C20.5467187,12.136623 20.5671987,12.6529714 20.8721783,12.9565168 C21.1774047,13.2600622 21.6531334,13.2375774 21.9329448,12.906729" id="Fill-9" fill="#FFFFFF"></path>
            </g>
        </g>
    </g>
</svg>