<?xml version="1.0" encoding="UTF-8"?>
<svg width="44px" height="53px" viewBox="0 0 44 53" version="1.1" xmlns="http://www.w3.org/2000/svg" xmlns:xlink="http://www.w3.org/1999/xlink">
    <!-- Generator: Sketch 49.2 (51160) - http://www.bohemiancoding.com/sketch -->
    <title>location-pin-unselected</title>
    <desc>Created with Sketch.</desc>
    <defs>
        <linearGradient x1="50%" y1="0%" x2="50%" y2="100%" id="linearGradient-1">
            <stop stop-color="#19A4EA" offset="0%"></stop>
            <stop stop-color="#0082C3" offset="100%"></stop>
        </linearGradient>
        <path d="M7.52,2.74985211e-16 C3.36,2.74985211e-16 0,3.37272727 0,7.54848485 L0,32.2015152 C0,36.3772727 3.36,39.75 7.52,39.75 L13.04,39.75 C13.36,39.75 15.2,39.9106061 15.36,40.1515152 L21.76,52.8393939 L28.16,40.1515152 C28.32,39.9106061 30.16,39.75 30.48,39.75 L36.08,39.75 C40.24,39.75 43.6,36.3772727 43.6,32.2015152 L43.6,7.54848485 C43.6,3.37272727 40.24,0 36.08,0 C31.5534722,4.35829201e-17 28.1585764,7.62701102e-17 25.8953125,9.80615702e-17 C21.8119097,1.37377935e-16 15.6868056,1.96352482e-16 7.52,2.74985211e-16 Z" id="path-2"></path>
        <filter x="-18.3%" y="-13.2%" width="136.7%" height="130.3%" filterUnits="objectBoundingBox" id="filter-3">
            <feOffset dx="0" dy="1" in="SourceAlpha" result="shadowOffsetOuter1"></feOffset>
            <feGaussianBlur stdDeviation="2.5" in="shadowOffsetOuter1" result="shadowBlurOuter1"></feGaussianBlur>
            <feComposite in="shadowBlurOuter1" in2="SourceAlpha" operator="out" result="shadowBlurOuter1"></feComposite>
            <feColorMatrix values="0 0 0 0 0   0 0 0 0 0   0 0 0 0 0  0 0 0 0.271993886 0" type="matrix" in="shadowBlurOuter1"></feColorMatrix>
        </filter>
    </defs>
    <g id="location-pin-unselected" stroke="none" stroke-width="1" fill="none" fill-rule="evenodd">
        <g id="location-pin">
            <g id="Path">
                <use fill="black" fill-opacity="1" filter="url(#filter-3)" xlink:href="#path-2"></use>
                <use fill="url(#linearGradient-1)" fill-rule="evenodd" xlink:href="#path-2"></use>
                <path stroke="#FFFFFF" stroke-width="1.6" d="M21.7603516,51.0637612 L27.493587,39.7089163 C27.8561269,39.1630466 29.4327868,38.95 30.48,38.95 L36.08,38.95 C39.7974937,38.95 42.8,35.9361206 42.8,32.2015152 L42.8,7.54848485 C42.8,3.81387942 39.7974937,0.8 36.08,0.8 C29.8560243,0.8 29.8560243,0.8 25.8953125,0.8 C18.7493576,0.8 18.7493576,0.8 7.52,0.8 C3.80250629,0.8 0.8,3.81387942 0.8,7.54848485 L0.8,32.2015152 C0.8,35.9361206 3.80250629,38.95 7.52,38.95 L13.04,38.95 C14.0872132,38.95 15.6638731,39.1630466 16.0742749,39.7912217 L21.7603516,51.0637612 Z M28.6049411,40.8017139 C28.6026515,40.8025804 28.6005695,40.8034023 28.5987008,40.8041765 C28.6031444,40.8023356 28.6075985,40.8004198 28.6120829,40.798383 Z"></path>
            </g>
        </g>
        <g id="tennis" transform="translate(6.000000, 7.000000)" fill="#FFFFFF">
            <path d="M21.5782336,6.72976807 L20.8360094,5.82192402 C21.0425011,5.83658243 21.2507116,5.8200161 21.4561529,5.76789732 C21.596042,5.73243793 21.7284354,5.68190132 21.8536195,5.61935878 L21.5782336,6.72976807 Z M20.4493806,5.02306406 L21.1142122,4.85819188 L21.25138,5.38384703 C21.0137116,5.43066087 20.7714121,5.41707276 20.5353193,5.35243616 L20.4493806,5.02306406 Z M20.2436528,4.234814 L20.9084844,4.06994182 L21.0775927,4.71798304 L20.4127611,4.88285523 L20.2436528,4.234814 Z M20.0261801,5.12799965 L20.3055287,5.05870959 L20.3679298,5.29803718 C20.2513396,5.25350354 20.1369933,5.19640555 20.0261801,5.12799965 Z M19.8654269,5.0185502 C19.7367575,4.92292154 19.6141516,4.81184339 19.5003782,4.68643257 L19.4348738,4.43533171 L20.0997532,4.27045953 L20.2688615,4.91850075 L19.8654269,5.0185502 Z M19.229146,3.64708165 L19.8940254,3.48220947 L20.0631337,4.13025069 L19.3983021,4.29512288 L19.229146,3.64708165 Z M19.2300532,4.33681791 C19.1078292,4.1509586 19.0028407,3.94532208 18.9192414,3.72395686 L19.0852941,3.68277371 L19.2543547,4.33076841 L19.2300532,4.33681791 Z M18.8200299,3.41836396 C18.7761057,3.25516702 18.7459794,3.09243542 18.7283619,2.93203056 L18.8795664,2.89452365 L19.0486747,3.54251834 L18.8707815,3.58663317 C18.8526866,3.5313035 18.8354034,3.47541541 18.8200299,3.41836396 Z M18.7261752,2.3018121 L18.8553703,2.75431482 L18.7163054,2.7858653 C18.7051301,2.6207139 18.7087334,2.4587734 18.7261752,2.3018121 Z M19.1325127,1.15333748 L19.2767943,1.11750582 L19.4459026,1.76554705 L18.7889487,1.92846478 C18.8598005,1.63864712 18.9765816,1.37521459 19.1325127,1.15333748 Z M19.9805848,0.514928924 L20.0489061,0.776779275 L19.383979,0.941651461 L19.3675074,0.878503971 C19.5429179,0.711491192 19.7492664,0.58668532 19.9805848,0.514928924 Z M20.2545861,1.56502934 L19.5898023,1.72990152 L19.4206462,1.08186029 L20.0855255,0.916988109 L20.2545861,1.56502934 Z M20.8388263,0.504132891 L20.8575896,0.576261564 L20.192758,0.74113375 L20.124007,0.477747757 C20.3611502,0.429444813 20.6029722,0.441125004 20.8388263,0.504132891 Z M21.0633174,1.36451162 L20.3985335,1.52938381 L20.2293774,0.881342584 L20.8942568,0.716470397 L21.0633174,1.36451162 Z M21.197525,0.641270439 C21.4397768,0.76305156 21.668517,0.938812849 21.8706163,1.15831669 L21.8720964,1.16394738 L21.207217,1.32881956 L21.0381087,0.680824872 L21.197525,0.641270439 Z M22.0777764,1.95219744 L21.4129448,2.11702309 L21.2437887,1.4690284 L21.9086681,1.30415621 L22.0777764,1.95219744 Z M22.3574115,1.88281431 L22.221676,1.91650538 L22.0967307,1.43794327 C22.1938892,1.57494121 22.2812602,1.72399162 22.3574115,1.88281431 Z M22.5644761,2.44113677 C22.5856266,2.51331198 22.6034827,2.58534759 22.6191904,2.65719705 L22.4274038,2.70470891 L22.2582477,2.05671421 L22.4179028,2.01715978 C22.4751953,2.15234287 22.5247533,2.29376161 22.5644761,2.44113677 Z M22.6846948,3.48020848 L22.6331793,3.49295897 L22.464071,2.84496427 L22.6470728,2.79954648 C22.6867956,3.03208001 22.6983495,3.2606581 22.6846948,3.48020848 Z M22.6728056,3.64520522 L22.669751,3.63383679 L22.6741147,3.63284206 C22.6735329,3.63696311 22.673242,3.64108416 22.6728056,3.64520522 Z M22.4665537,4.37353373 L22.0301759,4.48172674 L21.8610675,3.83373205 L22.5258992,3.66890639 L22.6067771,3.97882702 C22.5709215,4.1173606 22.5238462,4.24942588 22.4665537,4.37353373 Z M22.1342095,4.88015622 L22.0667953,4.62198211 L22.3779413,4.54478116 C22.3074238,4.66721376 22.2258775,4.77959489 22.1342095,4.88015622 Z M21.7171679,3.86942411 L21.8862762,4.5174188 L21.2214446,4.68229098 L21.0523363,4.03424976 L21.7171679,3.86942411 Z M20.8466085,3.2459997 L21.5114879,3.08117404 L21.6805962,3.72921527 L21.0157646,3.89404092 L20.8466085,3.2459997 Z M20.7027089,3.28169176 L20.8718172,3.92973298 L20.2069856,4.09460517 L20.0378295,3.44656394 L20.7027089,3.28169176 Z M19.8321018,2.65831388 L20.4970288,2.4934417 L20.6661372,3.14148292 L20.0012578,3.30635511 L19.8321018,2.65831388 Z M19.6882499,2.69395941 L19.8573582,3.34200063 L19.1925266,3.50687282 L19.0233705,2.85883159 L19.6882499,2.69395941 Z M19.6515827,2.55379711 L18.9867988,2.71866929 L18.8176427,2.07062807 L19.4825221,1.90575588 L19.6515827,2.55379711 Z M20.4603617,2.35323286 L19.79553,2.51810505 L19.626374,1.87011036 L20.2912533,1.70523817 L20.4603617,2.35323286 Z M20.6042613,2.31758734 L20.4351052,1.66954611 L21.0999368,1.50472046 L21.2690452,2.15271515 L20.6042613,2.31758734 Z M21.4748207,2.94096521 L20.8099891,3.1058374 L20.640833,2.45779617 L21.3057123,2.29292398 L21.4748207,2.94096521 Z M22.3201714,2.8806098 L22.4892797,3.52865103 L21.8244481,3.69347668 L21.6553398,3.04548199 L22.3201714,2.8806098 Z M21.6187203,2.90522662 L21.4495642,2.25727846 L22.1143958,2.09240627 L22.2835042,2.74040097 L21.6187203,2.90522662 Z M21.3951841,5.34768963 L21.2581118,4.82249982 L21.9229434,4.65767417 L22.0126062,5.00114625 C21.8356201,5.16048082 21.6281258,5.27956293 21.3951841,5.34768963 Z M22.5128174,9.0349074 L21.9732176,7.1763609 C21.9732176,7.1763609 22.1294829,6.06865062 22.5629006,5.20817881 C22.9962705,4.34766048 23.3007801,3.43893226 23.0123124,2.33373485 C22.5971806,0.743600085 21.2093655,-0.263781538 19.929499,0.0607509566 C18.6495848,0.385329986 17.9571095,1.93563111 18.373435,3.49486689 C18.6350229,4.47493268 19.3392431,5.30436589 19.9515089,5.69539637 C20.5636791,6.08642684 21.4599246,7.34323407 21.4599246,7.34323407 L21.8695182,9.38996661 C21.7114864,9.54390316 21.5629079,9.68867238 21.4442169,9.8042644 L18.6738863,10.3305245 C18.6738863,10.3305245 15.2549092,7.31186973 15.0976413,7.170451 C14.7994817,6.90231847 14.5839187,6.79836012 14.247564,6.7703928 C14.0049781,6.75019678 13.7420055,6.72516115 12.6671029,6.63851367 C11.3459381,6.53199591 10.8789566,7.52001912 10.6398082,8.3209266 C10.3848088,9.17474395 9.09028504,13.619592 9.09028504,13.619592 L8.56157084,14.8157646 C8.03285664,16.0119372 8.29554271,17.4794998 8.60449246,18.054342 C8.91339447,18.6292308 10.5018765,21.5848777 10.5018765,21.5848777 C10.5018765,21.5848777 7.87678235,24.7256393 6.97762446,25.8140378 C6.07846657,26.9025292 6.84398973,27.6481536 6.84398973,27.6481536 C6.84398973,27.6481536 13.2630403,22.0948972 13.6415527,21.7576608 C14.0647532,21.3805442 14.2130453,20.9208751 13.9910369,20.453807 C13.4917806,20.1408617 10.8947598,18.4960953 10.8947598,18.4960953 L10.7447967,18.2043697 L16.6137439,21.337965 C16.6137439,21.337965 19.3874643,25.3001093 20.4117585,26.7450561 C21.436005,28.1899562 22.4937676,27.5142735 22.4937676,27.5142735 C22.4937676,27.5142735 18.6206521,20.3655309 18.367658,19.9105153 C18.0436212,19.327576 18.0101051,19.2725255 17.5022549,18.847897 C17.120305,18.5284834 12.729886,14.8573666 12.729886,14.8573666 L12.8021222,14.7090607 C13.4542063,13.3782169 14.7101054,11.6702099 15.1653897,11.0673073 L14.2042604,10.5223402 L14.2625078,10.3393195 C14.2625078,10.3393195 17.7982661,11.9789672 17.9221611,12.0363909 C18.0601883,12.1004225 18.2562718,12.109776 18.3673715,12.0729671 C18.4627158,12.0413701 21.7949902,10.9108113 22.3450936,10.7282094 C22.9232703,10.5363006 23.1481911,9.79328223 23.0204288,9.5048606 C22.9830932,9.37381909 22.7576473,9.10689647 22.5128174,9.0349074 Z M13.2598892,6.30188217 C13.2598892,6.30188217 13.6146252,6.33124552 14.0101821,6.36423857 C14.3606689,6.39346232 14.6514761,6.45311971 14.720418,6.20262381 C14.8819351,5.61498453 15.1971393,4.46906932 15.2864678,4.14388534 C15.5656732,3.12859283 14.8971176,2.11739537 13.9727988,1.87588065 C13.0475251,1.63427286 11.9293189,2.11530131 11.6465327,3.14394926 C11.5485148,3.50031144 11.5374383,3.85876768 11.6258597,4.19572492 C11.7589692,4.70378998 13.2598892,6.30188217 13.2598892,6.30188217 Z M26.238739,14.9025982 C26.1404346,14.7864478 26.0850519,14.639631 26.0850519,14.4842519 C26.0850519,14.3282678 26.1408643,14.1814976 26.2386912,14.0658591 C26.3400512,14.1794966 26.4012109,14.3253362 26.4012109,14.4842519 C26.4012109,14.6431677 26.3400989,14.7889607 26.238739,14.9025982 Z M25.3183829,15.036618 C25.4634284,14.8767715 25.5471231,14.6689944 25.5471231,14.4471173 C25.5471231,14.2486006 25.4800432,14.0606007 25.3607316,13.9079206 C25.4606115,13.8572909 25.575101,13.8284394 25.6966565,13.8284394 C25.8267105,13.8284394 25.9482183,13.8619909 26.0529681,13.9194611 C25.9213863,14.0757244 25.8463332,14.2737293 25.8463332,14.4842519 C25.8463332,14.693937 25.9207657,14.8920814 26.0530636,15.0489962 C25.9483138,15.106513 25.8267582,15.140111 25.6966565,15.140111 C25.557388,15.140111 25.4278115,15.101813 25.3183829,15.036618 Z M25.1709502,14.0491066 C25.2589419,14.16186 25.3084044,14.3005797 25.3084044,14.4471173 C25.3084044,14.6113845 25.2463376,14.7651349 25.1388187,14.8833329 C25.0471984,14.772627 24.9921021,14.6344657 24.9921021,14.4842519 C24.9921021,14.3172391 25.060137,14.1650244 25.1709502,14.0491066 Z M25.6966565,13.4733337 C25.10726,13.4733337 24.6277696,13.9268601 24.6277696,14.4842519 C24.6277696,15.0416902 25.10726,15.4951702 25.6966565,15.4951702 C26.2860053,15.4951702 26.7654957,15.0416902 26.7654957,14.4842519 C26.7654957,13.9268601 26.2860053,13.4733337 25.6966565,13.4733337 Z" id="Fill-1"></path>
        </g>
    </g>
</svg>