<?xml version="1.0" encoding="UTF-8"?>
<svg width="44px" height="53px" viewBox="0 0 44 53" version="1.1" xmlns="http://www.w3.org/2000/svg" xmlns:xlink="http://www.w3.org/1999/xlink">
    <!-- Generator: Sketch 49.2 (51160) - http://www.bohemiancoding.com/sketch -->
    <title>location-pin-unselected</title>
    <desc>Created with Sketch.</desc>
    <defs>
        <linearGradient x1="50%" y1="0%" x2="50%" y2="100%" id="linearGradient-1">
            <stop stop-color="#19A4EA" offset="0%"></stop>
            <stop stop-color="#0082C3" offset="100%"></stop>
        </linearGradient>
        <path d="M7.52,2.74985211e-16 C3.36,2.74985211e-16 0,3.37272727 0,7.54848485 L0,32.2015152 C0,36.3772727 3.36,39.75 7.52,39.75 L13.04,39.75 C13.36,39.75 15.2,39.9106061 15.36,40.1515152 L21.76,52.8393939 L28.16,40.1515152 C28.32,39.9106061 30.16,39.75 30.48,39.75 L36.08,39.75 C40.24,39.75 43.6,36.3772727 43.6,32.2015152 L43.6,7.54848485 C43.6,3.37272727 40.24,0 36.08,0 C31.5534722,4.35829201e-17 28.1585764,7.62701102e-17 25.8953125,9.80615702e-17 C21.8119097,1.37377935e-16 15.6868056,1.96352482e-16 7.52,2.74985211e-16 Z" id="path-2"></path>
        <filter x="-18.3%" y="-13.2%" width="136.7%" height="130.3%" filterUnits="objectBoundingBox" id="filter-3">
            <feOffset dx="0" dy="1" in="SourceAlpha" result="shadowOffsetOuter1"></feOffset>
            <feGaussianBlur stdDeviation="2.5" in="shadowOffsetOuter1" result="shadowBlurOuter1"></feGaussianBlur>
            <feComposite in="shadowBlurOuter1" in2="SourceAlpha" operator="out" result="shadowBlurOuter1"></feComposite>
            <feColorMatrix values="0 0 0 0 0   0 0 0 0 0   0 0 0 0 0  0 0 0 0.271993886 0" type="matrix" in="shadowBlurOuter1"></feColorMatrix>
        </filter>
    </defs>
    <g id="location-pin-unselected" stroke="none" stroke-width="1" fill="none" fill-rule="evenodd">
        <g id="location-pin">
            <g id="Path">
                <use fill="black" fill-opacity="1" filter="url(#filter-3)" xlink:href="#path-2"></use>
                <use fill="url(#linearGradient-1)" fill-rule="evenodd" xlink:href="#path-2"></use>
                <path stroke="#FFFFFF" stroke-width="1.6" d="M21.7603516,51.0637612 L27.493587,39.7089163 C27.8561269,39.1630466 29.4327868,38.95 30.48,38.95 L36.08,38.95 C39.7974937,38.95 42.8,35.9361206 42.8,32.2015152 L42.8,7.54848485 C42.8,3.81387942 39.7974937,0.8 36.08,0.8 C29.8560243,0.8 29.8560243,0.8 25.8953125,0.8 C18.7493576,0.8 18.7493576,0.8 7.52,0.8 C3.80250629,0.8 0.8,3.81387942 0.8,7.54848485 L0.8,32.2015152 C0.8,35.9361206 3.80250629,38.95 7.52,38.95 L13.04,38.95 C14.0872132,38.95 15.6638731,39.1630466 16.0742749,39.7912217 L21.7603516,51.0637612 Z M28.6049411,40.8017139 C28.6026515,40.8025804 28.6005695,40.8034023 28.5987008,40.8041765 C28.6031444,40.8023356 28.6075985,40.8004198 28.6120829,40.798383 Z"></path>
            </g>
        </g>
        <g id="pool" transform="translate(4.000000, 7.000000)">
            <ellipse id="Oval" fill="#FFFFFF" fill-rule="evenodd" cx="4.6628905" cy="22.7088823" rx="1.16572263" ry="1.13544412"></ellipse>
            <path d="M28.7303953,15.7650982 C26.1707006,12.4103266 24.4806495,10.7329407 23.6602418,10.7329407 C22.8398342,10.7329407 22.2982399,9.68352352 22.035459,7.58468907 C21.3658895,6.34834123 20.6548632,6.20853598 19.9023801,7.16527331 C19.149897,8.12201065 18.3464705,9.11441542 17.4921006,10.1424876 C16.7809794,12.922145 16.2538998,14.6187506 15.9108616,15.2323044 C15.3963043,16.152635 14.6685815,18.2014796 14.0410379,18.2014796 C13.6226756,18.2014796 11.6591236,18.5183284 8.15038197,19.152026 L8.85163698,20.9771637 L15.3641445,20.4745855 C17.4971285,18.0382965 18.7082923,16.6443097 18.9976359,16.2926251 C19.2869795,15.9409405 22.5312326,15.7650982 28.7303953,15.7650982 Z" id="Path-4" fill="#FFFFFF" fill-rule="evenodd"></path>
            <path d="M7.57719706,19.870272 L30.8916496,5.10949852" id="Line" stroke="#FFFFFF" stroke-width="0.832659018" stroke-linecap="square"></path>
            <path d="M13.0766326,12.1091857 C13.2436222,12.4331729 13.7388146,12.3467501 14.0240426,12.3168366 L15.0564781,12.2085972 C15.0564781,12.2085972 16.4879325,10.1643628 16.6363805,9.50542386 C16.7349222,9.06824918 16.7044817,8.60802091 16.5623875,8.15392152 C16.1518162,6.84335334 14.6905567,6.27269278 13.5105397,6.62321972 C12.3314469,6.97318438 11.5163115,8.3021392 11.921742,9.59561398 C12.0517062,10.0099038 13.0766326,12.1091857 13.0766326,12.1091857 Z" id="Path" fill="#FFFFFF" fill-rule="evenodd" transform="translate(14.255138, 9.435937) rotate(-38.000000) translate(-14.255138, -9.435937) "></path>
        </g>
    </g>
</svg>