<?xml version="1.0" encoding="UTF-8"?>
<svg width="44px" height="53px" viewBox="0 0 44 53" version="1.1" xmlns="http://www.w3.org/2000/svg" xmlns:xlink="http://www.w3.org/1999/xlink">
    <!-- Generator: Sketch 49.2 (51160) - http://www.bohemiancoding.com/sketch -->
    <title>location-pin-unselected</title>
    <desc>Created with Sketch.</desc>
    <defs>
        <linearGradient x1="50%" y1="0%" x2="50%" y2="100%" id="linearGradient-1">
            <stop stop-color="#19A4EA" offset="0%"></stop>
            <stop stop-color="#0082C3" offset="100%"></stop>
        </linearGradient>
        <path d="M7.52,2.74985211e-16 C3.36,2.74985211e-16 0,3.37272727 0,7.54848485 L0,32.2015152 C0,36.3772727 3.36,39.75 7.52,39.75 L13.04,39.75 C13.36,39.75 15.2,39.9106061 15.36,40.1515152 L21.76,52.8393939 L28.16,40.1515152 C28.32,39.9106061 30.16,39.75 30.48,39.75 L36.08,39.75 C40.24,39.75 43.6,36.3772727 43.6,32.2015152 L43.6,7.54848485 C43.6,3.37272727 40.24,0 36.08,0 C31.5534722,4.35829201e-17 28.1585764,7.62701102e-17 25.8953125,9.80615702e-17 C21.8119097,1.37377935e-16 15.6868056,1.96352482e-16 7.52,2.74985211e-16 Z" id="path-2"></path>
        <filter x="-18.3%" y="-13.2%" width="136.7%" height="130.3%" filterUnits="objectBoundingBox" id="filter-3">
            <feOffset dx="0" dy="1" in="SourceAlpha" result="shadowOffsetOuter1"></feOffset>
            <feGaussianBlur stdDeviation="2.5" in="shadowOffsetOuter1" result="shadowBlurOuter1"></feGaussianBlur>
            <feComposite in="shadowBlurOuter1" in2="SourceAlpha" operator="out" result="shadowBlurOuter1"></feComposite>
            <feColorMatrix values="0 0 0 0 0   0 0 0 0 0   0 0 0 0 0  0 0 0 0.271993886 0" type="matrix" in="shadowBlurOuter1"></feColorMatrix>
        </filter>
    </defs>
    <g id="location-pin-unselected" stroke="none" stroke-width="1" fill="none" fill-rule="evenodd">
        <g id="location-pin">
            <g id="Path">
                <use fill="black" fill-opacity="1" filter="url(#filter-3)" xlink:href="#path-2"></use>
                <use fill="url(#linearGradient-1)" fill-rule="evenodd" xlink:href="#path-2"></use>
                <path stroke="#FFFFFF" stroke-width="1.6" d="M21.7603516,51.0637612 L27.493587,39.7089163 C27.8561269,39.1630466 29.4327868,38.95 30.48,38.95 L36.08,38.95 C39.7974937,38.95 42.8,35.9361206 42.8,32.2015152 L42.8,7.54848485 C42.8,3.81387942 39.7974937,0.8 36.08,0.8 C29.8560243,0.8 29.8560243,0.8 25.8953125,0.8 C18.7493576,0.8 18.7493576,0.8 7.52,0.8 C3.80250629,0.8 0.8,3.81387942 0.8,7.54848485 L0.8,32.2015152 C0.8,35.9361206 3.80250629,38.95 7.52,38.95 L13.04,38.95 C14.0872132,38.95 15.6638731,39.1630466 16.0742749,39.7912217 L21.7603516,51.0637612 Z M28.6049411,40.8017139 C28.6026515,40.8025804 28.6005695,40.8034023 28.5987008,40.8041765 C28.6031444,40.8023356 28.6075985,40.8004198 28.6120829,40.798383 Z"></path>
            </g>
        </g>
        <g id="canoe" transform="translate(7.000000, 5.000000)" fill="#FFFFFF">
            <path d="M21.6432859,18.9708693 C21.585942,19.0293206 21.5838075,19.126418 21.6386064,19.1876735 L24.0747998,21.9120104 C24.1030408,21.9435584 24.1408459,21.9594638 24.1787742,21.9594638 C24.2144037,21.9594638 24.2501154,21.9453986 24.2779459,21.9170055 C24.3352898,21.8585543 24.3374243,21.7614568 24.2826254,21.7002013 L21.8463909,18.9758644 C21.791633,18.9146965 21.7006709,18.9122428 21.6432859,18.9708693 Z M10.8127952,6.97333216 C10.8410772,7.00483625 10.8788823,7.02078547 10.9168106,7.02078547 C10.9524402,7.02078547 10.9881519,7.00667654 11.0159824,6.97837106 C11.0733263,6.91987599 11.0754608,6.82277854 11.0207029,6.76152302 L8.58450948,4.03709846 C8.52966948,3.97588676 8.43874836,3.97356448 8.38136339,4.03205956 C8.32401946,4.09055463 8.32188497,4.18760826 8.37664288,4.24890759 L10.8127952,6.97333216 Z M8.26844059,19.9977974 L8.5293411,18.3974861 C8.6204264,17.8390882 8.70724273,15.7393121 8.70724273,15.7393121 C8.70724273,15.7393121 8.10589087,13.7017118 7.96838038,13.2709514 C7.73292957,12.5333438 7.71831652,12.2640474 8.48172552,11.6649001 C8.81347472,11.4045422 10.862299,9.78893894 12.0883179,8.82208326 L11.2283642,7.86044174 L11.0387229,8.04228037 C10.9015408,8.17364234 10.72955,8.23831555 10.5582982,8.23831555 C10.3638953,8.23831555 10.1703544,8.15502032 10.0291906,7.99140937 L6.92613293,4.84371707 L6.92075565,4.83731985 C6.78410717,4.6758121 6.71736327,4.4805218 6.72770734,4.27261234 L6.72774839,4.27243707 C6.73801036,4.06785767 6.82232277,3.87962183 6.9650053,3.74243225 L8.39022973,2.37601358 C8.53274807,2.23904309 8.71651956,2.16950625 8.90919844,2.18059183 C9.10093322,2.19145833 9.27735713,2.28141368 9.40583709,2.43398286 L9.4163864,2.44756599 L12.0294552,6.09183109 C12.142337,6.22976555 12.2011586,6.42343463 12.1910198,6.6249907 C12.1805526,6.83290016 12.0966506,7.02713887 11.9608642,7.15784359 L11.7107593,7.39773913 L12.6138543,8.40757883 C12.8610448,8.21263906 13.0124705,8.09315137 13.0124705,8.09315137 C13.0124705,8.09315137 13.2451301,8.58451 13.1880735,9.04971016 L19.719863,16.3540581 L20.1764389,16.2403542 C20.1764389,16.2403542 20.3295886,16.5886519 20.2339059,16.9289311 L21.319541,18.1429558 L21.5721088,17.900738 C21.8697062,17.6160182 22.3273493,17.6397229 22.597034,17.9520472 L25.7000917,21.0996957 L25.7057974,21.1063996 C25.8444572,21.2703611 25.9122273,21.4686309 25.901678,21.6797828 L25.901637,21.6799143 C25.8912108,21.8876485 25.8056259,22.0787762 25.6606857,22.2180689 L25.1842016,22.6749878 L24.6892459,22.5139182 L25.364484,21.8664851 C25.4222795,21.8109257 25.4551178,21.7376206 25.4593458,21.6545883 C25.4633274,21.5730457 25.4373441,21.4972869 25.3820115,21.4293275 L22.2798158,18.2825115 L22.273946,18.2755885 C22.1681655,18.1499665 21.986077,18.139582 21.8680232,18.2526286 L20.9463334,19.1364958 C20.8950236,19.1859209 20.862883,19.2643963 20.858532,19.3515474 C20.8543451,19.4339224 20.875731,19.5113463 20.9156296,19.5585367 L20.9271641,19.5733028 L22.5325067,21.8121526 L21.8048915,21.575368 L20.5802271,19.8674433 C20.4655803,19.7272742 20.4058556,19.5306255 20.4161587,19.3261338 C20.4267901,19.1150695 20.5120055,18.9178513 20.6500086,18.7850872 L20.837105,18.6056585 L19.7808602,17.4244523 C19.7600078,17.4339167 19.7388271,17.4432058 19.7162508,17.4518376 C19.5214374,17.5268077 19.2850425,17.6185595 19.0506589,17.7097856 L19.0545585,17.714693 C19.0545585,17.714693 17.4832445,18.3818874 17.1393041,18.5141695 C16.6922924,18.6861933 16.5919713,18.7123955 16.0735773,18.6019779 C15.6424511,18.5101384 13.5813124,17.947315 13.5813124,17.947315 L13.1137768,18.5384877 L12.5812622,20.2610034 C12.5812622,20.2610034 12.0671782,20.7383407 10.5073988,20.7383407 C9.0297151,20.7383407 8.26844059,19.9977974 8.26844059,19.9977974 Z M28.65197,24.3263016 L16.9340235,20.4906458 C16.9340235,20.4906458 16.8561967,20.4563813 16.7743061,20.4579149 L13.1900027,20.2896594 C13.0294233,20.5177683 12.7704521,20.7167392 12.4238846,20.8718059 C12.4119807,20.8771077 12.3997073,20.882059 12.3876803,20.8872731 C12.2928596,20.9281978 12.1932774,20.9653104 12.0895494,20.9984357 L12.0895083,20.9984795 C11.9860265,21.031561 11.8783989,21.0607866 11.7673233,21.0860249 C11.4304431,21.1625286 11.0618739,21.2025331 10.6793895,21.2025331 C10.5940099,21.2025331 10.5080966,21.2006052 10.4215676,21.1965302 C9.67523451,21.1620904 8.97602444,20.9817854 8.45299199,20.6887404 C8.11812315,20.5010742 7.87532477,20.2773469 7.73416101,20.0334641 L1.40531237,19.7363442 C0.686768727,19.7002393 1.0435161,20.1284145 1.91286976,20.9394148 C2.80787836,21.7742513 5.24210143,23.4300343 7.52075293,24.2893204 C9.79928129,25.1486941 13.3876895,26.124576 15.3524887,26.459422 C17.3172878,26.794487 19.4185303,27.0420505 21.1924157,27.0420505 C22.9660958,27.0420505 25.4657492,27.086831 28.2329119,26.459422 C31.110124,25.8071252 31.200922,25.1022924 28.65197,24.3263016 Z M8.37664288,4.24890759 L10.8127952,6.97333216 C10.8410772,7.00483625 10.8788823,7.02078547 10.9168106,7.02078547 C10.9524402,7.02078547 10.9881519,7.00667654 11.0159824,6.97837106 C11.0733263,6.91987599 11.0754608,6.82277854 11.0207029,6.76152302 L8.58450948,4.03709846 C8.52966948,3.97588676 8.43874836,3.97356448 8.38136339,4.03205956 C8.32401946,4.09055463 8.32188497,4.18760826 8.37664288,4.24890759 Z M10.3304823,7.67750771 L10.3360237,7.68408019 C10.4460321,7.8147411 10.6351399,7.82538852 10.75775,7.70800402 L11.6793986,6.82404922 C11.732843,6.77256479 11.7663381,6.69110985 11.7708534,6.6008916 C11.7752045,6.51536173 11.7527513,6.43478312 11.7108824,6.38527043 L11.7000047,6.37124914 L9.08800313,2.72856143 C9.03517447,2.66866423 8.96395635,2.63343573 8.88674524,2.62905408 C8.80666077,2.62419044 8.73059899,2.65324081 8.67153105,2.7099394 L7.24638871,4.07635807 C7.18719763,4.13323194 7.15218376,4.21144445 7.14787373,4.29640472 C7.1436458,4.38132116 7.17069637,4.4601033 7.22824554,4.5306041 L10.3304823,7.67750771 Z M12.2078905,10.3494401 C12.8401514,10.4301063 13.358997,10.8389584 13.6427201,11.1771344 C14.1413291,11.7933702 13.9092442,12.7788479 13.9092442,12.7788479 L13.6467839,12.7186878 C13.620349,12.8564032 13.5764277,12.9931108 13.5125572,13.1253491 C13.3874842,13.3846991 12.9465065,14.2984054 12.7204147,14.7670232 C12.62387,14.9668266 12.4092715,14.8641645 12.1432811,14.7765752 C11.8431798,14.6777251 11.5740287,14.5892595 11.5740287,14.5892595 C11.5740287,14.5892595 11.3208041,14.125111 11.0828904,13.6239374 L10.8308973,13.6239374 C10.8308973,13.6239374 10.4647089,12.8164863 10.2598388,12.4162222 C9.97627987,12.7169351 9.78979923,12.9146353 9.78979923,12.9146353 L10.4611788,14.7100179 L13.9239804,15.8427192 L16.4418181,17.1704917 L18.9869115,16.5365978 L12.8469243,9.67041521 C12.6959091,9.83113426 12.4700635,10.0710736 12.2078905,10.3494401 Z" id="Fill-1"></path>
        </g>
    </g>
</svg>