<?xml version="1.0" encoding="UTF-8"?>
<svg width="44px" height="53px" viewBox="0 0 44 53" version="1.1" xmlns="http://www.w3.org/2000/svg" xmlns:xlink="http://www.w3.org/1999/xlink">
    <!-- Generator: Sketch 49.2 (51160) - http://www.bohemiancoding.com/sketch -->
    <title>location-pin-unselected</title>
    <desc>Created with Sketch.</desc>
    <defs>
        <linearGradient x1="50%" y1="0%" x2="50%" y2="100%" id="linearGradient-1">
            <stop stop-color="#19A4EA" offset="0%"></stop>
            <stop stop-color="#0082C3" offset="100%"></stop>
        </linearGradient>
        <path d="M7.52,2.74985211e-16 C3.36,2.74985211e-16 0,3.37272727 0,7.54848485 L0,32.2015152 C0,36.3772727 3.36,39.75 7.52,39.75 L13.04,39.75 C13.36,39.75 15.2,39.9106061 15.36,40.1515152 L21.76,52.8393939 L28.16,40.1515152 C28.32,39.9106061 30.16,39.75 30.48,39.75 L36.08,39.75 C40.24,39.75 43.6,36.3772727 43.6,32.2015152 L43.6,7.54848485 C43.6,3.37272727 40.24,0 36.08,0 C31.5534722,4.35829201e-17 28.1585764,7.62701102e-17 25.8953125,9.80615702e-17 C21.8119097,1.37377935e-16 15.6868056,1.96352482e-16 7.52,2.74985211e-16 Z" id="path-2"></path>
        <filter x="-18.3%" y="-13.2%" width="136.7%" height="130.3%" filterUnits="objectBoundingBox" id="filter-3">
            <feOffset dx="0" dy="1" in="SourceAlpha" result="shadowOffsetOuter1"></feOffset>
            <feGaussianBlur stdDeviation="2.5" in="shadowOffsetOuter1" result="shadowBlurOuter1"></feGaussianBlur>
            <feComposite in="shadowBlurOuter1" in2="SourceAlpha" operator="out" result="shadowBlurOuter1"></feComposite>
            <feColorMatrix values="0 0 0 0 0   0 0 0 0 0   0 0 0 0 0  0 0 0 0.271993886 0" type="matrix" in="shadowBlurOuter1"></feColorMatrix>
        </filter>
    </defs>
    <g id="location-pin-unselected" stroke="none" stroke-width="1" fill="none" fill-rule="evenodd">
        <g id="location-pin">
            <g id="Path">
                <use fill="black" fill-opacity="1" filter="url(#filter-3)" xlink:href="#path-2"></use>
                <use fill="url(#linearGradient-1)" fill-rule="evenodd" xlink:href="#path-2"></use>
                <path stroke="#FFFFFF" stroke-width="1.6" d="M21.7603516,51.0637612 L27.493587,39.7089163 C27.8561269,39.1630466 29.4327868,38.95 30.48,38.95 L36.08,38.95 C39.7974937,38.95 42.8,35.9361206 42.8,32.2015152 L42.8,7.54848485 C42.8,3.81387942 39.7974937,0.8 36.08,0.8 C29.8560243,0.8 29.8560243,0.8 25.8953125,0.8 C18.7493576,0.8 18.7493576,0.8 7.52,0.8 C3.80250629,0.8 0.8,3.81387942 0.8,7.54848485 L0.8,32.2015152 C0.8,35.9361206 3.80250629,38.95 7.52,38.95 L13.04,38.95 C14.0872132,38.95 15.6638731,39.1630466 16.0742749,39.7912217 L21.7603516,51.0637612 Z M28.6049411,40.8017139 C28.6026515,40.8025804 28.6005695,40.8034023 28.5987008,40.8041765 C28.6031444,40.8023356 28.6075985,40.8004198 28.6120829,40.798383 Z"></path>
            </g>
        </g>
        <g id="paddleboard" transform="translate(6.000000, 5.000000)" fill="#FFFFFF">
            <path d="M26.8355491,27.3431638 L25.2877768,23.1930609 C25.2464465,23.083247 25.1247188,23.0280926 25.0154393,23.0694337 C24.9063076,23.1110718 24.851348,23.2337584 24.892826,23.3435723 L26.3564615,27.2786518 C25.9635772,27.2229032 25.5895868,27.1799283 25.2353758,27.1487368 L24.0344832,22.5955705 L24.0272504,22.571558 C24.0189844,22.5468523 24.0209525,22.499768 24.0450126,22.4502082 C24.0682856,22.4022822 24.1055813,22.3654961 24.1442547,22.3520293 L25.2740492,21.9602047 C25.3684694,21.9274288 25.4736158,21.9809495 25.5053024,22.0734347 L25.5092878,22.0851192 L27.8677745,27.4264401 C27.5456438,27.4135674 27.2015195,27.3870794 26.8355491,27.3431638 Z M23.4384406,22.7618261 L23.7572747,23.978245 C21.1523804,23.6703898 18.0640194,23.4043709 14.9456447,23.2414325 L15.4037719,19.3308605 C15.4242403,19.1561882 15.415433,18.9792878 15.3777436,18.807586 L14.3302654,14.0389509 L15.0419838,11.7336022 L16.2640828,9.74363428 C16.2640828,9.74363428 17.4166582,11.3288059 17.6889957,11.7022622 C17.9266452,12.0281886 18.0119136,12.0791347 18.4097182,12.1351804 C19.0315923,12.2227146 20.325183,12.4037243 20.9604895,12.4515513 C21.0189916,12.4559082 21.0737051,12.4491748 21.1248268,12.4444713 L24.2109245,21.6706188 L23.941982,21.7638468 C23.7489594,21.8310818 23.5839333,21.9818407 23.4892179,22.1773074 C23.3976515,22.3659912 23.3793972,22.5780933 23.4384406,22.7618261 Z M12.5275734,23.1368172 C12.8759784,21.5890258 13.2650741,19.8897329 13.453816,19.0313727 L13.6151027,19.249317 C13.6151027,19.249317 13.6623374,21.4590613 13.672916,23.1808814 C13.2903643,23.1644935 12.9083046,23.1497394 12.5275734,23.1368172 Z M14.9153358,4.73467605 C15.145162,5.16690107 15.4075605,5.57818323 15.4075605,5.57818323 L16.1564271,5.99872382 C16.1564271,5.99872382 16.6378272,6.21280641 16.7407102,5.96520534 C16.9334868,5.500254 17.3628796,4.61694053 17.4795886,4.36404186 C17.8437385,3.57469896 17.4586774,2.65677778 16.7623103,2.33159406 C16.7403166,2.32134542 16.7173389,2.31322573 16.6948532,2.30416534 C17.0401092,1.90298329 17.3441825,1.54591492 17.4386519,1.42392151 L20.7908874,11.4460959 L18.7174817,10.8367229 L17.7682122,8.40007295 C17.5032551,7.52096786 17.285336,6.96288763 16.4303882,6.55814083 L14.472363,5.59070934 L14.9153358,4.73467605 Z M31.6995897,27.0008495 C31.6360197,26.8810345 31.4878209,26.8356831 31.3685533,26.8993533 C31.3561542,26.9059877 30.3985695,27.4012889 28.5272888,27.4337676 L28.0073137,26.2463123 L27.9928972,26.213388 L31.2938635,26.213388 C31.2938635,26.213388 31.4080632,25.6311467 30.2670012,25.1640664 C29.7156839,24.9384479 28.6478848,24.6965406 27.2252352,24.4602278 L26.0856985,21.8577183 C25.9707608,21.5402087 25.6701809,21.327859 25.3327974,21.327859 C25.2445276,21.327859 25.1571926,21.3425635 25.072859,21.3716261 L24.724208,21.4925302 L21.6347154,12.255639 C21.8836323,12.0378926 21.8313789,11.7166697 21.8313789,11.7166697 L21.4184199,11.6092818 L17.8119043,0.826381562 C18.0077314,0.253200685 17.4977936,5.44613428e-05 17.4977936,5.44613428e-05 L14.3484704,2.97542615 L12.1093496,5.73622015 L11.7336371,9.16921564 C11.5338737,10.9195537 9.82407665,12.640037 10.4700109,14.5431144 C10.9497382,15.9566833 11.6770539,18.3580324 11.6770539,18.3580324 L11.115158,23.097209 C10.5215263,23.0840887 9.93350367,23.075672 9.35497721,23.0726518 C4.30741017,23.0464609 2.85582934,23.8824425 1.86611513,24.8653212 C1.34107211,25.3866648 1.07680391,26.213388 1.07680391,26.213388 L24.3430832,26.213388 L24.3529237,26.2508673 L24.5760092,27.101999 C21.5572702,26.9422293 20.1319636,27.6272044 20.0621449,27.6618616 C19.94086,27.7221157 19.8910667,27.8699535 19.9509465,27.9919469 C19.9936054,28.0789365 20.0804483,28.1293875 20.1707354,28.1293875 C20.2070963,28.1293875 20.2440968,28.1211688 20.2789324,28.1038897 C20.2979246,28.0944332 22.2228364,27.1693331 26.3889353,27.7808349 C29.799427,28.2813842 31.5279704,27.3727214 31.5999049,27.3338063 C31.7187788,27.2694924 31.7631597,27.1206644 31.6995897,27.0008495 Z" id="Fill-1"></path>
        </g>
    </g>
</svg>