<?xml version="1.0" encoding="UTF-8"?>
<svg width="44px" height="53px" viewBox="0 0 44 53" version="1.1" xmlns="http://www.w3.org/2000/svg" xmlns:xlink="http://www.w3.org/1999/xlink">
    <!-- Generator: Sketch 49.2 (51160) - http://www.bohemiancoding.com/sketch -->
    <title>location-pin-unselected</title>
    <desc>Created with Sketch.</desc>
    <defs>
        <linearGradient x1="50%" y1="0%" x2="50%" y2="100%" id="linearGradient-1">
            <stop stop-color="#19A4EA" offset="0%"></stop>
            <stop stop-color="#0082C3" offset="100%"></stop>
        </linearGradient>
        <path d="M7.52,2.74985211e-16 C3.36,2.74985211e-16 0,3.37272727 0,7.54848485 L0,32.2015152 C0,36.3772727 3.36,39.75 7.52,39.75 L13.04,39.75 C13.36,39.75 15.2,39.9106061 15.36,40.1515152 L21.76,52.8393939 L28.16,40.1515152 C28.32,39.9106061 30.16,39.75 30.48,39.75 L36.08,39.75 C40.24,39.75 43.6,36.3772727 43.6,32.2015152 L43.6,7.54848485 C43.6,3.37272727 40.24,0 36.08,0 C31.5534722,4.35829201e-17 28.1585764,7.62701102e-17 25.8953125,9.80615702e-17 C21.8119097,1.37377935e-16 15.6868056,1.96352482e-16 7.52,2.74985211e-16 Z" id="path-2"></path>
        <filter x="-18.3%" y="-13.2%" width="136.7%" height="130.3%" filterUnits="objectBoundingBox" id="filter-3">
            <feOffset dx="0" dy="1" in="SourceAlpha" result="shadowOffsetOuter1"></feOffset>
            <feGaussianBlur stdDeviation="2.5" in="shadowOffsetOuter1" result="shadowBlurOuter1"></feGaussianBlur>
            <feComposite in="shadowBlurOuter1" in2="SourceAlpha" operator="out" result="shadowBlurOuter1"></feComposite>
            <feColorMatrix values="0 0 0 0 0   0 0 0 0 0   0 0 0 0 0  0 0 0 0.271993886 0" type="matrix" in="shadowBlurOuter1"></feColorMatrix>
        </filter>
    </defs>
    <g id="location-pin-unselected" stroke="none" stroke-width="1" fill="none" fill-rule="evenodd">
        <g id="location-pin">
            <g id="Path">
                <use fill="black" fill-opacity="1" filter="url(#filter-3)" xlink:href="#path-2"></use>
                <use fill="url(#linearGradient-1)" fill-rule="evenodd" xlink:href="#path-2"></use>
                <path stroke="#FFFFFF" stroke-width="1.6" d="M21.7603516,51.0637612 L27.493587,39.7089163 C27.8561269,39.1630466 29.4327868,38.95 30.48,38.95 L36.08,38.95 C39.7974937,38.95 42.8,35.9361206 42.8,32.2015152 L42.8,7.54848485 C42.8,3.81387942 39.7974937,0.8 36.08,0.8 C29.8560243,0.8 29.8560243,0.8 25.8953125,0.8 C18.7493576,0.8 18.7493576,0.8 7.52,0.8 C3.80250629,0.8 0.8,3.81387942 0.8,7.54848485 L0.8,32.2015152 C0.8,35.9361206 3.80250629,38.95 7.52,38.95 L13.04,38.95 C14.0872132,38.95 15.6638731,39.1630466 16.0742749,39.7912217 L21.7603516,51.0637612 Z M28.6049411,40.8017139 C28.6026515,40.8025804 28.6005695,40.8034023 28.5987008,40.8041765 C28.6031444,40.8023356 28.6075985,40.8004198 28.6120829,40.798383 Z"></path>
            </g>
        </g>
        <g id="surf" transform="translate(6.000000, 7.000000)" fill="#FFFFFF">
            <path d="M13.6539121,1.95817688 C13.8983751,1.10477643 13.3127273,0.254463508 12.5027858,0.0515873947 C11.6922026,-0.151331601 10.7123334,0.253048392 10.4646615,1.11832724 C10.378758,1.41786003 10.3691316,1.71932253 10.4465549,2.00273158 C10.5633085,2.42975343 11.6517261,3.53633092 11.6517261,3.53633092 L12.4977434,3.67732788 C12.4977434,3.67732788 13.1309271,3.81498004 13.2016577,3.53705991 C13.3283128,3.03932518 13.5757096,2.23159436 13.6539121,1.95817688 Z M9.59260729,6.10845354 L7.58207852,5.93040628 C7.58207852,5.93040628 5.67102188,6.52724199 4.60433232,6.86082332 C3.53768859,7.19436177 3.15181009,6.66193526 3.15181009,6.66193526 L7.38968935,4.68973587 L8.53128097,4.1828672 C9.64041809,3.75490195 9.88456027,3.69855462 10.7581272,3.81553751 C11.3119165,3.88968098 13.8893906,4.27454954 13.8893906,4.27454954 C14.6789334,4.59119236 17.0493037,6.12466305 17.6289007,6.50219873 C17.9099897,6.68526323 18.0456752,6.80160288 18.2408147,7.21374457 C18.373979,7.49475221 19.7942301,10.5011009 20.4175124,11.8220898 C19.5885016,11.9822552 19.1449109,11.5202843 18.8197242,11.0137158 C18.4945832,10.5071044 16.6751143,7.76756934 16.6751143,7.76756934 L15.7371884,7.23818747 L15.8602222,7.78532261 L16.0564619,8.65836315 C16.6364256,9.57655874 17.1540932,10.2528124 17.2183146,10.9510219 C17.2926666,11.7596961 16.933421,12.2698667 16.8063075,12.4707702 C16.6900122,12.6546066 14.7165677,15.1997563 14.7165677,15.1997563 L15.9671661,18.6378439 C20.4641313,20.6914767 24.7628857,23.0967015 27.2081122,24.5211225 C27.3303667,24.59235 27.4162244,24.6423508 27.4623392,24.6685518 L28.1064326,25.0341234 L27.3712557,25.1879421 C26.2071109,25.4315135 24.9942386,25.553385 23.7436861,25.553385 C22.8196954,25.553385 21.875077,25.4868317 20.9147813,25.3535106 C19.1129148,25.103464 17.2515484,24.6191943 15.3824351,23.9142952 C12.2576351,22.7357613 10.2024585,21.3603118 10.0504083,21.2571799 C5.91465983,18.7167902 3.69391025,16.741589 3.62794694,15.5450445 C3.6065398,15.1560592 3.81488119,14.9766397 3.85687035,14.9446067 L3.94868724,14.8745799 L4.06695364,14.8813124 C5.66299994,14.972523 7.56282586,15.4221438 9.59292817,16.0896496 C9.77940402,15.02574 10.0114904,13.7020494 10.0346853,13.571773 C10.0905638,13.2583464 10.2364716,12.9169605 10.4524223,12.6739465 C10.5918208,12.5170831 12.4859168,10.4538875 12.4859168,10.4538875 L12.4839457,9.55614677 L9.59260729,6.10845354 Z M13.4087614,12.8612135 L12.0480102,13.7729767 L10.9354351,16.5548795 C11.8683645,16.8942071 12.7851583,17.2576345 13.7399532,17.6602134 C13.7399532,17.6602134 12.853872,15.7808971 12.6990255,15.4516469 C12.6061543,15.254131 12.5133748,14.9517251 12.6166516,14.69932 C12.6887116,14.5231595 13.4087614,12.8612135 13.4087614,12.8612135 Z M9.35566194,17.4434006 C9.35566194,17.4434006 9.41286987,17.1168091 9.49414364,16.6532515 C7.42897396,15.9686357 5.67083852,15.5693159 4.23408515,15.4612096 C4.23156396,15.4941861 4.23298499,15.5367682 4.24274885,15.5904997 C4.28354617,15.8149885 4.4919334,16.3242157 5.42908,17.2129512 C6.47647106,18.2061907 8.14531079,19.4085673 10.3893011,20.7865897 L10.4015403,20.7945658 C10.4222598,20.808674 12.5105785,22.2214311 15.6241936,23.3937042 C17.4473297,24.0801639 19.2604728,24.5511401 21.013245,24.7936395 C22.9188467,25.0572369 24.7576141,25.0497754 26.4905377,24.7722841 C23.3011497,22.9265446 20.2132507,21.2867687 17.3064185,19.895367 C16.9463936,19.723066 16.5916402,19.5557393 16.2419292,19.3933012 L16.9310831,21.2878836 C16.9310831,21.2878836 15.6203889,21.4985643 15.1292625,20.2366672 L14.1977541,18.4744195 C12.9658125,17.9401919 11.8079019,17.4760769 10.7247559,17.0817313 L10.0875384,18.6750228 C10.0875384,18.6750228 9.18578005,18.4179435 9.35566194,17.4434006 Z" id="Page-1"></path>
        </g>
    </g>
</svg>