<?xml version="1.0" encoding="UTF-8"?>
<svg width="44px" height="53px" viewBox="0 0 44 53" version="1.1" xmlns="http://www.w3.org/2000/svg" xmlns:xlink="http://www.w3.org/1999/xlink">
    <!-- Generator: Sketch 49.2 (51160) - http://www.bohemiancoding.com/sketch -->
    <title>location-pin-unselected</title>
    <desc>Created with Sketch.</desc>
    <defs>
        <linearGradient x1="50%" y1="0%" x2="50%" y2="100%" id="linearGradient-1">
            <stop stop-color="#19A4EA" offset="0%"></stop>
            <stop stop-color="#0082C3" offset="100%"></stop>
        </linearGradient>
        <path d="M7.52,2.74985211e-16 C3.36,2.74985211e-16 0,3.37272727 0,7.54848485 L0,32.2015152 C0,36.3772727 3.36,39.75 7.52,39.75 L13.04,39.75 C13.36,39.75 15.2,39.9106061 15.36,40.1515152 L21.76,52.8393939 L28.16,40.1515152 C28.32,39.9106061 30.16,39.75 30.48,39.75 L36.08,39.75 C40.24,39.75 43.6,36.3772727 43.6,32.2015152 L43.6,7.54848485 C43.6,3.37272727 40.24,0 36.08,0 C31.5534722,4.35829201e-17 28.1585764,7.62701102e-17 25.8953125,9.80615702e-17 C21.8119097,1.37377935e-16 15.6868056,1.96352482e-16 7.52,2.74985211e-16 Z" id="path-2"></path>
        <filter x="-18.3%" y="-13.2%" width="136.7%" height="130.3%" filterUnits="objectBoundingBox" id="filter-3">
            <feOffset dx="0" dy="1" in="SourceAlpha" result="shadowOffsetOuter1"></feOffset>
            <feGaussianBlur stdDeviation="2.5" in="shadowOffsetOuter1" result="shadowBlurOuter1"></feGaussianBlur>
            <feComposite in="shadowBlurOuter1" in2="SourceAlpha" operator="out" result="shadowBlurOuter1"></feComposite>
            <feColorMatrix values="0 0 0 0 0   0 0 0 0 0   0 0 0 0 0  0 0 0 0.271993886 0" type="matrix" in="shadowBlurOuter1"></feColorMatrix>
        </filter>
    </defs>
    <g id="location-pin-unselected" stroke="none" stroke-width="1" fill="none" fill-rule="evenodd">
        <g id="location-pin">
            <g id="Path">
                <use fill="black" fill-opacity="1" filter="url(#filter-3)" xlink:href="#path-2"></use>
                <use fill="url(#linearGradient-1)" fill-rule="evenodd" xlink:href="#path-2"></use>
                <path stroke="#FFFFFF" stroke-width="1.6" d="M21.7603516,51.0637612 L27.493587,39.7089163 C27.8561269,39.1630466 29.4327868,38.95 30.48,38.95 L36.08,38.95 C39.7974937,38.95 42.8,35.9361206 42.8,32.2015152 L42.8,7.54848485 C42.8,3.81387942 39.7974937,0.8 36.08,0.8 C29.8560243,0.8 29.8560243,0.8 25.8953125,0.8 C18.7493576,0.8 18.7493576,0.8 7.52,0.8 C3.80250629,0.8 0.8,3.81387942 0.8,7.54848485 L0.8,32.2015152 C0.8,35.9361206 3.80250629,38.95 7.52,38.95 L13.04,38.95 C14.0872132,38.95 15.6638731,39.1630466 16.0742749,39.7912217 L21.7603516,51.0637612 Z M28.6049411,40.8017139 C28.6026515,40.8025804 28.6005695,40.8034023 28.5987008,40.8041765 C28.6031444,40.8023356 28.6075985,40.8004198 28.6120829,40.798383 Z"></path>
            </g>
        </g>
        <g id="planche-a-voile" transform="translate(5.000000, 7.000000)" fill="#FFFFFF">
            <path d="M27.8059157,25.3135973 L27.8059157,25.795079 C21.9234418,25.795079 18.9333036,25.2212732 16.0415888,24.6663255 C13.1766643,24.1165938 10.2143366,23.5481646 4.38770544,23.5481646 L4.38770544,23.0666829 C7.65869859,23.0666829 10.035143,23.2441089 11.9978897,23.4970473 C11.9742929,23.356896 11.9696357,23.1978466 11.9890187,23.0164082 C12.0881518,22.0895159 13.1754224,21.0059816 14.1951405,20.3881202 C12.6637004,19.4561723 9.14707011,17.1788042 7.4171864,14.936183 L7.34599686,14.843899 L7.36498074,14.7326768 C7.64548084,13.0862903 13.9923058,3.02400575 14.5176447,2.22807644 C14.8678263,1.69748365 15.7042258,1.17956988 17.0035125,0.688659206 C17.9428597,0.333767099 18.7745576,0.125566405 18.8095092,0.116899735 L19.2796263,-2.00617358e-05 L17.3854966,10.0728973 L19.2024488,10.6910796 L21.0078689,10.6910796 C21.3753488,10.6910796 21.3835988,10.6918018 21.7114699,11.0690828 C21.9229539,11.3123915 22.1288048,11.655046 22.0920789,12.0426788 C22.0197805,12.8057069 21.4170868,14.979396 21.4170868,14.979396 C21.4170868,14.979396 21.3829335,15.4007727 21.3552117,15.8868685 C21.2776794,17.2457703 20.3076388,17.6490513 20.3076388,17.6490513 L18.4372832,19.8883021 L18.3867631,21.6252071 C18.7677269,22.0783215 19.0370052,22.5658618 19.085219,23.0164082 C19.1390657,23.5199177 19.0102593,23.8539857 18.793364,24.0771524 C17.7299564,23.9349147 15.9646775,23.6036955 15.4486974,22.9321088 C15.1622538,23.2931398 14.4326608,23.5563498 13.664346,23.7421215 C14.5407979,23.886245 15.350274,24.0415228 16.1520324,24.1953562 C19.0169125,24.7450879 21.9792845,25.3135973 27.8059157,25.3135973 Z M20.0257637,10.2866751 C20.0559693,10.4391443 20.2458081,10.4178789 20.4721953,10.4176381 C20.7276792,10.4174375 20.9568608,10.4172369 20.9568608,10.4172369 C20.9568608,10.4172369 22.0082039,9.53969644 22.121708,9.24382596 C22.1971112,9.04754193 22.2099741,8.83372395 22.167083,8.61677634 C22.0426233,7.99064957 21.3525504,7.64972043 20.7456873,7.74810318 C20.1393564,7.84652606 19.6545135,8.41563738 19.7769773,9.03365921 C19.81632,9.23154818 19.9547072,9.92893424 20.0257637,10.2866751 Z M16.1248872,13.4268985 C16.1248872,13.4268985 14.8846811,13.3655096 14.8388182,13.3568429 L8.19202137,14.9418805 C10.0374051,17.1123597 14.8252012,20.0636016 14.8252012,20.0636016 L16.1248872,13.4268985 Z M16.2408308,20.0427374 C16.491968,20.1393146 16.7589399,20.2772591 17.0250246,20.4456974 C17.0220085,20.1890275 17.0201456,20.0069472 17.0201456,19.957154 C17.0201456,19.6327959 17.023073,19.6248514 17.1417223,19.3802587 C17.275053,19.1053327 17.5697023,18.4712615 17.5697023,18.4712615 L16.3647139,19.4304933 L16.2408308,20.0427374 Z M14.0306727,12.649426 L17.5193151,12.4146234 L18.7985092,11.8008948 L17.212557,10.9924871 L17.0217424,12.0071696 L16.3864478,12.035898 L18.5017308,0.787122205 C17.4107788,1.10473961 15.5396249,1.77544356 15.05079,2.5160426 C14.0410518,4.04595057 9.05192895,12.077506 8.12096489,14.377905 L14.1889308,12.9308921 C14.0777776,12.7803489 14.0306727,12.649426 14.0306727,12.649426 Z M18.4233558,13.328275 C17.9439685,13.4931825 17.8864846,13.5071454 17.3753393,13.4839139 C17.193307,13.4756886 16.7494036,13.4554664 16.7494036,13.4554664 L15.9284839,17.8209804 L18.1721743,15.5717789 L18.5401421,14.3052013 L18.6694809,13.243454 C18.6694809,13.243454 18.4669566,13.3133089 18.4233558,13.328275 Z" id="Fill-1"></path>
        </g>
    </g>
</svg>