<?xml version="1.0" encoding="UTF-8"?>
<svg width="44px" height="53px" viewBox="0 0 44 53" version="1.1" xmlns="http://www.w3.org/2000/svg" xmlns:xlink="http://www.w3.org/1999/xlink">
    <!-- Generator: Sketch 49.2 (51160) - http://www.bohemiancoding.com/sketch -->
    <title>location-pin-unselected</title>
    <desc>Created with Sketch.</desc>
    <defs>
        <linearGradient x1="50%" y1="0%" x2="50%" y2="100%" id="linearGradient-1">
            <stop stop-color="#19A4EA" offset="0%"></stop>
            <stop stop-color="#0082C3" offset="100%"></stop>
        </linearGradient>
        <path d="M7.52,2.74985211e-16 C3.36,2.74985211e-16 0,3.37272727 0,7.54848485 L0,32.2015152 C0,36.3772727 3.36,39.75 7.52,39.75 L13.04,39.75 C13.36,39.75 15.2,39.9106061 15.36,40.1515152 L21.76,52.8393939 L28.16,40.1515152 C28.32,39.9106061 30.16,39.75 30.48,39.75 L36.08,39.75 C40.24,39.75 43.6,36.3772727 43.6,32.2015152 L43.6,7.54848485 C43.6,3.37272727 40.24,0 36.08,0 C31.5534722,4.35829201e-17 28.1585764,7.62701102e-17 25.8953125,9.80615702e-17 C21.8119097,1.37377935e-16 15.6868056,1.96352482e-16 7.52,2.74985211e-16 Z" id="path-2"></path>
        <filter x="-18.3%" y="-13.2%" width="136.7%" height="130.3%" filterUnits="objectBoundingBox" id="filter-3">
            <feOffset dx="0" dy="1" in="SourceAlpha" result="shadowOffsetOuter1"></feOffset>
            <feGaussianBlur stdDeviation="2.5" in="shadowOffsetOuter1" result="shadowBlurOuter1"></feGaussianBlur>
            <feComposite in="shadowBlurOuter1" in2="SourceAlpha" operator="out" result="shadowBlurOuter1"></feComposite>
            <feColorMatrix values="0 0 0 0 0   0 0 0 0 0   0 0 0 0 0  0 0 0 0.271993886 0" type="matrix" in="shadowBlurOuter1"></feColorMatrix>
        </filter>
    </defs>
    <g id="location-pin-unselected" stroke="none" stroke-width="1" fill="none" fill-rule="evenodd">
        <g id="location-pin">
            <g id="Path">
                <use fill="black" fill-opacity="1" filter="url(#filter-3)" xlink:href="#path-2"></use>
                <use fill="url(#linearGradient-1)" fill-rule="evenodd" xlink:href="#path-2"></use>
                <path stroke="#FFFFFF" stroke-width="1.6" d="M21.7603516,51.0637612 L27.493587,39.7089163 C27.8561269,39.1630466 29.4327868,38.95 30.48,38.95 L36.08,38.95 C39.7974937,38.95 42.8,35.9361206 42.8,32.2015152 L42.8,7.54848485 C42.8,3.81387942 39.7974937,0.8 36.08,0.8 C29.8560243,0.8 29.8560243,0.8 25.8953125,0.8 C18.7493576,0.8 18.7493576,0.8 7.52,0.8 C3.80250629,0.8 0.8,3.81387942 0.8,7.54848485 L0.8,32.2015152 C0.8,35.9361206 3.80250629,38.95 7.52,38.95 L13.04,38.95 C14.0872132,38.95 15.6638731,39.1630466 16.0742749,39.7912217 L21.7603516,51.0637612 Z M28.6049411,40.8017139 C28.6026515,40.8025804 28.6005695,40.8034023 28.5987008,40.8041765 C28.6031444,40.8023356 28.6075985,40.8004198 28.6120829,40.798383 Z"></path>
            </g>
        </g>
        <g id="landkite" transform="translate(7.000000, 4.000000)" fill="#FFFFFF">
            <path d="M14.1550172,13.7289439 L12.6159809,13.4303738 C12.6768749,13.5993506 12.6977026,13.8191093 12.6197868,14.096524 C12.5218797,14.4453437 12.1952438,15.5820569 12.1952438,15.5820569 L13.9840875,16.3611245 L14.1550172,13.7289439 Z M11.9155749,23.6917934 L10.3506503,24.0618572 L10.7231657,28.3473944 L13.2866928,27.1913886 L11.9155749,23.6917934 Z M26.0559808,8.85939425 C25.1525671,9.02939118 23.9568121,9.2458235 23.2208567,9.34845144 C21.5542609,9.58089443 20.8677819,9.47569413 20.5289337,8.23245015 C20.4613063,7.98439566 20.3860253,7.70285624 20.3015015,7.39821002 L15.0192849,13.490824 L15.9828398,13.677763 C16.0850547,13.6975878 16.1528076,13.8015907 16.1341128,13.9099842 C16.1174673,14.00627 16.0382968,14.0736833 15.9491725,14.0736833 C15.9379222,14.0736833 15.9265464,14.0726189 15.9150869,14.0704014 L14.6438,13.8237661 C14.7359356,13.9331354 14.8068252,14.0704014 14.8141442,14.2376485 C14.8372303,14.764537 14.887585,16.2066504 14.9025575,17.0102441 C14.9113403,17.4815166 14.7284911,18.038608 14.117795,17.8828033 C13.6691202,17.7683781 13.3873184,17.6964853 13.2690435,17.6663267 C13.5466213,18.3239616 14.4468566,20.4553764 14.591187,20.777763 C15.0197868,21.7350768 15.1631134,22.7404226 14.0408411,23.0387267 C13.7730498,23.1099098 13.4619302,23.1992325 13.4619302,23.1992325 C13.4619302,23.1992325 13.926874,25.4018748 13.9923266,25.7138389 C14.0578211,26.0258474 14.1773506,26.5000471 14.1039934,26.8227884 L15.1441259,26.3537335 C15.1312445,26.3273447 15.1188649,26.3004237 15.1076982,26.2725714 C14.8701867,25.6803097 15.1304498,24.9959312 15.6889512,24.7440625 C16.2474943,24.4922382 16.8928198,24.7681894 17.1303313,25.3604954 C17.270814,25.7108231 17.2371049,26.0933495 17.0705248,26.399548 C17.0924817,26.4400847 17.1126821,26.4820849 17.1303313,26.5261697 C17.3678429,27.1184314 17.1076216,27.8027656 16.5490784,28.0546342 C15.990577,28.3065029 15.3452098,28.0305517 15.1076982,27.4382457 C15.0965734,27.4103933 15.0868287,27.3823635 15.0778786,27.354112 L9.0142871,30.0885658 C9.24627804,30.6790535 8.98609855,31.3583759 8.43002292,31.6091358 C7.87152158,31.8610045 7.22619615,31.585009 6.9886846,30.9927473 C6.8482019,30.6423753 6.88191106,30.2598045 7.04849117,29.953606 C7.02649239,29.913158 7.00633381,29.8711134 6.9886846,29.827073 C6.75117306,29.2347669 7.01139437,28.5504328 7.56993754,28.2985641 C8.12843889,28.0466954 8.77380614,28.3226466 9.01127586,28.9149527 C9.03494755,28.9739394 9.05347504,29.0338574 9.06744385,29.0940859 L9.62749264,28.8415076 C9.62749264,28.8415076 8.89174637,24.8100566 8.8055078,24.2986909 C8.65122358,23.3838652 8.75979551,23.0193897 9.42164094,22.606483 C9.97391069,22.2620096 10.9951392,21.6972455 10.9951392,21.6972455 C10.9951392,21.6972455 9.04230836,18.3019636 8.64457376,17.571194 C8.19723735,16.7494165 8.23333041,16.123936 8.70651329,15.9907946 C9.02737763,15.9004519 10.2958206,15.5481285 10.7744823,15.4150758 C10.9317777,15.3713458 11.1060114,15.3696605 11.2792413,15.4014157 L12.0955383,13.3293868 L11.2841346,13.1719855 C11.1819197,13.1521607 11.1141668,13.0481578 11.1328616,12.9397643 C11.1515982,12.8313707 11.2497563,12.759611 11.3518875,12.7793471 L12.1742906,12.9389216 L13.3022927,5.93795717 C13.2722639,5.94203745 13.2436153,5.94580727 13.2175597,5.94904489 C12.4956986,6.03960939 12.3107583,5.85036417 12.3542958,4.96002017 C12.4650425,2.69626235 13.5528947,0.806338134 15.0373105,0.806338134 C15.0405727,0.806338134 15.0438767,0.805983327 15.0472225,0.805983327 C16.3040387,0.808733082 17.4045633,1.80512004 18.1695855,3.10792726 C18.2163015,3.18749274 18.1418988,3.28661697 18.0590897,3.25379732 C16.93619,2.80829269 16.3791106,4.47069687 16.3228172,5.0941816 C16.292412,5.43067176 16.2202259,5.46730559 15.8730132,5.52478433 C15.3064819,5.61858645 14.3824077,5.77483462 13.7368313,5.87422495 L12.585743,13.0187088 L13.2732258,13.152072 L17.5365559,3.72577942 C17.5865342,3.61534572 17.711417,3.56873294 17.8155139,3.62173225 C17.9196944,3.67468721 17.9636083,3.8071633 17.9136719,3.91755265 L13.699609,13.2347864 L14.5330115,13.3964897 L20.1614788,6.90440728 C19.499006,4.62406223 18.3283447,1.4417089 15.9910371,0.620286176 C15.8932136,0.58586989 15.9111556,0.433835059 16.013956,0.425763199 L19.2656768,0.169282036 C20.1148464,0.102134798 20.8758955,0.0416845432 21.2806145,0.00895359079 C24.7136788,-0.268239434 26.2622926,5.97095422 26.6223867,7.58847531 C26.8359756,8.54725272 26.788214,8.7215517 26.0559808,8.85939425 Z M7.5109256,13.631505 C7.42627631,13.0211925 7.90715458,12.3723391 8.78150153,12.118519 C9.6558903,11.8647875 10.3005884,12.4541221 10.5402747,12.9085856 L10.2223798,13.208708 C10.2571764,13.3005144 10.282981,13.3979976 10.2975353,13.5008473 C10.3310772,13.7379915 10.4405692,14.5264615 10.5009613,14.9551571 C10.5268078,15.1380158 10.3361796,15.1797057 10.1179902,15.2577189 C9.87157036,15.345711 9.56396384,15.4235912 9.56396384,15.4235912 C9.56396384,15.4235912 8.76075743,15.04652 8.33696725,14.7459984 L8.18113559,14.8059164 C7.90196856,14.5617648 7.58035141,14.1316499 7.5109256,13.631505 Z" id="Fill-1"></path>
        </g>
    </g>
</svg>