<?xml version="1.0" encoding="UTF-8"?>
<svg width="44px" height="53px" viewBox="0 0 44 53" version="1.1" xmlns="http://www.w3.org/2000/svg" xmlns:xlink="http://www.w3.org/1999/xlink">
    <!-- Generator: Sketch 49.2 (51160) - http://www.bohemiancoding.com/sketch -->
    <title>location-pin-unselected</title>
    <desc>Created with Sketch.</desc>
    <defs>
        <linearGradient x1="50%" y1="0%" x2="50%" y2="100%" id="linearGradient-1">
            <stop stop-color="#19A4EA" offset="0%"></stop>
            <stop stop-color="#0082C3" offset="100%"></stop>
        </linearGradient>
        <path d="M7.52,2.74985211e-16 C3.36,2.74985211e-16 0,3.37272727 0,7.54848485 L0,32.2015152 C0,36.3772727 3.36,39.75 7.52,39.75 L13.04,39.75 C13.36,39.75 15.2,39.9106061 15.36,40.1515152 L21.76,52.8393939 L28.16,40.1515152 C28.32,39.9106061 30.16,39.75 30.48,39.75 L36.08,39.75 C40.24,39.75 43.6,36.3772727 43.6,32.2015152 L43.6,7.54848485 C43.6,3.37272727 40.24,0 36.08,0 C31.5534722,4.35829201e-17 28.1585764,7.62701102e-17 25.8953125,9.80615702e-17 C21.8119097,1.37377935e-16 15.6868056,1.96352482e-16 7.52,2.74985211e-16 Z" id="path-2"></path>
        <filter x="-18.3%" y="-13.2%" width="136.7%" height="130.3%" filterUnits="objectBoundingBox" id="filter-3">
            <feOffset dx="0" dy="1" in="SourceAlpha" result="shadowOffsetOuter1"></feOffset>
            <feGaussianBlur stdDeviation="2.5" in="shadowOffsetOuter1" result="shadowBlurOuter1"></feGaussianBlur>
            <feComposite in="shadowBlurOuter1" in2="SourceAlpha" operator="out" result="shadowBlurOuter1"></feComposite>
            <feColorMatrix values="0 0 0 0 0   0 0 0 0 0   0 0 0 0 0  0 0 0 0.271993886 0" type="matrix" in="shadowBlurOuter1"></feColorMatrix>
        </filter>
    </defs>
    <g id="location-pin-unselected" stroke="none" stroke-width="1" fill="none" fill-rule="evenodd">
        <g id="location-pin">
            <g id="Path">
                <use fill="black" fill-opacity="1" filter="url(#filter-3)" xlink:href="#path-2"></use>
                <use fill="url(#linearGradient-1)" fill-rule="evenodd" xlink:href="#path-2"></use>
                <path stroke="#FFFFFF" stroke-width="1.6" d="M21.7603516,51.0637612 L27.493587,39.7089163 C27.8561269,39.1630466 29.4327868,38.95 30.48,38.95 L36.08,38.95 C39.7974937,38.95 42.8,35.9361206 42.8,32.2015152 L42.8,7.54848485 C42.8,3.81387942 39.7974937,0.8 36.08,0.8 C29.8560243,0.8 29.8560243,0.8 25.8953125,0.8 C18.7493576,0.8 18.7493576,0.8 7.52,0.8 C3.80250629,0.8 0.8,3.81387942 0.8,7.54848485 L0.8,32.2015152 C0.8,35.9361206 3.80250629,38.95 7.52,38.95 L13.04,38.95 C14.0872132,38.95 15.6638731,39.1630466 16.0742749,39.7912217 L21.7603516,51.0637612 Z M28.6049411,40.8017139 C28.6026515,40.8025804 28.6005695,40.8034023 28.5987008,40.8041765 C28.6031444,40.8023356 28.6075985,40.8004198 28.6120829,40.798383 Z"></path>
            </g>
        </g>
        <g id="wakeboard" transform="translate(6.000000, 7.000000)" fill="#FFFFFF">
            <path d="M29.6864403,23.6300126 C29.6407258,23.6517016 28.5434785,24.1653759 26.5108752,24.5273159 C24.6518006,24.8584046 21.6160797,25.1192918 17.7111441,24.4824773 C12.9100365,23.6995058 9.313269,23.9169266 7.14141066,24.2373035 C4.79008222,24.5841499 3.55672241,25.1227443 3.54454496,25.1281444 L3.21811069,24.5329374 C3.27069961,24.5094779 4.53469945,23.9533552 6.97981391,23.5884052 C7.43033052,23.5211252 7.94134157,23.45836 8.50882064,23.4071917 L13.0195845,21.0442015 C13.0195845,21.0442015 11.9470358,15.9939491 11.8299751,15.4429609 C11.6574776,14.6307757 11.6392605,14.0947485 12.4946283,13.6411837 C13.2088751,13.2624236 15.177203,12.3009829 15.177203,12.3009829 L14.628874,11.3869481 L15.072418,11.1435891 L15.0275873,11.0208916 L13.7299522,11.282487 L13.0880335,9.58866764 C13.0880335,9.58866764 12.0097889,9.98190178 11.3619288,10.2181344 C10.7166712,10.4534375 10.1230204,10.2245968 10.0225565,9.64271299 C9.87534678,8.79020402 9.78111884,7.48328918 9.78111884,6.97722818 C9.78111884,6.73293965 9.79776463,6.50746298 9.83390416,6.30017848 L9.6159376,6.02123188 C9.6159376,6.02123188 9.52328094,5.22595521 10.1245917,4.63101373 C10.4965441,4.26314239 11.0653981,4.04784625 11.8448532,4.06851716 L12.0985665,4.35224418 C12.5824238,4.31054826 13.7559766,4.09237501 14.273862,3.91833217 L14.3263036,3.58410085 C14.9839351,3.20631455 15.5949191,3.12845561 16.1233616,3.27266507 C16.9779437,3.50584353 17.350338,4.23158273 17.350338,4.23158273 L17.3262286,4.51739013 C17.906278,5.06479295 18.579966,5.8992868 19.2084797,6.72151975 L29.367126,4.32714695 L29.3599079,4.79102515 L16.0388068,8.05224818 L16.1030331,8.26590658 L19.7468409,7.47425949 C19.9518444,7.88993508 20.190434,8.42366058 19.6868375,8.77010853 L20.1717259,9.26554638 L18.8126634,9.82777737 L18.9352727,9.9990759 L19.8606608,9.75509722 C20.1213957,10.2330954 20.4609404,10.8299844 20.6177251,11.1329217 C20.9614435,11.7968695 21.4045456,13.5715577 19.7859266,14.0380031 C19.2379413,14.1958899 18.927318,14.2933574 18.927318,14.2933574 L19.9886713,17.473269 L23.1615358,15.8524839 C23.1615358,15.8524839 24.5528097,15.0985048 25.8676308,15.4050274 C26.9799526,15.6643211 27.7105506,16.0379467 27.7105506,16.0379467 C27.7105506,16.0379467 28.279159,16.681976 27.0957857,17.7950181 C25.725626,19.0838293 21.6125934,21.4178714 15.7289202,23.5367944 C16.4059963,23.6136352 17.1102262,23.7097749 17.8422482,23.8291527 C21.6153923,24.4444995 24.5415161,24.1977765 26.3318961,23.8824013 C28.2715481,23.5407338 29.3333925,23.0471993 29.3438513,23.042286 L29.6864403,23.6300126 Z M11.7806269,8.64851756 L12.6237191,8.48775367 L12.0222119,7.00117456 L11.7806269,8.64851756 Z M16.1960335,14.0776629 L16.1911232,14.0684119 C16.1890118,14.0648266 15.9831245,13.7044357 16.3483498,13.4126086 C16.4234277,13.3526319 16.5185395,13.2963734 16.6310336,13.2454708 L16.6328013,12.9152231 C16.5013045,12.9747129 16.2659065,13.1106008 16.1661791,13.1734103 C15.7213584,13.4536405 15.6995568,13.8048247 15.880991,14.1968637 C16.0623761,14.5888585 16.232664,14.9569511 16.232664,14.9569511 L14.2081627,15.3526197 L14.8063309,20.1204289 L15.5703187,19.7302489 L18.1929391,18.3905793 L16.1960335,14.0776629 Z M9.82609684,1.94552196 C9.64245302,0.984656709 10.4429241,0.16698287 11.3769051,0.0217996192 C12.3102479,-0.123206579 13.3410594,0.467352852 13.5221008,1.41507193 C13.5801401,1.71871739 13.771493,2.72065887 13.8761798,3.26956665 C13.9208632,3.50358611 13.6226629,3.66368606 13.2903363,3.7199003 C12.8285261,3.79806909 12.3720681,3.86645571 12.3720681,3.86645571 C12.3720681,3.86645571 10.5906739,3.19958655 10.2550083,2.82728889 C10.0321315,2.58025605 9.88953744,2.27820406 9.82609684,1.94552196 Z" id="Fill-1"></path>
        </g>
    </g>
</svg>