<?xml version="1.0" encoding="UTF-8"?>
<svg width="44px" height="53px" viewBox="0 0 44 53" version="1.1" xmlns="http://www.w3.org/2000/svg" xmlns:xlink="http://www.w3.org/1999/xlink">
    <!-- Generator: Sketch 49.2 (51160) - http://www.bohemiancoding.com/sketch -->
    <title>location-pin-unselected</title>
    <desc>Created with Sketch.</desc>
    <defs>
        <linearGradient x1="50%" y1="0%" x2="50%" y2="100%" id="linearGradient-1">
            <stop stop-color="#19A4EA" offset="0%"></stop>
            <stop stop-color="#0082C3" offset="100%"></stop>
        </linearGradient>
        <path d="M7.52,2.74985211e-16 C3.36,2.74985211e-16 0,3.37272727 0,7.54848485 L0,32.2015152 C0,36.3772727 3.36,39.75 7.52,39.75 L13.04,39.75 C13.36,39.75 15.2,39.9106061 15.36,40.1515152 L21.76,52.8393939 L28.16,40.1515152 C28.32,39.9106061 30.16,39.75 30.48,39.75 L36.08,39.75 C40.24,39.75 43.6,36.3772727 43.6,32.2015152 L43.6,7.54848485 C43.6,3.37272727 40.24,0 36.08,0 C31.5534722,4.35829201e-17 28.1585764,7.62701102e-17 25.8953125,9.80615702e-17 C21.8119097,1.37377935e-16 15.6868056,1.96352482e-16 7.52,2.74985211e-16 Z" id="path-2"></path>
        <filter x="-18.3%" y="-13.2%" width="136.7%" height="130.3%" filterUnits="objectBoundingBox" id="filter-3">
            <feOffset dx="0" dy="1" in="SourceAlpha" result="shadowOffsetOuter1"></feOffset>
            <feGaussianBlur stdDeviation="2.5" in="shadowOffsetOuter1" result="shadowBlurOuter1"></feGaussianBlur>
            <feComposite in="shadowBlurOuter1" in2="SourceAlpha" operator="out" result="shadowBlurOuter1"></feComposite>
            <feColorMatrix values="0 0 0 0 0   0 0 0 0 0   0 0 0 0 0  0 0 0 0.271993886 0" type="matrix" in="shadowBlurOuter1"></feColorMatrix>
        </filter>
    </defs>
    <g id="location-pin-unselected" stroke="none" stroke-width="1" fill="none" fill-rule="evenodd">
        <g id="location-pin">
            <g id="Path">
                <use fill="black" fill-opacity="1" filter="url(#filter-3)" xlink:href="#path-2"></use>
                <use fill="url(#linearGradient-1)" fill-rule="evenodd" xlink:href="#path-2"></use>
                <path stroke="#FFFFFF" stroke-width="1.6" d="M21.7603516,51.0637612 L27.493587,39.7089163 C27.8561269,39.1630466 29.4327868,38.95 30.48,38.95 L36.08,38.95 C39.7974937,38.95 42.8,35.9361206 42.8,32.2015152 L42.8,7.54848485 C42.8,3.81387942 39.7974937,0.8 36.08,0.8 C29.8560243,0.8 29.8560243,0.8 25.8953125,0.8 C18.7493576,0.8 18.7493576,0.8 7.52,0.8 C3.80250629,0.8 0.8,3.81387942 0.8,7.54848485 L0.8,32.2015152 C0.8,35.9361206 3.80250629,38.95 7.52,38.95 L13.04,38.95 C14.0872132,38.95 15.6638731,39.1630466 16.0742749,39.7912217 L21.7603516,51.0637612 Z M28.6049411,40.8017139 C28.6026515,40.8025804 28.6005695,40.8034023 28.5987008,40.8041765 C28.6031444,40.8023356 28.6075985,40.8004198 28.6120829,40.798383 Z"></path>
            </g>
        </g>
        <g id="aqua-learning" transform="translate(5.000000, 6.000000)" fill="#FFFFFF">
            <path d="M32.7139997,22.3809897 L32.7139997,23.0995251 C24.7728066,23.0995251 20.7361947,22.2432106 16.8324518,21.4151584 C12.964995,20.5947108 8.96586665,19.74636 1.1,19.74636 L1.1,19.0278246 C5.20816614,19.0278246 8.27122257,19.2570374 10.8116643,19.5928928 L11.8051592,19.2753601 L14.0365708,17.0238893 L9.34064272,10.8920881 L4.02342106,18.5647286 C2.61024161,17.2298695 3.4414074,15.4765234 3.71762438,14.8845101 C4.71111929,12.7552503 6.10968852,9.9020062 6.71972506,8.64546746 C8.08428362,5.83479658 9.58117244,6.25244527 11.529062,7.90986687 C14.0296848,10.0376298 19.4939069,14.8025372 19.4939069,14.8025372 C20.1282538,15.3232957 20.5716501,16.5278604 20.5716501,17.5187806 L20.6161992,20.8018885 L20.6198518,21.4381516 C20.893015,21.4864731 21.1713876,21.5337766 21.455748,21.5798827 C21.2252777,21.3548014 21.2637194,20.8773946 21.2577316,20.331667 C21.2489295,19.5419966 21.2406664,18.8339398 21.2406664,18.8339398 C21.2406664,18.8339398 24.1990561,15.5486763 25.2054248,15.1852172 C25.8731238,14.9441486 26.6032156,14.895348 27.3458219,15.0193553 C29.4892729,15.3770661 30.6806045,17.4962665 30.3670237,19.3753562 C30.1502655,20.6740491 29.1618602,21.8022095 27.8729874,22.2578807 C29.3138903,22.3363807 30.9122124,22.3809897 32.7139997,22.3809897" id="Fill-1"></path>
            <path d="M14.5903076,11.4683594 C16.4109294,9.48570964 17.5738607,8.94698893 18.0791016,9.85219727 C18.5843424,10.7574056 19.645223,11.9533691 21.2617432,13.4400879 L17.7156249,14.2954346 L14.07146,16.5695557 L11.854541,17.6569336 L9.62312012,13.5453529 C11.4269124,12.8204399 12.4362305,12.4579834 12.6510742,12.4579834 C12.865918,12.4579834 13.5123291,12.1281087 14.5903076,11.4683594 Z" id="Path-5"></path>
        </g>
    </g>
</svg>