<?xml version="1.0" encoding="UTF-8"?>
<svg width="44px" height="53px" viewBox="0 0 44 53" version="1.1" xmlns="http://www.w3.org/2000/svg" xmlns:xlink="http://www.w3.org/1999/xlink">
    <!-- Generator: Sketch 49.2 (51160) - http://www.bohemiancoding.com/sketch -->
    <title>location-pin-unselected</title>
    <desc>Created with Sketch.</desc>
    <defs>
        <linearGradient x1="50%" y1="0%" x2="50%" y2="100%" id="linearGradient-1">
            <stop stop-color="#19A4EA" offset="0%"></stop>
            <stop stop-color="#0082C3" offset="100%"></stop>
        </linearGradient>
        <path d="M7.52,2.74985211e-16 C3.36,2.74985211e-16 0,3.37272727 0,7.54848485 L0,32.2015152 C0,36.3772727 3.36,39.75 7.52,39.75 L13.04,39.75 C13.36,39.75 15.2,39.9106061 15.36,40.1515152 L21.76,52.8393939 L28.16,40.1515152 C28.32,39.9106061 30.16,39.75 30.48,39.75 L36.08,39.75 C40.24,39.75 43.6,36.3772727 43.6,32.2015152 L43.6,7.54848485 C43.6,3.37272727 40.24,0 36.08,0 C31.5534722,4.35829201e-17 28.1585764,7.62701102e-17 25.8953125,9.80615702e-17 C21.8119097,1.37377935e-16 15.6868056,1.96352482e-16 7.52,2.74985211e-16 Z" id="path-2"></path>
        <filter x="-18.3%" y="-13.2%" width="136.7%" height="130.3%" filterUnits="objectBoundingBox" id="filter-3">
            <feOffset dx="0" dy="1" in="SourceAlpha" result="shadowOffsetOuter1"></feOffset>
            <feGaussianBlur stdDeviation="2.5" in="shadowOffsetOuter1" result="shadowBlurOuter1"></feGaussianBlur>
            <feComposite in="shadowBlurOuter1" in2="SourceAlpha" operator="out" result="shadowBlurOuter1"></feComposite>
            <feColorMatrix values="0 0 0 0 0   0 0 0 0 0   0 0 0 0 0  0 0 0 0.271993886 0" type="matrix" in="shadowBlurOuter1"></feColorMatrix>
        </filter>
    </defs>
    <g id="location-pin-unselected" stroke="none" stroke-width="1" fill="none" fill-rule="evenodd">
        <g id="location-pin">
            <g id="Path">
                <use fill="black" fill-opacity="1" filter="url(#filter-3)" xlink:href="#path-2"></use>
                <use fill="url(#linearGradient-1)" fill-rule="evenodd" xlink:href="#path-2"></use>
                <path stroke="#FFFFFF" stroke-width="1.6" d="M21.7603516,51.0637612 L27.493587,39.7089163 C27.8561269,39.1630466 29.4327868,38.95 30.48,38.95 L36.08,38.95 C39.7974937,38.95 42.8,35.9361206 42.8,32.2015152 L42.8,7.54848485 C42.8,3.81387942 39.7974937,0.8 36.08,0.8 C29.8560243,0.8 29.8560243,0.8 25.8953125,0.8 C18.7493576,0.8 18.7493576,0.8 7.52,0.8 C3.80250629,0.8 0.8,3.81387942 0.8,7.54848485 L0.8,32.2015152 C0.8,35.9361206 3.80250629,38.95 7.52,38.95 L13.04,38.95 C14.0872132,38.95 15.6638731,39.1630466 16.0742749,39.7912217 L21.7603516,51.0637612 Z M28.6049411,40.8017139 C28.6026515,40.8025804 28.6005695,40.8034023 28.5987008,40.8041765 C28.6031444,40.8023356 28.6075985,40.8004198 28.6120829,40.798383 Z"></path>
            </g>
        </g>
        <g id="musculation" transform="translate(7.000000, 9.000000)" fill="#FFFFFF">
            <path d="M19.5606938,5.64554265 L18.0356202,5.50852837 C18.4211731,5.80008359 18.4540932,6.13700986 18.6122551,6.73796235 C18.7709979,7.34076212 18.8478277,7.62317104 18.8478277,7.62317104 L19.5606938,5.64554265 Z M11.6327027,4.93325761 L10.3447994,4.8175096 L9.99671737,6.63604643 L11.6327027,4.93325761 Z M25.7155968,8.83670037 C25.5471231,8.83670037 25.0385071,8.80781969 24.8167803,8.78263357 C23.6464212,8.64985452 22.8096688,7.48444464 22.6684512,5.92479767 L20.9808586,5.77318535 C20.9436298,5.94628922 20.8941528,6.12691739 20.8336379,6.31353797 C20.4639157,7.45416723 20.2738504,7.96014237 20.0227375,8.67535602 C19.262234,10.8411369 18.0489819,9.96642616 17.8161688,9.45783779 C17.4460594,8.64958418 17.1825531,7.90927452 17.1825531,7.90927452 L16.5370764,11.2133417 C16.5370764,11.2133417 18.5384268,13.1837162 19.2420463,13.7513725 C20.3777424,14.6676246 20.6359718,15.1782404 20.1159305,16.5542856 C19.8548933,17.2449889 17.6691901,23.2792043 17.6691901,23.2792043 C16.7065182,23.0404543 16.6339003,21.7563678 16.9246141,20.5443704 C17.1684168,19.5279596 17.7231694,16.5299104 17.7231694,16.5299104 L15.1910787,14.2828492 L14.6815912,17.2258853 L10.7561074,23.1232216 C9.63837204,22.6349533 10.4630698,21.0876065 10.695302,20.4982334 C11.1293152,19.3968476 12.3978538,16.7664527 12.3978538,16.7664527 C12.3978538,16.7664527 11.8375338,14.9878352 11.6313472,13.436073 C11.5667172,12.9497871 11.568218,12.5626238 11.6958804,12.1369829 C11.8895282,11.4912 11.9984551,11.314717 12.2858285,10.9944163 L11.8411162,7.63894052 C11.8411162,7.63894052 10.6191499,8.43002792 9.6924482,9.02940345 C8.76579487,9.62877899 7.92986555,8.95708911 8.06498333,8.35230689 C8.36547637,7.0075304 8.67066537,5.70614252 8.92904,4.69031745 L7.00926372,4.51784436 C6.86068741,5.86865831 6.08449845,6.96360113 5.07815903,6.96360113 C4.95383712,6.96360113 4.17934258,6.91012005 4.17934258,6.91012005 C4.17934258,6.91012005 4.52001754,6.94237991 4.17929417,6.90957938 C3.13165935,6.80883491 2.17939609,5.62125764 2.0325142,4.07066687 L0.962416229,3.97456313 L0.962416229,3.27259584 L2.02137945,3.36775341 C2.113459,1.92317862 2.96120083,0.751235664 3.96899261,0.727175938 C4.08024329,0.724517654 4.69246094,0.766509535 4.92629071,0.787009864 C5.987965,0.88000476 6.92023412,2.16490227 7.02519125,3.7477529 C7.02678885,3.77113679 7.0274182,3.79429541 7.0286285,3.81758919 L9.10574366,4.00420976 C9.31832057,3.18910769 9.46060333,2.68006876 9.46060333,2.68006876 C10.3368598,2.81419948 10.4439471,3.71004131 10.4458351,4.12464356 L19.8058035,4.96556252 L20.2002642,3.87138565 C20.8024121,4.03146844 21.0538639,4.47148208 21.0601574,5.07824675 L22.6599306,5.22201938 C22.7577228,3.78636561 23.5876975,2.63312076 24.6064303,2.60023012 C24.7600415,2.595274 25.4368407,2.64920563 25.5637284,2.66006405 C26.5901588,2.74787754 27.5577203,4.03795645 27.6626774,5.62080709 C27.7758646,7.32864214 26.7941668,8.83670037 25.7155968,8.83670037 Z M13.2750301,2.20599304 C13.1889052,1.89398254 13.199217,1.56237284 13.2939592,1.23247524 C13.567051,0.280133611 14.6505107,-0.166187825 15.5475359,0.056297058 C16.4437865,0.278826997 17.0927005,1.21404747 16.8232879,2.1535933 C16.7369694,2.45488054 16.4562768,3.43353468 16.3000998,3.9775368 C16.2335818,4.20943832 15.9982029,4.23340794 15.6588834,4.20218436 C15.2675211,4.16622994 14.6787349,4.10306189 14.6787349,4.10306189 C14.6787349,4.10306189 13.4044837,2.67601375 13.2750301,2.20599304 Z" id="Fill-1"></path>
        </g>
    </g>
</svg>