<?xml version="1.0" encoding="UTF-8"?>
<svg width="44px" height="53px" viewBox="0 0 44 53" version="1.1" xmlns="http://www.w3.org/2000/svg" xmlns:xlink="http://www.w3.org/1999/xlink">
    <!-- Generator: Sketch 49.2 (51160) - http://www.bohemiancoding.com/sketch -->
    <title>location-pin-unselected</title>
    <desc>Created with Sketch.</desc>
    <defs>
        <linearGradient x1="50%" y1="0%" x2="50%" y2="100%" id="linearGradient-1">
            <stop stop-color="#19A4EA" offset="0%"></stop>
            <stop stop-color="#0082C3" offset="100%"></stop>
        </linearGradient>
        <path d="M7.52,2.74985211e-16 C3.36,2.74985211e-16 0,3.37272727 0,7.54848485 L0,32.2015152 C0,36.3772727 3.36,39.75 7.52,39.75 L13.04,39.75 C13.36,39.75 15.2,39.9106061 15.36,40.1515152 L21.76,52.8393939 L28.16,40.1515152 C28.32,39.9106061 30.16,39.75 30.48,39.75 L36.08,39.75 C40.24,39.75 43.6,36.3772727 43.6,32.2015152 L43.6,7.54848485 C43.6,3.37272727 40.24,0 36.08,0 C31.5534722,4.35829201e-17 28.1585764,7.62701102e-17 25.8953125,9.80615702e-17 C21.8119097,1.37377935e-16 15.6868056,1.96352482e-16 7.52,2.74985211e-16 Z" id="path-2"></path>
        <filter x="-18.3%" y="-13.2%" width="136.7%" height="130.3%" filterUnits="objectBoundingBox" id="filter-3">
            <feOffset dx="0" dy="1" in="SourceAlpha" result="shadowOffsetOuter1"></feOffset>
            <feGaussianBlur stdDeviation="2.5" in="shadowOffsetOuter1" result="shadowBlurOuter1"></feGaussianBlur>
            <feComposite in="shadowBlurOuter1" in2="SourceAlpha" operator="out" result="shadowBlurOuter1"></feComposite>
            <feColorMatrix values="0 0 0 0 0   0 0 0 0 0   0 0 0 0 0  0 0 0 0.271993886 0" type="matrix" in="shadowBlurOuter1"></feColorMatrix>
        </filter>
    </defs>
    <g id="location-pin-unselected" stroke="none" stroke-width="1" fill="none" fill-rule="evenodd">
        <g id="location-pin">
            <g id="Path">
                <use fill="black" fill-opacity="1" filter="url(#filter-3)" xlink:href="#path-2"></use>
                <use fill="url(#linearGradient-1)" fill-rule="evenodd" xlink:href="#path-2"></use>
                <path stroke="#FFFFFF" stroke-width="1.6" d="M21.7603516,51.0637612 L27.493587,39.7089163 C27.8561269,39.1630466 29.4327868,38.95 30.48,38.95 L36.08,38.95 C39.7974937,38.95 42.8,35.9361206 42.8,32.2015152 L42.8,7.54848485 C42.8,3.81387942 39.7974937,0.8 36.08,0.8 C29.8560243,0.8 29.8560243,0.8 25.8953125,0.8 C18.7493576,0.8 18.7493576,0.8 7.52,0.8 C3.80250629,0.8 0.8,3.81387942 0.8,7.54848485 L0.8,32.2015152 C0.8,35.9361206 3.80250629,38.95 7.52,38.95 L13.04,38.95 C14.0872132,38.95 15.6638731,39.1630466 16.0742749,39.7912217 L21.7603516,51.0637612 Z M28.6049411,40.8017139 C28.6026515,40.8025804 28.6005695,40.8034023 28.5987008,40.8041765 C28.6031444,40.8023356 28.6075985,40.8004198 28.6120829,40.798383 Z"></path>
            </g>
        </g>
        <g id="escalade" transform="translate(6.000000, 6.000000)" fill="#FFFFFF">
            <path d="M18.594102,6.68861958 C18.7006918,7.48227702 18.1075637,7.99921214 17.6647765,8.14830371 C17.4590604,8.21757154 15.4591619,8.89755647 15.4591619,8.89755647 L15.713519,7.51472996 L18.594102,6.68861958 Z M15.5223008,21.043198 C15.6920294,20.1824101 16.9471722,13.8167932 17.0425239,13.3371964 C17.2013577,12.5383919 16.7221112,12.2088463 16.0915802,12.2987898 C15.5413025,12.3773049 13.5918464,12.7936098 13.5918464,12.7936098 L15.0722217,9.07460817 L15.510162,6.55352987 C15.510162,6.55352987 20.003875,4.49529847 20.2706282,4.37281482 C20.5922419,4.22511907 20.8913796,3.8728477 20.9201181,3.39342539 L21.494416,6.53835028 L19.1899753,10.3838049 L19.2171267,19.1476675 L15.5223008,21.043198 Z M19.5334217,10.481251 L21.8541618,6.60857773 L20.6493758,0.000523434426 L20.3003533,0 L20.8577513,3.05232062 L15.3149976,4.67535991 C15.355017,4.17783549 15.4006126,3.61802237 15.4174267,3.40795069 C15.4559878,2.92621654 15.2926931,2.48299844 15.0152166,2.14808765 L15.8941425,1.72000552 L15.6083447,1.3600135 L14.9380516,1.40524696 C14.9380516,1.40524696 14.0518767,0.424025505 12.6591324,0.966827005 C11.3866607,1.46269388 11.3414941,2.92207268 11.8834934,3.86874746 L12.0918689,3.76244666 C12.1080397,3.84968573 12.1561659,3.97783992 12.1938262,4.05626785 C12.3250367,4.32954424 13.2728063,5.15958038 13.2728063,5.15958038 C13.2728063,5.15958038 13.1649727,5.18727878 13.1080533,5.20189133 C12.2551207,5.4206433 11.6965217,5.99240817 11.299759,7.60624374 C10.7713139,9.75594531 10.4208331,11.4207285 10.4208331,11.4207285 C10.4208331,11.4207285 10.0901689,12.0436155 9.83932906,12.526222 C9.58840345,13.0088722 8.97176986,14.3637386 9.69173333,15.7980361 C10.4116968,17.2323337 11.9975466,20.3430609 11.9975466,20.3430609 C11.9975466,20.3430609 11.4802967,25.0978956 11.409051,25.9315958 C11.3377624,26.7652959 11.6432912,27.5443409 12.335374,27.5909701 C13.5366857,22.1641765 13.5346697,22.1745143 13.8407132,20.7564432 C14.0065385,19.9880851 14.0070962,19.7863011 13.8172506,19.0687598 C13.6536985,18.4506709 12.9141328,15.6555311 12.9141328,15.6555311 L14.8117738,15.0370497 C14.8117738,15.0370497 14.4973233,18.9399949 14.4651105,19.4056771 C14.404202,20.2857012 14.7049696,20.9582708 15.3793375,21.1165661 L14.404202,21.6167949 L15.9532494,27.5909701 L16.3080196,27.5909701 L14.8049967,21.795068 L19.5609591,19.3567796 L19.5334217,10.481251 Z" id="Fill-1"></path>
        </g>
    </g>
</svg>