<?xml version="1.0" encoding="UTF-8"?>
<svg width="44px" height="53px" viewBox="0 0 44 53" version="1.1" xmlns="http://www.w3.org/2000/svg" xmlns:xlink="http://www.w3.org/1999/xlink">
    <!-- Generator: Sketch 49.2 (51160) - http://www.bohemiancoding.com/sketch -->
    <title>location-pin-unselected</title>
    <desc>Created with Sketch.</desc>
    <defs>
        <linearGradient x1="50%" y1="0%" x2="50%" y2="100%" id="linearGradient-1">
            <stop stop-color="#19A4EA" offset="0%"></stop>
            <stop stop-color="#0082C3" offset="100%"></stop>
        </linearGradient>
        <path d="M7.52,2.74985211e-16 C3.36,2.74985211e-16 0,3.37272727 0,7.54848485 L0,32.2015152 C0,36.3772727 3.36,39.75 7.52,39.75 L13.04,39.75 C13.36,39.75 15.2,39.9106061 15.36,40.1515152 L21.76,52.8393939 L28.16,40.1515152 C28.32,39.9106061 30.16,39.75 30.48,39.75 L36.08,39.75 C40.24,39.75 43.6,36.3772727 43.6,32.2015152 L43.6,7.54848485 C43.6,3.37272727 40.24,0 36.08,0 C31.5534722,4.35829201e-17 28.1585764,7.62701102e-17 25.8953125,9.80615702e-17 C21.8119097,1.37377935e-16 15.6868056,1.96352482e-16 7.52,2.74985211e-16 Z" id="path-2"></path>
        <filter x="-18.3%" y="-13.2%" width="136.7%" height="130.3%" filterUnits="objectBoundingBox" id="filter-3">
            <feOffset dx="0" dy="1" in="SourceAlpha" result="shadowOffsetOuter1"></feOffset>
            <feGaussianBlur stdDeviation="2.5" in="shadowOffsetOuter1" result="shadowBlurOuter1"></feGaussianBlur>
            <feComposite in="shadowBlurOuter1" in2="SourceAlpha" operator="out" result="shadowBlurOuter1"></feComposite>
            <feColorMatrix values="0 0 0 0 0   0 0 0 0 0   0 0 0 0 0  0 0 0 0.271993886 0" type="matrix" in="shadowBlurOuter1"></feColorMatrix>
        </filter>
    </defs>
    <g id="location-pin-unselected" stroke="none" stroke-width="1" fill="none" fill-rule="evenodd">
        <g id="location-pin">
            <g id="Path">
                <use fill="black" fill-opacity="1" filter="url(#filter-3)" xlink:href="#path-2"></use>
                <use fill="url(#linearGradient-1)" fill-rule="evenodd" xlink:href="#path-2"></use>
                <path stroke="#FFFFFF" stroke-width="1.6" d="M21.7603516,51.0637612 L27.493587,39.7089163 C27.8561269,39.1630466 29.4327868,38.95 30.48,38.95 L36.08,38.95 C39.7974937,38.95 42.8,35.9361206 42.8,32.2015152 L42.8,7.54848485 C42.8,3.81387942 39.7974937,0.8 36.08,0.8 C29.8560243,0.8 29.8560243,0.8 25.8953125,0.8 C18.7493576,0.8 18.7493576,0.8 7.52,0.8 C3.80250629,0.8 0.8,3.81387942 0.8,7.54848485 L0.8,32.2015152 C0.8,35.9361206 3.80250629,38.95 7.52,38.95 L13.04,38.95 C14.0872132,38.95 15.6638731,39.1630466 16.0742749,39.7912217 L21.7603516,51.0637612 Z M28.6049411,40.8017139 C28.6026515,40.8025804 28.6005695,40.8034023 28.5987008,40.8041765 C28.6031444,40.8023356 28.6075985,40.8004198 28.6120829,40.798383 Z"></path>
            </g>
        </g>
        <g id="running" transform="translate(6.000000, 7.000000)" fill="#FFFFFF">
            <path d="M20.7510216,10.5536031 L20.401439,11.6415985 C20.401439,11.6415985 21.7531761,11.9473776 22.3627769,12.0503435 C23.0217431,12.1616557 23.8622526,12.1166301 23.9874995,11.3849303 L20.7510216,10.5536031 Z M8.33395516,20.7309373 C8.91645858,20.4351737 13.8730365,17.8866341 13.8730365,17.8866341 L15.0106777,15.2136041 C14.4448977,13.7461193 15.4952998,12.5372355 15.4952998,12.5372355 L16.2414604,11.4400593 L16.2642651,7.31816972 L14.2212328,8.26067737 L15.1059208,12.3487428 C15.1059208,12.3487428 14.3199637,12.7718521 13.8932924,11.7016473 C13.6964566,11.2078587 13.0490716,9.46472913 12.6833469,8.541286 C12.3358212,7.66370315 12.4307961,7.34022131 13.1948427,6.8900966 C13.9588894,6.43997188 16.586795,4.89179238 16.586795,4.89179238 C17.3612156,4.45190277 18.0004625,4.52328489 18.6076486,4.77187041 C18.6937252,4.80710023 19.6797823,5.17789195 20.1288112,5.34661733 C20.264432,5.39752926 20.4002764,5.51885691 20.422008,5.65986407 C20.5725637,6.63716226 20.8886099,8.44077997 20.6725913,9.33430849 L19.3715165,13.9878521 L22.9590973,18.8720589 L24.7343756,26.9465416 C23.8698094,27.2474008 23.3327365,26.831847 22.994914,25.8867037 C22.313009,23.9789339 20.916691,19.9101527 20.916691,19.9101527 L16.5620229,15.9015521 L16.4477758,16.2544214 L17.4478287,17.4487652 C17.4478287,17.4487652 16.2946714,19.2289695 16.1575302,19.4372735 C15.9242963,19.7915485 15.480991,19.9466564 14.9738772,20.1019839 C14.4668081,20.2573114 7.53091692,22.3818632 7.53091692,22.3818632 C7.32826815,21.5247944 7.73911036,21.0329386 8.33395516,20.7309373 Z M20.98041,0.303481019 C20.5714458,0.0438257858 20.0574906,-0.0539128192 19.5710352,0.0284951013 C19.0876651,0.110331965 18.6313476,0.369987198 18.3317118,0.825251424 C18.123429,1.14174879 17.998495,1.48679902 17.9760033,1.84146935 C17.9422882,2.37597872 18.8799188,4.38803223 18.8799188,4.38803223 C18.8799188,4.38803223 19.2127332,4.52504199 19.5838237,4.67799742 C19.8142405,4.77301252 20.0117023,4.87360641 20.1595751,4.84852383 C20.2226234,4.83784945 20.2765945,4.80437673 20.3203706,4.73791448 C20.6638719,4.21605622 21.3336592,3.19838868 21.5236536,2.90956561 C22.1170227,2.00791051 21.7950294,0.820682968 20.98041,0.303481019 Z" id="Fill-1"></path>
        </g>
    </g>
</svg>