<?xml version="1.0" encoding="UTF-8"?>
<svg width="44px" height="53px" viewBox="0 0 44 53" version="1.1" xmlns="http://www.w3.org/2000/svg" xmlns:xlink="http://www.w3.org/1999/xlink">
    <!-- Generator: Sketch 49.2 (51160) - http://www.bohemiancoding.com/sketch -->
    <title>location-pin-unselected</title>
    <desc>Created with Sketch.</desc>
    <defs>
        <linearGradient x1="50%" y1="0%" x2="50%" y2="100%" id="linearGradient-1">
            <stop stop-color="#19A4EA" offset="0%"></stop>
            <stop stop-color="#0082C3" offset="100%"></stop>
        </linearGradient>
        <path d="M7.52,2.74985211e-16 C3.36,2.74985211e-16 0,3.37272727 0,7.54848485 L0,32.2015152 C0,36.3772727 3.36,39.75 7.52,39.75 L13.04,39.75 C13.36,39.75 15.2,39.9106061 15.36,40.1515152 L21.76,52.8393939 L28.16,40.1515152 C28.32,39.9106061 30.16,39.75 30.48,39.75 L36.08,39.75 C40.24,39.75 43.6,36.3772727 43.6,32.2015152 L43.6,7.54848485 C43.6,3.37272727 40.24,0 36.08,0 C31.5534722,4.35829201e-17 28.1585764,7.62701102e-17 25.8953125,9.80615702e-17 C21.8119097,1.37377935e-16 15.6868056,1.96352482e-16 7.52,2.74985211e-16 Z" id="path-2"></path>
        <filter x="-18.3%" y="-13.2%" width="136.7%" height="130.3%" filterUnits="objectBoundingBox" id="filter-3">
            <feOffset dx="0" dy="1" in="SourceAlpha" result="shadowOffsetOuter1"></feOffset>
            <feGaussianBlur stdDeviation="2.5" in="shadowOffsetOuter1" result="shadowBlurOuter1"></feGaussianBlur>
            <feComposite in="shadowBlurOuter1" in2="SourceAlpha" operator="out" result="shadowBlurOuter1"></feComposite>
            <feColorMatrix values="0 0 0 0 0   0 0 0 0 0   0 0 0 0 0  0 0 0 0.271993886 0" type="matrix" in="shadowBlurOuter1"></feColorMatrix>
        </filter>
    </defs>
    <g id="location-pin-unselected" stroke="none" stroke-width="1" fill="none" fill-rule="evenodd">
        <g id="location-pin">
            <g id="Path">
                <use fill="black" fill-opacity="1" filter="url(#filter-3)" xlink:href="#path-2"></use>
                <use fill="url(#linearGradient-1)" fill-rule="evenodd" xlink:href="#path-2"></use>
                <path stroke="#FFFFFF" stroke-width="1.6" d="M21.7603516,51.0637612 L27.493587,39.7089163 C27.8561269,39.1630466 29.4327868,38.95 30.48,38.95 L36.08,38.95 C39.7974937,38.95 42.8,35.9361206 42.8,32.2015152 L42.8,7.54848485 C42.8,3.81387942 39.7974937,0.8 36.08,0.8 C29.8560243,0.8 29.8560243,0.8 25.8953125,0.8 C18.7493576,0.8 18.7493576,0.8 7.52,0.8 C3.80250629,0.8 0.8,3.81387942 0.8,7.54848485 L0.8,32.2015152 C0.8,35.9361206 3.80250629,38.95 7.52,38.95 L13.04,38.95 C14.0872132,38.95 15.6638731,39.1630466 16.0742749,39.7912217 L21.7603516,51.0637612 Z M28.6049411,40.8017139 C28.6026515,40.8025804 28.6005695,40.8034023 28.5987008,40.8041765 C28.6031444,40.8023356 28.6075985,40.8004198 28.6120829,40.798383 Z"></path>
            </g>
        </g>
        <g id="marche-rapide" transform="translate(6.000000, 7.000000)" fill="#FFFFFF">
            <path d="M15.8582783,4.67576752 C15.8287367,4.66766752 15.8012607,4.66056226 15.7764266,4.65402542 C15.734588,4.64137805 15.7111469,4.63427279 15.7111469,4.63427279 C15.7111469,4.63427279 15.7791165,4.653457 15.8582783,4.67576752 Z M15.3882072,2.2385455 C15.3150978,1.91005535 15.3382507,1.56433076 15.4446964,1.22331504 C15.7527453,0.239351412 16.843045,-0.187648117 17.7231434,0.0768486139 C18.6024252,0.341062813 19.2088198,1.34000062 18.9051421,2.31139158 C18.8079192,2.62236477 18.4650449,3.71844638 18.2891405,4.2806844 C18.2143499,4.52022417 17.9369955,4.45288746 17.6015186,4.41290923 C17.2227622,4.36770416 16.8831063,4.32739631 16.8831063,4.32739631 C16.8831063,4.32739631 15.4980153,2.73363516 15.3882072,2.2385455 Z M15.58664,12.4899246 L13.03276,8.82261643 L15.5065656,7.34940213 L15.4264911,7.71824722 L14.3062175,8.51936577 L14.2760995,10.0105208 L15.6608542,12.1344056 L15.58664,12.4899246 Z M20.7095311,9.85136132 C21.0181564,10.0949978 21.3316812,10.0537953 21.50821,9.86327474 L21.516424,9.86336892 C21.516424,9.86336892 23.9117403,7.49678948 24.6668514,6.75650942 C25.4220106,6.01627645 24.6919738,5.10497055 24.6919738,5.10497055 L21.3529127,7.80743305 C21.3529127,7.80743305 19.5963666,5.66433616 19.4144579,5.44207792 C19.1695751,5.14292397 19.0583259,4.96982623 18.5949797,4.92334977 C18.2948087,4.89326015 16.5198171,4.70726014 15.8582783,4.64802266 C16.0474404,4.66568089 16.3010655,4.68946064 15.8470381,4.64792849 C15.8194179,4.64515026 15.7960729,4.64279583 15.7764266,4.64081811 C15.752313,4.63879329 15.7296884,4.63690975 15.7103783,4.63540291 C14.8281184,4.56660645 14.5369299,4.88417205 13.5332853,5.83267795 C13.5332853,5.83267795 11.3590264,7.86544622 11.1002615,8.11911257 C10.8414967,8.37282601 10.5796576,8.86509035 11.0553007,9.35066811 C11.3496596,9.65118763 13.5905912,11.7843017 14.1702783,12.3422076 C13.5086914,12.990759 13.4522982,14.1007789 13.9057492,15.02866 L12.6300341,19.5605621 C12.6300341,19.5605621 9.50141459,24.5409833 9.15359272,25.1087778 C8.80577085,25.6766193 8.25673012,26.6562979 9.45059349,27.3624387 L14.5680086,20.8554518 L16.459341,18.1345306 L15.1382808,16.6258586 L15.2197963,16.3214778 C15.2197963,16.3214778 15.6730551,16.7800738 16.8129751,17.8975807 C17.9529431,19.0150406 19.0034699,20.3885683 19.0034699,20.3885683 C19.0034699,20.3885683 21.6642279,25.7500776 21.9591151,26.3330346 C22.2540024,26.9160387 23.0240524,28.0291664 24.414187,27.5125101 L21.3777948,19.329875 L18.3329005,14.0292984 L19.5601482,8.98507213 L20.7095311,9.85136132 Z" id="Fill-1"></path>
        </g>
    </g>
</svg>