<?xml version="1.0" encoding="UTF-8"?>
<svg width="44px" height="53px" viewBox="0 0 44 53" version="1.1" xmlns="http://www.w3.org/2000/svg" xmlns:xlink="http://www.w3.org/1999/xlink">
    <!-- Generator: Sketch 49.2 (51160) - http://www.bohemiancoding.com/sketch -->
    <title>location-pin-unselected</title>
    <desc>Created with Sketch.</desc>
    <defs>
        <linearGradient x1="50%" y1="0%" x2="50%" y2="100%" id="linearGradient-1">
            <stop stop-color="#19A4EA" offset="0%"></stop>
            <stop stop-color="#0082C3" offset="100%"></stop>
        </linearGradient>
        <path d="M7.52,2.74985211e-16 C3.36,2.74985211e-16 0,3.37272727 0,7.54848485 L0,32.2015152 C0,36.3772727 3.36,39.75 7.52,39.75 L13.04,39.75 C13.36,39.75 15.2,39.9106061 15.36,40.1515152 L21.76,52.8393939 L28.16,40.1515152 C28.32,39.9106061 30.16,39.75 30.48,39.75 L36.08,39.75 C40.24,39.75 43.6,36.3772727 43.6,32.2015152 L43.6,7.54848485 C43.6,3.37272727 40.24,0 36.08,0 C31.5534722,4.35829201e-17 28.1585764,7.62701102e-17 25.8953125,9.80615702e-17 C21.8119097,1.37377935e-16 15.6868056,1.96352482e-16 7.52,2.74985211e-16 Z" id="path-2"></path>
        <filter x="-18.3%" y="-13.2%" width="136.7%" height="130.3%" filterUnits="objectBoundingBox" id="filter-3">
            <feOffset dx="0" dy="1" in="SourceAlpha" result="shadowOffsetOuter1"></feOffset>
            <feGaussianBlur stdDeviation="2.5" in="shadowOffsetOuter1" result="shadowBlurOuter1"></feGaussianBlur>
            <feComposite in="shadowBlurOuter1" in2="SourceAlpha" operator="out" result="shadowBlurOuter1"></feComposite>
            <feColorMatrix values="0 0 0 0 0   0 0 0 0 0   0 0 0 0 0  0 0 0 0.271993886 0" type="matrix" in="shadowBlurOuter1"></feColorMatrix>
        </filter>
    </defs>
    <g id="location-pin-unselected" stroke="none" stroke-width="1" fill="none" fill-rule="evenodd">
        <g id="location-pin">
            <g id="Path">
                <use fill="black" fill-opacity="1" filter="url(#filter-3)" xlink:href="#path-2"></use>
                <use fill="url(#linearGradient-1)" fill-rule="evenodd" xlink:href="#path-2"></use>
                <path stroke="#FFFFFF" stroke-width="1.6" d="M21.7603516,51.0637612 L27.493587,39.7089163 C27.8561269,39.1630466 29.4327868,38.95 30.48,38.95 L36.08,38.95 C39.7974937,38.95 42.8,35.9361206 42.8,32.2015152 L42.8,7.54848485 C42.8,3.81387942 39.7974937,0.8 36.08,0.8 C29.8560243,0.8 29.8560243,0.8 25.8953125,0.8 C18.7493576,0.8 18.7493576,0.8 7.52,0.8 C3.80250629,0.8 0.8,3.81387942 0.8,7.54848485 L0.8,32.2015152 C0.8,35.9361206 3.80250629,38.95 7.52,38.95 L13.04,38.95 C14.0872132,38.95 15.6638731,39.1630466 16.0742749,39.7912217 L21.7603516,51.0637612 Z M28.6049411,40.8017139 C28.6026515,40.8025804 28.6005695,40.8034023 28.5987008,40.8041765 C28.6031444,40.8023356 28.6075985,40.8004198 28.6120829,40.798383 Z"></path>
            </g>
        </g>
        <g id="hockey-sur-gazon" transform="translate(7.000000, 7.000000)" fill="#FFFFFF">
            <path d="M26.4157683,23.821947 C26.4157683,24.4676669 26.0985598,24.7893786 25.9094998,24.9236747 C25.6786919,25.0876259 25.4467127,25.1534759 25.227806,25.1534759 C24.7789817,25.1534759 24.3851653,24.8765962 24.1694447,24.6015137 L17.7873219,17.4187664 C17.8174965,17.4207633 17.847718,17.4221612 17.8780332,17.4221612 C17.9124248,17.4221612 17.9469101,17.4208133 17.9814422,17.4182172 C18.3485982,17.3903096 18.640505,17.2190196 18.8368276,17.0606599 C18.8368276,17.0606599 24.8262585,23.8042739 24.9273716,23.9174022 C25.0285316,24.0304805 25.1765466,24.172465 25.3585784,24.0432112 C25.4142422,24.0036213 25.4225823,23.8875974 25.4225823,23.821947 C25.4225823,23.5296907 25.6449094,23.2928002 25.9191519,23.2928002 C26.1934412,23.2928002 26.4157683,23.5296907 26.4157683,23.821947 Z M18.5862469,16.7629119 C18.5862469,16.7629119 17.9273247,17.232599 17.3412152,16.9080915 C16.5549879,16.4728022 14.1259766,14.3547672 14.1259766,14.3547672 L13.6088845,15.1969888 C13.6088845,15.1969888 16.2881954,18.3877456 16.4251526,18.5806028 C16.6688456,18.9235323 16.7453598,19.4342072 16.4985276,19.9632042 C16.3376274,20.3079309 12.343752,28.5154229 12.343752,28.5154229 C11.1686749,28.320319 11.2722713,26.7270374 11.5599143,25.964445 C11.8476042,25.2018026 13.9059454,19.7315558 13.9059454,19.7315558 C13.8989171,19.7277116 10.9358523,18.0920943 9.78968465,17.0352485 L9.64762022,17.3347938 L11.0207067,18.6544408 C11.0207067,18.6544408 9.59036338,20.6742749 9.39038613,20.958144 C9.25750528,21.1468575 9.00242653,21.4000732 8.69754089,21.5938291 C8.39260839,21.787585 1.27036358,25.8724845 1.27036358,25.8724845 C0.773044356,25.2982562 1.08936262,24.2846946 1.80558852,23.7246947 L6.9788986,19.5154339 L8.79167263,15.5321301 C8.50295197,13.9382993 9.85490684,12.3748225 10.0445291,12.1980409 L11.4301728,8.81502592 C11.6465961,9.76628202 12.1052131,10.8380552 12.4609364,11.7106307 L12.6218834,11.3101885 C12.4938287,11.0132892 12.2259116,10.2035183 11.9993207,9.36229523 C11.738432,8.39361558 11.6008188,7.75378677 11.6551237,7.41520071 C11.9591191,5.51907881 13.6908808,5.01344631 14.7087594,5.31249239 C15.8198794,5.63889694 17.2570636,6.04273396 17.6365424,6.16744467 C18.4429642,6.43249235 18.6252771,7.22748564 18.0757146,8.28248426 C17.8224163,8.76874617 17.38718,9.5720768 17.38718,9.5720768 L17.3804797,9.58241112 L17.6525668,15.0236519 L16.2220361,13.343602 L15.9837314,11.7303508 L15.2438437,12.8681238 L18.5862469,16.7629119 Z M14.7968468,2.55093414 C14.7458217,2.1450003 14.8035939,1.7273842 14.9543734,1.3237968 C15.3892817,0.158865038 16.6473391,-0.254158038 17.6058055,0.152175193 C18.5634285,0.558208878 19.1484135,1.82997847 18.7190809,2.97978319 C18.5815614,3.34812409 18.0685457,4.73032606 17.8200735,5.39581591 C17.7141343,5.67958518 17.4405947,5.56775493 17.0745164,5.46341331 C16.6684708,5.34753919 16.1181116,5.16631427 16.1181116,5.16631427 C16.1181116,5.16631427 14.8738296,3.16275546 14.7968468,2.55093414 Z M28.2293861,21.6472141 C28.2135419,21.6486161 28.1981714,21.6425596 28.1862751,21.6312879 C28.1743787,21.6200162 28.1673252,21.6044825 28.1663777,21.5874908 C28.1654302,21.5705552 28.170694,21.5542365 28.1812744,21.5415067 C28.1918021,21.5288331 28.206383,21.5213186 28.2222272,21.5202531 C28.2234379,21.520197 28.2246486,21.5201409 28.2258067,21.5201409 C28.257074,21.5201409 28.2834459,21.5462173 28.2853936,21.5799203 C28.2873412,21.6149131 28.2622326,21.6450831 28.2293861,21.6472141 Z M28.2101283,21.4146011 C28.169505,21.4172471 28.1322553,21.4365678 28.1052668,21.4690185 C28.0782783,21.5014693 28.064784,21.5432059 28.0672205,21.5864403 C28.0696101,21.6297246 28.0876961,21.6694144 28.1181519,21.6982206 C28.1462649,21.7248302 28.181781,21.7392084 28.2191245,21.7392084 C28.22217,21.7392084 28.2252625,21.7391086 28.2283549,21.7389089 C28.3122723,21.7335171 28.3764636,21.6564341 28.3714502,21.5670697 L28.3714502,21.5670198 C28.366343,21.4776055 28.2939988,21.409409 28.2101283,21.4146011 Z M27.8777806,21.5422698 C27.8789898,21.5421575 27.8801989,21.5421575 27.881408,21.5421575 C27.9126873,21.5421575 27.9390249,21.5682595 27.9409175,21.6019395 C27.9429151,21.6369667 27.9177866,21.6672225 27.8849828,21.6692995 C27.8521789,21.6715448 27.8238962,21.6446008 27.8218985,21.6096298 C27.820006,21.5746026 27.845082,21.5444028 27.8777806,21.5422698 Z M27.8748806,21.7611751 C27.8779262,21.7611751 27.8809718,21.7610752 27.8840642,21.7608755 C27.9679347,21.7554837 28.0321729,21.6784506 28.0271126,21.5890364 C28.0220991,21.499672 27.9497081,21.4312259 27.8657439,21.4366177 C27.7819671,21.4420095 27.7178226,21.5190426 27.7227892,21.6085068 C27.7276621,21.6945762 27.7949928,21.7611751 27.8748806,21.7611751 Z M27.5816597,21.6699916 C27.5710974,21.6826777 27.5565414,21.6902557 27.5406192,21.6912661 C27.5078289,21.6935115 27.4795577,21.6665675 27.4775609,21.6317087 C27.4756691,21.5966254 27.5007348,21.5663134 27.5334201,21.5642364 C27.5346287,21.5641803 27.5358373,21.5641242 27.5369934,21.5641242 C27.5683123,21.5641242 27.5946917,21.5902262 27.5965835,21.6239623 C27.5975294,21.6409145 27.592222,21.6572493 27.5816597,21.6699916 Z M27.5214063,21.4585844 C27.4376764,21.4639263 27.3735318,21.5410093 27.3784048,21.6305234 C27.3833714,21.7165927 27.4506552,21.7831417 27.530543,21.7831417 C27.5335418,21.7831417 27.5366342,21.7830419 27.5396798,21.7828422 C27.5803499,21.780296 27.6175997,21.7609754 27.6446819,21.7285246 C27.6716704,21.696024 27.6852115,21.6543372 27.6828219,21.6110529 C27.6778084,21.5216387 27.6054174,21.4532924 27.5214063,21.4585844 Z M27.6828219,21.6111303 L27.6828219,21.611003 L27.6828219,21.6111303 Z M27.9717955,22.1502656 C27.9737406,22.185294 27.9486646,22.2154948 27.9158608,22.2175718 C27.8998794,22.2186384 27.8846341,22.2129126 27.8727007,22.2016294 C27.8608198,22.1904023 27.8537228,22.1748528 27.8527765,22.1579 C27.8508315,22.1228715 27.8759074,22.0926707 27.9086587,22.0905376 C27.9099203,22.0904814 27.9111295,22.0904253 27.9123386,22.0904253 C27.9269005,22.0904253 27.9408316,22.0960388 27.9518188,22.1065361 C27.9637522,22.1177632 27.9708492,22.1333127 27.9717955,22.1502094 L27.9717955,22.1502656 Z M27.8966213,21.9848855 C27.8127977,21.9902773 27.7486532,22.0673603 27.7536667,22.1567247 C27.7560563,22.200009 27.7741423,22.2396987 27.8046449,22.268505 C27.8327579,22.2951146 27.868274,22.3094429 27.9056175,22.3094429 C27.9087099,22.3094429 27.9118024,22.309343 27.9148948,22.3091433 C27.9988121,22.3038014 28.0629567,22.2267684 28.05799,22.1373541 C28.0556004,22.0940698 28.0374207,22.0543301 28.0069181,22.0255238 C27.9764623,21.9967175 27.9372915,21.9822894 27.8966213,21.9848855 Z M27.805765,21.0110953 C27.8163887,20.9983493 27.8309568,20.9908253 27.8468924,20.9898146 C27.848102,20.9897023 27.8493116,20.9896462 27.8505213,20.9896462 C27.865142,20.9896462 27.8790264,20.9952611 27.8900183,21.0057049 C27.9019042,21.016991 27.9090042,21.0324883 27.9098983,21.0494454 L27.9098983,21.0495016 C27.9118442,21.0844827 27.8867575,21.1146912 27.8539398,21.1168249 C27.8380568,21.1177233 27.8227524,21.1121645 27.8108665,21.1009346 C27.798928,21.0895924 27.791828,21.0740389 27.7908813,21.0570256 C27.7899346,21.0401246 27.7952465,21.0237851 27.805765,21.0110953 Z M27.8436752,21.2086637 C27.8467676,21.2086637 27.84986,21.2085639 27.8529993,21.2083642 C27.9368698,21.2029724 28.0010612,21.1259393 27.9960946,21.0365749 C27.9936581,20.9932906 27.9755721,20.953551 27.9451163,20.9247946 C27.9146605,20.8959883 27.8754897,20.8816102 27.8348196,20.8841064 C27.7941494,20.8867024 27.7568997,20.9060231 27.7298643,20.9384239 C27.702829,20.9709246 27.6892879,21.0126612 27.6917243,21.0558956 C27.6941608,21.0991799 27.7122937,21.1389196 27.7427494,21.1676759 C27.7708625,21.1943355 27.8063786,21.2086637 27.8436752,21.2086637 Z M28.4289413,22.122227 C28.4196171,22.1334101 28.4094964,22.1435447 28.3996569,22.1540787 C28.4018591,22.1415477 28.4030773,22.1286673 28.4023276,22.1153874 L28.4023276,22.1152876 C28.3972673,22.0259232 28.3247825,21.9577767 28.2409589,21.9629188 C28.1571353,21.9683107 28.0929907,22.0453937 28.0980042,22.1347081 C28.1004407,22.1779924 28.1184799,22.2177321 28.1489356,22.2464884 C28.1738157,22.2700527 28.2046463,22.2833325 28.2372105,22.2862281 C28.1407829,22.3439904 28.0329695,22.3789374 27.9192992,22.3862263 C27.8055352,22.3935652 27.6945356,22.3725471 27.5922511,22.3273657 C27.6651575,22.3112901 27.7181974,22.2407471 27.7136525,22.1593207 C27.711216,22.1160364 27.6930831,22.0762968 27.6625336,22.0474905 C27.6320779,22.0187341 27.5929071,22.0045556 27.5522838,22.0069021 C27.5116605,22.0094981 27.4744107,22.0288188 27.4474222,22.0612696 C27.4204337,22.0937203 27.4068926,22.135457 27.4093759,22.1786913 C27.4101256,22.1919212 27.4127495,22.204602 27.4163105,22.2169333 C27.4053933,22.2076973 27.3941481,22.1989106 27.3836057,22.1889258 C27.2733558,22.084684 27.1965136,21.950987 27.1595918,21.8025123 C27.16826,21.8041598 27.1771156,21.8051084 27.186018,21.8051084 C27.1891105,21.8051084 27.1922498,21.8050085 27.195389,21.8048088 C27.2360123,21.8022128 27.2732621,21.7828921 27.3002974,21.7504913 C27.3273796,21.7179906 27.3409207,21.6763039 27.3384374,21.6330196 C27.336001,21.5897353 27.3178681,21.5499956 27.2874123,21.5212393 C27.2569565,21.4923831 27.2177389,21.477955 27.1771624,21.480601 C27.1649333,21.4813498 27.1532195,21.4840956 27.1417869,21.48779 C27.1617471,21.3355711 27.2231272,21.1928877 27.3210074,21.0752662 C27.3298161,21.0646823 27.3394214,21.0551467 27.3486987,21.045112 C27.347293,21.0558457 27.3467776,21.066829 27.3474336,21.0779122 C27.3498701,21.1211965 27.3679561,21.1608862 27.3984119,21.1896426 C27.4265249,21.2162522 27.462041,21.2306304 27.4993376,21.2306304 C27.50243,21.2306304 27.5055224,21.2305305 27.5086149,21.2303308 C27.5925322,21.2249889 27.6567705,21.1479059 27.6517101,21.0584917 C27.6493205,21.0152074 27.6311876,20.9754677 27.600685,20.9467113 C27.5776323,20.9249444 27.5495662,20.911365 27.5197195,20.9072213 C27.6143667,20.8519052 27.7197436,20.8183562 27.8307432,20.8112669 C27.8458773,20.8103184 27.8609647,20.8098691 27.876052,20.8098691 C27.9714488,20.8098691 28.0643623,20.829689 28.1510441,20.8668825 C28.1214786,20.8747206 28.0948181,20.8916948 28.0742019,20.9164573 C28.0471665,20.9489579 28.0336254,20.9906946 28.0361087,21.033929 C28.0385452,21.0772133 28.0566312,21.116903 28.0870402,21.1457093 C28.1151532,21.1723189 28.1507161,21.1866471 28.1879659,21.1866471 C28.1910583,21.1866471 28.1941976,21.1865473 28.19729,21.1863975 C28.2379602,21.1838015 28.2752099,21.1644808 28.3022453,21.13203 C28.3292806,21.0995294 28.3428217,21.0578427 28.3403853,21.0145084 C28.3397762,21.0033254 28.3379957,20.992392 28.3353249,20.9818081 C28.3456799,20.9906447 28.356316,20.9991318 28.3662961,21.0085674 C28.4766865,21.1128591 28.5535288,21.246706 28.5904505,21.3952805 C28.5786899,21.3930339 28.566695,21.3917858 28.5544659,21.3926345 C28.4705954,21.3980263 28.4064977,21.4751093 28.4115112,21.5645236 C28.4163841,21.6505929 28.4836679,21.7171918 28.5635089,21.7171918 C28.5665545,21.7171918 28.5696469,21.717092 28.5726925,21.7168923 C28.5849216,21.7160935 28.5967291,21.7133477 28.6081617,21.7096034 C28.5882015,21.8618722 28.5268683,22.0046056 28.4289413,22.122227 Z M28.260135,22.195531 C28.2442982,22.196709 28.2289875,22.1909308 28.2170441,22.1795986 C28.2051533,22.1683786 28.198103,22.152839 28.1972086,22.1358407 C28.1952092,22.1008905 28.2202535,22.0706527 28.2530321,22.068577 C28.2542422,22.0684648 28.2554524,22.0684087 28.2566099,22.0684087 C28.2879153,22.0684087 28.3142749,22.0944951 28.3162217,22.1282111 C28.3181684,22.1632174 28.2930188,22.1933992 28.260135,22.195531 Z M27.5085331,22.1798038 C27.507586,22.1628526 27.5128475,22.1465189 27.5233706,22.1337774 C27.5339463,22.1210921 27.5485208,22.1135707 27.5643581,22.1125604 C27.5655682,22.1124481 27.5667784,22.112392 27.5679886,22.112392 C27.582563,22.112392 27.5965061,22.1180611 27.6075554,22.1285012 C27.6194991,22.1397833 27.6266022,22.1553313 27.6275493,22.1722263 L27.6275493,22.1722825 C27.629496,22.2072513 27.6043458,22.2374491 27.5714612,22.2395259 C27.5556239,22.2406485 27.5403128,22.2349233 27.5284217,22.2236412 C27.5165306,22.2124153 27.5094802,22.1968673 27.5085331,22.1798038 Z M27.1381199,21.6742715 C27.1375274,21.6672552 27.1363422,21.6604073 27.1359651,21.6533349 C27.1355341,21.6462625 27.1359651,21.6393023 27.1356957,21.632286 C27.1381738,21.6232491 27.1420525,21.6147173 27.1481938,21.6075326 C27.158968,21.594791 27.1738902,21.5872696 27.1901593,21.5862592 C27.1914522,21.586147 27.1926912,21.5860908 27.1939302,21.5860908 C27.2088525,21.5860908 27.2230744,21.5917039 27.2343873,21.6021441 C27.2465622,21.6134263 27.2538347,21.6290305 27.2548044,21.6459257 L27.2548044,21.6459818 C27.255828,21.6629332 27.250387,21.6792109 27.2395589,21.6918964 C27.2287309,21.7046379 27.2138086,21.7121594 27.1974857,21.7132259 C27.1812167,21.7143485 27.1655403,21.708567 27.1533654,21.697341 C27.1464161,21.6909421 27.1416215,21.6829155 27.1381199,21.6742715 Z M27.5061736,21.0116628 C27.5207404,21.0116628 27.5346235,21.0172802 27.5456143,21.0276724 C27.5575517,21.0389635 27.564651,21.0545238 27.5655976,21.0714322 C27.5675434,21.106485 27.5424065,21.136763 27.5095918,21.1388414 C27.4937103,21.1397402 27.4784073,21.134179 27.4664699,21.1228879 C27.4545851,21.1115969 27.4475384,21.0960366 27.4465918,21.079072 C27.4455927,21.0620511 27.450904,21.0457606 27.4614215,21.0330652 C27.4719916,21.0203136 27.4865584,21.0127862 27.5024925,21.0117751 C27.503702,21.0116628 27.5049115,21.0116628 27.5061736,21.0116628 Z M28.25428,21.0274895 C28.2552271,21.0444498 28.249913,21.0607922 28.2393375,21.0735405 C28.228762,21.0862325 28.2141877,21.0938141 28.1982981,21.094825 C28.1823559,21.095892 28.1670977,21.0902199 28.1552068,21.0789318 C28.1433159,21.0676437 28.1362129,21.0520875 28.1352659,21.0350711 C28.1343188,21.0181109 28.1395803,21.0017684 28.1501558,20.9890763 C28.1607313,20.9763281 28.1752529,20.9688027 28.1911425,20.9677918 C28.1923527,20.9677357 28.1935628,20.9676795 28.1947729,20.9676795 C28.2093472,20.9676795 28.22329,20.9732955 28.2343391,20.9837412 C28.24623,20.9949731 28.253333,21.0105293 28.25428,21.0274895 Z M28.6273753,21.5374151 C28.6279141,21.5443763 28.6291533,21.5511691 28.6295843,21.5581864 L28.6295843,21.5582425 C28.6299614,21.5652037 28.6295304,21.5721088 28.6297459,21.5791261 C28.6273215,21.5881644 28.6234423,21.5967536 28.6172464,21.6039955 C28.6064172,21.6167389 28.5914932,21.6243176 28.5752223,21.6253281 C28.5418185,21.6274614 28.5127249,21.6006272 28.5106237,21.5656528 C28.5086303,21.5306224 28.5343296,21.5003637 28.5678412,21.4982866 C28.5691342,21.4982304 28.5703734,21.4981743 28.5716126,21.4981743 C28.5865365,21.4981743 28.6007601,21.5037881 28.6120742,21.5142299 C28.6190783,21.5206858 28.6238733,21.5287137 28.6273753,21.5374151 Z M28.9114543,21.5325721 C28.8948676,21.2376198 28.7714983,20.9671303 28.5640243,20.7710779 C28.3565034,20.5749257 28.0898046,20.4766748 27.8128914,20.4943979 C27.5359782,20.5120212 27.2821177,20.6435215 27.098118,20.8646359 C26.9140715,21.0857004 26.8218608,21.369919 26.8384943,21.6648713 C26.8550341,21.9598735 26.9784034,22.2303629 27.1859243,22.4264153 C27.3774677,22.6074905 27.6196144,22.7051422 27.8736155,22.7051422 C27.8946534,22.7051422 27.9158788,22.7044932 27.9371041,22.7030953 C28.2139704,22.6854222 28.4678309,22.5539717 28.6518306,22.3328573 C28.8358772,22.1117929 28.9280878,21.8275743 28.9114543,21.5325721 Z" id="Fill-1"></path>
        </g>
    </g>
</svg>