<?xml version="1.0" encoding="UTF-8"?>
<svg width="44px" height="53px" viewBox="0 0 44 53" version="1.1" xmlns="http://www.w3.org/2000/svg" xmlns:xlink="http://www.w3.org/1999/xlink">
    <!-- Generator: Sketch 49.2 (51160) - http://www.bohemiancoding.com/sketch -->
    <title>location-pin-unselected</title>
    <desc>Created with Sketch.</desc>
    <defs>
        <linearGradient x1="50%" y1="0%" x2="50%" y2="100%" id="linearGradient-1">
            <stop stop-color="#19A4EA" offset="0%"></stop>
            <stop stop-color="#0082C3" offset="100%"></stop>
        </linearGradient>
        <path d="M7.52,2.74985211e-16 C3.36,2.74985211e-16 0,3.37272727 0,7.54848485 L0,32.2015152 C0,36.3772727 3.36,39.75 7.52,39.75 L13.04,39.75 C13.36,39.75 15.2,39.9106061 15.36,40.1515152 L21.76,52.8393939 L28.16,40.1515152 C28.32,39.9106061 30.16,39.75 30.48,39.75 L36.08,39.75 C40.24,39.75 43.6,36.3772727 43.6,32.2015152 L43.6,7.54848485 C43.6,3.37272727 40.24,0 36.08,0 C31.5534722,4.35829201e-17 28.1585764,7.62701102e-17 25.8953125,9.80615702e-17 C21.8119097,1.37377935e-16 15.6868056,1.96352482e-16 7.52,2.74985211e-16 Z" id="path-2"></path>
        <filter x="-18.3%" y="-13.2%" width="136.7%" height="130.3%" filterUnits="objectBoundingBox" id="filter-3">
            <feOffset dx="0" dy="1" in="SourceAlpha" result="shadowOffsetOuter1"></feOffset>
            <feGaussianBlur stdDeviation="2.5" in="shadowOffsetOuter1" result="shadowBlurOuter1"></feGaussianBlur>
            <feComposite in="shadowBlurOuter1" in2="SourceAlpha" operator="out" result="shadowBlurOuter1"></feComposite>
            <feColorMatrix values="0 0 0 0 0   0 0 0 0 0   0 0 0 0 0  0 0 0 0.271993886 0" type="matrix" in="shadowBlurOuter1"></feColorMatrix>
        </filter>
    </defs>
    <g id="location-pin-unselected" stroke="none" stroke-width="1" fill="none" fill-rule="evenodd">
        <g id="location-pin">
            <g id="Path">
                <use fill="black" fill-opacity="1" filter="url(#filter-3)" xlink:href="#path-2"></use>
                <use fill="url(#linearGradient-1)" fill-rule="evenodd" xlink:href="#path-2"></use>
                <path stroke="#FFFFFF" stroke-width="1.6" d="M21.7603516,51.0637612 L27.493587,39.7089163 C27.8561269,39.1630466 29.4327868,38.95 30.48,38.95 L36.08,38.95 C39.7974937,38.95 42.8,35.9361206 42.8,32.2015152 L42.8,7.54848485 C42.8,3.81387942 39.7974937,0.8 36.08,0.8 C29.8560243,0.8 29.8560243,0.8 25.8953125,0.8 C18.7493576,0.8 18.7493576,0.8 7.52,0.8 C3.80250629,0.8 0.8,3.81387942 0.8,7.54848485 L0.8,32.2015152 C0.8,35.9361206 3.80250629,38.95 7.52,38.95 L13.04,38.95 C14.0872132,38.95 15.6638731,39.1630466 16.0742749,39.7912217 L21.7603516,51.0637612 Z M28.6049411,40.8017139 C28.6026515,40.8025804 28.6005695,40.8034023 28.5987008,40.8041765 C28.6031444,40.8023356 28.6075985,40.8004198 28.6120829,40.798383 Z"></path>
            </g>
        </g>
        <g id="waterpolo" transform="translate(8.000000, 8.000000)" fill="#FFFFFF">
            <path d="M28.5211086,20.6590728 L28.5211086,21.2177453 C21.6010585,21.2177453 18.0834281,20.5519474 14.6816867,19.9081239 C11.3114612,19.270213 7.82654689,18.6106071 0.972137605,18.6106071 L0.972137605,18.0519346 C5.11961771,18.0519346 8.04465406,18.2911861 10.4553123,18.6214081 L11.2310016,17.5599304 L11.7064544,15.0227193 L9.7751623,12.247281 C9.7751623,12.247281 4.94330571,11.5669576 3.99600051,11.4341798 C3.04869531,11.3013554 2.81816959,10.984495 2.96432227,10.1704627 C3.0457733,9.71714649 3.42829571,7.63832621 3.75138653,5.88474642 C4.32493535,6.05737622 4.9411142,6.07632453 5.52144626,5.94508305 L5.52812514,9.56034575 L11.4340813,9.31932513 C11.4340813,9.31932513 18.123397,10.3413699 18.6701781,10.424938 C19.2325607,10.5108339 19.5099429,10.620613 19.8447218,11.1147122 C20.203555,11.6443338 22.3140811,14.8782559 22.3140811,14.8782559 L28.3320129,15.4059221 C28.3320129,15.4059221 28.2972096,16.3818298 27.1667048,16.4456581 C26.4361502,16.4869068 23.2058159,16.628763 21.8009553,16.6861201 C21.0895502,16.715171 20.9708436,16.6847234 20.6167064,16.2915576 C20.2421151,15.8757656 19.0439345,14.5180519 19.0439345,14.5180519 L19.1494921,13.5751989 L18.8858329,13.5373023 L18.2748719,16.4259184 L17.5493786,19.8562605 C20.2444632,20.3004051 23.4666575,20.6590728 28.5211086,20.6590728 Z M13.3912018,6.82429386 C13.317682,6.44258089 13.3667822,6.04583032 13.5210226,5.65894963 C13.9665247,4.54216335 15.3696635,4.10542114 16.4669304,4.45370688 C17.5633103,4.80185294 18.2728891,5.98172265 17.8333353,7.08407656 C17.6924527,7.43706445 17.1963893,8.68122806 16.9419658,9.31923202 C16.8334861,9.59111929 16.4868627,9.4998229 16.0648931,9.43692569 C15.5887099,9.36597429 15.1617312,9.30270463 15.1617312,9.30270463 C15.1617312,9.30270463 13.5020295,7.39935406 13.3912018,6.82429386 Z M6.33731319,4.50994657 C6.3291733,4.51804732 6.32056381,4.52568251 6.31231957,4.5336436 L5.2478209,2.84007454 L5.904647,2.5113889 L6.76053503,3.87315306 C6.66922222,4.10523492 6.52666987,4.32116183 6.33731319,4.50994657 Z M4.86915971,5.13957045 C4.65042639,5.15009212 4.43513687,5.1310507 4.22871773,5.08463432 L3.39928433,3.76491027 L4.00622754,3.46127178 L5.05079394,5.12332239 C4.99084055,5.13081792 4.93036538,5.13654431 4.86915971,5.13957045 Z M3.16568007,1.97734457 C3.54481086,1.59930953 4.06618093,1.37574743 4.63367701,1.34767413 C4.67401118,1.34567223 4.71403229,1.34469455 4.75405339,1.34469455 C4.90469344,1.34469455 5.0530898,1.35917348 5.1977293,1.38664154 L5.25455195,1.47700681 L2.74918928,2.73052818 L2.71819511,2.68117878 C2.80742077,2.42372388 2.95826954,2.18409994 3.16568007,1.97734457 Z M2.70024562,3.74996578 C2.66032887,3.62030721 2.63512654,3.48608615 2.62656922,3.34869927 C2.6231776,3.29311136 2.62281235,3.23784934 2.62474297,3.18286666 L2.9139176,3.64302656 L2.70024562,3.74996578 Z M3.18342084,4.52759131 C3.03617241,4.38494361 2.91600475,4.22479083 2.82505719,4.05220759 L3.08829898,3.92050055 L3.4013193,4.41855707 L3.18342084,4.52759131 Z M3.70072097,4.89491846 C3.61791329,4.85278525 3.5380798,4.80553087 3.46137704,4.75320188 L3.57570068,4.69598451 L3.70072097,4.89491846 Z M3.22485077,3.48743627 L2.92362285,3.00800218 L5.42888116,1.75448081 L5.73026562,2.23391491 L3.22485077,3.48743627 Z M4.93683555,2.99566483 L6.04198147,4.75380711 C5.85178992,4.88374501 5.63952677,4.9830956 5.41275792,5.04883273 L4.31726507,3.30568149 L4.93683555,2.99566483 Z M6.30506672,1.94629169 L6.04119878,2.07832462 L5.73986651,1.59893708 L5.77821789,1.57975599 C5.91753515,1.64851926 6.04923431,1.73171491 6.17086298,1.82878425 C6.21792821,1.86635497 6.26243668,1.90574138 6.30506672,1.94629169 Z M6.21568452,2.35579862 L6.52912227,2.19895132 C6.64788111,2.35919721 6.73794163,2.53434103 6.79706015,2.71944784 L6.52860049,2.85376202 L6.21568452,2.35579862 Z M6.87647621,3.13859187 C6.8819028,3.22676901 6.8801809,3.31420125 6.87235409,3.40074893 L6.70298187,3.13128257 L6.8683885,3.04850593 C6.8718323,3.07839491 6.8745456,3.10842355 6.87647621,3.13859187 Z M7.41042136,3.11224115 C7.3710264,2.47856689 7.05748429,1.89647673 6.52750473,1.47318922 C5.99742081,1.04994826 5.31460969,0.835511143 4.60414384,0.871219625 C3.89393888,0.906322879 3.24154797,1.18607812 2.76719095,1.65908748 C2.29283394,2.13200373 2.0532813,2.74142229 2.0925719,3.37504999 C2.13191468,4.00872425 2.44545678,4.59081441 2.9755407,5.01405537 L2.97548852,5.01400881 C3.46789938,5.40731424 4.09232248,5.619796 4.74815719,5.61974944 C4.79814443,5.61974944 4.84839257,5.61853899 4.89869288,5.61607152 C5.60895002,5.58096826 6.26139311,5.30111991 6.73575012,4.82820366 C7.21021149,4.35533396 7.44981631,3.7459154 7.41042136,3.11224115 Z" id="Fill-1"></path>
        </g>
    </g>
</svg>