<?xml version="1.0" encoding="UTF-8"?>
<svg width="44px" height="53px" viewBox="0 0 44 53" version="1.1" xmlns="http://www.w3.org/2000/svg" xmlns:xlink="http://www.w3.org/1999/xlink">
    <!-- Generator: Sketch 49.2 (51160) - http://www.bohemiancoding.com/sketch -->
    <title>location-pin-unselected</title>
    <desc>Created with Sketch.</desc>
    <defs>
        <linearGradient x1="50%" y1="0%" x2="50%" y2="100%" id="linearGradient-1">
            <stop stop-color="#19A4EA" offset="0%"></stop>
            <stop stop-color="#0082C3" offset="100%"></stop>
        </linearGradient>
        <path d="M7.52,2.74985211e-16 C3.36,2.74985211e-16 0,3.37272727 0,7.54848485 L0,32.2015152 C0,36.3772727 3.36,39.75 7.52,39.75 L13.04,39.75 C13.36,39.75 15.2,39.9106061 15.36,40.1515152 L21.76,52.8393939 L28.16,40.1515152 C28.32,39.9106061 30.16,39.75 30.48,39.75 L36.08,39.75 C40.24,39.75 43.6,36.3772727 43.6,32.2015152 L43.6,7.54848485 C43.6,3.37272727 40.24,0 36.08,0 C31.5534722,4.35829201e-17 28.1585764,7.62701102e-17 25.8953125,9.80615702e-17 C21.8119097,1.37377935e-16 15.6868056,1.96352482e-16 7.52,2.74985211e-16 Z" id="path-2"></path>
        <filter x="-18.3%" y="-13.2%" width="136.7%" height="130.3%" filterUnits="objectBoundingBox" id="filter-3">
            <feOffset dx="0" dy="1" in="SourceAlpha" result="shadowOffsetOuter1"></feOffset>
            <feGaussianBlur stdDeviation="2.5" in="shadowOffsetOuter1" result="shadowBlurOuter1"></feGaussianBlur>
            <feComposite in="shadowBlurOuter1" in2="SourceAlpha" operator="out" result="shadowBlurOuter1"></feComposite>
            <feColorMatrix values="0 0 0 0 0   0 0 0 0 0   0 0 0 0 0  0 0 0 0.271993886 0" type="matrix" in="shadowBlurOuter1"></feColorMatrix>
        </filter>
        <polygon id="path-4" points="4.79002334e-06 0.0201978617 29.8543602 0.0201978617 29.8543602 9.63657706 4.79002334e-06 9.63657706"></polygon>
    </defs>
    <g id="location-pin-unselected" stroke="none" stroke-width="1" fill="none" fill-rule="evenodd">
        <g id="location-pin">
            <g id="Path">
                <use fill="black" fill-opacity="1" filter="url(#filter-3)" xlink:href="#path-2"></use>
                <use fill="url(#linearGradient-1)" fill-rule="evenodd" xlink:href="#path-2"></use>
                <path stroke="#FFFFFF" stroke-width="1.6" d="M21.7603516,51.0637612 L27.493587,39.7089163 C27.8561269,39.1630466 29.4327868,38.95 30.48,38.95 L36.08,38.95 C39.7974937,38.95 42.8,35.9361206 42.8,32.2015152 L42.8,7.54848485 C42.8,3.81387942 39.7974937,0.8 36.08,0.8 C29.8560243,0.8 29.8560243,0.8 25.8953125,0.8 C18.7493576,0.8 18.7493576,0.8 7.52,0.8 C3.80250629,0.8 0.8,3.81387942 0.8,7.54848485 L0.8,32.2015152 C0.8,35.9361206 3.80250629,38.95 7.52,38.95 L13.04,38.95 C14.0872132,38.95 15.6638731,39.1630466 16.0742749,39.7912217 L21.7603516,51.0637612 Z M28.6049411,40.8017139 C28.6026515,40.8025804 28.6005695,40.8034023 28.5987008,40.8041765 C28.6031444,40.8023356 28.6075985,40.8004198 28.6120829,40.798383 Z"></path>
            </g>
        </g>
        <g id="lackline" transform="translate(5.000000, 6.000000)">
            <g id="Page-1" transform="translate(1.148674, 0.000000)">
                <g id="Group-3" transform="translate(0.000000, 19.445835)">
                    <mask id="mask-5" fill="white">
                        <use xlink:href="#path-4"></use>
                    </mask>
                    <g id="Clip-2"></g>
                    <path d="M21.7036882,8.16840228 L14.1072099,6.71253527 L7.01719812,3.6293378 C0.0836858166,0.614238803 -0.166256007,0.582353567 0.0456783061,0.0581914004 C0.165382908,-0.237972735 3.13651697,1.23862137 7.30327653,3.04860723 L14.3604432,6.11405311 L22.0087877,7.56714749 C26.2153564,8.36637476 29.7124978,9.07440958 29.7802669,9.14051312 C29.9600143,9.31593264 29.7884089,9.65003445 29.5256824,9.63617131 C29.4016469,9.62964549 25.8817426,8.96915111 21.7036882,8.16843609 L21.7036882,8.16840228 Z" id="Fill-1" fill="#FFFFFF" mask="url(#mask-5)"></path>
                </g>
                <path d="M13.2893278,21.9011704 C13.1281163,20.3338234 12.8585991,18.2078255 12.6845337,17.12579 C12.6781933,17.0866013 12.6751444,17.0467363 12.6751444,17.0070741 C12.6759066,13.6151343 12.3911448,13.4999687 12.2239048,12.8501253 C12.0556948,12.1964272 11.7111326,8.27288644 11.3523653,7.36627051 C11.2171043,7.02452706 11.1872387,7.01347035 10.6132803,7.09276078 C8.96790501,7.32001494 7.57236762,7.32485013 6.62259562,7.10655631 C5.06030331,6.74750083 4.35219256,6.2261451 4.76594433,5.73954868 C4.97999209,5.48784805 5.40632064,5.5133089 6.68430153,5.86249111 C6.74004819,5.87770676 6.7973193,5.88676852 6.85511012,5.88971022 L9.11380258,6.0052477 C9.17010358,6.00815558 9.22671641,6.0049772 9.28239378,5.99615213 C10.8943696,5.74025874 11.7820199,5.75905852 12.7087864,6.06448729 C13.3969753,6.29130189 13.5906508,6.30624703 14.3476481,6.19114911 C15.9866137,5.9419168 16.5437685,5.7159137 17.2317495,5.02133628 C18.4678771,3.77331502 18.5831469,3.52425177 18.6534798,1.94906026 C18.7189276,0.483150924 18.8812131,3.3812551e-06 19.3081999,3.3812551e-06 C19.4373284,3.3812551e-06 19.6040487,0.0717874272 19.6786432,0.159530997 C19.8819505,0.398585733 20.0649894,2.50443141 19.9394988,3.16009059 C19.7571181,4.11292828 19.0793233,5.16338281 17.7966651,6.48132842 C16.5382943,7.77425275 15.7757881,8.74842616 15.7757881,9.06311957 C15.7757881,9.33439767 16.4815082,11.2382472 16.9692655,12.2828521 C18.2355358,14.9816009 23.9015998,20.7275706 23.0977947,21.421066 C22.1179146,22.200141 21.608815,20.4224461 19.3612095,18.2357884 C17.5045928,16.429522 15.7607861,14.9506286 15.6783267,14.9506286 C15.1173608,14.9506286 14.0394651,16.199529 14.7625086,20.943227 C15.4855174,25.6869589 14.2147084,25.6444903 14.1225827,25.0824919 C14.1225827,25.0824919 13.8225763,24.2161805 13.2893278,21.9012042 L13.2893278,21.9011704 Z" id="Fill-4" fill="#FFFFFF"></path>
                <path d="M12.8266721,5.04828826 C12.9268359,5.24311618 13.2238627,5.19114629 13.3949485,5.17315802 L14.0142249,5.10806885 C14.0142249,5.10806885 14.8728759,3.87881356 14.9618834,3.48253046 C15.0209908,3.21963788 15.0027666,2.94288215 14.9175009,2.6698458 C14.6712317,1.88174286 13.7947376,1.53857927 13.0869386,1.74933291 C12.3797287,1.95981604 11.8907588,2.75894187 12.1339445,3.53676579 C12.2118997,3.78589667 12.8266721,5.04828826 12.8266721,5.04828826" id="Fill-6" fill="#FFFFFF"></path>
            </g>
        </g>
    </g>
</svg>