<?xml version="1.0" encoding="UTF-8"?>
<svg width="44px" height="53px" viewBox="0 0 44 53" version="1.1" xmlns="http://www.w3.org/2000/svg" xmlns:xlink="http://www.w3.org/1999/xlink">
    <!-- Generator: Sketch 49.2 (51160) - http://www.bohemiancoding.com/sketch -->
    <title>location-pin-unselected</title>
    <desc>Created with Sketch.</desc>
    <defs>
        <linearGradient x1="50%" y1="0%" x2="50%" y2="100%" id="linearGradient-1">
            <stop stop-color="#19A4EA" offset="0%"></stop>
            <stop stop-color="#0082C3" offset="100%"></stop>
        </linearGradient>
        <path d="M7.52,2.74985211e-16 C3.36,2.74985211e-16 0,3.37272727 0,7.54848485 L0,32.2015152 C0,36.3772727 3.36,39.75 7.52,39.75 L13.04,39.75 C13.36,39.75 15.2,39.9106061 15.36,40.1515152 L21.76,52.8393939 L28.16,40.1515152 C28.32,39.9106061 30.16,39.75 30.48,39.75 L36.08,39.75 C40.24,39.75 43.6,36.3772727 43.6,32.2015152 L43.6,7.54848485 C43.6,3.37272727 40.24,0 36.08,0 C31.5534722,4.35829201e-17 28.1585764,7.62701102e-17 25.8953125,9.80615702e-17 C21.8119097,1.37377935e-16 15.6868056,1.96352482e-16 7.52,2.74985211e-16 Z" id="path-2"></path>
        <filter x="-18.3%" y="-13.2%" width="136.7%" height="130.3%" filterUnits="objectBoundingBox" id="filter-3">
            <feOffset dx="0" dy="1" in="SourceAlpha" result="shadowOffsetOuter1"></feOffset>
            <feGaussianBlur stdDeviation="2.5" in="shadowOffsetOuter1" result="shadowBlurOuter1"></feGaussianBlur>
            <feComposite in="shadowBlurOuter1" in2="SourceAlpha" operator="out" result="shadowBlurOuter1"></feComposite>
            <feColorMatrix values="0 0 0 0 0   0 0 0 0 0   0 0 0 0 0  0 0 0 0.271993886 0" type="matrix" in="shadowBlurOuter1"></feColorMatrix>
        </filter>
        <polygon id="path-4" points="0 1.07714753e-05 23.2033529 1.07714753e-05 23.2033529 28.0795664 0 28.0795664"></polygon>
    </defs>
    <g id="location-pin-unselected" stroke="none" stroke-width="1" fill="none" fill-rule="evenodd">
        <g id="location-pin">
            <g id="Path">
                <use fill="black" fill-opacity="1" filter="url(#filter-3)" xlink:href="#path-2"></use>
                <use fill="url(#linearGradient-1)" fill-rule="evenodd" xlink:href="#path-2"></use>
                <path stroke="#FFFFFF" stroke-width="1.6" d="M21.7603516,51.0637612 L27.493587,39.7089163 C27.8561269,39.1630466 29.4327868,38.95 30.48,38.95 L36.08,38.95 C39.7974937,38.95 42.8,35.9361206 42.8,32.2015152 L42.8,7.54848485 C42.8,3.81387942 39.7974937,0.8 36.08,0.8 C29.8560243,0.8 29.8560243,0.8 25.8953125,0.8 C18.7493576,0.8 18.7493576,0.8 7.52,0.8 C3.80250629,0.8 0.8,3.81387942 0.8,7.54848485 L0.8,32.2015152 C0.8,35.9361206 3.80250629,38.95 7.52,38.95 L13.04,38.95 C14.0872132,38.95 15.6638731,39.1630466 16.0742749,39.7912217 L21.7603516,51.0637612 Z M28.6049411,40.8017139 C28.6026515,40.8025804 28.6005695,40.8034023 28.5987008,40.8041765 C28.6031444,40.8023356 28.6075985,40.8004198 28.6120829,40.798383 Z"></path>
            </g>
        </g>
        <g id="gym-pilates" transform="translate(9.000000, 7.000000)">
            <g id="Page-1" stroke-width="1" transform="translate(2.879763, 0.000000)">
                <mask id="mask-5" fill="white">
                    <use xlink:href="#path-4"></use>
                </mask>
                <g id="Clip-2"></g>
            </g>
            <path d="M24.0329532,16.4670015 C22.4064791,16.4241286 17.7473275,16.2867309 17.7473275,16.2867309 C17.2990885,15.7290071 16.5312252,15.4862585 16.013276,15.4133855 C15.3410849,15.3187529 11.1285945,14.7129857 11.1285945,14.7129857 L11.2595998,14.9458239 C11.2595998,14.9458239 14.1621804,15.3758449 15.9769866,15.6532256 C17.79251,15.9307141 17.8450077,17.5002043 17.8567217,17.785341 C17.8684835,18.0704776 18.2389799,27.915986 18.2389799,27.915986 C17.6283708,28.2315537 16.8906292,27.6836325 16.7054049,26.5428166 C16.5096141,25.3370991 16.0732325,22.2371134 15.5898037,18.7764251 C13.9448264,18.7748093 12.5916944,18.7005897 11.58434,18.6167292 C12.9317823,19.5842763 13.8073664,21.1381471 13.8073664,22.8871 C13.8073664,24.3133218 13.2296521,25.6355931 12.1806533,26.6103036 C11.1600549,27.5587842 9.79731267,28.0811218 8.34358393,28.0811218 C6.88980737,28.0811218 5.52706517,27.5587842 4.50641898,26.6103036 C3.45746799,25.6355931 2.87975365,24.3133218 2.87975365,22.8871 C2.87975365,20.2143345 4.92415383,17.997066 7.57361689,17.6324853 C7.26680626,17.3552123 6.74311966,16.7231074 6.53599738,15.51809 L6.04295838,12.9109803 C5.64850806,11.7395179 4.47768387,7.61640128 4.7746452,6.73723897 C5.03890301,5.95491755 5.52429206,5.60153987 6.26404181,5.60153987 C6.56506718,5.60153987 18.3825599,5.63891894 18.3825599,5.63891894 C18.3825599,5.63891894 18.2199985,6.90248249 17.232008,6.99194451 C16.2414835,7.08162198 12.1857213,7.40957758 12.1857213,7.40957758 L8.3438708,7.93019162 L8.42472116,8.12258075 L9.76408322,8.07232905 C9.90809345,8.41374974 10.0083555,8.71951488 10.0083555,8.90958802 C10.0083555,9.56943103 9.65545399,10.2159167 9.65545399,10.2159167 L9.83188086,12.0636495 L10.4802616,13.750663 L17.6808208,13.750663 L26.0745803,15.0851606 C26.1531834,15.7131722 25.7056616,16.5111131 24.0329532,16.4670015 M8.34358393,27.2341679 C9.78244309,27.2341679 11.0516169,26.6684189 11.9104189,25.7597412 L4.77665331,25.7597412 C5.63545534,26.6684189 6.90467695,27.2341679 8.34358393,27.2341679 M8.02682836,2.57852063 C7.9672066,2.9575897 7.75702434,4.29397242 7.64920792,4.97945295 C7.60340387,5.27148371 7.31122376,5.2315732 6.96300779,5.23205794 C6.57003964,5.23254269 6.21761621,5.23324287 6.21761621,5.23324287 C6.21761621,5.23324287 4.59716646,3.55657052 4.42150458,2.99033678 C4.36279125,2.80155629 4.32846212,2.60415815 4.31703501,2.401751 C3.78627221,2.33065535 3.37465732,1.82232147 3.37465732,1.20529743 C3.37465732,0.539583646 3.85368736,1.07714753e-05 4.44464567,1.07714753e-05 C4.75547252,1.07714753e-05 5.03522147,0.149419351 5.2307254,0.387912932 C5.62278512,0.132130183 6.09143991,0.0322731144 6.53202897,0.120173187 C7.46489204,0.306206798 8.21286548,1.39418564 8.02682836,2.57852063" id="Fill-1" fill="#FFFFFF"></path>
        </g>
    </g>
</svg>