<?xml version="1.0" encoding="UTF-8"?>
<svg width="44px" height="53px" viewBox="0 0 44 53" version="1.1" xmlns="http://www.w3.org/2000/svg" xmlns:xlink="http://www.w3.org/1999/xlink">
    <!-- Generator: Sketch 49.2 (51160) - http://www.bohemiancoding.com/sketch -->
    <title>location-pin-unselected</title>
    <desc>Created with Sketch.</desc>
    <defs>
        <linearGradient x1="50%" y1="0%" x2="50%" y2="100%" id="linearGradient-1">
            <stop stop-color="#19A4EA" offset="0%"></stop>
            <stop stop-color="#0082C3" offset="100%"></stop>
        </linearGradient>
        <path d="M7.52,2.74985211e-16 C3.36,2.74985211e-16 0,3.37272727 0,7.54848485 L0,32.2015152 C0,36.3772727 3.36,39.75 7.52,39.75 L13.04,39.75 C13.36,39.75 15.2,39.9106061 15.36,40.1515152 L21.76,52.8393939 L28.16,40.1515152 C28.32,39.9106061 30.16,39.75 30.48,39.75 L36.08,39.75 C40.24,39.75 43.6,36.3772727 43.6,32.2015152 L43.6,7.54848485 C43.6,3.37272727 40.24,0 36.08,0 C31.5534722,4.35829201e-17 28.1585764,7.62701102e-17 25.8953125,9.80615702e-17 C21.8119097,1.37377935e-16 15.6868056,1.96352482e-16 7.52,2.74985211e-16 Z" id="path-2"></path>
        <filter x="-18.3%" y="-13.2%" width="136.7%" height="130.3%" filterUnits="objectBoundingBox" id="filter-3">
            <feOffset dx="0" dy="1" in="SourceAlpha" result="shadowOffsetOuter1"></feOffset>
            <feGaussianBlur stdDeviation="2.5" in="shadowOffsetOuter1" result="shadowBlurOuter1"></feGaussianBlur>
            <feComposite in="shadowBlurOuter1" in2="SourceAlpha" operator="out" result="shadowBlurOuter1"></feComposite>
            <feColorMatrix values="0 0 0 0 0   0 0 0 0 0   0 0 0 0 0  0 0 0 0.271993886 0" type="matrix" in="shadowBlurOuter1"></feColorMatrix>
        </filter>
    </defs>
    <g id="location-pin-unselected" stroke="none" stroke-width="1" fill="none" fill-rule="evenodd">
        <g id="location-pin">
            <g id="Path">
                <use fill="black" fill-opacity="1" filter="url(#filter-3)" xlink:href="#path-2"></use>
                <use fill="url(#linearGradient-1)" fill-rule="evenodd" xlink:href="#path-2"></use>
                <path stroke="#FFFFFF" stroke-width="1.6" d="M21.7603516,51.0637612 L27.493587,39.7089163 C27.8561269,39.1630466 29.4327868,38.95 30.48,38.95 L36.08,38.95 C39.7974937,38.95 42.8,35.9361206 42.8,32.2015152 L42.8,7.54848485 C42.8,3.81387942 39.7974937,0.8 36.08,0.8 C29.8560243,0.8 29.8560243,0.8 25.8953125,0.8 C18.7493576,0.8 18.7493576,0.8 7.52,0.8 C3.80250629,0.8 0.8,3.81387942 0.8,7.54848485 L0.8,32.2015152 C0.8,35.9361206 3.80250629,38.95 7.52,38.95 L13.04,38.95 C14.0872132,38.95 15.6638731,39.1630466 16.0742749,39.7912217 L21.7603516,51.0637612 Z M28.6049411,40.8017139 C28.6026515,40.8025804 28.6005695,40.8034023 28.5987008,40.8041765 C28.6031444,40.8023356 28.6075985,40.8004198 28.6120829,40.798383 Z"></path>
            </g>
        </g>
        <g id="triathlon" transform="translate(7.000000, 8.000000)" fill="#FFFFFF">
            <path d="M24.959782,15.8482911 C24.959782,14.3261027 23.5717913,13.0876411 21.8656767,13.0876411 C21.591489,13.0876411 21.3256536,13.1200504 21.072303,13.1800561 L22.0291975,15.7686458 C22.0594743,15.8505811 22.0095784,15.9389595 21.917704,15.9660125 C21.8995206,15.9713687 21.8810326,15.9738916 21.8628056,15.9738916 C21.7892887,15.9738916 21.7208179,15.9322447 21.6965008,15.8665334 L20.7394758,13.2777885 C19.5888707,13.6805175 18.7716583,14.6805477 18.7716583,15.8482911 C18.7716583,17.3706347 20.1596056,18.6090187 21.8656767,18.6090187 C23.5717913,18.6090187 24.959782,17.3706347 24.959782,15.8482911 Z M20.3386563,12.1934553 L20.214678,11.8579901 L17.26504,11.8579901 C17.2597763,11.8656364 17.2554262,11.8732439 17.2499886,11.8808125 C17.0861633,12.1093465 15.3495979,14.5315426 14.6929918,15.4473863 L14.9168921,16.0493839 L20.3386563,12.1934553 Z M14.5761477,16.1256525 L14.4499944,15.7863059 C14.4456878,15.792322 14.4432952,15.7956988 14.4432952,15.7956988 C14.1351332,15.7675202 13.8290157,15.4708297 14.070795,14.7668301 L13.095804,12.1454042 L12.214906,13.3591028 C13.0791431,13.9180562 13.6428308,14.8253609 13.6428308,15.8482911 C13.6428308,15.9101986 13.6400903,15.9714464 13.6360447,16.0324224 L14.5761477,16.1256525 Z M13.2924292,15.8482911 C13.2924292,14.9351255 12.7925141,14.1244277 12.024458,13.6215986 L10.5003087,15.7216814 L13.2877311,15.9978784 C13.2906891,15.9483523 13.2924292,15.8985158 13.2924292,15.8482911 Z M13.2486235,16.3085417 L10.1797923,16.0044379 C10.1194998,15.9984994 10.0668634,15.965081 10.0408497,15.9160595 C10.014836,15.8671156 10.0190556,15.8096716 10.052073,15.7641434 L11.7305644,13.4514402 C11.2784571,13.2204609 10.7555734,13.0876411 10.1983673,13.0876411 C8.49229625,13.0876411 7.10426198,14.3261027 7.10426198,15.8482911 C7.10426198,17.3706347 8.49229625,18.6090187 10.1983673,18.6090187 C11.7286503,18.6090187 13.0022331,17.6124429 13.2486235,16.3085417 Z M13.3580724,11.8579901 L14.2676377,14.3037073 C14.6035534,13.5678419 15.159237,12.429558 15.4399933,11.8579901 L13.3580724,11.8579901 Z M13.2417503,11.5454249 L15.5939873,11.5454249 C15.6069072,11.5193422 15.6138673,11.5052141 15.6138673,11.5052141 C15.6138673,11.5052141 14.3850472,11.07877 13.2769428,10.6944774 L12.9253231,10.6944774 L13.2417503,11.5454249 Z M14.4494289,8.97907536 C14.4494289,8.97907536 16.8920612,10.4971883 17.2251929,10.7079845 C17.4442212,10.8466264 17.5497114,11.1755321 17.4243846,11.5454249 L20.099139,11.5454249 L19.9414909,11.1190585 L19.5566799,11.1190585 C19.4143441,11.1190585 19.2784466,11.066078 19.1817001,10.972848 L16.6810372,8.55662907 L16.5710663,8.55111755 L16.7944882,9.09656386 L14.4494289,8.97907536 Z M25.3101402,15.8482911 C25.3101402,17.5429279 23.7649363,18.9216616 21.8656767,18.9216616 C19.9664171,18.9216616 18.4213002,17.5429279 18.4213002,15.8482911 C18.4213002,14.5423328 19.3393917,13.4248141 20.6296354,12.9805158 L20.4556743,12.5098631 L14.9389037,16.4334048 C14.9074524,16.4557226 14.8689104,16.4675219 14.8297158,16.4675219 C14.8130549,16.4675219 14.7962635,16.4653483 14.7798635,16.46104 C14.77895,16.4608072 14.778167,16.4603414 14.7772535,16.4600697 L13.5975461,16.3431246 C13.3314497,17.8032502 11.9087885,18.9216616 10.1983673,18.9216616 C8.2990642,18.9216616 6.75390383,17.5429279 6.75390383,15.8482911 C6.75390383,14.1537319 8.2990642,12.775037 10.1983673,12.775037 C10.8257407,12.775037 11.4139631,12.9262545 11.9211428,13.1887891 L12.9544253,11.7650706 L12.5562594,10.6944774 L11.488698,10.6944774 C11.3919515,10.6944774 11.313519,10.6244967 11.313519,10.5381754 C11.313519,10.451893 11.3919515,10.3819122 11.488698,10.3819122 L12.3753817,10.3819122 C11.9294516,10.2273568 11.602671,10.114293 11.5470766,10.0953132 C11.2362174,9.98970164 11.084442,9.84217147 11.0215828,9.51353745 C10.9729486,9.25965825 10.8662403,8.63631321 10.8662403,8.63631321 C10.9811268,8.38845011 11.9619469,6.57186121 15.5856786,6.5037823 C17.5453178,6.4670259 17.6362352,6.46912183 18.0372287,7.10888499 C18.1626859,7.30908509 20.0259266,10.2487818 20.0259266,10.2487818 L22.1958503,10.4887658 C22.4008712,10.5114329 22.5547782,10.666881 22.5547782,10.8512064 L22.5547782,11.1190585 L22.5520811,11.1190585 C22.54834,11.3111077 22.5069704,11.5961154 22.316566,11.7872331 C22.1911957,11.9130277 22.0174957,11.9795153 21.8142148,11.9795153 C21.7175118,11.9795153 21.6390793,11.9095345 21.6390793,11.8232132 C21.6390793,11.736892 21.7175118,11.66695 21.8142148,11.66695 C21.9188786,11.66695 21.9953101,11.6391207 22.0546891,11.579542 C22.1646165,11.469234 22.1962418,11.2696937 22.2007224,11.1190585 L20.3103805,11.1190585 L20.9624191,12.8830551 C21.2504836,12.8131131 21.5531645,12.775037 21.8656767,12.775037 C23.7649363,12.775037 25.3101402,14.1537319 25.3101402,15.8482911 Z M20.7771912,6.18710284 C20.7604433,6.11712207 20.7814109,5.0335652 19.4534517,4.84132186 C18.4855079,4.70124389 17.5308319,5.22406193 17.4056792,5.32827621 L17.6171382,5.6783353 L17.6854785,5.95142718 C17.6854785,5.95142718 17.8180264,6.00774559 18.0130855,6.08808957 C18.0141731,6.11366767 18.0164786,6.13924578 18.0202632,6.16470744 C18.0621113,6.44680406 18.817726,7.55318329 18.817726,7.55318329 C18.817726,7.55318329 19.0574173,7.60593085 19.3052433,7.66457807 C19.524663,7.71654937 19.7125879,7.74014798 19.7851043,7.60111798 C19.9404904,7.30361239 20.2072829,6.78195876 20.3242139,6.55606411 C20.4742058,6.52524618 20.5817406,6.49838722 20.5817406,6.49838722 L20.7771912,6.18710284 Z M9.30681153,12.1255317 C9.75482974,11.9841729 10.0984017,11.6343079 10.1737457,11.2315012 C10.2827595,10.6486775 9.86862871,9.99140943 9.12354124,9.88040278 C8.8654055,9.8419774 8.61157637,9.85711467 8.3794978,9.9318695 C8.02966166,10.0446228 7.00125129,11.0635551 7.00125129,11.0635551 C7.00125129,11.0635551 7.00416587,11.283162 7.00721094,11.5280753 C7.009299,11.6973798 6.99590065,11.8454534 7.07607324,11.9152401 C6.97719516,11.9009567 6.88044863,11.8862852 6.78544215,11.8712644 L6.78418062,11.6739365 L6.76869421,10.6556639 C6.76869421,10.3482997 6.61456969,9.97471962 6.39406242,9.81317778 C6.39406242,9.81317778 4.49458529,8.33531441 3.62534558,7.67536823 C2.94820689,7.16128323 2.42788979,7.03176254 1.95350989,7.90351406 C1.74144185,8.29324056 1.25527315,9.17818868 0.909917626,9.83860063 C0.813910617,10.0222274 0.524976067,10.5660435 1.0161909,10.9800673 L2.8645977,8.60033308 L4.49702135,10.5021565 L3.72130909,11.2004892 L3.37595356,11.2989591 C2.49283699,11.1947836 1.42805966,11.1236773 4.35011367e-06,11.1236773 L4.35011367e-06,11.3465833 C2.7343118,11.3465833 4.12447762,11.6097001 5.46888025,11.8641615 C6.82589821,12.1209905 8.22911437,12.3865914 10.9896095,12.3865914 L10.9896095,12.1637242 C10.3632801,12.1637242 9.80768362,12.1498678 9.30681153,12.1255317 Z M26.9802793,10.5696144 C26.9802793,10.5696144 27.7627778,10.7654673 28.1222277,10.7858056 C28.4159473,10.8024178 28.7199768,10.7880568 28.9050741,10.6316772 C29.0499329,10.5092593 29.0903455,10.3779532 29.0903455,10.3779532 L27.2059197,9.93827373 L26.9802793,10.5696144 Z M28.4915523,14.3371645 L26.4027147,11.7543581 L27.0760253,9.58833109 C27.2141414,9.06947203 27.0189083,7.5885424 26.9719706,7.22854705 C26.9719706,7.22854705 26.0230803,6.90507523 25.9580026,6.88089441 C25.6044689,6.74943303 25.2322732,6.7117063 24.7813839,6.94427687 L23.3013447,7.61932151 C22.5463825,7.99099973 22.2576654,8.10355892 22.2805905,8.30290513 C22.3326614,8.75585884 22.8484109,9.82288115 23.0666996,10.1215123 C23.5627865,10.8000502 23.9728717,10.6316383 23.9728717,10.6316383 L23.3154391,8.6687225 L24.5935895,8.22733521 L24.5803216,10.4071022 L24.1458758,10.9872478 C24.1458758,10.9872478 23.5342933,11.6265452 23.8636839,12.4025826 L23.6075927,12.8405154 C24.1593176,13.095365 24.631827,13.4671984 24.9840122,13.9196476 C25.1490555,13.7345459 25.282691,13.5845317 25.282691,13.5845317 L24.7004283,12.9529194 L24.766898,12.7663428 L27.3024052,14.8861429 C27.3024052,14.8861429 28.0980845,17.0377312 28.4851142,18.0465721 C28.6774327,18.547771 29.0304444,18.6431358 29.2713537,18.6431358 C29.4194316,18.6431358 29.5251828,18.6070392 29.5251828,18.6070392 L28.4915523,14.3371645 Z M26.1164773,6.70114902 C26.1164773,6.70114902 25.570625,5.63715416 25.5902005,5.35451415 C25.6032944,5.16696725 25.6760283,4.98450492 25.7973094,4.81710223 C25.9717925,4.576342 26.2374539,4.4390586 26.5189063,4.39578153 C26.8021857,4.35223277 27.1013865,4.40389356 27.3394682,4.54121577 C27.8138046,4.81469579 28.001251,5.44250438 27.6558085,5.91932841 C27.5451416,6.07205958 27.1551539,6.61020896 26.9551792,6.88617304 C26.929731,6.92133809 26.8982797,6.93899824 26.8615647,6.9446262 C26.775476,6.9578616 26.660459,6.9047259 26.526345,6.85450122 C26.3102748,6.77361385 26.1164773,6.70114902 26.1164773,6.70114902 Z" id="Fill-1"></path>
        </g>
    </g>
</svg>