<?xml version="1.0" encoding="UTF-8"?>
<svg width="44px" height="53px" viewBox="0 0 44 53" version="1.1" xmlns="http://www.w3.org/2000/svg" xmlns:xlink="http://www.w3.org/1999/xlink">
    <!-- Generator: Sketch 49.2 (51160) - http://www.bohemiancoding.com/sketch -->
    <title>location-pin-unselected</title>
    <desc>Created with Sketch.</desc>
    <defs>
        <linearGradient x1="50%" y1="0%" x2="50%" y2="100%" id="linearGradient-1">
            <stop stop-color="#19A4EA" offset="0%"></stop>
            <stop stop-color="#0082C3" offset="100%"></stop>
        </linearGradient>
        <path d="M7.52,2.74985211e-16 C3.36,2.74985211e-16 0,3.37272727 0,7.54848485 L0,32.2015152 C0,36.3772727 3.36,39.75 7.52,39.75 L13.04,39.75 C13.36,39.75 15.2,39.9106061 15.36,40.1515152 L21.76,52.8393939 L28.16,40.1515152 C28.32,39.9106061 30.16,39.75 30.48,39.75 L36.08,39.75 C40.24,39.75 43.6,36.3772727 43.6,32.2015152 L43.6,7.54848485 C43.6,3.37272727 40.24,0 36.08,0 C31.5534722,4.35829201e-17 28.1585764,7.62701102e-17 25.8953125,9.80615702e-17 C21.8119097,1.37377935e-16 15.6868056,1.96352482e-16 7.52,2.74985211e-16 Z" id="path-2"></path>
        <filter x="-18.3%" y="-13.2%" width="136.7%" height="130.3%" filterUnits="objectBoundingBox" id="filter-3">
            <feOffset dx="0" dy="1" in="SourceAlpha" result="shadowOffsetOuter1"></feOffset>
            <feGaussianBlur stdDeviation="2.5" in="shadowOffsetOuter1" result="shadowBlurOuter1"></feGaussianBlur>
            <feComposite in="shadowBlurOuter1" in2="SourceAlpha" operator="out" result="shadowBlurOuter1"></feComposite>
            <feColorMatrix values="0 0 0 0 0   0 0 0 0 0   0 0 0 0 0  0 0 0 0.271993886 0" type="matrix" in="shadowBlurOuter1"></feColorMatrix>
        </filter>
        <polygon id="path-4" points="0 0 13.8571322 0 13.8571322 30.1040639 0 30.1040639"></polygon>
    </defs>
    <g id="location-pin-unselected" stroke="none" stroke-width="1" fill="none" fill-rule="evenodd">
        <g id="location-pin">
            <g id="Path">
                <use fill="black" fill-opacity="1" filter="url(#filter-3)" xlink:href="#path-2"></use>
                <use fill="url(#linearGradient-1)" fill-rule="evenodd" xlink:href="#path-2"></use>
                <path stroke="#FFFFFF" stroke-width="1.6" d="M21.7603516,51.0637612 L27.493587,39.7089163 C27.8561269,39.1630466 29.4327868,38.95 30.48,38.95 L36.08,38.95 C39.7974937,38.95 42.8,35.9361206 42.8,32.2015152 L42.8,7.54848485 C42.8,3.81387942 39.7974937,0.8 36.08,0.8 C29.8560243,0.8 29.8560243,0.8 25.8953125,0.8 C18.7493576,0.8 18.7493576,0.8 7.52,0.8 C3.80250629,0.8 0.8,3.81387942 0.8,7.54848485 L0.8,32.2015152 C0.8,35.9361206 3.80250629,38.95 7.52,38.95 L13.04,38.95 C14.0872132,38.95 15.6638731,39.1630466 16.0742749,39.7912217 L21.7603516,51.0637612 Z M28.6049411,40.8017139 C28.6026515,40.8025804 28.6005695,40.8034023 28.5987008,40.8041765 C28.6031444,40.8023356 28.6075985,40.8004198 28.6120829,40.798383 Z"></path>
            </g>
        </g>
        <g id="mountaineering" transform="translate(5.000000, 5.000000)">
            <g id="Group" transform="translate(8.083327, 0.000000)">
                <g id="Page-1" transform="translate(2.309522, 0.000000)">
                    <mask id="mask-5" fill="white">
                        <use xlink:href="#path-4"></use>
                    </mask>
                    <g id="Clip-2"></g>
                    <path d="M10.2431918,7.29784527 C10.3613519,8.16379215 9.70383958,8.72781174 9.21298769,8.89048316 C8.98494104,8.96606017 6.76795285,9.7079808 6.76795285,9.7079808 L7.04992046,8.19920103 L10.2431918,7.29784527 Z M6.83794549,22.959895 C7.02609824,22.0207032 8.41748716,15.0752809 8.52318935,14.5520006 C8.69926458,13.6804378 8.16799575,13.3208759 7.46902039,13.4190117 C6.85900985,13.5046784 4.69793969,13.9589019 4.69793969,13.9589019 L6.33901021,9.90115906 L6.82448902,7.15045107 C6.82448902,7.15045107 11.8059961,4.90474788 12.1017055,4.77110793 C12.4582305,4.60995948 12.7898396,4.22560185 12.8216976,3.70251187 L13.4583358,7.13388885 L10.9037473,11.3296026 L10.933846,20.8917121 L6.83794549,22.959895 Z M11.2844749,11.4359244 L13.8571322,7.2105129 L12.5215662,0.000571110886 L12.1346572,0 L12.7525609,3.33033795 L6.6081395,5.10121003 C6.65250304,4.55836913 6.703048,3.94756604 6.72168734,3.7183602 C6.7644342,3.19274781 6.58341385,2.70915967 6.27581714,2.34374389 L7.25015075,1.87667037 L6.93332947,1.48388886 L6.19027586,1.53324236 C6.19027586,1.53324236 5.20790641,0.46264741 3.66397919,1.0548894 C2.25338034,1.59592178 2.20331088,3.18822652 2.8041444,4.22112815 L3.03513911,4.10514505 C3.05306522,4.2003302 3.10641558,4.34015718 3.1481639,4.42572862 C3.29361735,4.7238961 4.34426766,5.62953519 4.34426766,5.62953519 C4.34426766,5.62953519 4.22472861,5.65975647 4.16163063,5.67569998 C3.21611192,5.91437674 2.5968768,6.5382202 2.15704537,8.29905025 C1.57123744,10.6445551 1.18271175,12.4609732 1.18271175,12.4609732 C1.18271175,12.4609732 0.816153854,13.1405952 0.538085287,13.6671594 C0.259921622,14.1937713 -0.423647754,15.6720442 0.374467993,17.2369832 C1.17258374,18.8019222 3.94666005,17.0814983 3.94666005,17.0814983 L6.05029059,16.4066832 C6.05029059,16.4066832 5.70170635,20.6651239 5.66599679,21.1732222 C5.59847672,22.1334024 5.93189273,22.8672323 6.67946352,23.0399457 L5.59847672,23.5857374 L7.31567375,30.1040639 L7.70895438,30.1040639 L6.0427778,23.7802482 L11.3150016,21.1198709 L11.2844749,11.4359244 Z" id="Fill-1" fill="#FFFFFF" mask="url(#mask-5)"></path>
                </g>
                <path d="M6.6629393,17.8929609 L4.85333245,22.3395102 C4.85333245,22.3395102 3.24585415,25.5345882 1.58436673,28.9462153 C1.05396473,28.7974588 0.616514036,28.0236512 0.999074771,26.9445411 C1.38158915,25.8654309 2.83084159,21.866473 2.83084159,21.866473 L3.40635164,16.8240008 C3.11706674,16.2337429 2.98206712,15.6169062 3.02026756,15.2120393 C3.05601094,14.8326654 3.17274481,14.6123396 3.17274481,14.6123396 L6.13420624,14.5560189 L6.22456141,14.3051959 L3.01971125,14.3373455 L2.71994904,15.1446244 C2.71994904,15.1446244 1.62877938,14.8807717 1.28961138,14.8038677 C0.169235077,14.5497401 -0.065577104,14.0948785 0.0141616822,13.0818614 C0.172155742,11.0750414 0.320785131,10.3481126 0.649290386,7.1057781 C0.686934511,6.73400488 1.02304277,6.64256047 1.02304277,6.64256047 C1.02304277,6.64256047 0.730419965,6.4035398 0.76801773,6.11589356 C0.825318393,5.67769686 0.882897214,5.34402155 0.898566813,5.22920854 C1.06365392,4.02324704 1.24195355,3.67970498 2.15885687,3.59165964 C2.91067309,3.51942942 3.73443966,3.48506105 4.8129531,3.4736364 C5.82813911,3.46282547 6.01445898,4.42174072 5.85414694,5.33816759 C5.8081117,5.60112338 5.74334711,5.92134404 5.68108595,6.21569401 C6.03036038,5.8079001 6.64963405,5.75941615 7.15820061,5.99012799 C7.5343637,6.1607896 8.05127502,6.39820515 8.44649196,6.58789211 C8.81641194,6.76546201 8.68342124,7.91762065 8.04751987,10.044368 L6.6629393,17.8929609 Z" id="Page-1" fill="#FFFFFF"></path>
            </g>
        </g>
    </g>
</svg>