<?xml version="1.0" encoding="UTF-8"?>
<svg width="44px" height="53px" viewBox="0 0 44 53" version="1.1" xmlns="http://www.w3.org/2000/svg" xmlns:xlink="http://www.w3.org/1999/xlink">
    <!-- Generator: Sketch 49.2 (51160) - http://www.bohemiancoding.com/sketch -->
    <title>location-pin-unselected</title>
    <desc>Created with Sketch.</desc>
    <defs>
        <linearGradient x1="50%" y1="0%" x2="50%" y2="100%" id="linearGradient-1">
            <stop stop-color="#19A4EA" offset="0%"></stop>
            <stop stop-color="#0082C3" offset="100%"></stop>
        </linearGradient>
        <path d="M7.52,2.74985211e-16 C3.36,2.74985211e-16 0,3.37272727 0,7.54848485 L0,32.2015152 C0,36.3772727 3.36,39.75 7.52,39.75 L13.04,39.75 C13.36,39.75 15.2,39.9106061 15.36,40.1515152 L21.76,52.8393939 L28.16,40.1515152 C28.32,39.9106061 30.16,39.75 30.48,39.75 L36.08,39.75 C40.24,39.75 43.6,36.3772727 43.6,32.2015152 L43.6,7.54848485 C43.6,3.37272727 40.24,0 36.08,0 C31.5534722,4.35829201e-17 28.1585764,7.62701102e-17 25.8953125,9.80615702e-17 C21.8119097,1.37377935e-16 15.6868056,1.96352482e-16 7.52,2.74985211e-16 Z" id="path-2"></path>
        <filter x="-18.3%" y="-13.2%" width="136.7%" height="130.3%" filterUnits="objectBoundingBox" id="filter-3">
            <feOffset dx="0" dy="1" in="SourceAlpha" result="shadowOffsetOuter1"></feOffset>
            <feGaussianBlur stdDeviation="2.5" in="shadowOffsetOuter1" result="shadowBlurOuter1"></feGaussianBlur>
            <feComposite in="shadowBlurOuter1" in2="SourceAlpha" operator="out" result="shadowBlurOuter1"></feComposite>
            <feColorMatrix values="0 0 0 0 0   0 0 0 0 0   0 0 0 0 0  0 0 0 0.271993886 0" type="matrix" in="shadowBlurOuter1"></feColorMatrix>
        </filter>
    </defs>
    <g id="location-pin-unselected" stroke="none" stroke-width="1" fill="none" fill-rule="evenodd">
        <g id="location-pin">
            <g id="Path">
                <use fill="black" fill-opacity="1" filter="url(#filter-3)" xlink:href="#path-2"></use>
                <use fill="url(#linearGradient-1)" fill-rule="evenodd" xlink:href="#path-2"></use>
                <path stroke="#FFFFFF" stroke-width="1.6" d="M21.7603516,51.0637612 L27.493587,39.7089163 C27.8561269,39.1630466 29.4327868,38.95 30.48,38.95 L36.08,38.95 C39.7974937,38.95 42.8,35.9361206 42.8,32.2015152 L42.8,7.54848485 C42.8,3.81387942 39.7974937,0.8 36.08,0.8 C29.8560243,0.8 29.8560243,0.8 25.8953125,0.8 C18.7493576,0.8 18.7493576,0.8 7.52,0.8 C3.80250629,0.8 0.8,3.81387942 0.8,7.54848485 L0.8,32.2015152 C0.8,35.9361206 3.80250629,38.95 7.52,38.95 L13.04,38.95 C14.0872132,38.95 15.6638731,39.1630466 16.0742749,39.7912217 L21.7603516,51.0637612 Z M28.6049411,40.8017139 C28.6026515,40.8025804 28.6005695,40.8034023 28.5987008,40.8041765 C28.6031444,40.8023356 28.6075985,40.8004198 28.6120829,40.798383 Z"></path>
            </g>
        </g>
        <g id="running" transform="translate(4.000000, 7.000000)" fill="#FFFFFF">
            <path d="M20.9599451,10.3010661 L20.6068429,11.3630268 C20.6068429,11.3630268 21.9721894,11.6614889 22.5879277,11.761991 C23.2535285,11.8706396 24.1025003,11.8266914 24.2290082,11.1125005 L20.9599451,10.3010661 Z M8.41786231,20.234867 C9.00623045,19.9461807 14.0127117,17.4586251 14.0127117,17.4586251 L15.1618068,14.8495579 C14.5903305,13.4171886 15.6513081,12.2372322 15.6513081,12.2372322 L16.4049812,11.1663103 L16.4280155,7.14305334 L14.3644137,8.06300773 L15.2580088,12.0532499 C15.2580088,12.0532499 14.4641387,12.4662346 14.0331716,11.4216388 C13.834354,10.939666 13.180451,9.23824775 12.8110442,8.33690168 C12.4600196,7.4803185 12.5559507,7.16457725 13.3276898,6.72522357 C14.099429,6.28586988 16.7537927,4.77473675 16.7537927,4.77473675 C17.5360102,4.34537324 18.1816931,4.41504727 18.7949924,4.65768438 C18.8819356,4.69207119 19.8779204,5.05399024 20.3314702,5.2186782 C20.4684565,5.26837186 20.6056686,5.38679626 20.627619,5.52442926 C20.7796905,6.4783417 21.0989187,8.23880066 20.8807252,9.11094795 L19.566551,13.653137 L23.1902519,18.4204696 L24.983404,26.3017381 C24.1101332,26.5953981 23.567653,26.189788 23.2264293,25.2672611 C22.5376587,23.4051424 21.1272825,19.4337229 21.1272825,19.4337229 L16.7287711,15.521044 L16.6133738,15.8654695 L17.6234954,17.0312339 C17.6234954,17.0312339 16.4587279,18.7688398 16.320206,18.9721593 C16.0846238,19.3179568 15.6368552,19.4693531 15.1246358,19.6209638 C14.6124615,19.7725745 7.60673901,21.8462879 7.60673901,21.8462879 C7.40204995,21.0097279 7.81702856,20.5296417 8.41786231,20.234867 Z M21.191643,0.296219026 C20.7785613,0.0427770792 20.2594316,-0.0526227401 19.7680785,0.0278132424 C19.2798418,0.107691833 18.81893,0.36113378 18.5162775,0.805503994 C18.3058976,1.1144279 18.1797058,1.45122142 18.1569877,1.79740486 C18.122933,2.31912396 19.0700039,4.28303107 19.0700039,4.28303107 C19.0700039,4.28303107 19.4061691,4.41676232 19.7809957,4.56605768 C20.0137324,4.65879917 20.2131823,4.75698595 20.3625439,4.73250357 C20.426227,4.72208462 20.4807415,4.68941286 20.5249583,4.62454098 C20.871918,4.11517026 21.5484487,3.12185448 21.740356,2.83994266 C22.3396993,1.95986325 22.0144641,0.801044856 21.191643,0.296219026 Z" id="Fill-1"></path>
        </g>
    </g>
</svg>