<?xml version="1.0" encoding="UTF-8"?>
<svg width="44px" height="53px" viewBox="0 0 44 53" version="1.1" xmlns="http://www.w3.org/2000/svg" xmlns:xlink="http://www.w3.org/1999/xlink">
    <!-- Generator: Sketch 49.2 (51160) - http://www.bohemiancoding.com/sketch -->
    <title>location-pin-unselected</title>
    <desc>Created with Sketch.</desc>
    <defs>
        <linearGradient x1="50%" y1="0%" x2="50%" y2="100%" id="linearGradient-1">
            <stop stop-color="#19A4EA" offset="0%"></stop>
            <stop stop-color="#0082C3" offset="100%"></stop>
        </linearGradient>
        <path d="M7.52,2.74985211e-16 C3.36,2.74985211e-16 0,3.37272727 0,7.54848485 L0,32.2015152 C0,36.3772727 3.36,39.75 7.52,39.75 L13.04,39.75 C13.36,39.75 15.2,39.9106061 15.36,40.1515152 L21.76,52.8393939 L28.16,40.1515152 C28.32,39.9106061 30.16,39.75 30.48,39.75 L36.08,39.75 C40.24,39.75 43.6,36.3772727 43.6,32.2015152 L43.6,7.54848485 C43.6,3.37272727 40.24,0 36.08,0 C31.5534722,4.35829201e-17 28.1585764,7.62701102e-17 25.8953125,9.80615702e-17 C21.8119097,1.37377935e-16 15.6868056,1.96352482e-16 7.52,2.74985211e-16 Z" id="path-2"></path>
        <filter x="-18.3%" y="-13.2%" width="136.7%" height="130.3%" filterUnits="objectBoundingBox" id="filter-3">
            <feOffset dx="0" dy="1" in="SourceAlpha" result="shadowOffsetOuter1"></feOffset>
            <feGaussianBlur stdDeviation="2.5" in="shadowOffsetOuter1" result="shadowBlurOuter1"></feGaussianBlur>
            <feComposite in="shadowBlurOuter1" in2="SourceAlpha" operator="out" result="shadowBlurOuter1"></feComposite>
            <feColorMatrix values="0 0 0 0 0   0 0 0 0 0   0 0 0 0 0  0 0 0 0.271993886 0" type="matrix" in="shadowBlurOuter1"></feColorMatrix>
        </filter>
    </defs>
    <g id="location-pin-unselected" stroke="none" stroke-width="1" fill="none" fill-rule="evenodd">
        <g id="location-pin">
            <g id="Path">
                <use fill="black" fill-opacity="1" filter="url(#filter-3)" xlink:href="#path-2"></use>
                <use fill="url(#linearGradient-1)" fill-rule="evenodd" xlink:href="#path-2"></use>
                <path stroke="#FFFFFF" stroke-width="1.6" d="M21.7603516,51.0637612 L27.493587,39.7089163 C27.8561269,39.1630466 29.4327868,38.95 30.48,38.95 L36.08,38.95 C39.7974937,38.95 42.8,35.9361206 42.8,32.2015152 L42.8,7.54848485 C42.8,3.81387942 39.7974937,0.8 36.08,0.8 C29.8560243,0.8 29.8560243,0.8 25.8953125,0.8 C18.7493576,0.8 18.7493576,0.8 7.52,0.8 C3.80250629,0.8 0.8,3.81387942 0.8,7.54848485 L0.8,32.2015152 C0.8,35.9361206 3.80250629,38.95 7.52,38.95 L13.04,38.95 C14.0872132,38.95 15.6638731,39.1630466 16.0742749,39.7912217 L21.7603516,51.0637612 Z M28.6049411,40.8017139 C28.6026515,40.8025804 28.6005695,40.8034023 28.5987008,40.8041765 C28.6031444,40.8023356 28.6075985,40.8004198 28.6120829,40.798383 Z"></path>
            </g>
        </g>
        <g id="pickleball" transform="translate(4.000000, 6.000000)" fill="#FFFFFF">
            <path d="M20.0812633,9.67568546 L21.3966745,7.24911777 L20.9059304,7.46080253 L19.8794526,9.31820457 L17.1069486,9.578907 L17.1069486,7.20628774 L16.8351064,7.5015539 L16.6400562,9.08481475 L15.2323805,9.42929194 C15.2935093,9.45800643 15.350877,9.49295689 15.4034363,9.53414333 L16.5332712,10.090837 L20.0812633,9.67568546 Z M11.2660563,8.72288651 C11.4167834,8.58613013 11.5537043,8.42989237 11.6718199,8.25339978 C11.7876504,8.08048441 11.8789627,7.89775584 11.9483276,7.70927471 L12.1758943,8.60715841 L11.2660563,8.72288651 Z M24.525525,18.7954362 C25.0457861,19.7500721 24.9502366,20.3732828 24.9502366,20.5999049 L24.9502366,28.4488703 C24.9502366,28.4488703 23.5114729,28.6318406 23.3507957,26.7941133 C23.1708847,24.7372567 22.7970661,21.2540539 22.7970661,21.2540539 L22.0156271,20.4142276 L23.326706,19.8390677 L23.3921671,19.581169 L20.7983837,20.4624718 L19.1196753,17.4248752 C19.1196753,17.4248752 17.1100431,21.9175809 16.9431768,22.3297354 C16.6658121,23.0149191 16.484473,23.3822616 16.0053929,23.7584504 C15.642286,24.0434683 9.58701457,27.9171205 9.58701457,27.9171205 C9.58701457,27.9171205 8.82009604,27.0502717 9.97730559,25.7623253 C10.5307495,25.1462207 14.5885764,21.9654384 14.5885764,21.9654384 L14.8620849,19.9654791 L16.0042027,20.1688492 L16.3117508,20.0452899 L14.3519643,19.3924462 L15.5515927,14.9238626 L16.2562874,13.3533154 L16.1134632,11.2538705 L14.8565623,11.2538705 L14.8576097,11.2444924 C14.8333296,11.2516952 14.8089066,11.2559008 14.7842933,11.2538705 C14.4209008,11.2240925 14.1260164,10.9292614 14.0112809,10.5758412 C13.9704808,10.5781615 13.9292998,10.5787416 13.8874523,10.5753578 C13.4268917,10.5376035 13.0764963,10.1531484 13.0633564,9.69482845 L12.1550419,9.06775042 L10.0808532,9.33169168 C9.91965221,9.36736726 9.75464261,9.38825052 9.5877763,9.39438982 L9.53378874,9.40130256 L9.53321744,9.39656516 C8.95339865,9.40671674 8.35506033,9.23689519 7.82737239,8.87264658 C6.53190897,7.97829177 6.15285345,6.25107175 6.98071032,5.01480181 C7.80851959,3.77848353 9.52974205,3.50124853 10.8251579,4.395555 C11.542326,4.89071074 11.9780351,5.64115473 12.0841535,6.42224684 L12.5865615,8.40412667 L13.3939469,8.96149714 C13.566193,8.81913322 13.7899985,8.74072429 14.0288483,8.75948056 C14.5256386,8.00531433 15.7434532,6.18107414 16.1768295,5.75301555 C16.8258229,5.11187032 17.2194941,4.93344409 17.6873387,5.01456011 C18.3926999,5.13676588 22.1458828,5.78728924 22.5046097,5.85051913 C23.01792,5.94096493 23.9086195,6.34876869 23.5851702,7.36803636 C23.2617209,8.3872557 21.3295947,11.3022114 21.3295947,11.3022114 L19.8724066,11.2544989 L20.2532236,11.5696332 L21.4986034,11.6826542 L21.1217378,14.1096086 C21.1217378,14.1096086 23.3875967,16.988502 24.2410191,18.3261911 C24.3667044,18.523277 24.4652055,18.6846389 24.525525,18.7954362 Z M20.2900723,4.85474512 C20.2900723,4.85474512 20.6567021,4.91995698 21.0655127,4.99300007 C21.4276197,5.05768018 21.724837,5.14972124 21.8203864,4.88442643 C22.0444776,4.26218248 22.4815197,3.04872945 22.6055388,2.70439729 C22.9927829,1.62929588 22.3926831,0.469501232 21.4530424,0.120576683 C20.5125925,-0.228686251 19.3024903,0.188012226 18.9102474,1.27727751 C18.7743739,1.65467485 18.7288606,2.04236879 18.7887992,2.41633392 C18.8792069,2.9799887 20.2900723,4.85474512 20.2900723,4.85474512 Z M10.6143017,7.49836341 C10.5329395,7.62506488 10.3658351,7.6607888 10.241102,7.57817422 C10.1163688,7.49555963 10.0811864,7.32588311 10.1625486,7.19922997 C10.2439108,7.0725285 10.4110152,7.03680458 10.5357484,7.11941916 C10.6604815,7.20203375 10.6956639,7.37171027 10.6143017,7.49836341 Z M11.1588429,6.65060921 C11.0774807,6.77726234 10.9103763,6.81298626 10.7855955,6.73037168 C10.6608624,6.64775709 10.6256324,6.47812891 10.7069946,6.35142744 C10.7883568,6.2247743 10.9554612,6.18900204 11.0801943,6.27161662 C11.2049751,6.35423121 11.2401575,6.52390773 11.1588429,6.65060921 Z M11.9483276,7.70927471 L12.1758943,8.60715841 L11.2660563,8.72288651 C11.4167834,8.58613013 11.5537043,8.42989237 11.6718199,8.25339978 C11.7876504,8.08048441 11.8789627,7.89775584 11.9483276,7.70927471 Z M10.0698557,8.34616594 C9.98849349,8.47286742 9.82138914,8.508543 9.69665597,8.42592841 C9.5718752,8.34336217 9.53664522,8.17368565 9.61800743,8.04698417 C9.69936963,7.92033104 9.86647399,7.88460712 9.99125476,7.9672217 C10.1159879,8.04983629 10.1512179,8.21946447 10.0698557,8.34616594 Z M21.3966745,7.24911777 L20.9059304,7.46080253 L19.8794526,9.31820457 L17.1069486,9.578907 L17.1069486,7.20628774 L16.8351064,7.5015539 L16.6400562,9.08481475 L15.2323805,9.42929194 C15.2935093,9.45800643 15.350877,9.49295689 15.4034363,9.53414333 L16.5332712,10.090837 L20.0812633,9.67568546 L21.3966745,7.24911777 Z M9.99539666,5.88020043 C10.0767589,5.7535473 10.2438632,5.71782338 10.3685964,5.80043796 C10.4933772,5.88305255 10.5285119,6.05268073 10.4471497,6.17938221 C10.3657875,6.30603534 10.1987308,6.3418076 10.0739976,6.25919302 C9.94921683,6.17657843 9.91403446,6.00690191 9.99539666,5.88020043 Z M8.57215316,4.93779477 C8.65351537,4.8110933 8.82057212,4.77536938 8.9454005,4.85798396 C9.07013366,4.94059854 9.10531603,5.11027507 9.02395383,5.2369282 C8.94259162,5.36362968 8.77548727,5.3993536 8.6507541,5.31673901 C8.52597333,5.23412443 8.49079096,5.06444791 8.57215316,4.93779477 Z M7.93496664,6.93253328 C7.85360444,7.05918641 7.68650008,7.09491033 7.56176692,7.01229575 C7.43698614,6.92968117 7.40185138,6.76000464 7.48321359,6.63335151 C7.56457579,6.50669838 7.73163254,6.47092612 7.85641331,6.5535407 C7.98114648,6.63615528 8.01632885,6.80583181 7.93496664,6.93253328 Z M9.28379872,5.40902177 C9.36516092,5.2823203 9.53221767,5.24659638 9.65699844,5.32921096 C9.78173161,5.41182554 9.81691398,5.58150207 9.73555177,5.7081552 C9.65418957,5.83485668 9.48708521,5.87053226 9.36235205,5.78791767 C9.23757127,5.70535143 9.20243651,5.53567491 9.28379872,5.40902177 Z M8.81785846,6.63572021 C8.69312529,6.55315397 8.65789531,6.38347745 8.73925752,6.25677597 C8.82061972,6.13012284 8.98772408,6.09435058 9.11245724,6.1770135 C9.23723802,6.25962808 9.272468,6.42925627 9.19110579,6.55595774 C9.10974358,6.68261088 8.94263923,6.71833479 8.81785846,6.63572021 Z M9.35821014,7.87493894 C9.27684794,8.00159208 9.10979119,8.03736434 8.98501042,7.95474975 C8.86022965,7.87213517 8.82504728,7.70245865 8.90640948,7.57575717 C8.98777169,7.44910404 9.15487604,7.41338012 9.27960921,7.4959947 C9.40438998,7.57860928 9.43957235,7.74828581 9.35821014,7.87493894 Z M8.10626051,6.16454155 C7.98147974,6.08192697 7.94629737,5.91225044 8.02765957,5.78554897 C8.10902178,5.65889584 8.27612613,5.62317192 8.4008593,5.7057865 C8.52564007,5.78840108 8.56077483,5.95807761 8.47941263,6.08473074 C8.39805042,6.21138388 8.23104128,6.24715613 8.10626051,6.16454155 Z M8.64656459,7.40371194 C8.56520238,7.53041342 8.39814564,7.56613733 8.27336486,7.48352275 C8.1486317,7.40090817 8.11344933,7.23123164 8.19481153,7.10457851 C8.27617374,6.97787704 8.4432781,6.94215312 8.56801126,7.0247677 C8.69279203,7.10738228 8.7279268,7.27705881 8.64656459,7.40371194 Z M9.52950401,7.10694721 C9.40472324,7.02433263 9.36958847,6.85465611 9.45095068,6.72800297 C9.53226528,6.6013015 9.69932203,6.56557758 9.82415041,6.64819216 C9.94888357,6.73080674 9.98406594,6.90048327 9.90270374,7.0271364 C9.82134153,7.15383788 9.65423717,7.1895618 9.52950401,7.10694721 Z M12.1758943,8.60715841 L11.2660563,8.72288651 C11.4167834,8.58613013 11.5537043,8.42989237 11.6718199,8.25339978 C11.7876504,8.08048441 11.8789627,7.89775584 11.9483276,7.70927471 L12.1758943,8.60715841 Z M16.5332712,10.090837 L15.4034363,9.53414333 C15.350877,9.49295689 15.2935093,9.45800643 15.2323805,9.42929194 L16.6400562,9.08481475 L16.8351064,7.5015539 L17.1069486,7.20628774 L17.1069486,9.578907 L19.8794526,9.31820457 L20.9059304,7.46080253 L21.3966745,7.24911777 L20.0812633,9.67568546 L16.5332712,10.090837 Z" id="Fill-1"></path>
            <path d="M29.921318,10.643745 C29.903046,10.6452662 29.8853204,10.6386948 29.8716012,10.6264646 C29.8578821,10.6142344 29.8497477,10.5973798 29.848655,10.5789433 C29.8475624,10.5605675 29.8536328,10.5428611 29.8658343,10.5290489 C29.8779752,10.5152976 29.8947902,10.5071441 29.9130622,10.505988 C29.9144584,10.5059272 29.9158546,10.5058663 29.9171901,10.5058663 C29.9532484,10.5058663 29.9836612,10.5341601 29.9859072,10.570729 C29.9881533,10.6086973 29.9591974,10.6414329 29.921318,10.643745 Z M29.8950086,10.4006365 C29.851959,10.4032747 29.8124845,10.4225386 29.783884,10.4548941 C29.7552836,10.4872495 29.7409834,10.5288636 29.7435654,10.571971 C29.7460977,10.6151281 29.765264,10.6547013 29.7975388,10.683423 C29.8273309,10.7099545 29.8649682,10.7242904 29.904542,10.7242904 C29.9077695,10.7242904 29.9110466,10.7241909 29.9143238,10.7239917 C30.0032532,10.7186158 30.0712785,10.6417592 30.0659655,10.5526573 L30.0659655,10.5526075 C30.0605533,10.4634558 29.9838883,10.3954596 29.8950086,10.4006365 Z M29.5480454,10.5279401 C29.5494398,10.5278182 29.5508342,10.5278182 29.5522286,10.5278182 C29.5883007,10.5278182 29.618674,10.5561398 29.6208565,10.5926837 C29.6231602,10.6306894 29.5941813,10.663518 29.5563511,10.6657716 C29.5185209,10.6682079 29.4859045,10.6389727 29.4836007,10.6010279 C29.4814182,10.5630222 29.5103365,10.5302545 29.5480454,10.5279401 Z M29.5397378,10.7461926 C29.5429653,10.7461926 29.5461928,10.746093 29.5494699,10.7458939 C29.6383497,10.7405179 29.7064246,10.6637111 29.701062,10.5745594 C29.6957491,10.4854575 29.6190345,10.4172124 29.5300554,10.4225884 C29.441275,10.4279644 29.3732993,10.5047712 29.3785626,10.5939727 C29.3837266,10.6797892 29.4550786,10.7461926 29.5397378,10.7461926 Z M29.2387466,10.6645901 C29.2265659,10.678355 29.2097796,10.6865774 29.1914176,10.6876737 C29.153603,10.69011 29.121,10.6608748 29.1186971,10.6230519 C29.1165155,10.5849853 29.1454219,10.5520957 29.1831154,10.5498422 C29.1845092,10.5497813 29.185903,10.5497204 29.1872362,10.5497204 C29.2233541,10.5497204 29.2537755,10.5780419 29.2559571,10.6146468 C29.2570479,10.6330405 29.2509273,10.6507644 29.2387466,10.6645901 Z M29.1651519,10.4444905 C29.0764211,10.4498167 29.0084455,10.5266734 29.0136094,10.6159246 C29.0188727,10.7017412 29.0901751,10.7680947 29.1748343,10.7680947 C29.1780121,10.7680947 29.1812893,10.7679951 29.1845168,10.767796 C29.227616,10.7652574 29.2670905,10.7459934 29.2957902,10.713638 C29.3243906,10.6812328 29.3387405,10.6396685 29.3362082,10.5965113 C29.3308952,10.5073596 29.2541806,10.4392141 29.1651519,10.4444905 Z M29.3362082,10.5965996 L29.3362082,10.5964615 L29.3362082,10.5965996 Z M29.6535792,11.1394045 C29.6558223,11.1774116 29.626904,11.2101805 29.5890738,11.2124341 C29.5706438,11.2135914 29.5530624,11.2073787 29.5393005,11.195136 C29.5255992,11.1829543 29.5174147,11.1660825 29.5163235,11.1476881 C29.5140804,11.109681 29.5429986,11.0769121 29.5807682,11.0745976 C29.5822232,11.0745367 29.5836176,11.0744758 29.585012,11.0744758 C29.6018052,11.0744758 29.6178709,11.0805667 29.6305416,11.0919566 C29.6443035,11.1041383 29.6524879,11.1210101 29.6535792,11.1393436 L29.6535792,11.1394045 Z M29.5627771,10.969246 C29.473947,10.9746219 29.4059713,11.0514785 29.4112842,11.1405804 C29.4138166,11.1837376 29.4329828,11.2233108 29.4653072,11.2520325 C29.4950993,11.2785639 29.5327367,11.2928501 29.5723105,11.2928501 C29.5755877,11.2928501 29.5788648,11.2927505 29.5821419,11.2925514 C29.6710713,11.2872252 29.7390469,11.2104184 29.7337837,11.1212667 C29.7312513,11.0781096 29.7119858,11.0384866 29.6796614,11.0097649 C29.6473866,10.9810432 29.6058763,10.9666575 29.5627771,10.969246 Z M29.4678959,10.0002026 C29.4801475,9.98637284 29.4969478,9.978209 29.5153251,9.97711237 C29.5167201,9.97699052 29.518115,9.97692959 29.51951,9.97692959 C29.536371,9.97692959 29.5523829,9.98302201 29.565059,9.9943539 C29.5787661,10.0065997 29.586954,10.0234147 29.5879851,10.0418138 L29.5879851,10.0418748 C29.5902292,10.0798305 29.5612986,10.1126077 29.5234523,10.1149228 C29.5051357,10.1158976 29.4874862,10.1098661 29.4737791,10.0976813 C29.4600113,10.0853746 29.4518234,10.0684986 29.4507317,10.0500386 C29.44964,10.0317004 29.4557657,10.0139715 29.4678959,10.0002026 Z M29.5066686,10.1953039 C29.5099457,10.1953039 29.5132229,10.1952043 29.5165497,10.1950052 C29.6054294,10.1896293 29.6734547,10.1128224 29.6681914,10.0237205 C29.6656094,9.98056336 29.6464432,9.94094039 29.6141684,9.9122685 C29.5818936,9.88354682 29.5403833,9.86921088 29.4972841,9.87169976 C29.4541849,9.87428819 29.4147103,9.89355212 29.3860603,9.92585778 C29.3574102,9.95826299 29.3430604,9.99987706 29.3456423,10.0429845 C29.3482243,10.0861416 29.3674402,10.1257646 29.399715,10.1544365 C29.4295071,10.1810177 29.4671444,10.1953039 29.5066686,10.1953039 Z M30.1268904,11.1061841 C30.1170093,11.1173343 30.1062842,11.1274392 30.0958569,11.1379422 C30.0981906,11.1254481 30.0994816,11.1126054 30.0986872,11.0993646 L30.0986872,11.099265 C30.0933246,11.0101631 30.0165107,10.9422167 29.9276806,10.9473438 C29.8388505,10.9527198 29.7708748,11.0295764 29.7761878,11.1186285 C29.7787697,11.1617857 29.7978863,11.2014087 29.8301611,11.2300806 C29.8565271,11.2535756 29.8891991,11.2668164 29.9237083,11.2697035 C29.8215214,11.3272962 29.7072687,11.3621405 29.5868093,11.369408 C29.4662507,11.3767254 29.3486215,11.355769 29.240228,11.3107203 C29.3174888,11.2946919 29.3736966,11.2243561 29.3688802,11.1431689 C29.3662982,11.1000117 29.3470823,11.0603887 29.3147082,11.0316671 C29.2824334,11.0029952 29.2409231,10.9888583 29.1978735,10.9911979 C29.154824,10.9937863 29.1153494,11.0130502 29.086749,11.0454057 C29.0581486,11.0777611 29.0437988,11.1193752 29.0464304,11.1624826 C29.0472249,11.1756736 29.0500054,11.1883172 29.0537791,11.2006122 C29.0422099,11.1914034 29.030293,11.1826425 29.019121,11.172687 C28.9022863,11.0687514 28.8208546,10.935447 28.7817276,10.7874084 C28.7909135,10.7890511 28.800298,10.7899968 28.8097322,10.7899968 C28.8130093,10.7899968 28.8163361,10.7898973 28.8196629,10.7896982 C28.8627125,10.7871097 28.902187,10.7678458 28.9308371,10.7355401 C28.9595368,10.7031349 28.9738866,10.6615706 28.971255,10.6184135 C28.968673,10.5752563 28.9494571,10.5356333 28.9171824,10.5069614 C28.8849076,10.47819 28.8433476,10.4638043 28.8003477,10.4664425 C28.7873881,10.4671891 28.7749748,10.4699269 28.7628593,10.4736104 C28.7840117,10.3218386 28.8490578,10.1795742 28.9527839,10.0622982 C28.9621188,10.0517453 28.9722977,10.0422378 28.9821291,10.0322325 C28.9806395,10.0429347 28.9800933,10.0538858 28.9807885,10.0649364 C28.9833705,10.1080936 29.0025367,10.1476667 29.0348115,10.1763386 C29.0646036,10.2028701 29.1022409,10.217206 29.1417651,10.217206 C29.1450422,10.217206 29.1483194,10.2171065 29.1515965,10.2169074 C29.2405259,10.2115812 29.3086008,10.1347246 29.3032383,10.0455729 C29.3007059,10.0024157 29.28149,9.96279276 29.2491656,9.93412086 C29.2247361,9.91241783 29.1949936,9.89887832 29.1633644,9.89474678 C29.2636644,9.83959321 29.3753351,9.80614266 29.4929642,9.79907424 C29.5090023,9.79812847 29.5249907,9.79768047 29.5409792,9.79768047 C29.6420737,9.79768047 29.7405365,9.81744218 29.8323955,9.85452649 C29.8010642,9.86234157 29.7728113,9.87926595 29.7509638,9.90395564 C29.7223137,9.93636085 29.7079639,9.97797492 29.7105955,10.0210823 C29.7131775,10.0642395 29.7323437,10.1038127 29.7645688,10.1325344 C29.7943609,10.1590658 29.8320479,10.173352 29.8715225,10.173352 C29.8747996,10.173352 29.8781264,10.1732524 29.8814035,10.1731031 C29.9245027,10.1705147 29.9639773,10.1512507 29.9926273,10.1188953 C30.0212774,10.0864901 30.0356272,10.0449258 30.0330453,10.0017188 C30.0323998,9.99056865 30.0305129,9.97966736 30.0276827,9.96911451 C30.0386561,9.97792514 30.0499275,9.98638734 30.0605036,9.9957953 C30.1774873,10.0997807 30.258919,10.2332344 30.2980459,10.3813726 C30.2855829,10.3791326 30.2728716,10.3778881 30.2599121,10.3787343 C30.1710323,10.3841103 30.1031063,10.4609669 30.1084193,10.5501186 C30.1135832,10.6359352 30.1848856,10.7023385 30.2694952,10.7023385 C30.2727227,10.7023385 30.2759998,10.7022389 30.2792273,10.7020398 C30.2921868,10.7012434 30.3046995,10.6985056 30.316815,10.6947723 C30.2956626,10.846594 30.2306662,10.9889081 30.1268904,11.1061841 Z M29.9538961,11.1904558 C29.9356326,11.1917341 29.9179759,11.1854645 29.9042025,11.1731687 C29.8904897,11.1609946 29.8823591,11.1441336 29.8813276,11.1256899 C29.8790219,11.0877677 29.9079037,11.0549587 29.9457048,11.0527065 C29.9471004,11.0525847 29.9484959,11.0525239 29.9498308,11.0525239 C29.985933,11.0525239 30.0163316,11.0808285 30.0185766,11.1174115 C30.0208216,11.1553946 29.9918185,11.1881427 29.9538961,11.1904558 Z M29.15152,11.1695221 C29.1504278,11.1511295 29.1564955,11.1334068 29.168631,11.1195819 C29.1808272,11.1058179 29.1976349,11.0976569 29.2158988,11.0965606 C29.2172944,11.0964388 29.21869,11.0963779 29.2200856,11.0963779 C29.2368932,11.0963779 29.2529728,11.1025291 29.2657151,11.113857 C29.2794888,11.1260985 29.2876803,11.1429685 29.2887725,11.1613003 L29.2887725,11.1613612 C29.2910176,11.1993036 29.2620137,11.2320692 29.2240903,11.2343226 C29.2058263,11.2355407 29.1881692,11.2293286 29.1744561,11.2170872 C29.160743,11.2049066 29.1526122,11.1880366 29.15152,11.1695221 Z M28.7592,10.6673015 C28.7585166,10.6596886 28.7571499,10.6522584 28.756715,10.6445846 C28.756218,10.6369108 28.756715,10.6293588 28.7564044,10.6217459 C28.7592621,10.6119405 28.7637352,10.6026832 28.7708174,10.5948876 C28.7832425,10.5810625 28.8004512,10.5729015 28.8192131,10.5718052 C28.8207041,10.5716834 28.822133,10.5716225 28.8235619,10.5716225 C28.8407706,10.5716225 28.8571717,10.5777128 28.870218,10.5890409 C28.8842584,10.6012824 28.8926453,10.6182135 28.8937636,10.6365454 L28.8937636,10.6366063 C28.8949439,10.6549991 28.8886693,10.672661 28.8761821,10.6864251 C28.8636949,10.7002502 28.8464862,10.7084112 28.8276622,10.7095684 C28.8089003,10.7107864 28.7908218,10.7045134 28.7767815,10.6923327 C28.7687673,10.6853898 28.7632381,10.6766806 28.7592,10.6673015 Z M29.1545914,9.99888151 C29.1713902,9.99888151 29.1874006,10.0049766 29.2000755,10.0162526 C29.213842,10.0285037 29.2220291,10.0453872 29.2231208,10.0637334 C29.2253646,10.1017669 29.1963761,10.1346195 29.1585334,10.1368747 C29.1402185,10.1378499 29.1225707,10.1318158 29.1088042,10.1195646 C29.0950983,10.1073135 29.0869718,10.09043 29.0858802,10.0720228 C29.0847279,10.0535546 29.0908531,10.0358788 29.1029822,10.0221039 C29.1151719,10.008268 29.1319707,10.0001005 29.1503463,9.99900341 C29.1517411,9.99888151 29.1531359,9.99888151 29.1545914,9.99888151 Z M29.9529352,10.0199234 C29.9540274,10.0383258 29.9478991,10.0560579 29.9357031,10.0698902 C29.9235072,10.0836615 29.9066998,10.0918878 29.8883755,10.0929846 C29.8699905,10.0941424 29.8523943,10.0879879 29.8386814,10.07574 C29.8249686,10.063492 29.8167772,10.046613 29.8156851,10.0281496 C29.8145929,10.0097472 29.8206605,9.99201508 29.8328565,9.97824374 C29.8450525,9.96441146 29.8617992,9.95624615 29.8801235,9.95514932 C29.881519,9.95508839 29.8829146,9.95502745 29.8843102,9.95502745 C29.9011175,9.95502745 29.9171968,9.96112096 29.9299389,9.9724549 C29.9436517,9.98464193 29.9518431,10.001521 29.9529352,10.0199234 Z M30.3481025,10.5265418 C30.3487238,10.534095 30.3501529,10.5414653 30.3506499,10.5490794 L30.3506499,10.5491403 C30.3510849,10.5566934 30.3505878,10.5641856 30.3508363,10.5717996 C30.3480404,10.5816065 30.3435668,10.5909261 30.3364216,10.5987838 C30.323933,10.6126108 30.3067223,10.620834 30.2879583,10.6219304 C30.2494362,10.6242451 30.2158847,10.595129 30.2134615,10.5571807 C30.2111626,10.5191715 30.2407998,10.4863398 30.2794462,10.484086 C30.2809374,10.4840251 30.2823664,10.4839642 30.2837954,10.4839642 C30.3010061,10.4839642 30.3174091,10.4900554 30.3304569,10.5013851 C30.3385341,10.50839 30.3440639,10.5171004 30.3481025,10.5265418 Z M30.638222,10.5182609 C30.6206447,10.2241749 30.489907,9.9544799 30.2700414,9.75900328 C30.0501261,9.56342711 29.7674984,9.4654648 29.4740463,9.48313585 C29.1805941,9.50070734 28.9115715,9.63182152 28.7165823,9.85228649 C28.5215433,10.0727017 28.4238253,10.3560855 28.4414523,10.6501716 C28.4589799,10.9443074 28.5897176,11.2140024 28.8096329,11.409479 C29.0126164,11.5900223 29.2692256,11.6873873 29.5383972,11.6873873 C29.5606916,11.6873873 29.5831846,11.6867402 29.6056777,11.6853464 C29.8990801,11.6677252 30.1681028,11.5366608 30.363092,11.3161958 C30.5581309,11.0957806 30.655849,10.8123968 30.638222,10.5182609 Z" id="Fill-1"></path>
        </g>
    </g>
</svg>