<?xml version="1.0" encoding="UTF-8"?>
<svg width="44px" height="53px" viewBox="0 0 44 53" version="1.1" xmlns="http://www.w3.org/2000/svg" xmlns:xlink="http://www.w3.org/1999/xlink">
    <!-- Generator: Sketch 49.2 (51160) - http://www.bohemiancoding.com/sketch -->
    <title>location-pin-unselected</title>
    <desc>Created with Sketch.</desc>
    <defs>
        <linearGradient x1="50%" y1="0%" x2="50%" y2="100%" id="linearGradient-1">
            <stop stop-color="#19A4EA" offset="0%"></stop>
            <stop stop-color="#0082C3" offset="100%"></stop>
        </linearGradient>
        <path d="M7.52,2.74985211e-16 C3.36,2.74985211e-16 0,3.37272727 0,7.54848485 L0,32.2015152 C0,36.3772727 3.36,39.75 7.52,39.75 L13.04,39.75 C13.36,39.75 15.2,39.9106061 15.36,40.1515152 L21.76,52.8393939 L28.16,40.1515152 C28.32,39.9106061 30.16,39.75 30.48,39.75 L36.08,39.75 C40.24,39.75 43.6,36.3772727 43.6,32.2015152 L43.6,7.54848485 C43.6,3.37272727 40.24,0 36.08,0 C31.5534722,4.35829201e-17 28.1585764,7.62701102e-17 25.8953125,9.80615702e-17 C21.8119097,1.37377935e-16 15.6868056,1.96352482e-16 7.52,2.74985211e-16 Z" id="path-2"></path>
        <filter x="-18.3%" y="-13.2%" width="136.7%" height="130.3%" filterUnits="objectBoundingBox" id="filter-3">
            <feOffset dx="0" dy="1" in="SourceAlpha" result="shadowOffsetOuter1"></feOffset>
            <feGaussianBlur stdDeviation="2.5" in="shadowOffsetOuter1" result="shadowBlurOuter1"></feGaussianBlur>
            <feComposite in="shadowBlurOuter1" in2="SourceAlpha" operator="out" result="shadowBlurOuter1"></feComposite>
            <feColorMatrix values="0 0 0 0 0   0 0 0 0 0   0 0 0 0 0  0 0 0 0.271993886 0" type="matrix" in="shadowBlurOuter1"></feColorMatrix>
        </filter>
    </defs>
    <g id="location-pin-unselected" stroke="none" stroke-width="1" fill="none" fill-rule="evenodd">
        <g id="location-pin">
            <g id="Path">
                <use fill="black" fill-opacity="1" filter="url(#filter-3)" xlink:href="#path-2"></use>
                <use fill="url(#linearGradient-1)" fill-rule="evenodd" xlink:href="#path-2"></use>
                <path stroke="#FFFFFF" stroke-width="1.6" d="M21.7603516,51.0637612 L27.493587,39.7089163 C27.8561269,39.1630466 29.4327868,38.95 30.48,38.95 L36.08,38.95 C39.7974937,38.95 42.8,35.9361206 42.8,32.2015152 L42.8,7.54848485 C42.8,3.81387942 39.7974937,0.8 36.08,0.8 C29.8560243,0.8 29.8560243,0.8 25.8953125,0.8 C18.7493576,0.8 18.7493576,0.8 7.52,0.8 C3.80250629,0.8 0.8,3.81387942 0.8,7.54848485 L0.8,32.2015152 C0.8,35.9361206 3.80250629,38.95 7.52,38.95 L13.04,38.95 C14.0872132,38.95 15.6638731,39.1630466 16.0742749,39.7912217 L21.7603516,51.0637612 Z M28.6049411,40.8017139 C28.6026515,40.8025804 28.6005695,40.8034023 28.5987008,40.8041765 C28.6031444,40.8023356 28.6075985,40.8004198 28.6120829,40.798383 Z"></path>
            </g>
        </g>
        <g id="kitesurf" transform="translate(6.000000, 6.000000)" fill="#FFFFFF">
            <path d="M16.5140434,12.3369098 L14.5464016,10.9845278 C14.5929938,11.1358714 14.6063116,11.3291804 14.5297239,11.5605961 C14.4441091,11.8193674 13.8157413,13.3436855 13.455633,14.2128603 L14.0466785,14.2703891 L16.5140434,12.3369098 Z M11.9960936,20.8930943 L14.072707,22.4927592 L15.1559463,24.0816726 C15.5566153,23.8048234 15.9338465,23.5590145 16.2563895,23.3727721 C16.4243402,23.2757058 16.6910615,23.1501135 17.0098399,23.0112554 L14.6410028,20.8556811 L11.9960936,20.8930943 Z M27.037535,8.659922 C26.1631309,8.82613558 25.0057327,9.0376092 24.2934502,9.1379703 C22.6997202,9.36244968 22.0322894,9.26399609 21.7001527,8.08961952 L17.3801086,12.3046989 L18.5780676,13.1280501 C18.619276,13.1562725 18.6499597,13.1955066 18.6689852,13.2397695 C18.7029882,13.3188445 18.6998308,13.41409 18.6527528,13.4927748 C18.579282,13.6155926 18.4267946,13.6514017 18.3121558,13.5727603 L16.9519133,12.6378197 C16.9021232,12.8058107 16.7941231,13.0092208 16.5854902,13.2474429 C16.3539458,13.5118066 15.448939,14.5598106 14.8691469,15.1988268 C14.4275934,15.6853722 14.3652545,15.6853722 13.7634819,15.6853722 C13.4336525,15.6853722 12.3628405,15.651037 11.6091472,15.6253723 C11.2433313,17.1745314 10.8695814,18.0643854 10.8695814,18.0643854 L11.4679537,18.9302654 C11.4679537,18.9302654 14.0610083,18.8255257 14.4661301,18.8091384 C14.9184109,18.790887 15.1019462,18.8256124 15.4337591,19.2091522 C15.6149467,19.4185882 17.2102149,21.1981227 18.3459565,22.4642332 C19.3775435,22.059494 20.3694604,21.6989744 20.3694604,21.6989744 L22.2872311,22.4197969 C22.2872311,22.4197969 21.1975151,24.8226973 19.1344219,26.406105 C18.7209613,26.7234888 17.4121281,27.6487184 16.8485684,28.0458709 C18.9876017,28.4808268 21.5259681,28.8403926 25.5945922,28.8403926 L25.5945922,29.3606229 C20.2260405,29.3606229 17.4971357,28.7406385 14.8580555,28.1411164 C12.2434656,27.5471434 9.5399011,26.9328815 4.22235391,26.9328815 L4.22235391,26.4126512 C7.35164439,26.4126512 9.58390263,26.6233445 11.4244379,26.9177948 C11.8755043,26.5528532 12.8570583,25.7672621 13.8910337,24.9948502 L12.6517043,23.670734 C12.6517043,23.670734 9.4689805,22.1056645 8.69290189,21.7768789 C8.28543228,21.1871112 8.04291783,20.2038759 7.90038848,19.1577361 C7.62306141,17.1224651 7.98211718,15.0636536 8.76608935,14.1698112 C8.94768171,13.9627596 9.24350805,13.7400143 9.63328798,13.7865316 C9.7123855,13.7959391 10.1126497,13.848439 10.5765077,13.909566 L12.5786788,13.2876741 L14.2009875,10.7471293 L13.3729328,10.1779974 C13.2580511,10.0992692 13.2248172,9.93604694 13.2982881,9.81327259 C13.3717184,9.69045489 13.5242058,9.65468905 13.6388446,9.73333053 L14.3942785,10.2525637 L14.9904244,5.76093861 C14.8401229,5.7838721 14.7101423,5.80260039 14.6113716,5.81508592 C13.9126499,5.90356842 13.7336482,5.71862655 13.7758282,4.84836795 C13.8829782,2.63552498 14.9358981,0.788100455 16.3726475,0.788100455 C16.3758454,0.788100455 16.3790837,0.787796987 16.3822412,0.787796987 C17.5986995,0.790441491 18.6639252,1.76439933 19.4043816,3.03792312 C19.4495976,3.11569756 19.3775435,3.2125471 19.2973935,3.18046623 C18.210592,2.74503346 17.6713607,4.36997283 17.6169154,4.97946598 C17.5874866,5.30829489 17.5176184,5.34414743 17.1815147,5.4003323 C16.7145803,5.4784102 15.9967521,5.60079438 15.408014,5.69538959 L14.7689595,10.5100344 L15.559287,11.0532415 L19.0136707,3.63705503 C19.0635418,3.52997429 19.1850621,3.48644835 19.2851282,3.53985867 C19.3851537,3.59331233 19.4257955,3.72345661 19.3758839,3.83062406 L15.9019484,11.2887324 L17.0274486,12.0623149 L21.5747463,7.62548739 C20.9866558,5.43739871 19.8750807,1.52171189 17.2957892,0.60623661 C17.2011069,0.572638403 17.2184323,0.424025945 17.3179316,0.416092433 L20.4652356,0.165384777 C21.2871778,0.0997490533 22.0237482,0.0406595609 22.4155116,0.00875210206 C25.738336,-0.262201183 27.2372218,5.83650206 27.5857528,7.41756867 C27.7406285,8.11983623 27.7865731,8.51750895 27.037535,8.659922 Z M8.64703828,12.2020401 C8.44698714,11.836535 8.27191203,11.2625042 8.38541737,10.720034 C8.52389875,10.058171 9.26556953,9.58883657 10.2701566,9.68716009 C11.2747841,9.78544027 11.7271863,10.6558289 11.8079435,11.2212326 L11.3626253,11.4002351 C11.3536388,11.5079228 11.3336822,11.6164775 11.3008531,11.7244253 C11.2225247,11.9816359 10.9466549,12.8881372 10.8050971,13.3531364 C10.7448226,13.5513441 10.5347325,13.4913442 10.2799122,13.4532807 C9.99230328,13.4103617 9.73432555,13.3718647 9.73432555,13.3718647 C9.73432555,13.3718647 9.24690835,12.7370103 8.91687659,12.205595 L8.64703828,12.2020401 Z" id="Fill-1"></path>
        </g>
    </g>
</svg>