<?xml version="1.0" encoding="UTF-8"?>
<svg width="44px" height="53px" viewBox="0 0 44 53" version="1.1" xmlns="http://www.w3.org/2000/svg" xmlns:xlink="http://www.w3.org/1999/xlink">
    <!-- Generator: Sketch 49.2 (51160) - http://www.bohemiancoding.com/sketch -->
    <title>location-pin-unselected</title>
    <desc>Created with Sketch.</desc>
    <defs>
        <linearGradient x1="50%" y1="0%" x2="50%" y2="100%" id="linearGradient-1">
            <stop stop-color="#19A4EA" offset="0%"></stop>
            <stop stop-color="#0082C3" offset="100%"></stop>
        </linearGradient>
        <path d="M7.52,2.74985211e-16 C3.36,2.74985211e-16 0,3.37272727 0,7.54848485 L0,32.2015152 C0,36.3772727 3.36,39.75 7.52,39.75 L13.04,39.75 C13.36,39.75 15.2,39.9106061 15.36,40.1515152 L21.76,52.8393939 L28.16,40.1515152 C28.32,39.9106061 30.16,39.75 30.48,39.75 L36.08,39.75 C40.24,39.75 43.6,36.3772727 43.6,32.2015152 L43.6,7.54848485 C43.6,3.37272727 40.24,0 36.08,0 C31.5534722,4.35829201e-17 28.1585764,7.62701102e-17 25.8953125,9.80615702e-17 C21.8119097,1.37377935e-16 15.6868056,1.96352482e-16 7.52,2.74985211e-16 Z" id="path-2"></path>
        <filter x="-18.3%" y="-13.2%" width="136.7%" height="130.3%" filterUnits="objectBoundingBox" id="filter-3">
            <feOffset dx="0" dy="1" in="SourceAlpha" result="shadowOffsetOuter1"></feOffset>
            <feGaussianBlur stdDeviation="2.5" in="shadowOffsetOuter1" result="shadowBlurOuter1"></feGaussianBlur>
            <feComposite in="shadowBlurOuter1" in2="SourceAlpha" operator="out" result="shadowBlurOuter1"></feComposite>
            <feColorMatrix values="0 0 0 0 0   0 0 0 0 0   0 0 0 0 0  0 0 0 0.271993886 0" type="matrix" in="shadowBlurOuter1"></feColorMatrix>
        </filter>
        <polygon id="path-4" points="0.0504052257 0.0330951833 4.02582515 0.0330951833 4.02582515 4.87988187 0.0504052257 4.87988187"></polygon>
        <polygon id="path-6" points="0.13224536 0.0416834313 7.07861898 0.0416834313 7.07861898 16.2986795 0.13224536 16.2986795"></polygon>
    </defs>
    <g id="location-pin-unselected" stroke="none" stroke-width="1" fill="none" fill-rule="evenodd">
        <g id="location-pin">
            <g id="Path">
                <use fill="black" fill-opacity="1" filter="url(#filter-3)" xlink:href="#path-2"></use>
                <use fill="url(#linearGradient-1)" fill-rule="evenodd" xlink:href="#path-2"></use>
                <path stroke="#FFFFFF" stroke-width="1.6" d="M21.7603516,51.0637612 L27.493587,39.7089163 C27.8561269,39.1630466 29.4327868,38.95 30.48,38.95 L36.08,38.95 C39.7974937,38.95 42.8,35.9361206 42.8,32.2015152 L42.8,7.54848485 C42.8,3.81387942 39.7974937,0.8 36.08,0.8 C29.8560243,0.8 29.8560243,0.8 25.8953125,0.8 C18.7493576,0.8 18.7493576,0.8 7.52,0.8 C3.80250629,0.8 0.8,3.81387942 0.8,7.54848485 L0.8,32.2015152 C0.8,35.9361206 3.80250629,38.95 7.52,38.95 L13.04,38.95 C14.0872132,38.95 15.6638731,39.1630466 16.0742749,39.7912217 L21.7603516,51.0637612 Z M28.6049411,40.8017139 C28.6026515,40.8025804 28.6005695,40.8034023 28.5987008,40.8041765 C28.6031444,40.8023356 28.6075985,40.8004198 28.6120829,40.798383 Z"></path>
            </g>
        </g>
        <g id="nordic-walk" transform="translate(4.000000, 5.000000)">
            <g id="Page-1" transform="translate(9.621615, 0.000000)">
                <g id="Group-3" transform="translate(4.407216, 0.171196)">
                    <mask id="mask-5" fill="white">
                        <use xlink:href="#path-4"></use>
                    </mask>
                    <g id="Clip-2"></g>
                    <path d="M4.02542545,2.00033825 C4.03591882,2.46285365 3.83738422,2.87879065 3.7144019,3.31107094 C3.60044388,3.71086893 3.45899322,4.10331243 3.35049175,4.50433616 C3.27535921,4.78176368 3.11355141,4.90535989 2.8235146,4.87553337 C2.16516043,4.80791296 1.52800288,4.72946512 1.14982175,4.07226016 C0.937226026,3.70269728 0.624103802,3.38951878 0.383175977,3.03384771 C-0.0944823228,2.32883859 -0.0510397621,1.42137683 0.469221629,0.776225052 C0.988853417,0.132094725 1.91373924,-0.131849576 2.70535923,0.138019172 C3.50789233,0.411565162 4.02983266,1.14803514 4.02542545,2.00033825" id="Fill-1" fill="#FFFFFF" mask="url(#mask-5)"></path>
                </g>
                <g id="Group-6" transform="translate(9.024300, 6.504225)">
                    <mask id="mask-7" fill="white">
                        <use xlink:href="#path-6"></use>
                    </mask>
                    <g id="Clip-5"></g>
                    <path d="M2.84983198,0.0426151557 C3.02549103,0.0352606706 3.18771856,0.0701944751 3.23095126,0.192156354 C3.3499461,0.52841976 3.57576347,0.423414055 3.80577818,0.366621086 C4.30211468,0.244046333 4.34954473,0.291033322 4.22278479,0.787665362 C4.19382308,0.901455591 4.17199687,1.06202852 4.09014857,1.11085413 C3.61689748,1.39216318 3.77492767,1.92086895 3.57240559,2.30493651 C3.54113534,2.36438527 3.5845779,2.46591802 3.60472517,2.54518303 C4.72835546,6.96706724 5.85471403,11.3881343 6.96806081,15.8122657 C7.00059027,15.9413778 7.21927214,16.12953 6.93343268,16.2590507 C6.6683701,16.3791739 6.62828542,16.2047092 6.58232445,16.02289 C6.21022948,14.5477028 5.8387641,13.07272 5.46373098,11.59835 C4.7113562,8.63980403 3.95709261,5.68187095 3.20345862,2.72352929 C3.0798467,2.23833756 2.74049104,2.05141106 2.25695645,2.18501754 C1.71822673,2.33374158 1.17299111,2.46060645 0.635940325,2.61443776 C0.439294531,2.67082215 0.351989675,2.65733893 0.325546377,2.43425288 C0.2867209,2.10493537 0.226698812,1.77623074 0.146949184,1.45406344 C0.0988895391,1.26039533 0.169614867,1.20544098 0.344854182,1.16662564 C0.926606734,1.03812644 1.50395207,0.890628154 2.08633422,0.764171868 C2.26870903,0.724539364 2.39022228,0.699002957 2.38665453,0.461207937 C2.38224732,0.171727229 2.61499031,0.0689687276 2.84983198,0.0426151557" id="Fill-4" fill="#FFFFFF" mask="url(#mask-7)"></path>
                </g>
                <path d="M9.47184237,17.4880873 C9.76229891,16.5747011 10.0508666,15.6609063 10.3436317,14.748133 C10.5826707,14.0032871 10.4561207,13.712172 9.74886739,13.4006279 C9.49387845,13.2882677 9.23154414,13.1885735 8.9862091,13.0588486 C8.73877539,12.9283065 8.58326361,12.9060387 8.60634903,13.2529253 C8.60949704,13.2990951 8.58830043,13.3464907 8.58704123,13.393682 C8.57151104,13.9491499 8.35555744,14.5185096 8.50708173,15.0527312 C8.74213327,15.8805194 9.09408097,16.677051 9.39629009,17.4870658 C9.42147418,17.4874744 9.44665827,17.4876787 9.47184237,17.4880873 M8.40361708,22.3874002 C8.08797645,23.3704497 7.77212595,24.3532949 7.45648531,25.3363444 C7.07872391,26.5138792 6.70369079,27.6922312 6.32047284,28.8683359 C6.26254943,29.0456607 6.25604354,29.3412702 5.95887124,29.2534249 C5.63567538,29.1576123 5.81616138,28.9004097 5.87555386,28.7134832 C6.59686827,26.4460545 7.32070108,24.1796473 8.05460752,21.9161002 C8.12428351,21.7007773 8.10203757,21.5420429 7.97317896,21.3567508 C7.64074893,20.878505 7.33077471,20.3855502 6.96833364,19.8317166 C6.83212967,20.6593004 6.70096252,21.402512 6.59015251,22.1483794 C6.507045,22.7079331 6.24240215,23.1375576 5.77775564,23.4862828 C4.00878296,24.8139717 2.25072339,26.1551438 0.497071038,27.5022403 C0.264957647,27.6805866 0.187936295,27.6174606 0.0953847528,27.3882458 C-0.0691513224,26.980889 -0.00640095701,26.5966172 0.174504779,26.217044 C0.392976787,25.7582059 0.724147612,25.3755683 1.06958942,25.0066183 C2.05638614,23.9526798 3.046121,22.9009884 4.04446043,21.8574686 C4.19262684,21.7024116 4.24341476,21.5553219 4.21718133,21.3500092 C4.04047294,19.9706346 3.88705984,18.5892171 3.85138238,17.1979937 C3.84340742,16.883998 3.68180948,16.6067748 3.61192363,16.3062624 C3.39953777,15.3924676 3.44277047,14.4919517 3.72189417,13.5985861 C3.74980654,13.5089022 4.52085952,7.06392172 4.53366143,6.97362499 C4.58528883,6.6089651 4.6157196,6.24103655 4.67238381,5.87719382 C4.7491953,5.38383044 5.05644123,5.09863985 5.54753105,5.16687313 C6.37881599,5.28250198 7.20632332,5.43898908 8.02396688,5.62591558 C8.40781443,5.71355653 8.54129012,6.07801212 8.62334829,6.41979139 C8.78431662,7.09150104 8.8063527,7.78445698 8.92408834,8.46290823 C9.05462589,9.21449576 8.85336301,9.94585845 8.83909203,10.755669 C8.36458174,10.4827359 7.93603242,10.2404464 7.51293965,9.98978107 C7.41157368,9.92971944 7.4075862,9.80775756 7.38555012,9.70377331 C7.31167678,9.35545673 7.23549489,9.00734443 7.16749784,8.65780209 C7.14735057,8.55402213 7.11503098,8.4567795 6.9943572,8.47210134 C6.82646325,8.49314334 6.92258254,8.6179653 6.9318167,8.69641314 C6.98239476,9.12093036 7.04892274,9.54381326 7.09068636,9.96894336 C7.10705602,10.134215 7.18953392,10.2208345 7.32468856,10.2982609 C8.43992415,10.9354453 9.55369067,11.5756941 10.6657782,12.2179858 C10.777008,12.2823375 10.859276,12.298068 10.9942208,12.2390278 C11.3663158,12.0762077 11.6767097,12.2549625 11.7191029,12.6547605 C11.7346331,12.8014416 11.8034697,12.8604818 11.9142797,12.9199305 C12.2347473,13.0921481 12.5480793,13.2774402 12.8737936,13.4394432 C13.0622546,13.5330086 13.0603658,13.6145208 12.9260506,13.7536431 C12.5785101,14.1142172 12.1761942,14.3166698 11.6534144,14.2202444 C11.5394564,14.1992024 11.3879321,14.0625315 11.3243423,14.1595699 C11.2097547,14.3346475 10.9681972,14.3661083 10.9002002,14.5822485 C10.5211796,15.7847068 10.1360728,16.9853265 9.74655885,18.1845162 C9.70059788,18.3258857 9.75033646,18.4404931 9.79503823,18.5618421 C9.99273336,19.098311 10.1629359,19.6466287 10.3971479,20.1677757 C10.8177223,21.1040425 10.8521405,22.0629856 10.7415404,23.0625828 C10.4831936,25.4002876 10.260944,27.7418739 10.0433114,30.0836646 C10.0135102,30.4035847 9.92074883,30.4663021 9.62735414,30.3559848 C9.05861337,30.1425005 8.82461117,29.6924468 8.71065315,29.1582252 C8.63845875,28.8197146 8.6420265,28.4738495 8.6330022,28.1290059 C8.58263401,26.2166354 8.52617967,24.3044693 8.471824,22.3920989 C8.44915832,22.3906688 8.42628277,22.3890345 8.40361708,22.3874002" id="Fill-7" fill="#FFFFFF"></path>
            </g>
        </g>
    </g>
</svg>