<?xml version="1.0" encoding="UTF-8"?>
<svg width="44px" height="53px" viewBox="0 0 44 53" version="1.1" xmlns="http://www.w3.org/2000/svg" xmlns:xlink="http://www.w3.org/1999/xlink">
    <!-- Generator: Sketch 49.2 (51160) - http://www.bohemiancoding.com/sketch -->
    <title>location-pin-unselected</title>
    <desc>Created with Sketch.</desc>
    <defs>
        <linearGradient x1="50%" y1="0%" x2="50%" y2="100%" id="linearGradient-1">
            <stop stop-color="#19A4EA" offset="0%"></stop>
            <stop stop-color="#0082C3" offset="100%"></stop>
        </linearGradient>
        <path d="M7.52,2.74985211e-16 C3.36,2.74985211e-16 0,3.37272727 0,7.54848485 L0,32.2015152 C0,36.3772727 3.36,39.75 7.52,39.75 L13.04,39.75 C13.36,39.75 15.2,39.9106061 15.36,40.1515152 L21.76,52.8393939 L28.16,40.1515152 C28.32,39.9106061 30.16,39.75 30.48,39.75 L36.08,39.75 C40.24,39.75 43.6,36.3772727 43.6,32.2015152 L43.6,7.54848485 C43.6,3.37272727 40.24,0 36.08,0 C31.5534722,4.35829201e-17 28.1585764,7.62701102e-17 25.8953125,9.80615702e-17 C21.8119097,1.37377935e-16 15.6868056,1.96352482e-16 7.52,2.74985211e-16 Z" id="path-2"></path>
        <filter x="-18.3%" y="-13.2%" width="136.7%" height="130.3%" filterUnits="objectBoundingBox" id="filter-3">
            <feOffset dx="0" dy="1" in="SourceAlpha" result="shadowOffsetOuter1"></feOffset>
            <feGaussianBlur stdDeviation="2.5" in="shadowOffsetOuter1" result="shadowBlurOuter1"></feGaussianBlur>
            <feComposite in="shadowBlurOuter1" in2="SourceAlpha" operator="out" result="shadowBlurOuter1"></feComposite>
            <feColorMatrix values="0 0 0 0 0   0 0 0 0 0   0 0 0 0 0  0 0 0 0.271993886 0" type="matrix" in="shadowBlurOuter1"></feColorMatrix>
        </filter>
    </defs>
    <g id="location-pin-unselected" stroke="none" stroke-width="1" fill="none" fill-rule="evenodd">
        <g id="location-pin">
            <g id="Path">
                <use fill="black" fill-opacity="1" filter="url(#filter-3)" xlink:href="#path-2"></use>
                <use fill="url(#linearGradient-1)" fill-rule="evenodd" xlink:href="#path-2"></use>
                <path stroke="#FFFFFF" stroke-width="1.6" d="M21.7603516,51.0637612 L27.493587,39.7089163 C27.8561269,39.1630466 29.4327868,38.95 30.48,38.95 L36.08,38.95 C39.7974937,38.95 42.8,35.9361206 42.8,32.2015152 L42.8,7.54848485 C42.8,3.81387942 39.7974937,0.8 36.08,0.8 C29.8560243,0.8 29.8560243,0.8 25.8953125,0.8 C18.7493576,0.8 18.7493576,0.8 7.52,0.8 C3.80250629,0.8 0.8,3.81387942 0.8,7.54848485 L0.8,32.2015152 C0.8,35.9361206 3.80250629,38.95 7.52,38.95 L13.04,38.95 C14.0872132,38.95 15.6638731,39.1630466 16.0742749,39.7912217 L21.7603516,51.0637612 Z M28.6049411,40.8017139 C28.6026515,40.8025804 28.6005695,40.8034023 28.5987008,40.8041765 C28.6031444,40.8023356 28.6075985,40.8004198 28.6120829,40.798383 Z"></path>
            </g>
        </g>
        <g id="orienteering" transform="translate(5.000000, 6.000000)" fill="#FFFFFF">
            <path d="M15.8238635,4.80366651 C15.7943861,4.79568651 15.7669696,4.78868651 15.7421894,4.78224651 C15.7004417,4.76978651 15.6770514,4.76278651 15.6770514,4.76278651 C15.6770514,4.76278651 15.7448735,4.78168651 15.8238635,4.80366651 Z M15.3548125,2.30062295 C15.2818618,1.96302338 15.3049645,1.60771146 15.4111792,1.25723897 C15.7185595,0.245988903 16.8064932,-0.192851815 17.6846816,0.0789797146 C18.5620552,0.350520878 19.1671338,1.37716038 18.8641152,2.37548914 C18.7671032,2.69508597 18.4249731,3.82156319 18.2494504,4.39939272 C18.1748221,4.6455752 17.8980696,4.57637116 17.5633208,4.53528428 C17.1853863,4.48882563 16.8464675,4.44739999 16.8464675,4.44739999 C16.8464675,4.44739999 15.4643824,2.80944202 15.3548125,2.30062295 Z M15.5528147,12.8362846 L13.004477,9.06727775 L15.4729141,7.55320952 L15.3930134,7.93228311 L14.2751709,8.7556176 L14.2451183,10.2881241 L15.6268679,12.4709066 L15.5528147,12.8362846 Z M20.6645884,10.1245509 C20.9725439,10.3749437 21.2853883,10.3325986 21.4615341,10.1367947 L21.4697302,10.1368915 C21.4697302,10.1368915 23.8598483,7.70468409 24.6133208,6.94387521 C25.3668411,6.18311473 24.6383886,5.24653727 24.6383886,5.24653727 L21.3065737,8.02394217 C21.3065737,8.02394217 19.5538396,5.82141473 19.3723256,5.59299301 C19.1279743,5.28554318 19.0169666,5.10764524 18.5546259,5.05987994 C18.2551062,5.0289559 16.4839667,4.83779789 15.8238635,4.77691769 C16.0126151,4.7950656 16.2656898,4.81950479 15.8126477,4.7768209 C15.7850875,4.77396563 15.7617931,4.77154591 15.7421894,4.76951334 C15.7181281,4.76743238 15.6955527,4.7654966 15.6762845,4.76394798 C14.7959392,4.69324371 14.5053826,5.01961577 13.5039161,5.99442483 C13.5039161,5.99442483 11.3343757,8.08356411 11.0761724,8.34426492 C10.817969,8.60501412 10.5566982,9.11092953 11.0313091,9.60997292 C11.3250292,9.91882619 13.5610976,12.111094 14.1395267,12.6844712 C13.4793756,13.3510078 13.4231048,14.4918097 13.8755717,15.445422 L12.6026251,20.1029991 C12.6026251,20.1029991 9.48079513,25.221533 9.13372809,25.8050731 C8.78666105,26.3886616 8.23881181,27.3955078 9.43008432,28.1212307 L14.5363939,21.4337976 L16.4236218,18.637422 L15.1054285,17.0869128 L15.1867671,16.7740912 C15.1867671,16.7740912 15.6390423,17.2454046 16.7764885,18.3939013 C17.9139826,19.5423496 18.9622296,20.9539668 18.9622296,20.9539668 C18.9622296,20.9539668 21.6172134,26.4641569 21.9114606,27.06328 C22.2057079,27.6624515 22.9740868,28.8064475 24.3612047,28.2754637 L21.3314019,19.8659147 L18.2931154,14.418347 L19.5176998,9.23423854 L20.6645884,10.1245509 Z" id="Fill-1"></path>
            <g id="noun_1446069_cc" stroke-width="1" transform="translate(22.840878, 9.850128)">
                <path d="M1.50873256,5.15223835 C0.630255359,4.70487095 0.0279264268,3.78806951 0.0279264268,2.72975751 C0.0279264268,1.23129563 1.23534754,0.0163281408 2.7245022,0.0163281408 C4.21365686,0.0163281408 5.42107798,1.23129563 5.42107798,2.72975751 C5.42107798,3.78806951 4.81874904,4.70487095 3.94021305,5.15223835 L2.72444341,8.69905366 L1.50873256,5.15223835 Z M2.72444341,4.48899637 C3.69010985,4.48899637 4.47275531,3.70145937 4.47275531,2.72975751 C4.47275531,1.7579965 3.69010985,0.97051866 2.72444341,0.97051866 C1.75871817,0.97051866 0.976131504,1.7579965 0.976131504,2.72975751 C0.976190297,3.70145937 1.75877697,4.48899637 2.72444341,4.48899637 Z" id="Shape"></path>
            </g>
        </g>
    </g>
</svg>