<?xml version="1.0" encoding="UTF-8"?>
<svg width="44px" height="53px" viewBox="0 0 44 53" version="1.1" xmlns="http://www.w3.org/2000/svg" xmlns:xlink="http://www.w3.org/1999/xlink">
    <!-- Generator: Sketch 49.2 (51160) - http://www.bohemiancoding.com/sketch -->
    <title>location-pin-unselected</title>
    <desc>Created with Sketch.</desc>
    <defs>
        <linearGradient x1="50%" y1="0%" x2="50%" y2="100%" id="linearGradient-1">
            <stop stop-color="#19A4EA" offset="0%"></stop>
            <stop stop-color="#0082C3" offset="100%"></stop>
        </linearGradient>
        <path d="M7.52,2.74985211e-16 C3.36,2.74985211e-16 0,3.37272727 0,7.54848485 L0,32.2015152 C0,36.3772727 3.36,39.75 7.52,39.75 L13.04,39.75 C13.36,39.75 15.2,39.9106061 15.36,40.1515152 L21.76,52.8393939 L28.16,40.1515152 C28.32,39.9106061 30.16,39.75 30.48,39.75 L36.08,39.75 C40.24,39.75 43.6,36.3772727 43.6,32.2015152 L43.6,7.54848485 C43.6,3.37272727 40.24,0 36.08,0 C31.5534722,4.35829201e-17 28.1585764,7.62701102e-17 25.8953125,9.80615702e-17 C21.8119097,1.37377935e-16 15.6868056,1.96352482e-16 7.52,2.74985211e-16 Z" id="path-2"></path>
        <filter x="-18.3%" y="-13.2%" width="136.7%" height="130.3%" filterUnits="objectBoundingBox" id="filter-3">
            <feOffset dx="0" dy="1" in="SourceAlpha" result="shadowOffsetOuter1"></feOffset>
            <feGaussianBlur stdDeviation="2.5" in="shadowOffsetOuter1" result="shadowBlurOuter1"></feGaussianBlur>
            <feComposite in="shadowBlurOuter1" in2="SourceAlpha" operator="out" result="shadowBlurOuter1"></feComposite>
            <feColorMatrix values="0 0 0 0 0   0 0 0 0 0   0 0 0 0 0  0 0 0 0.271993886 0" type="matrix" in="shadowBlurOuter1"></feColorMatrix>
        </filter>
    </defs>
    <g id="location-pin-unselected" stroke="none" stroke-width="1" fill="none" fill-rule="evenodd">
        <g id="location-pin">
            <g id="Path">
                <use fill="black" fill-opacity="1" filter="url(#filter-3)" xlink:href="#path-2"></use>
                <use fill="url(#linearGradient-1)" fill-rule="evenodd" xlink:href="#path-2"></use>
                <path stroke="#FFFFFF" stroke-width="1.6" d="M21.7603516,51.0637612 L27.493587,39.7089163 C27.8561269,39.1630466 29.4327868,38.95 30.48,38.95 L36.08,38.95 C39.7974937,38.95 42.8,35.9361206 42.8,32.2015152 L42.8,7.54848485 C42.8,3.81387942 39.7974937,0.8 36.08,0.8 C29.8560243,0.8 29.8560243,0.8 25.8953125,0.8 C18.7493576,0.8 18.7493576,0.8 7.52,0.8 C3.80250629,0.8 0.8,3.81387942 0.8,7.54848485 L0.8,32.2015152 C0.8,35.9361206 3.80250629,38.95 7.52,38.95 L13.04,38.95 C14.0872132,38.95 15.6638731,39.1630466 16.0742749,39.7912217 L21.7603516,51.0637612 Z M28.6049411,40.8017139 C28.6026515,40.8025804 28.6005695,40.8034023 28.5987008,40.8041765 C28.6031444,40.8023356 28.6075985,40.8004198 28.6120829,40.798383 Z"></path>
            </g>
        </g>
        <g id="canoying" transform="translate(6.000000, 7.000000)" fill="#FFFFFF">
            <path d="M23.8633171,22.8279216 C23.3017022,22.0054544 20.7496056,18.2709704 19.8439331,16.9916813 C19.5956391,16.6410129 19.3758246,16.3572012 18.8988313,16.1276165 C18.421838,15.8980318 15.8406377,14.6556452 15.8406377,14.6556452 L16.8826557,13.4361232 C16.8826557,13.4361232 21.0003008,15.6761938 21.5538474,15.9519302 C22.0716627,16.2098726 22.9116838,16.6450506 23.7058882,15.9770484 L24.6006108,20.655224 C24.6006108,20.655224 24.2733623,21.6160524 23.8633171,22.8279216 Z M26.8224333,-2.81699023e-05 L26.4382261,-2.81699023e-05 L26.4382261,4.20648944 L23.1404312,13.020758 L23.6451355,15.6595736 C21.7251558,14.2704218 17.6904995,11.4431965 17.6904995,11.4431965 C17.6904995,11.4431965 16.5749537,10.3525987 15.3825185,11.1423419 C14.1900353,11.9319912 12.8437731,12.7216405 12.8437731,12.7216405 L12.5860661,12.4429933 L14.560171,9.5625738 C14.560171,9.5625738 13.9901515,9.33618169 13.4147531,9.48017684 L17.1978978,0.019033464 C17.2003951,0.0127421858 17.2022681,0.00635700795 17.2043813,-2.81699023e-05 L16.4787579,-2.81699023e-05 L12.3282631,10.3799705 L11.5432796,11.315446 L10.3049797,9.97648357 C10.3049797,9.97648357 7.6407906,9.35890541 7.00656049,9.20998053 C6.37228236,9.06100869 5.30437832,8.96119334 5.34284707,10.1645646 C5.38131582,11.367795 7.22767176,14.6770543 7.22767176,14.6770543 C7.22767176,14.6770543 9.91837114,16.905857 10.2723221,17.1797623 C10.4433903,17.3122078 10.7302491,17.4912275 11.0644614,17.5901509 L12.1666559,27.0106357 C12.1667039,27.0110113 12.1668,27.0113869 12.166848,27.0118094 L12.8490079,27.0118094 L11.7523364,17.6469132 C11.9078443,17.6224993 12.0639285,17.569399 12.2154982,17.4770487 L11.6362578,16.5205866 L17.8904313,18.3447286 C17.8904313,18.3447286 21.0550984,21.8149319 21.4824809,22.268796 C21.8778302,22.6886684 22.6465808,23.4332459 23.7847948,23.0600886 C23.3145251,24.4508367 22.7595378,26.1009356 22.4636021,27.0118094 L22.8616889,27.0118094 C23.4597074,25.256402 24.9841937,20.7406258 24.9841937,20.7406258 L23.5241582,13.0868633 L26.8224333,4.27137411 L26.8224333,-2.81699023e-05 Z M6.63339921,7.30931027 C6.84466516,7.85500823 7.59262062,8.95058268 7.59262062,8.95058268 C7.59262062,8.95058268 8.01745778,9.05420097 8.35560818,9.12565862 C8.64044982,9.18584831 8.88893586,9.22059119 8.96779439,9.01927029 C9.15279018,8.54704883 9.50068984,7.65866401 9.60303305,7.39724732 C9.69740395,7.1563477 9.72304978,6.90887511 9.69404214,6.67243573 L10.6458676,6.80483427 L10.6685358,6.50365107 L10.2031167,6.1203526 C10.0013119,5.28877708 9.26838854,4.64378022 8.35013322,4.5777218 C7.21576134,4.49612298 6.22858885,5.32896614 6.1450718,6.43787435 C6.11942597,6.77891796 6.18224385,7.10653393 6.31465127,7.39884361 L6.63339921,7.30931027 Z" id="Fill-1"></path>
        </g>
    </g>
</svg>