<?xml version="1.0" encoding="UTF-8"?>
<svg width="44px" height="53px" viewBox="0 0 44 53" version="1.1" xmlns="http://www.w3.org/2000/svg" xmlns:xlink="http://www.w3.org/1999/xlink">
    <!-- Generator: Sketch 49.2 (51160) - http://www.bohemiancoding.com/sketch -->
    <title>location-pin-unselected</title>
    <desc>Created with Sketch.</desc>
    <defs>
        <linearGradient x1="50%" y1="0%" x2="50%" y2="100%" id="linearGradient-1">
            <stop stop-color="#19A4EA" offset="0%"></stop>
            <stop stop-color="#0082C3" offset="100%"></stop>
        </linearGradient>
        <path d="M7.52,2.74985211e-16 C3.36,2.74985211e-16 0,3.37272727 0,7.54848485 L0,32.2015152 C0,36.3772727 3.36,39.75 7.52,39.75 L13.04,39.75 C13.36,39.75 15.2,39.9106061 15.36,40.1515152 L21.76,52.8393939 L28.16,40.1515152 C28.32,39.9106061 30.16,39.75 30.48,39.75 L36.08,39.75 C40.24,39.75 43.6,36.3772727 43.6,32.2015152 L43.6,7.54848485 C43.6,3.37272727 40.24,0 36.08,0 C31.5534722,4.35829201e-17 28.1585764,7.62701102e-17 25.8953125,9.80615702e-17 C21.8119097,1.37377935e-16 15.6868056,1.96352482e-16 7.52,2.74985211e-16 Z" id="path-2"></path>
        <filter x="-18.3%" y="-13.2%" width="136.7%" height="130.3%" filterUnits="objectBoundingBox" id="filter-3">
            <feOffset dx="0" dy="1" in="SourceAlpha" result="shadowOffsetOuter1"></feOffset>
            <feGaussianBlur stdDeviation="2.5" in="shadowOffsetOuter1" result="shadowBlurOuter1"></feGaussianBlur>
            <feComposite in="shadowBlurOuter1" in2="SourceAlpha" operator="out" result="shadowBlurOuter1"></feComposite>
            <feColorMatrix values="0 0 0 0 0   0 0 0 0 0   0 0 0 0 0  0 0 0 0.271993886 0" type="matrix" in="shadowBlurOuter1"></feColorMatrix>
        </filter>
    </defs>
    <g id="location-pin-unselected" stroke="none" stroke-width="1" fill="none" fill-rule="evenodd">
        <g id="location-pin">
            <g id="Path">
                <use fill="black" fill-opacity="1" filter="url(#filter-3)" xlink:href="#path-2"></use>
                <use fill="url(#linearGradient-1)" fill-rule="evenodd" xlink:href="#path-2"></use>
                <path stroke="#FFFFFF" stroke-width="1.6" d="M21.7603516,51.0637612 L27.493587,39.7089163 C27.8561269,39.1630466 29.4327868,38.95 30.48,38.95 L36.08,38.95 C39.7974937,38.95 42.8,35.9361206 42.8,32.2015152 L42.8,7.54848485 C42.8,3.81387942 39.7974937,0.8 36.08,0.8 C29.8560243,0.8 29.8560243,0.8 25.8953125,0.8 C18.7493576,0.8 18.7493576,0.8 7.52,0.8 C3.80250629,0.8 0.8,3.81387942 0.8,7.54848485 L0.8,32.2015152 C0.8,35.9361206 3.80250629,38.95 7.52,38.95 L13.04,38.95 C14.0872132,38.95 15.6638731,39.1630466 16.0742749,39.7912217 L21.7603516,51.0637612 Z M28.6049411,40.8017139 C28.6026515,40.8025804 28.6005695,40.8034023 28.5987008,40.8041765 C28.6031444,40.8023356 28.6075985,40.8004198 28.6120829,40.798383 Z"></path>
            </g>
        </g>
        <g id="baseball" transform="translate(5.000000, 6.000000)" fill="#FFFFFF">
            <path d="M24.8137784,13.8015279 C25.1892799,13.8015279 25.4936448,13.4970675 25.4936448,13.1214026 C25.4936448,12.7458287 25.1892799,12.4413228 24.8137784,12.4413228 C24.4382769,12.4413228 24.133912,12.7458287 24.133912,13.1214026 C24.133912,13.4970675 24.4382769,13.8015279 24.8137784,13.8015279 Z M12.885821,6.98472474 C12.6885475,7.84436162 13.3740957,8.61969898 13.3740957,8.61969898 L13.6967334,8.6070586 C14.0436893,9.06988754 14.4426455,9.53030661 14.4426455,9.53030661 C14.4426455,9.53030661 14.7981924,9.56822776 15.1095118,9.60337529 C15.3851493,9.63447609 15.6131957,9.68890248 15.6729686,9.48770216 C15.8132419,9.01564302 16.0866976,8.09498674 16.1643343,7.83372188 C16.2020617,7.70677243 16.2216527,7.57941377 16.2251527,7.45401027 L16.9832467,7.40922331 L16.9810194,7.24194286 L16.2016072,6.73009835 C16.1922889,6.04047005 15.2658306,5.60437688 14.5347368,5.61428913 C13.803552,5.62420137 13.0830491,6.12504238 12.885821,6.98472474 Z M24.1340029,28.4931979 C23.7817742,28.6172373 23.0501803,28.7425044 22.4655416,27.7049473 C21.8912211,26.6857142 19.520757,22.4805139 19.520757,22.4805139 L16.2790166,18.8036634 L13.0642763,22.8370818 C13.0642763,22.8370818 10.7429941,27.5017464 10.6016299,27.7858367 C10.4602657,28.0699724 10.2207648,28.6894421 9.29489737,28.5657664 C9.52662558,27.3140503 11.1569049,21.9562109 11.1569049,21.9562109 L13.4433687,16.222843 L12.8515481,13.7503298 L12.2923186,13.9126087 L9.99830931,12.5603152 L10.0793551,12.7882513 L11.0932683,13.6256084 C11.0932683,13.6256084 10.7769034,13.9218844 10.7418578,13.9521667 C10.203992,14.4068567 9.90558166,13.7734735 9.90558166,13.7734735 L8.92194131,11.9076532 L8.56412168,11.685037 L8.44707575,11.8861464 C8.44712121,11.8861464 8.44716666,11.8861464 8.44721212,11.8861918 C8.44698484,11.8865556 8.44666666,11.8868739 8.44643939,11.8871921 L8.44480302,11.8899658 L8.44434847,11.8898748 C8.3788482,11.9823588 8.27598415,12.0478341 8.15448366,12.0608837 C7.92930093,12.0853006 7.72689102,11.9226125 7.70243637,11.6974045 C7.68957269,11.5791397 7.72875466,11.4675133 7.80084586,11.384396 L7.92521,11.1632348 C7.55289031,10.700815 7.70584548,10.2915486 7.94261916,10.070251 C8.13216539,9.89310375 8.38262095,9.87637116 8.62171282,9.92479564 C8.62171282,9.92479564 9.58662582,8.30923666 14.4186454,0.205342544 C14.5425095,-0.00245077901 14.8140561,-0.105301653 15.2189214,0.154599141 C15.6237412,0.414499936 15.6823323,0.601104706 15.4861952,0.902382289 C11.1869505,7.50629962 9.38903411,10.2681775 9.38903411,10.2681775 L9.84953598,10.9153832 L10.8024944,11.3869877 C10.8024944,11.3869877 11.4349969,10.3852602 11.5572702,10.1916077 C11.7819074,9.83585828 12.0871814,9.66616798 12.6440927,9.72445924 C13.0853218,9.77070121 16.1090159,10.0872564 16.9077009,10.1708739 C18.5253438,10.3402459 17.8965231,12.3760293 17.8082046,12.7471928 L18.0449328,15.9528026 L21.3068551,21.3999432 L24.1340029,28.4931979 Z" id="Fill-1"></path>
        </g>
    </g>
</svg>