<?xml version="1.0" encoding="UTF-8"?>
<svg width="44px" height="53px" viewBox="0 0 44 53" version="1.1" xmlns="http://www.w3.org/2000/svg" xmlns:xlink="http://www.w3.org/1999/xlink">
    <!-- Generator: Sketch 49.2 (51160) - http://www.bohemiancoding.com/sketch -->
    <title>location-pin-unselected</title>
    <desc>Created with Sketch.</desc>
    <defs>
        <linearGradient x1="50%" y1="0%" x2="50%" y2="100%" id="linearGradient-1">
            <stop stop-color="#19A4EA" offset="0%"></stop>
            <stop stop-color="#0082C3" offset="100%"></stop>
        </linearGradient>
        <path d="M7.52,2.74985211e-16 C3.36,2.74985211e-16 0,3.37272727 0,7.54848485 L0,32.2015152 C0,36.3772727 3.36,39.75 7.52,39.75 L13.04,39.75 C13.36,39.75 15.2,39.9106061 15.36,40.1515152 L21.76,52.8393939 L28.16,40.1515152 C28.32,39.9106061 30.16,39.75 30.48,39.75 L36.08,39.75 C40.24,39.75 43.6,36.3772727 43.6,32.2015152 L43.6,7.54848485 C43.6,3.37272727 40.24,0 36.08,0 C31.5534722,4.35829201e-17 28.1585764,7.62701102e-17 25.8953125,9.80615702e-17 C21.8119097,1.37377935e-16 15.6868056,1.96352482e-16 7.52,2.74985211e-16 Z" id="path-2"></path>
        <filter x="-18.3%" y="-13.2%" width="136.7%" height="130.3%" filterUnits="objectBoundingBox" id="filter-3">
            <feOffset dx="0" dy="1" in="SourceAlpha" result="shadowOffsetOuter1"></feOffset>
            <feGaussianBlur stdDeviation="2.5" in="shadowOffsetOuter1" result="shadowBlurOuter1"></feGaussianBlur>
            <feComposite in="shadowBlurOuter1" in2="SourceAlpha" operator="out" result="shadowBlurOuter1"></feComposite>
            <feColorMatrix values="0 0 0 0 0   0 0 0 0 0   0 0 0 0 0  0 0 0 0.271993886 0" type="matrix" in="shadowBlurOuter1"></feColorMatrix>
        </filter>
    </defs>
    <g id="location-pin-unselected" stroke="none" stroke-width="1" fill="none" fill-rule="evenodd">
        <g id="location-pin">
            <g id="Path">
                <use fill="black" fill-opacity="1" filter="url(#filter-3)" xlink:href="#path-2"></use>
                <use fill="url(#linearGradient-1)" fill-rule="evenodd" xlink:href="#path-2"></use>
                <path stroke="#FFFFFF" stroke-width="1.6" d="M21.7603516,51.0637612 L27.493587,39.7089163 C27.8561269,39.1630466 29.4327868,38.95 30.48,38.95 L36.08,38.95 C39.7974937,38.95 42.8,35.9361206 42.8,32.2015152 L42.8,7.54848485 C42.8,3.81387942 39.7974937,0.8 36.08,0.8 C29.8560243,0.8 29.8560243,0.8 25.8953125,0.8 C18.7493576,0.8 18.7493576,0.8 7.52,0.8 C3.80250629,0.8 0.8,3.81387942 0.8,7.54848485 L0.8,32.2015152 C0.8,35.9361206 3.80250629,38.95 7.52,38.95 L13.04,38.95 C14.0872132,38.95 15.6638731,39.1630466 16.0742749,39.7912217 L21.7603516,51.0637612 Z M28.6049411,40.8017139 C28.6026515,40.8025804 28.6005695,40.8034023 28.5987008,40.8041765 C28.6031444,40.8023356 28.6075985,40.8004198 28.6120829,40.798383 Z"></path>
            </g>
        </g>
        <g id="basketball" transform="translate(5.000000, 6.000000)" fill="#FFFFFF">
            <path d="M13.3205897,13.0923893 C12.879479,13.0695774 12.4467295,13.1831992 12.0723146,13.4198788 L12.6660524,14.226856 C13.0034946,13.930739 13.2320486,13.5358352 13.3205897,13.0923893 M12.400574,14.4245267 L11.8067395,13.6174522 C11.4721488,13.9081703 11.2372152,14.2914978 11.1293903,14.722492 C11.5623332,14.765392 12.0097752,14.6693291 12.400574,14.4245267 M10.8041273,14.6628601 C10.9278529,14.1485951 11.2078787,13.6918706 11.6097935,13.3497407 L11.29323,12.9194761 L9.79774535,14.0339519 C10.0712949,14.3490383 10.4241061,14.5613009 10.8041273,14.6628601 M9.60123432,13.7668727 L11.0966707,12.6523968 L10.7551204,12.1881332 C10.3537372,12.4485002 9.89179613,12.5855176 9.41762749,12.5855176 C9.37785165,12.5855176 9.33793081,12.5834747 9.29805831,12.5815291 C9.2768413,12.9875713 9.37543513,13.4017849 9.60123432,13.7668727 M9.34247386,12.251705 C9.77237194,12.2665886 10.1932323,12.1516536 10.5580294,11.9202271 L9.98932669,11.1473948 C9.65140118,11.4444846 9.43256155,11.8346216 9.34247386,12.251705 M10.2547084,10.9495781 L10.8232178,11.7222645 C11.1485291,11.4385505 11.3797896,11.0667019 11.4903694,10.648889 C11.0685424,10.6145009 10.6348746,10.7114393 10.2547084,10.9495781 M11.8173722,10.7020033 C11.6912301,11.2056648 11.4142974,11.6533424 11.0202121,11.9899761 L11.3621007,12.4546288 L12.8575854,11.3401529 C12.5759647,11.0157278 12.2102976,10.7998172 11.8173722,10.7020033 M13.0541931,11.6071835 L11.5586117,12.721708 L11.8753202,13.1521672 C12.3185092,12.8655349 12.8342419,12.7300254 13.3593506,12.7619815 C13.3749613,12.3539937 13.2696496,11.9548097 13.0541931,11.6071835 M13.8286379,13.0623788 C13.7289808,13.7346733 13.375203,14.3276856 12.832357,14.7321713 C12.3809519,15.0686104 11.8536199,15.2308716 11.330831,15.2308716 C10.5560479,15.2308716 9.79097911,14.8747822 9.29554513,14.2014662 C8.46581043,13.0737118 8.70238728,11.4769271 9.82292544,10.6419335 C10.9434153,9.80689136 12.5301476,10.0449815 13.3598339,11.1727359 C13.7617488,11.718957 13.9282467,12.3900842 13.8286379,13.0623788 M15.6795437,4.88170871 C15.6795437,4.88170871 16.0514937,4.81473218 16.4663127,4.74026517 C16.8337681,4.67435871 17.148785,4.65704306 17.148785,4.37284272 L17.148785,2.03722469 C17.148785,0.885442381 16.1784091,9.72789115e-06 15.1627477,9.72789115e-06 C14.146168,9.72789115e-06 13.1355813,0.818368571 13.1355813,1.98532639 C13.1355813,2.38961755 13.2253307,2.77197231 13.4109191,3.10427707 C13.6906066,3.60521483 15.6795437,4.88170871 15.6795437,4.88170871 M16.4784436,5.29324714 C16.4784436,5.29324714 17.6740388,5.07266721 18.5027102,4.92611653 C19.0230343,4.8342366 19.3635213,4.93856823 19.7997023,5.19446041 C20.5132026,5.61261381 22.9270598,7.07515361 24.3706377,7.91632435 C24.8451447,8.1926451 25.0344062,8.7002951 24.9887824,9.13231075 C24.8861771,10.1044676 24.5219116,12.9757033 24.4592272,13.6828723 C24.3592318,14.8088757 23.2172833,14.7958403 23.2172833,14.7958403 L23.2172833,9.52239918 L19.2242817,7.84706177 L19.2242817,8.2408468 L20.5308432,9.07010088 C20.5308432,9.07010088 21.2023445,11.3549393 21.9291356,13.7487788 C22.3938799,15.279122 22.1653258,16.7234706 21.3451605,17.9726291 C20.1968808,19.723309 18.8231401,21.8228312 18.8231401,21.8228312 L19.293394,21.8228312 L20.2056769,20.645124 C20.2056769,20.645124 21.9163764,20.2966223 22.4572892,20.2047424 C23.6959467,19.9941335 23.96186,21.1370635 23.96186,21.1370635 C23.96186,21.1370635 18.9029818,23.6091638 18.0361294,24.1258121 C17.0609205,24.7069563 15.8871223,23.7592652 16.1799073,22.7566114 C16.8411626,20.4941471 17.6493903,17.8869264 17.6493903,17.8869264 L17.3654498,17.8869264 L15.9229351,20.1636907 L12.7627613,20.1636907 L12.587854,20.4078121 L14.3396826,20.6055801 L13.226539,21.8384444 C13.226539,21.8384444 12.8582137,24.8814261 12.629128,27.0435471 C12.4450379,28.7779329 11.1455326,28.5550182 11.1455326,28.5550182 L11.1455326,21.9431652 C11.1455326,20.9529631 11.2496844,20.7147757 11.7819944,19.9416029 C12.9035475,18.3133485 15.4639905,14.6600876 15.4639905,14.6600876 L15.8388887,14.1261723 L15.8388887,11.64449 L13.3053174,7.57497265 L13.3053174,8.19765497 L13.9740638,9.37516755 L13.4317011,10.4681448 C13.4317011,10.4681448 12.9056741,9.87216551 11.9408561,9.7910349 L11.9408561,7.71160088 C11.9408561,6.67110565 12.4134782,6.04030054 13.4487134,5.8402951 C14.4987376,5.63741993 16.4784436,5.29324714 16.4784436,5.29324714" id="Fill-1"></path>
        </g>
    </g>
</svg>