<?xml version="1.0" encoding="UTF-8"?>
<svg width="44px" height="53px" viewBox="0 0 44 53" version="1.1" xmlns="http://www.w3.org/2000/svg" xmlns:xlink="http://www.w3.org/1999/xlink">
    <!-- Generator: Sketch 49.2 (51160) - http://www.bohemiancoding.com/sketch -->
    <title>location-pin-unselected</title>
    <desc>Created with Sketch.</desc>
    <defs>
        <linearGradient x1="50%" y1="0%" x2="50%" y2="100%" id="linearGradient-1">
            <stop stop-color="#19A4EA" offset="0%"></stop>
            <stop stop-color="#0082C3" offset="100%"></stop>
        </linearGradient>
        <path d="M7.52,2.74985211e-16 C3.36,2.74985211e-16 0,3.37272727 0,7.54848485 L0,32.2015152 C0,36.3772727 3.36,39.75 7.52,39.75 L13.04,39.75 C13.36,39.75 15.2,39.9106061 15.36,40.1515152 L21.76,52.8393939 L28.16,40.1515152 C28.32,39.9106061 30.16,39.75 30.48,39.75 L36.08,39.75 C40.24,39.75 43.6,36.3772727 43.6,32.2015152 L43.6,7.54848485 C43.6,3.37272727 40.24,0 36.08,0 C31.5534722,4.35829201e-17 28.1585764,7.62701102e-17 25.8953125,9.80615702e-17 C21.8119097,1.37377935e-16 15.6868056,1.96352482e-16 7.52,2.74985211e-16 Z" id="path-2"></path>
        <filter x="-18.3%" y="-13.2%" width="136.7%" height="130.3%" filterUnits="objectBoundingBox" id="filter-3">
            <feOffset dx="0" dy="1" in="SourceAlpha" result="shadowOffsetOuter1"></feOffset>
            <feGaussianBlur stdDeviation="2.5" in="shadowOffsetOuter1" result="shadowBlurOuter1"></feGaussianBlur>
            <feComposite in="shadowBlurOuter1" in2="SourceAlpha" operator="out" result="shadowBlurOuter1"></feComposite>
            <feColorMatrix values="0 0 0 0 0   0 0 0 0 0   0 0 0 0 0  0 0 0 0.271993886 0" type="matrix" in="shadowBlurOuter1"></feColorMatrix>
        </filter>
    </defs>
    <g id="location-pin-unselected" stroke="none" stroke-width="1" fill="none" fill-rule="evenodd">
        <g id="location-pin">
            <g id="Path">
                <use fill="black" fill-opacity="1" filter="url(#filter-3)" xlink:href="#path-2"></use>
                <use fill="url(#linearGradient-1)" fill-rule="evenodd" xlink:href="#path-2"></use>
                <path stroke="#FFFFFF" stroke-width="1.6" d="M21.7603516,51.0637612 L27.493587,39.7089163 C27.8561269,39.1630466 29.4327868,38.95 30.48,38.95 L36.08,38.95 C39.7974937,38.95 42.8,35.9361206 42.8,32.2015152 L42.8,7.54848485 C42.8,3.81387942 39.7974937,0.8 36.08,0.8 C29.8560243,0.8 29.8560243,0.8 25.8953125,0.8 C18.7493576,0.8 18.7493576,0.8 7.52,0.8 C3.80250629,0.8 0.8,3.81387942 0.8,7.54848485 L0.8,32.2015152 C0.8,35.9361206 3.80250629,38.95 7.52,38.95 L13.04,38.95 C14.0872132,38.95 15.6638731,39.1630466 16.0742749,39.7912217 L21.7603516,51.0637612 Z M28.6049411,40.8017139 C28.6026515,40.8025804 28.6005695,40.8034023 28.5987008,40.8041765 C28.6031444,40.8023356 28.6075985,40.8004198 28.6120829,40.798383 Z"></path>
            </g>
        </g>
        <g id="footus" transform="translate(8.000000, 8.000000)" fill="#FFFFFF">
            <path d="M15.8430068,2.22486429 C15.8430068,2.22486429 15.8766411,1.12860068 15.1573784,0.45836989 C14.5405086,-0.116421272 12.3940879,-0.472080302 12.0204067,1.42469608 C11.8778655,2.2519974 12.0268781,2.79573623 12.1810424,2.9455282 C12.6897715,3.46471803 13.0221549,3.79746466 13.0221549,3.79746466 L13.2021196,3.80207298 C13.5228799,4.11332847 13.787271,4.35162605 13.787271,4.35162605 C13.787271,4.35162605 14.1104581,4.35033399 14.470941,4.34912808 C14.7902538,4.34805137 15.0589874,4.38022348 15.0949208,4.14059078 C15.1076933,4.05509996 15.1223817,3.9571193 15.1382196,3.8515586 L15.6980388,3.86590038 L15.7329929,3.11276288 L15.2579406,3.05251016 C15.3101802,2.70382822 15.35829,2.38266699 15.3837073,2.21310661 L15.8430068,2.22486429 Z M14.459568,14.7017689 L14.4519421,14.6905023 L14.4413087,14.6905023 L14.459568,14.7017689 Z M22.9369028,9.23364704 C21.8494511,8.62487489 20.2621258,7.68585408 20.2621258,7.68585408 L17.4902352,7.19513248 L16.7135387,9.45979932 L16.5445584,11.6289404 C16.5445584,11.6289404 17.1632163,12.5054259 17.4961105,13.2557639 C17.8290048,14.006145 18.0211885,14.4494052 18.4117294,15.2919958 L18.7674864,15.2919958 L19.6189873,17.1870064 L19.7325349,18.6513328 L19.4586496,18.7661532 C19.655985,20.5263596 20.2576129,25.4784098 20.2576129,25.4784098 C19.9247186,25.6011979 19.0010105,25.5054999 18.711926,24.2720633 C18.4228415,23.0385837 17.2905157,18.6513328 17.2905157,18.6513328 L14.5958987,15.3929482 C14.5958987,15.3929482 14.0260318,16.1817894 13.2263874,17.288691 L13.333421,17.6176906 L11.7000295,20.0510565 L11.2308526,20.0510565 C9.97505917,21.7894272 8.75341093,23.4805088 8.34256178,24.0491843 C7.39096703,25.3664319 6.53967908,24.5657038 6.53967908,24.5657038 L9.90225585,18.3253479 C9.90225585,18.3253479 10.5691939,15.1391029 11.0860549,13.756219 L11.9282318,11.5025777 L11.4807681,9.34993178 L10.5347081,7.35375348 C10.5347081,7.35375348 8.12125671,7.43416223 7.53529642,7.4500114 C6.9493787,7.46581752 6.60971502,6.91234522 6.48841873,6.17350644 C6.36716501,5.43462459 6.03754904,3.36634975 6.03754904,3.36634975 C6.03754904,3.36634975 6.35047559,3.38413701 6.74493335,3.32061109 C7.09617744,3.26410532 7.35737532,3.10453682 7.35737532,3.10453682 L7.96036563,5.73171057 C7.96036563,5.73171057 9.12079096,5.45813995 10.1426345,5.21165937 C10.3085495,4.77124168 10.699218,4.32479442 11.3878268,4.32483749 C11.6250975,4.32483749 12.6796387,4.32488056 12.6796387,4.32488056 L12.8704174,4.71146271 L15.4658771,4.71645865 L15.6589549,4.3252251 C15.6589549,4.3252251 16.3109917,4.32513897 16.7097069,4.32500976 C17.3314729,4.32483749 17.7796177,4.4354372 17.9743134,5.08503821 L20.5965528,6.11445963 C21.6838768,6.93672195 24.7279922,9.10452791 24.7279922,9.10452791 C24.6843102,9.22567938 23.9738179,9.8141663 22.9369028,9.23364704 Z M6.90778288,1.28261335 L6.86678312,1.01356492 L6.60596842,1.05422151 L6.64692561,1.32326994 L6.49127125,1.34751747 L6.45031406,1.0785121 L6.18945678,1.11921176 L6.23045655,1.38817406 L6.07484477,1.41242158 L6.03393016,1.14345928 L5.77307288,1.1840728 L5.81403007,1.45307817 L5.63227722,1.48141719 L5.67251063,1.74525434 L5.85422091,1.71695839 L5.89513552,1.98587762 L6.1559928,1.94522103 L6.11503561,1.6763018 L6.27064739,1.65201121 L6.31160458,1.92105964 L6.57246186,1.88040305 L6.53146209,1.61135462 L6.68711644,1.5871071 L6.72807363,1.85615553 L6.98893091,1.81549894 L6.94797372,1.54645051 L7.12972657,1.51811149 L7.08949316,1.25427433 L6.90778288,1.28261335 Z M8.46419867,1.16710385 C8.44252798,1.14229643 8.39509938,1.0955672 8.29666589,1.02243702 C8.15276225,0.915455055 7.97347875,0.807181041 7.7707364,0.712645855 L7.93809889,1.81076141 C8.25289874,1.5258638 8.42349693,1.26689338 8.46419867,1.16710385 Z M6.53801865,2.53125305 C7.01639181,2.45721843 7.42702809,2.21246059 7.70087076,2.00650739 L7.48590937,0.595715089 C7.0996686,0.457637727 6.65799512,0.38196651 6.22304849,0.449282453 C5.75378639,0.521938881 5.35737018,0.744774898 5.05998351,0.972133098 L5.27515777,2.38482041 C5.66144112,2.52294084 6.10319975,2.59865513 6.53801865,2.53125305 Z M4.99033074,2.26788965 L4.82322371,1.17098 C4.81645427,1.17718186 4.80930167,1.18355598 4.80274511,1.1896717 C4.53771548,1.43701365 4.34101879,1.704124 4.29644272,1.81287177 C4.31794311,1.8375069 4.36532913,1.88445148 4.46457156,1.95822769 C4.60851777,2.06516658 4.78767355,2.1734406 4.99033074,2.26788965 Z M8.86517041,1.10564521 C8.90689395,1.38154152 8.47680089,1.85843816 8.21607133,2.09673574 C8.17000514,2.13885665 8.11589226,2.18605964 8.0545842,2.23606208 C7.73625062,2.49550626 7.22113519,2.83066472 6.59792173,2.92713798 C5.68298409,3.06891923 4.75063326,2.66769381 4.23019595,2.28098245 C3.96052564,2.08054201 3.91024452,1.96765968 3.89602445,1.87549325 L3.8959393,1.87489029 C3.88308164,1.79008857 3.89504523,1.6566626 4.102854,1.3752966 C4.21972249,1.21710628 4.37695212,1.04220542 4.5342669,0.89538517 C4.87959306,0.572888825 5.44281828,0.16494473 6.16314541,0.0534836538 C7.07846622,-0.0882545235 8.01077448,0.313013966 8.53104149,0.69968226 C8.80109498,0.900381107 8.85124838,1.01343571 8.86517041,1.10564521 Z" id="Page-1"></path>
        </g>
    </g>
</svg>