<?xml version="1.0" encoding="UTF-8"?>
<svg width="44px" height="53px" viewBox="0 0 44 53" version="1.1" xmlns="http://www.w3.org/2000/svg" xmlns:xlink="http://www.w3.org/1999/xlink">
    <!-- Generator: Sketch 49.2 (51160) - http://www.bohemiancoding.com/sketch -->
    <title>location-pin-unselected</title>
    <desc>Created with Sketch.</desc>
    <defs>
        <linearGradient x1="50%" y1="0%" x2="50%" y2="100%" id="linearGradient-1">
            <stop stop-color="#19A4EA" offset="0%"></stop>
            <stop stop-color="#0082C3" offset="100%"></stop>
        </linearGradient>
        <path d="M7.52,2.74985211e-16 C3.36,2.74985211e-16 0,3.37272727 0,7.54848485 L0,32.2015152 C0,36.3772727 3.36,39.75 7.52,39.75 L13.04,39.75 C13.36,39.75 15.2,39.9106061 15.36,40.1515152 L21.76,52.8393939 L28.16,40.1515152 C28.32,39.9106061 30.16,39.75 30.48,39.75 L36.08,39.75 C40.24,39.75 43.6,36.3772727 43.6,32.2015152 L43.6,7.54848485 C43.6,3.37272727 40.24,0 36.08,0 C31.5534722,4.35829201e-17 28.1585764,7.62701102e-17 25.8953125,9.80615702e-17 C21.8119097,1.37377935e-16 15.6868056,1.96352482e-16 7.52,2.74985211e-16 Z" id="path-2"></path>
        <filter x="-18.3%" y="-13.2%" width="136.7%" height="130.3%" filterUnits="objectBoundingBox" id="filter-3">
            <feOffset dx="0" dy="1" in="SourceAlpha" result="shadowOffsetOuter1"></feOffset>
            <feGaussianBlur stdDeviation="2.5" in="shadowOffsetOuter1" result="shadowBlurOuter1"></feGaussianBlur>
            <feComposite in="shadowBlurOuter1" in2="SourceAlpha" operator="out" result="shadowBlurOuter1"></feComposite>
            <feColorMatrix values="0 0 0 0 0   0 0 0 0 0   0 0 0 0 0  0 0 0 0.271993886 0" type="matrix" in="shadowBlurOuter1"></feColorMatrix>
        </filter>
    </defs>
    <g id="location-pin-unselected" stroke="none" stroke-width="1" fill="none" fill-rule="evenodd">
        <g id="location-pin">
            <g id="Path">
                <use fill="black" fill-opacity="1" filter="url(#filter-3)" xlink:href="#path-2"></use>
                <use fill="url(#linearGradient-1)" fill-rule="evenodd" xlink:href="#path-2"></use>
                <path stroke="#FFFFFF" stroke-width="1.6" d="M21.7603516,51.0637612 L27.493587,39.7089163 C27.8561269,39.1630466 29.4327868,38.95 30.48,38.95 L36.08,38.95 C39.7974937,38.95 42.8,35.9361206 42.8,32.2015152 L42.8,7.54848485 C42.8,3.81387942 39.7974937,0.8 36.08,0.8 C29.8560243,0.8 29.8560243,0.8 25.8953125,0.8 C18.7493576,0.8 18.7493576,0.8 7.52,0.8 C3.80250629,0.8 0.8,3.81387942 0.8,7.54848485 L0.8,32.2015152 C0.8,35.9361206 3.80250629,38.95 7.52,38.95 L13.04,38.95 C14.0872132,38.95 15.6638731,39.1630466 16.0742749,39.7912217 L21.7603516,51.0637612 Z M28.6049411,40.8017139 C28.6026515,40.8025804 28.6005695,40.8034023 28.5987008,40.8041765 C28.6031444,40.8023356 28.6075985,40.8004198 28.6120829,40.798383 Z"></path>
            </g>
        </g>
        <g id="volleyball" transform="translate(6.000000, 7.000000)" fill="#FFFFFF">
            <path d="M24.1894718,4.80505053 C23.3557031,5.38404643 18.7507411,8.4486012 18.7507411,8.4486012 C18.9019113,9.07691596 19.9154965,10.6942776 19.7048649,12.7276976 L19.4099316,13.9892961 C19.1387337,15.3776774 18.2036801,17.6042567 17.6010454,19.1049588 C17.1148372,20.315681 16.6919371,20.5251564 16.0715418,21.0428189 C15.4512283,21.5604444 11.1718102,25.1312775 11.1718102,25.1312775 C11.1718102,25.1312775 10.5189628,24.4452264 11.3944732,23.5002327 C12.2700245,22.555239 14.837749,19.7837791 14.837749,19.7837791 L15.5532498,17.4418753 L16.4711157,16.3141422 L16.5469463,16.0651006 C16.5469463,16.0651006 14.5044298,17.709532 13.3955754,18.5334535 C13.1318256,18.729431 12.5478519,18.8445331 12.2949467,18.7659566 C10.8378361,18.3133357 6.43622138,16.9315549 6.43622138,16.9315549 C6.43622138,16.9315549 6.66686439,16.0336181 8.43715998,16.3367622 C10.2074556,16.6399062 12.1829809,16.978723 12.1829809,16.978723 C12.1829809,16.978723 14.1268726,14.2873228 14.238511,14.1520483 C14.6324784,13.6742116 15.5175648,12.9037622 15.5175648,12.9037622 L15.9204534,11.5666651 L14.423893,9.4358682 C14.423893,9.4358682 11.5480578,8.68303262 11.1127171,8.55532275 C10.6772945,8.42764996 10.5685207,8.06198591 10.6459474,7.60313518 C10.723374,7.14432153 11.5332027,2.3579826 11.5332027,2.3579826 C11.5332027,2.3579826 12.3283809,2.30666133 12.3283809,3.33898277 C12.3283809,4.37134129 12.2949058,7.27848364 12.2949058,7.27848364 L15.5607387,7.81001478 L24.5447259,3.60875318 C24.5447259,3.60875318 25.0232406,4.22605462 24.1894718,4.80505053 Z M20.2972278,2.24269515 L19.9995117,2.11042422 L19.4937013,2.26724333 L19.6715125,2.73810858 C19.9386181,2.63172077 20.1531373,2.45610116 20.2972278,2.24269515 Z M19.4478673,2.80752579 L19.2700562,2.33662346 L18.7642457,2.49340549 L18.6179863,2.76376921 C18.8841915,2.85543553 19.1715132,2.87052784 19.4478673,2.80752579 Z M18.4049812,2.67102752 L18.4781927,2.5356788 C18.4207775,2.49785531 17.7348233,2.02372687 17.9546626,1.20221571 L17.8078711,1.13706291 C17.6928361,1.41139439 17.6866976,1.71071903 17.7928523,1.99191064 C17.9018308,2.28051863 18.117414,2.51843574 18.4049812,2.67102752 Z M17.91022,0.944014834 L18.1710643,1.05985851 L18.7233226,0.888651642 L18.5496037,0.42854013 C18.2806975,0.535335839 18.0587711,0.714218651 17.91022,0.944014834 Z M19.1093918,0.321299439 C18.9979171,0.321299439 18.8851328,0.333610611 18.773167,0.359011674 L18.9470086,0.819308595 L19.4992669,0.648101724 L19.6269062,0.412149955 C19.4639502,0.353041497 19.2884716,0.321299439 19.1093918,0.321299439 Z M18.1618157,1.27367242 C18.1165137,1.45822876 18.1242891,1.62061015 18.1605471,1.76018621 L19.979664,1.19620845 C19.9139823,1.06575453 19.810283,0.933112772 19.6497414,0.81237429 L18.1618157,1.27367242 Z M20.0550445,1.88229672 C20.0757107,1.79852883 20.1073443,1.61334211 20.054758,1.39930571 L18.2385057,1.9623935 C18.3415912,2.16067011 18.4916974,2.28949244 18.564868,2.34433648 L20.0550445,1.88229672 Z M19.837988,0.508488584 L19.7660041,0.641538238 C20.4914901,1.16687671 20.2743108,1.91804361 20.2531536,1.98460552 L20.4029324,2.05113035 C20.522469,1.78054414 20.5403115,1.47157822 20.4282638,1.17484931 C20.3192036,0.886055913 20.1050117,0.656593466 19.837988,0.508488584 Z M19.6761777,3.0813752 C19.4907139,3.13885206 19.2994799,3.16740508 19.1090235,3.16740508 C18.8460512,3.16740508 18.5846339,3.11296893 18.3415093,3.00502369 C17.922456,2.81887283 17.6084525,2.4960383 17.457446,2.09588813 L17.457446,2.09592522 C17.3063167,1.69577504 17.3361906,1.26629313 17.5416659,0.886537977 C17.7470593,0.506819901 18.1033774,0.222327999 18.5449384,0.0853847517 C19.4567477,-0.197253058 20.4518356,0.24487376 20.7637111,1.07083474 C21.0755866,1.8968328 20.5877005,2.79877447 19.6761777,3.0813752 Z M15.9855213,7.14843761 C15.9855213,7.14843761 16.241373,7.03281643 16.542854,6.89179418 C16.8127832,6.76560466 17.052061,6.67920397 16.9558916,6.49264521 C16.7304458,6.05515363 16.2194791,5.06940699 16.0947452,4.82733671 C15.7053612,4.07131209 14.6984056,3.7902688 13.9578599,4.10424077 C13.2169458,4.41858355 12.757133,5.26805442 13.1517142,6.03405406 C13.2883976,6.29944881 13.483151,6.52253318 13.7304907,6.68328297 C14.103751,6.92557574 15.9855213,7.14843761 15.9855213,7.14843761 Z" id="Fill-1"></path>
        </g>
    </g>
</svg>