<?xml version="1.0" encoding="UTF-8"?>
<svg width="44px" height="53px" viewBox="0 0 44 53" version="1.1" xmlns="http://www.w3.org/2000/svg" xmlns:xlink="http://www.w3.org/1999/xlink">
    <!-- Generator: Sketch 49.2 (51160) - http://www.bohemiancoding.com/sketch -->
    <title>location-pin-unselected</title>
    <desc>Created with Sketch.</desc>
    <defs>
        <linearGradient x1="50%" y1="0%" x2="50%" y2="100%" id="linearGradient-1">
            <stop stop-color="#19A4EA" offset="0%"></stop>
            <stop stop-color="#0082C3" offset="100%"></stop>
        </linearGradient>
        <path d="M7.52,2.74985211e-16 C3.36,2.74985211e-16 0,3.37272727 0,7.54848485 L0,32.2015152 C0,36.3772727 3.36,39.75 7.52,39.75 L13.04,39.75 C13.36,39.75 15.2,39.9106061 15.36,40.1515152 L21.76,52.8393939 L28.16,40.1515152 C28.32,39.9106061 30.16,39.75 30.48,39.75 L36.08,39.75 C40.24,39.75 43.6,36.3772727 43.6,32.2015152 L43.6,7.54848485 C43.6,3.37272727 40.24,0 36.08,0 C31.5534722,4.35829201e-17 28.1585764,7.62701102e-17 25.8953125,9.80615702e-17 C21.8119097,1.37377935e-16 15.6868056,1.96352482e-16 7.52,2.74985211e-16 Z" id="path-2"></path>
        <filter x="-18.3%" y="-13.2%" width="136.7%" height="130.3%" filterUnits="objectBoundingBox" id="filter-3">
            <feOffset dx="0" dy="1" in="SourceAlpha" result="shadowOffsetOuter1"></feOffset>
            <feGaussianBlur stdDeviation="2.5" in="shadowOffsetOuter1" result="shadowBlurOuter1"></feGaussianBlur>
            <feComposite in="shadowBlurOuter1" in2="SourceAlpha" operator="out" result="shadowBlurOuter1"></feComposite>
            <feColorMatrix values="0 0 0 0 0   0 0 0 0 0   0 0 0 0 0  0 0 0 0.271993886 0" type="matrix" in="shadowBlurOuter1"></feColorMatrix>
        </filter>
    </defs>
    <g id="location-pin-unselected" stroke="none" stroke-width="1" fill="none" fill-rule="evenodd">
        <g id="location-pin">
            <g id="Path">
                <use fill="black" fill-opacity="1" filter="url(#filter-3)" xlink:href="#path-2"></use>
                <use fill="url(#linearGradient-1)" fill-rule="evenodd" xlink:href="#path-2"></use>
                <path stroke="#FFFFFF" stroke-width="1.6" d="M21.7603516,51.0637612 L27.493587,39.7089163 C27.8561269,39.1630466 29.4327868,38.95 30.48,38.95 L36.08,38.95 C39.7974937,38.95 42.8,35.9361206 42.8,32.2015152 L42.8,7.54848485 C42.8,3.81387942 39.7974937,0.8 36.08,0.8 C29.8560243,0.8 29.8560243,0.8 25.8953125,0.8 C18.7493576,0.8 18.7493576,0.8 7.52,0.8 C3.80250629,0.8 0.8,3.81387942 0.8,7.54848485 L0.8,32.2015152 C0.8,35.9361206 3.80250629,38.95 7.52,38.95 L13.04,38.95 C14.0872132,38.95 15.6638731,39.1630466 16.0742749,39.7912217 L21.7603516,51.0637612 Z M28.6049411,40.8017139 C28.6026515,40.8025804 28.6005695,40.8034023 28.5987008,40.8041765 C28.6031444,40.8023356 28.6075985,40.8004198 28.6120829,40.798383 Z"></path>
            </g>
        </g>
        <g id="handball" transform="translate(7.000000, 6.000000)" fill="#FFFFFF">
            <path d="M11.329049,0.297650059 C11.2437696,0.297650059 11.1579143,0.3082142 11.0739404,0.329083768 L11.0238709,0.341502024 L11.3211777,0.547783044 L11.6227465,0.338569936 L11.5719091,0.326496632 C11.4912757,0.307351821 11.4095672,0.297650059 11.329049,0.297650059 Z M11.4165938,0.733151377 L11.4165938,0.916708715 L11.903581,1.31404977 L12.0276412,1.22587153 L12.0170053,0.543169317 L12.008174,0.536356524 C11.9615986,0.500352207 11.9116443,0.467452454 11.859847,0.438605882 L11.8494798,0.432827944 L11.4165938,0.733151377 Z M10.7892278,0.443435204 C10.7342819,0.474653318 10.6812175,0.510873229 10.631532,0.551016965 L10.6230847,0.557872877 L10.6126407,1.22582841 L10.737776,1.31478279 L11.2258383,0.916579358 L11.2258383,0.733151377 L10.7996334,0.437527908 L10.7892278,0.443435204 Z M10.391091,0.810592998 C10.339908,0.884024557 10.2953676,0.963837719 10.2586986,1.04783342 C10.2221448,1.13165664 10.1932704,1.21996424 10.1729201,1.3102553 L10.1619386,1.35906595 L10.4221924,1.21673032 L10.4293342,0.755659465 L10.391091,0.810592998 Z M12.2180895,1.21673032 L12.4999991,1.37088054 L12.4896704,1.32267356 C12.4809543,1.28227111 12.4706256,1.24229985 12.4589145,1.20383775 C12.4118016,1.04925634 12.3409594,0.907653737 12.2483846,0.783083113 L12.2105637,0.732159642 L12.2180895,1.21673032 Z M10.8540033,1.48445583 L11.0324334,2.10114294 L11.6098067,2.10114294 L11.7881985,1.48445583 L11.3211009,1.1033275 L10.8540033,1.48445583 Z M10.1367887,1.61088057 L10.1366735,1.62532541 C10.1355216,1.7768885 10.1572158,1.92694242 10.2012186,2.07126152 C10.2234887,2.14434812 10.2515952,2.21588245 10.2847701,2.2838379 L10.2901841,2.29491947 L10.7619277,2.33721915 L10.857459,2.18906247 L10.6623646,1.51468221 L10.5102364,1.40658302 L10.1367887,1.61088057 Z M11.9803363,1.51295745 L11.7849731,2.18841568 L11.8809269,2.33721915 L12.3696035,2.29341031 L12.3750174,2.28232874 C12.4719311,2.08402472 12.5231524,1.86058236 12.5231524,1.63619139 L12.5231524,1.62161719 L12.1300072,1.40658302 L11.9803363,1.51295745 Z M10.4696509,2.56669816 C10.5655662,2.67880741 10.6783761,2.77099571 10.8049321,2.84067592 L10.859494,2.86995369 L10.7419997,2.55014049 L10.4316764,2.52228565 L10.4696509,2.56669816 Z M11.9008548,2.55014049 L11.7800583,2.87905178 L11.8281312,2.85430151 C11.9650543,2.78375892 12.0869643,2.68643947 12.190559,2.56514588 L12.2284567,2.52077649 L11.9008548,2.55014049 Z M10.9162446,2.46316958 L11.0957498,2.9519228 L11.1067697,2.95425122 C11.1797621,2.96994651 11.2542904,2.97792352 11.3283195,2.97792352 C11.396973,2.97792352 11.4663945,2.97106761 11.5346257,2.95757138 L11.545876,2.95532919 L11.7266099,2.4632127 L11.6312322,2.31518537 L11.0116223,2.31518537 L10.9162446,2.46316958 Z M11.3287419,3.27587541 C11.1062705,3.27587541 10.8907875,3.21934648 10.6883209,3.10788401 C10.3385257,2.91540105 10.0765056,2.58148796 9.95044879,2.16763235 C9.82435355,1.75377674 9.8492731,1.30960852 10.020715,0.916881191 C10.1921185,0.524110745 10.4894637,0.229867082 10.8579582,0.088307594 C11.0105088,0.0297089513 11.1688958,0 11.328857,0 C11.9529209,0 12.5078321,0.445030604 12.7097227,1.10751004 C12.9699765,1.96178252 12.5628548,2.8945746 11.8021365,3.18683479 C11.648434,3.24590775 11.4892023,3.27587541 11.328857,3.27587541 L11.3287419,3.27587541 Z M24.8571015,13.5167105 C24.4439515,12.9578027 21.8725917,9.56520435 21.7138591,9.34900597 C21.5226045,9.08839508 21.457445,9.0354019 21.2533274,8.93407239 C21.0907552,8.85339685 19.7286656,8.11959868 19.5518481,8.02482325 C18.6788191,7.55693961 18.4372262,7.46207793 17.9153363,7.44284688 C17.4688578,7.42641857 13.514175,7.29473332 13.514175,7.29473332 L10.4816307,6.71038541 L11.3910215,3.7126703 C11.0267891,3.7126703 10.5699051,3.57826855 10.3357227,3.35668031 C10.3348396,3.35581793 9.72839984,4.61170025 8.83682515,6.55787371 C8.49179112,7.31103228 8.52719301,7.9336698 9.17763553,8.19859259 C10.3642132,8.68182657 12.5306014,9.52415511 12.5306014,9.52415511 L13.2774968,14.5688558 L11.0690256,18.8986875 C11.0690256,18.8986875 5.39408743,25.0726733 4.36274823,26.1873842 C3.33140903,27.3020519 4.14342547,28.1034606 4.14342547,28.1034606 L14.7202198,19.4485834 L15.1264584,19.4485834 L13.4892554,20.8056227 L13.4306234,21.8764385 L11.7582105,22.309439 L9.74794384,23.9757705 C9.74794384,23.9757705 14.0932761,23.976331 14.3877799,23.976331 C14.8951174,23.976331 15.3057716,23.7037331 15.4609333,23.3284689 C15.5910218,23.01383 17.5679216,18.2443575 17.8286746,17.6345695 C18.2067683,16.7504155 18.1547022,15.9806562 18.0299508,14.9450686 C17.9575728,14.3444648 17.9145299,14.0586293 17.9145299,14.0586293 L18.536482,10.0925921 L20.9038777,11.0048165 L24.8821362,15.1158196 C25.1273385,14.9546841 25.3020825,14.119039 24.8571015,13.5167105 Z M13.6350866,4.71600497 C13.5405152,4.37454606 13.5334502,4.00605158 13.6040236,3.63518556 C13.8077188,2.5644991 14.7814628,2.0131803 15.61717,2.21368338 C16.4523014,2.41405711 17.0954101,3.41786609 16.8944794,4.47445265 C16.8300111,4.81289323 16.6031626,6.00552006 16.4868201,6.61711914 C16.4372114,6.87785938 16.1752298,6.83163588 15.8616043,6.81960569 C15.5074703,6.80606634 15.190082,6.79416551 15.190082,6.79416551 C15.190082,6.79416551 13.7776157,5.23071578 13.6350866,4.71600497 Z" id="Fill-1"></path>
        </g>
    </g>
</svg>