<?xml version="1.0" encoding="UTF-8"?>
<svg width="44px" height="53px" viewBox="0 0 44 53" version="1.1" xmlns="http://www.w3.org/2000/svg" xmlns:xlink="http://www.w3.org/1999/xlink">
    <!-- Generator: Sketch 49.2 (51160) - http://www.bohemiancoding.com/sketch -->
    <title>location-pin-unselected</title>
    <desc>Created with Sketch.</desc>
    <defs>
        <linearGradient x1="50%" y1="0%" x2="50%" y2="100%" id="linearGradient-1">
            <stop stop-color="#19A4EA" offset="0%"></stop>
            <stop stop-color="#0082C3" offset="100%"></stop>
        </linearGradient>
        <path d="M7.52,2.74985211e-16 C3.36,2.74985211e-16 0,3.37272727 0,7.54848485 L0,32.2015152 C0,36.3772727 3.36,39.75 7.52,39.75 L13.04,39.75 C13.36,39.75 15.2,39.9106061 15.36,40.1515152 L21.76,52.8393939 L28.16,40.1515152 C28.32,39.9106061 30.16,39.75 30.48,39.75 L36.08,39.75 C40.24,39.75 43.6,36.3772727 43.6,32.2015152 L43.6,7.54848485 C43.6,3.37272727 40.24,0 36.08,0 C31.5534722,4.35829201e-17 28.1585764,7.62701102e-17 25.8953125,9.80615702e-17 C21.8119097,1.37377935e-16 15.6868056,1.96352482e-16 7.52,2.74985211e-16 Z" id="path-2"></path>
        <filter x="-18.3%" y="-13.2%" width="136.7%" height="130.3%" filterUnits="objectBoundingBox" id="filter-3">
            <feOffset dx="0" dy="1" in="SourceAlpha" result="shadowOffsetOuter1"></feOffset>
            <feGaussianBlur stdDeviation="2.5" in="shadowOffsetOuter1" result="shadowBlurOuter1"></feGaussianBlur>
            <feComposite in="shadowBlurOuter1" in2="SourceAlpha" operator="out" result="shadowBlurOuter1"></feComposite>
            <feColorMatrix values="0 0 0 0 0   0 0 0 0 0   0 0 0 0 0  0 0 0 0.271993886 0" type="matrix" in="shadowBlurOuter1"></feColorMatrix>
        </filter>
    </defs>
    <g id="location-pin-unselected" stroke="none" stroke-width="1" fill="none" fill-rule="evenodd">
        <g id="location-pin">
            <g id="Path">
                <use fill="black" fill-opacity="1" filter="url(#filter-3)" xlink:href="#path-2"></use>
                <use fill="url(#linearGradient-1)" fill-rule="evenodd" xlink:href="#path-2"></use>
                <path stroke="#FFFFFF" stroke-width="1.6" d="M21.7603516,51.0637612 L27.493587,39.7089163 C27.8561269,39.1630466 29.4327868,38.95 30.48,38.95 L36.08,38.95 C39.7974937,38.95 42.8,35.9361206 42.8,32.2015152 L42.8,7.54848485 C42.8,3.81387942 39.7974937,0.8 36.08,0.8 C29.8560243,0.8 29.8560243,0.8 25.8953125,0.8 C18.7493576,0.8 18.7493576,0.8 7.52,0.8 C3.80250629,0.8 0.8,3.81387942 0.8,7.54848485 L0.8,32.2015152 C0.8,35.9361206 3.80250629,38.95 7.52,38.95 L13.04,38.95 C14.0872132,38.95 15.6638731,39.1630466 16.0742749,39.7912217 L21.7603516,51.0637612 Z M28.6049411,40.8017139 C28.6026515,40.8025804 28.6005695,40.8034023 28.5987008,40.8041765 C28.6031444,40.8023356 28.6075985,40.8004198 28.6120829,40.798383 Z"></path>
            </g>
        </g>
        <g id="hockey-sur-gazon" transform="translate(6.000000, 8.000000)" fill="#FFFFFF">
            <path d="M26.181466,23.0518194 C26.181466,23.6766641 25.8670711,23.9879753 25.679688,24.1179299 C25.4509273,24.2765808 25.2210057,24.340302 25.0040407,24.340302 C24.5591974,24.340302 24.168874,24.0723733 23.9550668,23.8061839 L17.6295521,16.8556439 C17.6594591,16.8575763 17.6894125,16.858929 17.7194588,16.858929 C17.7535454,16.858929 17.7877248,16.8576246 17.8219506,16.8551125 C18.18585,16.8281071 18.4751677,16.6623546 18.6697489,16.5091145 C18.6697489,16.5091145 24.6060548,23.0347176 24.7062711,23.1441886 C24.8065338,23.2536113 24.9532359,23.3910056 25.1336531,23.2659304 C25.1888232,23.2276204 25.1970894,23.1153474 25.1970894,23.0518194 C25.1970894,22.7690112 25.4174445,22.5397791 25.6892545,22.5397791 C25.9611109,22.5397791 26.181466,22.7690112 26.181466,23.0518194 Z M18.4213908,16.2209922 C18.4213908,16.2209922 17.7683131,16.675495 17.1874023,16.3614784 C16.4081486,15.9402614 14.0006821,13.8906992 14.0006821,13.8906992 L13.4881766,14.7056931 C13.4881766,14.7056931 16.1437225,17.7932975 16.279465,17.97992 C16.5209964,18.311763 16.596832,18.8059285 16.3521891,19.3178239 C16.1927161,19.6514061 12.2342655,27.5935622 12.2342655,27.5935622 C11.0696111,27.4047658 11.1722887,25.8629926 11.4573803,25.1250536 C11.7425184,24.3870663 13.7826026,19.0936644 13.7826026,19.0936644 C13.7756367,19.0899445 10.8388535,17.5072042 9.70285221,16.4845246 L9.56204786,16.7743861 L10.9229554,18.0513708 C10.9229554,18.0513708 9.50529887,20.0059067 9.30709539,20.2805988 C9.17539316,20.4632115 8.92257691,20.7082411 8.62039553,20.8957331 C8.31816772,21.0832252 1.25909573,25.0360661 1.25909573,25.0360661 C0.766187615,24.4804017 1.07970021,23.4996071 1.78957333,22.957711 L6.91699724,18.8845293 L8.71369235,15.0299997 C8.42753258,13.4876951 9.7674959,11.9747632 9.95543627,11.8036966 L11.3287895,8.53004942 C11.5432933,9.45055284 11.9978424,10.4876772 12.3504106,11.3320437 L12.50993,10.9445472 C12.383011,10.6572462 12.1174704,9.87365398 11.8928893,9.05962634 C11.6343145,8.12226264 11.4979219,7.50311853 11.5517452,7.17547845 C11.8530443,5.34065532 13.5694456,4.85136915 14.5782958,5.14074752 C15.6795604,5.45659991 17.103997,5.84738148 17.48011,5.96806048 C18.279379,6.22453957 18.4600748,6.99383192 17.9153868,8.01472403 C17.6643352,8.48526583 17.2329593,9.26262599 17.2329593,9.26262599 L17.2263185,9.27262621 L17.4959923,14.5379599 L16.07815,12.9122235 L15.8419591,11.3511262 L15.1086341,12.4521167 L18.4213908,16.2209922 Z M14.6656019,2.46846628 C14.6150294,2.07565567 14.6722892,1.67154047 14.8217313,1.28100044 C15.252782,0.153729171 16.4996807,-0.245941491 17.4496457,0.147255598 C18.3987748,0.540162826 18.9785711,1.77081802 18.5530466,2.88345129 C18.4167469,3.23988428 17.9082815,4.57740174 17.6620132,5.22137732 C17.5570137,5.49597276 17.2859003,5.38775781 16.923069,5.28678939 C16.5206249,5.17466131 15.9751474,4.99929512 15.9751474,4.99929512 C15.9751474,4.99929512 14.7419019,3.06050834 14.6656019,2.46846628 Z M27.972124,20.9338982 C27.9581457,20.935106 27.9445854,20.9298885 27.9340901,20.9201781 C27.9235948,20.9104678 27.9173719,20.8970858 27.916536,20.8824478 C27.9157001,20.8678581 27.920344,20.8537998 27.9296783,20.8428334 C27.9389662,20.8319153 27.9518299,20.8254417 27.9658082,20.8245238 C27.9668763,20.8244755 27.9679444,20.8244272 27.9689661,20.8244272 C27.9965511,20.8244272 28.0198173,20.8468915 28.0215355,20.8759259 C28.0232538,20.9060715 28.0011022,20.9320624 27.972124,20.9338982 Z M27.9599104,20.7222994 C27.9196474,20.7248598 27.8827281,20.7435559 27.855979,20.7749575 C27.8292298,20.8063592 27.8158553,20.8467466 27.8182701,20.8885832 C27.8206386,20.9304682 27.8385642,20.9688749 27.8687498,20.9967499 C27.8966135,21.0224992 27.9318146,21.0364126 27.9688268,21.0364126 C27.9718453,21.0364126 27.9749103,21.036316 27.9779753,21.0361227 C28.0611484,21.0309052 28.1247704,20.9563142 28.1198014,20.8698388 L28.1198014,20.8697905 C28.1147395,20.7832669 28.043037,20.7172751 27.9599104,20.7222994 Z M27.6244784,20.8458287 C27.6255465,20.845732 27.6266146,20.845732 27.6276827,20.845732 C27.6553142,20.845732 27.6785803,20.8681963 27.6802522,20.8971824 C27.6820169,20.927328 27.6598188,20.9533673 27.6308406,20.9551547 C27.6018624,20.9570872 27.576878,20.9338982 27.5751133,20.903801 C27.5734415,20.8736554 27.5955931,20.8476644 27.6244784,20.8458287 Z M27.6276363,21.0576691 C27.6306548,21.0576691 27.6336734,21.0575725 27.6367384,21.0573792 C27.719865,21.0521617 27.7835335,20.977619 27.778518,20.8910954 C27.773549,20.80462 27.7018001,20.7383867 27.6185806,20.7436042 C27.5355469,20.7488217 27.4719713,20.8233644 27.4768939,20.9099364 C27.4817236,20.9932232 27.5484571,21.0576691 27.6276363,21.0576691 Z M27.3258264,20.9581017 C27.3164921,20.9690198 27.3036284,20.9755417 27.2895572,20.9764113 C27.260579,20.9783437 27.2355946,20.9551547 27.2338299,20.9251541 C27.2321581,20.8949602 27.2543097,20.8688726 27.283195,20.8670852 C27.2842631,20.8670369 27.2853312,20.8669885 27.2863529,20.8669885 C27.3140308,20.8669885 27.3373434,20.8894528 27.3390152,20.9184873 C27.3398511,20.933077 27.3351608,20.9471352 27.3258264,20.9581017 Z M27.2772972,20.7648607 C27.19431,20.7700299 27.1307344,20.8446209 27.1355641,20.9312412 C27.1404867,21.014528 27.2071737,21.0789256 27.2863529,21.0789256 C27.289325,21.0789256 27.29239,21.078829 27.2954086,21.0786357 C27.335718,21.0761719 27.3726374,21.0574758 27.3994794,21.0260742 C27.4262285,20.9946242 27.4396495,20.9542852 27.4372811,20.9124002 C27.432312,20.8258765 27.3605631,20.7597398 27.2772972,20.7648607 Z M27.4372811,20.9124596 L27.4372811,20.9123519 L27.4372811,20.9124596 Z M27.7108557,21.4277739 C27.712574,21.4579195 27.6904224,21.4839104 27.6614442,21.4856979 C27.6473266,21.4866158 27.6338592,21.4816881 27.6233174,21.4719778 C27.6128221,21.4623157 27.6065528,21.4489338 27.6057169,21.4343441 C27.6039986,21.4041985 27.6261502,21.3782076 27.655082,21.3763718 C27.6561965,21.3763235 27.6572646,21.3762752 27.6583327,21.3762752 C27.6711965,21.3762752 27.6835029,21.3811062 27.6932088,21.3901402 C27.7037505,21.3998022 27.7100198,21.4131842 27.7108557,21.4277256 L27.7108557,21.4277739 Z M27.6491842,21.2741473 C27.566104,21.2793648 27.5025285,21.3539558 27.5074975,21.4404312 C27.5098659,21.4823161 27.5277915,21.5207228 27.5580236,21.5485978 C27.5858872,21.5743472 27.6210883,21.5882122 27.6581005,21.5882122 C27.6611656,21.5882122 27.6642306,21.5881156 27.6672956,21.5879223 C27.7504686,21.5827531 27.8140442,21.5082104 27.8091216,21.4216868 C27.8067532,21.3798018 27.7887347,21.3413468 27.7585026,21.3134718 C27.728317,21.2855968 27.6894936,21.2716352 27.6491842,21.2741473 Z M27.5575127,20.3295371 C27.5668935,20.3185706 27.5797572,20.3120971 27.5938284,20.3112275 C27.5948965,20.3111309 27.5959646,20.3110825 27.5970327,20.3110825 C27.6099429,20.3110825 27.6222029,20.3159136 27.6319087,20.3248993 C27.642404,20.3346096 27.6486733,20.3479433 27.6494628,20.362533 L27.6494628,20.3625813 C27.6511811,20.3926786 27.6290295,20.4186695 27.6000513,20.4205053 C27.5860266,20.4212782 27.5725127,20.4164955 27.5620174,20.4068335 C27.5514756,20.3970748 27.5452063,20.3836928 27.5443704,20.3690548 C27.5435345,20.3545135 27.5482249,20.3404552 27.5575127,20.3295371 Z M27.5967076,20.5230196 C27.5997726,20.5230196 27.6028376,20.522923 27.6059491,20.5227297 C27.6890756,20.5175122 27.7526977,20.4429695 27.7477751,20.3564942 C27.7453602,20.3146092 27.7274346,20.2761542 27.697249,20.2483275 C27.6670634,20.2204525 27.62824,20.2065392 27.5879306,20.2089547 C27.5476211,20.2114668 27.5107018,20.2301629 27.4839062,20.2615162 C27.4571107,20.2929662 27.4436897,20.3333536 27.4461046,20.3751902 C27.4485194,20.4170752 27.4664915,20.4555302 27.4966771,20.4833569 C27.5245407,20.5091546 27.5597418,20.5230196 27.5967076,20.5230196 Z M28.1767825,21.4070488 C28.1675411,21.4178703 28.1575102,21.4276773 28.1477579,21.4378707 C28.1499406,21.4257448 28.151148,21.4132808 28.1504049,21.4004303 L28.1504049,21.4003337 C28.1453895,21.3138583 28.0735477,21.2479148 27.9904676,21.2528908 C27.9073874,21.2581083 27.8438118,21.3326993 27.8487808,21.4191263 C27.8511957,21.4610113 27.8690749,21.4994663 27.8992605,21.527293 C27.9239198,21.5500954 27.954477,21.5629459 27.9867524,21.5657479 C27.89118,21.6216429 27.7843229,21.6554601 27.6716609,21.6625134 C27.5589059,21.669615 27.4488909,21.6492764 27.3475136,21.6055556 C27.4197734,21.5899997 27.4723428,21.5217373 27.4678382,21.4429433 C27.4654234,21.4010583 27.4474513,21.3626034 27.4171728,21.3347283 C27.3869872,21.3069016 27.3481638,21.2931815 27.3079008,21.2954521 C27.2676378,21.2979642 27.2307185,21.3166603 27.2039694,21.348062 C27.1772203,21.3794636 27.1637993,21.419851 27.1662605,21.4616877 C27.1670036,21.4744899 27.1696042,21.4867607 27.1731336,21.4986933 C27.1623132,21.4897559 27.1511677,21.4812533 27.1407189,21.4715913 C27.0314469,21.3707195 26.9552862,21.2413446 26.9186919,21.09767 C26.9272832,21.0992642 26.9360603,21.1001821 26.9448838,21.1001821 C26.9479488,21.1001821 26.9510602,21.1000855 26.9541717,21.0998922 C26.9944347,21.0973801 27.031354,21.078684 27.0581496,21.0473307 C27.0849915,21.0158807 27.0984125,20.9755417 27.0959512,20.9336567 C27.0935364,20.8917717 27.0755643,20.8533167 27.0453787,20.82549 C27.0151931,20.7975667 26.9763233,20.7836051 26.9361067,20.7861655 C26.923986,20.7868902 26.9123762,20.7895472 26.901045,20.7931222 C26.9208282,20.6458242 26.9816638,20.5077536 27.0786758,20.3939346 C27.0874064,20.3836928 27.0969265,20.3744656 27.1061215,20.3647552 C27.1047283,20.3751419 27.1042175,20.3857702 27.1048676,20.3964951 C27.1072825,20.43838 27.1252081,20.4767867 27.1553937,20.5046134 C27.1832574,20.5303628 27.2184585,20.5442761 27.2554243,20.5442761 C27.2584893,20.5442761 27.2615543,20.5441795 27.2646193,20.5439862 C27.3477923,20.538817 27.4114607,20.464226 27.4064453,20.3777024 C27.4040769,20.3358174 27.3861048,20.2973624 27.3558727,20.2695357 C27.3330245,20.2484725 27.3052073,20.2353321 27.2756254,20.2313223 C27.3694331,20.1777946 27.4738753,20.1453301 27.5838903,20.13847 C27.5988903,20.1375521 27.6138438,20.1371174 27.6287973,20.1371174 C27.7233479,20.1371174 27.8154373,20.1562965 27.9013503,20.1922877 C27.872047,20.1998724 27.845623,20.2162978 27.8251896,20.2402597 C27.7983941,20.2717097 27.7849731,20.3120971 27.7874344,20.3539337 C27.7898492,20.3958187 27.8077748,20.4342254 27.837914,20.4621004 C27.8657777,20.4878497 27.9010252,20.5017148 27.9379446,20.5017148 C27.9410096,20.5017148 27.944121,20.5016182 27.947186,20.5014732 C27.9874954,20.4989611 28.0244148,20.480265 28.0512103,20.4488634 C28.0780059,20.4174134 28.0914269,20.3770743 28.089012,20.3351411 C28.0884083,20.3243196 28.0866436,20.3137396 28.0839966,20.3034978 C28.0942597,20.3120488 28.1048014,20.3202615 28.114693,20.3293921 C28.2241043,20.4303122 28.300265,20.559832 28.3368593,20.7036033 C28.325203,20.7014293 28.3133145,20.7002216 28.3011938,20.7010429 C28.2180672,20.7062604 28.1545381,20.7808514 28.1595071,20.867375 C28.1643368,20.9506619 28.2310238,21.0151078 28.3101566,21.0151078 C28.3131751,21.0151078 28.3162402,21.0150111 28.3192587,21.0148179 C28.3313794,21.0140449 28.3430821,21.0113879 28.3544134,21.0077646 C28.3346302,21.1551108 28.273841,21.2932298 28.1767825,21.4070488 Z M28.0026347,21.4644414 C27.9886564,21.4654559 27.9751425,21.4604799 27.9646008,21.4507212 C27.9541055,21.4410592 27.9478826,21.4276773 27.9470931,21.4130393 C27.9453284,21.382942 27.9674336,21.3569027 27.9963654,21.3551153 C27.9974335,21.3550186 27.9985016,21.3549703 27.9995232,21.3549703 C28.0271547,21.3549703 28.0504209,21.3774346 28.0521391,21.4064691 C28.0538574,21.4366147 28.0316593,21.4626056 28.0026347,21.4644414 Z M27.2645264,21.4555523 C27.2636905,21.4409626 27.2683344,21.4269043 27.2776223,21.4159379 C27.2869566,21.4050198 27.2998203,21.3985462 27.3137986,21.3976766 C27.3148667,21.39758 27.3159348,21.3975317 27.3170029,21.3975317 C27.3298667,21.3975317 27.3421731,21.402411 27.3519254,21.4113967 C27.3624671,21.4211071 27.3687365,21.434489 27.3695724,21.4490304 L27.3695724,21.4490787 C27.3712906,21.479176 27.3490926,21.5051669 27.3200679,21.5069544 C27.3060897,21.5079206 27.2925758,21.5029929 27.2820805,21.4932826 C27.2715852,21.4836205 27.2653623,21.4702386 27.2645264,21.4555523 Z M26.8971088,20.9641404 C26.8965952,20.9581017 26.8955681,20.9522078 26.8952413,20.9461207 C26.8948678,20.9400336 26.8952413,20.9340432 26.8950078,20.9280044 C26.8971555,20.9202264 26.900517,20.9128833 26.9058395,20.9066996 C26.9151771,20.8957331 26.9281097,20.8892596 26.9422096,20.88839 C26.9433301,20.8882934 26.9444039,20.8882451 26.9454777,20.8882451 C26.9584104,20.8882451 26.970736,20.8930761 26.9805405,20.9020618 C26.9910921,20.9117721 26.997395,20.9252024 26.9982354,20.9397438 L26.9982354,20.9397921 C26.9991224,20.9543818 26.9944069,20.9683918 26.9850226,20.9793099 C26.9756383,20.9902763 26.9627057,20.9967499 26.9485592,20.9976678 C26.9344593,20.998634 26.9208731,20.993658 26.9103216,20.983996 C26.9042988,20.9784886 26.9001435,20.9715802 26.8971088,20.9641404 Z M27.2557493,20.3323874 C27.2686131,20.3323874 27.2808731,20.3372184 27.2905789,20.3461558 C27.3011207,20.3558661 27.30739,20.3692481 27.3082259,20.3837895 C27.3099441,20.4139351 27.2877461,20.4399743 27.2587679,20.4417618 C27.2447432,20.4425347 27.2312293,20.437752 27.2206876,20.4280417 C27.2101922,20.4183313 27.2039694,20.4049494 27.2031335,20.3903597 C27.2022511,20.3757217 27.2069415,20.3617117 27.2162294,20.3507936 C27.2255637,20.3398271 27.2384274,20.3333536 27.2524986,20.332484 C27.2535667,20.3323874 27.2546348,20.3323874 27.2557493,20.3323874 Z M27.9907462,20.3412765 C27.9915821,20.3558661 27.9868917,20.3699244 27.9775574,20.3808909 C27.9682231,20.391809 27.9553593,20.3983309 27.9413346,20.3992004 C27.9272635,20.4001183 27.9137961,20.395239 27.9033007,20.3855286 C27.8928054,20.3758183 27.8865361,20.3624363 27.8857002,20.3477983 C27.8848643,20.3332086 27.8895082,20.3191504 27.8988426,20.3082322 C27.9081769,20.2972658 27.9209942,20.2907922 27.9350189,20.2899227 C27.936087,20.2898743 27.9371551,20.289826 27.9382232,20.289826 C27.9510869,20.289826 27.9633934,20.2946571 27.9731456,20.3036428 C27.983641,20.3133048 27.9899103,20.3266868 27.9907462,20.3412765 Z M28.3589117,20.8369396 C28.3593786,20.84293 28.3604526,20.8487756 28.3608261,20.8548144 L28.3608261,20.8548627 C28.361153,20.8608531 28.3607794,20.8667953 28.3609662,20.8728341 C28.358865,20.880612 28.3555031,20.8880035 28.3501333,20.8942355 C28.340748,20.9052019 28.3278139,20.9117238 28.3137124,20.9125934 C28.2847625,20.9144292 28.259548,20.8913369 28.257727,20.8612396 C28.2559993,20.831094 28.2782721,20.8050548 28.3073154,20.8032673 C28.3084361,20.803219 28.30951,20.8031707 28.310584,20.8031707 C28.3235181,20.8031707 28.3358451,20.8080017 28.3456508,20.8169874 C28.3517209,20.8225431 28.3558766,20.8294515 28.3589117,20.8369396 Z M28.6550158,20.8364565 C28.6385762,20.5510395 28.5163012,20.2892946 28.3106674,20.0995803 C28.1049872,19.9097693 27.8406539,19.8146948 27.5661969,19.8318449 C27.2917399,19.8488984 27.0401311,19.9761476 26.8577634,20.1901137 C26.6753493,20.4040315 26.5839565,20.6790617 26.6004425,20.9644786 C26.6168356,21.2499439 26.7391107,21.5116888 26.9447909,21.7014031 C27.1346353,21.8766244 27.3746343,21.9711192 27.6263824,21.9711192 C27.6472337,21.9711192 27.6682708,21.9704912 27.6893078,21.9691385 C27.9637184,21.9520367 28.2153273,21.8248358 28.3976949,21.6108697 C28.580109,21.3969519 28.6715018,21.1219217 28.6550158,20.8364565 Z" id="Fill-1"></path>
        </g>
    </g>
</svg>